<svg version="1.0" xmlns="http://www.w3.org/2000/svg"
 width="100%" height="100%" viewBox="0 0 680.000000 700.000000"
 preserveAspectRatio="xMidYMid meet">
<g transform="translate(0.000000,700.000000) scale(0.100000,-0.100000)"
fill="#5b4e4b" stroke="none">
<path d="M2924 6983 c2 -10 12 -44 22 -75 l18 -58 190 0 c176 0 386 -13 429
-26 13 -4 16 -12 12 -26 -4 -11 -518 -1240 -1142 -2731 -624 -1492 -1163
-2782 -1198 -2867 -79 -196 -112 -263 -189 -375 -167 -246 -441 -436 -696
-485 -57 -11 -307 -40 -347 -40 -23 0 -23 -1 -23 -150 l0 -150 1120 0 1121 0
-3 152 -3 153 -175 17 c-461 46 -551 72 -605 181 -32 64 -34 160 -5 270 10 42
214 546 453 1119 239 574 437 1051 440 1061 4 10 54 129 111 265 419 991 1566
3758 1566 3777 0 3 -248 5 -551 5 -519 0 -550 -1 -545 -17z"/>
</g>
  <path
     style="fill:rgba(0,0,0,0.75);fill-opacity:1;stroke:none;stroke-width:0.2;stroke-miterlimit:10;stroke-dasharray:none;stroke-opacity:1"
     d="m 502.66434,0.01338779 c 0,0 -113.83767,-0.30107312 0.004,-0.0018119 C 502.66869,2.3865759 359.125,348.875 306.75,472.75 c -7.125,17 -13.375,31.875 -13.875,33.125 -0.375,1.25 -25.125,60.875 -55,132.625 C 208,710.125 182.5,773.125 181.25,778.375 c -3.625,13.75 -3.375,25.75 0.625,33.75 6.75,13.625 18,16.875 75.625,22.625 l 21.875,2.125 0.375,19.125 0.375,19 -121.73242,0 0,1.41406 694.3789,0 0,-876.8124975 z"
     transform="scale(0.8,0.8)"
     id="rect4168" />
</svg>
