<?xml version="1.0" encoding="UTF-8" standalone="no"?>
<svg
   xmlns:dc="http://purl.org/dc/elements/1.1/"
   xmlns:cc="http://creativecommons.org/ns#"
   xmlns:rdf="http://www.w3.org/1999/02/22-rdf-syntax-ns#"
   xmlns:svg="http://www.w3.org/2000/svg"
   xmlns="http://www.w3.org/2000/svg"
   xmlns:sodipodi="http://sodipodi.sourceforge.net/DTD/sodipodi-0.dtd"
   xmlns:inkscape="http://www.inkscape.org/namespaces/inkscape"
   version="1.0"
   width="100%"
   height="100%"
   viewBox="0 0 1947.000000 2010.000000"
   preserveAspectRatio="xMidYMid meet"
   id="svg2"
   inkscape:version="0.91 r13725"
   sodipodi:docname="letter_a.svg">
  <metadata
     id="metadata16">
    <rdf:RDF>
      <cc:Work
         rdf:about="">
        <dc:format>image/svg+xml</dc:format>
        <dc:type
           rdf:resource="http://purl.org/dc/dcmitype/StillImage" />
        <dc:title></dc:title>
      </cc:Work>
    </rdf:RDF>
  </metadata>
  <defs
     id="defs14" />
  <sodipodi:namedview
     pagecolor="#ffffff"
     bordercolor="#666666"
     borderopacity="1"
     objecttolerance="10"
     gridtolerance="10"
     guidetolerance="10"
     inkscape:pageopacity="0"
     inkscape:pageshadow="2"
     inkscape:window-width="1855"
     inkscape:window-height="1056"
     id="namedview12"
     showgrid="false"
     inkscape:zoom="0.23482587"
     inkscape:cx="522.52626"
     inkscape:cy="1589.5825"
     inkscape:window-x="65"
     inkscape:window-y="24"
     inkscape:window-maximized="1"
     inkscape:current-layer="svg2" />
  <g
     transform="matrix(0.1,0,0,-0.10060075,0,2022.0544)"
     id="g4"
     style="fill:#000000;stroke:none">
    <path
       d="m 7203,20110.615 c -146,-3.007 -193,-6.014 -193,-16.038 0,-13.031 97,-339.805 123,-412.978 l 14,-40.095 709,-6.015 c 665,-6.014 836,-13.03 982,-39.092 49,-9.022 92,-25.06 92,-35.083 0,-13.031 -120,-417.991 -194,-651.544 C 8315,17570.597 5521,9091.5049 4389,5723.5243 3913,4304.161 3832,4070.6076 3620,3493.2395 3191,2326.4748 2915,1676.9357 2702,1329.1115 2484,974.27068 2022,761.76714 1305,686.589 c -88,-10.02375 -160,-18.04276 -160,-19.04513 0,0 -38,-113.2684 -83,-250.5938 C 1017,279.62467 982,165.3539 984,163.34915 1002,145.3064 1248,138.28977 2215,130.27077 3896,116.23752 4852,92.180514 5785,37.049879 6151,16 6190,16 9680,16 c 3471,0 3531,1.002375 3885,21.049879 919,55.130635 1877,80.190011 3545,93.220891 1014,9.02138 1248,15.03563 1267,33.07838 4,4.0095 -152,492.16622 -161,505.19709 0,0 -86,11.02613 -191,22.05226 -555,63.14964 -982,221.52491 -1223,455.0783 -225,217.5154 -582,1024.4275 -1154,2603.1684 -287,793.8811 -1499,4420.4745 -3081,9221.8518 -1366,4145.824 -2012,6134.536 -2107,6488.374 l -29,108.257 32,14.033 c 90,37.088 410,55.131 1018,55.131 256,0 527,3.007 601,6.014 l 136,7.017 50,161.382 c 69,216.513 87,285.677 78,294.698 -7,6.015 -4716,11.027 -5143,5.012 z"
       id="path6"
       inkscape:connector-curvature="0"
       style="fill:#5b4e4b;stroke:none" />
    <path
       d="m 9786,18645 c 135,-40 199,-157 498,-908 439,-1103 764,-2036 1581,-4542 669,-2051 919,-2798 1036,-3094 38,-95 69,-177 69,-182 0,-5 -1427,-9 -3290,-9 -1809,0 -3290,3 -3290,6 0,3 36,98 81,212 92,234 488,1416 949,2832 737,2262 1130,3412 1465,4285 321,835 489,1223 574,1326 65,78 207,110 327,74 z"
       id="path8"
       inkscape:connector-curvature="0"
       style="fill:#000000;stroke:none" />
    <path
       d="m 13153,9343 c 3,-10 17,-52 32,-93 14,-41 43,-145 65,-230 64,-255 231,-795 615,-1985 939,-2910 1355,-4363 1476,-5157 17,-112 22,-191 23,-368 l 1,-225 -32,-80 c -121,-298 -290,-418 -683,-486 -212,-36 -530,-59 -1055,-74 -296,-9 -569,-25 -579,-35 -4,-4 -1,-34 9,-67 16,-57 140,-448 151,-478 6,-13 -374,-15 -3496,-15 -2798,0 -3501,3 -3497,13 14,37 138,422 152,475 11,37 14,67 9,72 -11,10 -290,26 -739,40 -742,24 -1049,69 -1270,183 -138,72 -225,177 -302,363 -34,83 -37,97 -41,218 -22,659 330,1975 1503,5616 413,1282 553,1735 625,2018 35,141 76,272 95,303 4,5 1316,9 3469,9 3290,0 3464,-1 3469,-17 z"
       id="path10"
       inkscape:connector-curvature="0"
       style="fill:#000000;stroke:none" />
  </g>
</svg>
