<svg version="1.0" xmlns="http://www.w3.org/2000/svg"
 width="100%" height="100%" viewBox="0 0 1947.000000 2010.000000"
 preserveAspectRatio="xMidYMid meet">
<g transform="translate(0.000000,2010.000000) scale(0.100000,-0.100000)"
fill="#000000" stroke="none">
<path fill="#5b4e4b" stroke="none" d="M7203 20063 c-146 -3 -193 -6 -193 -16
0 -13 97 -339 123 -412 l14 -40 709 -6 c665 -6 836 -13 982 -39 49 -9 92 -25
92 -35 0 -13 -120 -417 -194 -650 -421 -1336 -3215 -9795 -4347 -13155 -476
-1416 -557 -1649 -769 -2225 -429 -1164 -705 -1812 -918 -2159 -218 -354 -680
-566 -1397 -641 -88 -10 -160 -18 -160 -19 0 0 -38 -113 -83 -250 -45 -137
-80 -251 -78 -253 18 -18 264 -25 1231 -33 1681 -14 2637 -38 3570 -93 366
-21 405 -21 3895 -21 3471 0 3531 1 3885 21 919 55 1877 80 3545 93 1014 9
1248 15 1267 33 4 4 -152 491 -161 504 0 0 -86 11 -191 22 -555 63 -982 221
-1223 454 -225 217 -582 1022 -1154 2597 -287 792 -1499 4410 -3081 9200
-1366 4136 -2012 6120 -2107 6473 l-29 108 32 14 c90 37 410 55 1018 55 256 0
527 3 601 6 l136 7 50 161 c69 216 87 285 78 294 -7 6 -4716 11 -5143 5z"/>
<path fill="#000000" stroke="none" d="M9786 18645 c135 -40 199 -157 498
-908 439 -1103 764 -2036 1581 -4542 669 -2051 919 -2798 1036 -3094 38 -95
69 -177 69 -182 0 -5 -1427 -9 -3290 -9 -1809 0 -3290 3 -3290 6 0 3 36 98 81
212 92 234 488 1416 949 2832 737 2262 1130 3412 1465 4285 321 835 489 1223
574 1326 65 78 207 110 327 74z"/>
<path fill="#000000" stroke="none" d="M13153 9343 c3 -10 17 -52 32 -93 14
-41 43 -145 65 -230 64 -255 231 -795 615 -1985 939 -2910 1355 -4363 1476
-5157 17 -112 22 -191 23 -368 l1 -225 -32 -80 c-121 -298 -290 -418 -683
-486 -212 -36 -530 -59 -1055 -74 -296 -9 -569 -25 -579 -35 -4 -4 -1 -34 9
-67 16 -57 140 -448 151 -478 6 -13 -374 -15 -3496 -15 -2798 0 -3501 3 -3497
13 14 37 138 422 152 475 11 37 14 67 9 72 -11 10 -290 26 -739 40 -742 24
-1049 69 -1270 183 -138 72 -225 177 -302 363 -34 83 -37 97 -41 218 -22 659
330 1975 1503 5616 413 1282 553 1735 625 2018 35 141 76 272 95 303 4 5 1316
9 3469 9 3290 0 3464 -1 3469 -17z"/>
</g>
</svg>
