<?xml version="1.0" encoding="utf-8"?>
<!-- Generator: Adobe Illustrator 22.0.0, SVG Export Plug-In . SVG Version: 6.00 Build 0)  -->
<svg version="1.1" id="Layer_1" xmlns="http://www.w3.org/2000/svg" xmlns:xlink="http://www.w3.org/1999/xlink" x="0px" y="0px"
	 viewBox="0 0 100 96.9" style="enable-background:new 0 0 100 96.9;" xml:space="preserve">
<style type="text/css">
	.st0{fill:#5B4E4B;stroke:#B79D7C;stroke-miterlimit:10;}
</style>
<g>
	<path class="st0" d="M80.9,3.2c-1.9,0-4.9,0.5-6.9,2.5L59.8,24c6.9,3.6,12.5,9.4,15.6,16.6l17.1-16.4c2-2,2.5-5.1,2.5-7
		C95,9.5,88.7,3.2,80.9,3.2z"/>
	<path class="st0" d="M63.4,35.7C50,23.1,28.2,20.6,16.3,37.9C2.4,58,25,76,5,88.6c4.5,3.5,13.1,4.8,17,4.5c19-2,21.9-22,21.9-22
		s2.8,10.5-4.2,20.8c14.3-1.6,23.3-8.3,27.4-14.4C75.5,65,76.4,48,63.4,35.7z"/>
</g>
</svg>
