<?xml version="1.0" standalone="no"?>
<!DOCTYPE svg PUBLIC "-//W3C//DTD SVG 1.1//EN" "http://www.w3.org/Graphics/SVG/1.1/DTD/svg11.dtd" >
<svg xmlns="http://www.w3.org/2000/svg" xmlns:xlink="http://www.w3.org/1999/xlink" version="1.1">
<metadata>
Created by FontForge 20170731 at Tue Oct 22 18:07:43 2013
 By Aleksey,,,
Copyright (c) 2012 S-Core. All rights reserved.
</metadata>
<defs>
<font id="CoreSansN-45Regular" horiz-adv-x="1000" >
  <font-face 
    font-family="Core Sans N"
    font-weight="400"
    font-stretch="normal"
    units-per-em="1000"
    panose-1="2 11 5 3 3 3 2 2 2 4"
    ascent="800"
    descent="-200"
    x-height="518"
    cap-height="700"
    bbox="-421 -310 1000 999"
    underline-thickness="24"
    underline-position="-231"
    unicode-range="U+000D-FB04"
  />
<missing-glyph horiz-adv-x="300" 
 />
    <glyph glyph-name="f_f" unicode="ff" horiz-adv-x="667" 
d="M10 518h109v30q0 91 44.5 136.5t130.5 45.5q25 0 50.5 -3.5t42.5 -10.5l-9 -74q-17 7 -37.5 10.5t-40.5 3.5q-52 0 -74.5 -26t-22.5 -91v-21h230v30q0 90 43 136t129 46q18 0 37 -2t35 -7l-9 -74q-11 5 -26.5 7t-29.5 2q-51 0 -73 -26t-22 -91v-21h145v-72h-145v-446h-84
v446h-230v-446h-84v446h-109v72z" />
    <glyph glyph-name="f_f_i" unicode="ffi" horiz-adv-x="911" 
d="M203 518h230v30q0 90 43 136t129 46q18 0 37 -2t35 -7l-9 -74q-11 5 -26.5 7t-29.5 2q-51 0 -73 -26t-22 -91v-21h145v-72h-145v-446h-84v446h-230v-446h-84v446h-109v72h109v30q0 91 44.5 136.5t130.5 45.5q25 0 50.5 -3.5t42.5 -10.5l-9 -74q-17 7 -37.5 10.5
t-40.5 3.5q-52 0 -74.5 -26t-22.5 -91v-21zM752 518h84v-518h-84v518zM741 677q0 53 53 53t53 -53t-53 -53t-53 53z" />
    <glyph glyph-name="f_f_l" unicode="ffl" horiz-adv-x="911" 
d="M203 518h230v30q0 90 43 136t129 46q18 0 37 -2t35 -7l-9 -74q-11 5 -26.5 7t-29.5 2q-51 0 -73 -26t-22 -91v-21h145v-72h-145v-446h-84v446h-230v-446h-84v446h-109v72h109v30q0 91 44.5 136.5t130.5 45.5q25 0 50.5 -3.5t42.5 -10.5l-9 -74q-17 7 -37.5 10.5
t-40.5 3.5q-52 0 -74.5 -26t-22.5 -91v-21zM752 730h84v-730h-84v730z" />
    <glyph glyph-name="f_i" unicode="fi" horiz-adv-x="587" 
d="M10 518h109v30q0 90 43 136t129 46q18 0 37 -2t35 -7l-9 -74q-11 5 -26.5 7t-29.5 2q-51 0 -73 -26t-22 -91v-21h145v-72h-145v-446h-84v446h-109v72zM428 518h84v-518h-84v518zM417 677q0 53 53 53t53 -53t-53 -53t-53 53z" />
    <glyph glyph-name="f_l" unicode="fl" horiz-adv-x="587" 
d="M10 518h109v30q0 90 43 136t129 46q18 0 37 -2t35 -7l-9 -74q-11 5 -26.5 7t-29.5 2q-51 0 -73 -26t-22 -91v-21h145v-72h-145v-446h-84v446h-109v72zM428 730h84v-730h-84v730z" />
    <glyph glyph-name=".notdef" horiz-adv-x="300" 
 />
    <glyph glyph-name=".null" horiz-adv-x="0" 
 />
    <glyph glyph-name="nonmarkingreturn" unicode="&#xd;" horiz-adv-x="237" 
 />
    <glyph glyph-name="NULL" horiz-adv-x="0" 
 />
    <glyph glyph-name="NULL" horiz-adv-x="0" 
 />
    <glyph glyph-name="space" unicode=" " horiz-adv-x="300" 
 />
    <glyph glyph-name="exclam" unicode="!" horiz-adv-x="288" 
d="M94 519v181h100v-181l-24 -350h-52zM85 47q0 59 59 59t59 -59t-59 -59t-59 59z" />
    <glyph glyph-name="quotedbl" unicode="&#x22;" horiz-adv-x="488" 
d="M286 700h102v-30l-27 -242h-62zM100 700h103v-30l-27 -242h-62z" />
    <glyph glyph-name="numbersign" unicode="#" horiz-adv-x="679" 
d="M483 700h86l-30 -174h105v-75h-118l-34 -198h113v-75h-126l-30 -178h-86l30 178h-167l-30 -178h-86l30 178h-105v75h118l34 198h-113v75h126l30 174h86l-30 -174h167zM239 253h167l34 198h-167z" />
    <glyph glyph-name="dollar" unicode="$" horiz-adv-x="542" 
d="M451 592q-32 18 -70.5 27.5t-74.5 11.5v-237q51 -19 87 -40t59 -46.5t34 -56t11 -67.5q0 -81 -49.5 -130.5t-141.5 -61.5v-90h-62v86q-107 0 -190 46l8 92q39 -29 85.5 -43t96.5 -15v257q-99 33 -146.5 83t-47.5 125q0 74 51 120t143 56v91h62v-88q38 -2 79.5 -10
t72.5 -22zM407 179q0 40 -22.5 70t-78.5 54v-231q50 10 75.5 37.5t25.5 69.5zM140 533q0 -38 24.5 -65.5t79.5 -50.5v212q-54 -8 -79 -33t-25 -63z" />
    <glyph glyph-name="percent" unicode="%" horiz-adv-x="887" 
d="M645 700h96l-499 -700h-96zM80 528q0 39 11 71.5t31.5 56.5t49.5 37.5t66 13.5t66 -13.5t49.5 -37.5t31.5 -56.5t11 -71.5t-11 -71.5t-31.5 -56.5t-49.5 -37.5t-66 -13.5t-66 13.5t-49.5 37.5t-31.5 56.5t-11 71.5zM166 528q0 -53 18.5 -78t53.5 -25t53.5 25t18.5 78
t-18.5 78t-53.5 25t-53.5 -25t-18.5 -78zM491 172q0 39 11 71.5t31.5 56.5t49.5 37.5t66 13.5t66 -13.5t49.5 -37.5t31.5 -56.5t11 -71.5t-11 -71.5t-31.5 -56.5t-49.5 -37.5t-66 -13.5t-66 13.5t-49.5 37.5t-31.5 56.5t-11 71.5zM577 172q0 -53 18.5 -78t53.5 -25t53.5 25
t18.5 78t-18.5 78t-53.5 25t-53.5 -25t-18.5 -78z" />
    <glyph glyph-name="ampersand" unicode="&#x26;" horiz-adv-x="662" 
d="M263 -12q-45 0 -85.5 12.5t-71 36.5t-48.5 60.5t-18 84.5q0 128 141 202q-24 25 -41 46t-27.5 40.5t-15.5 39t-5 42.5q0 37 13.5 66.5t37.5 50.5t57.5 32t73.5 11t73.5 -12t58.5 -33.5t39 -52.5t14 -69q0 -58 -32 -103t-104 -80l144 -141q11 35 17.5 76.5t6.5 90.5h86
q0 -139 -43 -233l158 -155h-119l-84 82q-82 -94 -226 -94zM127 177q0 -49 36.5 -80t101.5 -31q103 0 162 77l-187 184q-32 -16 -54 -32.5t-35 -35t-18.5 -39t-5.5 -43.5zM372 545q0 39 -28 65t-71 26q-47 0 -70.5 -25.5t-23.5 -57.5q0 -14 3.5 -26.5t12.5 -27t25.5 -33.5
t42.5 -45q58 28 83.5 57t25.5 67z" />
    <glyph glyph-name="quotesingle" unicode="'" horiz-adv-x="292" 
d="M95 700h102v-30l-27 -242h-62z" />
    <glyph glyph-name="parenleft" unicode="(" horiz-adv-x="359" 
d="M100 310q0 119 42 232t112 208h75q-32 -48 -58.5 -102t-45.5 -110.5t-29.5 -114.5t-10.5 -113q0 -56 10.5 -113.5t29.5 -114t45.5 -110.5t58.5 -102h-75q-70 95 -112 208t-42 232z" />
    <glyph glyph-name="parenright" unicode=")" horiz-adv-x="359" 
d="M259 310q0 -119 -42 -232t-112 -208h-75q32 48 58.5 102t45.5 110.5t29.5 114t10.5 113.5q0 55 -10.5 113t-29.5 114.5t-45.5 110.5t-58.5 102h75q70 -95 112 -208t42 -232z" />
    <glyph glyph-name="asterisk" unicode="*" horiz-adv-x="546" 
d="M486 259l-43 -75l-134 86l7 -159h-86l7 159l-134 -86l-43 75l141 73l-141 73l43 75l134 -86l-7 159h86l-7 -159l134 86l43 -75l-141 -73z" />
    <glyph glyph-name="plus" unicode="+" horiz-adv-x="618" 
d="M264 293h-204v78h204v208h90v-208h204v-78h-204v-208h-90v208z" />
    <glyph glyph-name="comma" unicode="," horiz-adv-x="290" 
d="M86 47q0 59 57 59q32 0 47 -16t15 -56q0 -57 -26.5 -105t-73.5 -73l-20 30q24 20 38 47t16 55q-31 2 -42 19t-11 40z" />
    <glyph glyph-name="hyphen" unicode="-" horiz-adv-x="406" 
d="M60 289v86h286v-86h-286z" />
    <glyph glyph-name="period" unicode="." horiz-adv-x="290" 
d="M86 47q0 59 59 59t59 -59t-59 -59t-59 59z" />
    <glyph glyph-name="slash" unicode="/" horiz-adv-x="501" 
d="M82 -110h-92l429 858h92z" />
    <glyph glyph-name="zero" unicode="0" horiz-adv-x="580" 
d="M37 350q0 76 15 142.5t46.5 115t79 76.5t112.5 28t112.5 -28t79 -76.5t46.5 -115t15 -142.5q0 -77 -15 -143t-46.5 -114.5t-79 -76.5t-112.5 -28t-112.5 28t-79 76.5t-46.5 114.5t-15 143zM129 350q0 -132 40 -207t121 -75t121 75t40 207t-40 207t-121 75t-121 -75
t-40 -207z" />
    <glyph glyph-name="one" unicode="1" horiz-adv-x="580" 
d="M142 497l-48 66l187 137h83v-700h-88v595z" />
    <glyph glyph-name="two" unicode="2" horiz-adv-x="580" 
d="M61 0v78q54 48 115 106t115 118q51 57 81.5 111t30.5 108q0 56 -42 83.5t-105 27.5q-47 0 -89 -13.5t-74 -33.5l-6 83q32 19 80.5 31.5t96.5 12.5q47 0 89 -12.5t73.5 -37t50 -61.5t18.5 -86q0 -66 -30 -124t-91 -125q-54 -60 -100 -105t-91 -83h317v-78h-439z" />
    <glyph glyph-name="three" unicode="3" horiz-adv-x="580" 
d="M160 405q54 0 98 8.5t75 25t48 39.5t17 53q0 50 -34.5 75.5t-112.5 25.5q-42 0 -83.5 -9.5t-76.5 -29.5l-8 82q35 17 81 27t92 10q115 0 174.5 -46t59.5 -125q0 -72 -37 -112.5t-97 -62.5q64 -21 104.5 -65.5t40.5 -114.5q0 -45 -17.5 -81.5t-50.5 -62.5t-79.5 -40
t-104.5 -14q-21 0 -44.5 1.5t-47.5 5t-47 9t-42 14.5l8 87q16 -10 37 -17.5t43.5 -12t45 -7t42.5 -2.5q80 0 122.5 32.5t42.5 88.5q0 36 -18.5 62.5t-52 44t-79 25.5t-99.5 8v78z" />
    <glyph glyph-name="four" unicode="4" horiz-adv-x="580" 
d="M32 155v88l330 457h97v-467h93v-78h-93v-155h-88v155h-339zM124 233h247v340z" />
    <glyph glyph-name="five" unicode="5" horiz-adv-x="580" 
d="M106 700h390v-78h-302v-199q33 10 85 10t95.5 -14t75 -42t49.5 -69.5t18 -95.5q0 -48 -18 -89t-51.5 -71t-81.5 -47t-109 -17q-41 0 -90 6.5t-87 23.5l8 89q33 -20 79 -29.5t85 -9.5q81 0 128 42.5t47 111.5q0 35 -12.5 60t-34.5 40.5t-52 23t-64 7.5q-80 0 -158 -26v373
z" />
    <glyph glyph-name="six" unicode="6" horiz-adv-x="580" 
d="M302 -12q-55 0 -101.5 19t-80.5 60t-53 105t-19 155q0 104 22 177.5t60 119.5t89 67t110 21q94 0 162 -30l-8 -89q-31 20 -69.5 29.5t-79.5 9.5q-40 0 -73.5 -13t-58.5 -42t-40.5 -75.5t-18.5 -113.5q27 31 72 48.5t97 17.5q49 0 90.5 -17.5t71.5 -49t47 -74.5t17 -95
q0 -51 -18 -93.5t-49.5 -73t-74.5 -47t-94 -16.5zM143 292q0 -58 12.5 -100t33.5 -69.5t49.5 -41t61.5 -13.5q68 0 108 40.5t40 112.5q0 36 -11 64.5t-31 48t-47 30t-59 10.5q-50 0 -92.5 -23t-64.5 -59z" />
    <glyph glyph-name="seven" unicode="7" horiz-adv-x="580" 
d="M246 0h-98l268 622h-347v78h439v-88z" />
    <glyph glyph-name="eight" unicode="8" horiz-adv-x="580" 
d="M290 -12q-56 0 -101 13.5t-77.5 39t-50 61.5t-17.5 81q0 61 37.5 110t104.5 77q-56 30 -85 70t-29 91q0 36 14 69t41.5 57.5t68.5 39.5t94 15q51 0 91.5 -14.5t68.5 -38.5t43 -56.5t15 -68.5q0 -54 -33.5 -94.5t-89.5 -67.5q151 -71 151 -189q0 -45 -17.5 -81t-50 -61.5
t-78 -39t-100.5 -13.5zM136 180q0 -51 42.5 -81.5t111.5 -30.5t111.5 30.5t42.5 81.5q0 22 -7.5 41.5t-26.5 38.5t-51.5 37t-81.5 36q-71 -22 -106 -63.5t-35 -89.5zM417 538q0 39 -33 66.5t-94 27.5t-94 -28t-33 -67q0 -22 7 -40t22.5 -33.5t41.5 -29.5t65 -29q54 21 86 53
t32 80z" />
    <glyph glyph-name="nine" unicode="9" horiz-adv-x="580" 
d="M278 712q55 0 101.5 -19t80.5 -60t53 -105t19 -155q0 -104 -22 -177.5t-60 -119.5t-89 -67t-110 -21q-95 0 -162 30l8 89q31 -20 69.5 -29.5t79.5 -9.5q40 0 73.5 13t58.5 42t40.5 75.5t18.5 113.5q-27 -31 -72 -48.5t-97 -17.5q-49 0 -90.5 17.5t-71.5 49t-47 74.5
t-17 95q0 51 18 93.5t49.5 73t74.5 47t94 16.5zM437 408q0 58 -12.5 100t-33.5 69.5t-49.5 41t-61.5 13.5q-68 0 -108 -40.5t-40 -112.5q0 -36 11 -64.5t31 -48t47 -30t59 -10.5q50 0 92.5 23t64.5 59z" />
    <glyph glyph-name="colon" unicode=":" horiz-adv-x="290" 
d="M86 47q0 59 59 59t59 -59t-59 -59t-59 59zM86 471q0 59 59 59t59 -59t-59 -59t-59 59z" />
    <glyph glyph-name="semicolon" unicode=";" horiz-adv-x="290" 
d="M86 471q0 59 59 59t59 -59t-59 -59t-59 59zM86 47q0 59 57 59q32 0 47 -16t15 -56q0 -57 -26.5 -105t-73.5 -73l-20 30q24 20 38 47t16 55q-31 2 -42 19t-11 40z" />
    <glyph glyph-name="less" unicode="&#x3c;" horiz-adv-x="618" 
d="M60 375l498 214v-90l-392 -167l392 -167v-90l-498 214v86z" />
    <glyph glyph-name="equal" unicode="=" horiz-adv-x="618" 
d="M60 409v78h498v-78h-498zM60 177v78h498v-78h-498z" />
    <glyph glyph-name="greater" unicode="&#x3e;" horiz-adv-x="618" 
d="M558 289l-498 -214v90l392 167l-392 167v90l498 -214v-86z" />
    <glyph glyph-name="question" unicode="?" horiz-adv-x="533" 
d="M50 668q35 20 80.5 32t94.5 12q109 0 173.5 -45t64.5 -130q0 -54 -28.5 -100.5t-90.5 -91.5q-41 -29 -57.5 -62t-16.5 -87v-27h-88v29q0 66 21 116.5t74 86.5q29 20 47.5 37t29.5 33.5t15 32.5t4 34q0 94 -145 94q-44 0 -90 -13t-81 -34zM168 47q0 59 59 59t59 -59
t-59 -59t-59 59z" />
    <glyph glyph-name="at" unicode="@" horiz-adv-x="964" 
d="M661 191q-1 -39 17.5 -62t60.5 -23q26 0 46.5 14.5t35 40t22.5 60.5t8 75q0 74 -26 138.5t-75 112t-118 74.5t-154 27q-80 0 -147 -28.5t-115.5 -79t-75.5 -119t-27 -147.5q0 -80 27.5 -148t77.5 -118t119.5 -78t153.5 -28q76 0 134 18t104 50l27 -57q-58 -35 -122 -55
t-143 -20q-98 0 -180 33t-141 91.5t-92 138.5t-33 173q0 94 32.5 174.5t90 139t137 91.5t173.5 33q98 0 179 -31.5t139.5 -87t90.5 -131.5t32 -166q0 -53 -12.5 -97.5t-37 -77t-59.5 -51t-80 -18.5q-47 0 -77.5 21.5t-47.5 56.5q-34 -37 -81.5 -54.5t-104.5 -17.5
q-36 0 -67.5 11.5t-54 33t-35.5 52t-13 67.5q0 61 22.5 111.5t59.5 86t84 55t96 19.5q126 0 188 -97zM427 130q42 0 83 16t70 56l33 177q-29 43 -101 43q-34 0 -65.5 -15t-56 -41.5t-39 -62t-14.5 -75.5q0 -50 25.5 -74t64.5 -24z" />
    <glyph glyph-name="A" unicode="A" horiz-adv-x="646" 
d="M371 700l270 -700h-97l-66 181h-310l-66 -181h-97l270 700h96zM196 259h254l-127 349z" />
    <glyph glyph-name="B" unicode="B" horiz-adv-x="625" 
d="M80 700h240q55 0 98 -14t72.5 -39t45 -58.5t15.5 -73.5q0 -48 -24 -85.5t-65 -57.5q60 -23 91.5 -67t31.5 -104q0 -95 -65.5 -148t-185.5 -53h-254v700zM308 402q75 0 115 30.5t40 82.5q0 56 -40 81.5t-115 25.5h-140v-220h140zM497 201q0 59 -42.5 91t-133.5 32h-153
v-246h153q91 0 133.5 31.5t42.5 91.5z" />
    <glyph glyph-name="C" unicode="C" horiz-adv-x="611" 
d="M45 350q0 79 25.5 145.5t72.5 114.5t113.5 75t148.5 27q92 0 162 -29l-8 -88q-33 19 -70.5 28t-78.5 9q-65 0 -116.5 -21.5t-86.5 -59t-53.5 -89t-18.5 -112.5q0 -64 19.5 -116t55.5 -89t87.5 -57t116.5 -20q38 0 76.5 9.5t72.5 29.5l8 -89q-38 -17 -79 -23.5t-83 -6.5
q-84 0 -151 26.5t-114.5 74t-73 114t-25.5 147.5z" />
    <glyph glyph-name="D" unicode="D" horiz-adv-x="680" 
d="M545 350q0 142 -77.5 207t-222.5 65h-77v-544h77q145 0 222.5 65t77.5 207zM635 350q0 -87 -28.5 -153t-79 -109.5t-119.5 -65.5t-150 -22h-178v700h178q81 0 150 -22t119.5 -65.5t79 -109.5t28.5 -153z" />
    <glyph glyph-name="E" unicode="E" horiz-adv-x="565" 
d="M80 700h436v-78h-348v-222h323v-78h-323v-244h357v-78h-445v700z" />
    <glyph glyph-name="F" unicode="F" horiz-adv-x="536" 
d="M80 700h436v-78h-348v-219h323v-78h-323v-325h-88v700z" />
    <glyph glyph-name="G" unicode="G" horiz-adv-x="706" 
d="M45 350q0 77 26 143.5t74 115t116 76t153 27.5q59 0 111.5 -9.5t95.5 -26.5l-8 -88q-41 21 -89.5 32.5t-104.5 11.5q-65 0 -117.5 -21t-89.5 -58.5t-57 -89.5t-20 -113q0 -63 19.5 -115t57.5 -89t93 -57.5t126 -20.5q35 0 65 5t52 13v221h-193v78h281v-358
q-48 -20 -99.5 -29.5t-112.5 -9.5q-87 0 -157 27t-119.5 75t-76 114.5t-26.5 145.5z" />
    <glyph glyph-name="H" unicode="H" horiz-adv-x="702" 
d="M80 700h88v-289h366v289h88v-700h-88v333h-366v-333h-88v700z" />
    <glyph glyph-name="I" unicode="I" horiz-adv-x="258" 
d="M173 700v-700h-88v700h88z" />
    <glyph glyph-name="J" unicode="J" horiz-adv-x="445" 
d="M277 700h88v-471q0 -123 -54 -182t-155 -59q-41 0 -77.5 7t-68.5 24l7 87q56 -38 137 -38q59 0 91 37.5t32 123.5v471z" />
    <glyph glyph-name="K" unicode="K" horiz-adv-x="607" 
d="M574 700l-313 -328l361 -372h-118l-336 354v-354h-88v700h88v-310l296 310h110z" />
    <glyph glyph-name="L" unicode="L" horiz-adv-x="565" 
d="M80 700h88v-622h377v-78h-465v700z" />
    <glyph glyph-name="M" unicode="M" horiz-adv-x="846" 
d="M386 232l-222 340v-572h-84v700h94l249 -385l249 385h94v-700h-84v572l-222 -340h-74z" />
    <glyph glyph-name="N" unicode="N" horiz-adv-x="708" 
d="M80 700h105l359 -591v591h84v-700h-105l-359 591v-591h-84v700z" />
    <glyph glyph-name="O" unicode="O" horiz-adv-x="715" 
d="M670 350q0 -76 -21 -142t-61 -115t-98 -77t-132 -28q-75 0 -133 28t-98 77t-61 115t-21 142t21 142t61 115t98 77t133 28q74 0 132 -28t98 -77t61 -115t21 -142zM135 350q0 -65 15.5 -117t45 -89t70.5 -56.5t92 -19.5t92 19.5t70 56.5t44.5 89t15.5 117t-15.5 117
t-44.5 89t-70 56.5t-92 19.5t-92 -19.5t-70.5 -56.5t-45 -89t-15.5 -117z" />
    <glyph glyph-name="P" unicode="P" horiz-adv-x="593" 
d="M558 482q0 -53 -19 -93.5t-53 -68t-82.5 -42t-106.5 -14.5h-129v-264h-88v700h217q58 0 106.5 -14.5t82.5 -42t53 -68.5t19 -93zM468 482q0 72 -43.5 106t-134.5 34h-122v-280h122q91 0 134.5 34t43.5 106z" />
    <glyph glyph-name="Q" unicode="Q" horiz-adv-x="715" 
d="M670 350q0 -69 -17 -130t-50 -108.5t-81 -78.5t-109 -41q9 -46 42 -63q31 -16 90 -16q20 0 42 2.5t42 7.5l10 -71q-22 -5 -47 -7.5t-49 -2.5q-38 0 -74.5 7t-64.5 23q-62 38 -74 117q-68 5 -121 35t-89.5 78t-55.5 111.5t-19 136.5q0 76 21 142t61 115t98 77t133 28
q74 0 132 -28t98 -77t61 -115t21 -142zM135 350q0 -65 15.5 -117t45 -89t70.5 -56.5t92 -19.5t92 19.5t70 56.5t44.5 89t15.5 117t-15.5 117t-44.5 89t-70 56.5t-92 19.5t-92 -19.5t-70.5 -56.5t-45 -89t-15.5 -117z" />
    <glyph glyph-name="R" unicode="R" horiz-adv-x="619" 
d="M566 496q0 -77 -43.5 -124.5t-112.5 -67.5l199 -304h-101l-189 292h-151v-292h-88v700h233q53 0 99.5 -13t80.5 -38.5t53.5 -64t19.5 -88.5zM476 496q0 126 -169 126h-139v-252h139q169 0 169 126z" />
    <glyph glyph-name="S" unicode="S" horiz-adv-x="542" 
d="M451 593q-37 21 -80 30t-83 9q-76 0 -112 -27t-36 -72q0 -43 33 -73t106 -56q58 -20 99.5 -41.5t67.5 -48t38.5 -58.5t12.5 -72q0 -94 -65.5 -145t-186.5 -51q-107 0 -191 46l8 92q41 -29 90 -43.5t100 -14.5q76 0 115.5 29t39.5 82q0 48 -33.5 82t-118.5 61
q-104 33 -154.5 83t-50.5 128q0 83 63 131t178 48q41 0 86 -7.5t81 -23.5z" />
    <glyph glyph-name="T" unicode="T" horiz-adv-x="544" 
d="M228 622h-218v78h524v-78h-218v-622h-88v622z" />
    <glyph glyph-name="U" unicode="U" horiz-adv-x="715" 
d="M358 -12q-61 0 -112 17.5t-88 53t-57.5 89t-20.5 125.5v427h88v-422q0 -99 44.5 -154.5t145.5 -55.5q100 0 144.5 55.5t44.5 154.5v422h88v-427q0 -72 -19.5 -125.5t-55.5 -89t-87 -53t-115 -17.5z" />
    <glyph glyph-name="V" unicode="V" horiz-adv-x="676" 
d="M290 0l-270 700h93l225 -597l225 597h93l-270 -700h-96z" />
    <glyph glyph-name="W" unicode="W" horiz-adv-x="996" 
d="M551 700l149 -597l181 597h95l-215 -700h-118l-145 587l-145 -587h-118l-215 700h95l181 -597l149 597h106z" />
    <glyph glyph-name="X" unicode="X" horiz-adv-x="668" 
d="M25 700h102l207 -278l207 278h102l-257 -344l267 -356h-102l-217 290l-217 -290h-102l267 356z" />
    <glyph glyph-name="Y" unicode="Y" horiz-adv-x="662" 
d="M375 277v-277h-88v277l-267 423h102l209 -339l209 339h102z" />
    <glyph glyph-name="Z" unicode="Z" horiz-adv-x="562" 
d="M421 622h-376v78h477v-88l-391 -534h401v-78h-502v88z" />
    <glyph glyph-name="bracketleft" unicode="[" horiz-adv-x="406" 
d="M120 750h266v-70h-180v-740h180v-70h-266v880z" />
    <glyph glyph-name="backslash" unicode="\" horiz-adv-x="501" 
d="M-10 748h92l429 -858h-92z" />
    <glyph glyph-name="bracketright" unicode="]" horiz-adv-x="406" 
d="M286 -130h-266v70h180v740h-180v70h266v-880z" />
    <glyph glyph-name="asciicircum" unicode="^" horiz-adv-x="618" 
d="M309 630l-166 -261h-100l216 331h100l216 -331h-100z" />
    <glyph glyph-name="underscore" unicode="_" horiz-adv-x="500" 
d="M0 -102h500v-68h-500v68z" />
    <glyph glyph-name="grave" unicode="`" horiz-adv-x="400" 
d="M300 568h-80l-145 152v10h107z" />
    <glyph glyph-name="a" unicode="a" horiz-adv-x="541" 
d="M235 -12q-43 0 -79.5 10.5t-63.5 31t-42 51t-15 71.5q0 79 59 125.5t168 46.5h130v36q0 54 -31.5 75t-101.5 21q-42 0 -88 -10.5t-82 -30.5l-9 75q37 18 84.5 29t96.5 11q52 0 92 -10t67.5 -32.5t41.5 -59t14 -89.5v-339h-84v40q-27 -26 -67.5 -39t-89.5 -13zM243 62
q48 0 87.5 16t61.5 48v126h-126q-75 0 -110 -26.5t-35 -71.5q0 -48 34 -70t88 -22z" />
    <glyph glyph-name="b" unicode="b" horiz-adv-x="580" 
d="M154 0h-84v730h84v-252q26 24 63.5 38t81.5 14q51 0 95 -18.5t76.5 -54t51 -85.5t18.5 -113t-18.5 -113t-51 -85.5t-76.5 -54t-95 -18.5q-44 0 -81.5 14t-63.5 38v-40zM154 126q23 -31 59 -47.5t78 -16.5q35 0 65 12.5t51.5 37t34 61.5t12.5 86t-12.5 85.5t-34 61.5
t-51.5 37.5t-65 12.5q-42 0 -78 -16.5t-59 -47.5v-266z" />
    <glyph glyph-name="c" unicode="c" horiz-adv-x="498" 
d="M126 259q0 -94 51 -145.5t139 -51.5q38 0 74 8.5t65 28.5l8 -80q-30 -16 -68.5 -23.5t-78.5 -7.5q-62 0 -113 19.5t-87 54.5t-56 85t-20 112q0 61 20 111.5t56 85.5t85 54.5t108 19.5q42 0 80.5 -7t68.5 -22l-8 -80q-27 17 -63.5 26t-74.5 9q-84 0 -135 -51.5t-51 -145.5
z" />
    <glyph glyph-name="d" unicode="d" horiz-adv-x="580" 
d="M426 40q-26 -24 -63.5 -38t-81.5 -14q-51 0 -95 18.5t-76.5 54t-51 85.5t-18.5 113t18.5 113t51 85.5t76.5 54t95 18.5q44 0 81.5 -14t63.5 -38v252h84v-730h-84v40zM426 392q-23 31 -59 47.5t-78 16.5q-35 0 -65 -12.5t-52 -37.5t-34 -61.5t-12 -85.5t12 -86t34 -61.5
t52 -37t65 -12.5q42 0 78 16.5t59 47.5v266z" />
    <glyph glyph-name="e" unicode="e" horiz-adv-x="544" 
d="M127 225q5 -74 50.5 -118.5t123.5 -44.5q46 0 84.5 10.5t72.5 38.5l9 -81q-32 -20 -74.5 -31t-93.5 -11q-64 0 -112.5 21t-81 57.5t-49 86t-16.5 107.5q0 61 16.5 110.5t47 85t74 55t96.5 19.5q56 0 100 -20t74 -56.5t45.5 -87t15.5 -110.5v-15.5t-1 -15.5h-381zM422 297
q-5 73 -43.5 116t-104.5 43t-104 -43t-43 -116h295z" />
    <glyph glyph-name="f" unicode="f" horiz-adv-x="353" 
d="M10 518h109v30q0 90 43 136t129 46q18 0 37 -2t35 -7l-9 -74q-11 5 -26.5 7t-29.5 2q-51 0 -73 -26t-22 -91v-21h145v-72h-145v-446h-84v446h-109v72z" />
    <glyph glyph-name="g" unicode="g" horiz-adv-x="576" 
d="M422 518h84v-480q0 -126 -58 -182t-182 -56q-98 0 -174 41l6 86q39 -26 81.5 -39.5t90.5 -13.5q78 0 115 33.5t37 118.5v26q-26 -25 -63 -39.5t-83 -14.5q-48 0 -91 18.5t-75.5 53t-51 84t-18.5 111.5t18.5 111t51 83.5t75.5 53t91 18.5q46 0 83 -14t63 -39v40zM422 392
q-23 32 -58.5 48.5t-80.5 16.5q-33 0 -62 -12.5t-50 -36.5t-33 -60t-12 -83t12 -83t33 -60.5t50 -37t62 -12.5q45 0 80.5 17t58.5 49v254z" />
    <glyph glyph-name="h" unicode="h" horiz-adv-x="583" 
d="M292 456q-45 0 -80.5 -18t-57.5 -47v-391h-84v730h84v-254q26 24 63.5 39t85.5 15q100 0 157.5 -59.5t57.5 -177.5v-293h-84v295q0 85 -35.5 123t-106.5 38z" />
    <glyph glyph-name="i" unicode="i" horiz-adv-x="234" 
d="M75 518h84v-518h-84v518zM64 677q0 53 53 53t53 -53t-53 -53t-53 53z" />
    <glyph glyph-name="j" unicode="j" horiz-adv-x="237" 
d="M83 518h84v-540q0 -91 -39.5 -134.5t-127.5 -43.5q-33 0 -60 8l8 73q9 -3 21.5 -5t23.5 -2q47 0 68.5 23t21.5 76v545zM73 677q0 53 52 53q53 0 53 -53t-53 -53q-52 0 -52 53z" />
    <glyph glyph-name="k" unicode="k" horiz-adv-x="517" 
d="M154 730v-424l229 212h108l-249 -229l270 -289h-110l-248 272v-272h-84v730h84z" />
    <glyph glyph-name="l" unicode="l" horiz-adv-x="234" 
d="M75 730h84v-730h-84v730z" />
    <glyph glyph-name="m" unicode="m" horiz-adv-x="879" 
d="M154 0h-84v518h84v-42q26 25 60.5 39.5t76.5 14.5q47 0 86 -18.5t65 -55.5q33 35 76 54.5t97 19.5q43 0 79.5 -15t63 -44t41.5 -70.5t15 -93.5v-307h-84v315q0 66 -32 103.5t-89 37.5q-80 0 -136 -62q12 -39 12 -87v-307h-84v315q0 70 -32.5 105.5t-84.5 35.5
q-42 0 -75.5 -18t-54.5 -47v-391z" />
    <glyph glyph-name="n" unicode="n" horiz-adv-x="583" 
d="M292 456q-45 0 -80.5 -18t-57.5 -47v-391h-84v518h84v-42q26 24 63.5 39t85.5 15q100 0 157.5 -59.5t57.5 -177.5v-293h-84v295q0 85 -35.5 123t-106.5 38z" />
    <glyph glyph-name="o" unicode="o" horiz-adv-x="580" 
d="M40 259q0 58 17.5 108t50 86t78.5 56.5t104 20.5t104 -20.5t78.5 -56.5t50 -86t17.5 -108q0 -59 -17.5 -108.5t-50 -85.5t-78.5 -56.5t-104 -20.5t-104 20.5t-78.5 56.5t-50 85.5t-17.5 108.5zM126 259q0 -91 43 -144t121 -53t121 53t43 144t-43 144t-121 53t-121 -53
t-43 -144z" />
    <glyph glyph-name="p" unicode="p" horiz-adv-x="580" 
d="M154 478q26 24 63.5 38t81.5 14q51 0 95 -18.5t76.5 -54t51 -85.5t18.5 -113t-18.5 -113t-51 -85.5t-76.5 -54t-95 -18.5q-44 0 -81.5 14t-63.5 38v-233h-84v711h84v-40zM154 126q23 -31 59 -47.5t78 -16.5q35 0 65 12.5t51.5 37t34 61.5t12.5 86t-12.5 85.5t-34 61.5
t-51.5 37.5t-65 12.5q-42 0 -78 -16.5t-59 -47.5v-266z" />
    <glyph glyph-name="q" unicode="q" horiz-adv-x="580" 
d="M426 518h84v-711h-84v233q-26 -24 -63.5 -38t-81.5 -14q-51 0 -95 18.5t-76.5 54t-51 85.5t-18.5 113t18.5 113t51 85.5t76.5 54t95 18.5q44 0 81.5 -14t63.5 -38v40zM426 392q-23 31 -59 47.5t-78 16.5q-35 0 -65 -12.5t-52 -37.5t-34 -61.5t-12 -85.5t12 -86t34 -61.5
t52 -37t65 -12.5q42 0 78 16.5t59 47.5v266z" />
    <glyph glyph-name="r" unicode="r" horiz-adv-x="375" 
d="M361 441q-13 5 -30 8t-33 3q-54 0 -90 -24.5t-54 -69.5v-358h-84v518h84v-58q25 32 63.5 51t89.5 19q15 0 32 -1.5t31 -5.5z" />
    <glyph glyph-name="s" unicode="s" horiz-adv-x="466" 
d="M217 -12q-48 0 -92.5 12t-79.5 33l7 84q32 -26 74 -40.5t91 -14.5q61 0 89.5 19.5t28.5 57.5q0 16 -5 29t-18.5 24t-36 20.5t-56.5 18.5q-86 22 -128 59.5t-42 96.5q0 69 53.5 106t141.5 37q39 0 78.5 -7t71.5 -21l-8 -80q-29 17 -65.5 25.5t-74.5 8.5q-57 0 -84 -17
t-27 -46q0 -30 27 -52t94 -39q88 -23 126.5 -61t38.5 -96q0 -76 -54.5 -116.5t-149.5 -40.5z" />
    <glyph glyph-name="t" unicode="t" horiz-adv-x="374" 
d="M15 518h93v155h84v-155h157v-72h-157v-248q0 -43 5.5 -69.5t17 -41.5t29.5 -20t43 -5q24 0 50 6l10 -74q-17 -3 -35.5 -4.5t-32.5 -1.5q-84 0 -127.5 42.5t-43.5 134.5v281h-93v72z" />
    <glyph glyph-name="u" unicode="u" horiz-adv-x="583" 
d="M291 62q45 0 80.5 18t57.5 47v391h84v-518h-84v42q-26 -24 -63.5 -39t-85.5 -15q-100 0 -157.5 59.5t-57.5 177.5v293h84v-295q0 -85 35.5 -123t106.5 -38z" />
    <glyph glyph-name="v" unicode="v" horiz-adv-x="528" 
d="M219 0l-204 518h90l159 -425l159 425h90l-204 -518h-90z" />
    <glyph glyph-name="w" unicode="w" horiz-adv-x="788" 
d="M432 518l124 -412l126 412h91l-177 -518h-80l-122 402l-122 -402h-80l-177 518h91l126 -412l124 412h76z" />
    <glyph glyph-name="x" unicode="x" horiz-adv-x="516" 
d="M258 329l140 189h94l-186 -250l200 -268h-95l-153 207l-153 -207h-95l200 268l-186 250h94z" />
    <glyph glyph-name="y" unicode="y" horiz-adv-x="529" 
d="M15 518h89l166 -417l155 417h89l-273 -711h-87l73 193z" />
    <glyph glyph-name="z" unicode="z" horiz-adv-x="469" 
d="M25 82l314 364h-301v72h396v-82l-314 -365h324v-71h-419v82z" />
    <glyph glyph-name="braceleft" unicode="{" horiz-adv-x="385" 
d="M166 174q0 24 -8 42.5t-20 31t-27.5 19.5t-30.5 7v72q15 0 30.5 7t27.5 19.5t20 31t8 42.5v178q0 64 35 95t98 31h66v-72h-67q-46 0 -46 -48v-198q0 -51 -22 -80t-70 -42q48 -13 70 -42t22 -80v-198q0 -48 46 -48h67v-72h-66q-63 0 -98 31t-35 95v178z" />
    <glyph glyph-name="bar" unicode="|" horiz-adv-x="292" 
d="M110 769h72v-969h-72v969z" />
    <glyph glyph-name="braceright" unicode="}" horiz-adv-x="385" 
d="M219 -4q0 -64 -35 -95t-98 -31h-66v72h67q46 0 46 48v198q0 51 22 80t70 42q-48 13 -70 42t-22 80v198q0 48 -46 48h-67v72h66q63 0 98 -31t35 -95v-178q0 -24 8 -42.5t20 -31t27.5 -19.5t30.5 -7v-72q-15 0 -30.5 -7t-27.5 -19.5t-20 -31t-8 -42.5v-178z" />
    <glyph glyph-name="asciitilde" unicode="~" horiz-adv-x="618" 
d="M322 371q31 -22 51.5 -32t40.5 -10q23 0 38.5 16.5t17.5 66.5h88q0 -84 -40 -122.5t-104 -38.5q-31 0 -58.5 10t-59.5 33q-30 21 -52 31.5t-42 10.5q-23 0 -37.5 -16.5t-16.5 -66.5h-88q0 84 39 122.5t103 38.5q31 0 59.5 -10t60.5 -33z" />
    <glyph glyph-name="uni00A0" unicode="&#xa0;" horiz-adv-x="300" 
 />
    <glyph glyph-name="exclamdown" unicode="&#xa1;" horiz-adv-x="288" 
d="M118 349h52l24 -350v-181h-100v181zM85 471q0 59 59 59t59 -59t-59 -59t-59 59z" />
    <glyph glyph-name="cent" unicode="&#xa2;" horiz-adv-x="498" 
d="M322 -98h-62v91q-50 8 -91 30t-69.5 56.5t-44 80t-15.5 99.5q0 55 16 101t45.5 80.5t70 56.5t88.5 29v90h62v-86q36 -2 71 -8.5t65 -20.5l-8 -80q-26 17 -59.5 25t-68.5 10v-394q36 1 70.5 9.5t62.5 27.5l8 -80q-29 -15 -66 -22.5t-75 -8.5v-86zM126 259q0 -78 35.5 -127
t98.5 -64v382q-61 -14 -97.5 -63.5t-36.5 -127.5z" />
    <glyph glyph-name="sterling" unicode="&#xa3;" horiz-adv-x="585" 
d="M40 335v58h80v114q0 103 58 154t160 51q50 0 93 -11.5t78 -32.5l-7 -83q-38 24 -78.5 35.5t-81.5 11.5q-134 0 -134 -121v-118h207v-58h-207v-88q0 -116 -65 -169h412v-78h-515v70q38 30 59 68.5t21 91.5v105h-80z" />
    <glyph glyph-name="currency" unicode="&#xa4;" horiz-adv-x="707" 
d="M138 332q0 65 32 117l-90 90l63 64l88 -89q26 17 56.5 27t65.5 10t65.5 -10t56.5 -27l89 89l63 -64l-90 -90q15 -26 23.5 -55.5t8.5 -61.5q0 -65 -32 -117l90 -89l-63 -64l-89 88q-52 -35 -122 -35q-35 0 -65.5 9t-56.5 26l-88 -88l-63 64l89 89q-31 53 -31 117zM220 332
q0 -63 36.5 -100.5t96.5 -37.5t97 37.5t37 100.5t-37 101.5t-97 38.5t-96.5 -38.5t-36.5 -101.5z" />
    <glyph glyph-name="yen" unicode="&#xa5;" horiz-adv-x="602" 
d="M48 277v58h176l-204 365h98l183 -343l183 343h98l-205 -365h177v-58h-209v-66h209v-58h-209v-153h-88v153h-209v58h209v66h-209z" />
    <glyph glyph-name="brokenbar" unicode="&#xa6;" horiz-adv-x="292" 
d="M182 220v-320h-72v320h72zM182 688v-320h-72v320h72z" />
    <glyph glyph-name="section" unicode="&#xa7;" horiz-adv-x="516" 
d="M242 -100q-48 0 -92.5 13t-79.5 33l7 82q32 -26 74 -41t91 -15q60 0 88 23t28 58q0 16 -5 30t-18 25.5t-35 21t-56 17.5q-170 39 -170 159q0 49 26 83t70 53q-44 18 -71 48t-27 77q0 31 13.5 58t38.5 46t61 30t82 11q39 0 78.5 -8t71.5 -24l-8 -80q-33 20 -70.5 30
t-72.5 10q-53 0 -79.5 -21t-26.5 -52q0 -30 30 -51t93 -38q89 -25 125 -64t36 -95q0 -48 -25 -82t-66 -52q40 -16 66.5 -49t26.5 -77q0 -70 -52 -114.5t-152 -44.5zM356 315q0 41 -24 64t-74 32q-42 -8 -69 -33.5t-27 -63.5q0 -41 24 -64t74 -32q42 8 69 33.5t27 63.5z" />
    <glyph glyph-name="dieresis" unicode="&#xa8;" horiz-adv-x="400" 
d="M46 649q0 53 53 53t53 -53t-53 -53t-53 53zM248 649q0 53 53 53t53 -53t-53 -53t-53 53z" />
    <glyph glyph-name="copyright" unicode="&#xa9;" horiz-adv-x="830" 
d="M285 348q0 -75 40.5 -117t106.5 -42q30 0 59.5 7t52.5 21l7 -62q-26 -13 -57.5 -18.5t-63.5 -5.5q-46 0 -85 15.5t-67.5 44t-45 68.5t-16.5 89t16.5 89t45 68.5t67.5 44t85 15.5q32 0 63.5 -5t57.5 -18l-7 -63q-23 15 -52.5 21.5t-59.5 6.5q-66 0 -106.5 -42t-40.5 -117z
M53 350q0 75 28.5 141t77.5 115t115 77.5t141 28.5t141 -28.5t115 -77.5t77.5 -115t28.5 -141t-28.5 -141t-77.5 -115t-115 -77.5t-141 -28.5t-141 28.5t-115 77.5t-77.5 115t-28.5 141zM109 350q0 -65 24 -121.5t65.5 -98.5t97.5 -66t119 -24t119 24t97.5 66t65.5 98.5
t24 121.5q0 64 -24 120.5t-65.5 98.5t-97.5 66.5t-119 24.5t-119 -24.5t-97.5 -66.5t-65.5 -98.5t-24 -120.5z" />
    <glyph glyph-name="ordfeminine" unicode="&#xaa;" horiz-adv-x="440" 
d="M195 325q-30 0 -56 7t-45.5 21.5t-31 36.5t-11.5 52q0 66 45 96.5t121 30.5h80v4q0 18 -3.5 31.5t-13.5 23t-28 14t-46 4.5q-32 0 -62 -7t-54 -20l-7 62q24 12 58 19.5t68 7.5q81 0 120.5 -35t39.5 -114v-226h-72v28q-18 -18 -44.5 -27t-57.5 -9zM198 387q31 0 57 11
t42 34v77h-77q-49 0 -72 -17.5t-23 -45.5t18.5 -43.5t54.5 -15.5z" />
    <glyph glyph-name="guillemotleft" unicode="&#xab;" horiz-adv-x="537" 
d="M147 312l141 -124v-83l-218 192v30l218 192v-83zM336 312l141 -124v-83l-218 192v30l218 192v-83z" />
    <glyph glyph-name="logicalnot" unicode="&#xac;" horiz-adv-x="618" 
d="M55 444h498v-281h-90v203h-408v78z" />
    <glyph glyph-name="uni00AD" unicode="&#xad;" horiz-adv-x="406" 
d="M60 293v78h286v-78h-286z" />
    <glyph glyph-name="registered" unicode="&#xae;" horiz-adv-x="830" 
d="M53 350q0 75 28.5 141t77.5 115t115 77.5t141 28.5t141 -28.5t115 -77.5t77.5 -115t28.5 -141t-28.5 -141t-77.5 -115t-115 -77.5t-141 -28.5t-141 28.5t-115 77.5t-77.5 115t-28.5 141zM109 350q0 -65 24 -121.5t65.5 -98.5t97.5 -66t119 -24t119 24t97.5 66t65.5 98.5
t24 121.5q0 64 -24 120.5t-65.5 98.5t-97.5 66.5t-119 24.5t-119 -24.5t-97.5 -66.5t-65.5 -98.5t-24 -120.5zM572 437q0 -43 -23 -71.5t-65 -41.5l108 -183h-73l-100 174h-80v-174h-68v417h145q72 0 114 -31.5t42 -89.5zM504 437q0 31 -20.5 48t-71.5 17h-73v-130h73
q51 0 71.5 17.5t20.5 47.5z" />
    <glyph glyph-name="macron" unicode="&#xaf;" horiz-adv-x="400" 
d="M54 684h292v-72h-292v72z" />
    <glyph glyph-name="degree" unicode="&#xb0;" horiz-adv-x="400" 
d="M65 577q0 28 10.5 52.5t29 43t43 29t52.5 10.5t52.5 -10.5t43 -29t29 -43t10.5 -52.5t-10.5 -52.5t-29 -43t-43 -29t-52.5 -10.5t-52.5 10.5t-43 29t-29 43t-10.5 52.5zM131 577q0 -31 19.5 -51.5t49.5 -20.5t49.5 20.5t19.5 51.5t-19.5 51.5t-49.5 20.5t-49.5 -20.5
t-19.5 -51.5z" />
    <glyph glyph-name="plusminus" unicode="&#xb1;" horiz-adv-x="618" 
d="M264 356h-204v78h204v199h90v-199h204v-78h-204v-199h-90v199zM60 36v78h498v-78h-498z" />
    <glyph glyph-name="twosuperior" unicode="&#xb2;" horiz-adv-x="390" 
d="M38 237v62q36 31 75 69t74 76q35 39 50 71t15 62q0 32 -22.5 47.5t-60.5 15.5q-27 0 -56 -10t-54 -26l-5 73q23 13 56 22t64 9q70 -1 112 -33.5t42 -98.5q0 -40 -18.5 -80.5t-59.5 -85.5q-31 -34 -57 -60t-49 -47h188v-66h-294z" />
    <glyph glyph-name="threesuperior" unicode="&#xb3;" horiz-adv-x="390" 
d="M102 512q69 0 109.5 19t40.5 53q0 28 -20 42t-65 14q-54 0 -108 -30l-7 71q25 12 56.5 19.5t61.5 7.5q77 0 117.5 -31.5t40.5 -85.5q0 -43 -20 -69t-52 -41q36 -17 57.5 -45t21.5 -71q0 -62 -46 -99t-123 -37q-26 0 -60 5t-62 17l6 75q25 -16 56.5 -22.5t56.5 -6.5
q48 0 72 18t24 50q0 42 -44 61.5t-113 19.5v66z" />
    <glyph glyph-name="acute" unicode="&#xb4;" horiz-adv-x="400" 
d="M218 730h107v-10l-145 -152h-80z" />
    <glyph glyph-name="mu" unicode="&#xb5;" horiz-adv-x="588" 
d="M434 518h84v-518h-84v41q-25 -26 -61 -39.5t-79 -13.5t-79 13.5t-61 39.5v-234h-84v711h84v-387q23 -34 62 -50.5t78 -16.5t78 16.5t62 50.5v387z" />
    <glyph glyph-name="paragraph" unicode="&#xb6;" horiz-adv-x="572" 
d="M480 700v-831h-73v756h-45v-756h-76v398h-9q-47 0 -89.5 14.5t-74.5 42.5t-51 68.5t-19 92.5q0 51 16.5 91t46.5 67.5t70.5 42t88.5 14.5h215z" />
    <glyph glyph-name="periodcentered" unicode="&#xb7;" horiz-adv-x="290" 
d="M86 332q0 59 59 59t59 -59t-59 -59t-59 59z" />
    <glyph glyph-name="cedilla" unicode="&#xb8;" horiz-adv-x="400" 
d="M108 -180q18 -7 48 -7q29 0 47 10.5t18 34.5q0 26 -27.5 41t-69.5 15l45 86h75l-30 -56q35 -9 56.5 -31.5t21.5 -54.5q0 -46 -30 -71t-102 -25q-27 0 -52 5v53z" />
    <glyph glyph-name="onesuperior" unicode="&#xb9;" horiz-adv-x="390" 
d="M98 547l-39 60l129 94h65v-464h-74v369z" />
    <glyph glyph-name="ordmasculine" unicode="&#xba;" horiz-adv-x="440" 
d="M38 517q0 41 13 76t37 60.5t57.5 40t74.5 14.5q40 0 73.5 -14.5t57.5 -40t37.5 -60.5t13.5 -76t-13.5 -76t-37.5 -60.5t-57.5 -40t-73.5 -14.5q-41 0 -74.5 14.5t-57.5 40t-37 60.5t-13 76zM112 517q0 -60 29 -94.5t79 -34.5t79 34.5t29 94.5t-29 94.5t-79 34.5
t-79 -34.5t-29 -94.5z" />
    <glyph glyph-name="guillemotright" unicode="&#xbb;" horiz-adv-x="537" 
d="M249 436v83l218 -192v-30l-218 -192v83l141 124zM60 436v83l218 -192v-30l-218 -192v83l141 124z" />
    <glyph glyph-name="onequarter" unicode="&#xbc;" horiz-adv-x="950" 
d="M98 547l-39 60l129 94h65v-464h-74v369zM310 -15h-78l392 730h78zM543 101v68l214 296h76v-298h56v-66h-56v-99h-74v99h-216zM625 167h134v187z" />
    <glyph glyph-name="onehalf" unicode="&#xbd;" horiz-adv-x="950" 
d="M98 547l-39 60l129 94h65v-464h-74v369zM271 -15h-78l392 730h78zM579 2v62q36 31 75 69t74 76q35 39 50 71t15 62q0 32 -22.5 47.5t-60.5 15.5q-27 0 -56 -10t-54 -26l-5 73q23 13 56 22t64 9q70 -1 112 -33.5t42 -98.5q0 -40 -18.5 -80.5t-59.5 -85.5q-31 -34 -57 -60
t-49 -47h188v-66h-294z" />
    <glyph glyph-name="threequarters" unicode="&#xbe;" horiz-adv-x="950" 
d="M339 -15h-78l392 730h78zM543 101v68l214 296h76v-298h56v-66h-56v-99h-74v99h-216zM625 167h134v187zM102 512q69 0 109.5 19t40.5 53q0 28 -20 42t-65 14q-54 0 -108 -30l-7 71q25 12 56.5 19.5t61.5 7.5q77 0 117.5 -31.5t40.5 -85.5q0 -43 -20 -69t-52 -41
q36 -17 57.5 -45t21.5 -71q0 -62 -46 -99t-123 -37q-26 0 -60 5t-62 17l6 75q25 -16 56.5 -22.5t56.5 -6.5q48 0 72 18t24 50q0 42 -44 61.5t-113 19.5v66z" />
    <glyph glyph-name="questiondown" unicode="&#xbf;" horiz-adv-x="533" 
d="M483 -150q-35 -20 -80.5 -32t-94.5 -12q-109 0 -173.5 45t-64.5 130q0 54 28.5 100.5t90.5 91.5q41 29 57.5 62t16.5 87v27h88v-29q0 -66 -21 -116.5t-74 -86.5q-29 -20 -47.5 -37t-29.5 -33.5t-15 -32.5t-4 -34q0 -94 145 -94q44 0 90 13t81 34zM365 471q0 -59 -59 -59
t-59 59t59 59t59 -59z" />
    <glyph glyph-name="Agrave" unicode="&#xc0;" horiz-adv-x="646" 
d="M371 700l270 -700h-97l-66 181h-310l-66 -181h-97l270 700h96zM196 259h254l-127 349zM388 762h-80l-145 152v10h107z" />
    <glyph glyph-name="Aacute" unicode="&#xc1;" horiz-adv-x="646" 
d="M371 700l270 -700h-97l-66 181h-310l-66 -181h-97l270 700h96zM196 259h254l-127 349zM376 924h107v-10l-145 -152h-80z" />
    <glyph glyph-name="Acircumflex" unicode="&#xc2;" horiz-adv-x="646" 
d="M371 700l270 -700h-97l-66 181h-310l-66 -181h-97l270 700h96zM196 259h254l-127 349zM492 762h-80l-89 98l-89 -98h-80l123 162h92z" />
    <glyph glyph-name="Atilde" unicode="&#xc3;" horiz-adv-x="646" 
d="M371 700l270 -700h-97l-66 181h-310l-66 -181h-97l270 700h96zM196 259h254l-127 349zM398 776q-21 0 -41 11t-38 23.5t-33.5 23.5t-27.5 11t-18 -12.5t-6 -54.5h-72q0 73 24 102.5t64 29.5q21 0 41 -11t38 -23.5t33.5 -23.5t27.5 -11t18 12.5t6 54.5h72
q0 -73 -24 -102.5t-64 -29.5z" />
    <glyph glyph-name="Adieresis" unicode="&#xc4;" horiz-adv-x="646" 
d="M371 700l270 -700h-97l-66 181h-310l-66 -181h-97l270 700h96zM196 259h254l-127 349zM169 843q0 53 53 53t53 -53t-53 -53t-53 53zM371 843q0 53 53 53t53 -53t-53 -53t-53 53z" />
    <glyph glyph-name="Aring" unicode="&#xc5;" horiz-adv-x="646" 
d="M371 700l270 -700h-97l-66 181h-310l-66 -181h-97l270 700h96zM196 259h254l-127 349zM429 843q0 -22 -8 -41t-22.5 -33t-34 -22t-41.5 -8q-23 0 -42 8t-33.5 22t-22.5 33t-8 41t8 41t22.5 33t33.5 22t42 8q22 0 41.5 -8t34 -22t22.5 -33t8 -41zM280 843q0 -20 12 -32.5
t31 -12.5t31 12.5t12 32.5t-12 32.5t-31 12.5t-31 -12.5t-12 -32.5z" />
    <glyph glyph-name="AE" unicode="&#xc6;" horiz-adv-x="849" 
d="M104 0h-99l363 700h432v-78h-294v-222h269v-78h-269v-244h303v-78h-391v181h-222zM418 618l-183 -359h183v359z" />
    <glyph glyph-name="Ccedilla" unicode="&#xc7;" horiz-adv-x="611" 
d="M296 -180q18 -7 48 -7q29 0 47 10.5t18 34.5q0 26 -27.5 41t-69.5 15l40 78q-71 8 -128 37.5t-97 76t-61 108.5t-21 136q0 79 25.5 145.5t72.5 114.5t113.5 75t148.5 27q92 0 162 -29l-8 -88q-33 19 -70.5 28t-78.5 9q-65 0 -116.5 -21.5t-86.5 -59t-53.5 -89
t-18.5 -112.5q0 -64 19.5 -116t55.5 -89t87.5 -57t116.5 -20q38 0 76.5 9.5t72.5 29.5l8 -89q-35 -15 -71.5 -21.5t-74.5 -8.5l-23 -44q35 -9 56.5 -31.5t21.5 -54.5q0 -46 -30 -71t-102 -25q-27 0 -52 5v53z" />
    <glyph glyph-name="Egrave" unicode="&#xc8;" horiz-adv-x="565" 
d="M80 700h436v-78h-348v-222h323v-78h-323v-244h357v-78h-445v700zM368 762h-80l-145 152v10h107z" />
    <glyph glyph-name="Eacute" unicode="&#xc9;" horiz-adv-x="565" 
d="M80 700h436v-78h-348v-222h323v-78h-323v-244h357v-78h-445v700zM345 924h107v-10l-145 -152h-80z" />
    <glyph glyph-name="Ecircumflex" unicode="&#xca;" horiz-adv-x="565" 
d="M80 700h436v-78h-348v-222h323v-78h-323v-244h357v-78h-445v700zM467 762h-80l-89 98l-89 -98h-80l123 162h92z" />
    <glyph glyph-name="Edieresis" unicode="&#xcb;" horiz-adv-x="565" 
d="M80 700h436v-78h-348v-222h323v-78h-323v-244h357v-78h-445v700zM144 843q0 53 53 53t53 -53t-53 -53t-53 53zM346 843q0 53 53 53t53 -53t-53 -53t-53 53z" />
    <glyph glyph-name="Igrave" unicode="&#xcc;" horiz-adv-x="258" 
d="M173 700v-700h-88v700h88zM186 762h-80l-145 152v10h107z" />
    <glyph glyph-name="Iacute" unicode="&#xcd;" horiz-adv-x="258" 
d="M173 700v-700h-88v700h88zM191 924h107v-10l-145 -152h-80z" />
    <glyph glyph-name="Icircumflex" unicode="&#xce;" horiz-adv-x="258" 
d="M173 700v-700h-88v700h88zM299 762h-80l-89 98l-89 -98h-80l123 162h92z" />
    <glyph glyph-name="Idieresis" unicode="&#xcf;" horiz-adv-x="258" 
d="M173 700v-700h-88v700h88zM-24 843q0 53 53 53t53 -53t-53 -53t-53 53zM178 843q0 53 53 53t53 -53t-53 -53t-53 53z" />
    <glyph glyph-name="Eth" unicode="&#xd0;" horiz-adv-x="680" 
d="M635 350q0 -87 -28.5 -153t-79 -109.5t-119.5 -65.5t-150 -22h-178v314h-75v72h75v314h178q81 0 150 -22t119.5 -65.5t79 -109.5t28.5 -153zM545 350q0 142 -77.5 207t-222.5 65h-77v-236h166v-72h-166v-236h77q145 0 222.5 65t77.5 207z" />
    <glyph glyph-name="Ntilde" unicode="&#xd1;" horiz-adv-x="708" 
d="M80 700h105l359 -591v591h84v-700h-105l-359 591v-591h-84v700zM433 776q-21 0 -41 11t-38 23.5t-33.5 23.5t-27.5 11t-18 -12.5t-6 -54.5h-72q0 73 24 102.5t64 29.5q21 0 41 -11t38 -23.5t33.5 -23.5t27.5 -11t18 12.5t6 54.5h72q0 -73 -24 -102.5t-64 -29.5z" />
    <glyph glyph-name="Ograve" unicode="&#xd2;" horiz-adv-x="715" 
d="M670 350q0 -76 -21 -142t-61 -115t-98 -77t-132 -28q-75 0 -133 28t-98 77t-61 115t-21 142t21 142t61 115t98 77t133 28q74 0 132 -28t98 -77t61 -115t21 -142zM135 350q0 -65 15.5 -117t45 -89t70.5 -56.5t92 -19.5t92 19.5t70 56.5t44.5 89t15.5 117t-15.5 117
t-44.5 89t-70 56.5t-92 19.5t-92 -19.5t-70.5 -56.5t-45 -89t-15.5 -117zM428 762h-80l-145 152v10h107z" />
    <glyph glyph-name="Oacute" unicode="&#xd3;" horiz-adv-x="715" 
d="M670 350q0 -76 -21 -142t-61 -115t-98 -77t-132 -28q-75 0 -133 28t-98 77t-61 115t-21 142t21 142t61 115t98 77t133 28q74 0 132 -28t98 -77t61 -115t21 -142zM135 350q0 -65 15.5 -117t45 -89t70.5 -56.5t92 -19.5t92 19.5t70 56.5t44.5 89t15.5 117t-15.5 117
t-44.5 89t-70 56.5t-92 19.5t-92 -19.5t-70.5 -56.5t-45 -89t-15.5 -117zM405 924h107v-10l-145 -152h-80z" />
    <glyph glyph-name="Ocircumflex" unicode="&#xd4;" horiz-adv-x="715" 
d="M670 350q0 -76 -21 -142t-61 -115t-98 -77t-132 -28q-75 0 -133 28t-98 77t-61 115t-21 142t21 142t61 115t98 77t133 28q74 0 132 -28t98 -77t61 -115t21 -142zM135 350q0 -65 15.5 -117t45 -89t70.5 -56.5t92 -19.5t92 19.5t70 56.5t44.5 89t15.5 117t-15.5 117
t-44.5 89t-70 56.5t-92 19.5t-92 -19.5t-70.5 -56.5t-45 -89t-15.5 -117zM526 762h-80l-89 98l-89 -98h-80l123 162h92z" />
    <glyph glyph-name="Otilde" unicode="&#xd5;" horiz-adv-x="715" 
d="M670 350q0 -76 -21 -142t-61 -115t-98 -77t-132 -28q-75 0 -133 28t-98 77t-61 115t-21 142t21 142t61 115t98 77t133 28q74 0 132 -28t98 -77t61 -115t21 -142zM135 350q0 -65 15.5 -117t45 -89t70.5 -56.5t92 -19.5t92 19.5t70 56.5t44.5 89t15.5 117t-15.5 117
t-44.5 89t-70 56.5t-92 19.5t-92 -19.5t-70.5 -56.5t-45 -89t-15.5 -117zM431 776q-21 0 -41 11t-38 23.5t-33.5 23.5t-27.5 11t-18 -12.5t-6 -54.5h-72q0 73 24 102.5t64 29.5q21 0 41 -11t38 -23.5t33.5 -23.5t27.5 -11t18 12.5t6 54.5h72q0 -73 -24 -102.5t-64 -29.5z
" />
    <glyph glyph-name="Odieresis" unicode="&#xd6;" horiz-adv-x="715" 
d="M670 350q0 -76 -21 -142t-61 -115t-98 -77t-132 -28q-75 0 -133 28t-98 77t-61 115t-21 142t21 142t61 115t98 77t133 28q74 0 132 -28t98 -77t61 -115t21 -142zM135 350q0 -65 15.5 -117t45 -89t70.5 -56.5t92 -19.5t92 19.5t70 56.5t44.5 89t15.5 117t-15.5 117
t-44.5 89t-70 56.5t-92 19.5t-92 -19.5t-70.5 -56.5t-45 -89t-15.5 -117zM204 843q0 53 53 53t53 -53t-53 -53t-53 53zM406 843q0 53 53 53t53 -53t-53 -53t-53 53z" />
    <glyph glyph-name="multiply" unicode="&#xd7;" horiz-adv-x="618" 
d="M529 173l-61 -61l-159 159l-159 -159l-61 61l159 159l-159 159l61 61l159 -159l159 159l61 -61l-159 -159z" />
    <glyph glyph-name="Oslash" unicode="&#xd8;" horiz-adv-x="715" 
d="M566 630q51 -50 77.5 -122t26.5 -158q0 -76 -21 -142t-61 -115t-98 -77t-132 -28q-78 0 -140 31l-67 -119h-82l90 159q-56 49 -85 124.5t-29 166.5q0 76 21 142t61 115t98 77t133 28q44 0 81.5 -10t69.5 -28l72 126h82zM135 350q0 -69 17.5 -123.5t50.5 -91.5l265 467
q-23 14 -50.5 22t-59.5 8q-51 0 -92 -19.5t-70.5 -56.5t-45 -89t-15.5 -117zM580 350q0 63 -15 114.5t-43 87.5l-263 -461q44 -23 99 -23q51 0 92 19.5t70 56.5t44.5 89t15.5 117z" />
    <glyph glyph-name="Ugrave" unicode="&#xd9;" horiz-adv-x="715" 
d="M358 -12q-61 0 -112 17.5t-88 53t-57.5 89t-20.5 125.5v427h88v-422q0 -99 44.5 -154.5t145.5 -55.5q100 0 144.5 55.5t44.5 154.5v422h88v-427q0 -72 -19.5 -125.5t-55.5 -89t-87 -53t-115 -17.5zM408 762h-80l-145 152v10h107z" />
    <glyph glyph-name="Uacute" unicode="&#xda;" horiz-adv-x="715" 
d="M358 -12q-61 0 -112 17.5t-88 53t-57.5 89t-20.5 125.5v427h88v-422q0 -99 44.5 -154.5t145.5 -55.5q100 0 144.5 55.5t44.5 154.5v422h88v-427q0 -72 -19.5 -125.5t-55.5 -89t-87 -53t-115 -17.5zM425 924h107v-10l-145 -152h-80z" />
    <glyph glyph-name="Ucircumflex" unicode="&#xdb;" horiz-adv-x="715" 
d="M358 -11q-61 0 -112 17.5t-88 53t-57.5 89t-20.5 125.5v427h88v-422q0 -99 44.5 -154.5t145.5 -55.5q100 0 144.5 55.5t44.5 154.5v422h88v-427q0 -72 -19.5 -125.5t-55.5 -89t-87 -53t-115 -17.5zM526 762h-80l-89 98l-89 -98h-80l123 162h92z" />
    <glyph glyph-name="Udieresis" unicode="&#xdc;" horiz-adv-x="715" 
d="M358 -12q-61 0 -112 17.5t-88 53t-57.5 89t-20.5 125.5v427h88v-422q0 -99 44.5 -154.5t145.5 -55.5q100 0 144.5 55.5t44.5 154.5v422h88v-427q0 -72 -19.5 -125.5t-55.5 -89t-87 -53t-115 -17.5zM203 843q0 53 53 53t53 -53t-53 -53t-53 53zM405 843q0 53 53 53t53 -53
t-53 -53t-53 53z" />
    <glyph glyph-name="Yacute" unicode="&#xdd;" horiz-adv-x="662" 
d="M375 277v-277h-88v277l-267 423h102l209 -339l209 339h102zM385 924h107v-10l-145 -152h-80z" />
    <glyph glyph-name="Thorn" unicode="&#xde;" horiz-adv-x="593" 
d="M558 355q0 -53 -19 -93.5t-53 -68t-82.5 -42t-106.5 -14.5h-129v-137h-88v700h88v-127h129q58 0 106.5 -14.5t82.5 -42t53 -68.5t19 -93zM468 355q0 72 -43.5 106t-134.5 34h-122v-280h122q91 0 134.5 34t43.5 106z" />
    <glyph glyph-name="germandbls" unicode="&#xdf;" horiz-adv-x="570" 
d="M271 404q66 0 104.5 34.5t38.5 92.5q0 47 -30.5 74t-90.5 27q-57 0 -90.5 -36t-33.5 -108v-488h-89v473q0 118 56 178.5t159 60.5q46 0 84.5 -13.5t66.5 -37.5t43 -57t15 -71q0 -62 -32.5 -103.5t-89.5 -63.5q66 -17 107 -66t41 -123q0 -88 -52 -138.5t-149 -50.5
q-35 0 -70 8t-60 22l8 89q23 -17 53 -28t61 -11q60 0 89.5 29t29.5 80q0 34 -13 61t-35.5 46t-53.5 29.5t-67 10.5v80z" />
    <glyph glyph-name="agrave" unicode="&#xe0;" horiz-adv-x="541" 
d="M235 -12q-43 0 -79.5 10.5t-63.5 31t-42 51t-15 71.5q0 79 59 125.5t168 46.5h130v36q0 54 -31.5 75t-101.5 21q-42 0 -88 -10.5t-82 -30.5l-9 75q37 18 84.5 29t96.5 11q52 0 92 -10t67.5 -32.5t41.5 -59t14 -89.5v-339h-84v40q-27 -26 -67.5 -39t-89.5 -13zM243 62
q48 0 87.5 16t61.5 48v126h-126q-75 0 -110 -26.5t-35 -71.5q0 -48 34 -70t88 -22zM334 588h-80l-145 152v10h107z" />
    <glyph glyph-name="aacute" unicode="&#xe1;" horiz-adv-x="541" 
d="M235 -12q-43 0 -79.5 10.5t-63.5 31t-42 51t-15 71.5q0 79 59 125.5t168 46.5h130v36q0 54 -31.5 75t-101.5 21q-42 0 -88 -10.5t-82 -30.5l-9 75q37 18 84.5 29t96.5 11q52 0 92 -10t67.5 -32.5t41.5 -59t14 -89.5v-339h-84v40q-27 -26 -67.5 -39t-89.5 -13zM243 62
q48 0 87.5 16t61.5 48v126h-126q-75 0 -110 -26.5t-35 -71.5q0 -48 34 -70t88 -22zM322 750h107v-10l-145 -152h-80z" />
    <glyph glyph-name="acircumflex" unicode="&#xe2;" horiz-adv-x="541" 
d="M235 -12q-43 0 -79.5 10.5t-63.5 31t-42 51t-15 71.5q0 79 59 125.5t168 46.5h130v36q0 54 -31.5 75t-101.5 21q-42 0 -88 -10.5t-82 -30.5l-9 75q37 18 84.5 29t96.5 11q52 0 92 -10t67.5 -32.5t41.5 -59t14 -89.5v-339h-84v40q-27 -26 -67.5 -39t-89.5 -13zM243 62
q48 0 87.5 16t61.5 48v126h-126q-75 0 -110 -26.5t-35 -71.5q0 -48 34 -70t88 -22zM442 588h-80l-89 98l-89 -98h-80l123 162h92z" />
    <glyph glyph-name="atilde" unicode="&#xe3;" horiz-adv-x="541" 
d="M235 -12q-43 0 -79.5 10.5t-63.5 31t-42 51t-15 71.5q0 79 59 125.5t168 46.5h130v36q0 54 -31.5 75t-101.5 21q-42 0 -88 -10.5t-82 -30.5l-9 75q37 18 84.5 29t96.5 11q52 0 92 -10t67.5 -32.5t41.5 -59t14 -89.5v-339h-84v40q-27 -26 -67.5 -39t-89.5 -13zM243 62
q48 0 87.5 16t61.5 48v126h-126q-75 0 -110 -26.5t-35 -71.5q0 -48 34 -70t88 -22zM340 602q-21 0 -41 11t-38 23.5t-33.5 23.5t-27.5 11t-18 -12.5t-6 -54.5h-72q0 73 24 102.5t64 29.5q21 0 41 -11t38 -23.5t33.5 -23.5t27.5 -11t18 12.5t6 54.5h72q0 -73 -24 -102.5
t-64 -29.5z" />
    <glyph glyph-name="adieresis" unicode="&#xe4;" horiz-adv-x="541" 
d="M235 -12q-43 0 -79.5 10.5t-63.5 31t-42 51t-15 71.5q0 79 59 125.5t168 46.5h130v36q0 54 -31.5 75t-101.5 21q-42 0 -88 -10.5t-82 -30.5l-9 75q37 18 84.5 29t96.5 11q52 0 92 -10t67.5 -32.5t41.5 -59t14 -89.5v-339h-84v40q-27 -26 -67.5 -39t-89.5 -13zM243 62
q48 0 87.5 16t61.5 48v126h-126q-75 0 -110 -26.5t-35 -71.5q0 -48 34 -70t88 -22zM117 669q0 53 53 53t53 -53t-53 -53t-53 53zM319 669q0 53 53 53t53 -53t-53 -53t-53 53z" />
    <glyph glyph-name="aring" unicode="&#xe5;" horiz-adv-x="541" 
d="M235 -12q-43 0 -79.5 10.5t-63.5 31t-42 51t-15 71.5q0 79 59 125.5t168 46.5h130v36q0 54 -31.5 75t-101.5 21q-42 0 -88 -10.5t-82 -30.5l-9 75q37 18 84.5 29t96.5 11q52 0 92 -10t67.5 -32.5t41.5 -59t14 -89.5v-339h-84v40q-27 -26 -67.5 -39t-89.5 -13zM243 62
q48 0 87.5 16t61.5 48v126h-126q-75 0 -110 -26.5t-35 -71.5q0 -48 34 -70t88 -22zM376 669q0 -22 -8 -41t-22.5 -33t-34 -22t-41.5 -8q-23 0 -42 8t-33.5 22t-22.5 33t-8 41t8 41t22.5 33t33.5 22t42 8q22 0 41.5 -8t34 -22t22.5 -33t8 -41zM227 669q0 -20 12 -32.5
t31 -12.5t31 12.5t12 32.5t-12 32.5t-31 12.5t-31 -12.5t-12 -32.5z" />
    <glyph glyph-name="ae" unicode="&#xe6;" horiz-adv-x="850" 
d="M453 225q5 -74 45.5 -118.5t118.5 -44.5q42 0 77 10.5t70 38.5l9 -81q-31 -21 -71 -31.5t-87 -10.5q-63 0 -115.5 27t-81.5 79q-29 -50 -79 -78t-114 -28q-86 0 -138 42.5t-52 123.5q0 79 54 127t163 48h120v11q0 60 -29.5 88t-101.5 28q-41 0 -80 -9t-72 -25l-9 75
q35 16 79.5 24.5t90.5 8.5q134 0 173 -89q26 42 69 65.5t98 23.5q56 0 98.5 -20t70.5 -56.5t42 -87t14 -110.5v-15.5t-1 -15.5h-361zM223 62q109 0 149 104v89h-116q-75 0 -105 -27t-30 -72q0 -48 28.5 -71t73.5 -23zM728 297q-5 73 -38.5 116t-99.5 43t-99 -43t-38 -116
h275z" />
    <glyph glyph-name="ccedilla" unicode="&#xe7;" horiz-adv-x="498" 
d="M222 -180q18 -7 48 -7q29 0 47 10.5t18 34.5q0 26 -27.5 41t-69.5 15l40 76q-54 6 -98 27.5t-75 56t-48 81.5t-17 104q0 61 20 111.5t56 85.5t85 54.5t108 19.5q42 0 80.5 -7t68.5 -22l-8 -80q-27 17 -63.5 26t-74.5 9q-84 0 -135 -51.5t-51 -145.5t51 -145.5t139 -51.5
q38 0 74 8.5t65 28.5l8 -80q-47 -24 -111 -29l-24 -46q35 -9 56.5 -31.5t21.5 -54.5q0 -46 -30 -71t-102 -25q-27 0 -52 5v53z" />
    <glyph glyph-name="egrave" unicode="&#xe8;" horiz-adv-x="544" 
d="M127 225q5 -74 50.5 -118.5t123.5 -44.5q46 0 84.5 10.5t72.5 38.5l9 -81q-32 -20 -74.5 -31t-93.5 -11q-64 0 -112.5 21t-81 57.5t-49 86t-16.5 107.5q0 61 16.5 110.5t47 85t74 55t96.5 19.5q56 0 100 -20t74 -56.5t45.5 -87t15.5 -110.5v-15.5t-1 -15.5h-381zM422 297
q-5 73 -43.5 116t-104.5 43t-104 -43t-43 -116h295zM344 588h-80l-145 152v10h107z" />
    <glyph glyph-name="eacute" unicode="&#xe9;" horiz-adv-x="544" 
d="M127 225q5 -74 50.5 -118.5t123.5 -44.5q46 0 84.5 10.5t72.5 38.5l9 -81q-32 -20 -74.5 -31t-93.5 -11q-64 0 -112.5 21t-81 57.5t-49 86t-16.5 107.5q0 61 16.5 110.5t47 85t74 55t96.5 19.5q56 0 100 -20t74 -56.5t45.5 -87t15.5 -110.5v-15.5t-1 -15.5h-381zM422 297
q-5 73 -43.5 116t-104.5 43t-104 -43t-43 -116h295zM317 750h107v-10l-145 -152h-80z" />
    <glyph glyph-name="ecircumflex" unicode="&#xea;" horiz-adv-x="544" 
d="M127 225q5 -74 50.5 -118.5t123.5 -44.5q46 0 84.5 10.5t72.5 38.5l9 -81q-32 -20 -74.5 -31t-93.5 -11q-64 0 -112.5 21t-81 57.5t-49 86t-16.5 107.5q0 61 16.5 110.5t47 85t74 55t96.5 19.5q56 0 100 -20t74 -56.5t45.5 -87t15.5 -110.5v-15.5t-1 -15.5h-381zM422 297
q-5 73 -43.5 116t-104.5 43t-104 -43t-43 -116h295zM442 588h-80l-89 98l-89 -98h-80l123 162h92z" />
    <glyph glyph-name="edieresis" unicode="&#xeb;" horiz-adv-x="544" 
d="M127 225q5 -74 50.5 -118.5t123.5 -44.5q46 0 84.5 10.5t72.5 38.5l9 -81q-32 -20 -74.5 -31t-93.5 -11q-64 0 -112.5 21t-81 57.5t-49 86t-16.5 107.5q0 61 16.5 110.5t47 85t74 55t96.5 19.5q56 0 100 -20t74 -56.5t45.5 -87t15.5 -110.5v-15.5t-1 -15.5h-381zM422 297
q-5 73 -43.5 116t-104.5 43t-104 -43t-43 -116h295zM116 669q0 53 53 53t53 -53t-53 -53t-53 53zM318 669q0 53 53 53t53 -53t-53 -53t-53 53z" />
    <glyph glyph-name="igrave" unicode="&#xec;" horiz-adv-x="234" 
d="M75 518h84v-518h-84v518zM176 588h-80l-145 152v10h107z" />
    <glyph glyph-name="iacute" unicode="&#xed;" horiz-adv-x="234" 
d="M75 518h84v-518h-84v518zM178 750h107v-10l-145 -152h-80z" />
    <glyph glyph-name="icircumflex" unicode="&#xee;" horiz-adv-x="234" 
d="M75 518h84v-518h-84v518zM289 588h-80l-89 98l-89 -98h-80l123 162h92z" />
    <glyph glyph-name="idieresis" unicode="&#xef;" horiz-adv-x="234" 
d="M75 518h84v-518h-84v518zM-34 669q0 53 53 53t53 -53t-53 -53t-53 53zM168 669q0 53 53 53t53 -53t-53 -53t-53 53z" />
    <glyph glyph-name="eth" unicode="&#xf0;" horiz-adv-x="550" 
d="M484 694l22 -63l-87 -27q44 -47 67.5 -115t23.5 -165q0 -77 -15.5 -139.5t-46.5 -106t-77 -67t-107 -23.5q-48 0 -89 17t-71 49.5t-47 79.5t-17 108t16 108t45.5 79.5t70.5 49.5t92 17q44 0 82 -13.5t66 -38.5q-11 44 -30.5 77t-48.5 58l-195 -59l-22 63l142 43
q-40 17 -93 28l7 76q54 -13 100.5 -30.5t85.5 -43.5zM264 422q-65 0 -101.5 -49t-36.5 -131t36.5 -131t101.5 -49q35 0 65 14t51.5 45.5t33.5 81.5t12 122v21q-31 38 -72.5 57t-89.5 19z" />
    <glyph glyph-name="ntilde" unicode="&#xf1;" horiz-adv-x="583" 
d="M292 456q-45 0 -80.5 -18t-57.5 -47v-391h-84v518h84v-42q26 24 63.5 39t85.5 15q100 0 157.5 -59.5t57.5 -177.5v-293h-84v295q0 85 -35.5 123t-106.5 38zM368 602q-21 0 -41 11t-38 23.5t-33.5 23.5t-27.5 11t-18 -12.5t-6 -54.5h-72q0 73 24 102.5t64 29.5
q21 0 41 -11t38 -23.5t33.5 -23.5t27.5 -11t18 12.5t6 54.5h72q0 -73 -24 -102.5t-64 -29.5z" />
    <glyph glyph-name="ograve" unicode="&#xf2;" horiz-adv-x="580" 
d="M40 259q0 58 17.5 108t50 86t78.5 56.5t104 20.5t104 -20.5t78.5 -56.5t50 -86t17.5 -108q0 -59 -17.5 -108.5t-50 -85.5t-78.5 -56.5t-104 -20.5t-104 20.5t-78.5 56.5t-50 85.5t-17.5 108.5zM126 259q0 -91 43 -144t121 -53t121 53t43 144t-43 144t-121 53t-121 -53
t-43 -144zM364 588h-80l-145 152v10h107z" />
    <glyph glyph-name="oacute" unicode="&#xf3;" horiz-adv-x="580" 
d="M40 259q0 58 17.5 108t50 86t78.5 56.5t104 20.5t104 -20.5t78.5 -56.5t50 -86t17.5 -108q0 -59 -17.5 -108.5t-50 -85.5t-78.5 -56.5t-104 -20.5t-104 20.5t-78.5 56.5t-50 85.5t-17.5 108.5zM126 259q0 -91 43 -144t121 -53t121 53t43 144t-43 144t-121 53t-121 -53
t-43 -144zM338 750h107v-10l-145 -152h-80z" />
    <glyph glyph-name="ocircumflex" unicode="&#xf4;" horiz-adv-x="580" 
d="M40 259q0 58 17.5 108t50 86t78.5 56.5t104 20.5t104 -20.5t78.5 -56.5t50 -86t17.5 -108q0 -59 -17.5 -108.5t-50 -85.5t-78.5 -56.5t-104 -20.5t-104 20.5t-78.5 56.5t-50 85.5t-17.5 108.5zM126 259q0 -91 43 -144t121 -53t121 53t43 144t-43 144t-121 53t-121 -53
t-43 -144zM459 588h-80l-89 98l-89 -98h-80l123 162h92z" />
    <glyph glyph-name="otilde" unicode="&#xf5;" horiz-adv-x="580" 
d="M40 259q0 58 17.5 108t50 86t78.5 56.5t104 20.5t104 -20.5t78.5 -56.5t50 -86t17.5 -108q0 -59 -17.5 -108.5t-50 -85.5t-78.5 -56.5t-104 -20.5t-104 20.5t-78.5 56.5t-50 85.5t-17.5 108.5zM126 259q0 -91 43 -144t121 -53t121 53t43 144t-43 144t-121 53t-121 -53
t-43 -144zM364 602q-21 0 -41 11t-38 23.5t-33.5 23.5t-27.5 11t-18 -12.5t-6 -54.5h-72q0 73 24 102.5t64 29.5q21 0 41 -11t38 -23.5t33.5 -23.5t27.5 -11t18 12.5t6 54.5h72q0 -73 -24 -102.5t-64 -29.5z" />
    <glyph glyph-name="odieresis" unicode="&#xf6;" horiz-adv-x="580" 
d="M40 259q0 58 17.5 108t50 86t78.5 56.5t104 20.5t104 -20.5t78.5 -56.5t50 -86t17.5 -108q0 -59 -17.5 -108.5t-50 -85.5t-78.5 -56.5t-104 -20.5t-104 20.5t-78.5 56.5t-50 85.5t-17.5 108.5zM126 259q0 -91 43 -144t121 -53t121 53t43 144t-43 144t-121 53t-121 -53
t-43 -144zM136 669q0 53 53 53t53 -53t-53 -53t-53 53zM338 669q0 53 53 53t53 -53t-53 -53t-53 53z" />
    <glyph glyph-name="divide" unicode="&#xf7;" horiz-adv-x="618" 
d="M250 530q0 59 59 59t59 -59t-59 -59t-59 59zM250 134q0 59 59 59t59 -59t-59 -59t-59 59zM60 293v78h498v-78h-498z" />
    <glyph glyph-name="oslash" unicode="&#xf8;" horiz-adv-x="580" 
d="M117 -110h-80l90 155q-42 37 -64.5 92t-22.5 122q0 58 17.5 108t50 86t78.5 56.5t104 20.5q57 0 104 -21l69 119h80l-90 -156q42 -36 64.5 -91t22.5 -122q0 -59 -17.5 -108.5t-50 -85.5t-78.5 -56.5t-104 -20.5q-57 0 -105 20zM126 259q0 -92 42 -143l188 327
q-31 13 -66 13q-78 0 -121 -53t-43 -144zM290 62q78 0 121 53t43 144q0 89 -42 142l-189 -327q30 -12 67 -12z" />
    <glyph glyph-name="ugrave" unicode="&#xf9;" horiz-adv-x="583" 
d="M291 62q45 0 80.5 18t57.5 47v391h84v-518h-84v42q-26 -24 -63.5 -39t-85.5 -15q-100 0 -157.5 59.5t-57.5 177.5v293h84v-295q0 -85 35.5 -123t106.5 -38zM344 588h-80l-145 152v10h107z" />
    <glyph glyph-name="uacute" unicode="&#xfa;" horiz-adv-x="583" 
d="M291 62q45 0 80.5 18t57.5 47v391h84v-518h-84v42q-26 -24 -63.5 -39t-85.5 -15q-100 0 -157.5 59.5t-57.5 177.5v293h84v-295q0 -85 35.5 -123t106.5 -38zM347 750h107v-10l-145 -152h-80z" />
    <glyph glyph-name="ucircumflex" unicode="&#xfb;" horiz-adv-x="583" 
d="M291 62q45 0 80.5 18t57.5 47v391h84v-518h-84v42q-26 -24 -63.5 -39t-85.5 -15q-100 0 -157.5 59.5t-57.5 177.5v293h84v-295q0 -85 35.5 -123t106.5 -38zM458 588h-80l-89 98l-89 -98h-80l123 162h92z" />
    <glyph glyph-name="udieresis" unicode="&#xfc;" horiz-adv-x="583" 
d="M291 62q45 0 80.5 18t57.5 47v391h84v-518h-84v42q-26 -24 -63.5 -39t-85.5 -15q-100 0 -157.5 59.5t-57.5 177.5v293h84v-295q0 -85 35.5 -123t106.5 -38zM135 669q0 53 53 53t53 -53t-53 -53t-53 53zM337 669q0 53 53 53t53 -53t-53 -53t-53 53z" />
    <glyph glyph-name="yacute" unicode="&#xfd;" horiz-adv-x="529" 
d="M15 518h89l166 -417l155 417h89l-273 -711h-87l73 193zM320 750h107v-10l-145 -152h-80z" />
    <glyph glyph-name="thorn" unicode="&#xfe;" horiz-adv-x="580" 
d="M154 480q26 23 63.5 36.5t81.5 13.5q51 0 95 -18.5t76.5 -54t51 -85.5t18.5 -113t-18.5 -113t-51 -85.5t-76.5 -54t-95 -18.5q-44 0 -81.5 13.5t-63.5 36.5v-231h-84v923h84v-250zM154 127q23 -32 58.5 -48.5t78.5 -16.5q35 0 65 12.5t51.5 37t34 61.5t12.5 86
t-12.5 85.5t-34 61.5t-51.5 37.5t-65 12.5q-43 0 -78.5 -16.5t-58.5 -48.5v-264z" />
    <glyph glyph-name="ydieresis" unicode="&#xff;" horiz-adv-x="529" 
d="M15 518h89l166 -417l155 417h89l-273 -711h-87l73 193zM111 669q0 53 53 53t53 -53t-53 -53t-53 53zM313 669q0 53 53 53t53 -53t-53 -53t-53 53z" />
    <glyph glyph-name="Amacron" unicode="&#x100;" horiz-adv-x="646" 
d="M371 700l270 -700h-97l-66 181h-310l-66 -181h-97l270 700h96zM196 259h254l-127 349zM177 879h292v-72h-292v72z" />
    <glyph glyph-name="amacron" unicode="&#x101;" horiz-adv-x="541" 
d="M235 -12q-43 0 -79.5 10.5t-63.5 31t-42 51t-15 71.5q0 79 59 125.5t168 46.5h130v36q0 54 -31.5 75t-101.5 21q-42 0 -88 -10.5t-82 -30.5l-9 75q37 18 84.5 29t96.5 11q52 0 92 -10t67.5 -32.5t41.5 -59t14 -89.5v-339h-84v40q-27 -26 -67.5 -39t-89.5 -13zM243 62
q48 0 87.5 16t61.5 48v126h-126q-75 0 -110 -26.5t-35 -71.5q0 -48 34 -70t88 -22zM120 705h292v-72h-292v72z" />
    <glyph glyph-name="Abreve" unicode="&#x102;" horiz-adv-x="646" 
d="M371 700l270 -700h-97l-66 181h-310l-66 -181h-97l270 700h96zM196 259h254l-127 349zM323 765q-34 0 -63 9.5t-51 28.5t-34.5 47.5t-13.5 66.5h75q2 -42 25.5 -64.5t61.5 -22.5t61.5 22.5t25.5 64.5h75q-1 -38 -13.5 -66.5t-34.5 -47.5t-51 -28.5t-63 -9.5z" />
    <glyph glyph-name="abreve" unicode="&#x103;" horiz-adv-x="541" 
d="M235 -12q-43 0 -79.5 10.5t-63.5 31t-42 51t-15 71.5q0 79 59 125.5t168 46.5h130v36q0 54 -31.5 75t-101.5 21q-42 0 -88 -10.5t-82 -30.5l-9 75q37 18 84.5 29t96.5 11q52 0 92 -10t67.5 -32.5t41.5 -59t14 -89.5v-339h-84v40q-27 -26 -67.5 -39t-89.5 -13zM243 62
q48 0 87.5 16t61.5 48v126h-126q-75 0 -110 -26.5t-35 -71.5q0 -48 34 -70t88 -22zM273 593q-34 0 -63 9.5t-51 28.5t-34.5 47.5t-13.5 66.5h75q2 -42 25.5 -64.5t61.5 -22.5t61.5 22.5t25.5 64.5h75q-1 -38 -13.5 -66.5t-34.5 -47.5t-51 -28.5t-63 -9.5z" />
    <glyph glyph-name="Aogonek" unicode="&#x104;" horiz-adv-x="646" 
d="M641 0q-34 -33 -50.5 -57.5t-16.5 -50.5q0 -22 11 -32.5t31 -10.5q23 0 40 5v-65q-27 -8 -58 -8q-54 0 -81 26t-27 71q0 28 16 60.5t52 61.5h-14l-66 181h-310l-66 -181h-97l270 700h96zM196 259h254l-127 349z" />
    <glyph glyph-name="aogonek" unicode="&#x105;" horiz-adv-x="541" 
d="M392 0v40q-27 -26 -67.5 -39t-89.5 -13q-43 0 -79.5 10.5t-63.5 31t-42 51t-15 71.5q0 79 59 125.5t168 46.5h130v36q0 54 -31.5 75t-101.5 21q-42 0 -88 -10.5t-82 -30.5l-9 75q37 18 84.5 29t96.5 11q52 0 92 -10t67.5 -32.5t41.5 -59t14 -89.5v-339
q-34 -33 -50.5 -57.5t-16.5 -50.5q0 -22 11 -32.5t31 -10.5q23 0 40 5v-65q-27 -8 -58 -8q-54 0 -81 26t-27 71q0 28 16 60.5t52 61.5h-1zM243 62q48 0 87.5 16t61.5 48v126h-126q-75 0 -110 -26.5t-35 -71.5q0 -48 34 -70t88 -22z" />
    <glyph glyph-name="Cacute" unicode="&#x106;" horiz-adv-x="611" 
d="M45 350q0 79 25.5 145.5t72.5 114.5t113.5 75t148.5 27q92 0 162 -29l-8 -88q-33 19 -70.5 28t-78.5 9q-65 0 -116.5 -21.5t-86.5 -59t-53.5 -89t-18.5 -112.5q0 -64 19.5 -116t55.5 -89t87.5 -57t116.5 -20q38 0 76.5 9.5t72.5 29.5l8 -89q-38 -17 -79 -23.5t-83 -6.5
q-84 0 -151 26.5t-114.5 74t-73 114t-25.5 147.5zM425 924h107v-10l-145 -152h-80z" />
    <glyph glyph-name="cacute" unicode="&#x107;" horiz-adv-x="498" 
d="M126 259q0 -94 51 -145.5t139 -51.5q38 0 74 8.5t65 28.5l8 -80q-30 -16 -68.5 -23.5t-78.5 -7.5q-62 0 -113 19.5t-87 54.5t-56 85t-20 112q0 61 20 111.5t56 85.5t85 54.5t108 19.5q42 0 80.5 -7t68.5 -22l-8 -80q-27 17 -63.5 26t-74.5 9q-84 0 -135 -51.5t-51 -145.5
zM332 750h107v-10l-145 -152h-80z" />
    <glyph glyph-name="Ccircumflex" unicode="&#x108;" horiz-adv-x="611" 
d="M45 350q0 79 25.5 145.5t72.5 114.5t113.5 75t148.5 27q92 0 162 -29l-8 -88q-33 19 -70.5 28t-78.5 9q-65 0 -116.5 -21.5t-86.5 -59t-53.5 -89t-18.5 -112.5q0 -64 19.5 -116t55.5 -89t87.5 -57t116.5 -20q38 0 76.5 9.5t72.5 29.5l8 -89q-38 -17 -79 -23.5t-83 -6.5
q-84 0 -151 26.5t-114.5 74t-73 114t-25.5 147.5zM547 762h-80l-89 98l-89 -98h-80l123 162h92z" />
    <glyph glyph-name="ccircumflex" unicode="&#x109;" horiz-adv-x="498" 
d="M126 259q0 -94 51 -145.5t139 -51.5q38 0 74 8.5t65 28.5l8 -80q-30 -16 -68.5 -23.5t-78.5 -7.5q-62 0 -113 19.5t-87 54.5t-56 85t-20 112q0 61 20 111.5t56 85.5t85 54.5t108 19.5q42 0 80.5 -7t68.5 -22l-8 -80q-27 17 -63.5 26t-74.5 9q-84 0 -135 -51.5t-51 -145.5
zM462 588h-80l-89 98l-89 -98h-80l123 162h92z" />
    <glyph glyph-name="Cdotaccent" unicode="&#x10a;" horiz-adv-x="611" 
d="M45 350q0 79 25.5 145.5t72.5 114.5t113.5 75t148.5 27q92 0 162 -29l-8 -88q-33 19 -70.5 28t-78.5 9q-65 0 -116.5 -21.5t-86.5 -59t-53.5 -89t-18.5 -112.5q0 -64 19.5 -116t55.5 -89t87.5 -57t116.5 -20q38 0 76.5 9.5t72.5 29.5l8 -89q-38 -17 -79 -23.5t-83 -6.5
q-84 0 -151 26.5t-114.5 74t-73 114t-25.5 147.5zM319 843q0 53 53 53t53 -53t-53 -53t-53 53z" />
    <glyph glyph-name="cdotaccent" unicode="&#x10b;" horiz-adv-x="498" 
d="M126 259q0 -94 51 -145.5t139 -51.5q38 0 74 8.5t65 28.5l8 -80q-30 -16 -68.5 -23.5t-78.5 -7.5q-62 0 -113 19.5t-87 54.5t-56 85t-20 112q0 61 20 111.5t56 85.5t85 54.5t108 19.5q42 0 80.5 -7t68.5 -22l-8 -80q-27 17 -63.5 26t-74.5 9q-84 0 -135 -51.5t-51 -145.5
zM245 669q0 53 53 53t53 -53t-53 -53t-53 53z" />
    <glyph glyph-name="Ccaron" unicode="&#x10c;" horiz-adv-x="611" 
d="M45 350q0 79 25.5 145.5t72.5 114.5t113.5 75t148.5 27q92 0 162 -29l-8 -88q-33 19 -70.5 28t-78.5 9q-65 0 -116.5 -21.5t-86.5 -59t-53.5 -89t-18.5 -112.5q0 -64 19.5 -116t55.5 -89t87.5 -57t116.5 -20q38 0 76.5 9.5t72.5 29.5l8 -89q-38 -17 -79 -23.5t-83 -6.5
q-84 0 -151 26.5t-114.5 74t-73 114t-25.5 147.5zM424 762h-92l-123 162h80l89 -98l89 98h80z" />
    <glyph glyph-name="ccaron" unicode="&#x10d;" horiz-adv-x="498" 
d="M126 259q0 -94 51 -145.5t139 -51.5q38 0 74 8.5t65 28.5l8 -80q-30 -16 -68.5 -23.5t-78.5 -7.5q-62 0 -113 19.5t-87 54.5t-56 85t-20 112q0 61 20 111.5t56 85.5t85 54.5t108 19.5q42 0 80.5 -7t68.5 -22l-8 -80q-27 17 -63.5 26t-74.5 9q-84 0 -135 -51.5t-51 -145.5
zM339 588h-92l-123 162h80l89 -98l89 98h80z" />
    <glyph glyph-name="Dcaron" unicode="&#x10e;" horiz-adv-x="680" 
d="M545 350q0 142 -77.5 207t-222.5 65h-77v-544h77q145 0 222.5 65t77.5 207zM635 350q0 -87 -28.5 -153t-79 -109.5t-119.5 -65.5t-150 -22h-178v700h178q81 0 150 -22t119.5 -65.5t79 -109.5t28.5 -153zM316 762h-92l-123 162h80l89 -98l89 98h80z" />
    <glyph glyph-name="dcaron" unicode="&#x10f;" horiz-adv-x="702" 
d="M426 40q-26 -24 -63.5 -38t-81.5 -14q-51 0 -95 18.5t-76.5 54t-51 85.5t-18.5 113t18.5 113t51 85.5t76.5 54t95 18.5q44 0 81.5 -14t63.5 -38v252h84v-730h-84v40zM426 392q-23 31 -59 47.5t-78 16.5q-35 0 -65 -12.5t-52 -37.5t-34 -61.5t-12 -85.5t12 -86t34 -61.5
t52 -37t65 -12.5q42 0 78 16.5t59 47.5v266zM563 684q0 59 57 59q32 0 47 -16t15 -56q0 -57 -26.5 -105t-73.5 -73l-20 30q24 20 38 47t16 55q-31 2 -42 19t-11 40z" />
    <glyph glyph-name="Dcroat" unicode="&#x110;" horiz-adv-x="680" 
d="M635 350q0 -87 -28.5 -153t-79 -109.5t-119.5 -65.5t-150 -22h-178v314h-75v72h75v314h178q81 0 150 -22t119.5 -65.5t79 -109.5t28.5 -153zM545 350q0 142 -77.5 207t-222.5 65h-77v-236h166v-72h-166v-236h77q145 0 222.5 65t77.5 207z" />
    <glyph glyph-name="dcroat" unicode="&#x111;" horiz-adv-x="585" 
d="M580 593h-70v-593h-84v38q-26 -23 -63.5 -36.5t-81.5 -13.5q-51 0 -95 18.5t-76.5 54t-51 85.5t-18.5 113t18.5 113t51 85.5t76.5 54t95 18.5q44 0 81.5 -13.5t63.5 -36.5v113h-202v68h202v69h84v-69h70v-68zM426 391q-23 32 -58.5 48.5t-78.5 16.5q-35 0 -65 -12.5
t-52 -37.5t-34 -61.5t-12 -85.5t12 -86t34 -61.5t52 -37t65 -12.5q43 0 78.5 16.5t58.5 48.5v264z" />
    <glyph glyph-name="Emacron" unicode="&#x112;" horiz-adv-x="565" 
d="M80 700h436v-78h-348v-222h323v-78h-323v-244h357v-78h-445v700zM148 879h292v-72h-292v72z" />
    <glyph glyph-name="emacron" unicode="&#x113;" horiz-adv-x="544" 
d="M127 225q5 -74 50.5 -118.5t123.5 -44.5q46 0 84.5 10.5t72.5 38.5l9 -81q-32 -20 -74.5 -31t-93.5 -11q-64 0 -112.5 21t-81 57.5t-49 86t-16.5 107.5q0 61 16.5 110.5t47 85t74 55t96.5 19.5q56 0 100 -20t74 -56.5t45.5 -87t15.5 -110.5v-15.5t-1 -15.5h-381zM422 297
q-5 73 -43.5 116t-104.5 43t-104 -43t-43 -116h295zM126 705h292v-72h-292v72z" />
    <glyph glyph-name="Ebreve" unicode="&#x114;" horiz-adv-x="565" 
d="M80 700h436v-78h-348v-222h323v-78h-323v-244h357v-78h-445v700zM296 765q-34 0 -63 9.5t-51 28.5t-34.5 47.5t-13.5 66.5h75q2 -42 25.5 -64.5t61.5 -22.5t61.5 22.5t25.5 64.5h75q-1 -38 -13.5 -66.5t-34.5 -47.5t-51 -28.5t-63 -9.5z" />
    <glyph glyph-name="ebreve" unicode="&#x115;" horiz-adv-x="544" 
d="M127 225q5 -74 50.5 -118.5t123.5 -44.5q46 0 84.5 10.5t72.5 38.5l9 -81q-32 -20 -74.5 -31t-93.5 -11q-64 0 -112.5 21t-81 57.5t-49 86t-16.5 107.5q0 61 16.5 110.5t47 85t74 55t96.5 19.5q56 0 100 -20t74 -56.5t45.5 -87t15.5 -110.5v-15.5t-1 -15.5h-381zM422 297
q-5 73 -43.5 116t-104.5 43t-104 -43t-43 -116h295zM273 593q-34 0 -63 9.5t-51 28.5t-34.5 47.5t-13.5 66.5h75q2 -42 25.5 -64.5t61.5 -22.5t61.5 22.5t25.5 64.5h75q-1 -38 -13.5 -66.5t-34.5 -47.5t-51 -28.5t-63 -9.5z" />
    <glyph glyph-name="Edotaccent" unicode="&#x116;" horiz-adv-x="565" 
d="M80 700h436v-78h-348v-222h323v-78h-323v-244h357v-78h-445v700zM242 843q0 53 53 53t53 -53t-53 -53t-53 53z" />
    <glyph glyph-name="edotaccent" unicode="&#x117;" horiz-adv-x="544" 
d="M127 225q5 -74 50.5 -118.5t123.5 -44.5q46 0 84.5 10.5t72.5 38.5l9 -81q-32 -20 -74.5 -31t-93.5 -11q-64 0 -112.5 21t-81 57.5t-49 86t-16.5 107.5q0 61 16.5 110.5t47 85t74 55t96.5 19.5q56 0 100 -20t74 -56.5t45.5 -87t15.5 -110.5v-15.5t-1 -15.5h-381zM422 297
q-5 73 -43.5 116t-104.5 43t-104 -43t-43 -116h295zM216 669q0 53 53 53t53 -53t-53 -53t-53 53z" />
    <glyph glyph-name="Eogonek" unicode="&#x118;" horiz-adv-x="565" 
d="M80 700h436v-78h-348v-222h323v-78h-323v-244h357v-78h-40q-34 -33 -50.5 -57.5t-16.5 -50.5q0 -22 11 -32.5t31 -10.5q23 0 40 5v-65q-27 -8 -58 -8q-54 0 -81 26t-27 71q0 28 16 60.5t52 61.5h-322v700z" />
    <glyph glyph-name="eogonek" unicode="&#x119;" horiz-adv-x="544" 
d="M127 225q5 -74 50.5 -118.5t123.5 -44.5q46 0 84.5 10.5t72.5 38.5l9 -81q-31 -19 -71 -30q-34 -33 -50.5 -57.5t-16.5 -50.5q0 -22 11 -32.5t31 -10.5q23 0 40 5v-65q-27 -8 -58 -8q-54 0 -81 26t-27 71q0 26 12.5 54.5t41.5 55.5q-64 0 -112.5 21t-81 57.5t-49 86
t-16.5 107.5q0 61 16.5 110.5t47 85t74 55t96.5 19.5q56 0 100 -20t74 -56.5t45.5 -87t15.5 -110.5v-15.5t-1 -15.5h-381zM422 297q-5 73 -43.5 116t-104.5 43t-104 -43t-43 -116h295z" />
    <glyph glyph-name="Ecaron" unicode="&#x11a;" horiz-adv-x="565" 
d="M80 700h436v-78h-348v-222h323v-78h-323v-244h357v-78h-445v700zM343 762h-92l-123 162h80l89 -98l89 98h80z" />
    <glyph glyph-name="ecaron" unicode="&#x11b;" horiz-adv-x="544" 
d="M127 225q5 -74 50.5 -118.5t123.5 -44.5q46 0 84.5 10.5t72.5 38.5l9 -81q-32 -20 -74.5 -31t-93.5 -11q-64 0 -112.5 21t-81 57.5t-49 86t-16.5 107.5q0 61 16.5 110.5t47 85t74 55t96.5 19.5q56 0 100 -20t74 -56.5t45.5 -87t15.5 -110.5v-15.5t-1 -15.5h-381zM422 297
q-5 73 -43.5 116t-104.5 43t-104 -43t-43 -116h295zM318 588h-92l-123 162h80l89 -98l89 98h80z" />
    <glyph glyph-name="Gcircumflex" unicode="&#x11c;" horiz-adv-x="706" 
d="M45 350q0 77 26 143.5t74 115t116 76t153 27.5q59 0 111.5 -9.5t95.5 -26.5l-8 -88q-41 21 -89.5 32.5t-104.5 11.5q-65 0 -117.5 -21t-89.5 -58.5t-57 -89.5t-20 -113q0 -63 19.5 -115t57.5 -89t93 -57.5t126 -20.5q35 0 65 5t52 13v221h-193v78h281v-358
q-48 -20 -99.5 -29.5t-112.5 -9.5q-87 0 -157 27t-119.5 75t-76 114.5t-26.5 145.5zM554 762h-80l-89 98l-89 -98h-80l123 162h92z" />
    <glyph glyph-name="gcircumflex" unicode="&#x11d;" horiz-adv-x="576" 
d="M422 518h84v-480q0 -126 -58 -182t-182 -56q-98 0 -174 41l6 86q39 -26 81.5 -39.5t90.5 -13.5q78 0 115 33.5t37 118.5v26q-26 -25 -63 -39.5t-83 -14.5q-48 0 -91 18.5t-75.5 53t-51 84t-18.5 111.5t18.5 111t51 83.5t75.5 53t91 18.5q46 0 83 -14t63 -39v40zM422 392
q-23 32 -58.5 48.5t-80.5 16.5q-33 0 -62 -12.5t-50 -36.5t-33 -60t-12 -83t12 -83t33 -60.5t50 -37t62 -12.5q45 0 80.5 17t58.5 49v254zM465 588h-80l-89 98l-89 -98h-80l123 162h92z" />
    <glyph glyph-name="Gbreve" unicode="&#x11e;" horiz-adv-x="706" 
d="M45 350q0 77 26 143.5t74 115t116 76t153 27.5q59 0 111.5 -9.5t95.5 -26.5l-8 -88q-41 21 -89.5 32.5t-104.5 11.5q-65 0 -117.5 -21t-89.5 -58.5t-57 -89.5t-20 -113q0 -63 19.5 -115t57.5 -89t93 -57.5t126 -20.5q35 0 65 5t52 13v221h-193v78h281v-358
q-48 -20 -99.5 -29.5t-112.5 -9.5q-87 0 -157 27t-119.5 75t-76 114.5t-26.5 145.5zM386 765q-34 0 -63 9.5t-51 28.5t-34.5 47.5t-13.5 66.5h75q2 -42 25.5 -64.5t61.5 -22.5t61.5 22.5t25.5 64.5h75q-1 -38 -13.5 -66.5t-34.5 -47.5t-51 -28.5t-63 -9.5z" />
    <glyph glyph-name="gbreve" unicode="&#x11f;" horiz-adv-x="576" 
d="M422 518h84v-480q0 -126 -58 -182t-182 -56q-98 0 -174 41l6 86q39 -26 81.5 -39.5t90.5 -13.5q78 0 115 33.5t37 118.5v26q-26 -25 -63 -39.5t-83 -14.5q-48 0 -91 18.5t-75.5 53t-51 84t-18.5 111.5t18.5 111t51 83.5t75.5 53t91 18.5q46 0 83 -14t63 -39v40zM422 392
q-23 32 -58.5 48.5t-80.5 16.5q-33 0 -62 -12.5t-50 -36.5t-33 -60t-12 -83t12 -83t33 -60.5t50 -37t62 -12.5q45 0 80.5 17t58.5 49v254zM297 593q-34 0 -63 9.5t-51 28.5t-34.5 47.5t-13.5 66.5h75q2 -42 25.5 -64.5t61.5 -22.5t61.5 22.5t25.5 64.5h75
q-1 -38 -13.5 -66.5t-34.5 -47.5t-51 -28.5t-63 -9.5z" />
    <glyph glyph-name="Gdotaccent" unicode="&#x120;" horiz-adv-x="706" 
d="M45 350q0 77 26 143.5t74 115t116 76t153 27.5q59 0 111.5 -9.5t95.5 -26.5l-8 -88q-41 21 -89.5 32.5t-104.5 11.5q-65 0 -117.5 -21t-89.5 -58.5t-57 -89.5t-20 -113q0 -63 19.5 -115t57.5 -89t93 -57.5t126 -20.5q35 0 65 5t52 13v221h-193v78h281v-358
q-48 -20 -99.5 -29.5t-112.5 -9.5q-87 0 -157 27t-119.5 75t-76 114.5t-26.5 145.5zM334 843q0 53 53 53t53 -53t-53 -53t-53 53z" />
    <glyph glyph-name="gdotaccent" unicode="&#x121;" horiz-adv-x="576" 
d="M422 518h84v-480q0 -126 -58 -182t-182 -56q-98 0 -174 41l6 86q39 -26 81.5 -39.5t90.5 -13.5q78 0 115 33.5t37 118.5v26q-26 -25 -63 -39.5t-83 -14.5q-48 0 -91 18.5t-75.5 53t-51 84t-18.5 111.5t18.5 111t51 83.5t75.5 53t91 18.5q46 0 83 -14t63 -39v40zM422 392
q-23 32 -58.5 48.5t-80.5 16.5q-33 0 -62 -12.5t-50 -36.5t-33 -60t-12 -83t12 -83t33 -60.5t50 -37t62 -12.5q45 0 80.5 17t58.5 49v254zM232 669q0 53 53 53t53 -53t-53 -53t-53 53z" />
    <glyph glyph-name="Gcommaaccent" unicode="&#x122;" horiz-adv-x="706" 
d="M45 350q0 77 26 143.5t74 115t116 76t153 27.5q59 0 111.5 -9.5t95.5 -26.5l-8 -88q-41 21 -89.5 32.5t-104.5 11.5q-65 0 -117.5 -21t-89.5 -58.5t-57 -89.5t-20 -113q0 -63 19.5 -115t57.5 -89t93 -57.5t126 -20.5q35 0 65 5t52 13v221h-193v78h281v-358
q-48 -20 -99.5 -29.5t-112.5 -9.5q-87 0 -157 27t-119.5 75t-76 114.5t-26.5 145.5zM370 -92q0 51 51 51q53 0 53 -57q0 -51 -18.5 -91t-56.5 -66l-20 30q17 14 28 37t11 45q-48 2 -48 51z" />
    <glyph glyph-name="gcommaaccent" unicode="&#x123;" horiz-adv-x="576" 
d="M422 518h84v-480q0 -126 -58 -182t-182 -56q-98 0 -174 41l6 86q39 -26 81.5 -39.5t90.5 -13.5q78 0 115 33.5t37 118.5v26q-26 -25 -63 -39.5t-83 -14.5q-48 0 -91 18.5t-75.5 53t-51 84t-18.5 111.5t18.5 111t51 83.5t75.5 53t91 18.5q46 0 83 -14t63 -39v40zM422 392
q-23 32 -58.5 48.5t-80.5 16.5q-33 0 -62 -12.5t-50 -36.5t-33 -60t-12 -83t12 -83t33 -60.5t50 -37t62 -12.5q45 0 80.5 17t58.5 49v254zM335.018 628.988q0 -50.9932 -50.9932 -50.9932q-52.9932 0 -52.9932 56.9932q0 50.9932 18.4971 90.9883
q18.498 39.9951 56.4932 65.9922l19.998 -29.9961q-16.998 -13.998 -27.9971 -36.9961q-10.999 -22.9971 -10.999 -44.9941q47.9941 -2 47.9941 -50.9941z" />
    <glyph glyph-name="Hcircumflex" unicode="&#x124;" horiz-adv-x="702" 
d="M80 700h88v-289h366v289h88v-700h-88v333h-366v-333h-88v700zM520 762h-80l-89 98l-89 -98h-80l123 162h92z" />
    <glyph glyph-name="hcircumflex" unicode="&#x125;" horiz-adv-x="583" 
d="M292 456q-45 0 -80.5 -18t-57.5 -47v-391h-84v730h84v-254q26 24 63.5 39t85.5 15q100 0 157.5 -59.5t57.5 -177.5v-293h-84v295q0 85 -35.5 123t-106.5 38zM370 762h-80l-89 98l-89 -98h-80l123 162h92z" />
    <glyph glyph-name="Hbar" unicode="&#x126;" horiz-adv-x="712" 
d="M85 700h88v-95h366v95h88v-95h60v-72h-60v-533h-88v333h-366v-333h-88v533h-60v72h60v95zM539 411v122h-366v-122h366z" />
    <glyph glyph-name="hbar" unicode="&#x127;" horiz-adv-x="588" 
d="M297 456q-45 0 -80.5 -18t-57.5 -47v-391h-84v593h-70v68h70v69h84v-69h202v-68h-202v-117q26 24 63.5 39t85.5 15q100 0 157.5 -59.5t57.5 -177.5v-293h-84v295q0 85 -35.5 123t-106.5 38z" />
    <glyph glyph-name="Itilde" unicode="&#x128;" horiz-adv-x="258" 
d="M173 700v-700h-88v700h88zM204 776q-21 0 -41 11t-38 23.5t-33.5 23.5t-27.5 11t-18 -12.5t-6 -54.5h-72q0 73 24 102.5t64 29.5q21 0 41 -11t38 -23.5t33.5 -23.5t27.5 -11t18 12.5t6 54.5h72q0 -73 -24 -102.5t-64 -29.5z" />
    <glyph glyph-name="itilde" unicode="&#x129;" horiz-adv-x="234" 
d="M75 518h84v-518h-84v518zM192 602q-21 0 -41 11t-38 23.5t-33.5 23.5t-27.5 11t-18 -12.5t-6 -54.5h-72q0 73 24 102.5t64 29.5q21 0 41 -11t38 -23.5t33.5 -23.5t27.5 -11t18 12.5t6 54.5h72q0 -73 -24 -102.5t-64 -29.5z" />
    <glyph glyph-name="Imacron" unicode="&#x12a;" horiz-adv-x="258" 
d="M173 700v-700h-88v700h88zM-16 879h292v-72h-292v72z" />
    <glyph glyph-name="imacron" unicode="&#x12b;" horiz-adv-x="234" 
d="M75 518h84v-518h-84v518zM-28 705h292v-72h-292v72z" />
    <glyph glyph-name="Ibreve" unicode="&#x12c;" horiz-adv-x="258" 
d="M173 700v-700h-88v700h88zM130 765q-34 0 -63 9.5t-51 28.5t-34.5 47.5t-13.5 66.5h75q2 -42 25.5 -64.5t61.5 -22.5t61.5 22.5t25.5 64.5h75q-1 -38 -13.5 -66.5t-34.5 -47.5t-51 -28.5t-63 -9.5z" />
    <glyph glyph-name="ibreve" unicode="&#x12d;" horiz-adv-x="234" 
d="M75 518h84v-518h-84v518zM118 593q-34 0 -63 9.5t-51 28.5t-34.5 47.5t-13.5 66.5h75q2 -42 25.5 -64.5t61.5 -22.5t61.5 22.5t25.5 64.5h75q-1 -38 -13.5 -66.5t-34.5 -47.5t-51 -28.5t-63 -9.5z" />
    <glyph glyph-name="Iogonek" unicode="&#x12e;" horiz-adv-x="258" 
d="M85 0v700h88v-700q-34 -33 -50.5 -57.5t-16.5 -50.5q0 -22 11 -32.5t31 -10.5q23 0 40 5v-65q-27 -8 -58 -8q-54 0 -81 26t-27 71q0 28 16 60.5t52 61.5h-5z" />
    <glyph glyph-name="iogonek" unicode="&#x12f;" horiz-adv-x="234" 
d="M75 518h84v-518q-34 -33 -50.5 -57.5t-16.5 -50.5q0 -22 11 -32.5t31 -10.5q23 0 40 5v-65q-27 -8 -58 -8q-54 0 -81 26t-27 71q0 28 16 60.5t52 61.5h-1v518zM64 677q0 53 53 53t53 -53t-53 -53t-53 53z" />
    <glyph glyph-name="Idotaccent" unicode="&#x130;" horiz-adv-x="258" 
d="M173 700v-700h-88v700h88zM77 843q0 53 53 53t53 -53t-53 -53t-53 53z" />
    <glyph glyph-name="dotlessi" unicode="&#x131;" horiz-adv-x="234" 
d="M75 518h84v-518h-84v518z" />
    <glyph glyph-name="IJ" unicode="&#x132;" horiz-adv-x="668" 
d="M169 700v-700h-88v700h88zM500 700h88v-471q0 -123 -54 -182t-155 -59q-41 0 -77.5 7t-68.5 24l7 87q56 -38 137 -38q59 0 91 37.5t32 123.5v471z" />
    <glyph glyph-name="ij" unicode="&#x133;" horiz-adv-x="476" 
d="M71 518h84v-518h-84v518zM60 677q0 53 53 53t53 -53t-53 -53t-53 53zM322 518h84v-540q0 -91 -39.5 -134.5t-127.5 -43.5q-33 0 -60 8l8 73q9 -3 21.5 -5t23.5 -2q47 0 68.5 23t21.5 76v545zM312 677q0 53 52 53q53 0 53 -53t-53 -53q-52 0 -52 53z" />
    <glyph glyph-name="Jcircumflex" unicode="&#x134;" horiz-adv-x="445" 
d="M277 700h88v-471q0 -123 -54 -182t-155 -59q-41 0 -77.5 7t-68.5 24l7 87q56 -38 137 -38q59 0 91 37.5t32 123.5v471zM490 762h-80l-89 98l-89 -98h-80l123 162h92z" />
    <glyph glyph-name="jcircumflex" unicode="&#x135;" horiz-adv-x="237" 
d="M296 588h-80l-89 98l-89 -98h-80l123 162h92zM83 518h84v-540q0 -91 -39.5 -134.5t-127.5 -43.5q-33 0 -60 8l8 71q9 -3 21.5 -5t23.5 -2q47 0 68.5 23t21.5 76v547z" />
    <glyph glyph-name="Kcommaaccent" unicode="&#x136;" horiz-adv-x="607" 
d="M574 700l-313 -328l361 -372h-118l-336 354v-354h-88v700h88v-310l296 310h110zM264 -92q0 51 51 51q53 0 53 -57q0 -51 -18.5 -91t-56.5 -66l-20 30q17 14 28 37t11 45q-48 2 -48 51z" />
    <glyph glyph-name="kcommaaccent" unicode="&#x137;" horiz-adv-x="517" 
d="M154 730v-424l229 212h108l-249 -229l270 -289h-110l-248 272v-272h-84v730h84zM213 -92q0 51 51 51q53 0 53 -57q0 -51 -18.5 -91t-56.5 -66l-20 30q17 14 28 37t11 45q-48 2 -48 51z" />
    <glyph glyph-name="kgreenlandic" unicode="&#x138;" horiz-adv-x="517" 
d="M154 518v-229l229 229h108l-251 -248l272 -270h-110l-248 250v-250h-84v518h84z" />
    <glyph glyph-name="Lacute" unicode="&#x139;" horiz-adv-x="565" 
d="M80 700h88v-622h377v-78h-465v700zM184 924h107v-10l-145 -152h-80z" />
    <glyph glyph-name="lacute" unicode="&#x13a;" horiz-adv-x="234" 
d="M75 730h84v-730h-84v730zM178 924h107v-10l-145 -152h-80z" />
    <glyph glyph-name="Lcommaaccent" unicode="&#x13b;" horiz-adv-x="565" 
d="M80 700h88v-622h377v-78h-465v700zM270 -92q0 51 51 51q53 0 53 -57q0 -51 -18.5 -91t-56.5 -66l-20 30q17 14 28 37t11 45q-48 2 -48 51z" />
    <glyph glyph-name="lcommaaccent" unicode="&#x13c;" horiz-adv-x="234" 
d="M76 730h84v-730h-84v730zM66 -92q0 51 51 51q53 0 53 -57q0 -51 -18.5 -91t-56.5 -66l-20 30q17 14 28 37t11 45q-48 2 -48 51z" />
    <glyph glyph-name="Lcaron" unicode="&#x13d;" horiz-adv-x="565" 
d="M80 700h88v-622h377v-78h-465v700zM344 684q0 59 57 59q32 0 47 -16t15 -56q0 -57 -26.5 -105t-73.5 -73l-20 30q24 20 38 47t16 55q-31 2 -42 19t-11 40z" />
    <glyph glyph-name="lcaron" unicode="&#x13e;" horiz-adv-x="351" 
d="M75 730h84v-730h-84v730zM212 684q0 59 57 59q32 0 47 -16t15 -56q0 -57 -26.5 -105t-73.5 -73l-20 30q24 20 38 47t16 55q-31 2 -42 19t-11 40z" />
    <glyph glyph-name="Ldot" unicode="&#x13f;" horiz-adv-x="565" 
d="M80 700h88v-622h377v-78h-465v700zM359 380q0 53 53 53t53 -53t-53 -53t-53 53z" />
    <glyph glyph-name="ldot" unicode="&#x140;" horiz-adv-x="395" 
d="M75 730h84v-730h-84v730zM279 380q0 53 53 53t53 -53t-53 -53t-53 53z" />
    <glyph glyph-name="Lslash" unicode="&#x141;" horiz-adv-x="590" 
d="M105 700h88v-292l258 173l40 -62l-298 -200v-241h377v-78h-465v260l-73 -49l-39 63l112 75v351z" />
    <glyph glyph-name="lslash" unicode="&#x142;" horiz-adv-x="378" 
d="M138 310l-109 -73l-39 61l148 99v333h84v-277l125 84l41 -59l-166 -112v-366h-84v310z" />
    <glyph glyph-name="Nacute" unicode="&#x143;" horiz-adv-x="708" 
d="M80 700h105l359 -591v591h84v-700h-105l-359 591v-591h-84v700zM430 924h107v-10l-145 -152h-80z" />
    <glyph glyph-name="nacute" unicode="&#x144;" horiz-adv-x="583" 
d="M292 456q-45 0 -80.5 -18t-57.5 -47v-391h-84v518h84v-42q26 24 63.5 39t85.5 15q100 0 157.5 -59.5t57.5 -177.5v-293h-84v295q0 85 -35.5 123t-106.5 38zM337 750h107v-10l-145 -152h-80z" />
    <glyph glyph-name="Ncommaaccent" unicode="&#x145;" horiz-adv-x="708" 
d="M80 700h105l359 -591v591h84v-700h-105l-359 591v-591h-84v700zM306 -92q0 51 51 51q53 0 53 -57q0 -51 -18.5 -91t-56.5 -66l-20 30q17 14 28 37t11 45q-48 2 -48 51z" />
    <glyph glyph-name="ncommaaccent" unicode="&#x146;" horiz-adv-x="583" 
d="M292 456q-45 0 -80.5 -18t-57.5 -47v-391h-84v518h84v-42q26 24 63.5 39t85.5 15q100 0 157.5 -59.5t57.5 -177.5v-293h-84v295q0 85 -35.5 123t-106.5 38zM243 -92q0 51 51 51q53 0 53 -57q0 -51 -18.5 -91t-56.5 -66l-20 30q17 14 28 37t11 45q-48 2 -48 51z" />
    <glyph glyph-name="Ncaron" unicode="&#x147;" horiz-adv-x="708" 
d="M80 700h105l359 -591v591h84v-700h-105l-359 591v-591h-84v700zM395 762h-92l-123 162h80l89 -98l89 98h80z" />
    <glyph glyph-name="ncaron" unicode="&#x148;" horiz-adv-x="583" 
d="M292 456q-45 0 -80.5 -18t-57.5 -47v-391h-84v518h84v-42q26 24 63.5 39t85.5 15q100 0 157.5 -59.5t57.5 -177.5v-293h-84v295q0 85 -35.5 123t-106.5 38zM337 588h-92l-123 162h80l89 -98l89 98h80z" />
    <glyph glyph-name="napostrophe" unicode="&#x149;" horiz-adv-x="645" 
d="M354 456q-45 0 -80.5 -18t-57.5 -47v-391h-84v518h84v-42q26 24 63.5 39t85.5 15q100 0 157.5 -59.5t57.5 -177.5v-293h-84v295q0 85 -35.5 123t-106.5 38zM22 684q0 59 57 59q32 0 47 -16t15 -56q0 -57 -26.5 -105t-73.5 -73l-20 30q24 20 38 47t16 55q-31 2 -42 19
t-11 40z" />
    <glyph glyph-name="Eng" unicode="&#x14a;" horiz-adv-x="718" 
d="M164 591v-591h-84v700h105l369 -591v591h84v-715q0 -97 -38.5 -141t-119.5 -44q-17 0 -35 2.5t-31 6.5l8 76q12 -5 26.5 -7t27.5 -2q37 0 55 23t18 80z" />
    <glyph glyph-name="eng" unicode="&#x14b;" horiz-adv-x="583" 
d="M434 295q0 85 -35.5 123t-106.5 38q-45 0 -80.5 -18t-57.5 -47v-391h-84v518h84v-42q26 24 63.5 39t85.5 15q100 0 157.5 -59.5t57.5 -177.5v-303q0 -102 -40 -146t-113 -44q-17 0 -35 2.5t-31 6.5l8 73q14 -5 27.5 -6.5t26.5 -1.5q38 0 55.5 23t17.5 89v309z" />
    <glyph glyph-name="Omacron" unicode="&#x14c;" horiz-adv-x="715" 
d="M670 350q0 -76 -21 -142t-61 -115t-98 -77t-132 -28q-75 0 -133 28t-98 77t-61 115t-21 142t21 142t61 115t98 77t133 28q74 0 132 -28t98 -77t61 -115t21 -142zM135 350q0 -65 15.5 -117t45 -89t70.5 -56.5t92 -19.5t92 19.5t70 56.5t44.5 89t15.5 117t-15.5 117
t-44.5 89t-70 56.5t-92 19.5t-92 -19.5t-70.5 -56.5t-45 -89t-15.5 -117zM212 879h292v-72h-292v72z" />
    <glyph glyph-name="omacron" unicode="&#x14d;" horiz-adv-x="580" 
d="M40 259q0 58 17.5 108t50 86t78.5 56.5t104 20.5t104 -20.5t78.5 -56.5t50 -86t17.5 -108q0 -59 -17.5 -108.5t-50 -85.5t-78.5 -56.5t-104 -20.5t-104 20.5t-78.5 56.5t-50 85.5t-17.5 108.5zM126 259q0 -91 43 -144t121 -53t121 53t43 144t-43 144t-121 53t-121 -53
t-43 -144zM144 705h292v-72h-292v72z" />
    <glyph glyph-name="Obreve" unicode="&#x14e;" horiz-adv-x="715" 
d="M670 350q0 -76 -21 -142t-61 -115t-98 -77t-132 -28q-75 0 -133 28t-98 77t-61 115t-21 142t21 142t61 115t98 77t133 28q74 0 132 -28t98 -77t61 -115t21 -142zM135 350q0 -65 15.5 -117t45 -89t70.5 -56.5t92 -19.5t92 19.5t70 56.5t44.5 89t15.5 117t-15.5 117
t-44.5 89t-70 56.5t-92 19.5t-92 -19.5t-70.5 -56.5t-45 -89t-15.5 -117zM357 765q-34 0 -63 9.5t-51 28.5t-34.5 47.5t-13.5 66.5h75q2 -42 25.5 -64.5t61.5 -22.5t61.5 22.5t25.5 64.5h75q-1 -38 -13.5 -66.5t-34.5 -47.5t-51 -28.5t-63 -9.5z" />
    <glyph glyph-name="obreve" unicode="&#x14f;" horiz-adv-x="580" 
d="M40 259q0 58 17.5 108t50 86t78.5 56.5t104 20.5t104 -20.5t78.5 -56.5t50 -86t17.5 -108q0 -59 -17.5 -108.5t-50 -85.5t-78.5 -56.5t-104 -20.5t-104 20.5t-78.5 56.5t-50 85.5t-17.5 108.5zM126 259q0 -91 43 -144t121 -53t121 53t43 144t-43 144t-121 53t-121 -53
t-43 -144zM290 593q-34 0 -63 9.5t-51 28.5t-34.5 47.5t-13.5 66.5h75q2 -42 25.5 -64.5t61.5 -22.5t61.5 22.5t25.5 64.5h75q-1 -38 -13.5 -66.5t-34.5 -47.5t-51 -28.5t-63 -9.5z" />
    <glyph glyph-name="Ohungarumlaut" unicode="&#x150;" horiz-adv-x="715" 
d="M670 350q0 -76 -21 -142t-61 -115t-98 -77t-132 -28q-75 0 -133 28t-98 77t-61 115t-21 142t21 142t61 115t98 77t133 28q74 0 132 -28t98 -77t61 -115t21 -142zM135 350q0 -65 15.5 -117t45 -89t70.5 -56.5t92 -19.5t92 19.5t70 56.5t44.5 89t15.5 117t-15.5 117
t-44.5 89t-70 56.5t-92 19.5t-92 -19.5t-70.5 -56.5t-45 -89t-15.5 -117zM485 924h107v-10l-145 -152h-80zM321 924h107v-10l-145 -152h-80z" />
    <glyph glyph-name="ohungarumlaut" unicode="&#x151;" horiz-adv-x="580" 
d="M40 259q0 58 17.5 108t50 86t78.5 56.5t104 20.5t104 -20.5t78.5 -56.5t50 -86t17.5 -108q0 -59 -17.5 -108.5t-50 -85.5t-78.5 -56.5t-104 -20.5t-104 20.5t-78.5 56.5t-50 85.5t-17.5 108.5zM126 259q0 -91 43 -144t121 -53t121 53t43 144t-43 144t-121 53t-121 -53
t-43 -144zM432 750h107v-10l-145 -152h-80zM268 750h107v-10l-145 -152h-80z" />
    <glyph glyph-name="OE" unicode="&#x152;" horiz-adv-x="839" 
d="M45 350q0 78 24 142.5t70 110.5t113.5 71.5t153.5 25.5h384v-78h-294v-222h269v-78h-269v-244h303v-78h-393q-86 0 -153.5 25.5t-113.5 71.5t-70 110.5t-24 142.5zM135 350q0 -61 17 -111t51 -86t85.5 -55.5t119.5 -19.5v544q-68 0 -119.5 -19.5t-85.5 -55.5t-51 -86
t-17 -111z" />
    <glyph glyph-name="oe" unicode="&#x153;" horiz-adv-x="898" 
d="M501 225q5 -74 45.5 -118.5t118.5 -44.5q40 0 77 11t70 38l9 -81q-32 -20 -70 -31t-88 -11q-146 0 -205 110q-28 -57 -75.5 -83.5t-112.5 -26.5q-55 0 -97.5 20.5t-72 56.5t-45 85.5t-15.5 108.5q0 58 15.5 108t45 86t72 56.5t97.5 20.5q64 0 111 -28t75 -79
q29 52 74.5 79.5t107.5 27.5q56 0 98.5 -20t70.5 -56.5t42 -87t14 -110.5v-15.5t-1 -15.5h-361zM776 297q-5 73 -38.5 116t-99.5 43t-99 -43t-38 -116h275zM126 259q0 -91 37 -144t107 -53t107 53t37 144t-37 144t-107 53t-107 -53t-37 -144z" />
    <glyph glyph-name="Racute" unicode="&#x154;" horiz-adv-x="619" 
d="M566 496q0 -77 -43.5 -124.5t-112.5 -67.5l199 -304h-101l-189 292h-151v-292h-88v700h233q53 0 99.5 -13t80.5 -38.5t53.5 -64t19.5 -88.5zM476 496q0 126 -169 126h-139v-252h139q169 0 169 126zM329 924h107v-10l-145 -152h-80z" />
    <glyph glyph-name="racute" unicode="&#x155;" horiz-adv-x="375" 
d="M361 441q-13 5 -30 8t-33 3q-54 0 -90 -24.5t-54 -69.5v-358h-84v518h84v-58q25 32 63.5 51t89.5 19q15 0 32 -1.5t31 -5.5zM232 750h107v-10l-145 -152h-80z" />
    <glyph glyph-name="Rcommaaccent" unicode="&#x156;" horiz-adv-x="619" 
d="M566 496q0 -77 -43.5 -124.5t-112.5 -67.5l199 -304h-101l-189 292h-151v-292h-88v700h233q53 0 99.5 -13t80.5 -38.5t53.5 -64t19.5 -88.5zM476 496q0 126 -169 126h-139v-252h139q169 0 169 126zM273 -92q0 51 51 51q53 0 53 -57q0 -51 -18.5 -91t-56.5 -66l-20 30
q17 14 28 37t11 45q-48 2 -48 51z" />
    <glyph glyph-name="rcommaaccent" unicode="&#x157;" horiz-adv-x="375" 
d="M361 441q-13 5 -30 8t-33 3q-54 0 -90 -24.5t-54 -69.5v-358h-84v518h84v-58q25 32 63.5 51t89.5 19q15 0 32 -1.5t31 -5.5zM60 -92q0 51 51 51q53 0 53 -57q0 -51 -18.5 -91t-56.5 -66l-20 30q17 14 28 37t11 45q-48 2 -48 51z" />
    <glyph glyph-name="Rcaron" unicode="&#x158;" horiz-adv-x="619" 
d="M566 496q0 -77 -43.5 -124.5t-112.5 -67.5l199 -304h-101l-189 292h-151v-292h-88v700h233q53 0 99.5 -13t80.5 -38.5t53.5 -64t19.5 -88.5zM476 496q0 126 -169 126h-139v-252h139q169 0 169 126zM323 762h-92l-123 162h80l89 -98l89 98h80z" />
    <glyph glyph-name="rcaron" unicode="&#x159;" horiz-adv-x="375" 
d="M361 441q-13 5 -30 8t-33 3q-54 0 -90 -24.5t-54 -69.5v-358h-84v518h84v-58q25 32 63.5 51t89.5 19q15 0 32 -1.5t31 -5.5zM257 588h-92l-123 162h80l89 -98l89 98h80z" />
    <glyph glyph-name="Sacute" unicode="&#x15a;" horiz-adv-x="542" 
d="M451 593q-37 21 -80 30t-83 9q-76 0 -112 -27t-36 -72q0 -43 33 -73t106 -56q58 -20 99.5 -41.5t67.5 -48t38.5 -58.5t12.5 -72q0 -94 -65.5 -145t-186.5 -51q-107 0 -191 46l8 92q41 -29 90 -43.5t100 -14.5q76 0 115.5 29t39.5 82q0 48 -33.5 82t-118.5 61
q-104 33 -154.5 83t-50.5 128q0 83 63 131t178 48q41 0 86 -7.5t81 -23.5zM329 924h107v-10l-145 -152h-80z" />
    <glyph glyph-name="sacute" unicode="&#x15b;" horiz-adv-x="466" 
d="M217 -12q-48 0 -92.5 12t-79.5 33l7 84q32 -26 74 -40.5t91 -14.5q61 0 89.5 19.5t28.5 57.5q0 16 -5 29t-18.5 24t-36 20.5t-56.5 18.5q-86 22 -128 59.5t-42 96.5q0 69 53.5 106t141.5 37q39 0 78.5 -7t71.5 -21l-8 -80q-29 17 -65.5 25.5t-74.5 8.5q-57 0 -84 -17
t-27 -46q0 -30 27 -52t94 -39q88 -23 126.5 -61t38.5 -96q0 -76 -54.5 -116.5t-149.5 -40.5zM284 750h107v-10l-145 -152h-80z" />
    <glyph glyph-name="Scircumflex" unicode="&#x15c;" horiz-adv-x="542" 
d="M451 593q-37 21 -80 30t-83 9q-76 0 -112 -27t-36 -72q0 -43 33 -73t106 -56q58 -20 99.5 -41.5t67.5 -48t38.5 -58.5t12.5 -72q0 -94 -65.5 -145t-186.5 -51q-107 0 -191 46l8 92q41 -29 90 -43.5t100 -14.5q76 0 115.5 29t39.5 82q0 48 -33.5 82t-118.5 61
q-104 33 -154.5 83t-50.5 128q0 83 63 131t178 48q41 0 86 -7.5t81 -23.5zM440 762h-80l-89 98l-89 -98h-80l123 162h92z" />
    <glyph glyph-name="scircumflex" unicode="&#x15d;" horiz-adv-x="466" 
d="M217 -12q-48 0 -92.5 12t-79.5 33l7 84q32 -26 74 -40.5t91 -14.5q61 0 89.5 19.5t28.5 57.5q0 16 -5 29t-18.5 24t-36 20.5t-56.5 18.5q-86 22 -128 59.5t-42 96.5q0 69 53.5 106t141.5 37q39 0 78.5 -7t71.5 -21l-8 -80q-29 17 -65.5 25.5t-74.5 8.5q-57 0 -84 -17
t-27 -46q0 -30 27 -52t94 -39q88 -23 126.5 -61t38.5 -96q0 -76 -54.5 -116.5t-149.5 -40.5zM395 588h-80l-89 98l-89 -98h-80l123 162h92z" />
    <glyph glyph-name="Scedilla" unicode="&#x15e;" horiz-adv-x="542" 
d="M191 -180q18 -7 48 -7q29 0 47 10.5t18 34.5q0 26 -27.5 41t-69.5 15l38 74q-107 0 -191 46l8 92q41 -29 90 -43.5t100 -14.5q76 0 115.5 29t39.5 82q0 48 -33.5 82t-118.5 61q-104 33 -154.5 83t-50.5 128q0 83 63 131t178 48q41 0 86 -7.5t81 -23.5l-7 -88
q-37 21 -80 30t-83 9q-76 0 -112 -27t-36 -72q0 -43 33 -73t106 -56q58 -20 99.5 -41.5t67.5 -48t38.5 -58.5t12.5 -72q0 -77 -44.5 -125.5t-128.5 -63.5l-27 -51q35 -9 56.5 -31.5t21.5 -54.5q0 -46 -30 -71t-102 -25q-27 0 -52 5v53z" />
    <glyph glyph-name="scedilla" unicode="&#x15f;" horiz-adv-x="466" 
d="M151 -180q18 -7 48 -7q29 0 47 10.5t18 34.5q0 26 -27.5 41t-69.5 15l39 74q-45 2 -87 13.5t-74 31.5l7 84q32 -26 74 -40.5t91 -14.5q61 0 89.5 19.5t28.5 57.5q0 16 -5 29t-18.5 24t-36 20.5t-56.5 18.5q-86 22 -128 59.5t-42 96.5q0 69 53.5 106t141.5 37
q39 0 78.5 -7t71.5 -21l-8 -80q-29 17 -65.5 25.5t-74.5 8.5q-57 0 -84 -17t-27 -46q0 -30 27 -52t94 -39q88 -23 126.5 -61t38.5 -96q0 -62 -36 -100t-101 -51l-27 -50q35 -9 56.5 -31.5t21.5 -54.5q0 -46 -30 -71t-102 -25q-27 0 -52 5v53z" />
    <glyph glyph-name="Scaron" unicode="&#x160;" horiz-adv-x="542" 
d="M451 593q-37 21 -80 30t-83 9q-76 0 -112 -27t-36 -72q0 -43 33 -73t106 -56q58 -20 99.5 -41.5t67.5 -48t38.5 -58.5t12.5 -72q0 -94 -65.5 -145t-186.5 -51q-107 0 -191 46l8 92q41 -29 90 -43.5t100 -14.5q76 0 115.5 29t39.5 82q0 48 -33.5 82t-118.5 61
q-104 33 -154.5 83t-50.5 128q0 83 63 131t178 48q41 0 86 -7.5t81 -23.5zM317 762h-92l-123 162h80l89 -98l89 98h80z" />
    <glyph glyph-name="scaron" unicode="&#x161;" horiz-adv-x="466" 
d="M217 -12q-48 0 -92.5 12t-79.5 33l7 84q32 -26 74 -40.5t91 -14.5q61 0 89.5 19.5t28.5 57.5q0 16 -5 29t-18.5 24t-36 20.5t-56.5 18.5q-86 22 -128 59.5t-42 96.5q0 69 53.5 106t141.5 37q39 0 78.5 -7t71.5 -21l-8 -80q-29 17 -65.5 25.5t-74.5 8.5q-57 0 -84 -17
t-27 -46q0 -30 27 -52t94 -39q88 -23 126.5 -61t38.5 -96q0 -76 -54.5 -116.5t-149.5 -40.5zM277 588h-92l-123 162h80l89 -98l89 98h80z" />
    <glyph glyph-name="Tcommaaccent" unicode="&#x162;" horiz-adv-x="544" 
d="M228 622h-218v78h524v-78h-218v-622l-30 -56q35 -9 56.5 -31.5t21.5 -54.5q0 -46 -30 -71t-102 -25q-27 0 -52 5v53q18 -7 48 -7q29 0 47 10.5t18 34.5q0 26 -27.5 41t-69.5 15l45 86h-13v622z" />
    <glyph glyph-name="tcommaaccent" unicode="&#x163;" horiz-adv-x="374" 
d="M140 -180q18 -7 48 -7q29 0 47 10.5t18 34.5q0 26 -27.5 41t-69.5 15l45 86q-46 17 -69.5 57t-23.5 108v281h-93v72h93v155h84v-155h157v-72h-157v-248q0 -43 5.5 -69.5t17 -41.5t29.5 -20t43 -5q24 0 50 6l10 -74q-17 -3 -35.5 -4.5t-32.5 -1.5h-10l-23 -44
q35 -9 56.5 -31.5t21.5 -54.5q0 -46 -30 -71t-102 -25q-27 0 -52 5v53z" />
    <glyph glyph-name="Tcaron" unicode="&#x164;" horiz-adv-x="544" 
d="M228 622h-218v78h524v-78h-218v-622h-88v622zM317 762h-92l-123 162h80l89 -98l89 98h80z" />
    <glyph glyph-name="tcaron" unicode="&#x165;" horiz-adv-x="491" 
d="M15 518h93v155h84v-155h157v-72h-157v-248q0 -43 5.5 -69.5t17 -41.5t29.5 -20t43 -5q24 0 50 6l10 -74q-17 -3 -35.5 -4.5t-32.5 -1.5q-84 0 -127.5 42.5t-43.5 134.5v281h-93v72zM352 684q0 59 57 59q32 0 47 -16t15 -56q0 -57 -26.5 -105t-73.5 -73l-20 30
q24 20 38 47t16 55q-31 2 -42 19t-11 40z" />
    <glyph glyph-name="Tbar" unicode="&#x166;" horiz-adv-x="544" 
d="M228 622h-218v78h524v-78h-218v-235h150v-72h-150v-315h-88v315h-150v72h150v235z" />
    <glyph glyph-name="tbar" unicode="&#x167;" horiz-adv-x="374" 
d="M331 262h-139v-64q0 -32 2.5 -57.5t12 -43t28.5 -26.5t52 -9q24 0 50 6l10 -74q-17 -3 -35.5 -4.5t-32.5 -1.5q-88 0 -129.5 42.5t-41.5 134.5v97h-75v68h75v116h-93v72h93v155h84v-155h157v-72h-157v-116h139v-68z" />
    <glyph glyph-name="Utilde" unicode="&#x168;" horiz-adv-x="715" 
d="M358 -12q-61 0 -112 17.5t-88 53t-57.5 89t-20.5 125.5v427h88v-422q0 -99 44.5 -154.5t145.5 -55.5q100 0 144.5 55.5t44.5 154.5v422h88v-427q0 -72 -19.5 -125.5t-55.5 -89t-87 -53t-115 -17.5zM431 776q-21 0 -41 11t-38 23.5t-33.5 23.5t-27.5 11t-18 -12.5
t-6 -54.5h-72q0 73 24 102.5t64 29.5q21 0 41 -11t38 -23.5t33.5 -23.5t27.5 -11t18 12.5t6 54.5h72q0 -73 -24 -102.5t-64 -29.5z" />
    <glyph glyph-name="utilde" unicode="&#x169;" horiz-adv-x="583" 
d="M291 62q45 0 80.5 18t57.5 47v391h84v-518h-84v42q-26 -24 -63.5 -39t-85.5 -15q-100 0 -157.5 59.5t-57.5 177.5v293h84v-295q0 -85 35.5 -123t106.5 -38zM363 602q-21 0 -41 11t-38 23.5t-33.5 23.5t-27.5 11t-18 -12.5t-6 -54.5h-72q0 73 24 102.5t64 29.5
q21 0 41 -11t38 -23.5t33.5 -23.5t27.5 -11t18 12.5t6 54.5h72q0 -73 -24 -102.5t-64 -29.5z" />
    <glyph glyph-name="Umacron" unicode="&#x16a;" horiz-adv-x="715" 
d="M358 -12q-61 0 -112 17.5t-88 53t-57.5 89t-20.5 125.5v427h88v-422q0 -99 44.5 -154.5t145.5 -55.5q100 0 144.5 55.5t44.5 154.5v422h88v-427q0 -72 -19.5 -125.5t-55.5 -89t-87 -53t-115 -17.5zM211 879h292v-72h-292v72z" />
    <glyph glyph-name="umacron" unicode="&#x16b;" horiz-adv-x="583" 
d="M291 62q45 0 80.5 18t57.5 47v391h84v-518h-84v42q-26 -24 -63.5 -39t-85.5 -15q-100 0 -157.5 59.5t-57.5 177.5v293h84v-295q0 -85 35.5 -123t106.5 -38zM143 705h292v-72h-292v72z" />
    <glyph glyph-name="Ubreve" unicode="&#x16c;" horiz-adv-x="715" 
d="M358 -12q-61 0 -112 17.5t-88 53t-57.5 89t-20.5 125.5v427h88v-422q0 -99 44.5 -154.5t145.5 -55.5q100 0 144.5 55.5t44.5 154.5v422h88v-427q0 -72 -19.5 -125.5t-55.5 -89t-87 -53t-115 -17.5zM357 765q-34 0 -63 9.5t-51 28.5t-34.5 47.5t-13.5 66.5h75
q2 -42 25.5 -64.5t61.5 -22.5t61.5 22.5t25.5 64.5h75q-1 -38 -13.5 -66.5t-34.5 -47.5t-51 -28.5t-63 -9.5z" />
    <glyph glyph-name="ubreve" unicode="&#x16d;" horiz-adv-x="583" 
d="M291 62q45 0 80.5 18t57.5 47v391h84v-518h-84v42q-26 -24 -63.5 -39t-85.5 -15q-100 0 -157.5 59.5t-57.5 177.5v293h84v-295q0 -85 35.5 -123t106.5 -38zM289 593q-34 0 -63 9.5t-51 28.5t-34.5 47.5t-13.5 66.5h75q2 -42 25.5 -64.5t61.5 -22.5t61.5 22.5t25.5 64.5
h75q-1 -38 -13.5 -66.5t-34.5 -47.5t-51 -28.5t-63 -9.5z" />
    <glyph glyph-name="Uring" unicode="&#x16e;" horiz-adv-x="715" 
d="M358 -12q-61 0 -112 17.5t-88 53t-57.5 89t-20.5 125.5v427h88v-422q0 -99 44.5 -154.5t145.5 -55.5q100 0 144.5 55.5t44.5 154.5v422h88v-427q0 -72 -19.5 -125.5t-55.5 -89t-87 -53t-115 -17.5zM463 843q0 -22 -8 -41t-22.5 -33t-34 -22t-41.5 -8q-23 0 -42 8
t-33.5 22t-22.5 33t-8 41t8 41t22.5 33t33.5 22t42 8q22 0 41.5 -8t34 -22t22.5 -33t8 -41zM314 843q0 -20 12 -32.5t31 -12.5t31 12.5t12 32.5t-12 32.5t-31 12.5t-31 -12.5t-12 -32.5z" />
    <glyph glyph-name="uring" unicode="&#x16f;" horiz-adv-x="583" 
d="M291 62q45 0 80.5 18t57.5 47v391h84v-518h-84v42q-26 -24 -63.5 -39t-85.5 -15q-100 0 -157.5 59.5t-57.5 177.5v293h84v-295q0 -85 35.5 -123t106.5 -38zM395 669q0 -22 -8 -41t-22.5 -33t-34 -22t-41.5 -8q-23 0 -42 8t-33.5 22t-22.5 33t-8 41t8 41t22.5 33t33.5 22
t42 8q22 0 41.5 -8t34 -22t22.5 -33t8 -41zM246 669q0 -20 12 -32.5t31 -12.5t31 12.5t12 32.5t-12 32.5t-31 12.5t-31 -12.5t-12 -32.5z" />
    <glyph glyph-name="Uhungarumlaut" unicode="&#x170;" horiz-adv-x="715" 
d="M358 -12q-61 0 -112 17.5t-88 53t-57.5 89t-20.5 125.5v427h88v-422q0 -99 44.5 -154.5t145.5 -55.5q100 0 144.5 55.5t44.5 154.5v422h88v-427q0 -72 -19.5 -125.5t-55.5 -89t-87 -53t-115 -17.5zM495 924h107v-10l-145 -152h-80zM331 924h107v-10l-145 -152h-80z" />
    <glyph glyph-name="uhungarumlaut" unicode="&#x171;" horiz-adv-x="583" 
d="M291 62q45 0 80.5 18t57.5 47v391h84v-518h-84v42q-26 -24 -63.5 -39t-85.5 -15q-100 0 -157.5 59.5t-57.5 177.5v293h84v-295q0 -85 35.5 -123t106.5 -38zM439 750h107v-10l-145 -152h-80zM275 750h107v-10l-145 -152h-80z" />
    <glyph glyph-name="Uogonek" unicode="&#x172;" horiz-adv-x="715" 
d="M635 273q0 -127 -57.5 -196t-159.5 -84q-30 -30 -44.5 -53t-14.5 -48q0 -22 11 -32.5t31 -10.5q23 0 40 5v-65q-27 -8 -58 -8q-54 0 -81 26t-27 71q0 26 13 55t42 56q-56 4 -102 23.5t-79 54.5t-51 86.5t-18 119.5v427h88v-422q0 -99 44.5 -154.5t145.5 -55.5
q100 0 144.5 55.5t44.5 154.5v422h88v-427z" />
    <glyph glyph-name="uogonek" unicode="&#x173;" horiz-adv-x="583" 
d="M429 0v42q-26 -24 -63.5 -39t-85.5 -15q-100 0 -157.5 59.5t-57.5 177.5v293h84v-295q0 -85 35.5 -123t106.5 -38q45 0 80.5 18t57.5 47v391h84v-518q-34 -33 -50.5 -57.5t-16.5 -50.5q0 -22 11 -32.5t31 -10.5q23 0 40 5v-65q-27 -8 -58 -8q-54 0 -81 26t-27 71
q0 28 16 60.5t52 61.5h-1z" />
    <glyph glyph-name="Wcircumflex" unicode="&#x174;" horiz-adv-x="996" 
d="M551 700l149 -597l181 597h95l-215 -700h-118l-145 587l-145 -587h-118l-215 700h95l181 -597l149 597h106zM667 762h-80l-89 98l-89 -98h-80l123 162h92z" />
    <glyph glyph-name="wcircumflex" unicode="&#x175;" horiz-adv-x="788" 
d="M432 518l124 -412l126 412h91l-177 -518h-80l-122 402l-122 -402h-80l-177 518h91l126 -412l124 412h76zM563 588h-80l-89 98l-89 -98h-80l123 162h92z" />
    <glyph glyph-name="Ycircumflex" unicode="&#x176;" horiz-adv-x="662" 
d="M375 277v-277h-88v277l-267 423h102l209 -339l209 339h102zM500 762h-80l-89 98l-89 -98h-80l123 162h92z" />
    <glyph glyph-name="ycircumflex" unicode="&#x177;" horiz-adv-x="529" 
d="M15 518h89l166 -417l155 417h89l-273 -711h-87l73 193zM433 588h-80l-89 98l-89 -98h-80l123 162h92z" />
    <glyph glyph-name="Ydieresis" unicode="&#x178;" horiz-adv-x="662" 
d="M375 277v-277h-88v277l-267 423h102l209 -339l209 339h102zM177 843q0 53 53 53t53 -53t-53 -53t-53 53zM379 843q0 53 53 53t53 -53t-53 -53t-53 53z" />
    <glyph glyph-name="Zacute" unicode="&#x179;" horiz-adv-x="562" 
d="M421 622h-376v78h477v-88l-391 -534h401v-78h-502v88zM334 924h107v-10l-145 -152h-80z" />
    <glyph glyph-name="zacute" unicode="&#x17a;" horiz-adv-x="469" 
d="M25 82l314 364h-301v72h396v-82l-314 -365h324v-71h-419v82zM286 750h107v-10l-145 -152h-80z" />
    <glyph glyph-name="Zdotaccent" unicode="&#x17b;" horiz-adv-x="562" 
d="M421 622h-376v78h477v-88l-391 -534h401v-78h-502v88zM223 843q0 53 53 53t53 -53t-53 -53t-53 53z" />
    <glyph glyph-name="zdotaccent" unicode="&#x17c;" horiz-adv-x="469" 
d="M25 82l314 364h-301v72h396v-82l-314 -365h324v-71h-419v82zM176 669q0 53 53 53t53 -53t-53 -53t-53 53z" />
    <glyph glyph-name="Zcaron" unicode="&#x17d;" horiz-adv-x="562" 
d="M421 622h-376v78h477v-88l-391 -534h401v-78h-502v88zM327 762h-92l-123 162h80l89 -98l89 98h80z" />
    <glyph glyph-name="zcaron" unicode="&#x17e;" horiz-adv-x="469" 
d="M25 82l314 364h-301v72h396v-82l-314 -365h324v-71h-419v82zM280 588h-92l-123 162h80l89 -98l89 98h80z" />
    <glyph glyph-name="longs" unicode="&#x17f;" horiz-adv-x="353" 
d="M203 0h-84v446h-109v72h109v30q0 90 43 136t129 46q18 0 37 -2t35 -7l-9 -74q-11 5 -26.5 7t-29.5 2q-51 0 -73 -26t-22 -91v-539z" />
    <glyph glyph-name="uni0191" unicode="&#x191;" horiz-adv-x="536" 
d="M80 700h436v-78h-348v-219h323v-78h-323v-343q0 -90 -43 -136t-129 -46q-18 0 -37 2t-35 7l10 81q12 -5 26.5 -7.5t28.5 -2.5q49 0 70 23t21 88v709z" />
    <glyph glyph-name="florin" unicode="&#x192;" horiz-adv-x="353" 
d="M119 446h-109v72h109v30q0 90 43 136t129 46q35 0 72 -8l-9 -75q-24 9 -56 9q-51 0 -73 -26t-22 -91v-21h145v-72h-145v-464q0 -90 -43 -136t-129 -46q-18 0 -37 2t-35 7l9 75q12 -5 27 -7.5t29 -2.5q51 0 73 26t22 91v455z" />
    <glyph glyph-name="Aringacute" unicode="&#x1fa;" horiz-adv-x="646" 
d="M429 741q0 -26 -11 -47.5t-31 -35.5l254 -658h-97l-66 181h-310l-66 -181h-97l253 658q-19 14 -30 35.5t-11 47.5q0 22 8 41t22.5 33t33.5 22t42 8q22 0 41.5 -8t34 -22t22.5 -33t8 -41zM196 259h254l-127 354zM334 980h107v-10l-93 -102h-80zM280 741q0 -20 12 -32.5
t31 -12.5t31 12.5t12 32.5t-12 32.5t-31 12.5t-31 -12.5t-12 -32.5z" />
    <glyph glyph-name="aringacute" unicode="&#x1fb;" horiz-adv-x="541" 
d="M281 908h107v-10l-93 -102h-80zM376 669q0 -22 -8 -41t-22.5 -33t-34 -22t-41.5 -8q-23 0 -42 8t-33.5 22t-22.5 33t-8 41t8 41t22.5 33t33.5 22t42 8q22 0 41.5 -8t34 -22t22.5 -33t8 -41zM227 669q0 -20 12 -32.5t31 -12.5t31 12.5t12 32.5t-12 32.5t-31 12.5
t-31 -12.5t-12 -32.5zM235 -12q-43 0 -79.5 10.5t-63.5 31t-42 51t-15 71.5q0 79 59 125.5t168 46.5h130v36q0 54 -31.5 75t-101.5 21q-42 0 -88 -10.5t-82 -30.5l-9 75q37 18 84.5 29t96.5 11q52 0 92 -10t67.5 -32.5t41.5 -59t14 -89.5v-339h-84v40q-27 -26 -67.5 -39
t-89.5 -13zM243 62q48 0 87.5 16t61.5 48v126h-126q-75 0 -110 -26.5t-35 -71.5q0 -48 34 -70t88 -22z" />
    <glyph glyph-name="AEacute" unicode="&#x1fc;" horiz-adv-x="849" 
d="M104 0h-99l363 700h432v-78h-294v-222h269v-78h-269v-244h303v-78h-391v181h-222zM418 618l-183 -359h183v359zM620 924h107v-10l-145 -152h-80z" />
    <glyph glyph-name="aeacute" unicode="&#x1fd;" horiz-adv-x="850" 
d="M453 225q5 -74 45.5 -118.5t118.5 -44.5q42 0 77 10.5t70 38.5l9 -81q-31 -21 -71 -31.5t-87 -10.5q-63 0 -115.5 27t-81.5 79q-29 -50 -79 -78t-114 -28q-86 0 -138 42.5t-52 123.5q0 79 54 127t163 48h120v11q0 60 -29.5 88t-101.5 28q-41 0 -80 -9t-72 -25l-9 75
q35 16 79.5 24.5t90.5 8.5q134 0 173 -89q26 42 69 65.5t98 23.5q56 0 98.5 -20t70.5 -56.5t42 -87t14 -110.5v-15.5t-1 -15.5h-361zM223 62q109 0 149 104v89h-116q-75 0 -105 -27t-30 -72q0 -48 28.5 -71t73.5 -23zM728 297q-5 73 -38.5 116t-99.5 43t-99 -43t-38 -116
h275zM479 750h107v-10l-145 -152h-80z" />
    <glyph glyph-name="Oslashacute" unicode="&#x1fe;" horiz-adv-x="715" 
d="M566 630q51 -50 77.5 -122t26.5 -158q0 -76 -21 -142t-61 -115t-98 -77t-132 -28q-78 0 -140 31l-67 -119h-82l90 159q-56 49 -85 124.5t-29 166.5q0 76 21 142t61 115t98 77t133 28q44 0 81.5 -10t69.5 -28l72 126h82zM135 350q0 -69 17.5 -123.5t50.5 -91.5l265 467
q-23 14 -50.5 22t-59.5 8q-51 0 -92 -19.5t-70.5 -56.5t-45 -89t-15.5 -117zM580 350q0 63 -15 114.5t-43 87.5l-263 -461q44 -23 99 -23q51 0 92 19.5t70 56.5t44.5 89t15.5 117zM405 924h107v-10l-145 -152h-80z" />
    <glyph glyph-name="oslashacute" unicode="&#x1ff;" horiz-adv-x="580" 
d="M117 -110h-80l90 155q-42 37 -64.5 92t-22.5 122q0 58 17.5 108t50 86t78.5 56.5t104 20.5q57 0 104 -21l69 119h80l-90 -156q42 -36 64.5 -91t22.5 -122q0 -59 -17.5 -108.5t-50 -85.5t-78.5 -56.5t-104 -20.5q-57 0 -105 20zM126 259q0 -92 42 -143l188 327
q-31 13 -66 13q-78 0 -121 -53t-43 -144zM290 62q78 0 121 53t43 144q0 89 -42 142l-189 -327q30 -12 67 -12zM338 750h107v-10l-145 -152h-80z" />
    <glyph glyph-name="Scommaaccent" unicode="&#x218;" horiz-adv-x="542" 
d="M451 593q-37 21 -80 30t-83 9q-76 0 -112 -27t-36 -72q0 -43 33 -73t106 -56q58 -20 99.5 -41.5t67.5 -48t38.5 -58.5t12.5 -72q0 -94 -65.5 -145t-186.5 -51q-107 0 -191 46l8 92q41 -29 90 -43.5t100 -14.5q76 0 115.5 29t39.5 82q0 48 -33.5 82t-118.5 61
q-104 33 -154.5 83t-50.5 128q0 83 63 131t178 48q41 0 86 -7.5t81 -23.5zM230 -92q0 51 51 51q53 0 53 -57q0 -51 -18.5 -91t-56.5 -66l-20 30q17 14 28 37t11 45q-48 2 -48 51z" />
    <glyph glyph-name="scommaaccent" unicode="&#x219;" horiz-adv-x="466" 
d="M217 -12q-48 0 -92.5 12t-79.5 33l7 84q32 -26 74 -40.5t91 -14.5q61 0 89.5 19.5t28.5 57.5q0 16 -5 29t-18.5 24t-36 20.5t-56.5 18.5q-86 22 -128 59.5t-42 96.5q0 69 53.5 106t141.5 37q39 0 78.5 -7t71.5 -21l-8 -80q-29 17 -65.5 25.5t-74.5 8.5q-57 0 -84 -17
t-27 -46q0 -30 27 -52t94 -39q88 -23 126.5 -61t38.5 -96q0 -76 -54.5 -116.5t-149.5 -40.5zM190 -92q0 51 51 51q53 0 53 -57q0 -51 -18.5 -91t-56.5 -66l-20 30q17 14 28 37t11 45q-48 2 -48 51z" />
    <glyph glyph-name="uni021A" unicode="&#x21a;" horiz-adv-x="544" 
d="M228 622h-218v78h524v-78h-218v-622h-88v622zM220 -92q0 51 51 51q53 0 53 -57q0 -51 -18.5 -91t-56.5 -66l-20 30q17 14 28 37t11 45q-48 2 -48 51z" />
    <glyph glyph-name="uni021B" unicode="&#x21b;" horiz-adv-x="374" 
d="M15 518h93v155h84v-155h157v-72h-157v-248q0 -43 5.5 -69.5t17 -41.5t29.5 -20t43 -5q24 0 50 6l10 -74q-17 -3 -35.5 -4.5t-32.5 -1.5q-84 0 -127.5 42.5t-43.5 134.5v281h-93v72zM175 -92q0 51 51 51q53 0 53 -57q0 -51 -18.5 -91t-56.5 -66l-20 30q17 14 28 37t11 45
q-48 2 -48 51z" />
    <glyph glyph-name="dotlessj" unicode="&#x237;" horiz-adv-x="237" 
d="M83 518h84v-540q0 -91 -39.5 -134.5t-127.5 -43.5q-33 0 -60 8l8 71q9 -3 21.5 -5t23.5 -2q47 0 68.5 23t21.5 76v547z" />
    <glyph glyph-name="apostrophe" unicode="&#x2bc;" horiz-adv-x="400" 
d="M140 691q0 59 57 59q32 0 47 -16t15 -56q0 -57 -26.5 -105t-73.5 -73l-20 30q24 20 38 47t16 55q-31 2 -42 19t-11 40z" />
    <glyph glyph-name="circumflex" unicode="&#x2c6;" horiz-adv-x="400" 
d="M369 568h-80l-89 98l-89 -98h-80l123 162h92z" />
    <glyph glyph-name="caron" unicode="&#x2c7;" horiz-adv-x="400" 
d="M246 568h-92l-123 162h80l89 -98l89 98h80z" />
    <glyph glyph-name="uni02C9" unicode="&#x2c9;" horiz-adv-x="400" 
d="M54 685h292v-72h-292v72z" />
    <glyph glyph-name="breve" unicode="&#x2d8;" horiz-adv-x="400" 
d="M200 573q-34 0 -63 9.5t-51 28.5t-34.5 47.5t-13.5 66.5h75q2 -42 25.5 -64.5t61.5 -22.5t61.5 22.5t25.5 64.5h75q-1 -38 -13.5 -66.5t-34.5 -47.5t-51 -28.5t-63 -9.5z" />
    <glyph glyph-name="dotaccent" unicode="&#x2d9;" horiz-adv-x="400" 
d="M147 649q0 53 53 53t53 -53t-53 -53t-53 53z" />
    <glyph glyph-name="ring" unicode="&#x2da;" horiz-adv-x="400" 
d="M306 649q0 -22 -8 -41t-22.5 -33t-34 -22t-41.5 -8q-23 0 -42 8t-33.5 22t-22.5 33t-8 41t8 41t22.5 33t33.5 22t42 8q22 0 41.5 -8t34 -22t22.5 -33t8 -41zM157 649q0 -20 12 -32.5t31 -12.5t31 12.5t12 32.5t-12 32.5t-31 12.5t-31 -12.5t-12 -32.5z" />
    <glyph glyph-name="ogonek" unicode="&#x2db;" horiz-adv-x="400" 
d="M273 0q-34 -33 -50.5 -57.5t-16.5 -50.5q0 -22 11 -32.5t31 -10.5q23 0 40 5v-65q-27 -8 -58 -8q-54 0 -81 26t-27 71q0 28 16 60.5t52 61.5h83z" />
    <glyph glyph-name="tilde" unicode="&#x2dc;" horiz-adv-x="400" 
d="M274 583q-21 0 -41 11t-38 23.5t-33.5 23.5t-27.5 11t-18 -12.5t-6 -54.5h-72q0 73 24 102.5t64 29.5q21 0 41 -11t38 -23.5t33.5 -23.5t27.5 -11t18 12.5t6 54.5h72q0 -73 -24 -102.5t-64 -29.5z" />
    <glyph glyph-name="hungarumlaut" unicode="&#x2dd;" horiz-adv-x="400" 
d="M287 730h107v-10l-145 -152h-80zM123 730h107v-10l-145 -152h-80z" />
    <glyph glyph-name="gravecomb" unicode="&#x300;" horiz-adv-x="0" 
d="M-179 568h-80l-145 152v10h107z" />
    <glyph glyph-name="acutecomb" unicode="&#x301;" horiz-adv-x="0" 
d="M-206 730h107v-10l-145 -152h-80z" />
    <glyph glyph-name="uni0302" unicode="&#x302;" horiz-adv-x="0" 
d="M-83 568h-80l-89 98l-89 -98h-80l123 162h92z" />
    <glyph glyph-name="tildecomb" unicode="&#x303;" horiz-adv-x="0" 
d="M-178 583q-21 0 -41 11t-38 23.5t-33.5 23.5t-27.5 11t-18 -12.5t-6 -54.5h-72q0 73 24 102.5t64 29.5q21 0 41 -11t38 -23.5t33.5 -23.5t27.5 -11t18 12.5t6 54.5h72q0 -73 -24 -102.5t-64 -29.5z" />
    <glyph glyph-name="uni0304" unicode="&#x304;" horiz-adv-x="0" 
d="M-395 685h292v-72h-292v72z" />
    <glyph glyph-name="uni0306" unicode="&#x306;" horiz-adv-x="0" 
d="M-252 573q-34 0 -63 9.5t-51 28.5t-34.5 47.5t-13.5 66.5h75q2 -42 25.5 -64.5t61.5 -22.5t61.5 22.5t25.5 64.5h75q-1 -38 -13.5 -66.5t-34.5 -47.5t-51 -28.5t-63 -9.5z" />
    <glyph glyph-name="uni0307" unicode="&#x307;" horiz-adv-x="0" 
d="M-305 649q0 53 53 53t53 -53t-53 -53t-53 53z" />
    <glyph glyph-name="uni0308" unicode="&#x308;" horiz-adv-x="0" 
d="M-406 649q0 53 53 53t53 -53t-53 -53t-53 53zM-204 649q0 53 53 53t53 -53t-53 -53t-53 53z" />
    <glyph glyph-name="uni030A" unicode="&#x30a;" horiz-adv-x="0" 
d="M-146 649q0 -22 -8 -41t-22.5 -33t-34 -22t-41.5 -8q-23 0 -42 8t-33.5 22t-22.5 33t-8 41t8 41t22.5 33t33.5 22t42 8q22 0 41.5 -8t34 -22t22.5 -33t8 -41zM-295 649q0 -20 12 -32.5t31 -12.5t31 12.5t12 32.5t-12 32.5t-31 12.5t-31 -12.5t-12 -32.5z" />
    <glyph glyph-name="uni030C" unicode="&#x30c;" horiz-adv-x="0" 
d="M-206 568h-92l-123 162h80l89 -98l89 98h80z" />
    <glyph glyph-name="uni0327" unicode="&#x327;" horiz-adv-x="0" 
d="M-341 -180q18 -7 48 -7q29 0 47 10.5t18 34.5q0 26 -27.5 41t-69.5 15l45 86h75l-30 -56q35 -9 56.5 -31.5t21.5 -54.5q0 -46 -30 -71t-102 -25q-27 0 -52 5v53z" />
    <glyph glyph-name="tonos" unicode="&#x384;" horiz-adv-x="400" 
d="M206 730h100v-10l-101 -168h-75z" />
    <glyph glyph-name="dieresistonos" unicode="&#x385;" horiz-adv-x="400" 
d="M248 762h107v-10l-131 -132h-80zM43 549q0 53 53 53t53 -53t-53 -53t-53 53zM245 549q0 53 53 53t53 -53t-53 -53t-53 53z" />
    <glyph glyph-name="Alphatonos" unicode="&#x386;" horiz-adv-x="646" 
d="M371 700l270 -700h-97l-66 181h-310l-66 -181h-97l270 700h96zM196 259h254l-127 349zM101 701h100v-10l-101 -168h-75z" />
    <glyph glyph-name="anoteleia" unicode="&#x387;" horiz-adv-x="290" 
d="M86 332q0 59 59 59t59 -59t-59 -59t-59 59z" />
    <glyph glyph-name="Epsilontonos" unicode="&#x388;" horiz-adv-x="664" 
d="M179 700h436v-78h-348v-222h323v-78h-323v-244h357v-78h-445v700zM47 701h100v-10l-101 -168h-75z" />
    <glyph glyph-name="Etatonos" unicode="&#x389;" horiz-adv-x="801" 
d="M179 700h88v-289h366v289h88v-700h-88v333h-366v-333h-88v700zM47 701h100v-10l-101 -168h-75z" />
    <glyph glyph-name="Iotatonos" unicode="&#x38a;" horiz-adv-x="352" 
d="M267 700v-700h-88v700h88zM47 701h100v-10l-101 -168h-75z" />
    <glyph glyph-name="Omicrontonos" unicode="&#x38c;" horiz-adv-x="761" 
d="M716 350q0 -76 -21 -142t-61 -115t-98 -77t-132 -28q-75 0 -133 28t-98 77t-61 115t-21 142t21 142t61 115t98 77t133 28q74 0 132 -28t98 -77t61 -115t21 -142zM181 350q0 -65 15.5 -117t45 -89t70.5 -56.5t92 -19.5t92 19.5t70 56.5t44.5 89t15.5 117t-15.5 117
t-44.5 89t-70 56.5t-92 19.5t-92 -19.5t-70.5 -56.5t-45 -89t-15.5 -117zM47 701h100v-10l-101 -168h-75z" />
    <glyph glyph-name="Upsilontonos" unicode="&#x38e;" horiz-adv-x="809" 
d="M522 277v-277h-88v277l-267 423h102l209 -339l209 339h102zM47 701h100v-10l-101 -168h-75z" />
    <glyph glyph-name="Omegatonos" unicode="&#x38f;" horiz-adv-x="764" 
d="M406 712q75 0 133.5 -26.5t98 -73t60.5 -108.5t21 -134q0 -100 -37.5 -171.5t-99.5 -120.5h128v-78h-242v78q78 54 119.5 125t41.5 167q0 52 -15 99.5t-43.5 83.5t-70 57.5t-94.5 21.5t-94.5 -21.5t-70 -57.5t-43.5 -83.5t-15 -99.5q0 -96 41.5 -167t119.5 -125v-78h-242
v78h128q-62 49 -99.5 120.5t-37.5 171.5q0 72 21 134t60.5 108.5t98 73t133.5 26.5zM47 701h100v-10l-101 -168h-75z" />
    <glyph glyph-name="iotadieresistonos" unicode="&#x390;" horiz-adv-x="319" 
d="M70 518h84v-320q0 -43 5.5 -69.5t17 -41.5t29.5 -20t43 -5q24 0 50 6l10 -74q-17 -3 -35.5 -4.5t-32.5 -1.5q-84 0 -127.5 42.5t-43.5 134.5v353zM164 834h107v-10l-131 -132h-80zM-41 621q0 53 53 53t53 -53t-53 -53t-53 53zM161 621q0 53 53 53t53 -53t-53 -53t-53 53z
" />
    <glyph glyph-name="Alpha" unicode="&#x391;" horiz-adv-x="646" 
d="M371 700l270 -700h-97l-66 181h-310l-66 -181h-97l270 700h96zM196 259h254l-127 349z" />
    <glyph glyph-name="Beta" unicode="&#x392;" horiz-adv-x="625" 
d="M80 700h240q55 0 98 -14t72.5 -39t45 -58.5t15.5 -73.5q0 -48 -24 -85.5t-65 -57.5q60 -23 91.5 -67t31.5 -104q0 -95 -65.5 -148t-185.5 -53h-254v700zM308 402q75 0 115 30.5t40 82.5q0 56 -40 81.5t-115 25.5h-140v-220h140zM497 201q0 59 -42.5 91t-133.5 32h-153
v-246h153q91 0 133.5 31.5t42.5 91.5z" />
    <glyph glyph-name="Gamma" unicode="&#x393;" horiz-adv-x="528" 
d="M80 700h438v-78h-350v-622h-88v700z" />
    <glyph glyph-name="uni0394" unicode="&#x394;" horiz-adv-x="646" 
d="M5 0l270 700h96l270 -700h-636zM515 78l-192 530l-192 -530h384z" />
    <glyph glyph-name="Epsilon" unicode="&#x395;" horiz-adv-x="565" 
d="M80 700h436v-78h-348v-222h323v-78h-323v-244h357v-78h-445v700z" />
    <glyph glyph-name="Zeta" unicode="&#x396;" horiz-adv-x="562" 
d="M421 622h-376v78h477v-88l-391 -534h401v-78h-502v88z" />
    <glyph glyph-name="Eta" unicode="&#x397;" horiz-adv-x="702" 
d="M80 700h88v-289h366v289h88v-700h-88v333h-366v-333h-88v700z" />
    <glyph glyph-name="Theta" unicode="&#x398;" horiz-adv-x="715" 
d="M233 311v78h249v-78h-249zM670 350q0 -76 -21 -142t-61 -115t-98 -77t-132 -28q-75 0 -133 28t-98 77t-61 115t-21 142t21 142t61 115t98 77t133 28q74 0 132 -28t98 -77t61 -115t21 -142zM135 350q0 -65 15.5 -117t45 -89t70.5 -56.5t92 -19.5t92 19.5t70 56.5t44.5 89
t15.5 117t-15.5 117t-44.5 89t-70 56.5t-92 19.5t-92 -19.5t-70.5 -56.5t-45 -89t-15.5 -117z" />
    <glyph glyph-name="Iota" unicode="&#x399;" horiz-adv-x="258" 
d="M173 700v-700h-88v700h88z" />
    <glyph glyph-name="Kappa" unicode="&#x39a;" horiz-adv-x="607" 
d="M574 700l-313 -328l361 -372h-118l-336 354v-354h-88v700h88v-310l296 310h110z" />
    <glyph glyph-name="Lambda" unicode="&#x39b;" horiz-adv-x="646" 
d="M102 0h-97l270 700h96l270 -700h-97l-221 608z" />
    <glyph glyph-name="Mu" unicode="&#x39c;" horiz-adv-x="846" 
d="M386 232l-222 340v-572h-84v700h94l249 -385l249 385h94v-700h-84v572l-222 -340h-74z" />
    <glyph glyph-name="Nu" unicode="&#x39d;" horiz-adv-x="708" 
d="M80 700h105l359 -591v591h84v-700h-105l-359 591v-591h-84v700z" />
    <glyph glyph-name="Xi" unicode="&#x39e;" horiz-adv-x="558" 
d="M523 622h-488v78h488v-78zM473 314h-388v78h388v-78zM523 0h-488v78h488v-78z" />
    <glyph glyph-name="Omicron" unicode="&#x39f;" horiz-adv-x="715" 
d="M670 350q0 -76 -21 -142t-61 -115t-98 -77t-132 -28q-75 0 -133 28t-98 77t-61 115t-21 142t21 142t61 115t98 77t133 28q74 0 132 -28t98 -77t61 -115t21 -142zM135 350q0 -65 15.5 -117t45 -89t70.5 -56.5t92 -19.5t92 19.5t70 56.5t44.5 89t15.5 117t-15.5 117
t-44.5 89t-70 56.5t-92 19.5t-92 -19.5t-70.5 -56.5t-45 -89t-15.5 -117z" />
    <glyph glyph-name="Pi" unicode="&#x3a0;" horiz-adv-x="698" 
d="M618 0h-88v622h-362v-622h-88v700h538v-700z" />
    <glyph glyph-name="Rho" unicode="&#x3a1;" horiz-adv-x="593" 
d="M558 482q0 -53 -19 -93.5t-53 -68t-82.5 -42t-106.5 -14.5h-129v-264h-88v700h217q58 0 106.5 -14.5t82.5 -42t53 -68.5t19 -93zM468 482q0 72 -43.5 106t-134.5 34h-122v-280h122q91 0 134.5 34t43.5 106z" />
    <glyph glyph-name="Sigma" unicode="&#x3a3;" horiz-adv-x="536" 
d="M238 372l-208 240v88h486v-78h-382l201 -232v-38l-201 -274h382v-78h-486v89z" />
    <glyph glyph-name="Tau" unicode="&#x3a4;" horiz-adv-x="544" 
d="M228 622h-218v78h524v-78h-218v-622h-88v622z" />
    <glyph glyph-name="Upsilon" unicode="&#x3a5;" horiz-adv-x="662" 
d="M375 277v-277h-88v277l-267 423h102l209 -339l209 339h102z" />
    <glyph glyph-name="Phi" unicode="&#x3a6;" horiz-adv-x="716" 
d="M314 0v104q-62 3 -112.5 21t-86.5 49.5t-55.5 76t-19.5 99.5t19.5 99.5t55.5 76t86.5 49.5t112.5 21v104h88v-104q61 -3 111.5 -21t86.5 -49.5t56 -76t20 -99.5t-20 -99.5t-56 -76t-86.5 -49.5t-111.5 -21v-104h-88zM402 184q82 3 133 45.5t51 120.5t-51 120.5t-133 45.5
v-332zM314 516q-82 -3 -133 -45.5t-51 -120.5t51 -120.5t133 -45.5v332z" />
    <glyph glyph-name="Chi" unicode="&#x3a7;" horiz-adv-x="668" 
d="M25 700h102l207 -278l207 278h102l-257 -344l267 -356h-102l-217 290l-217 -290h-102l267 356z" />
    <glyph glyph-name="Psi" unicode="&#x3a8;" horiz-adv-x="695" 
d="M304 155q-53 6 -96 26.5t-73.5 55.5t-47.5 85t-17 116v262h88v-257q0 -88 34 -141.5t112 -65.5v464h87v-464q78 12 112 65.5t34 141.5v257h88v-262q0 -66 -17 -116t-47.5 -85t-74 -55.5t-95.5 -26.5v-155h-87v155z" />
    <glyph glyph-name="uni03A9" unicode="&#x3a9;" horiz-adv-x="716" 
d="M358 712q75 0 133.5 -26.5t98 -73t60.5 -108.5t21 -134q0 -100 -37.5 -171.5t-99.5 -120.5h128v-78h-242v78q78 54 119.5 125t41.5 167q0 52 -15 99.5t-43.5 83.5t-70 57.5t-94.5 21.5t-94.5 -21.5t-70 -57.5t-43.5 -83.5t-15 -99.5q0 -96 41.5 -167t119.5 -125v-78h-242
v78h128q-62 49 -99.5 120.5t-37.5 171.5q0 72 21 134t60.5 108.5t98 73t133.5 26.5z" />
    <glyph glyph-name="Iotadieresis" unicode="&#x3aa;" horiz-adv-x="258" 
d="M173 700v-700h-88v700h88zM-24 843q0 53 53 53t53 -53t-53 -53t-53 53zM178 843q0 53 53 53t53 -53t-53 -53t-53 53z" />
    <glyph glyph-name="Upsilondieresis" unicode="&#x3ab;" horiz-adv-x="662" 
d="M375 277v-277h-88v277l-267 423h102l209 -339l209 339h102zM177 843q0 53 53 53t53 -53t-53 -53t-53 53zM379 843q0 53 53 53t53 -53t-53 -53t-53 53z" />
    <glyph glyph-name="alphatonos" unicode="&#x3ac;" horiz-adv-x="618" 
d="M483 224q12 -48 22 -78t20.5 -46.5t20.5 -22t22 -5.5h25v-72h-34q-38 0 -70.5 29.5t-49.5 98.5q-33 -76 -83 -108t-109 -32q-94 0 -150.5 70t-56.5 201q0 59 15 109t42.5 86t67 56t88.5 20q31 0 59.5 -8t53 -26t45.5 -48.5t36 -75.5l48 146h83zM247 62q25 0 46 8t40 29.5
t37.5 58.5t38.5 95q-14 66 -32 106t-38.5 61.5t-42.5 28.5t-43 7q-30 0 -54 -15.5t-40 -42.5t-24.5 -63t-8.5 -76q0 -93 33 -145t88 -52zM367 750h107v-10l-145 -152h-80z" />
    <glyph glyph-name="epsilontonos" unicode="&#x3ad;" horiz-adv-x="484" 
d="M362 237q-116 0 -171 -27.5t-55 -73.5q0 -32 37 -53t117 -21q39 0 80.5 6.5t76.5 22.5l7 -80q-38 -12 -80.5 -17.5t-88.5 -5.5q-49 0 -91.5 8.5t-74.5 26.5t-50.5 45.5t-18.5 65.5q0 51 37.5 86.5t101.5 49.5q-26 4 -50 13t-43 24.5t-30 37t-11 49.5q0 68 57.5 102
t168.5 34q88 0 160 -21l-7 -79q-32 13 -71 19.5t-82 6.5q-77 0 -108.5 -16t-31.5 -47q0 -44 60.5 -64t160.5 -20v-72zM297 750h107v-10l-145 -152h-80z" />
    <glyph glyph-name="etatonos" unicode="&#x3ae;" horiz-adv-x="583" 
d="M292 456q-44 0 -80.5 -18t-57.5 -47v-391h-84v518h84v-39q26 22 65 36.5t84 14.5q100 0 157.5 -59.5t57.5 -177.5v-486h-84v488q0 85 -35.5 123t-106.5 38zM337 750h107v-10l-145 -152h-80z" />
    <glyph glyph-name="iotatonos" unicode="&#x3af;" horiz-adv-x="319" 
d="M70 518h84v-320q0 -43 5.5 -69.5t17 -41.5t29.5 -20t43 -5q24 0 50 6l10 -74q-17 -3 -35.5 -4.5t-32.5 -1.5q-84 0 -127.5 42.5t-43.5 134.5v353zM179 750h107v-10l-145 -152h-80z" />
    <glyph glyph-name="upsilondieresistonos" unicode="&#x3b0;" horiz-adv-x="553" 
d="M85 366q0 45 -9 64.5t-36 19.5q-5 0 -11.5 -1t-11.5 -3l-7 72q19 7 45 7q61 0 87.5 -36t26.5 -117v-145q0 -85 30 -125t96 -40q64 0 98 41t34 123q0 73 -16.5 148t-52.5 144h91q30 -63 47 -138.5t17 -151.5q0 -115 -56 -177.5t-162 -62.5q-103 0 -156.5 57.5t-53.5 166.5
v154zM300 834h107v-10l-131 -132h-80zM95 621q0 53 53 53t53 -53t-53 -53t-53 53zM297 621q0 53 53 53t53 -53t-53 -53t-53 53z" />
    <glyph glyph-name="alpha" unicode="&#x3b1;" horiz-adv-x="618" 
d="M483 224q12 -48 22 -78t20.5 -46.5t20.5 -22t22 -5.5h25v-72h-34q-38 0 -70.5 29.5t-49.5 98.5q-33 -76 -83 -108t-109 -32q-94 0 -150.5 70t-56.5 201q0 59 15 109t42.5 86t67 56t88.5 20q31 0 59.5 -8t53 -26t45.5 -48.5t36 -75.5l48 146h83zM247 62q25 0 46 8t40 29.5
t37.5 58.5t38.5 95q-14 66 -32 106t-38.5 61.5t-42.5 28.5t-43 7q-30 0 -54 -15.5t-40 -42.5t-24.5 -63t-8.5 -76q0 -93 33 -145t88 -52z" />
    <glyph glyph-name="beta" unicode="&#x3b2;" horiz-adv-x="539" 
d="M244 417q33 0 59.5 10.5t45 29.5t28.5 45t10 57q0 47 -30 78t-87 31t-86.5 -39t-29.5 -111v-711h-84v696q0 118 52 178.5t146 60.5q48 0 86 -14t64.5 -38.5t40.5 -57.5t14 -71q0 -68 -28.5 -111.5t-83.5 -66.5q31 -11 56.5 -31t43.5 -46t28 -57.5t10 -65.5
q0 -43 -12 -78.5t-36 -61.5t-60 -40.5t-84 -14.5q-35 0 -65 7t-54 21l8 83q21 -17 49.5 -27t56.5 -10q57 0 84 29t27 92q0 33 -14 62.5t-37 51.5t-53.5 35t-64.5 13v72z" />
    <glyph glyph-name="gamma" unicode="&#x3b3;" horiz-adv-x="548" 
d="M274 -200q-55 0 -91 32.5t-36 85.5q0 15 3.5 33t13 42t25.5 55t40 73l-214 397h92l167 -318l167 318h92l-214 -397l24 -43q31 -56 44.5 -92.5t13.5 -67.5q0 -53 -36 -85.5t-91 -32.5zM315 -77q0 24 -10.5 53t-30.5 67q-20 -38 -30.5 -67t-10.5 -53q0 -29 12 -39t29 -10
t29 10t12 39z" />
    <glyph glyph-name="delta" unicode="&#x3b4;" horiz-adv-x="580" 
d="M405 517q40 -31 66 -61t41.5 -61t21.5 -64.5t6 -71.5q0 -59 -17.5 -108.5t-50 -85.5t-78.5 -56.5t-104 -20.5t-104 20.5t-78.5 56.5t-50 85.5t-17.5 108.5q0 53 15 99.5t43 82t68.5 58t92.5 28.5l-171 131v72h389v-72h-251zM126 259q0 -91 43 -144t121 -53t121 53t43 144
t-43 144t-121 53t-121 -53t-43 -144z" />
    <glyph glyph-name="epsilon" unicode="&#x3b5;" horiz-adv-x="484" 
d="M362 237q-116 0 -171 -27.5t-55 -73.5q0 -32 37 -53t117 -21q39 0 80.5 6.5t76.5 22.5l7 -80q-38 -12 -80.5 -17.5t-88.5 -5.5q-49 0 -91.5 8.5t-74.5 26.5t-50.5 45.5t-18.5 65.5q0 51 37.5 86.5t101.5 49.5q-26 4 -50 13t-43 24.5t-30 37t-11 49.5q0 68 57.5 102
t168.5 34q88 0 160 -21l-7 -79q-32 13 -71 19.5t-82 6.5q-77 0 -108.5 -16t-31.5 -47q0 -44 60.5 -64t160.5 -20v-72z" />
    <glyph glyph-name="zeta" unicode="&#x3b6;" horiz-adv-x="429" 
d="M407 648q-142 -92 -211.5 -199t-69.5 -222q0 -41 17 -67t59 -46q37 -17 74.5 -28t74.5 -19q38 -8 53 -25.5t15 -41.5q0 -17 -5.5 -32.5t-16.5 -35.5l-70 -125h-94l90 156q6 10 6 17q0 10 -17 15q-42 8 -84 21t-78 31q-110 54 -110 176q0 124 69 232t200 203h-217v72h315
v-82z" />
    <glyph glyph-name="eta" unicode="&#x3b7;" horiz-adv-x="583" 
d="M292 456q-44 0 -80.5 -18t-57.5 -47v-391h-84v518h84v-39q26 22 65 36.5t84 14.5q100 0 157.5 -59.5t57.5 -177.5v-486h-84v488q0 85 -35.5 123t-106.5 38z" />
    <glyph glyph-name="theta" unicode="&#x3b8;" horiz-adv-x="586" 
d="M40 365q0 84 15 153.5t45.5 119t78.5 77t114 27.5t114 -27.5t78.5 -77t45.5 -119t15 -153.5t-15 -153.5t-45.5 -119t-78.5 -77t-114 -27.5t-114 27.5t-78.5 77t-45.5 119t-15 153.5zM293 668q-80 0 -120.5 -68.5t-45.5 -198.5h332q-5 130 -45.5 198.5t-120.5 68.5z
M293 62q80 0 120.5 68.5t45.5 198.5h-332q5 -130 45.5 -198.5t120.5 -68.5z" />
    <glyph glyph-name="iota" unicode="&#x3b9;" horiz-adv-x="319" 
d="M70 518h84v-320q0 -43 5.5 -69.5t17 -41.5t29.5 -20t43 -5q24 0 50 6l10 -74q-17 -3 -35.5 -4.5t-32.5 -1.5q-84 0 -127.5 42.5t-43.5 134.5v353z" />
    <glyph glyph-name="kappa" unicode="&#x3ba;" horiz-adv-x="522" 
d="M443 449q-16 0 -31 -10t-36 -31l-136 -138l272 -270h-110l-248 250v-250h-84v518h84v-229l172 176q29 29 54.5 43.5t57.5 14.5q16 0 32 -2t27 -6l-9 -75q-21 9 -45 9z" />
    <glyph glyph-name="lambda" unicode="&#x3bb;" horiz-adv-x="509" 
d="M120 730h87l297 -730h-87l-159 389l-164 -389h-89l211 494z" />
    <glyph glyph-name="uni03BC" unicode="&#x3bc;" horiz-adv-x="610" 
d="M295 -12q-42 0 -79.5 14.5t-63.5 42.5v-238h-82v711h84v-383q23 -35 60.5 -53t80.5 -18t79.5 18t59.5 53v383h84v-406q0 -32 8.5 -43.5t28.5 -11.5q22 0 38 8l7 -69q-11 -6 -27 -8.5t-33 -2.5q-42 0 -66.5 17t-32.5 48q-29 -32 -66.5 -47t-79.5 -15z" />
    <glyph glyph-name="nu" unicode="&#x3bd;" horiz-adv-x="543" 
d="M219 0l-204 518h90l164 -425q65 81 106.5 189.5t47.5 235.5h90q-11 -151 -61.5 -280.5t-142.5 -237.5h-90z" />
    <glyph glyph-name="xi" unicode="&#x3be;" horiz-adv-x="435" 
d="M213 1q-77 26 -120 75.5t-43 133.5q0 69 37.5 122t99.5 81q-50 17 -81 56.5t-31 96.5q0 35 13.5 65t40.5 52t68 34.5t97 12.5h65v-71h-56q-41 0 -68 -7t-43.5 -19.5t-23.5 -29.5t-7 -37q0 -46 37.5 -75.5t105.5 -29.5h49v-72q-48 0 -88 -13t-68.5 -36t-44.5 -56.5
t-16 -73.5q0 -47 23 -79.5t89 -54.5q56 -19 109 -29q32 -6 50 -21.5t18 -41.5q0 -17 -4.5 -32.5t-15.5 -34.5l-62 -110h-94l78 132q10 17 7 24.5t-19 10.5q-23 5 -50.5 12t-51.5 15z" />
    <glyph glyph-name="omicron" unicode="&#x3bf;" horiz-adv-x="580" 
d="M40 259q0 58 17.5 108t50 86t78.5 56.5t104 20.5t104 -20.5t78.5 -56.5t50 -86t17.5 -108q0 -59 -17.5 -108.5t-50 -85.5t-78.5 -56.5t-104 -20.5t-104 20.5t-78.5 56.5t-50 85.5t-17.5 108.5zM126 259q0 -91 43 -144t121 -53t121 53t43 144t-43 144t-121 53t-121 -53
t-43 -144z" />
    <glyph glyph-name="pi" unicode="&#x3c0;" horiz-adv-x="618" 
d="M15 518h575v-72h-142v-248q0 -43 5.5 -69.5t16 -41.5t26.5 -20t37 -5q24 0 50 6l10 -74q-17 -3 -35.5 -4.5t-32.5 -1.5q-71 0 -116 42.5t-45 134.5v281h-131q0 -137 -19 -248.5t-68 -207.5l-83 33q52 90 69 195t17 228h-134v72z" />
    <glyph glyph-name="rho" unicode="&#x3c1;" horiz-adv-x="575" 
d="M65 296q0 112 60.5 173t168.5 61q51 0 95 -18.5t76.5 -54t51 -85.5t18.5 -113t-18.5 -113t-51 -85.5t-76.5 -54t-95 -18.5q-44 0 -81.5 13.5t-63.5 36.5v-231h-84v489zM149 127q23 -32 58.5 -48.5t78.5 -16.5q35 0 65 12.5t51.5 37t34 61.5t12.5 86t-12.5 85.5t-34 61.5
t-51.5 37.5t-65 12.5q-64 0 -100.5 -40t-36.5 -105v-184z" />
    <glyph glyph-name="sigma1" unicode="&#x3c2;" horiz-adv-x="473" 
d="M319 62q144 -9 144 -121q0 -60 -43 -90t-121 -30v70q48 0 67.5 12t19.5 35q0 20 -16.5 34t-52.5 16q-64 3 -115.5 22.5t-87.5 54t-55 83.5t-19 111q0 61 20 111.5t56 85.5t85 54.5t106 19.5q40 0 79 -6.5t72 -22.5l-8 -80q-29 18 -66 26.5t-75 8.5q-83 0 -133 -51.5
t-50 -145.5t49 -142.5t144 -54.5z" />
    <glyph glyph-name="sigma" unicode="&#x3c3;" horiz-adv-x="583" 
d="M40 253q0 57 17.5 105.5t50 84t78.5 55.5t104 20h283v-72h-115q42 -37 62 -85.5t20 -107.5q0 -57 -17.5 -105.5t-50 -84t-78.5 -55.5t-104 -20t-104 20t-78.5 55.5t-50 84t-17.5 105.5zM126 253q0 -43 11 -78.5t32 -60.5t51.5 -38.5t69.5 -13.5t69.5 13.5t51.5 38.5
t32 60.5t11 78.5t-11 78.5t-32 60.5t-51.5 38.5t-69.5 13.5t-69.5 -13.5t-51.5 -38.5t-32 -60.5t-11 -78.5z" />
    <glyph glyph-name="tau" unicode="&#x3c4;" horiz-adv-x="466" 
d="M15 518h426v-72h-179v-248q0 -43 5.5 -69.5t17 -41.5t29.5 -20t43 -5q24 0 50 6l10 -74q-17 -3 -35.5 -4.5t-32.5 -1.5q-84 0 -127.5 42.5t-43.5 134.5v281h-163v72z" />
    <glyph glyph-name="upsilon" unicode="&#x3c5;" horiz-adv-x="553" 
d="M85 366q0 45 -9 64.5t-36 19.5q-5 0 -11.5 -1t-11.5 -3l-7 72q19 7 45 7q61 0 87.5 -36t26.5 -117v-145q0 -85 30 -125t96 -40q64 0 98 41t34 123q0 73 -16.5 148t-52.5 144h91q30 -63 47 -138.5t17 -151.5q0 -115 -56 -177.5t-162 -62.5q-103 0 -156.5 57.5t-53.5 166.5
v154z" />
    <glyph glyph-name="phi" unicode="&#x3c6;" horiz-adv-x="660" 
d="M282 -193v177q-113 12 -177.5 79t-64.5 191q0 69 26.5 141t79.5 136l65 -42q-41 -50 -65 -113.5t-24 -126.5q0 -85 42 -134t118 -57v291q0 89 38.5 135t113.5 46q40 0 74 -18.5t59 -53t39 -84.5t14 -112q0 -129 -66.5 -198t-187.5 -80v-177h-84zM366 58q39 2 71 14.5
t54.5 37t34.5 61.5t12 90q0 100 -29 147.5t-75 47.5q-34 0 -51 -26t-17 -87v-285z" />
    <glyph glyph-name="chi" unicode="&#x3c7;" horiz-adv-x="528" 
d="M412 518h92l-192 -346l206 -365h-98l-156 280l-156 -280h-98l206 365l-192 346h92l148 -262z" />
    <glyph glyph-name="psi" unicode="&#x3c8;" horiz-adv-x="662" 
d="M289 -10q-106 11 -165 73.5t-59 171.5v283h84v-285q0 -74 36.5 -116t103.5 -52v453h84v-453q66 10 103 52t37 116v285h84v-283q0 -109 -59 -171.5t-165 -73.5v-183h-84v183z" />
    <glyph glyph-name="omega" unicode="&#x3c9;" horiz-adv-x="762" 
d="M381 148q-17 -81 -54.5 -120.5t-100.5 -39.5q-41 0 -73.5 21t-55 60.5t-35 96t-12.5 127.5q0 61 6.5 118t21.5 114l87 -7q-16 -50 -22.5 -106.5t-6.5 -114.5q0 -63 7.5 -108t20 -73t29.5 -41t37 -13q52 0 80.5 87t28.5 279h84q0 -192 28 -279t81 -87q19 0 36.5 13t30 41
t20 73t7.5 108q0 58 -6.5 114.5t-22.5 106.5l87 7q15 -57 21.5 -114t6.5 -118q0 -71 -12.5 -127.5t-35 -96t-55.5 -60.5t-73 -21q-63 0 -100.5 39.5t-54.5 120.5z" />
    <glyph glyph-name="iotadieresis" unicode="&#x3ca;" horiz-adv-x="319" 
d="M70 518h84v-320q0 -43 5.5 -69.5t17 -41.5t29.5 -20t43 -5q24 0 50 6l10 -74q-17 -3 -35.5 -4.5t-32.5 -1.5q-84 0 -127.5 42.5t-43.5 134.5v353zM-40 669q0 53 53 53t53 -53t-53 -53t-53 53zM162 669q0 53 53 53t53 -53t-53 -53t-53 53z" />
    <glyph glyph-name="upsilondieresis" unicode="&#x3cb;" horiz-adv-x="553" 
d="M85 366q0 45 -9 64.5t-36 19.5q-5 0 -11.5 -1t-11.5 -3l-7 72q19 7 45 7q61 0 87.5 -36t26.5 -117v-145q0 -85 30 -125t96 -40q64 0 98 41t34 123q0 73 -16.5 148t-52.5 144h91q30 -63 47 -138.5t17 -151.5q0 -115 -56 -177.5t-162 -62.5q-103 0 -156.5 57.5t-53.5 166.5
v154zM95 669q0 53 53 53t53 -53t-53 -53t-53 53zM297 669q0 53 53 53t53 -53t-53 -53t-53 53z" />
    <glyph glyph-name="omicrontonos" unicode="&#x3cc;" horiz-adv-x="580" 
d="M40 259q0 58 17.5 108t50 86t78.5 56.5t104 20.5t104 -20.5t78.5 -56.5t50 -86t17.5 -108q0 -59 -17.5 -108.5t-50 -85.5t-78.5 -56.5t-104 -20.5t-104 20.5t-78.5 56.5t-50 85.5t-17.5 108.5zM126 259q0 -91 43 -144t121 -53t121 53t43 144t-43 144t-121 53t-121 -53
t-43 -144zM338 750h107v-10l-145 -152h-80z" />
    <glyph glyph-name="upsilontonos" unicode="&#x3cd;" horiz-adv-x="553" 
d="M85 366q0 45 -9 64.5t-36 19.5q-5 0 -11.5 -1t-11.5 -3l-7 72q19 7 45 7q61 0 87.5 -36t26.5 -117v-145q0 -85 30 -125t96 -40q64 0 98 41t34 123q0 73 -16.5 148t-52.5 144h91q30 -63 47 -138.5t17 -151.5q0 -115 -56 -177.5t-162 -62.5q-103 0 -156.5 57.5t-53.5 166.5
v154zM309 750h107v-10l-145 -152h-80z" />
    <glyph glyph-name="omegatonos" unicode="&#x3ce;" horiz-adv-x="762" 
d="M381 148q-17 -81 -54.5 -120.5t-100.5 -39.5q-41 0 -73.5 21t-55 60.5t-35 96t-12.5 127.5q0 61 6.5 118t21.5 114l87 -7q-16 -50 -22.5 -106.5t-6.5 -114.5q0 -63 7.5 -108t20 -73t29.5 -41t37 -13q52 0 80.5 87t28.5 279h84q0 -192 28 -279t81 -87q19 0 36.5 13t30 41
t20 73t7.5 108q0 58 -6.5 114.5t-22.5 106.5l87 7q15 -57 21.5 -114t6.5 -118q0 -71 -12.5 -127.5t-35 -96t-55.5 -60.5t-73 -21q-63 0 -100.5 39.5t-54.5 120.5zM439 750h107v-10l-145 -152h-80z" />
    <glyph glyph-name="uni0400" unicode="&#x400;" horiz-adv-x="565" 
d="M80 700h436v-78h-348v-222h323v-78h-323v-244h357v-78h-445v700zM368 762h-80l-145 152v10h107z" />
    <glyph glyph-name="afii10023" unicode="&#x401;" horiz-adv-x="565" 
d="M80 700h436v-78h-348v-222h323v-78h-323v-244h357v-78h-445v700zM144 843q0 53 53 53t53 -53t-53 -53t-53 53zM346 843q0 53 53 53t53 -53t-53 -53t-53 53z" />
    <glyph glyph-name="afii10051" unicode="&#x402;" horiz-adv-x="714" 
d="M228 622h-218v78h524v-78h-218v-213h124q112 0 173 -54t61 -162q0 -98 -52.5 -151.5t-143.5 -53.5q-46 0 -80 12v84q32 -16 78 -16q49 0 78.5 32.5t29.5 91.5q0 75 -35 107t-111 32h-122v-331h-88v622z" />
    <glyph glyph-name="afii10052" unicode="&#x403;" horiz-adv-x="528" 
d="M80 700h438v-78h-350v-622h-88v700zM343 924h107v-10l-145 -152h-80z" />
    <glyph glyph-name="afii10053" unicode="&#x404;" horiz-adv-x="611" 
d="M45 350q0 79 25.5 145.5t72.5 114.5t113.5 75t148.5 27q92 0 162 -29l-8 -88q-33 19 -70.5 28t-78.5 9q-60 0 -108 -18t-83 -50.5t-55.5 -77t-26.5 -97.5h381v-78h-381q6 -56 27.5 -101t57 -76.5t84 -48.5t108.5 -17q38 0 76.5 9.5t72.5 29.5l8 -89q-38 -17 -79 -23.5
t-83 -6.5q-84 0 -151 26.5t-114.5 74t-73 114t-25.5 147.5z" />
    <glyph glyph-name="afii10054" unicode="&#x405;" horiz-adv-x="542" 
d="M451 593q-37 21 -80 30t-83 9q-76 0 -112 -27t-36 -72q0 -43 33 -73t106 -56q58 -20 99.5 -41.5t67.5 -48t38.5 -58.5t12.5 -72q0 -94 -65.5 -145t-186.5 -51q-107 0 -191 46l8 92q41 -29 90 -43.5t100 -14.5q76 0 115.5 29t39.5 82q0 48 -33.5 82t-118.5 61
q-104 33 -154.5 83t-50.5 128q0 83 63 131t178 48q41 0 86 -7.5t81 -23.5z" />
    <glyph glyph-name="afii10055" unicode="&#x406;" horiz-adv-x="258" 
d="M173 700v-700h-88v700h88z" />
    <glyph glyph-name="afii10056" unicode="&#x407;" horiz-adv-x="258" 
d="M173 700v-700h-88v700h88zM-24 843q0 53 53 53t53 -53t-53 -53t-53 53zM178 843q0 53 53 53t53 -53t-53 -53t-53 53z" />
    <glyph glyph-name="afii10057" unicode="&#x408;" horiz-adv-x="445" 
d="M277 700h88v-471q0 -123 -54 -182t-155 -59q-41 0 -77.5 7t-68.5 24l7 87q56 -38 137 -38q59 0 91 37.5t32 123.5v471z" />
    <glyph glyph-name="afii10058" unicode="&#x409;" horiz-adv-x="949" 
d="M172 700h392v-290h108q52 0 95.5 -13.5t75 -40t49 -64.5t17.5 -87t-17.5 -87t-49 -64.5t-75 -40t-95.5 -13.5h-196v622h-216v-457q0 -93 -48.5 -135t-135.5 -42q-14 0 -31.5 1.5t-34.5 4.5l8 77q12 -3 25.5 -4t24.5 -1q58 0 81 28t23 96v510zM819 205q0 66 -41.5 96.5
t-115.5 30.5h-98v-254h98q74 0 115.5 30.5t41.5 96.5z" />
    <glyph glyph-name="afii10059" unicode="&#x40a;" horiz-adv-x="987" 
d="M602 700v-290h108q52 0 95.5 -13.5t75 -40t49 -64.5t17.5 -87t-17.5 -87t-49 -64.5t-75 -40t-95.5 -13.5h-196v333h-346v-333h-88v700h88v-289h346v289h88zM857 205q0 66 -41.5 96.5t-115.5 30.5h-98v-254h98q74 0 115.5 30.5t41.5 96.5z" />
    <glyph glyph-name="afii10060" unicode="&#x40b;" horiz-adv-x="783" 
d="M474 384q-45 0 -88 -15t-70 -38v-331h-88v622h-218v78h524v-78h-218v-205q33 19 76 31t91 12q53 0 96.5 -14.5t74 -44t47.5 -74t17 -104.5v-223h-88v223q0 45 -10 76t-29.5 50t-48.5 27t-68 8z" />
    <glyph glyph-name="afii10061" unicode="&#x40c;" horiz-adv-x="607" 
d="M574 700l-313 -328l361 -372h-118l-336 354v-354h-88v700h88v-310l296 310h110zM350 924h107v-10l-145 -152h-80z" />
    <glyph glyph-name="uni040D" unicode="&#x40d;" horiz-adv-x="708" 
d="M628 0h-84v591l-359 -591h-105v700h84v-591l359 591h105v-700zM402 762h-80l-145 152v10h107z" />
    <glyph glyph-name="afii10062" unicode="&#x40e;" horiz-adv-x="609" 
d="M499 700h95l-330 -700h-94l98 209l-253 491h95l202 -398zM299 765q-34 0 -63 9.5t-51 28.5t-34.5 47.5t-13.5 66.5h75q2 -42 25.5 -64.5t61.5 -22.5t61.5 22.5t25.5 64.5h75q-1 -38 -13.5 -66.5t-34.5 -47.5t-51 -28.5t-63 -9.5z" />
    <glyph glyph-name="afii10145" unicode="&#x40f;" horiz-adv-x="698" 
d="M530 78v622h88v-700h-225v-164h-88v164h-225v700h88v-622h362z" />
    <glyph glyph-name="afii10017" unicode="&#x410;" horiz-adv-x="646" 
d="M371 700l270 -700h-97l-66 181h-310l-66 -181h-97l270 700h96zM196 259h254l-127 349z" />
    <glyph glyph-name="afii10018" unicode="&#x411;" horiz-adv-x="578" 
d="M486 700v-78h-318v-182h128q55 0 98.5 -16t74.5 -45t47.5 -69.5t16.5 -89.5t-16.5 -89.5t-47.5 -69.5t-74.5 -45t-98.5 -16h-216v700h406zM443 220q0 66 -38.5 104t-118.5 38h-118v-284h118q80 0 118.5 38t38.5 104z" />
    <glyph glyph-name="afii10019" unicode="&#x412;" horiz-adv-x="625" 
d="M80 700h240q55 0 98 -14t72.5 -39t45 -58.5t15.5 -73.5q0 -48 -24 -85.5t-65 -57.5q60 -23 91.5 -67t31.5 -104q0 -95 -65.5 -148t-185.5 -53h-254v700zM308 402q75 0 115 30.5t40 82.5q0 56 -40 81.5t-115 25.5h-140v-220h140zM497 201q0 59 -42.5 91t-133.5 32h-153
v-246h153q91 0 133.5 31.5t42.5 91.5z" />
    <glyph glyph-name="afii10020" unicode="&#x413;" horiz-adv-x="528" 
d="M80 700h438v-78h-350v-622h-88v700z" />
    <glyph glyph-name="afii10021" unicode="&#x414;" horiz-adv-x="621" 
d="M601 -100h-88v100h-415v-100h-88v178h50q75 129 121 288.5t51 333.5h290v-622h79v-178zM434 78v544h-120q-10 -143 -48.5 -281t-101.5 -263h270z" />
    <glyph glyph-name="afii10022" unicode="&#x415;" horiz-adv-x="565" 
d="M80 700h436v-78h-348v-222h323v-78h-323v-244h357v-78h-445v700z" />
    <glyph glyph-name="afii10024" unicode="&#x416;" horiz-adv-x="796" 
d="M141 700l213 -310v310h88v-310l213 310h98l-222 -328l270 -372h-106l-253 354v-354h-88v354l-253 -354h-106l270 372l-222 328h98z" />
    <glyph glyph-name="afii10025" unicode="&#x417;" horiz-adv-x="537" 
d="M142 406q56 0 102.5 8t80.5 24t52.5 39.5t18.5 53.5q0 49 -44 75t-129 26q-93 0 -164 -38l-9 88q35 14 83 22t99 8q57 0 103.5 -12t80 -34t52 -54t18.5 -71q0 -72 -39.5 -113.5t-105.5 -61.5q72 -20 111.5 -65.5t39.5 -120.5q0 -46 -21 -81.5t-57.5 -60t-84.5 -37.5
t-102 -13q-49 0 -97.5 6.5t-94.5 23.5l8 87q42 -20 86.5 -28.5t92.5 -8.5q36 0 68.5 7.5t57.5 22.5t39.5 37t14.5 52q0 36 -20 62t-55 43.5t-82.5 25.5t-102.5 8v80z" />
    <glyph glyph-name="afii10026" unicode="&#x418;" horiz-adv-x="708" 
d="M628 0h-84v591l-359 -591h-105v700h84v-591l359 591h105v-700z" />
    <glyph glyph-name="afii10027" unicode="&#x419;" horiz-adv-x="708" 
d="M628 0h-84v591l-359 -591h-105v700h84v-591l359 591h105v-700zM355 765q-34 0 -63 9.5t-51 28.5t-34.5 47.5t-13.5 66.5h75q2 -42 25.5 -64.5t61.5 -22.5t61.5 22.5t25.5 64.5h75q-1 -38 -13.5 -66.5t-34.5 -47.5t-51 -28.5t-63 -9.5z" />
    <glyph glyph-name="afii10028" unicode="&#x41a;" horiz-adv-x="607" 
d="M574 700l-313 -328l361 -372h-118l-336 354v-354h-88v700h88v-310l296 310h110z" />
    <glyph glyph-name="afii10029" unicode="&#x41b;" horiz-adv-x="698" 
d="M260 167q0 -93 -48.5 -136t-135.5 -43q-14 0 -31.5 2.5t-34.5 5.5l8 77q12 -3 25.5 -4t24.5 -1q58 0 81 28t23 96v508h446v-700h-88v622h-270v-455z" />
    <glyph glyph-name="afii10030" unicode="&#x41c;" horiz-adv-x="846" 
d="M386 232l-222 340v-572h-84v700h94l249 -385l249 385h94v-700h-84v572l-222 -340h-74z" />
    <glyph glyph-name="afii10031" unicode="&#x41d;" horiz-adv-x="702" 
d="M80 700h88v-289h366v289h88v-700h-88v333h-366v-333h-88v700z" />
    <glyph glyph-name="afii10032" unicode="&#x41e;" horiz-adv-x="715" 
d="M670 350q0 -76 -21 -142t-61 -115t-98 -77t-132 -28q-75 0 -133 28t-98 77t-61 115t-21 142t21 142t61 115t98 77t133 28q74 0 132 -28t98 -77t61 -115t21 -142zM135 350q0 -65 15.5 -117t45 -89t70.5 -56.5t92 -19.5t92 19.5t70 56.5t44.5 89t15.5 117t-15.5 117
t-44.5 89t-70 56.5t-92 19.5t-92 -19.5t-70.5 -56.5t-45 -89t-15.5 -117z" />
    <glyph glyph-name="afii10033" unicode="&#x41f;" horiz-adv-x="698" 
d="M618 0h-88v622h-362v-622h-88v700h538v-700z" />
    <glyph glyph-name="afii10034" unicode="&#x420;" horiz-adv-x="593" 
d="M558 482q0 -53 -19 -93.5t-53 -68t-82.5 -42t-106.5 -14.5h-129v-264h-88v700h217q58 0 106.5 -14.5t82.5 -42t53 -68.5t19 -93zM468 482q0 72 -43.5 106t-134.5 34h-122v-280h122q91 0 134.5 34t43.5 106z" />
    <glyph glyph-name="afii10035" unicode="&#x421;" horiz-adv-x="611" 
d="M45 350q0 79 25.5 145.5t72.5 114.5t113.5 75t148.5 27q92 0 162 -29l-8 -88q-33 19 -70.5 28t-78.5 9q-65 0 -116.5 -21.5t-86.5 -59t-53.5 -89t-18.5 -112.5q0 -64 19.5 -116t55.5 -89t87.5 -57t116.5 -20q38 0 76.5 9.5t72.5 29.5l8 -89q-38 -17 -79 -23.5t-83 -6.5
q-84 0 -151 26.5t-114.5 74t-73 114t-25.5 147.5z" />
    <glyph glyph-name="afii10036" unicode="&#x422;" horiz-adv-x="544" 
d="M228 622h-218v78h524v-78h-218v-622h-88v622z" />
    <glyph glyph-name="afii10037" unicode="&#x423;" horiz-adv-x="609" 
d="M499 700h95l-330 -700h-94l98 209l-253 491h95l202 -398z" />
    <glyph glyph-name="afii10038" unicode="&#x424;" horiz-adv-x="716" 
d="M314 0v104q-62 3 -112.5 21t-86.5 49.5t-55.5 76t-19.5 99.5t19.5 99.5t55.5 76t86.5 49.5t112.5 21v104h88v-104q61 -3 111.5 -21t86.5 -49.5t56 -76t20 -99.5t-20 -99.5t-56 -76t-86.5 -49.5t-111.5 -21v-104h-88zM402 184q82 3 133 45.5t51 120.5t-51 120.5t-133 45.5
v-332zM314 516q-82 -3 -133 -45.5t-51 -120.5t51 -120.5t133 -45.5v332z" />
    <glyph glyph-name="afii10039" unicode="&#x425;" horiz-adv-x="668" 
d="M25 700h102l207 -278l207 278h102l-257 -344l267 -356h-102l-217 290l-217 -290h-102l267 356z" />
    <glyph glyph-name="afii10040" unicode="&#x426;" horiz-adv-x="716" 
d="M530 78v622h88v-621h78v-193h-78v114h-538v700h88v-622h362z" />
    <glyph glyph-name="afii10041" unicode="&#x427;" horiz-adv-x="652" 
d="M299 278q52 0 102.5 17t82.5 48v357h88v-700h-88v253q-37 -24 -88.5 -38.5t-107.5 -14.5q-104 0 -161 59.5t-57 177.5v263h88v-261q0 -85 32.5 -123t108.5 -38z" />
    <glyph glyph-name="afii10042" unicode="&#x428;" horiz-adv-x="832" 
d="M372 78v622h88v-622h204v622h88v-700h-672v700h88v-622h204z" />
    <glyph glyph-name="afii10043" unicode="&#x429;" horiz-adv-x="850" 
d="M372 78v622h88v-622h204v622h88v-621h78v-193h-78v114h-672v700h88v-622h204z" />
    <glyph glyph-name="afii10044" unicode="&#x42a;" horiz-adv-x="668" 
d="M263 700v-260h128q55 0 98.5 -16t74.5 -45t47.5 -69.5t16.5 -89.5t-16.5 -89.5t-47.5 -69.5t-74.5 -45t-98.5 -16h-216v622h-165v78h253zM538 220q0 66 -38.5 104t-118.5 38h-118v-284h118q80 0 118.5 38t38.5 104z" />
    <glyph glyph-name="afii10045" unicode="&#x42b;" horiz-adv-x="789" 
d="M168 700v-260h128q55 0 98.5 -16t74.5 -45t47.5 -69.5t16.5 -89.5t-16.5 -89.5t-47.5 -69.5t-74.5 -45t-98.5 -16h-216v700h88zM443 220q0 66 -38.5 104t-118.5 38h-118v-284h118q80 0 118.5 38t38.5 104zM709 700v-700h-88v700h88z" />
    <glyph glyph-name="afii10046" unicode="&#x42c;" horiz-adv-x="573" 
d="M168 700v-260h128q55 0 98.5 -16t74.5 -45t47.5 -69.5t16.5 -89.5t-16.5 -89.5t-47.5 -69.5t-74.5 -45t-98.5 -16h-216v700h88zM443 220q0 66 -38.5 104t-118.5 38h-118v-284h118q80 0 118.5 38t38.5 104z" />
    <glyph glyph-name="afii10047" unicode="&#x42d;" horiz-adv-x="611" 
d="M566 350q0 -81 -25.5 -147.5t-73 -114t-114.5 -74t-151 -26.5q-42 0 -83 6.5t-79 23.5l8 89q34 -20 72.5 -29.5t76.5 -9.5q59 0 107.5 17t84.5 48.5t57.5 76.5t27.5 101h-381v78h381q-6 53 -27 97.5t-55.5 77t-82.5 50.5t-108 18q-41 0 -78.5 -9t-70.5 -28l-8 88
q70 29 162 29q82 0 148.5 -27t113.5 -75t72.5 -114.5t25.5 -145.5z" />
    <glyph glyph-name="afii10048" unicode="&#x42e;" horiz-adv-x="835" 
d="M168 700v-311h107q4 69 21.5 128t50 102.5t78.5 68t107 24.5q65 0 113.5 -28t80.5 -76.5t48 -115t16 -142.5q0 -77 -16 -143t-48 -114.5t-80.5 -76.5t-113.5 -28q-61 0 -107 24.5t-78.5 67.5t-50 102.5t-21.5 128.5h-107v-311h-88v700h88zM366 350q0 -66 10.5 -118
t31.5 -88.5t52 -56t72 -19.5q82 0 124 75.5t42 206.5t-42 206.5t-124 75.5q-41 0 -72 -19.5t-52 -56t-31.5 -88.5t-10.5 -118z" />
    <glyph glyph-name="afii10049" unicode="&#x42f;" horiz-adv-x="619" 
d="M53 496q0 50 19.5 88.5t53.5 64t80.5 38.5t99.5 13h233v-700h-88v292h-151l-189 -292h-101l199 304q-70 20 -113 67.5t-43 124.5zM143 496q0 -126 169 -126h139v252h-139q-169 0 -169 -126z" />
    <glyph glyph-name="afii10065" unicode="&#x430;" horiz-adv-x="541" 
d="M235 -12q-43 0 -79.5 10.5t-63.5 31t-42 51t-15 71.5q0 79 59 125.5t168 46.5h130v36q0 54 -31.5 75t-101.5 21q-42 0 -88 -10.5t-82 -30.5l-9 75q37 18 84.5 29t96.5 11q52 0 92 -10t67.5 -32.5t41.5 -59t14 -89.5v-339h-84v40q-27 -26 -67.5 -39t-89.5 -13zM243 62
q48 0 87.5 16t61.5 48v126h-126q-75 0 -110 -26.5t-35 -71.5q0 -48 34 -70t88 -22z" />
    <glyph glyph-name="afii10066" unicode="&#x431;" horiz-adv-x="550" 
d="M286 496q51 0 92 -17t70.5 -49.5t45.5 -79.5t16 -108t-17 -108t-47 -79.5t-71 -49.5t-89 -17q-61 0 -107 23.5t-77 67t-46.5 106t-15.5 139.5q0 98 22.5 171.5t75.5 124.5t140 81t217 41l7 -76q-95 -8 -160.5 -25.5t-108.5 -45t-66.5 -66.5t-33.5 -88q28 26 67.5 40.5
t85.5 14.5zM124 325q0 -72 12 -122t33.5 -81.5t51.5 -45.5t65 -14q65 0 101.5 49t36.5 131t-36.5 131t-101.5 49q-48 0 -90 -19t-72 -57v-21z" />
    <glyph glyph-name="afii10067" unicode="&#x432;" horiz-adv-x="517" 
d="M70 0v518h153q106 0 166.5 -32t60.5 -99q0 -81 -85 -112q48 -11 80 -43.5t32 -83.5q0 -72 -63 -110t-178 -38h-166zM364 376q0 40 -35 55t-113 15h-68v-141h68q78 0 113 15.5t35 55.5zM391 153q0 39 -38 60t-129 21h-76v-162h76q91 0 129 21t38 60z" />
    <glyph glyph-name="afii10068" unicode="&#x433;" horiz-adv-x="438" 
d="M154 446v-446h-84v518h358v-72h-274z" />
    <glyph glyph-name="afii10069" unicode="&#x434;" horiz-adv-x="561" 
d="M541 -100h-84v100h-363v-100h-84v172h49q63 101 99 210.5t45 235.5h259v-446h79v-172zM378 72v374h-101q-11 -100 -43 -194.5t-81 -179.5h225z" />
    <glyph glyph-name="afii10070" unicode="&#x435;" horiz-adv-x="544" 
d="M127 225q5 -74 50.5 -118.5t123.5 -44.5q46 0 84.5 10.5t72.5 38.5l9 -81q-32 -20 -74.5 -31t-93.5 -11q-64 0 -112.5 21t-81 57.5t-49 86t-16.5 107.5q0 61 16.5 110.5t47 85t74 55t96.5 19.5q56 0 100 -20t74 -56.5t45.5 -87t15.5 -110.5v-15.5t-1 -15.5h-381zM422 297
q-5 73 -43.5 116t-104.5 43t-104 -43t-43 -116h295z" />
    <glyph glyph-name="afii10072" unicode="&#x436;" horiz-adv-x="710" 
d="M397 518v-229l187 229h100l-206 -248l227 -270h-102l-206 250v-250h-84v250l-206 -250h-102l227 270l-206 248h100l187 -229v229h84z" />
    <glyph glyph-name="afii10073" unicode="&#x437;" horiz-adv-x="484" 
d="M122 309q100 0 160.5 20t60.5 64q0 31 -31.5 47t-108.5 16q-43 0 -82 -6.5t-71 -19.5l-7 79q72 21 160 21q111 0 168.5 -34t57.5 -102q0 -28 -11 -49.5t-30 -37t-43 -24.5t-50 -13q64 -14 101.5 -49.5t37.5 -86.5q0 -38 -18.5 -65.5t-50.5 -45.5t-74.5 -26.5t-91.5 -8.5
q-46 0 -88.5 5.5t-80.5 17.5l7 80q35 -16 76.5 -22.5t80.5 -6.5q80 0 117 21t37 53q0 46 -55 73.5t-171 27.5v72z" />
    <glyph glyph-name="afii10074" unicode="&#x438;" horiz-adv-x="602" 
d="M448 0v401l-283 -401h-95v518h84v-404l283 404h95v-518h-84z" />
    <glyph glyph-name="afii10075" unicode="&#x439;" horiz-adv-x="602" 
d="M448 0v401l-283 -401h-95v518h84v-404l283 404h95v-518h-84zM301 593q-34 0 -63 9.5t-51 28.5t-34.5 47.5t-13.5 66.5h75q2 -42 25.5 -64.5t61.5 -22.5t61.5 22.5t25.5 64.5h75q-1 -38 -13.5 -66.5t-34.5 -47.5t-51 -28.5t-63 -9.5z" />
    <glyph glyph-name="afii10076" unicode="&#x43a;" horiz-adv-x="517" 
d="M154 518v-229l229 229h108l-251 -248l272 -270h-110l-248 250v-250h-84v518h84z" />
    <glyph glyph-name="afii10077" unicode="&#x43b;" horiz-adv-x="585" 
d="M256 169q0 -91 -45.5 -136t-129.5 -45q-14 0 -34 1.5t-37 4.5l8 72q12 -3 25.5 -4t24.5 -1q28 0 47.5 6t32 20.5t18.5 40t6 64.5v326h343v-518h-84v446h-175v-277z" />
    <glyph glyph-name="afii10078" unicode="&#x43c;" horiz-adv-x="698" 
d="M70 0v518h84l195 -260l195 260h84v-518h-84v393l-169 -220h-52l-169 221v-394h-84z" />
    <glyph glyph-name="afii10079" unicode="&#x43d;" horiz-adv-x="584" 
d="M430 318v200h84v-518h-84v246h-276v-246h-84v518h84v-200h276z" />
    <glyph glyph-name="afii10080" unicode="&#x43e;" horiz-adv-x="580" 
d="M40 259q0 58 17.5 108t50 86t78.5 56.5t104 20.5t104 -20.5t78.5 -56.5t50 -86t17.5 -108q0 -59 -17.5 -108.5t-50 -85.5t-78.5 -56.5t-104 -20.5t-104 20.5t-78.5 56.5t-50 85.5t-17.5 108.5zM126 259q0 -91 43 -144t121 -53t121 53t43 144t-43 144t-121 53t-121 -53
t-43 -144z" />
    <glyph glyph-name="afii10081" unicode="&#x43f;" horiz-adv-x="564" 
d="M154 446v-446h-84v518h424v-518h-84v446h-256z" />
    <glyph glyph-name="afii10082" unicode="&#x440;" horiz-adv-x="580" 
d="M154 478q26 24 63.5 38t81.5 14q51 0 95 -18.5t76.5 -54t51 -85.5t18.5 -113t-18.5 -113t-51 -85.5t-76.5 -54t-95 -18.5q-44 0 -81.5 14t-63.5 38v-233h-84v711h84v-40zM154 126q23 -31 59 -47.5t78 -16.5q35 0 65 12.5t51.5 37t34 61.5t12.5 86t-12.5 85.5t-34 61.5
t-51.5 37.5t-65 12.5q-42 0 -78 -16.5t-59 -47.5v-266z" />
    <glyph glyph-name="afii10083" unicode="&#x441;" horiz-adv-x="498" 
d="M126 259q0 -94 51 -145.5t139 -51.5q38 0 74 8.5t65 28.5l8 -80q-30 -16 -68.5 -23.5t-78.5 -7.5q-62 0 -113 19.5t-87 54.5t-56 85t-20 112q0 61 20 111.5t56 85.5t85 54.5t108 19.5q42 0 80.5 -7t68.5 -22l-8 -80q-27 17 -63.5 26t-74.5 9q-84 0 -135 -51.5t-51 -145.5
z" />
    <glyph glyph-name="afii10084" unicode="&#x442;" horiz-adv-x="484" 
d="M200 446h-190v72h464v-72h-190v-446h-84v446z" />
    <glyph glyph-name="afii10085" unicode="&#x443;" horiz-adv-x="529" 
d="M15 518h89l166 -417l155 417h89l-273 -711h-87l73 193z" />
    <glyph glyph-name="afii10086" unicode="&#x444;" horiz-adv-x="876" 
d="M396 38q-24 -23 -61 -36.5t-74 -13.5q-50 0 -90.5 18.5t-69.5 54t-45 85.5t-16 113t16 113t45 85.5t69.5 54t90.5 18.5q37 0 74 -13.5t61 -36.5v250h84v-250q24 23 61 36.5t74 13.5q49 0 90 -18.5t70 -54t45 -85.5t16 -113t-16 -113t-45 -85.5t-70 -54t-90 -18.5
q-37 0 -74 13.5t-61 36.5v-231h-84v231zM396 391q-23 32 -56 48.5t-71 16.5q-69 0 -106 -49.5t-37 -147.5t37 -147.5t106 -49.5q38 0 71 16.5t56 48.5v264zM480 127q23 -32 56 -48.5t71 -16.5q69 0 106 49.5t37 147.5t-37 147.5t-106 49.5q-38 0 -71 -16.5t-56 -48.5v-264z
" />
    <glyph glyph-name="afii10087" unicode="&#x445;" horiz-adv-x="516" 
d="M258 329l140 189h94l-186 -250l200 -268h-95l-153 207l-153 -207h-95l200 268l-186 250h94z" />
    <glyph glyph-name="afii10088" unicode="&#x446;" horiz-adv-x="588" 
d="M494 -104v104h-424v518h84v-446h256v446h84v-446h74v-176h-74z" />
    <glyph glyph-name="afii10089" unicode="&#x447;" horiz-adv-x="543" 
d="M261 252q39 0 72.5 12.5t55.5 35.5v218h84v-518h-84v214q-26 -17 -63 -26.5t-76 -9.5q-91 0 -143 59.5t-52 177.5v103h84v-105q0 -85 29.5 -123t92.5 -38z" />
    <glyph glyph-name="afii10090" unicode="&#x448;" horiz-adv-x="706" 
d="M552 72v446h84v-518h-566v518h84v-446h157v446h84v-446h157z" />
    <glyph glyph-name="afii10091" unicode="&#x449;" horiz-adv-x="730" 
d="M636 -104v104h-566v518h84v-446h157v446h84v-446h157v446h84v-446h74v-176h-74z" />
    <glyph glyph-name="afii10092" unicode="&#x44a;" horiz-adv-x="618" 
d="M588 167q0 -88 -66.5 -127.5t-188.5 -39.5h-183v446h-145v72h229v-184h99q122 0 188.5 -39.5t66.5 -127.5zM502 167q0 49 -37 72t-128 23h-102v-190h102q91 0 128 22.5t37 72.5z" />
    <glyph glyph-name="afii10093" unicode="&#x44b;" horiz-adv-x="749" 
d="M508 167q0 -88 -66.5 -127.5t-188.5 -39.5h-183v518h84v-184h99q122 0 188.5 -39.5t66.5 -127.5zM422 167q0 49 -37 72t-128 23h-102v-190h102q91 0 128 22.5t37 72.5zM595 518h84v-518h-84v518z" />
    <glyph glyph-name="afii10094" unicode="&#x44c;" horiz-adv-x="538" 
d="M508 167q0 -88 -66.5 -127.5t-188.5 -39.5h-183v518h84v-184h99q122 0 188.5 -39.5t66.5 -127.5zM422 167q0 49 -37 72t-128 23h-102v-190h102q91 0 128 22.5t37 72.5z" />
    <glyph glyph-name="afii10095" unicode="&#x44d;" horiz-adv-x="498" 
d="M370 295q-10 77 -59 119t-122 42q-38 0 -75 -8.5t-66 -26.5l-8 80q33 16 72 22.5t79 6.5q57 0 106 -19.5t85 -54.5t56 -85.5t20 -111.5q0 -62 -20 -112t-56 -85t-87 -54.5t-113 -19.5q-40 0 -78.5 7.5t-68.5 23.5l8 80q29 -20 65 -28.5t74 -8.5q78 0 128 42t60 119h-291
v72h291z" />
    <glyph glyph-name="afii10096" unicode="&#x44e;" horiz-adv-x="724" 
d="M70 518h84v-223h81q4 52 21.5 95t46.5 74t68.5 48.5t87.5 17.5q52 0 93.5 -20.5t71 -56.5t45 -86t15.5 -108q0 -59 -15.5 -108.5t-45 -85.5t-71 -56.5t-93.5 -20.5q-48 0 -87.5 17.5t-68.5 48.5t-46.5 74t-21.5 95h-81v-223h-84v518zM320 259q0 -90 38 -143.5t101 -53.5
t101 53.5t38 143.5t-38 143.5t-101 53.5t-101 -53.5t-38 -143.5z" />
    <glyph glyph-name="afii10097" unicode="&#x44f;" horiz-adv-x="536" 
d="M248 214l-138 -214h-100l150 227q-52 17 -81 52.5t-29 86.5q0 70 54.5 111t147.5 41h214v-518h-84v214h-134zM382 286v160h-125q-63 0 -93 -22t-30 -58t30 -58t93 -22h125z" />
    <glyph glyph-name="uni0450" unicode="&#x450;" horiz-adv-x="544" 
d="M127 225q5 -74 50.5 -118.5t123.5 -44.5q46 0 84.5 10.5t72.5 38.5l9 -81q-32 -20 -74.5 -31t-93.5 -11q-64 0 -112.5 21t-81 57.5t-49 86t-16.5 107.5q0 61 16.5 110.5t47 85t74 55t96.5 19.5q56 0 100 -20t74 -56.5t45.5 -87t15.5 -110.5v-15.5t-1 -15.5h-381zM422 297
q-5 73 -43.5 116t-104.5 43t-104 -43t-43 -116h295zM344 588h-80l-145 152v10h107z" />
    <glyph glyph-name="afii10071" unicode="&#x451;" horiz-adv-x="544" 
d="M127 225q5 -74 50.5 -118.5t123.5 -44.5q46 0 84.5 10.5t72.5 38.5l9 -81q-32 -20 -74.5 -31t-93.5 -11q-64 0 -112.5 21t-81 57.5t-49 86t-16.5 107.5q0 61 16.5 110.5t47 85t74 55t96.5 19.5q56 0 100 -20t74 -56.5t45.5 -87t15.5 -110.5v-15.5t-1 -15.5h-381zM422 297
q-5 73 -43.5 116t-104.5 43t-104 -43t-43 -116h295zM116 669q0 53 53 53t53 -53t-53 -53t-53 53zM318 669q0 53 53 53t53 -53t-53 -53t-53 53z" />
    <glyph glyph-name="afii10099" unicode="&#x452;" horiz-adv-x="588" 
d="M439 295q0 85 -35.5 123t-106.5 38q-45 0 -80.5 -18t-57.5 -47v-391h-84v593h-70v68h70v69h84v-69h202v-68h-202v-117q26 24 63.5 39t85.5 15q100 0 157.5 -59.5t57.5 -177.5v-303q0 -102 -40 -146t-113 -44q-17 0 -35 2.5t-31 6.5l8 73q14 -5 27.5 -6.5t26.5 -1.5
q38 0 55.5 23t17.5 89v309z" />
    <glyph glyph-name="afii10100" unicode="&#x453;" horiz-adv-x="438" 
d="M154 446v-446h-84v518h358v-72h-274zM290 750h107v-10l-145 -152h-80z" />
    <glyph glyph-name="afii10101" unicode="&#x454;" horiz-adv-x="498" 
d="M419 295v-72h-291q10 -77 60 -119t128 -42q38 0 74 8.5t65 28.5l8 -80q-30 -16 -68.5 -23.5t-78.5 -7.5q-62 0 -113 19.5t-87 54.5t-56 85t-20 112q0 61 20 111.5t56 85.5t85 54.5t106 19.5q40 0 79 -6.5t72 -22.5l-8 -80q-29 18 -66 26.5t-75 8.5q-73 0 -122 -42
t-59 -119h291z" />
    <glyph glyph-name="afii10102" unicode="&#x455;" horiz-adv-x="466" 
d="M217 -12q-48 0 -92.5 12t-79.5 33l7 84q32 -26 74 -40.5t91 -14.5q61 0 89.5 19.5t28.5 57.5q0 16 -5 29t-18.5 24t-36 20.5t-56.5 18.5q-86 22 -128 59.5t-42 96.5q0 69 53.5 106t141.5 37q39 0 78.5 -7t71.5 -21l-8 -80q-29 17 -65.5 25.5t-74.5 8.5q-57 0 -84 -17
t-27 -46q0 -30 27 -52t94 -39q88 -23 126.5 -61t38.5 -96q0 -76 -54.5 -116.5t-149.5 -40.5z" />
    <glyph glyph-name="afii10103" unicode="&#x456;" horiz-adv-x="234" 
d="M75 518h84v-518h-84v518zM64 677q0 53 53 53t53 -53t-53 -53t-53 53z" />
    <glyph glyph-name="afii10104" unicode="&#x457;" horiz-adv-x="234" 
d="M75 518h84v-518h-84v518zM-36 669q0 53 53 53t53 -53t-53 -53t-53 53zM166 669q0 53 53 53t53 -53t-53 -53t-53 53z" />
    <glyph glyph-name="afii10105" unicode="&#x458;" horiz-adv-x="237" 
d="M83 518h84v-540q0 -91 -39.5 -134.5t-127.5 -43.5q-33 0 -60 8l8 73q9 -3 21.5 -5t23.5 -2q47 0 68.5 23t21.5 76v545zM73 677q0 53 52 53q53 0 53 -53t-53 -53q-52 0 -52 53z" />
    <glyph glyph-name="afii10106" unicode="&#x459;" horiz-adv-x="814" 
d="M251 169q0 -91 -45.5 -136t-129.5 -45q-14 0 -34 1.5t-37 4.5l8 72q12 -3 25.5 -4t24.5 -1q28 0 47.5 6t32 20.5t18.5 40t6 64.5v326h333v-184h29q122 0 188.5 -39.5t66.5 -127.5t-66.5 -127.5t-188.5 -39.5h-113v448h-165v-279zM698 167q0 49 -37 72t-128 23h-32v-190
h32q91 0 128 22.5t37 72.5z" />
    <glyph glyph-name="afii10107" unicode="&#x45a;" horiz-adv-x="798" 
d="M768 167q0 -88 -66.5 -127.5t-188.5 -39.5h-113v246h-246v-246h-84v518h84v-200h246v200h84v-184h29q122 0 188.5 -39.5t66.5 -127.5zM682 167q0 49 -37 72t-128 23h-32v-190h32q91 0 128 22.5t37 72.5z" />
    <glyph glyph-name="afii10108" unicode="&#x45b;" horiz-adv-x="588" 
d="M297 456q-45 0 -80.5 -18t-57.5 -47v-391h-84v593h-70v68h70v69h84v-69h202v-68h-202v-117q26 24 63.5 39t85.5 15q100 0 157.5 -59.5t57.5 -177.5v-293h-84v295q0 85 -35.5 123t-106.5 38z" />
    <glyph glyph-name="afii10109" unicode="&#x45c;" horiz-adv-x="517" 
d="M154 518v-229l229 229h108l-251 -248l272 -270h-110l-248 250v-250h-84v518h84zM312 750h107v-10l-145 -152h-80z" />
    <glyph glyph-name="uni045D" unicode="&#x45d;" horiz-adv-x="602" 
d="M448 0v401l-283 -401h-95v518h84v-404l283 404h95v-518h-84zM366 588h-80l-145 152v10h107z" />
    <glyph glyph-name="afii10110" unicode="&#x45e;" horiz-adv-x="529" 
d="M15 518h89l166 -417l155 417h89l-273 -711h-87l73 193zM264 593q-34 0 -63 9.5t-51 28.5t-34.5 47.5t-13.5 66.5h75q2 -42 25.5 -64.5t61.5 -22.5t61.5 22.5t25.5 64.5h75q-1 -38 -13.5 -66.5t-34.5 -47.5t-51 -28.5t-63 -9.5z" />
    <glyph glyph-name="afii10193" unicode="&#x45f;" horiz-adv-x="564" 
d="M240 -104v104h-170v518h84v-446h256v446h84v-518h-170v-104h-84z" />
    <glyph glyph-name="afii10050" unicode="&#x490;" horiz-adv-x="528" 
d="M80 700h350v123h88v-201h-350v-622h-88v700z" />
    <glyph glyph-name="afii10098" unicode="&#x491;" horiz-adv-x="438" 
d="M154 446v-446h-84v518h274v132h84v-204h-274z" />
    <glyph glyph-name="Wgrave" unicode="&#x1e80;" horiz-adv-x="996" 
d="M551 700l149 -597l181 597h95l-215 -700h-118l-145 587l-145 -587h-118l-215 700h95l181 -597l149 597h106zM543 762h-80l-145 152v10h107z" />
    <glyph glyph-name="wgrave" unicode="&#x1e81;" horiz-adv-x="788" 
d="M432 518l124 -412l126 412h91l-177 -518h-80l-122 402l-122 -402h-80l-177 518h91l126 -412l124 412h76zM436 588h-80l-145 152v10h107z" />
    <glyph glyph-name="Wacute" unicode="&#x1e82;" horiz-adv-x="996" 
d="M551 700l149 -597l181 597h95l-215 -700h-118l-145 587l-145 -587h-118l-215 700h95l181 -597l149 597h106zM561 924h107v-10l-145 -152h-80z" />
    <glyph glyph-name="wacute" unicode="&#x1e83;" horiz-adv-x="788" 
d="M432 518l124 -412l126 412h91l-177 -518h-80l-122 402l-122 -402h-80l-177 518h91l126 -412l124 412h76zM470 750h107v-10l-145 -152h-80z" />
    <glyph glyph-name="Wdieresis" unicode="&#x1e84;" horiz-adv-x="996" 
d="M551 700l149 -597l181 597h95l-215 -700h-118l-145 587l-145 -587h-118l-215 700h95l181 -597l149 597h106zM344 843q0 53 53 53t53 -53t-53 -53t-53 53zM546 843q0 53 53 53t53 -53t-53 -53t-53 53z" />
    <glyph glyph-name="wdieresis" unicode="&#x1e85;" horiz-adv-x="788" 
d="M432 518l124 -412l126 412h91l-177 -518h-80l-122 402l-122 -402h-80l-177 518h91l126 -412l124 412h76zM240 669q0 53 53 53t53 -53t-53 -53t-53 53zM442 669q0 53 53 53t53 -53t-53 -53t-53 53z" />
    <glyph glyph-name="Ygrave" unicode="&#x1ef2;" horiz-adv-x="662" 
d="M375 277v-277h-88v277l-267 423h102l209 -339l209 339h102zM395 762h-80l-145 152v10h107z" />
    <glyph glyph-name="ygrave" unicode="&#x1ef3;" horiz-adv-x="529" 
d="M15 518h89l166 -417l155 417h89l-273 -711h-87l73 193zM324 588h-80l-145 152v10h107z" />
    <glyph glyph-name="uni2010" unicode="&#x2010;" horiz-adv-x="406" 
d="M60 293v78h286v-78h-286z" />
    <glyph glyph-name="figuredash" unicode="&#x2012;" horiz-adv-x="580" 
d="M40 293v78h500v-78h-500z" />
    <glyph glyph-name="endash" unicode="&#x2013;" horiz-adv-x="500" 
d="M0 293v78h500v-78h-500z" />
    <glyph glyph-name="emdash" unicode="&#x2014;" 
d="M0 293v78h1000v-78h-1000z" />
    <glyph glyph-name="afii00208" unicode="&#x2015;" 
d="M100 293v78h800v-78h-800z" />
    <glyph glyph-name="uni2016" unicode="&#x2016;" horiz-adv-x="432" 
d="M100 749h72v-879h-72v879zM260 749h72v-879h-72v879z" />
    <glyph glyph-name="underscoredbl" unicode="&#x2017;" horiz-adv-x="600" 
d="M50 -132h500v-68h-500v68zM50 -30h500v-68h-500v68z" />
    <glyph glyph-name="quoteleft" unicode="&#x2018;" horiz-adv-x="290" 
d="M204.011 581.006q0 -58.9932 -56.9932 -58.9932q-31.9961 0 -46.9941 15.998t-14.998 55.9932q0 56.9932 26.4961 104.987q26.4971 47.9941 73.4912 72.9912l19.998 -29.9961q-23.9971 -19.998 -37.9961 -46.9941q-13.998 -26.9971 -15.998 -54.9941
q30.9971 -1.99902 41.9951 -18.9971q10.999 -16.998 10.999 -39.9951z" />
    <glyph glyph-name="quoteright" unicode="&#x2019;" horiz-adv-x="290" 
d="M86 713q0 59 57 59q32 0 47 -16t15 -56q0 -57 -26.5 -105t-73.5 -73l-20 30q24 20 38 47t16 55q-31 2 -42 19t-11 40z" />
    <glyph glyph-name="quotesinglbase" unicode="&#x201a;" horiz-adv-x="290" 
d="M86 47q0 59 57 59q32 0 47 -16t15 -56q0 -57 -26.5 -105t-73.5 -73l-20 30q24 20 38 47t16 55q-31 2 -42 19t-11 40z" />
    <glyph glyph-name="quotereversed" unicode="&#x201b;" horiz-adv-x="290" 
d="M204 713q0 -23 -11 -40t-42 -19q2 -28 16 -55t38 -47l-20 -30q-47 25 -73.5 73t-26.5 105q0 40 15 56t47 16q57 0 57 -59z" />
    <glyph glyph-name="quotedblleft" unicode="&#x201c;" horiz-adv-x="458" 
d="M204.011 581.006q0 -58.9932 -56.9932 -58.9932q-31.9961 0 -46.9941 15.998t-14.998 55.9932q0 56.9932 26.4961 104.987q26.4971 47.9941 73.4912 72.9912l19.998 -29.9961q-23.9971 -19.998 -37.9961 -46.9941q-13.998 -26.9971 -15.998 -54.9941
q30.9971 -1.99902 41.9951 -18.9971q10.999 -16.998 10.999 -39.9951zM372.011 581.006q0 -58.9932 -56.9932 -58.9932q-31.9961 0 -46.9941 15.998t-14.998 55.9932q0 56.9932 26.4961 104.987q26.4971 47.9941 73.4912 72.9912l19.998 -29.9961
q-23.9971 -19.998 -37.9961 -46.9941q-13.998 -26.9971 -15.998 -54.9941q30.9971 -1.99902 41.9951 -18.9971q10.999 -16.998 10.999 -39.9951z" />
    <glyph glyph-name="quotedblright" unicode="&#x201d;" horiz-adv-x="458" 
d="M86 713q0 59 57 59q32 0 47 -16t15 -56q0 -57 -26.5 -105t-73.5 -73l-20 30q24 20 38 47t16 55q-31 2 -42 19t-11 40zM254 713q0 59 57 59q32 0 47 -16t15 -56q0 -57 -26.5 -105t-73.5 -73l-20 30q24 20 38 47t16 55q-31 2 -42 19t-11 40z" />
    <glyph glyph-name="quotedblbase" unicode="&#x201e;" horiz-adv-x="458" 
d="M86 47q0 59 57 59q32 0 47 -16t15 -56q0 -57 -26.5 -105t-73.5 -73l-20 30q24 20 38 47t16 55q-31 2 -42 19t-11 40zM254 47q0 59 57 59q32 0 47 -16t15 -56q0 -57 -26.5 -105t-73.5 -73l-20 30q24 20 38 47t16 55q-31 2 -42 19t-11 40z" />
    <glyph glyph-name="uni201F" unicode="&#x201f;" horiz-adv-x="458" 
d="M204 713q0 -23 -11 -40t-42 -19q2 -28 16 -55t38 -47l-20 -30q-47 25 -73.5 73t-26.5 105q0 40 15 56t47 16q57 0 57 -59zM372 713q0 -23 -11 -40t-42 -19q2 -28 16 -55t38 -47l-20 -30q-47 25 -73.5 73t-26.5 105q0 40 15 56t47 16q57 0 57 -59z" />
    <glyph glyph-name="dagger" unicode="&#x2020;" horiz-adv-x="576" 
d="M496 508h-166v-639h-84v639h-166v72h166v168h84v-168h166v-72z" />
    <glyph glyph-name="daggerdbl" unicode="&#x2021;" horiz-adv-x="576" 
d="M496 37h-166v-168h-84v168h-166v72h166v399h-166v72h166v168h84v-168h166v-72h-166v-399h166v-72z" />
    <glyph glyph-name="bullet" unicode="&#x2022;" horiz-adv-x="448" 
d="M100 332q0 60 32 92t92 32t92 -32t32 -92t-32 -92t-92 -32t-92 32t-32 92z" />
    <glyph glyph-name="onedotenleader" unicode="&#x2024;" horiz-adv-x="290" 
d="M86 47q0 59 59 59t59 -59t-59 -59t-59 59z" />
    <glyph glyph-name="twodotenleader" unicode="&#x2025;" horiz-adv-x="580" 
d="M86 47q0 59 59 59t59 -59t-59 -59t-59 59zM376 47q0 59 59 59t59 -59t-59 -59t-59 59z" />
    <glyph glyph-name="ellipsis" unicode="&#x2026;" horiz-adv-x="870" 
d="M86 47q0 59 59 59t59 -59t-59 -59t-59 59zM376 47q0 59 59 59t59 -59t-59 -59t-59 59zM666 47q0 59 59 59t59 -59t-59 -59t-59 59z" />
    <glyph glyph-name="perthousand" unicode="&#x2030;" 
d="M515 700h91l-439 -700h-91zM30 528q0 40 10.5 73t30 56.5t47 36.5t60.5 13t60 -13t46.5 -36.5t30.5 -56.5t11 -73t-11 -73t-30.5 -56.5t-46.5 -36.5t-60 -13t-60.5 13t-47 36.5t-30 56.5t-10.5 73zM116 528q0 -53 17.5 -78t44.5 -25t44.5 25t17.5 78t-17.5 78t-44.5 25
t-44.5 -25t-17.5 -78zM355 171q0 40 10.5 73t30 56.5t47 36.5t60.5 13t60 -13t46.5 -36.5t30.5 -56.5t11 -73t-11 -73t-30.5 -56.5t-46.5 -36.5t-60 -13t-60.5 13t-47 36.5t-30 56.5t-10.5 73zM441 171q0 -53 17.5 -78t44.5 -25t44.5 25t17.5 78t-17.5 78t-44.5 25
t-44.5 -25t-17.5 -78zM674 171q0 40 10.5 73t30 56.5t47 36.5t60.5 13t60 -13t46.5 -36.5t30.5 -56.5t11 -73t-11 -73t-30.5 -56.5t-46.5 -36.5t-60 -13t-60.5 13t-47 36.5t-30 56.5t-10.5 73zM760 171q0 -53 17.5 -78t44.5 -25t44.5 25t17.5 78t-17.5 78t-44.5 25
t-44.5 -25t-17.5 -78z" />
    <glyph glyph-name="minute" unicode="&#x2032;" horiz-adv-x="319" 
d="M141 700h103v-30l-102 -242h-67z" />
    <glyph glyph-name="second" unicode="&#x2033;" horiz-adv-x="507" 
d="M146 700h103v-30l-102 -242h-67zM324 700h103v-30l-102 -242h-67z" />
    <glyph glyph-name="guilsinglleft" unicode="&#x2039;" horiz-adv-x="348" 
d="M147 312l141 -124v-83l-218 192v30l218 192v-83z" />
    <glyph glyph-name="guilsinglright" unicode="&#x203a;" horiz-adv-x="348" 
d="M60 436v83l218 -192v-30l-218 -192v83l141 124z" />
    <glyph glyph-name="exclamdbl" unicode="&#x203c;" horiz-adv-x="467" 
d="M90 519v181h100v-181l-24 -350h-52zM81 47q0 59 59 59t59 -59t-59 -59t-59 59zM278 519v181h100v-181l-24 -350h-52zM269 47q0 59 59 59t59 -59t-59 -59t-59 59z" />
    <glyph glyph-name="uni203E" unicode="&#x203e;" horiz-adv-x="400" 
d="M54 684h292v-72h-292v72z" />
    <glyph glyph-name="fraction" unicode="&#x2044;" horiz-adv-x="450" 
d="M68 -15h-78l392 730h78z" />
    <glyph glyph-name="zero.sups" unicode="&#x2070;" horiz-adv-x="390" 
d="M22 469q0 51 11 94.5t32.5 75.5t54 50.5t75.5 18.5t75.5 -18.5t54 -50.5t32.5 -75.5t11 -94.5t-11 -94.5t-32.5 -75.5t-54 -50.5t-75.5 -18.5t-75.5 18.5t-54 50.5t-32.5 75.5t-11 94.5zM98 469q0 -79 24 -125t73 -46t73 46t24 125t-24 125t-73 46t-73 -46t-24 -125z" />
    <glyph glyph-name="uni2071" unicode="&#x2071;" horiz-adv-x="390" 
d="M159 569h74v-332h-74v332zM152 661q0 44 43 44t43 -44t-43 -44t-43 44z" />
    <glyph glyph-name="four.sups" unicode="&#x2074;" horiz-adv-x="390" 
d="M17 336v68l214 296h76v-298h56v-66h-56v-99h-74v99h-216zM99 402h134v187z" />
    <glyph glyph-name="five.sups" unicode="&#x2075;" horiz-adv-x="390" 
d="M68 700h263v-66h-193v-109q11 3 24.5 4.5t27.5 1.5q31 0 59.5 -9t50 -27.5t34.5 -45.5t13 -63q0 -71 -47 -114t-128 -43q-26 0 -58.5 5t-61.5 17l6 76q49 -30 108 -30q51 0 78 25t27 66t-25.5 59t-73.5 18q-27 0 -53.5 -5t-50.5 -14v254z" />
    <glyph glyph-name="six.sups" unicode="&#x2076;" horiz-adv-x="390" 
d="M206 229q-83 0 -127.5 56t-44.5 165q0 69 13.5 118t38.5 80t60 45.5t78 14.5q28 0 57 -6t52 -17l-8 -74q-20 14 -44.5 21.5t-53.5 7.5q-49 0 -78.5 -30t-34.5 -102q36 36 99 36q68 0 109.5 -43.5t41.5 -118.5q0 -35 -12 -63t-33 -48t-50 -31t-63 -11zM113 422
q0 -67 25.5 -96t66.5 -29t62 25t21 62q0 42 -20.5 67t-62.5 25q-33 0 -55.5 -15t-36.5 -39z" />
    <glyph glyph-name="seven.sups" unicode="&#x2077;" horiz-adv-x="390" 
d="M177 237h-83l172 397h-213v66h294v-66z" />
    <glyph glyph-name="eight.sups" unicode="&#x2078;" horiz-adv-x="390" 
d="M121 588q0 -23 15 -40t61 -36q35 17 49.5 36.5t14.5 40.5q0 22 -18.5 36.5t-52.5 14.5q-33 0 -51 -15t-18 -37zM279 361q0 25 -20.5 46t-78.5 43q-41 -17 -55.5 -40.5t-14.5 -48.5q0 -27 22.5 -45t61.5 -18t62 18t23 45zM194 229q-36 0 -65.5 9.5t-50.5 27.5t-32.5 42.5
t-11.5 54.5q0 37 20 68t58 51q-31 20 -49 46t-18 58q0 28 11.5 51t31 38.5t46 24t56.5 8.5q31 0 57.5 -8.5t46.5 -24.5t31.5 -38t11.5 -50q0 -33 -19 -59.5t-51 -44.5q88 -46 88 -120q0 -30 -12 -54.5t-33 -42.5t-50.5 -27.5t-65.5 -9.5z" />
    <glyph glyph-name="nine.sups" unicode="&#x2079;" horiz-adv-x="390" 
d="M183 708q83 0 127.5 -56t44.5 -165q0 -69 -13.5 -118t-38.5 -80t-60 -45.5t-78 -14.5q-28 0 -57 6t-52 17l8 74q20 -14 44.5 -21.5t53.5 -7.5q49 0 78.5 30t34.5 102q-36 -36 -99 -36q-68 0 -109.5 43.5t-41.5 118.5q0 34 12 62.5t33 48.5t50 31t63 11zM276 515
q0 68 -25.5 96.5t-66.5 28.5t-62 -25t-21 -62q0 -42 20.5 -67t62.5 -25q33 0 55.5 15t36.5 39z" />
    <glyph glyph-name="uni207A" unicode="&#x207a;" horiz-adv-x="390" 
d="M159 439h-128v64h128v127h72v-127h128v-64h-128v-127h-72v127z" />
    <glyph glyph-name="uni207B" unicode="&#x207b;" horiz-adv-x="390" 
d="M31 439v64h328v-64h-328z" />
    <glyph glyph-name="uni207C" unicode="&#x207c;" horiz-adv-x="390" 
d="M31 379v64h328v-64h-328zM31 499v64h328v-64h-328z" />
    <glyph glyph-name="uni207D" unicode="&#x207d;" horiz-adv-x="390" 
d="M124 469q0 78 27.5 152.5t74.5 137.5h60q-43 -63 -69 -140t-26 -150q0 -74 26 -150.5t69 -140.5h-60q-47 63 -74.5 137.5t-27.5 153.5z" />
    <glyph glyph-name="uni207E" unicode="&#x207e;" horiz-adv-x="390" 
d="M266 469q0 -79 -27.5 -153.5t-74.5 -137.5h-60q43 64 69 140.5t26 150.5q0 73 -26 150t-69 140h60q47 -63 74.5 -137.5t27.5 -152.5z" />
    <glyph glyph-name="uni207F" unicode="&#x207f;" horiz-adv-x="390" 
d="M198 511q-25 0 -47 -11t-36 -30v-233h-74v332h74v-25q14 14 38 23.5t52 9.5q63 0 103 -38.5t40 -113.5v-188h-74v171q0 54 -19.5 78.5t-56.5 24.5z" />
    <glyph glyph-name="zero.sinf" unicode="&#x2080;" horiz-adv-x="390" 
d="M22 107q0 51 11 94.5t32.5 75.5t54 50.5t75.5 18.5t75.5 -18.5t54 -50.5t32.5 -75.5t11 -94.5t-11 -94.5t-32.5 -75.5t-54 -50.5t-75.5 -18.5t-75.5 18.5t-54 50.5t-32.5 75.5t-11 94.5zM98 107q0 -79 24 -125t73 -46t73 46t24 125t-24 125t-73 46t-73 -46t-24 -125z" />
    <glyph glyph-name="one.sinf" unicode="&#x2081;" horiz-adv-x="390" 
d="M98 185l-39 60l129 94h65v-464h-74v369z" />
    <glyph glyph-name="two.sinf" unicode="&#x2082;" horiz-adv-x="390" 
d="M38 -125v62q36 31 75 69t74 76q35 39 50 71t15 62q0 32 -22.5 47.5t-60.5 15.5q-27 0 -56 -10t-54 -26l-5 73q23 13 56 22t64 9q70 -1 112 -33.5t42 -98.5q0 -40 -18.5 -80.5t-59.5 -85.5q-31 -34 -57 -60t-49 -47h188v-66h-294z" />
    <glyph glyph-name="three.sinf" unicode="&#x2083;" horiz-adv-x="390" 
d="M102 150q69 0 109.5 19t40.5 53q0 28 -20 42t-65 14q-54 0 -108 -30l-7 71q25 12 56.5 19.5t61.5 7.5q77 0 117.5 -31.5t40.5 -85.5q0 -43 -20 -69t-52 -41q36 -17 57.5 -45t21.5 -71q0 -62 -46 -99t-123 -37q-26 0 -60 5t-62 17l6 75q25 -16 56.5 -22.5t56.5 -6.5
q48 0 72 18t24 50q0 42 -44 61.5t-113 19.5v66z" />
    <glyph glyph-name="four.sinf" unicode="&#x2084;" horiz-adv-x="390" 
d="M17 -26v68l214 296h76v-298h56v-66h-56v-99h-74v99h-216zM99 40h134v187z" />
    <glyph glyph-name="five.sinf" unicode="&#x2085;" horiz-adv-x="390" 
d="M68 338h263v-66h-193v-109q11 3 24.5 4.5t27.5 1.5q31 0 59.5 -9t50 -27.5t34.5 -45.5t13 -63q0 -71 -47 -114t-128 -43q-26 0 -58.5 5t-61.5 17l6 76q49 -30 108 -30q51 0 78 25t27 66t-25.5 59t-73.5 18q-27 0 -53.5 -5t-50.5 -14v254z" />
    <glyph glyph-name="six.sinf" unicode="&#x2086;" horiz-adv-x="390" 
d="M206 -133q-83 0 -127.5 56t-44.5 165q0 69 13.5 118t38.5 80t60 45.5t78 14.5q28 0 57 -6t52 -17l-8 -74q-20 14 -44.5 21.5t-53.5 7.5q-49 0 -78.5 -30t-34.5 -102q36 36 99 36q68 0 109.5 -43.5t41.5 -118.5q0 -35 -12 -63t-33 -48t-50 -31t-63 -11zM113 60
q0 -67 25.5 -96t66.5 -29t62 25t21 62q0 42 -20.5 67t-62.5 25q-33 0 -55.5 -15t-36.5 -39z" />
    <glyph glyph-name="seven.sinf" unicode="&#x2087;" horiz-adv-x="390" 
d="M177 -125h-83l172 397h-213v66h294v-66z" />
    <glyph glyph-name="eight.sinf" unicode="&#x2088;" horiz-adv-x="390" 
d="M121 226q0 -23 15 -40t61 -36q35 17 49.5 36.5t14.5 40.5q0 22 -18.5 36.5t-52.5 14.5q-33 0 -51 -15t-18 -37zM279 -1q0 25 -20.5 46t-78.5 43q-41 -17 -55.5 -40.5t-14.5 -48.5q0 -27 22.5 -45t61.5 -18t62 18t23 45zM194 -133q-36 0 -65.5 9.5t-50.5 27.5t-32.5 42.5
t-11.5 54.5q0 37 20 68t58 51q-31 20 -49 46t-18 58q0 28 11.5 51t31 38.5t46 24t56.5 8.5q31 0 57.5 -8.5t46.5 -24.5t31.5 -38t11.5 -50q0 -33 -19 -59.5t-51 -44.5q88 -46 88 -120q0 -30 -12 -54.5t-33 -42.5t-50.5 -27.5t-65.5 -9.5z" />
    <glyph glyph-name="nine.sinf" unicode="&#x2089;" horiz-adv-x="390" 
d="M183 346q83 0 127.5 -56t44.5 -165q0 -69 -13.5 -118t-38.5 -80t-60 -45.5t-78 -14.5q-28 0 -57 6t-52 17l8 74q20 -14 44.5 -21.5t53.5 -7.5q49 0 78.5 30t34.5 102q-36 -36 -99 -36q-68 0 -109.5 43.5t-41.5 118.5q0 34 12 62.5t33 48.5t50 31t63 11zM276 153
q0 68 -25.5 96.5t-66.5 28.5t-62 -25t-21 -62q0 -42 20.5 -67t62.5 -25q33 0 55.5 15t36.5 39z" />
    <glyph glyph-name="uni208A" unicode="&#x208a;" horiz-adv-x="390" 
d="M159 77h-128v64h128v127h72v-127h128v-64h-128v-127h-72v127z" />
    <glyph glyph-name="uni208B" unicode="&#x208b;" horiz-adv-x="390" 
d="M31 77v64h328v-64h-328z" />
    <glyph glyph-name="uni208C" unicode="&#x208c;" horiz-adv-x="390" 
d="M31 17v64h328v-64h-328zM31 137v64h328v-64h-328z" />
    <glyph glyph-name="uni208D" unicode="&#x208d;" horiz-adv-x="390" 
d="M124 107q0 78 27.5 152.5t74.5 137.5h60q-43 -63 -69 -140t-26 -150q0 -74 26 -150.5t69 -140.5h-60q-47 63 -74.5 137.5t-27.5 153.5z" />
    <glyph glyph-name="uni208E" unicode="&#x208e;" horiz-adv-x="390" 
d="M266 107q0 -79 -27.5 -153.5t-74.5 -137.5h-60q43 64 69 140.5t26 150.5q0 73 -26 150t-69 140h60q47 -63 74.5 -137.5t27.5 -152.5z" />
    <glyph glyph-name="uni2090" unicode="&#x2090;" horiz-adv-x="390" 
d="M171 -133q-64 0 -100.5 29.5t-36.5 80.5q0 56 42 85.5t118 29.5h83v7q0 35 -20.5 49.5t-72.5 14.5q-28 0 -56.5 -6.5t-52.5 -18.5l-6 62q28 13 59 19t62 6q76 0 115.5 -32.5t39.5 -106.5v-211h-68v26q-17 -16 -45.5 -25t-60.5 -9zM181 -71q29 0 54.5 10.5t41.5 31.5v59
h-80q-52 0 -72.5 -14t-20.5 -38q0 -23 20 -36t57 -13z" />
    <glyph glyph-name="uni2091" unicode="&#x2091;" horiz-adv-x="390" 
d="M107 17q2 -24 12 -41t24.5 -27.5t32.5 -15t37 -4.5q30 0 57 7.5t51 24.5l6 -66q-23 -15 -52.5 -21.5t-63.5 -6.5q-85 0 -130.5 48.5t-45.5 131.5q0 86 44.5 132t115.5 46q75 0 117.5 -48t42.5 -133v-13.5t-1 -13.5h-247zM193 163q-37 0 -60 -21.5t-26 -64.5h171
q-3 43 -25.5 64.5t-59.5 21.5z" />
    <glyph glyph-name="uni2092" unicode="&#x2092;" horiz-adv-x="390" 
d="M291 46q0 52 -27 84.5t-69 32.5t-69 -32.5t-27 -84.5t27 -84.5t69 -32.5t69 32.5t27 84.5zM23 46q0 39 12 71.5t34 56.5t54 37.5t72 13.5t72 -13.5t54 -37.5t34 -56.5t12 -71.5t-12 -71.5t-34 -56.5t-54 -37.5t-72 -13.5t-72 13.5t-54 37.5t-34 56.5t-12 71.5z" />
    <glyph glyph-name="uni2093" unicode="&#x2093;" horiz-adv-x="390" 
d="M282 217h83l-128 -167l137 -175h-87l-92 120l-92 -120h-87l136 175l-127 167h83l87 -112z" />
    <glyph glyph-name="uni2094" unicode="&#x2094;" horiz-adv-x="390" 
d="M283 75q-2 24 -12 40.5t-24.5 27t-32.5 15.5t-37 5q-30 0 -57 -7.5t-51 -24.5l-6 66q23 15 52.5 21.5t63.5 6.5q85 0 130.5 -48.5t45.5 -131.5q0 -86 -44.5 -132t-115.5 -46q-75 0 -117.5 48t-42.5 133v13.5t1 13.5h247zM197 -71q37 0 60 21.5t26 64.5h-171
q3 -43 25.5 -64.5t59.5 -21.5z" />
    <glyph glyph-name="uni20A0" unicode="&#x20a0;" horiz-adv-x="773" 
d="M401 490h325v-78h-237v-121h220v-78h-220v-135h244v-78h-332v220q-25 -8 -51.5 -11t-51.5 -3q-55 0 -102.5 17t-82 49.5t-54 79.5t-19.5 107q0 58 19.5 105t54 80t81 50.5t100.5 17.5q32 0 64 -5t56 -15l-6 -85q-23 13 -52 19t-58 6q-77 0 -123 -46t-46 -127
q0 -86 48 -129.5t124 -43.5q24 0 50 5t49 16v183z" />
    <glyph glyph-name="colonmonetary" unicode="&#x20a1;" horiz-adv-x="611" 
d="M549 788l-24 -91q11 -2 22.5 -6t19.5 -8l-8 -88q-23 14 -54 23l-143 -547q25 -3 52 -3q38 0 76 9t73 30l8 -89q-37 -17 -78.5 -23.5t-83.5 -6.5q-17 0 -34 1.5t-33 3.5l-16 -62h-67l20 76q-12 3 -25.5 8.5t-24.5 11.5l-25 -96h-65l34 131q-62 48 -95 121t-33 167
q0 71 20.5 132t59 107.5t93.5 77t123 40.5l21 81h65l-20 -76q28 0 54 -3l21 79h67zM135 350q0 -118 63 -192l120 461q-44 -13 -78 -38.5t-57.5 -60t-35.5 -78t-12 -92.5zM441 630q-12 2 -27.5 2.5t-27.5 -1.5l-135 -520q21 -15 49 -24z" />
    <glyph glyph-name="uni20A2" unicode="&#x20a2;" horiz-adv-x="616" 
d="M562 399q-13 5 -30 8t-33 3q-54 0 -90 -24.5t-54 -69.5v-244q14 -2 28.5 -3t30.5 -1q38 0 76.5 9.5t72.5 29.5l8 -89q-38 -17 -79 -23.5t-83 -6.5q-84 0 -151 26.5t-114.5 74t-73 114t-25.5 147.5q0 79 25.5 145.5t72.5 114.5t113.5 75t148.5 27q92 0 162 -29l-8 -88
q-33 19 -70.5 28t-78.5 9q-65 0 -116.5 -21.5t-86.5 -59t-53.5 -89t-18.5 -112.5q0 -88 35.5 -152.5t100.5 -97.5v374h84v-58q25 32 63.5 51t89.5 19q15 0 32 -1.5t31 -5.5z" />
    <glyph glyph-name="franc" unicode="&#x20a3;" horiz-adv-x="536" 
d="M20 326h60v76h-60v58h60v240h436v-78h-348v-162h295v-58h-295v-76h294v-58h-294v-268h-88v268h-60v58z" />
    <glyph glyph-name="lira" unicode="&#x20a4;" horiz-adv-x="545" 
d="M49 427h91v35q0 129 55 188t165 59q41 0 78.5 -8.5t67.5 -25.5l-7 -83q-60 39 -131 39q-38 0 -65 -8.5t-43.5 -29t-24 -54t-7.5 -83.5v-29h206v-58h-206v-76h206v-58h-206v-157h287v-78h-485v78h110v157h-91v58h91v76h-91v58z" />
    <glyph glyph-name="uni20A6" unicode="&#x20a6;" horiz-adv-x="718" 
d="M20 254v58h60v76h-60v58h60v254h105l158 -254h211v254h84v-254h60v-58h-60v-76h60v-58h-60v-254h-105l-159 254h-210v-254h-84v254h-60zM427 312h127v76h-174zM164 312h174l-48 76h-126v-76zM554 109v145h-91zM164 446h90l-90 145v-145z" />
    <glyph glyph-name="peseta" unicode="&#x20a7;" horiz-adv-x="1013" 
d="M641 0q-76 0 -118.5 42.5t-42.5 134.5v269h-60q-6 -44 -27 -78t-54.5 -57t-78.5 -35t-98 -12h-29v-264h-88v700h117q53 0 98 -12t78.5 -35t54.5 -57t27 -78h60v155h84v-155h185q33 12 77 12q32 0 63 -8t57 -24l-8 -82q-26 20 -55.5 30t-57.5 10q-37 0 -57.5 -17
t-20.5 -46q0 -30 20 -51.5t71 -39.5q69 -25 102 -59.5t33 -91.5q0 -72 -47.5 -111.5t-126.5 -39.5h-158zM564 175q0 -59 21.5 -81t64.5 -22h149q45 0 66.5 19.5t21.5 53.5q0 29 -18 48t-68 38q-71 26 -105.5 61.5t-34.5 94.5q0 35 10 59h-107v-271zM333 482q0 72 -43.5 106
t-134.5 34h-22v-280h22q91 0 134.5 34t43.5 106z" />
    <glyph glyph-name="uni20A8" unicode="&#x20a8;" horiz-adv-x="988" 
d="M536 496q0 -77 -43.5 -124.5t-112.5 -67.5l179 -304h-101l-170 292h-120v-292h-88v700h203q53 0 99.5 -13t80.5 -38.5t53.5 -64t19.5 -88.5zM744 -12q-48 0 -92.5 13t-79.5 33l7 84q32 -26 74 -41t91 -15q118 0 118 77q0 16 -5 29t-18.5 24t-36 20.5t-56.5 18.5
q-86 22 -128 59.5t-42 96.5q0 69 51.5 106t143.5 37q39 0 78.5 -8t71.5 -24l-8 -82q-33 20 -70.5 30t-72.5 10q-56 0 -82 -17t-26 -46q0 -30 27 -52t94 -39q88 -23 126.5 -61t38.5 -96q0 -76 -55 -116.5t-149 -40.5zM446 496q0 126 -169 126h-109v-252h109q169 0 169 126z
" />
    <glyph glyph-name="uni20A9" unicode="&#x20a9;" horiz-adv-x="996" 
d="M20 240v58h124l-24 76h-100v58h82l-82 268h95l81 -268h182l67 268h106l67 -268h181l82 268h95l-82 -268h82v-58h-100l-24 -76h124v-58h-142l-73 -240h-118l-59 240h-172l-59 -240h-118l-74 240h-141zM237 298h107l19 76h-149zM651 298h108l23 76h-150zM427 298h142
l-18 76h-106zM460 432h76l-38 155zM296 103l34 137h-76zM700 103l41 137h-75z" />
    <glyph glyph-name="afii57636" unicode="&#x20aa;" horiz-adv-x="860" 
d="M80 700h253q116 0 184 -71.5t68 -215.5v-151h-88v139q0 66 -11.5 109t-33 68t-52 34.5t-67.5 9.5h-165v-622h-88v700zM780 0h-253q-116 0 -184 71.5t-68 215.5v151h88v-139q0 -66 11.5 -109t33 -68t51.5 -34.5t68 -9.5h165v622h88v-700z" />
    <glyph glyph-name="dong" unicode="&#x20ab;" horiz-adv-x="594" 
d="M584 573h-70v-573h-88v38q-26 -23 -63.5 -36.5t-81.5 -13.5q-51 0 -95 18t-76.5 51t-51 80.5t-18.5 106.5t18.5 106.5t51 80.5t76.5 51t95 18q44 0 81.5 -13.5t63.5 -36.5v123h-198v58h198v69h88v-69h70v-58zM426 357q-23 32 -58.5 48.5t-78.5 16.5q-71 0 -115 -44
t-44 -134t44 -134t115 -44q43 0 78.5 16.5t58.5 48.5v226zM495 -152h-361v68h361v-68z" />
    <glyph glyph-name="Euro" unicode="&#x20ac;" horiz-adv-x="611" 
d="M20 383v58h63q12 60 40.5 110t70 86t95 55.5t116.5 19.5q45 0 86 -7t76 -22l-8 -88q-33 20 -70 28.5t-79 8.5q-93 0 -153 -52t-81 -139h331l-17 -58h-324q-2 -14 -2 -32.5t2 -33.5h305l-18 -58h-278q22 -91 84 -141t155 -50q45 0 81 9t68 30l8 -89q-75 -30 -162 -30
q-65 0 -119 19t-96 54.5t-70 85.5t-40 112h-64v58h56q-2 15 -2 33t2 33h-56z" />
    <glyph glyph-name="afii61248" unicode="&#x2105;" horiz-adv-x="1004" 
d="M113 487q0 -37 11 -66t30 -48.5t45.5 -30t56.5 -10.5q32 0 62 7t56 22l7 -75q-27 -14 -60 -19.5t-67 -5.5q-48 0 -89 16t-71 45t-47 71t-17 94t17 93.5t46.5 70.5t70.5 45t89 16q34 0 64.5 -5.5t58.5 -18.5l-7 -76q-24 16 -53 23t-61 7q-61 0 -101.5 -40.5t-40.5 -114.5z
M562 215q0 48 14.5 89t41.5 71.5t65 47.5t85 17t85 -17t65 -47.5t41.5 -71.5t14.5 -89t-14.5 -89t-41.5 -71.5t-65 -47.5t-85 -17t-85 17t-65 47.5t-41.5 71.5t-14.5 89zM645 215q0 -70 34 -112.5t89 -42.5t89 42.5t34 112.5t-34 112.5t-89 42.5t-89 -42.5t-34 -112.5z
M325 -15h-78l392 730h78z" />
    <glyph glyph-name="uni2109" unicode="&#x2109;" horiz-adv-x="802" 
d="M346 700h436v-78h-348v-219h323v-78h-323v-325h-88v700zM10 577q0 28 10.5 52.5t29 43t43 29t52.5 10.5t52.5 -10.5t43 -29t29 -43t10.5 -52.5t-10.5 -52.5t-29 -43t-43 -29t-52.5 -10.5t-52.5 10.5t-43 29t-29 43t-10.5 52.5zM76 577q0 -31 19.5 -51.5t49.5 -20.5
t49.5 20.5t19.5 51.5t-19.5 51.5t-49.5 20.5t-49.5 -20.5t-19.5 -51.5z" />
    <glyph glyph-name="afii61289" unicode="&#x2113;" horiz-adv-x="485" 
d="M81 393q0 77 15 136.5t41 100t62.5 61.5t80.5 21q71 0 108 -61.5t37 -163.5q0 -53 -10 -106t-32 -103t-57.5 -94.5t-86.5 -78.5q31 -39 75 -39q25 0 43 15t27 52l61 -50q-36 -95 -129 -95q-48 0 -85.5 20.5t-64.5 56.5q-22 -9 -46 -17t-50 -14l-30 78q23 5 44 11.5
t41 14.5q-23 55 -33.5 120.5t-10.5 134.5zM335 488q0 45 -4.5 73t-13 44.5t-20 22.5t-25.5 6q-21 0 -39.5 -16.5t-32 -46.5t-21.5 -73.5t-8 -97.5q0 -136 29 -220q74 54 104.5 133.5t30.5 174.5z" />
    <glyph glyph-name="afii61352" unicode="&#x2116;" horiz-adv-x="946" 
d="M80 700h108l196 -561v561h84v-700h-108l-196 561v-561h-84v700zM530 323q0 45 12.5 82.5t35.5 64.5t56 42t75 15q44 0 78.5 -15t58 -42t36 -64.5t12.5 -82.5t-12.5 -82.5t-36 -64.5t-58 -42t-78.5 -15q-42 0 -75 15t-56 42t-35.5 64.5t-12.5 82.5zM617 323
q0 -64 25.5 -97t69.5 -33t69.5 33t25.5 97t-25.5 97t-69.5 33t-69.5 -33t-25.5 -97zM906 0h-389v70h389v-70z" />
    <glyph glyph-name="uni2117" unicode="&#x2117;" horiz-adv-x="830" 
d="M53 350q0 75 28.5 141t77.5 115t115 77.5t141 28.5t141 -28.5t115 -77.5t77.5 -115t28.5 -141t-28.5 -141t-77.5 -115t-115 -77.5t-141 -28.5t-141 28.5t-115 77.5t-77.5 115t-28.5 141zM109 350q0 -65 24 -121.5t65.5 -98.5t97.5 -66t119 -24t119 24t97.5 66t65.5 98.5
t24 121.5q0 64 -24 120.5t-65.5 98.5t-97.5 66.5t-119 24.5t-119 -24.5t-97.5 -66.5t-65.5 -98.5t-24 -120.5zM522 417q0 38 -20.5 61.5t-71.5 23.5h-73v-170h73q51 0 71.5 23.5t20.5 61.5zM590 417q0 -66 -42 -104t-114 -38h-77v-144h-68v427h145q72 0 114 -37.5t42 -103.5
z" />
    <glyph glyph-name="uni2120" unicode="&#x2120;" horiz-adv-x="665" 
d="M432 479l-79 120v-221h-60v322h59l102 -158l102 158h59v-322h-60v221l-79 -120h-44zM238 628q-25 14 -46 20t-37 6q-26 0 -39 -9.5t-13 -25.5q0 -30 52 -48q56 -20 80 -43t24 -61q0 -45 -31.5 -69t-90.5 -24q-52 0 -95 22l5 61q23 -17 47 -25t46 -8q56 0 56 41
q0 17 -12.5 30t-45.5 24q-49 15 -73.5 39t-24.5 61q0 39 31.5 62t85.5 23q20 0 42 -4.5t43 -12.5z" />
    <glyph glyph-name="uni2121" unicode="&#x2121;" horiz-adv-x="922" 
d="M170 628h-160v72h404v-72h-160v-628h-84v628zM412 225q2 -81 38 -122t91 -41q31 0 58 10t54 36l9 -81q-23 -21 -54 -30t-69 -9q-53 0 -93 21t-67 57.5t-40.5 86t-13.5 107.5q0 61 14 110.5t38.5 85t59.5 55t77 19.5q45 0 80.5 -20t59.5 -56.5t37 -87t13 -110.5v-15.5
t-1 -15.5h-291zM617 297q-1 73 -28 116t-75 43q-47 0 -74 -43t-28 -116h205zM768 730h84v-730h-84v730z" />
    <glyph glyph-name="trademark" unicode="&#x2122;" horiz-adv-x="658" 
d="M106 651h-96v49h252v-49h-95v-272h-61v272zM425 479l-79 120v-221h-60v322h59l102 -158l102 158h59v-322h-60v221l-79 -120h-44z" />
    <glyph glyph-name="Omega" unicode="&#x2126;" horiz-adv-x="716" 
d="M358 712q75 0 133.5 -26.5t98 -73t60.5 -108.5t21 -134q0 -100 -37.5 -171.5t-99.5 -120.5h128v-78h-242v78q78 54 119.5 125t41.5 167q0 52 -15 99.5t-43.5 83.5t-70 57.5t-94.5 21.5t-94.5 -21.5t-70 -57.5t-43.5 -83.5t-15 -99.5q0 -96 41.5 -167t119.5 -125v-78h-242
v78h128q-62 49 -99.5 120.5t-37.5 171.5q0 72 21 134t60.5 108.5t98 73t133.5 26.5z" />
    <glyph glyph-name="estimated" unicode="&#x212e;" horiz-adv-x="738" 
d="M404 36q66 0 123.5 20.5t105.5 49.5l12 -59q-48 -25 -110.5 -42t-132.5 -17q-99 0 -167 28.5t-110.5 78t-61 115.5t-18.5 140t22 139.5t64 115t103.5 78.5t140.5 29q76 0 135.5 -29t100 -79t61.5 -117t21 -143v-21h-499v-222q36 -31 88 -48t122 -17zM372 663
q-54 0 -99 -20.5t-79 -53.5v-217h355v220q-33 32 -77.5 51.5t-99.5 19.5z" />
    <glyph glyph-name="onethird" unicode="&#x2153;" horiz-adv-x="950" 
d="M98 547l-39 60l129 94h65v-464h-74v369zM268 -15h-78l392 730h78zM651 277q69 0 109.5 19t40.5 53q0 28 -20 42t-65 14q-54 0 -108 -30l-7 71q25 12 56.5 19.5t61.5 7.5q77 0 117.5 -31.5t40.5 -85.5q0 -43 -20 -69t-52 -41q36 -17 57.5 -45t21.5 -71q0 -62 -46 -99
t-123 -37q-26 0 -60 5t-62 17l6 75q25 -16 56.5 -22.5t56.5 -6.5q48 0 72 18t24 50q0 42 -44 61.5t-113 19.5v66z" />
    <glyph glyph-name="twothirds" unicode="&#x2154;" horiz-adv-x="950" 
d="M651 277q69 0 109.5 19t40.5 53q0 28 -20 42t-65 14q-54 0 -108 -30l-7 71q25 12 56.5 19.5t61.5 7.5q77 0 117.5 -31.5t40.5 -85.5q0 -43 -20 -69t-52 -41q36 -17 57.5 -45t21.5 -71q0 -62 -46 -99t-123 -37q-26 0 -60 5t-62 17l6 75q25 -16 56.5 -22.5t56.5 -6.5
q48 0 72 18t24 50q0 42 -44 61.5t-113 19.5v66zM315 -15h-78l392 730h78zM38 237v62q36 31 75 69t74 76q35 39 50 71t15 62q0 32 -22.5 47.5t-60.5 15.5q-27 0 -56 -10t-54 -26l-5 73q23 13 56 22t64 9q70 -1 112 -33.5t42 -98.5q0 -40 -18.5 -80.5t-59.5 -85.5
q-31 -34 -57 -60t-49 -47h188v-66h-294z" />
    <glyph glyph-name="onefifth" unicode="&#x2155;" horiz-adv-x="950" 
d="M275 -15h-78l392 730h78zM612 464h263v-66h-193v-109q11 3 24.5 4.5t27.5 1.5q31 0 59.5 -9t50 -27.5t34.5 -45.5t13 -63q0 -71 -47 -114t-128 -43q-26 0 -58.5 5t-61.5 17l6 76q49 -30 108 -30q51 0 78 25t27 66t-25.5 59t-73.5 18q-27 0 -53.5 -5t-50.5 -14v254z
M98 547l-39 60l129 94h65v-464h-74v369z" />
    <glyph glyph-name="twofifths" unicode="&#x2156;" horiz-adv-x="950" 
d="M310 -15h-78l392 730h78zM612 464h263v-66h-193v-109q11 3 24.5 4.5t27.5 1.5q31 0 59.5 -9t50 -27.5t34.5 -45.5t13 -63q0 -71 -47 -114t-128 -43q-26 0 -58.5 5t-61.5 17l6 76q49 -30 108 -30q51 0 78 25t27 66t-25.5 59t-73.5 18q-27 0 -53.5 -5t-50.5 -14v254z
M38 237v62q36 31 75 69t74 76q35 39 50 71t15 62q0 32 -22.5 47.5t-60.5 15.5q-27 0 -56 -10t-54 -26l-5 73q23 13 56 22t64 9q70 -1 112 -33.5t42 -98.5q0 -40 -18.5 -80.5t-59.5 -85.5q-31 -34 -57 -60t-49 -47h188v-66h-294z" />
    <glyph glyph-name="threefifths" unicode="&#x2157;" horiz-adv-x="950" 
d="M306 -15h-78l392 730h78zM612 464h263v-66h-193v-109q11 3 24.5 4.5t27.5 1.5q31 0 59.5 -9t50 -27.5t34.5 -45.5t13 -63q0 -71 -47 -114t-128 -43q-26 0 -58.5 5t-61.5 17l6 76q49 -30 108 -30q51 0 78 25t27 66t-25.5 59t-73.5 18q-27 0 -53.5 -5t-50.5 -14v254z
M102 512q69 0 109.5 19t40.5 53q0 28 -20 42t-65 14q-54 0 -108 -30l-7 71q25 12 56.5 19.5t61.5 7.5q77 0 117.5 -31.5t40.5 -85.5q0 -43 -20 -69t-52 -41q36 -17 57.5 -45t21.5 -71q0 -62 -46 -99t-123 -37q-26 0 -60 5t-62 17l6 75q25 -16 56.5 -22.5t56.5 -6.5
q48 0 72 18t24 50q0 42 -44 61.5t-113 19.5v66z" />
    <glyph glyph-name="fourfifths" unicode="&#x2158;" horiz-adv-x="950" 
d="M310 -15h-78l392 730h78zM612 464h263v-66h-193v-109q11 3 24.5 4.5t27.5 1.5q31 0 59.5 -9t50 -27.5t34.5 -45.5t13 -63q0 -71 -47 -114t-128 -43q-26 0 -58.5 5t-61.5 17l6 76q49 -30 108 -30q51 0 78 25t27 66t-25.5 59t-73.5 18q-27 0 -53.5 -5t-50.5 -14v254z
M17 336v68l214 296h76v-298h56v-66h-56v-99h-74v99h-216zM99 402h134v187z" />
    <glyph glyph-name="onesixth" unicode="&#x2159;" horiz-adv-x="950" 
d="M271 -15h-78l392 730h78zM736 -6q-83 0 -127.5 56t-44.5 165q0 69 13.5 118t38.5 80t60 45.5t78 14.5q28 0 57 -6t52 -17l-8 -74q-20 14 -44.5 21.5t-53.5 7.5q-49 0 -78.5 -30t-34.5 -102q36 36 99 36q68 0 109.5 -43.5t41.5 -118.5q0 -35 -12 -63t-33 -48t-50 -31
t-63 -11zM643 187q0 -67 25.5 -96t66.5 -29t62 25t21 62q0 42 -20.5 67t-62.5 25q-33 0 -55.5 -15t-36.5 -39zM98 547l-39 60l129 94h65v-464h-74v369z" />
    <glyph glyph-name="fivesixths" unicode="&#x215a;" horiz-adv-x="950" 
d="M310 -15h-78l392 730h78zM68 700h263v-66h-193v-109q11 3 24.5 4.5t27.5 1.5q31 0 59.5 -9t50 -27.5t34.5 -45.5t13 -63q0 -71 -47 -114t-128 -43q-26 0 -58.5 5t-61.5 17l6 76q49 -30 108 -30q51 0 78 25t27 66t-25.5 59t-73.5 18q-27 0 -53.5 -5t-50.5 -14v254zM736 -6
q-83 0 -127.5 56t-44.5 165q0 69 13.5 118t38.5 80t60 45.5t78 14.5q28 0 57 -6t52 -17l-8 -74q-20 14 -44.5 21.5t-53.5 7.5q-49 0 -78.5 -30t-34.5 -102q36 36 99 36q68 0 109.5 -43.5t41.5 -118.5q0 -35 -12 -63t-33 -48t-50 -31t-63 -11zM643 187q0 -67 25.5 -96
t66.5 -29t62 25t21 62q0 42 -20.5 67t-62.5 25q-33 0 -55.5 -15t-36.5 -39z" />
    <glyph glyph-name="oneeighth" unicode="&#x215b;" horiz-adv-x="950" 
d="M283 -15h-78l392 730h78zM658 353q0 -23 15 -40t61 -36q35 17 49.5 36.5t14.5 40.5q0 22 -18.5 36.5t-52.5 14.5q-33 0 -51 -15t-18 -37zM816 126q0 25 -20.5 46t-78.5 43q-41 -17 -55.5 -40.5t-14.5 -48.5q0 -27 22.5 -45t61.5 -18t62 18t23 45zM731 -6q-36 0 -65.5 9.5
t-50.5 27.5t-32.5 42.5t-11.5 54.5q0 37 20 68t58 51q-31 20 -49 46t-18 58q0 28 11.5 51t31 38.5t46 24t56.5 8.5q31 0 57.5 -8.5t46.5 -24.5t31.5 -38t11.5 -50q0 -33 -19 -59.5t-51 -44.5q88 -46 88 -120q0 -30 -12 -54.5t-33 -42.5t-50.5 -27.5t-65.5 -9.5zM98 547
l-39 60l129 94h65v-464h-74v369z" />
    <glyph glyph-name="threeeighths" unicode="&#x215c;" horiz-adv-x="950" 
d="M305 -15h-78l392 730h78zM658 353q0 -23 15 -40t61 -36q35 17 49.5 36.5t14.5 40.5q0 22 -18.5 36.5t-52.5 14.5q-33 0 -51 -15t-18 -37zM816 126q0 25 -20.5 46t-78.5 43q-41 -17 -55.5 -40.5t-14.5 -48.5q0 -27 22.5 -45t61.5 -18t62 18t23 45zM731 -6q-36 0 -65.5 9.5
t-50.5 27.5t-32.5 42.5t-11.5 54.5q0 37 20 68t58 51q-31 20 -49 46t-18 58q0 28 11.5 51t31 38.5t46 24t56.5 8.5q31 0 57.5 -8.5t46.5 -24.5t31.5 -38t11.5 -50q0 -33 -19 -59.5t-51 -44.5q88 -46 88 -120q0 -30 -12 -54.5t-33 -42.5t-50.5 -27.5t-65.5 -9.5zM102 512
q69 0 109.5 19t40.5 53q0 28 -20 42t-65 14q-54 0 -108 -30l-7 71q25 12 56.5 19.5t61.5 7.5q77 0 117.5 -31.5t40.5 -85.5q0 -43 -20 -69t-52 -41q36 -17 57.5 -45t21.5 -71q0 -62 -46 -99t-123 -37q-26 0 -60 5t-62 17l6 75q25 -16 56.5 -22.5t56.5 -6.5q48 0 72 18t24 50
q0 42 -44 61.5t-113 19.5v66z" />
    <glyph glyph-name="fiveeighths" unicode="&#x215d;" horiz-adv-x="950" 
d="M306 -15h-78l392 730h78zM658 353q0 -23 15 -40t61 -36q35 17 49.5 36.5t14.5 40.5q0 22 -18.5 36.5t-52.5 14.5q-33 0 -51 -15t-18 -37zM816 126q0 25 -20.5 46t-78.5 43q-41 -17 -55.5 -40.5t-14.5 -48.5q0 -27 22.5 -45t61.5 -18t62 18t23 45zM731 -6q-36 0 -65.5 9.5
t-50.5 27.5t-32.5 42.5t-11.5 54.5q0 37 20 68t58 51q-31 20 -49 46t-18 58q0 28 11.5 51t31 38.5t46 24t56.5 8.5q31 0 57.5 -8.5t46.5 -24.5t31.5 -38t11.5 -50q0 -33 -19 -59.5t-51 -44.5q88 -46 88 -120q0 -30 -12 -54.5t-33 -42.5t-50.5 -27.5t-65.5 -9.5zM68 700h263
v-66h-193v-109q11 3 24.5 4.5t27.5 1.5q31 0 59.5 -9t50 -27.5t34.5 -45.5t13 -63q0 -71 -47 -114t-128 -43q-26 0 -58.5 5t-61.5 17l6 76q49 -30 108 -30q51 0 78 25t27 66t-25.5 59t-73.5 18q-27 0 -53.5 -5t-50.5 -14v254z" />
    <glyph glyph-name="seveneighths" unicode="&#x215e;" horiz-adv-x="950" 
d="M257 -15h-78l392 730h78zM658 353q0 -23 15 -40t61 -36q35 17 49.5 36.5t14.5 40.5q0 22 -18.5 36.5t-52.5 14.5q-33 0 -51 -15t-18 -37zM816 126q0 25 -20.5 46t-78.5 43q-41 -17 -55.5 -40.5t-14.5 -48.5q0 -27 22.5 -45t61.5 -18t62 18t23 45zM731 -6q-36 0 -65.5 9.5
t-50.5 27.5t-32.5 42.5t-11.5 54.5q0 37 20 68t58 51q-31 20 -49 46t-18 58q0 28 11.5 51t31 38.5t46 24t56.5 8.5q31 0 57.5 -8.5t46.5 -24.5t31.5 -38t11.5 -50q0 -33 -19 -59.5t-51 -44.5q88 -46 88 -120q0 -30 -12 -54.5t-33 -42.5t-50.5 -27.5t-65.5 -9.5zM177 237h-83
l172 397h-213v66h294v-66z" />
    <glyph glyph-name="uni215F" unicode="&#x215f;" horiz-adv-x="950" 
d="M264 -15h-78l392 730h78zM98 547l-39 60l129 94h65v-464h-74v369z" />
    <glyph glyph-name="arrowleft" unicode="&#x2190;" horiz-adv-x="860" 
d="M824 299h-614l49 -160l-223 193l223 193l-49 -160h614v-66z" />
    <glyph glyph-name="arrowup" unicode="&#x2191;" horiz-adv-x="860" 
d="M397 -38v614l-160 -49l193 223l193 -223l-160 49v-614h-66z" />
    <glyph glyph-name="arrowright" unicode="&#x2192;" horiz-adv-x="860" 
d="M36 365h614l-49 160l223 -193l-223 -193l49 160h-614v66z" />
    <glyph glyph-name="arrowdown" unicode="&#x2193;" horiz-adv-x="860" 
d="M463 750v-614l160 49l-193 -223l-193 223l160 -49v614h66z" />
    <glyph glyph-name="arrowboth" unicode="&#x2194;" horiz-adv-x="860" 
d="M259 139l-223 193l223 193l-49 -160h440l-49 160l223 -193l-223 -193l49 160h-440z" />
    <glyph glyph-name="arrowupdn" unicode="&#x2195;" horiz-adv-x="860" 
d="M623 185l-193 -223l-193 223l160 -49v440l-160 -49l193 223l193 -223l-160 49v-440z" />
    <glyph glyph-name="arrowupdnbse" unicode="&#x21a8;" horiz-adv-x="860" 
d="M623 -24v-64h-386v64h181l-181 209l160 -49v440l-160 -49l193 223l193 -223l-160 49v-440l160 49l-181 -209h181z" />
    <glyph glyph-name="partialdiff" unicode="&#x2202;" horiz-adv-x="580" 
d="M452 451q0 48 -10.5 81.5t-30 55t-46 31t-59.5 9.5q-32 0 -65 -9.5t-59 -26.5l-7 85q26 14 63 22.5t75 8.5q112 0 169.5 -69.5t57.5 -200.5q0 -99 -24 -181.5t-67 -142t-101 -93t-125 -33.5q-39 0 -72.5 13t-58 37.5t-38 60.5t-13.5 82q0 55 20 108t55.5 95t85 68
t109.5 26q45 0 82 -14.5t59 -41.5v29zM313 399q-43 0 -77 -19.5t-57 -51t-35.5 -72.5t-12.5 -83q0 -50 24 -77.5t69 -27.5q43 0 82 23.5t68 61.5t46.5 85.5t19.5 94.5q-20 32 -52.5 49t-74.5 17z" />
    <glyph glyph-name="Delta" unicode="&#x2206;" horiz-adv-x="646" 
d="M5 0l270 700h96l270 -700h-636zM515 78l-192 530l-192 -530h384z" />
    <glyph glyph-name="product" unicode="&#x220f;" horiz-adv-x="688" 
d="M608 -111h-88v773h-352v-773h-88v851h528v-851z" />
    <glyph glyph-name="summation" unicode="&#x2211;" horiz-adv-x="606" 
d="M258 331l-218 321v88h536v-78h-441l213 -313v-38l-213 -344h441v-78h-536v89z" />
    <glyph glyph-name="minus" unicode="&#x2212;" horiz-adv-x="618" 
d="M60 293v78h498v-78h-498z" />
    <glyph glyph-name="uni2215" unicode="&#x2215;" horiz-adv-x="468" 
d="M98 -15h-90l362 730h90z" />
    <glyph glyph-name="uni2219" unicode="&#x2219;" horiz-adv-x="270" 
d="M77 332q0 59 59 59t59 -59t-59 -59t-59 59z" />
    <glyph glyph-name="radical" unicode="&#x221a;" horiz-adv-x="703" 
d="M210 374l134 -293l150 689h69l-165 -770h-90l-144 313h-64v61h110z" />
    <glyph glyph-name="infinity" unicode="&#x221e;" horiz-adv-x="772" 
d="M562 472q68 0 109 -38t41 -102t-41 -102t-109 -38q-40 0 -84 18.5t-92 69.5q-48 -51 -92.5 -69.5t-83.5 -18.5q-68 0 -109 38t-41 102t41 102t109 38q39 0 83.5 -19t92.5 -70q48 51 92 70t84 19zM211 407q-38 0 -55.5 -21.5t-17.5 -53.5t17.5 -53.5t55.5 -21.5
q29 0 58.5 14t71.5 61q-42 47 -71.5 61t-58.5 14zM561 257q38 0 55.5 21.5t17.5 53.5t-17.5 53.5t-55.5 21.5q-15 0 -29.5 -3t-30 -11t-33 -22.5t-38.5 -38.5q21 -24 38.5 -38.5t33 -22.5t30 -11t29.5 -3z" />
    <glyph glyph-name="orthogonal" unicode="&#x221f;" horiz-adv-x="640" 
d="M620 0h-520v575h84v-503h436v-72z" />
    <glyph glyph-name="intersection" unicode="&#x2229;" horiz-adv-x="774" 
d="M387 617q75 0 129 -26t89 -72.5t52 -111t17 -141.5v-266h-84v266q0 72 -15 125t-42 87.5t-64 51.5t-82 17t-82 -17t-64 -51.5t-42 -87.5t-15 -125v-266h-84v266q0 77 17 141.5t52 111t89 72.5t129 26z" />
    <glyph glyph-name="integral" unicode="&#x222b;" horiz-adv-x="564" 
d="M324 -38q0 -90 -43 -136t-129 -46q-35 0 -72 8l9 73q24 -9 56 -9q51 0 73 26t22 91v599q0 90 43 136t129 46q35 0 72 -8l-9 -73q-24 9 -56 9q-51 0 -73 -26t-22 -91v-599z" />
    <glyph glyph-name="approxequal" unicode="&#x2248;" horiz-adv-x="618" 
d="M322 466q31 -22 51.5 -32t40.5 -10q23 0 38.5 16.5t17.5 66.5h88q0 -84 -40 -122.5t-104 -38.5q-31 0 -58.5 10t-59.5 33q-30 21 -52 31.5t-42 10.5q-23 0 -37.5 -16.5t-16.5 -66.5h-88q0 84 39 122.5t103 38.5q31 0 59.5 -10t60.5 -33zM322 275q31 -22 51.5 -32
t40.5 -10q23 0 38.5 16.5t17.5 66.5h88q0 -84 -40 -122.5t-104 -38.5q-31 0 -58.5 10t-59.5 33q-30 21 -52 31.5t-42 10.5q-23 0 -37.5 -16.5t-16.5 -66.5h-88q0 84 39 122.5t103 38.5q31 0 59.5 -10t60.5 -33z" />
    <glyph glyph-name="notequal" unicode="&#x2260;" horiz-adv-x="618" 
d="M481 647h82l-108 -160h103v-78h-156l-104 -154h260v-78h-313l-108 -160h-82l108 160h-103v78h156l104 154h-260v78h313z" />
    <glyph glyph-name="equivalence" unicode="&#x2261;" horiz-adv-x="618" 
d="M60 469v78h498v-78h-498zM60 117v78h498v-78h-498zM60 293v78h498v-78h-498z" />
    <glyph glyph-name="lessequal" unicode="&#x2264;" horiz-adv-x="618" 
d="M60 36v78h498v-78h-498zM60 440l498 203v-88l-395 -160l395 -160v-88l-498 203v90z" />
    <glyph glyph-name="greaterequal" unicode="&#x2265;" horiz-adv-x="618" 
d="M60 36v78h498v-78h-498zM558 350l-498 -203v88l395 160l-395 160v88l498 -203v-90z" />
    <glyph glyph-name="house" unicode="&#x2302;" horiz-adv-x="712" 
d="M528 70v228l-172 193l-172 -193v-228h344zM100 0v328l256 288l256 -288v-328h-512z" />
    <glyph glyph-name="revlogicalnot" unicode="&#x2310;" horiz-adv-x="618" 
d="M563 366h-408v-203h-90v281h498v-78z" />
    <glyph glyph-name="uni2318" unicode="&#x2318;" horiz-adv-x="917" 
d="M523 386h-129v-126h129v126zM314 452v51q0 37 -15.5 59t-50.5 22q-30 0 -48 -18.5t-18 -47.5q0 -37 23 -51.5t60 -14.5h49zM265 194q-37 0 -60 -14.5t-23 -51.5q0 -29 18 -47.5t48 -18.5q35 0 50.5 22t15.5 59v51h-49zM523 505q0 66 38 106.5t109 40.5q69 0 108 -38.5
t39 -95.5q0 -35 -12 -59.5t-33.5 -41t-50.5 -24t-62 -7.5h-56v-126h56q33 0 62 -7.5t50.5 -24t33.5 -41.5t12 -59q0 -57 -39 -95.5t-108 -38.5q-71 0 -109 40.5t-38 106.5v53h-129v-53q0 -66 -38 -106.5t-109 -40.5q-69 0 -108 38.5t-39 95.5q0 34 12 59t33.5 41.5t50.5 24
t62 7.5h56v126h-56q-33 0 -62 7.5t-50.5 24t-33.5 41t-12 59.5q0 57 39 95.5t108 38.5q71 0 109 -40.5t38 -106.5v-53h129v53zM652 452q37 0 60 14.5t23 51.5q0 29 -18 47.5t-48 18.5q-35 0 -50.5 -22t-15.5 -59v-51h49zM603 194v-51q0 -37 15.5 -59t50.5 -22q30 0 48 18.5
t18 47.5q0 37 -23 51.5t-60 14.5h-49z" />
    <glyph glyph-name="integraltp" unicode="&#x2320;" horiz-adv-x="685" 
d="M479 662q-15 0 -25.5 -24t-17.5 -62.5t-11.5 -87.5t-7 -99t-3 -97t-0.5 -81v-211h-94v164q0 22 1 60t4 84.5t8 97.5t13 99q8 45 21.5 82.5t34.5 65.5t49.5 43.5t66.5 15.5q39 0 63 -20t24 -52q0 -26 -15 -41t-42 -15q-20 0 -34 9.5t-19 24.5q-4 12 -4 29q0 15 -12 15z
" />
    <glyph glyph-name="integralbt" unicode="&#x2321;" horiz-adv-x="685" 
d="M255 337q15 0 25.5 24t17.5 62.5t11.5 87.5t7 99t3 96.5t0.5 81.5v211h94v-164q0 -22 -1 -60t-4 -84.5t-8 -97.5t-13 -99q-8 -45 -21.5 -82.5t-34.5 -65.5t-49.5 -43.5t-66.5 -15.5q-39 0 -63 20t-24 52q0 26 15 41t42 15q20 0 34 -9.5t19 -24.5q4 -12 4 -29
q0 -15 12 -15z" />
    <glyph glyph-name="SF100000" unicode="&#x2500;" 
d="M1000 270h-1000v60h1000v-60z" />
    <glyph glyph-name="SF110000" unicode="&#x2502;" 
d="M530 910v-1220h-60v1220h60z" />
    <glyph glyph-name="SF010000" unicode="&#x250c;" 
d="M470 330h530v-60h-470v-580h-60v640z" />
    <glyph glyph-name="SF030000" unicode="&#x2510;" 
d="M530 -310h-60v580h-470v60h530v-640z" />
    <glyph glyph-name="SF020000" unicode="&#x2514;" 
d="M470 910h60v-580h470v-60h-530v640z" />
    <glyph glyph-name="SF040000" unicode="&#x2518;" 
d="M530 270h-530v60h470v580h60v-640z" />
    <glyph glyph-name="SF080000" unicode="&#x251c;" 
d="M530 910v-580h470v-60h-470v-580h-60v1220h60z" />
    <glyph glyph-name="SF090000" unicode="&#x2524;" 
d="M530 -310h-60v580h-470v60h470v580h60v-1220z" />
    <glyph glyph-name="SF060000" unicode="&#x252c;" 
d="M1000 270h-470v-580h-60v580h-470v60h1000v-60z" />
    <glyph glyph-name="SF070000" unicode="&#x2534;" 
d="M0 270v60h470v580h60v-580h470v-60h-1000z" />
    <glyph glyph-name="SF050000" unicode="&#x253c;" 
d="M530 910v-580h470v-60h-470v-580h-60v580h-470v60h470v580h60z" />
    <glyph glyph-name="SF430000" unicode="&#x2550;" 
d="M0 390h1000v-60h-1000v60zM0 270h1000v-60h-1000v60z" />
    <glyph glyph-name="SF240000" unicode="&#x2551;" 
d="M410 910h60v-1220h-60v1220zM530 910h60v-1220h-60v1220z" />
    <glyph glyph-name="SF510000" unicode="&#x2552;" 
d="M1000 330h-470v-60h470v-60h-470v-520h-60v700h530v-60z" />
    <glyph glyph-name="SF520000" unicode="&#x2553;" 
d="M470 -310h-60v640h590v-60h-410v-580h-60v580h-60v-580z" />
    <glyph glyph-name="SF390000" unicode="&#x2554;" 
d="M1000 330h-530v-640h-60v700h590v-60zM1000 210h-410v-520h-60v580h470v-60z" />
    <glyph glyph-name="SF220000" unicode="&#x2555;" 
d="M0 390h530v-700h-60v520h-470v60h470v60h-470v60z" />
    <glyph glyph-name="SF210000" unicode="&#x2556;" 
d="M530 270h-60v-580h-60v580h-410v60h590v-640h-60v580z" />
    <glyph glyph-name="SF250000" unicode="&#x2557;" 
d="M0 390h590v-700h-60v640h-530v60zM0 270h470v-580h-60v520h-410v60z" />
    <glyph glyph-name="SF500000" unicode="&#x2558;" 
d="M1000 210h-530v700h60v-520h470v-60h-470v-60h470v-60z" />
    <glyph glyph-name="SF490000" unicode="&#x2559;" 
d="M410 910h60v-580h60v580h60v-580h410v-60h-590v640z" />
    <glyph glyph-name="SF380000" unicode="&#x255a;" 
d="M410 910h60v-640h530v-60h-590v700zM530 910h60v-520h410v-60h-470v580z" />
    <glyph glyph-name="SF280000" unicode="&#x255b;" 
d="M0 270h471v60h-471v60h470v520h60v-700h-530v60z" />
    <glyph glyph-name="SF270000" unicode="&#x255c;" 
d="M590 270h-590v60h410v580h60v-580h60v580h60v-640z" />
    <glyph glyph-name="SF260000" unicode="&#x255d;" 
d="M470 330h-470v60h410v520h60v-580zM590 210h-590v60h530v640h60v-700z" />
    <glyph glyph-name="SF360000" unicode="&#x255e;" 
d="M470 910h60v-520h470v-60h-470v-60h470v-60h-470v-520h-60v1220z" />
    <glyph glyph-name="SF370000" unicode="&#x255f;" 
d="M1000 270h-410v-580h-60v1220h60v-580h410v-60zM470 -310h-60v1220h60v-1220z" />
    <glyph glyph-name="SF420000" unicode="&#x2560;" 
d="M410 910h60v-1220h-60v1220zM530 270h470v-60h-410v-520h-60v580zM530 910h60v-520h410v-60h-470v580z" />
    <glyph glyph-name="SF190000" unicode="&#x2561;" 
d="M530 -310h-60v520h-470v60h470v60h-470v60h470v520h60v-1220z" />
    <glyph glyph-name="SF200000" unicode="&#x2562;" 
d="M0 330h410v580h60v-1220h-60v580h-410v60zM530 910h60v-1220h-60v1220z" />
    <glyph glyph-name="SF230000" unicode="&#x2563;" 
d="M530 910h60v-1220h-60v1220zM0 270h470v-580h-60v520h-410v60zM0 390h410v520h60v-580h-470v60z" />
    <glyph glyph-name="SF470000" unicode="&#x2564;" 
d="M0 270h1000v-60h-470v-520h-60v520h-470v60zM0 390h1000v-60h-1000v60z" />
    <glyph glyph-name="SF480000" unicode="&#x2565;" 
d="M0 330h1000v-60h-410v-580h-60v580h-60v-580h-60v580h-410v60z" />
    <glyph glyph-name="SF410000" unicode="&#x2566;" 
d="M0 390h1000v-60h-1000v60zM0 270h470v-580h-60v520h-410v60zM530 270h470v-60h-410v-520h-60v580z" />
    <glyph glyph-name="SF450000" unicode="&#x2567;" 
d="M0 390h470v520h60v-520h470v-60h-1000v60zM0 270h1000v-60h-1000v60z" />
    <glyph glyph-name="SF460000" unicode="&#x2568;" 
d="M0 330h410v580h60v-580h60v580h60v-580h410v-60h-1000v60z" />
    <glyph glyph-name="SF400000" unicode="&#x2569;" 
d="M0 270h1000v-60h-1000v60zM0 390h410v520h60v-580h-470v60zM530 910h60v-520h410v-60h-470v580z" />
    <glyph glyph-name="SF540000" unicode="&#x256a;" 
d="M0 390h470v520h60v-520h470v-60h-470v-60h470v-60h-470v-520h-60v520h-470v60h470v60h-470v60z" />
    <glyph glyph-name="SF530000" unicode="&#x256b;" 
d="M0 330h410v580h60v-580h60v580h60v-580h410v-60h-410v-580h-60v580h-60v-580h-60v580h-410v60z" />
    <glyph glyph-name="SF440000" unicode="&#x256c;" 
d="M0 270h470v-580h-60v520h-410v60zM530 270h470v-60h-410v-520h-60v580zM0 390h410v520h60v-580h-470v60zM530 910h60v-520h410v-60h-470v580z" />
    <glyph glyph-name="uni256D" unicode="&#x256d;" 
d="M470 -310v447q0 50 6.5 86.5t24 60t48 35t78.5 11.5h373v-60h-373q-58 0 -77.5 -34.5t-19.5 -98.5v-447h-60z" />
    <glyph glyph-name="uni256E" unicode="&#x256e;" 
d="M470 -310v447q0 64 -19.5 98.5t-77.5 34.5h-373v60h373q48 0 79 -11.5t48 -35t23.5 -60t6.5 -86.5v-447h-60z" />
    <glyph glyph-name="uni256F" unicode="&#x256f;" 
d="M530 910v-445q0 -50 -6.5 -86.5t-23.5 -60.5t-47.5 -36t-78.5 -12h-374v60h374q29 0 47.5 9t29.5 26t15 42t4 58v445h60z" />
    <glyph glyph-name="uni2570" unicode="&#x2570;" 
d="M530 910v-445q0 -65 19.5 -100t77.5 -35h373v-60h-373q-48 0 -78.5 12t-48 36t-24 60.5t-6.5 86.5v445h60z" />
    <glyph glyph-name="uni2571" unicode="&#x2571;" 
d="M922 905h78l-922 -1210h-78z" />
    <glyph glyph-name="uni2572" unicode="&#x2572;" 
d="M1000 -305h-78l-922 1210h78z" />
    <glyph glyph-name="uni2573" unicode="&#x2573;" 
d="M461 300l-461 605h78l422 -554l422 554h78l-461 -605l461 -605h-78l-422 554l-422 -554h-78z" />
    <glyph glyph-name="uni2574" unicode="&#x2574;" 
d="M500 330v-60h-500v60h500z" />
    <glyph glyph-name="uni2575" unicode="&#x2575;" 
d="M530 300h-60v610h60v-610z" />
    <glyph glyph-name="uni2576" unicode="&#x2576;" 
d="M1000 330v-60h-500v60h500z" />
    <glyph glyph-name="uni2577" unicode="&#x2577;" 
d="M530 -310h-60v610h60v-610z" />
    <glyph glyph-name="uni2578" unicode="&#x2578;" 
d="M500 367v-134h-500v134h500z" />
    <glyph glyph-name="uni2579" unicode="&#x2579;" 
d="M567 300h-134v610h134v-610z" />
    <glyph glyph-name="uni257A" unicode="&#x257a;" 
d="M1000 367v-134h-500v134h500z" />
    <glyph glyph-name="uni257B" unicode="&#x257b;" 
d="M567 -310h-134v610h134v-610z" />
    <glyph glyph-name="uni257C" unicode="&#x257c;" 
d="M1000 367v-134h-500v37h-500v60h500v37h500z" />
    <glyph glyph-name="uni257D" unicode="&#x257d;" 
d="M567 -310h-134v610h37v610h60v-610h37v-610z" />
    <glyph glyph-name="uni257E" unicode="&#x257e;" 
d="M500 367v-37h500v-60h-500v-37h-500v134h500z" />
    <glyph glyph-name="uni257F" unicode="&#x257f;" 
d="M567 300h-37v-610h-60v610h-37v610h134v-610z" />
    <glyph glyph-name="upblock" unicode="&#x2580;" 
d="M0 300v500h1000v-500h-1000z" />
    <glyph glyph-name="dnblock" unicode="&#x2584;" 
d="M0 -200v500h1000v-500h-1000z" />
    <glyph glyph-name="block" unicode="&#x2588;" 
d="M0 -200v1000h1000v-1000h-1000z" />
    <glyph glyph-name="lfblock" unicode="&#x258c;" 
d="M0 800h500v-1000h-500v1000z" />
    <glyph glyph-name="rtblock" unicode="&#x2590;" 
d="M500 800h500v-1000h-500v1000z" />
    <glyph glyph-name="ltshade" unicode="&#x2591;" 
d="M15 474h51v-51h-51v51zM117 474h51v-51h-51v51zM219 474h51v-51h-51v51zM321 474h51v-51h-51v51zM423 474h51v-51h-51v51zM15 372h51v-51h-51v51zM117 372h51v-51h-51v51zM219 372h51v-51h-51v51zM321 372h51v-51h-51v51zM423 372h51v-51h-51v51zM15 270h51v-51h-51v51z
M117 270h51v-51h-51v51zM219 270h51v-51h-51v51zM321 270h51v-51h-51v51zM423 270h51v-51h-51v51zM525 474h51v-51h-51v51zM627 474h51v-51h-51v51zM729 474h51v-51h-51v51zM831 474h51v-51h-51v51zM933 474h51v-51h-51v51zM525 372h51v-51h-51v51zM627 372h51v-51h-51v51z
M729 372h51v-51h-51v51zM831 372h51v-51h-51v51zM933 372h51v-51h-51v51zM525 270h51v-51h-51v51zM627 270h51v-51h-51v51zM729 270h51v-51h-51v51zM831 270h51v-51h-51v51zM933 270h51v-51h-51v51zM15 780h51v-51h-51v51zM117 780h51v-51h-51v51zM219 780h51v-51h-51v51z
M321 780h51v-51h-51v51zM423 780h51v-51h-51v51zM15 678h51v-51h-51v51zM117 678h51v-51h-51v51zM219 678h51v-51h-51v51zM321 678h51v-51h-51v51zM423 678h51v-51h-51v51zM15 576h51v-51h-51v51zM117 576h51v-51h-51v51zM219 576h51v-51h-51v51zM321 576h51v-51h-51v51z
M423 576h51v-51h-51v51zM525 780h51v-51h-51v51zM627 780h51v-51h-51v51zM729 780h51v-51h-51v51zM831 780h51v-51h-51v51zM933 780h51v-51h-51v51zM525 678h51v-51h-51v51zM627 678h51v-51h-51v51zM729 678h51v-51h-51v51zM831 678h51v-51h-51v51zM933 678h51v-51h-51v51z
M525 576h51v-51h-51v51zM627 576h51v-51h-51v51zM729 576h51v-51h-51v51zM831 576h51v-51h-51v51zM933 576h51v-51h-51v51zM15 -138h51v-51h-51v51zM117 -138h51v-51h-51v51zM219 -138h51v-51h-51v51zM321 -138h51v-51h-51v51zM423 -138h51v-51h-51v51zM525 -138h51v-51h-51
v51zM627 -138h51v-51h-51v51zM729 -138h51v-51h-51v51zM831 -138h51v-51h-51v51zM933 -138h51v-51h-51v51zM15 168h51v-51h-51v51zM117 168h51v-51h-51v51zM219 168h51v-51h-51v51zM321 168h51v-51h-51v51zM423 168h51v-51h-51v51zM15 66h51v-51h-51v51zM117 66h51v-51h-51
v51zM219 66h51v-51h-51v51zM321 66h51v-51h-51v51zM423 66h51v-51h-51v51zM15 -36h51v-51h-51v51zM117 -36h51v-51h-51v51zM219 -36h51v-51h-51v51zM321 -36h51v-51h-51v51zM423 -36h51v-51h-51v51zM525 168h51v-51h-51v51zM627 168h51v-51h-51v51zM729 168h51v-51h-51v51z
M831 168h51v-51h-51v51zM933 168h51v-51h-51v51zM525 66h51v-51h-51v51zM627 66h51v-51h-51v51zM729 66h51v-51h-51v51zM831 66h51v-51h-51v51zM933 66h51v-51h-51v51zM525 -36h51v-51h-51v51zM627 -36h51v-51h-51v51zM729 -36h51v-51h-51v51zM831 -36h51v-51h-51v51z
M933 -36h51v-51h-51v51z" />
    <glyph glyph-name="shade" unicode="&#x2592;" 
d="M66 423h51v-51h51v-51h51v-51h51v-51h51v-51h51v-51h51v-51h51v-51h51v-51h51v-51h51v-51h51v-51h-51v51h-51v51h-51v51h-51v51h-51v51h-51v51h-51v51h-51v51h-51v51h-51v51h-51v51h-51v51h-51v51h51v-51zM168 423h51v-51h51v-51h51v-51h51v-51h51v-51h51v-51h51v-51h51
v-51h51v-51h51v-51h51v-51h51v-51h-51v51h-51v51h-51v51h-51v51h-51v51h-51v51h-51v51h-51v51h-51v51h-51v51h-51v51h-51v51h-51v51h51v-51zM270 423h51v-51h51v-51h51v-51h51v-51h51v-51h51v-51h51v-51h51v-51h51v-51h51v-51h51v-51h51v-51h-51v51h-51v51h-51v51h-51v51
h-51v51h-51v51h-51v51h-51v51h-51v51h-51v51h-51v51h-51v51h-51v51h51v-51zM372 423h51v-51h51v-51h51v-51h51v-51h51v-51h51v-51h51v-51h51v-51h51v-51h51v-51h51v-51h51v-51h-51v51h-51v51h-51v51h-51v51h-51v51h-51v51h-51v51h-51v51h-51v51h-51v51h-51v51h-51v51h-51v51
h51v-51zM474 423h51v-51h51v-51h51v-51h51v-51h51v-51h51v-51h51v-51h51v-51h51v-51h51v-51h-51v51h-51v51h-51v51h-51v51h-51v51h-51v51h-51v51h-51v51h-51v51h-51v51h-51v51h51v-51zM66 321h51v-51h51v-51h51v-51h51v-51h51v-51h51v-51h51v-51h51v-51h51v-51h51v-51h-51
v51h-51v51h-51v51h-51v51h-51v51h-51v51h-51v51h-51v51h-51v51h-51v51h-51v51h51v-51zM66 219h51v-51h51v-51h51v-51h51v-51h51v-51h51v-51h51v-51h51v-51h-51v51h-51v51h-51v51h-51v51h-51v51h-51v51h-51v51h-51v51h-51v51h51v-51zM576 423h51v-51h51v-51h51v-51h51v-51h51
v-51h51v-51h51v-51h51v-51h-51v51h-51v51h-51v51h-51v51h-51v51h-51v51h-51v51h-51v51h-51v51h51v-51zM678 423h51v-51h51v-51h51v-51h51v-51h51v-51h51v-51h-51v51h-51v51h-51v51h-51v51h-51v51h-51v51h-51v51h51v-51zM15 168h51v-51h51v-51h51v-51h51v-51h51v-51h51v-51
h-51v51h-51v51h-51v51h-51v51h-51v51h-51v51zM423 780h51v-51h51v-51h51v-51h51v-51h51v-51h51v-51h-51v51h-51v51h-51v51h-51v51h-51v51h-51v51zM117 780h51v-51h51v-51h51v-51h51v-51h51v-51h51v-51h-51v51h-51v51h-51v51h-51v51h-51v51h-51v51zM525 780h51v-51h51v-51h51
v-51h51v-51h51v-51h51v-51h-51v51h-51v51h-51v51h-51v51h-51v51h-51v51zM627 780h51v-51h51v-51h51v-51h51v-51h51v-51h51v-51h-51v51h-51v51h-51v51h-51v51h-51v51h-51v51zM219 780h51v-51h51v-51h51v-51h51v-51h51v-51h51v-51h-51v51h-51v51h-51v51h-51v51h-51v51h-51v51z
M15 780h51v-51h51v-51h51v-51h51v-51h51v-51h51v-51h-51v51h-51v51h-51v51h-51v51h-51v51h-51v51zM321 780h51v-51h51v-51h51v-51h51v-51h51v-51h51v-51h-51v51h-51v51h-51v51h-51v51h-51v51h-51v51zM780 423h51v-51h51v-51h51v-51h51v-51h-51v51h-51v51h-51v51h-51v51h-51
v51h51v-51zM780 729h51v-51h51v-51h51v-51h51v-51h-51v51h-51v51h-51v51h-51v51h-51v51h51v-51zM15 678h51v-51h51v-51h51v-51h51v-51h-51v51h-51v51h-51v51h-51v51zM15 66h51v-51h51v-51h51v-51h51v-51h-51v51h-51v51h-51v51h-51v51zM882 729h51v-51h51v-51h-51v51h-51v51
h-51v51h51v-51zM882 423h51v-51h51v-51h-51v51h-51v51h-51v51h51v-51zM15 -36h51v-51h51v-51h-51v51h-51v51zM15 576h51v-51h51v-51h-51v51h-51v51zM321 -138h51v-51h-51v51zM117 -138h51v-51h-51v51zM15 -138h51v-51h-51v51zM219 -138h51v-51h-51v51zM933 474h51v-51h-51
v51zM933 780h51v-51h-51v51z" />
    </font>
</defs>
</svg>
