<?xml version="1.0" standalone="no"?>
<!DOCTYPE svg PUBLIC "-//W3C//DTD SVG 1.1//EN" "http://www.w3.org/Graphics/SVG/1.1/DTD/svg11.dtd" >
<svg xmlns="http://www.w3.org/2000/svg" xmlns:xlink="http://www.w3.org/1999/xlink" version="1.1">
<metadata>
Created by FontForge 20170731 at Tue Oct 22 18:08:13 2013
 By Aleksey,,,
Copyright (c) 2012 S-Core. All rights reserved.
</metadata>
<defs>
<font id="CoreSansN-35LightItalic" horiz-adv-x="1000" >
  <font-face 
    font-family="Core Sans N"
    font-weight="300"
    font-style="italic"
    font-stretch="normal"
    units-per-em="1000"
    panose-1="2 11 3 3 3 3 2 2 2 4"
    ascent="800"
    descent="-200"
    x-height="518"
    cap-height="700"
    bbox="-433 -310 1050 999"
    underline-thickness="24"
    underline-position="-231"
    unicode-range="U+000D-FB04"
  />
<missing-glyph horiz-adv-x="300" 
 />
    <glyph glyph-name="f_f" unicode="ff" horiz-adv-x="631" 
d="M470 551q17 90 65.5 134.5t121.5 44.5q42 0 71 -9l-18 -55q-12 5 -27.5 7.5t-31.5 2.5q-51 0 -80 -30.5t-43 -103.5l-5 -24h151l-10 -52h-151l-128 -659h-60l128 659h-231l-128 -659h-60l128 659h-110l10 52h110l7 34q34 178 201 178q20 0 43 -3t41 -9l-18 -55
q-15 7 -33.5 10t-38.5 3q-60 0 -91.5 -30.5t-45.5 -103.5l-5 -24h231z" />
    <glyph glyph-name="f_f_i" unicode="ffi" horiz-adv-x="853" 
d="M718 0h-60l100 518h60zM829 730q20 0 26.5 -12t1.5 -41t-16.5 -41t-31.5 -12t-26.5 12t-1.5 41t16.5 41t31.5 12zM470 551q17 90 65.5 134.5t121.5 44.5q42 0 71 -9l-18 -55q-12 5 -27.5 7.5t-31.5 2.5q-51 0 -80 -30.5t-43 -103.5l-5 -24h151l-10 -52h-151l-128 -659
h-60l128 659h-231l-128 -659h-60l128 659h-110l10 52h110l7 34q34 178 201 178q20 0 43 -3t41 -9l-18 -55q-15 7 -33.5 10t-38.5 3q-60 0 -91.5 -30.5t-45.5 -103.5l-5 -24h231z" />
    <glyph glyph-name="f_f_l" unicode="ffl" horiz-adv-x="845" 
d="M799 730h60l-141 -730h-60zM470 551q17 90 65.5 134.5t121.5 44.5q42 0 71 -9l-18 -55q-12 5 -27.5 7.5t-31.5 2.5q-51 0 -80 -30.5t-43 -103.5l-5 -24h151l-10 -52h-151l-128 -659h-60l128 659h-231l-128 -659h-60l128 659h-110l10 52h110l7 34q34 178 201 178
q20 0 43 -3t41 -9l-18 -55q-15 7 -33.5 10t-38.5 3q-60 0 -91.5 -30.5t-45.5 -103.5l-5 -24h231z" />
    <glyph glyph-name="f_i" unicode="fi" horiz-adv-x="562" 
d="M179 551q17 90 65.5 134.5t121.5 44.5q42 0 71 -9l-18 -55q-12 5 -27.5 7.5t-31.5 2.5q-51 0 -80 -30.5t-43 -103.5l-5 -24h151l-10 -52h-151l-128 -659h-60l128 659h-110l10 52h110zM427 0h-60l100 518h60zM538 730q20 0 26.5 -12t1.5 -41t-16.5 -41t-31.5 -12t-26.5 12
t-1.5 41t16.5 41t31.5 12z" />
    <glyph glyph-name="f_l" unicode="fl" horiz-adv-x="554" 
d="M508 730h60l-141 -730h-60zM179 551q17 90 65.5 134.5t121.5 44.5q42 0 71 -9l-18 -55q-12 5 -27.5 7.5t-31.5 2.5q-51 0 -80 -30.5t-43 -103.5l-5 -24h151l-10 -52h-151l-128 -659h-60l128 659h-110l10 52h110z" />
    <glyph glyph-name=".notdef" horiz-adv-x="300" 
 />
    <glyph glyph-name=".null" horiz-adv-x="0" 
 />
    <glyph glyph-name="nonmarkingreturn" unicode="&#xd;" horiz-adv-x="237" 
 />
    <glyph glyph-name="NULL" horiz-adv-x="0" 
 />
    <glyph glyph-name="NULL" horiz-adv-x="0" 
 />
    <glyph glyph-name="space" unicode=" " horiz-adv-x="300" 
 />
    <glyph glyph-name="exclam" unicode="!" horiz-adv-x="260" 
d="M139 482l43 218h68l-43 -218l-75 -313h-40zM131 44q-6 -31 -19 -43.5t-35 -12.5t-30 12.5t-2 43.5t19 43.5t35 12.5t30 -12.5t2 -43.5z" />
    <glyph glyph-name="quotedbl" unicode="&#x22;" horiz-adv-x="435" 
d="M350 700h69l-10 -49l-56 -228h-50zM188 700h69l-10 -49l-57 -228h-49z" />
    <glyph glyph-name="numbersign" unicode="#" horiz-adv-x="684" 
d="M589 700h62l-64 -173h112l-11 -54h-121l-86 -232h121l-10 -54h-130l-68 -187h-62l68 187h-204l-69 -187h-62l69 187h-111l10 54h119l86 232h-119l11 54h128l64 173h62l-64 -173h205zM214 241h205l86 232h-205z" />
    <glyph glyph-name="dollar" unicode="$" horiz-adv-x="536" 
d="M401 777l-13 -65q43 -1 77.5 -7.5t64.5 -19.5l-18 -64q-31 17 -64 24t-71 9l-53 -270q92 -37 128 -83.5t21 -122.5q-15 -78 -73 -126.5t-152 -59.5l-13 -67h-51l12 63q-54 0 -101 12t-80 34l18 67q36 -27 80.5 -41t93.5 -14l57 290q-97 33 -134.5 80t-23.5 124
q7 36 26.5 65.5t49.5 51t69 35.5t86 18l13 67h51zM407 176q9 48 -12.5 81t-83.5 61l-52 -268q63 10 100.5 43t47.5 83zM173 541q-9 -46 14.5 -79.5t89.5 -59.5l48 250q-66 -8 -105 -37.5t-47 -73.5z" />
    <glyph glyph-name="percent" unicode="%" horiz-adv-x="885" 
d="M134 526q7 39 24.5 72.5t42.5 57.5t56.5 37.5t67.5 13.5t62.5 -13.5t42 -37.5t19.5 -57.5t-3 -72.5q-8 -39 -25 -72t-41.5 -57.5t-56.5 -38t-68 -13.5t-62 13.5t-42 38t-20.5 57.5t3.5 72zM195 526q-11 -59 7 -92.5t63 -33.5t77 33.5t43 92.5t-7.5 93t-63.5 34t-76.5 -34
t-42.5 -93zM475 173q8 39 25 72.5t42 57.5t56 37.5t67 13.5t62.5 -13.5t42 -37.5t20 -57.5t-3.5 -72.5t-25 -72t-41.5 -57.5t-56.5 -38t-68 -13.5t-62 13.5t-41.5 38t-20 57.5t3.5 72zM536 173q-11 -59 7 -92.5t63 -33.5t76.5 33.5t42.5 92.5t-7 93t-63 34t-76.5 -34
t-42.5 -93zM744 700h69l-635 -700h-70z" />
    <glyph glyph-name="ampersand" unicode="&#x26;" horiz-adv-x="642" 
d="M618 0h-82l-79 94q-50 -52 -113.5 -79.5t-138.5 -27.5q-44 0 -81 12t-61.5 35.5t-35.5 57.5t-2 79q13 69 60 118.5t134 88.5q-42 53 -58 94t-7 86q7 35 25.5 63.5t46 48.5t61 31t70.5 11q80 0 119.5 -44t25.5 -118q-11 -57 -55.5 -102.5t-131.5 -82.5l145 -175
q23 37 41 82.5t29 101.5h61q-14 -69 -37.5 -126.5t-55.5 -104.5zM86 169q-5 -27 1 -50.5t22.5 -40.5t43.5 -27t64 -10q59 0 111 23t94 71l-170 203q-80 -34 -117.5 -75.5t-48.5 -93.5zM440 550q10 48 -15 78.5t-79 30.5q-51 0 -86.5 -28.5t-43.5 -72.5q-3 -15 -2 -30.5
t8.5 -33t22 -39.5t37.5 -50q40 18 68.5 35t47 35t28.5 36.5t14 38.5z" />
    <glyph glyph-name="quotesingle" unicode="'" horiz-adv-x="262" 
d="M183 700h68l-10 -49l-56 -228h-50z" />
    <glyph glyph-name="parenleft" unicode="(" horiz-adv-x="343" 
d="M112 310q23 121 85 230.5t151 209.5h58q-88 -101 -149.5 -213t-83.5 -227q-23 -116 -5 -228t67 -212h-58q-51 99 -70 209t5 231z" />
    <glyph glyph-name="parenright" unicode=")" horiz-adv-x="343" 
d="M251 310q-24 -121 -85.5 -231t-151.5 -209h-58q88 100 149.5 212t84.5 228q22 115 4 227t-67 213h58q51 -100 70 -209.5t-4 -230.5z" />
    <glyph glyph-name="asterisk" unicode="*" horiz-adv-x="525" 
d="M478 253l-32 -55l-142 87l5 -166h-63l5 166l-142 -87l-32 55l147 79l-147 79l32 55l142 -87l-5 166h63l-5 -167l142 88l32 -55l-147 -79z" />
    <glyph glyph-name="plus" unicode="+" horiz-adv-x="612" 
d="M290 304h-213v56h213v213h62v-213h213v-56h-213v-213h-62v213z" />
    <glyph glyph-name="comma" unicode="," horiz-adv-x="292" 
d="M147 44q-6 -28 -13 -51t-18 -43.5t-27 -38t-39 -35.5l-13 23q41 41 53 89q-20 1 -27.5 13.5t-1.5 42.5q6 31 19 43.5t35 12.5t30 -12.5t2 -43.5z" />
    <glyph glyph-name="hyphen" unicode="-" horiz-adv-x="399" 
d="M70 301l12 62h275l-12 -62h-275z" />
    <glyph glyph-name="period" unicode="." horiz-adv-x="292" 
d="M147 44q-6 -31 -19 -43.5t-35 -12.5t-30 12.5t-2 43.5t19 43.5t35 12.5t30 -12.5t2 -43.5z" />
    <glyph glyph-name="slash" unicode="/" horiz-adv-x="479" 
d="M-15 -110h-64l596 858h65z" />
    <glyph glyph-name="zero" unicode="0" horiz-adv-x="584" 
d="M61 350q15 80 44.5 146.5t70 114.5t92.5 74.5t112 26.5t101.5 -26.5t64 -74.5t25.5 -114.5t-12 -146.5q-16 -80 -45 -146.5t-70 -114.5t-93 -74.5t-112 -26.5t-101.5 26.5t-63.5 74.5t-25.5 114.5t12.5 146.5zM127 350q-14 -70 -13 -126.5t16.5 -96t45.5 -60.5t74 -21
t82.5 21t69.5 60.5t54 96t37 126.5q13 70 12 126.5t-16.5 96t-45.5 60.5t-74 21t-82 -21t-69 -60.5t-54.5 -96t-36.5 -126.5z" />
    <glyph glyph-name="one" unicode="1" horiz-adv-x="584" 
d="M209 523l-25 47l215 130h57l-136 -700h-64l121 626z" />
    <glyph glyph-name="two" unicode="2" horiz-adv-x="584" 
d="M20 0l11 58q34 25 71.5 53.5t75.5 59.5t75 62.5t71 63.5q68 63 104 116.5t47 108.5q12 63 -26 97.5t-111 34.5q-42 0 -84.5 -10.5t-80.5 -30.5l6 61q36 18 82.5 28t91.5 10q47 0 85.5 -12t64.5 -36t36.5 -60t1.5 -84q-13 -65 -53 -123.5t-113 -126.5q-66 -61 -133 -116
t-124 -98h336l-10 -56h-424z" />
    <glyph glyph-name="three" unicode="3" horiz-adv-x="584" 
d="M188 395q55 1 103 10.5t84.5 28t60.5 45.5t31 63q9 49 -24 80.5t-116 31.5q-43 0 -87 -9t-83 -28l5 59q38 17 84.5 26.5t93.5 9.5q109 0 158.5 -46t35.5 -118q-8 -39 -27 -69.5t-47.5 -52.5t-64 -37t-75.5 -22q85 -17 126 -64t26 -125q-8 -42 -31 -76.5t-59.5 -60
t-85.5 -39.5t-109 -14q-45 0 -88.5 6.5t-78.5 22.5l17 64q33 -18 75 -26.5t84 -8.5q91 0 145 37t65 95q15 76 -43.5 116.5t-185.5 44.5z" />
    <glyph glyph-name="four" unicode="4" horiz-adv-x="584" 
d="M20 161l12 61l445 478h64l-94 -483h90l-11 -56h-90l-31 -161h-64l31 161h-352zM102 217h281l74 384z" />
    <glyph glyph-name="five" unicode="5" horiz-adv-x="584" 
d="M199 700h376l-11 -56h-312l-46 -234q23 8 52 12t55 4q52 0 92 -14t65.5 -41t34 -67.5t-1.5 -93.5q-9 -48 -34 -88.5t-64 -70t-90 -46.5t-112 -17q-45 0 -86.5 7t-76.5 24l19 66q34 -21 70 -30t82 -9q90 0 150.5 44t76.5 125q16 79 -24.5 116t-124.5 37q-41 0 -83 -7.5
t-77 -20.5z" />
    <glyph glyph-name="six" unicode="6" horiz-adv-x="584" 
d="M254 -12q-54 0 -96.5 20t-68 62t-32 106.5t11.5 154.5q19 100 54.5 172t83 118.5t104 68.5t119.5 22q37 0 73.5 -6.5t63.5 -20.5l-19 -64q-27 17 -60.5 25t-69.5 8q-99 0 -166.5 -69t-108.5 -221q41 38 95.5 61.5t104.5 23.5t88.5 -16.5t62.5 -46.5t32.5 -72.5
t-1.5 -95.5q-10 -52 -36 -94.5t-62.5 -72.5t-81 -46.5t-91.5 -16.5zM459 217q7 39 3 71t-20 55t-44.5 35.5t-70.5 12.5q-57 0 -107.5 -27t-90.5 -72q-10 -65 -4.5 -111.5t24 -76.5t48 -44t67.5 -14q36 0 68.5 12.5t58 35.5t43 54t25.5 69z" />
    <glyph glyph-name="seven" unicode="7" horiz-adv-x="584" 
d="M179 0h-69l393 644h-358l11 56h424l-12 -61z" />
    <glyph glyph-name="eight" unicode="8" horiz-adv-x="584" 
d="M240 -12q-53 0 -95 12.5t-69.5 37t-39 60t-2.5 80.5q13 67 68 115.5t135 77.5q-61 30 -88 71.5t-16 97.5q7 35 28.5 66t54 54.5t75 37.5t90.5 14q50 0 87 -13.5t60 -37t31.5 -54.5t1.5 -66q-12 -59 -59.5 -102t-117.5 -71q84 -39 114 -84.5t19 -103.5q-9 -45 -33 -80.5
t-60 -60t-83 -38t-101 -13.5zM453 175q4 25 0 46t-21.5 41t-50 39.5t-84.5 41.5q-85 -28 -135.5 -71t-60.5 -95q-6 -30 2.5 -54.5t28.5 -42t50.5 -26.5t68.5 -9t72 9.5t61 26.5t45 41t24 53zM201 543q-6 -28 -1 -49t20.5 -37.5t42 -31.5t63.5 -31q73 26 116 62.5t53 87.5
q9 46 -23 78t-102 32q-32 0 -60.5 -9t-51 -24t-38 -35t-19.5 -43z" />
    <glyph glyph-name="nine" unicode="9" horiz-adv-x="584" 
d="M365 712q54 0 96.5 -20t68 -62t32 -106.5t-11.5 -154.5q-19 -100 -54.5 -172t-82.5 -118.5t-104 -68.5t-120 -22q-37 0 -73.5 6.5t-63.5 20.5l19 64q27 -17 60.5 -25t69.5 -8q99 0 167 69t108 221q-41 -38 -95.5 -61.5t-104.5 -23.5t-88.5 16.5t-62.5 46.5t-32.5 72.5
t1.5 95.5q10 52 36 94.5t62.5 72.5t81 46.5t91.5 16.5zM160 483q-8 -39 -3.5 -71t21 -55t45 -35.5t70.5 -12.5q57 0 107 27t90 72q10 65 4.5 111.5t-24 76.5t-48 44t-67.5 14q-36 0 -68.5 -12.5t-58 -35.5t-43.5 -54.5t-25 -68.5z" />
    <glyph glyph-name="colon" unicode=":" horiz-adv-x="292" 
d="M147 44q-6 -31 -19 -43.5t-35 -12.5t-30 12.5t-2 43.5t19 43.5t35 12.5t30 -12.5t2 -43.5zM231 474q-6 -31 -19 -43.5t-35 -12.5t-30 12.5t-2 43.5t19 43.5t35 12.5t30 -12.5t2 -43.5z" />
    <glyph glyph-name="semicolon" unicode=";" horiz-adv-x="292" 
d="M231 474q-6 -31 -19 -43.5t-35 -12.5t-30 12.5t-2 43.5t19 43.5t35 12.5t30 -12.5t2 -43.5zM147 44q-6 -28 -13 -51t-18 -43.5t-27 -38t-39 -35.5l-13 23q41 41 53 89q-20 1 -27.5 13.5t-1.5 42.5q6 31 19 43.5t35 12.5t30 -12.5t2 -43.5z" />
    <glyph glyph-name="less" unicode="&#x3c;" horiz-adv-x="612" 
d="M77 361l488 222v-63l-416 -188l416 -188v-63l-488 222v58z" />
    <glyph glyph-name="equal" unicode="=" horiz-adv-x="612" 
d="M77 414v56h488v-56h-488zM77 194v56h488v-56h-488z" />
    <glyph glyph-name="greater" unicode="&#x3e;" horiz-adv-x="612" 
d="M565 303l-488 -222v63l416 188l-416 188v63l488 -222v-58z" />
    <glyph glyph-name="question" unicode="?" horiz-adv-x="520" 
d="M307 393q65 41 94 77.5t37 76.5q9 49 -23 78t-113 29q-43 0 -88.5 -10.5t-87.5 -31.5l6 60q40 17 88.5 28.5t87.5 11.5q105 0 157.5 -45t37.5 -122q-11 -54 -49 -99t-111 -92q-26 -17 -43 -33t-29 -34t-19.5 -40t-12.5 -49l-5 -24h-64l6 27q6 34 16.5 61.5t26 50.5
t37 42.5t51.5 37.5zM219 44q-6 -31 -19 -43.5t-35 -12.5t-30 12.5t-2 43.5t19 43.5t35 12.5t30 -12.5t2 -43.5z" />
    <glyph glyph-name="at" unicode="@" horiz-adv-x="971" 
d="M655 191q-9 -45 5 -70.5t48 -25.5q30 0 57 16t49 43t38.5 63.5t24.5 77.5q15 78 -1 145t-58 116.5t-108 77.5t-151 28q-80 0 -155 -29.5t-136.5 -82t-104.5 -123.5t-59 -153q-16 -83 0 -153.5t59 -122.5t109 -81t150 -29q141 0 262 74l13 -46q-67 -37 -136.5 -57.5
t-148.5 -20.5q-95 0 -170.5 33t-124 91.5t-67 138.5t-0.5 173q18 94 67.5 174.5t119.5 139t155.5 91.5t176.5 33q96 0 171 -31.5t123.5 -87t67 -132t0.5 -166.5q-10 -53 -32 -97.5t-52.5 -77.5t-69 -51.5t-81.5 -18.5q-45 0 -68 25t-25 70q-47 -44 -101.5 -67t-117.5 -23
q-37 0 -66.5 12.5t-49 34.5t-27 53t-0.5 68q12 61 44.5 111t77.5 86t97 56t102 20q126 0 172 -98zM399 109q52 0 102 21t96 72l70 186q-14 27 -43 41.5t-74 14.5q-40 0 -80 -16.5t-74 -46t-58.5 -68.5t-33.5 -84q-11 -56 15.5 -88t79.5 -32z" />
    <glyph glyph-name="A" unicode="A" horiz-adv-x="640" 
d="M476 191h-338l-111 -191h-70l413 700h72l141 -700h-70zM171 247h294l-73 382z" />
    <glyph glyph-name="B" unicode="B" horiz-adv-x="618" 
d="M168 700h231q53 0 92.5 -13.5t64 -37.5t33.5 -57.5t1 -73.5q-11 -56 -42 -93.5t-81 -56.5q61 -20 85 -64.5t11 -108.5q-17 -92 -92.5 -143.5t-198.5 -51.5h-240zM496 195q15 76 -29.5 108t-146.5 32h-159l-55 -279h169q195 0 221 139zM524 517q11 60 -25.5 93.5
t-117.5 33.5h-160l-49 -253h153q90 0 137.5 28.5t61.5 97.5z" />
    <glyph glyph-name="C" unicode="C" horiz-adv-x="603" 
d="M65 350q15 80 53.5 146.5t94.5 114.5t127.5 74.5t154.5 26.5q39 0 77.5 -7t67.5 -22l-18 -62q-28 17 -62.5 25t-72.5 8q-70 0 -129.5 -22t-105.5 -62t-77 -96t-44 -124q-14 -69 -4.5 -125.5t40.5 -96t82 -61t121 -21.5q37 0 76.5 8.5t74.5 26.5l-7 -63
q-38 -17 -79.5 -23.5t-78.5 -6.5q-83 0 -145 26t-100 73.5t-50 114.5t4 148z" />
    <glyph glyph-name="D" unicode="D" horiz-adv-x="672" 
d="M577 350q15 76 2.5 131.5t-47.5 91.5t-92 53.5t-132 17.5h-87l-115 -588h87q75 0 138.5 17.5t113 53.5t83.5 91.5t49 131.5zM643 350q-17 -87 -58 -152.5t-100 -109.5t-134 -66t-160 -22h-159l136 700h159q85 0 151.5 -22t108.5 -66t57 -109.5t-1 -152.5z" />
    <glyph glyph-name="E" unicode="E" horiz-adv-x="557" 
d="M168 700h424l-11 -56h-360l-50 -254h335l-11 -56h-335l-54 -278h369l-10 -56h-433z" />
    <glyph glyph-name="F" unicode="F" horiz-adv-x="530" 
d="M168 700h424l-11 -56h-360l-49 -252h335l-11 -56h-335l-65 -336h-64z" />
    <glyph glyph-name="G" unicode="G" horiz-adv-x="698" 
d="M385 46q39 0 72 4t67 14l50 255h-208l10 56h272l-68 -351q-48 -19 -98.5 -27.5t-109.5 -8.5q-86 0 -150.5 27t-104.5 75.5t-53.5 115t1.5 144.5t54 144t96.5 114.5t130 76t155.5 27.5q56 0 104.5 -9.5t86.5 -27.5l-18 -65q-37 23 -84 33.5t-98 10.5q-68 0 -128 -23
t-107.5 -63.5t-80 -96t-45.5 -121.5q-13 -67 -2 -122.5t44 -96t86.5 -63t125.5 -22.5z" />
    <glyph glyph-name="H" unicode="H" horiz-adv-x="693" 
d="M168 700h64l-59 -299h401l59 299h64l-136 -700h-64l67 345h-401l-67 -345h-64z" />
    <glyph glyph-name="I" unicode="I" horiz-adv-x="238" 
d="M237 700l-136 -700h-64l136 700h64z" />
    <glyph glyph-name="J" unicode="J" horiz-adv-x="435" 
d="M375 700h64l-93 -475q-13 -66 -36.5 -111t-55.5 -73t-71.5 -40.5t-84.5 -12.5q-36 0 -71 8t-61 25l18 64q26 -20 58.5 -29.5t65.5 -9.5q66 0 110.5 41t63.5 138z" />
    <glyph glyph-name="K" unicode="K" horiz-adv-x="581" 
d="M232 700l-62 -316l384 316h81l-392 -327l300 -373h-85l-293 360l-69 -360h-64l136 700h64z" />
    <glyph glyph-name="L" unicode="L" horiz-adv-x="556" 
d="M168 700h64l-126 -644h388l-10 -56h-452z" />
    <glyph glyph-name="M" unicode="M" horiz-adv-x="836" 
d="M385 240l-172 367l-117 -607h-64l136 700h73l185 -398l341 398h73l-136 -700h-64l117 607l-314 -367h-58z" />
    <glyph glyph-name="N" unicode="N" horiz-adv-x="700" 
d="M168 700h79l273 -616l120 616h64l-136 -700h-78l-274 616l-119 -616h-65z" />
    <glyph glyph-name="O" unicode="O" horiz-adv-x="706" 
d="M677 350q-15 -77 -48.5 -143t-82.5 -115t-111.5 -76.5t-134.5 -27.5t-123.5 27.5t-81.5 76.5t-37.5 115t7.5 143t48 143t82 115t111.5 76.5t134.5 27.5t123.5 -27.5t81.5 -76.5t38 -115t-7 -143zM611 350q13 68 7.5 124t-29 96t-63.5 62t-96 22t-104.5 -22t-87.5 -62
t-66.5 -96t-40.5 -124q-14 -68 -8.5 -124t29 -96t63.5 -62t96 -22t104.5 22t87.5 62t66.5 96t41.5 124z" />
    <glyph glyph-name="P" unicode="P" horiz-adv-x="583" 
d="M590 487q-10 -52 -36.5 -92t-66 -67t-90.5 -41t-111 -14h-137l-53 -273h-64l136 700h201q60 0 106 -14t75 -41t39.5 -67t0.5 -91zM524 487q16 81 -28 119t-144 38h-131l-62 -315h131q100 0 159 38t75 120z" />
    <glyph glyph-name="Q" unicode="Q" horiz-adv-x="706" 
d="M677 350q-14 -71 -44 -133.5t-73 -110t-98.5 -78t-119.5 -37.5q-3 -50 26 -70.5t89 -20.5q24 0 48 3.5t44 10.5l-4 -54q-19 -5 -46.5 -8.5t-53.5 -3.5q-37 0 -68.5 7.5t-54 24.5t-33.5 43.5t-8 65.5q-68 4 -115.5 33t-74.5 77t-34 112.5t8 138.5q15 77 48 143t82 115
t111.5 76.5t134.5 27.5t123.5 -27.5t81.5 -76.5t38 -115t-7 -143zM611 350q13 68 7.5 124t-29 96t-63.5 62t-96 22t-104.5 -22t-87.5 -62t-66.5 -96t-40.5 -124q-14 -68 -8.5 -124t29 -96t63.5 -62t96 -22t104.5 22t87.5 62t66.5 96t41.5 124z" />
    <glyph glyph-name="R" unicode="R" horiz-adv-x="600" 
d="M595 500q-15 -75 -67 -121t-130 -65l140 -314h-72l-133 303q-13 -1 -25.5 -1.5t-25.5 -0.5h-128l-58 -301h-64l136 700h211q57 0 101 -13.5t72.5 -39t40 -63t2.5 -84.5zM529 500q13 69 -29.5 106.5t-136.5 37.5h-142l-56 -287h142q94 0 151 37.5t71 105.5z" />
    <glyph glyph-name="S" unicode="S" horiz-adv-x="536" 
d="M512 621q-33 18 -69 25.5t-79 7.5q-82 0 -131.5 -31t-59.5 -82q-10 -49 18.5 -84t106.5 -63q53 -19 90 -40t58.5 -46.5t28 -57.5t-1.5 -72q-17 -88 -91 -139t-190 -51q-50 0 -97 12t-80 34l18 67q36 -27 80.5 -41t92.5 -14q88 0 138.5 35t62.5 95q5 28 0.5 50.5t-21.5 42
t-46.5 36t-74.5 31.5q-97 33 -135 80t-24 124q8 39 31 71t58 54.5t81 34.5t100 12q48 0 85 -6.5t69 -20.5z" />
    <glyph glyph-name="T" unicode="T" horiz-adv-x="534" 
d="M310 644h-223l11 56h510l-11 -56h-223l-125 -644h-64z" />
    <glyph glyph-name="U" unicode="U" horiz-adv-x="708" 
d="M301 -12q-60 0 -106 18.5t-75.5 54t-39.5 88t4 121.5l84 430h64l-83 -424q-23 -116 21 -173t142 -57q99 0 164.5 56.5t88.5 173.5l83 424h64l-84 -430q-14 -69 -44 -121.5t-73 -88t-96.5 -54t-113.5 -18.5z" />
    <glyph glyph-name="V" unicode="V" horiz-adv-x="670" 
d="M108 700h70l121 -626l365 626h70l-413 -700h-72z" />
    <glyph glyph-name="W" unicode="W" horiz-adv-x="986" 
d="M616 700l47 -613l319 613h68l-366 -700h-74l-50 607l-284 -607h-74l-94 700h68l79 -613l287 613h74z" />
    <glyph glyph-name="X" unicode="X" horiz-adv-x="655" 
d="M384 355l204 -355h-75l-177 306l-294 -306h-75l342 355l-198 345h75l169 -296l286 296h75z" />
    <glyph glyph-name="Y" unicode="Y" horiz-adv-x="654" 
d="M342 339l304 361h72l-355 -422l-54 -278h-64l54 278l-191 422h72z" />
    <glyph glyph-name="Z" unicode="Z" horiz-adv-x="557" 
d="M516 644h-394l11 56h468l-12 -62l-524 -582h420l-10 -56h-493l12 62z" />
    <glyph glyph-name="bracketleft" unicode="[" horiz-adv-x="391" 
d="M217 750h247l-10 -53h-183l-150 -774h183l-11 -53h-247z" />
    <glyph glyph-name="backslash" unicode="\" horiz-adv-x="479" 
d="M87 748h66l262 -858h-66z" />
    <glyph glyph-name="bracketright" unicode="]" horiz-adv-x="391" 
d="M193 -130h-246l10 53h183l150 774h-183l10 53h247z" />
    <glyph glyph-name="asciicircum" unicode="^" horiz-adv-x="612" 
d="M355 700l224 -331h-74l-184 275l-184 -275h-74l224 331h68z" />
    <glyph glyph-name="underscore" unicode="_" horiz-adv-x="500" 
d="M-72 -114h499l-11 -56h-499z" />
    <glyph glyph-name="grave" unicode="`" horiz-adv-x="404" 
d="M352 568h-56l-107 154l1 8h73z" />
    <glyph glyph-name="a" unicode="a" horiz-adv-x="570" 
d="M231 -12q-51 0 -91.5 18.5t-66 54t-34.5 85.5t3 113t41 113t68.5 85.5t87 54t98.5 18.5q45 0 82 -16t60 -44l9 48h60l-100 -518h-60l9 47q-33 -27 -77 -43t-89 -16zM250 42q42 0 84 16t74 47l60 308q-20 31 -56 47t-78 16q-39 0 -76.5 -14.5t-68 -42t-53 -68t-32.5 -92.5
t-3.5 -92.5t27 -68t52 -42t70.5 -14.5z" />
    <glyph glyph-name="b" unicode="b" horiz-adv-x="570" 
d="M233 -12q-45 0 -82 16t-60 43l-9 -47h-60l141 730h60l-50 -260q33 28 77 44t89 16q51 0 91.5 -18.5t66 -54t34.5 -85.5t-3 -113t-41 -113t-68.5 -85.5t-87 -54t-98.5 -18.5zM236 42q39 0 76 14.5t68 42t53.5 68t32.5 92.5t3.5 92.5t-27 68t-52 42t-70.5 14.5
q-42 0 -84 -16t-74 -47l-60 -308q20 -31 56 -47t78 -16z" />
    <glyph glyph-name="c" unicode="c" horiz-adv-x="499" 
d="M42 259q12 62 42 112t73.5 85.5t97 54.5t112.5 19q39 0 74.5 -7t62.5 -21l-18 -60q-25 18 -58.5 26t-70.5 8q-45 0 -86.5 -14.5t-75 -42.5t-57.5 -68.5t-34 -91.5t-2 -91.5t31 -68t59.5 -42.5t83.5 -15q38 0 76 9t69 29l-6 -60q-32 -16 -70.5 -24t-79.5 -8q-61 0 -108 19
t-76.5 54.5t-40 85.5t1.5 112z" />
    <glyph glyph-name="d" unicode="d" horiz-adv-x="570" 
d="M231 -12q-51 0 -91.5 18.5t-66 54t-34.5 85.5t3 113t41 113t68.5 85.5t87 54t98.5 18.5q45 0 82 -16t60 -44l50 260h60l-141 -730h-60l9 47q-33 -27 -77 -43t-89 -16zM250 42q42 0 84 16t74 47l60 308q-20 31 -56 47t-78 16q-39 0 -76.5 -14.5t-68 -42t-53 -68
t-32.5 -92.5t-3.5 -92.5t27 -68t52 -42t70.5 -14.5z" />
    <glyph glyph-name="e" unicode="e" horiz-adv-x="540" 
d="M261 42q45 0 85 10.5t75 33.5l-5 -59q-35 -20 -78.5 -29.5t-89.5 -9.5q-60 0 -104 19.5t-71 55t-35 85.5t4 112q12 64 41 114.5t70 85t91.5 52.5t106.5 18q43 0 78 -10.5t59 -29t35 -45t5 -58.5q-6 -31 -26.5 -59t-58.5 -49t-96.5 -33t-139.5 -12h-105q-11 -91 28 -141.5
t131 -50.5zM201 287q68 0 116 7.5t79 20.5t47 31t21 40q4 21 -4.5 37.5t-25.5 28.5t-42 18t-55 6q-36 0 -71 -12t-65 -35.5t-53 -59t-36 -82.5h89z" />
    <glyph glyph-name="f" unicode="f" horiz-adv-x="340" 
d="M179 551q17 90 65.5 134.5t121.5 44.5q42 0 71 -9l-18 -55q-12 5 -27.5 7.5t-31.5 2.5q-51 0 -80 -30.5t-43 -103.5l-5 -24h151l-10 -52h-151l-128 -659h-60l128 659h-110l10 52h110z" />
    <glyph glyph-name="g" unicode="g" horiz-adv-x="570" 
d="M337 530q45 0 82 -16t60 -43l9 47h60l-94 -484q-12 -62 -34 -106.5t-56 -73t-80 -41.5t-106 -13q-46 0 -90 10t-76 28l16 64q31 -24 73.5 -36t87.5 -12q86 0 135.5 38t67.5 130l6 31q-33 -28 -77 -44t-89 -16q-51 0 -91.5 18t-66.5 52.5t-35 84.5t3 113t41 113t68.5 84.5
t87 53t98.5 18.5zM334 476q-39 0 -76.5 -14t-68 -41.5t-53 -67.5t-32.5 -92t-3 -92t27 -67t52 -41t71 -14q42 0 84 16t74 47l59 303q-20 31 -56 47t-78 16z" />
    <glyph glyph-name="h" unicode="h" horiz-adv-x="572" 
d="M326 476q-45 0 -88.5 -18t-76.5 -49l-79 -409h-60l141 730h60l-51 -262q35 28 81 45t92 17q100 0 145 -59t23 -171l-58 -300h-60l57 298q35 178 -126 178z" />
    <glyph glyph-name="i" unicode="i" horiz-adv-x="230" 
d="M95 0h-60l100 518h60zM206 730q20 0 26.5 -12t1.5 -41t-16.5 -41t-31.5 -12t-26.5 12t-1.5 41t16.5 41t31.5 12z" />
    <glyph glyph-name="j" unicode="j" horiz-adv-x="225" 
d="M195 518l-107 -549q-17 -90 -61 -129.5t-116 -39.5q-31 0 -56 9l17 54q18 -10 46 -10q45 0 72 27t38 87l107 551h60zM206 730q20 0 26.5 -12t1.5 -41t-16.5 -41t-31.5 -12t-26.5 12t-1.5 41t16.5 41t31.5 12z" />
    <glyph glyph-name="k" unicode="k" horiz-adv-x="497" 
d="M223 730l-83 -428l298 216h83l-310 -227l229 -291h-81l-223 278l-54 -278h-60l141 730h60z" />
    <glyph glyph-name="l" unicode="l" horiz-adv-x="214" 
d="M168 730h60l-141 -730h-60z" />
    <glyph glyph-name="m" unicode="m" horiz-adv-x="859" 
d="M331 530q56 0 87.5 -23t45.5 -58q38 37 88.5 59t105.5 22q83 0 124 -55t19 -167l-59 -308h-60l60 309q16 84 -10.5 125.5t-90.5 41.5q-45 0 -88 -20.5t-78 -54.5q3 -23 2 -47t-6 -47l-59 -307h-60l60 309q16 84 -10.5 125.5t-89.5 41.5q-39 0 -80.5 -18.5t-70.5 -48.5
l-79 -409h-60l100 518h60l-10 -50q30 26 73.5 44t85.5 18z" />
    <glyph glyph-name="n" unicode="n" horiz-adv-x="572" 
d="M326 476q-45 0 -88.5 -18t-76.5 -49l-79 -409h-60l100 518h60l-10 -50q35 28 81 45t92 17q100 0 145 -59t23 -171l-58 -300h-60l57 298q35 178 -126 178z" />
    <glyph glyph-name="o" unicode="o" horiz-adv-x="576" 
d="M42 259q11 59 38.5 108.5t67.5 85.5t89 56.5t104 20.5t96 -20.5t66.5 -56.5t33.5 -85.5t-3 -108.5q-12 -59 -39.5 -108.5t-67 -85.5t-88.5 -56.5t-104 -20.5t-96 20.5t-66.5 56.5t-34 85.5t3.5 108.5zM104 259q-10 -50 -4 -90t25 -68t50 -43.5t71 -15.5t76.5 15.5
t66.5 43.5t51.5 68t31.5 90q10 49 4 89.5t-25 68.5t-50 43.5t-71 15.5t-76.5 -15.5t-66.5 -43.5t-51.5 -68.5t-31.5 -89.5z" />
    <glyph glyph-name="p" unicode="p" horiz-adv-x="570" 
d="M339 530q51 0 91.5 -18.5t66 -54t34.5 -85.5t-3 -113t-41 -113t-68.5 -85.5t-87 -54t-98.5 -18.5q-45 0 -82 16t-60 44l-47 -241h-60l138 711h60l-9 -47q33 27 77 43t89 16zM320 476q-42 0 -84 -16t-74 -47l-60 -308q20 -31 56 -47t78 -16q39 0 76 14.5t68 42t53.5 68
t32.5 92.5t3.5 92.5t-27 68t-52 42t-70.5 14.5z" />
    <glyph glyph-name="q" unicode="q" horiz-adv-x="570" 
d="M337 530q45 0 82 -16t60 -43l9 47h60l-138 -711h-60l47 241q-33 -28 -77 -44t-89 -16q-51 0 -91.5 18.5t-66 54t-34.5 85.5t3 113t41 113t68.5 85.5t87 54t98.5 18.5zM334 476q-39 0 -76.5 -14.5t-68 -42t-53 -68t-32.5 -92.5t-3.5 -92.5t27 -68t52 -42t70.5 -14.5
q42 0 84 16t74 47l60 308q-20 31 -56 47t-78 16z" />
    <glyph glyph-name="r" unicode="r" horiz-adv-x="360" 
d="M328 476q-51 0 -94.5 -27t-80.5 -79l-71 -370h-60l100 518h60l-14 -75q31 38 77.5 62.5t98.5 24.5q37 0 60 -9l-18 -57q-23 12 -58 12z" />
    <glyph glyph-name="s" unicode="s" horiz-adv-x="457" 
d="M159 -12q-43 0 -85 11t-71 33l17 64q30 -27 70 -40.5t79 -13.5q66 0 106 24.5t49 67.5q7 37 -19 62.5t-96 45.5q-79 21 -111.5 59t-21.5 94q6 32 25 57t46.5 42.5t63 26.5t76.5 9q39 0 74.5 -8t65.5 -22l-18 -61q-28 20 -62 28.5t-72 8.5q-58 0 -93.5 -21.5t-42.5 -57.5
q-7 -35 17 -60.5t90 -44.5q45 -13 74.5 -29.5t45.5 -36t20.5 -42t-0.5 -48.5q-14 -72 -74.5 -110t-152.5 -38z" />
    <glyph glyph-name="t" unicode="t" horiz-adv-x="367" 
d="M67 518h97l30 155h60l-30 -155h166l-10 -52h-166l-56 -288q-14 -75 2.5 -105.5t69.5 -30.5q15 0 29 2t29 6l-2 -55q-34 -7 -71 -7q-78 0 -108 41t-12 132l59 305h-97z" />
    <glyph glyph-name="u" unicode="u" horiz-adv-x="572" 
d="M246 42q45 0 88.5 18t76.5 49l79 409h60l-100 -518h-60l9 50q-35 -28 -80.5 -45t-91.5 -17q-100 0 -145 59t-23 171l58 300h60l-58 -298q-17 -89 15 -133.5t112 -44.5z" />
    <glyph glyph-name="v" unicode="v" horiz-adv-x="516" 
d="M176 0l-109 518h67l88 -442l260 442h67l-309 -518h-64z" />
    <glyph glyph-name="w" unicode="w" horiz-adv-x="780" 
d="M470 518l50 -432l225 432h68l-278 -518h-61l-52 422l-216 -422h-61l-78 518h68l57 -432l218 432h60z" />
    <glyph glyph-name="x" unicode="x" horiz-adv-x="503" 
d="M243 220l-209 -220h-72l254 267l-142 251h72l116 -204l195 204h72l-241 -251l153 -267h-72z" />
    <glyph glyph-name="y" unicode="y" horiz-adv-x="526" 
d="M491 518h68l-423 -711h-66l115 193l-118 518h68l96 -443z" />
    <glyph glyph-name="z" unicode="z" horiz-adv-x="463" 
d="M-12 58l406 408h-313l10 52h385l-11 -57l-406 -409h337l-10 -52h-409z" />
    <glyph glyph-name="braceleft" unicode="{" horiz-adv-x="371" 
d="M154 186q8 45 -13.5 69t-53.5 29l10 51q34 5 65 29t40 70l34 177q28 139 153 139h55l-10 -53h-51q-35 0 -54.5 -19t-25.5 -49l-36 -186q-11 -57 -34.5 -87.5t-75.5 -45.5q39 -13 55 -40t7 -74l-40 -205q-7 -32 6 -50t48 -18h51l-11 -53h-55q-56 0 -85 29t-18 89z" />
    <glyph glyph-name="bar" unicode="|" horiz-adv-x="280" 
d="M127 769h56v-969h-56v969z" />
    <glyph glyph-name="braceright" unicode="}" horiz-adv-x="371" 
d="M154 8q-14 -70 -52.5 -104t-100.5 -34h-54l10 53h51q35 0 54.5 18.5t25.5 49.5l36 185q5 28 13.5 49.5t21 37.5t31 27.5t44.5 19.5q-40 13 -55.5 39.5t-6.5 73.5l40 206q6 32 -7 50t-47 18h-51l10 53h55q62 0 87.5 -34.5t11.5 -104.5l-34 -177q-5 -23 -1 -40.5t14 -29.5
t24 -19t30 -10l-10 -51q-17 -3 -34 -10t-31.5 -19t-25 -29.5t-14.5 -39.5z" />
    <glyph glyph-name="asciitilde" unicode="~" horiz-adv-x="612" 
d="M303 310q-32 26 -55 37t-43 11q-33 0 -49.5 -23t-16.5 -80h-62q0 83 35.5 120t94.5 37q31 0 62.5 -13t69.5 -44q32 -26 54.5 -37t42.5 -11q33 0 50 23t17 80h62q0 -83 -36 -120t-95 -37q-31 0 -62 13t-69 44z" />
    <glyph glyph-name="uni00A0" unicode="&#xa0;" horiz-adv-x="300" 
 />
    <glyph glyph-name="exclamdown" unicode="&#xa1;" horiz-adv-x="260" 
d="M129 348h39l-47 -313l-42 -218h-67l42 218zM214 473q-6 -31 -18.5 -43.5t-34.5 -12.5t-30.5 12.5t-2.5 43.5t19 43.5t35 12.5t30 -12.5t2 -43.5z" />
    <glyph glyph-name="cent" unicode="&#xa2;" horiz-adv-x="539" 
d="M411 637l-20 -107q37 -1 72 -7.5t61 -20.5l-18 -60q-24 17 -57 25t-69 9l-84 -434q38 0 76 9t69 29l-6 -60q-32 -16 -70.5 -24t-79.5 -8l-21 -107h-42l22 110q-51 6 -90.5 27.5t-63.5 56t-31.5 81t3.5 103.5t37.5 103.5t64 81t84.5 56t100 27.5l21 110h42zM124 259
q-17 -91 19 -146.5t111 -67.5l83 428q-39 -6 -73.5 -23t-63 -44.5t-48 -64.5t-28.5 -82z" />
    <glyph glyph-name="sterling" unicode="&#xa3;" horiz-adv-x="578" 
d="M57 336l10 52h79l23 121q20 103 85 153t168 50q48 0 89 -10t70 -29l-17 -62q-32 23 -68 33t-80 10q-78 0 -122.5 -33.5t-60.5 -111.5l-23 -121h232l-10 -52h-232l-17 -86q-12 -63 -36.5 -110.5t-67.5 -83.5h427l-10 -56h-504l10 53q49 36 76.5 81.5t38.5 106.5l19 95h-79
z" />
    <glyph glyph-name="currency" unicode="&#xa4;" horiz-adv-x="693" 
d="M361 107q-40 0 -75 12t-64 35l-82 -82l-43 44l84 83q-20 28 -30.5 61.5t-10.5 71.5t11.5 72.5t31.5 62.5l-3 -2l-83 84l43 44l82 -84q29 23 64 35.5t75 12.5t75 -12.5t63 -35.5l83 84l43 -44l-83 -85q19 -28 29.5 -61t10.5 -71t-10.5 -71.5t-30.5 -61.5l84 -83l-43 -44
l-83 82q-28 -23 -63 -35t-75 -12zM361 168q34 0 63.5 12.5t51 34.5t34 52t12.5 65t-12.5 65t-34 52t-51 34.5t-63.5 12.5t-63.5 -12.5t-51 -34.5t-34 -52t-12.5 -65t12.5 -65t34 -52t51 -34.5t63.5 -12.5z" />
    <glyph glyph-name="yen" unicode="&#xa5;" horiz-adv-x="580" 
d="M327 285l-15 -75h206l-8 -44h-206l-32 -166h-64l32 166h-206l8 44h206l15 75h-206l8 44h182l-140 371h68l132 -354l270 354h68l-286 -371h182l-8 -44h-206z" />
    <glyph glyph-name="brokenbar" unicode="&#xa6;" horiz-adv-x="280" 
d="M183 222v-322h-56v322h56zM183 688v-322h-56v322h56z" />
    <glyph glyph-name="section" unicode="&#xa7;" horiz-adv-x="511" 
d="M169 -100q-43 0 -85.5 10.5t-74.5 30.5l19 66q31 -26 70.5 -38.5t81.5 -12.5q67 0 105.5 25t46.5 67q7 37 -17 63.5t-91 44.5q-80 21 -115.5 59.5t-24.5 95.5q10 50 47.5 84t90.5 49q-54 19 -75.5 52t-12.5 78q13 65 70 101.5t145 36.5q42 0 79.5 -8.5t65.5 -23.5
l-19 -62q-28 20 -64.5 29t-73.5 9q-57 0 -92 -22t-43 -60q-7 -35 19.5 -59t91.5 -43q43 -13 72 -29.5t45 -36.5t20.5 -43.5t-0.5 -50.5q-9 -48 -45 -81t-92 -47q57 -19 76 -55.5t11 -78.5q-14 -70 -73.5 -110t-157.5 -40zM245 212q63 7 96.5 36.5t41.5 65.5q7 37 -16 64.5
t-80 41.5q-58 -10 -92.5 -39t-41.5 -67q-15 -73 92 -102z" />
    <glyph glyph-name="dieresis" unicode="&#xa8;" horiz-adv-x="404" 
d="M389 702q20 0 26.5 -12t1.5 -41q-6 -29 -17.5 -41t-31.5 -12t-26.5 12t-0.5 41q5 29 16.5 41t31.5 12zM187 702q20 0 26.5 -12t1.5 -41q-6 -29 -17.5 -41t-31.5 -12t-26.5 12t-0.5 41q5 29 16.5 41t31.5 12z" />
    <glyph glyph-name="copyright" unicode="&#xa9;" horiz-adv-x="834" 
d="M231 348q0 49 16.5 89t45.5 68.5t68.5 44t84.5 15.5q34 0 65.5 -5.5t60.5 -19.5l-5 -50q-26 15 -56 22t-61 7q-78 0 -122 -47.5t-44 -123.5t44 -123.5t122 -47.5q31 0 61 7t56 22l5 -50q-29 -14 -60.5 -19.5t-65.5 -5.5q-45 0 -84.5 15.5t-68.5 44t-45.5 68.5t-16.5 89z
M70 350q0 75 28.5 141t77.5 115t115 77.5t141 28.5t141 -28.5t115 -77.5t77.5 -115t28.5 -141t-28.5 -141t-77.5 -115t-115 -77.5t-141 -28.5t-141 28.5t-115 77.5t-77.5 115t-28.5 141zM106 350q0 -68 25 -127.5t69 -104t103.5 -70.5t128.5 -26t128.5 26t103.5 70.5t69 104
t25 127.5q0 67 -25 127t-69 104.5t-103.5 70.5t-128.5 26t-128.5 -26t-103.5 -70.5t-69 -104.5t-25 -127z" />
    <glyph glyph-name="ordfeminine" unicode="&#xaa;" horiz-adv-x="436" 
d="M299 708q29 0 55.5 -9t41.5 -26l5 26h56l-72 -373h-56l5 26q-22 -17 -52 -26t-59 -9q-37 0 -67 13.5t-49 39t-26 62t2 81.5t30 81t50 61.5t64 39t72 13.5zM345 407l41 211q-12 23 -37 33t-53 10q-27 0 -52 -9.5t-46 -28t-36.5 -46.5t-22.5 -64q-14 -74 15.5 -111.5
t83.5 -37.5q28 0 57 10t50 33z" />
    <glyph glyph-name="guillemotleft" unicode="&#xab;" horiz-adv-x="535" 
d="M85 326l250 196l-12 -62l-191 -148l133 -149l-12 -62l-174 196zM274 326l250 196l-12 -62l-191 -148l133 -149l-12 -62l-174 196z" />
    <glyph glyph-name="logicalnot" unicode="&#xac;" horiz-adv-x="612" 
d="M72 441h488v-280h-62v224h-426v56z" />
    <glyph glyph-name="uni00AD" unicode="&#xad;" horiz-adv-x="399" 
d="M71 304l10 56h275l-10 -56h-275z" />
    <glyph glyph-name="registered" unicode="&#xae;" horiz-adv-x="834" 
d="M70 350q0 75 28.5 141t77.5 115t115 77.5t141 28.5t141 -28.5t115 -77.5t77.5 -115t28.5 -141t-28.5 -141t-77.5 -115t-115 -77.5t-141 -28.5t-141 28.5t-115 77.5t-77.5 115t-28.5 141zM106 350q0 -68 25 -127.5t69 -104t103.5 -70.5t128.5 -26t128.5 26t103.5 70.5
t69 104t25 127.5q0 67 -25 127t-69 104.5t-103.5 70.5t-128.5 26t-128.5 -26t-103.5 -70.5t-69 -104.5t-25 -127zM592 434q0 -85 -84 -112l106 -181h-58l-100 171q-9 -1 -19 -1.5t-20 -0.5h-78v-169h-53v417h145q75 0 118 -32t43 -92zM538 434q0 78 -110 78h-89v-156h89
q57 0 83.5 20.5t26.5 57.5z" />
    <glyph glyph-name="macron" unicode="&#xaf;" horiz-adv-x="404" 
d="M140 671h284l-10 -52h-284z" />
    <glyph glyph-name="degree" unicode="&#xb0;" horiz-adv-x="404" 
d="M350 583q0 -28 -10 -51.5t-28 -41t-42.5 -27t-52.5 -9.5t-52.5 9.5t-42.5 27t-28 41t-10 51.5t10 51.5t28 40.5t42.5 27t52.5 10t52.5 -10t42.5 -27t28 -40.5t10 -51.5zM298 583q0 35 -23.5 58t-57.5 23t-57.5 -23t-23.5 -58t23.5 -58t57.5 -23t57.5 23t23.5 58z" />
    <glyph glyph-name="plusminus" unicode="&#xb1;" horiz-adv-x="612" 
d="M290 367h-213v55h213v211h62v-211h213v-55h-213v-211h-62v211zM77 47v55h488v-55h-488z" />
    <glyph glyph-name="twosuperior" unicode="&#xb2;" horiz-adv-x="398" 
d="M48 236l9 46q51 35 102.5 79t97.5 89q38 37 57.5 68.5t24.5 57.5q8 42 -13 62.5t-65 20.5q-29 0 -60 -8.5t-60 -24.5l7 54q26 13 59 20.5t65 7.5q71 0 104 -34t20 -98q-6 -35 -28 -70t-70 -84q-42 -41 -84.5 -76.5t-77.5 -61.5h207l-10 -48h-285z" />
    <glyph glyph-name="threesuperior" unicode="&#xb3;" horiz-adv-x="398" 
d="M150 503q43 0 75.5 7t54 19t34 27t15.5 31q7 35 -16 53t-68 18q-26 0 -55.5 -6t-58.5 -20l5 51q26 11 58.5 18t63.5 7q69 0 104 -30.5t24 -87.5q-8 -39 -38.5 -68.5t-82.5 -41.5q51 -14 71 -45.5t11 -76.5q-11 -60 -62 -95t-127 -35q-29 0 -59 5.5t-55 16.5l16 55
q24 -15 51.5 -21t55.5 -6q56 0 86.5 23.5t36.5 56.5q4 20 -1.5 37.5t-22.5 30t-48 20t-77 7.5z" />
    <glyph glyph-name="acute" unicode="&#xb4;" horiz-adv-x="404" 
d="M323 730h73l-1 -8l-167 -154h-56z" />
    <glyph glyph-name="mu" unicode="&#xb5;" horiz-adv-x="584" 
d="M239 -12q-48 0 -85.5 17t-60.5 46l-47 -244h-62l138 711h62l-78 -404q22 -33 59 -53t84 -20t92.5 20t80.5 53l78 404h62l-100 -518h-62l9 51q-35 -29 -79 -46t-91 -17z" />
    <glyph glyph-name="paragraph" unicode="&#xb6;" horiz-adv-x="540" 
d="M277 310q-48 0 -89.5 12t-73 36t-49.5 60.5t-18 86.5q0 51 18.5 87.5t50 60.5t73 35.5t88.5 11.5h196v-831h-56v777h-53v-777h-57v441h-30z" />
    <glyph glyph-name="periodcentered" unicode="&#xb7;" horiz-adv-x="292" 
d="M202 330q-6 -31 -19 -43.5t-35 -12.5t-30 12.5t-2 43.5t19 43.5t35 12.5t30 -12.5t2 -43.5z" />
    <glyph glyph-name="cedilla" unicode="&#xb8;" horiz-adv-x="404" 
d="M26 -186q11 -5 24 -7t27 -2q34 0 54 13t25 36q5 24 -17 41t-73 19l65 86h57l-48 -63q39 -8 58 -31t13 -53q-8 -42 -42.5 -66.5t-98.5 -24.5q-14 0 -27 1.5t-25 5.5z" />
    <glyph glyph-name="onesuperior" unicode="&#xb9;" horiz-adv-x="398" 
d="M159 567l-20 44l139 90h48l-91 -465h-56l77 394z" />
    <glyph glyph-name="ordmasculine" unicode="&#xba;" horiz-adv-x="436" 
d="M444 514q-8 -43 -28 -78.5t-48.5 -61t-63.5 -40t-74 -14.5t-68.5 14.5t-48.5 40t-25 61t2 78.5q9 43 29 78.5t48.5 61t63.5 40t74 14.5t68.5 -14.5t48 -40t25 -61t-2.5 -78.5zM388 514q13 70 -14 109t-78 39q-26 0 -50 -10t-44 -29t-34.5 -46.5t-21.5 -62.5t-3 -62.5
t17 -46.5t33 -29t46 -10q25 0 49 10t44 29t34.5 46.5t21.5 62.5z" />
    <glyph glyph-name="guillemotright" unicode="&#xbb;" horiz-adv-x="535" 
d="M470 297l-250 -196l12 62l191 149l-133 148l12 62l174 -196zM281 297l-250 -196l12 62l191 149l-133 148l12 62l174 -196z" />
    <glyph glyph-name="onequarter" unicode="&#xbc;" horiz-adv-x="950" 
d="M159 567l-20 44l139 90h48l-91 -465h-56l77 394zM237 -15h-55l533 730h56zM526 103l9 46l288 315h55l-61 -313h54l-10 -48h-54l-19 -102h-56l19 102h-225zM596 151h165l44 229z" />
    <glyph glyph-name="onehalf" unicode="&#xbd;" horiz-adv-x="950" 
d="M159 567l-20 44l139 90h48l-91 -465h-56l77 394zM198 -15h-55l533 730h56zM543 0l9 46q51 35 102.5 79t97.5 89q38 37 57.5 68.5t24.5 57.5q8 42 -13 62.5t-65 20.5q-29 0 -60 -8.5t-60 -24.5l7 54q26 13 59 20.5t65 7.5q71 0 104 -34t20 -98q-6 -35 -28 -70t-70 -84
q-42 -41 -84.5 -76.5t-77.5 -61.5h207l-10 -48h-285z" />
    <glyph glyph-name="threequarters" unicode="&#xbe;" horiz-adv-x="950" 
d="M266 -15h-55l533 730h56zM526 103l9 46l288 315h55l-61 -313h54l-10 -48h-54l-19 -102h-56l19 102h-225zM596 151h165l44 229zM150 503q43 0 75.5 7t54 19t34 27t15.5 31q7 35 -16 53t-68 18q-26 0 -55.5 -6t-58.5 -20l5 51q26 11 58.5 18t63.5 7q69 0 104 -30.5
t24 -87.5q-8 -39 -38.5 -68.5t-82.5 -41.5q51 -14 71 -45.5t11 -76.5q-11 -60 -62 -95t-127 -35q-29 0 -59 5.5t-55 16.5l16 55q24 -15 51.5 -21t55.5 -6q56 0 86.5 23.5t36.5 56.5q4 20 -1.5 37.5t-22.5 30t-48 20t-77 7.5z" />
    <glyph glyph-name="questiondown" unicode="&#xbf;" horiz-adv-x="520" 
d="M213 124q-65 -41 -94.5 -77.5t-36.5 -76.5q-10 -49 22.5 -78t113.5 -29q43 0 88.5 10.5t86.5 31.5l-6 -60q-39 -17 -87.5 -28.5t-87.5 -11.5q-105 0 -158 45t-38 122q11 54 49 98.5t111 92.5q26 16 43.5 32.5t29.5 34.5t19 40t13 49l4 24h64l-5 -27q-7 -34 -17 -61.5
t-26 -50.5t-37.5 -42.5t-50.5 -37.5zM300 473q6 31 19 43.5t35 12.5t30 -12.5t2 -43.5t-18.5 -43.5t-34.5 -12.5t-30.5 12.5t-2.5 43.5z" />
    <glyph glyph-name="Agrave" unicode="&#xc0;" horiz-adv-x="640" 
d="M476 191h-338l-111 -191h-70l413 700h72l141 -700h-70zM171 247h294l-73 382zM451 762h-56l-107 154l1 8h73z" />
    <glyph glyph-name="Aacute" unicode="&#xc1;" horiz-adv-x="640" 
d="M476 191h-338l-111 -191h-70l413 700h72l141 -700h-70zM171 247h294l-73 382zM533 924h73l-1 -8l-167 -154h-56z" />
    <glyph glyph-name="Acircumflex" unicode="&#xc2;" horiz-adv-x="640" 
d="M476 191h-338l-111 -191h-70l413 700h72l141 -700h-70zM171 247h294l-73 382zM478 924l105 -166h-62l-82 120l-128 -120h-62l169 166h60z" />
    <glyph glyph-name="Atilde" unicode="&#xc3;" horiz-adv-x="640" 
d="M476 191h-338l-111 -191h-70l413 700h72l141 -700h-70zM171 247h294l-73 382zM603 907q-7 -38 -18.5 -64.5t-26 -42.5t-32 -23t-36.5 -7q-26 0 -42 13.5t-28 29.5t-22.5 29.5t-23.5 13.5q-15 0 -31.5 -17.5t-26.5 -66.5h-55q15 76 46 106.5t69 30.5q25 0 41.5 -13.5
t28.5 -29.5t22 -29.5t24 -13.5q15 0 31 17.5t25 66.5h55z" />
    <glyph glyph-name="Adieresis" unicode="&#xc4;" horiz-adv-x="640" 
d="M476 191h-338l-111 -191h-70l413 700h72l141 -700h-70zM171 247h294l-73 382zM544 896q20 0 26.5 -12t1.5 -41q-6 -29 -17.5 -41t-31.5 -12t-26.5 12t-0.5 41q5 29 16.5 41t31.5 12zM342 896q20 0 26.5 -12t1.5 -41q-6 -29 -17.5 -41t-31.5 -12t-26.5 12t-0.5 41
q5 29 16.5 41t31.5 12z" />
    <glyph glyph-name="Aring" unicode="&#xc5;" horiz-adv-x="640" 
d="M476 191h-338l-111 -191h-70l413 700h72l141 -700h-70zM171 247h294l-73 382zM453 947q45 0 69 -29.5t15 -73.5q-4 -22 -15.5 -40.5t-28.5 -32.5t-37.5 -22t-42.5 -8q-45 0 -68.5 29.5t-15.5 73.5q4 22 16 40.5t28.5 32.5t37 22t42.5 8zM422 786q26 0 44.5 17.5
t23.5 40.5t-7 40.5t-38 17.5t-45 -17.5t-24 -40.5t7.5 -40.5t38.5 -17.5z" />
    <glyph glyph-name="AE" unicode="&#xc6;" horiz-adv-x="842" 
d="M170 193l-138 -193h-75l506 700h414l-11 -56h-309l-50 -254h284l-11 -56h-284l-54 -278h318l-10 -56h-382l37 193h-235zM210 249h206l76 394z" />
    <glyph glyph-name="Ccedilla" unicode="&#xc7;" horiz-adv-x="603" 
d="M207 -186q11 -5 24 -7t27 -2q34 0 54 13t25 36q5 24 -17 41t-73 19l58 77q-71 8 -122.5 37t-83 75.5t-40.5 109t6 137.5q15 80 53.5 146.5t94.5 114.5t127.5 74.5t154.5 26.5q39 0 77.5 -7t67.5 -22l-18 -62q-28 17 -62.5 25t-72.5 8q-70 0 -129.5 -22t-105.5 -62
t-77 -96t-44 -124q-14 -69 -4.5 -125.5t40.5 -96t82 -61t121 -21.5q37 0 76.5 8.5t74.5 26.5l-7 -63q-38 -16 -78 -22.5t-76 -7.5l-39 -51q39 -8 58 -31t13 -53q-8 -42 -42.5 -66.5t-98.5 -24.5q-14 0 -27 1.5t-25 5.5z" />
    <glyph glyph-name="Egrave" unicode="&#xc8;" horiz-adv-x="557" 
d="M168 700h424l-11 -56h-360l-50 -254h335l-11 -56h-335l-54 -278h369l-10 -56h-433zM445 762h-56l-107 154l1 8h73z" />
    <glyph glyph-name="Eacute" unicode="&#xc9;" horiz-adv-x="557" 
d="M168 700h424l-11 -56h-360l-50 -254h335l-11 -56h-335l-54 -278h369l-10 -56h-433zM479 924h73l-1 -8l-167 -154h-56z" />
    <glyph glyph-name="Ecircumflex" unicode="&#xca;" horiz-adv-x="557" 
d="M168 700h424l-11 -56h-360l-50 -254h335l-11 -56h-335l-54 -278h369l-10 -56h-433zM450 924l105 -166h-62l-82 120l-128 -120h-62l169 166h60z" />
    <glyph glyph-name="Edieresis" unicode="&#xcb;" horiz-adv-x="557" 
d="M168 700h424l-11 -56h-360l-50 -254h335l-11 -56h-335l-54 -278h369l-10 -56h-433zM517 896q20 0 26.5 -12t1.5 -41q-6 -29 -17.5 -41t-31.5 -12t-26.5 12t-0.5 41q5 29 16.5 41t31.5 12zM315 896q20 0 26.5 -12t1.5 -41q-6 -29 -17.5 -41t-31.5 -12t-26.5 12t-0.5 41
q5 29 16.5 41t31.5 12z" />
    <glyph glyph-name="Igrave" unicode="&#xcc;" horiz-adv-x="238" 
d="M237 700l-136 -700h-64l136 700h64zM257 762h-56l-107 154l1 8h73z" />
    <glyph glyph-name="Iacute" unicode="&#xcd;" horiz-adv-x="238" 
d="M237 700l-136 -700h-64l136 700h64zM325 924h73l-1 -8l-167 -154h-56z" />
    <glyph glyph-name="Icircumflex" unicode="&#xce;" horiz-adv-x="238" 
d="M237 700l-136 -700h-64l136 700h64zM278 924l105 -166h-62l-82 120l-128 -120h-62l169 166h60z" />
    <glyph glyph-name="Idieresis" unicode="&#xcf;" horiz-adv-x="238" 
d="M237 700l-136 -700h-64l136 700h64zM344 896q20 0 26.5 -12t1.5 -41q-6 -29 -17.5 -41t-31.5 -12t-26.5 12t-0.5 41q5 29 16.5 41t31.5 12zM142 896q20 0 26.5 -12t1.5 -41q-6 -29 -17.5 -41t-31.5 -12t-26.5 12t-0.5 41q5 29 16.5 41t31.5 12z" />
    <glyph glyph-name="Eth" unicode="&#xd0;" horiz-adv-x="677" 
d="M648 350q-17 -87 -58 -152.5t-100 -109.5t-134 -66t-160 -22h-159l62 324h-70l11 52h70l63 324h159q85 0 151.5 -22t108.5 -66t57 -109.5t-1 -152.5zM582 350q15 76 2.5 131.5t-47.5 91.5t-92 53.5t-132 17.5h-87l-52 -268h175l-11 -52h-175l-52 -268h87q75 0 138.5 17.5
t113 53.5t83.5 91.5t49 131.5z" />
    <glyph glyph-name="Ntilde" unicode="&#xd1;" horiz-adv-x="700" 
d="M168 700h79l273 -616l120 616h64l-136 -700h-78l-274 616l-119 -616h-65zM636 907q-7 -38 -18.5 -64.5t-26 -42.5t-32 -23t-36.5 -7q-26 0 -42 13.5t-28 29.5t-22.5 29.5t-23.5 13.5q-15 0 -31.5 -17.5t-26.5 -66.5h-55q15 76 46 106.5t69 30.5q25 0 41.5 -13.5
t28.5 -29.5t22 -29.5t24 -13.5q15 0 31 17.5t25 66.5h55z" />
    <glyph glyph-name="Ograve" unicode="&#xd2;" horiz-adv-x="706" 
d="M677 350q-15 -77 -48.5 -143t-82.5 -115t-111.5 -76.5t-134.5 -27.5t-123.5 27.5t-81.5 76.5t-37.5 115t7.5 143t48 143t82 115t111.5 76.5t134.5 27.5t123.5 -27.5t81.5 -76.5t38 -115t-7 -143zM611 350q13 68 7.5 124t-29 96t-63.5 62t-96 22t-104.5 -22t-87.5 -62
t-66.5 -96t-40.5 -124q-14 -68 -8.5 -124t29 -96t63.5 -62t96 -22t104.5 22t87.5 62t66.5 96t41.5 124zM511 762h-56l-107 154l1 8h73z" />
    <glyph glyph-name="Oacute" unicode="&#xd3;" horiz-adv-x="706" 
d="M677 350q-15 -77 -48.5 -143t-82.5 -115t-111.5 -76.5t-134.5 -27.5t-123.5 27.5t-81.5 76.5t-37.5 115t7.5 143t48 143t82 115t111.5 76.5t134.5 27.5t123.5 -27.5t81.5 -76.5t38 -115t-7 -143zM611 350q13 68 7.5 124t-29 96t-63.5 62t-96 22t-104.5 -22t-87.5 -62
t-66.5 -96t-40.5 -124q-14 -68 -8.5 -124t29 -96t63.5 -62t96 -22t104.5 22t87.5 62t66.5 96t41.5 124zM540 924h73l-1 -8l-167 -154h-56z" />
    <glyph glyph-name="Ocircumflex" unicode="&#xd4;" horiz-adv-x="706" 
d="M677 350q-15 -77 -48.5 -143t-82.5 -115t-111.5 -76.5t-134.5 -27.5t-123.5 27.5t-81.5 76.5t-37.5 115t7.5 143t48 143t82 115t111.5 76.5t134.5 27.5t123.5 -27.5t81.5 -76.5t38 -115t-7 -143zM611 350q13 68 7.5 124t-29 96t-63.5 62t-96 22t-104.5 -22t-87.5 -62
t-66.5 -96t-40.5 -124q-14 -68 -8.5 -124t29 -96t63.5 -62t96 -22t104.5 22t87.5 62t66.5 96t41.5 124zM511 924l105 -166h-62l-82 120l-128 -120h-62l169 166h60z" />
    <glyph glyph-name="Otilde" unicode="&#xd5;" horiz-adv-x="706" 
d="M677 350q-15 -77 -48.5 -143t-82.5 -115t-111.5 -76.5t-134.5 -27.5t-123.5 27.5t-81.5 76.5t-37.5 115t7.5 143t48 143t82 115t111.5 76.5t134.5 27.5t123.5 -27.5t81.5 -76.5t38 -115t-7 -143zM611 350q13 68 7.5 124t-29 96t-63.5 62t-96 22t-104.5 -22t-87.5 -62
t-66.5 -96t-40.5 -124q-14 -68 -8.5 -124t29 -96t63.5 -62t96 -22t104.5 22t87.5 62t66.5 96t41.5 124zM635 907q-7 -38 -18.5 -64.5t-26 -42.5t-32 -23t-36.5 -7q-26 0 -42 13.5t-28 29.5t-22.5 29.5t-23.5 13.5q-15 0 -31.5 -17.5t-26.5 -66.5h-55q15 76 46 106.5t69 30.5
q25 0 41.5 -13.5t28.5 -29.5t22 -29.5t24 -13.5q15 0 31 17.5t25 66.5h55z" />
    <glyph glyph-name="Odieresis" unicode="&#xd6;" horiz-adv-x="706" 
d="M677 350q-15 -77 -48.5 -143t-82.5 -115t-111.5 -76.5t-134.5 -27.5t-123.5 27.5t-81.5 76.5t-37.5 115t7.5 143t48 143t82 115t111.5 76.5t134.5 27.5t123.5 -27.5t81.5 -76.5t38 -115t-7 -143zM611 350q13 68 7.5 124t-29 96t-63.5 62t-96 22t-104.5 -22t-87.5 -62
t-66.5 -96t-40.5 -124q-14 -68 -8.5 -124t29 -96t63.5 -62t96 -22t104.5 22t87.5 62t66.5 96t41.5 124zM577 896q20 0 26.5 -12t1.5 -41q-6 -29 -17.5 -41t-31.5 -12t-26.5 12t-0.5 41q5 29 16.5 41t31.5 12zM375 896q20 0 26.5 -12t1.5 -41q-6 -29 -17.5 -41t-31.5 -12
t-26.5 12t-0.5 41q5 29 16.5 41t31.5 12z" />
    <glyph glyph-name="multiply" unicode="&#xd7;" horiz-adv-x="612" 
d="M362 333l164 -164l-41 -42l-164 165l-164 -165l-41 42l164 164l-164 165l41 41l164 -165l164 165l41 -41z" />
    <glyph glyph-name="Oslash" unicode="&#xd8;" horiz-adv-x="706" 
d="M677 350q-15 -77 -48.5 -143t-82.5 -115t-111.5 -76.5t-134.5 -27.5q-83 0 -140 37l-95 -125h-62l119 156q-46 49 -60.5 125t3.5 169q15 77 48 143t82 115t111.5 76.5t134.5 27.5q45 0 82 -11.5t66 -32.5l101 132h62l-126 -165q42 -49 55 -122.5t-4 -162.5zM131 350
q-15 -77 -6 -137.5t39 -101.5l385 505q-46 38 -119 38q-56 0 -104.5 -22t-87.5 -62t-66.5 -96t-40.5 -124zM611 350q27 146 -28 229l-383 -502q46 -31 111 -31q56 0 104.5 22t87.5 62t66.5 96t41.5 124z" />
    <glyph glyph-name="Ugrave" unicode="&#xd9;" horiz-adv-x="708" 
d="M301 -12q-60 0 -106 18.5t-75.5 54t-39.5 88t4 121.5l84 430h64l-83 -424q-23 -116 21 -173t142 -57q99 0 164.5 56.5t88.5 173.5l83 424h64l-84 -430q-14 -69 -44 -121.5t-73 -88t-96.5 -54t-113.5 -18.5zM489 762h-56l-107 154l1 8h73z" />
    <glyph glyph-name="Uacute" unicode="&#xda;" horiz-adv-x="708" 
d="M301 -12q-60 0 -106 18.5t-75.5 54t-39.5 88t4 121.5l84 430h64l-83 -424q-23 -116 21 -173t142 -57q99 0 164.5 56.5t88.5 173.5l83 424h64l-84 -430q-14 -69 -44 -121.5t-73 -88t-96.5 -54t-113.5 -18.5zM547 924h73l-1 -8l-167 -154h-56z" />
    <glyph glyph-name="Ucircumflex" unicode="&#xdb;" horiz-adv-x="708" 
d="M301 -12q-60 0 -106 18.5t-75.5 54t-39.5 88t4 121.5l84 430h64l-83 -424q-23 -116 21 -173t142 -57q99 0 164.5 56.5t88.5 173.5l83 424h64l-84 -430q-14 -69 -44 -121.5t-73 -88t-96.5 -54t-113.5 -18.5zM513 924l105 -166h-62l-82 120l-128 -120h-62l169 166h60z" />
    <glyph glyph-name="Udieresis" unicode="&#xdc;" horiz-adv-x="708" 
d="M301 -12q-60 0 -106 18.5t-75.5 54t-39.5 88t4 121.5l84 430h64l-83 -424q-23 -116 21 -173t142 -57q99 0 164.5 56.5t88.5 173.5l83 424h64l-84 -430q-14 -69 -44 -121.5t-73 -88t-96.5 -54t-113.5 -18.5zM579 896q20 0 26.5 -12t0.5 -41q-5 -29 -16.5 -41t-31.5 -12
t-26.5 12t-1.5 41q6 29 17.5 41t31.5 12zM377 896q20 0 26.5 -12t0.5 -41q-5 -29 -16.5 -41t-31.5 -12t-26.5 12t-1.5 41q6 29 17.5 41t31.5 12z" />
    <glyph glyph-name="Yacute" unicode="&#xdd;" horiz-adv-x="654" 
d="M342 339l304 361h72l-355 -422l-54 -278h-64l54 278l-191 422h72zM526 924h73l-1 -8l-167 -154h-56z" />
    <glyph glyph-name="Thorn" unicode="&#xde;" horiz-adv-x="583" 
d="M232 700l-26 -129h137q60 0 106 -14t75 -41t40 -67t1 -91q-10 -52 -36.5 -92t-66 -67t-91 -41t-111.5 -14h-137l-27 -144h-64l136 700h64zM499 358q16 81 -28 119t-144 38h-131l-62 -315h131q100 0 159 38t75 120z" />
    <glyph glyph-name="germandbls" unicode="&#xdf;" horiz-adv-x="563" 
d="M285 392q84 0 134 37t63 102q11 54 -19.5 88.5t-94.5 34.5q-69 0 -115.5 -42t-64.5 -134l-92 -478h-64l91 472q23 119 88.5 179.5t169.5 60.5q45 0 79.5 -14t56.5 -38t30 -57t1 -71q-13 -67 -57.5 -107.5t-105.5 -57.5q67 -17 101 -65t19 -123q-17 -88 -79 -139.5
t-163 -51.5q-35 0 -65 8t-51 22l20 65q20 -17 47 -27t60 -10q72 0 113 37.5t52 95.5q14 72 -28.5 116t-136.5 44z" />
    <glyph glyph-name="agrave" unicode="&#xe0;" horiz-adv-x="570" 
d="M231 -12q-51 0 -91.5 18.5t-66 54t-34.5 85.5t3 113t41 113t68.5 85.5t87 54t98.5 18.5q45 0 82 -16t60 -44l9 48h60l-100 -518h-60l9 47q-33 -27 -77 -43t-89 -16zM250 42q42 0 84 16t74 47l60 308q-20 31 -56 47t-78 16q-39 0 -76.5 -14.5t-68 -42t-53 -68t-32.5 -92.5
t-3.5 -92.5t27 -68t52 -42t70.5 -14.5zM416 588h-56l-107 154l1 8h73z" />
    <glyph glyph-name="aacute" unicode="&#xe1;" horiz-adv-x="570" 
d="M231 -12q-51 0 -91.5 18.5t-66 54t-34.5 85.5t3 113t41 113t68.5 85.5t87 54t98.5 18.5q45 0 82 -16t60 -44l9 48h60l-100 -518h-60l9 47q-33 -27 -77 -43t-89 -16zM250 42q42 0 84 16t74 47l60 308q-20 31 -56 47t-78 16q-39 0 -76.5 -14.5t-68 -42t-53 -68t-32.5 -92.5
t-3.5 -92.5t27 -68t52 -42t70.5 -14.5zM444 750h73l-1 -8l-167 -154h-56z" />
    <glyph glyph-name="acircumflex" unicode="&#xe2;" horiz-adv-x="570" 
d="M231 -12q-51 0 -91.5 18.5t-66 54t-34.5 85.5t3 113t41 113t68.5 85.5t87 54t98.5 18.5q45 0 82 -16t60 -44l9 48h60l-100 -518h-60l9 47q-33 -27 -77 -43t-89 -16zM250 42q42 0 84 16t74 47l60 308q-20 31 -56 47t-78 16q-39 0 -76.5 -14.5t-68 -42t-53 -68t-32.5 -92.5
t-3.5 -92.5t27 -68t52 -42t70.5 -14.5zM424 750l105 -166h-62l-82 120l-128 -120h-62l169 166h60z" />
    <glyph glyph-name="atilde" unicode="&#xe3;" horiz-adv-x="570" 
d="M231 -12q-51 0 -91.5 18.5t-66 54t-34.5 85.5t3 113t41 113t68.5 85.5t87 54t98.5 18.5q45 0 82 -16t60 -44l9 48h60l-100 -518h-60l9 47q-33 -27 -77 -43t-89 -16zM250 42q42 0 84 16t74 47l60 308q-20 31 -56 47t-78 16q-39 0 -76.5 -14.5t-68 -42t-53 -68t-32.5 -92.5
t-3.5 -92.5t27 -68t52 -42t70.5 -14.5zM542 733q-7 -38 -18.5 -64.5t-26 -42.5t-32 -23t-36.5 -7q-26 0 -42 13.5t-28 29.5t-22.5 29.5t-23.5 13.5q-15 0 -31.5 -17.5t-26.5 -66.5h-55q15 76 46 106.5t69 30.5q25 0 41.5 -13.5t28.5 -29.5t22 -29.5t24 -13.5q15 0 31 17.5
t25 66.5h55z" />
    <glyph glyph-name="adieresis" unicode="&#xe4;" horiz-adv-x="570" 
d="M231 -12q-51 0 -91.5 18.5t-66 54t-34.5 85.5t3 113t41 113t68.5 85.5t87 54t98.5 18.5q45 0 82 -16t60 -44l9 48h60l-100 -518h-60l9 47q-33 -27 -77 -43t-89 -16zM250 42q42 0 84 16t74 47l60 308q-20 31 -56 47t-78 16q-39 0 -76.5 -14.5t-68 -42t-53 -68t-32.5 -92.5
t-3.5 -92.5t27 -68t52 -42t70.5 -14.5zM492 722q20 0 26.5 -12t1.5 -41q-6 -29 -17.5 -41t-31.5 -12t-26.5 12t-0.5 41q5 29 16.5 41t31.5 12zM290 722q20 0 26.5 -12t1.5 -41q-6 -29 -17.5 -41t-31.5 -12t-26.5 12t-0.5 41q5 29 16.5 41t31.5 12z" />
    <glyph glyph-name="aring" unicode="&#xe5;" horiz-adv-x="570" 
d="M231 -12q-51 0 -91.5 18.5t-66 54t-34.5 85.5t3 113t41 113t68.5 85.5t87 54t98.5 18.5q45 0 82 -16t60 -44l9 48h60l-100 -518h-60l9 47q-33 -27 -77 -43t-89 -16zM250 42q42 0 84 16t74 47l60 308q-20 31 -56 47t-78 16q-39 0 -76.5 -14.5t-68 -42t-53 -68t-32.5 -92.5
t-3.5 -92.5t27 -68t52 -42t70.5 -14.5zM389 772q45 0 69 -29.5t15 -73.5q-4 -22 -15.5 -40.5t-28.5 -32.5t-37.5 -22t-42.5 -8q-45 0 -68.5 29.5t-15.5 73.5q4 22 16 40.5t28.5 32.5t37 22t42.5 8zM358 611q26 0 44.5 17.5t23.5 40.5t-7 40.5t-38 17.5t-45 -17.5t-24 -40.5
t7.5 -40.5t38.5 -17.5z" />
    <glyph glyph-name="ae" unicode="&#xe6;" horiz-adv-x="850" 
d="M386 123q-38 -64 -93 -99.5t-130 -35.5q-37 0 -67.5 10t-51 30t-29 50t-0.5 70q16 81 78 124t170 43h129l4 24q14 69 -16 103t-99 34q-38 0 -78.5 -9t-78.5 -27l4 54q38 17 81.5 26.5t85.5 9.5q76 0 116.5 -33t33.5 -96q44 63 106 96t131 33q82 0 125.5 -38.5
t30.5 -104.5q-6 -31 -24 -58.5t-52.5 -48.5t-89 -33t-132.5 -12h-104q-12 -88 25 -140.5t125 -52.5q35 0 71.5 9t68.5 31l-4 -57q-32 -19 -70.5 -28t-80.5 -9q-77 0 -124 35.5t-61 99.5zM173 42q28 0 57 8t55 26t47.5 48t35.5 74l13 65h-125q-82 0 -124.5 -29t-53.5 -84
q-6 -28 -0.5 -48t19 -33.5t33.5 -20t43 -6.5zM534 288q64 0 108 7t72 20t42 31t19 40q8 44 -20.5 67t-88.5 23q-36 0 -70.5 -11.5t-63.5 -34.5t-51 -58.5t-35 -83.5h88z" />
    <glyph glyph-name="ccedilla" unicode="&#xe7;" horiz-adv-x="499" 
d="M130 -186q11 -5 24 -7t27 -2q34 0 54 13t25 36q5 24 -17 41t-73 19l57 76q-52 6 -91.5 27t-64 56t-32.5 82t3 104q12 62 42 112t73.5 85.5t97 54.5t112.5 19q39 0 74.5 -7t62.5 -21l-18 -60q-25 18 -58.5 26t-70.5 8q-45 0 -86.5 -14.5t-75 -42.5t-57.5 -68.5t-34 -91.5
t-2 -91.5t31 -68t59.5 -42.5t83.5 -15q38 0 76 9t69 29l-6 -60q-29 -14 -63 -21.5t-69 -9.5l-39 -52q39 -8 58 -31t13 -53q-8 -42 -42.5 -66.5t-98.5 -24.5q-14 0 -27 1.5t-25 5.5z" />
    <glyph glyph-name="egrave" unicode="&#xe8;" horiz-adv-x="540" 
d="M261 42q45 0 85 10.5t75 33.5l-5 -59q-35 -20 -78.5 -29.5t-89.5 -9.5q-60 0 -104 19.5t-71 55t-35 85.5t4 112q12 64 41 114.5t70 85t91.5 52.5t106.5 18q43 0 78 -10.5t59 -29t35 -45t5 -58.5q-6 -31 -26.5 -59t-58.5 -49t-96.5 -33t-139.5 -12h-105q-11 -91 28 -141.5
t131 -50.5zM201 287q68 0 116 7.5t79 20.5t47 31t21 40q4 21 -4.5 37.5t-25.5 28.5t-42 18t-55 6q-36 0 -71 -12t-65 -35.5t-53 -59t-36 -82.5h89zM406 588h-56l-107 154l1 8h73z" />
    <glyph glyph-name="eacute" unicode="&#xe9;" horiz-adv-x="540" 
d="M261 42q45 0 85 10.5t75 33.5l-5 -59q-35 -20 -78.5 -29.5t-89.5 -9.5q-60 0 -104 19.5t-71 55t-35 85.5t4 112q12 64 41 114.5t70 85t91.5 52.5t106.5 18q43 0 78 -10.5t59 -29t35 -45t5 -58.5q-6 -31 -26.5 -59t-58.5 -49t-96.5 -33t-139.5 -12h-105q-11 -91 28 -141.5
t131 -50.5zM201 287q68 0 116 7.5t79 20.5t47 31t21 40q4 21 -4.5 37.5t-25.5 28.5t-42 18t-55 6q-36 0 -71 -12t-65 -35.5t-53 -59t-36 -82.5h89zM435 750h73l-1 -8l-167 -154h-56z" />
    <glyph glyph-name="ecircumflex" unicode="&#xea;" horiz-adv-x="540" 
d="M261 42q45 0 85 10.5t75 33.5l-5 -59q-35 -20 -78.5 -29.5t-89.5 -9.5q-60 0 -104 19.5t-71 55t-35 85.5t4 112q12 64 41 114.5t70 85t91.5 52.5t106.5 18q43 0 78 -10.5t59 -29t35 -45t5 -58.5q-6 -31 -26.5 -59t-58.5 -49t-96.5 -33t-139.5 -12h-105q-11 -91 28 -141.5
t131 -50.5zM201 287q68 0 116 7.5t79 20.5t47 31t21 40q4 21 -4.5 37.5t-25.5 28.5t-42 18t-55 6q-36 0 -71 -12t-65 -35.5t-53 -59t-36 -82.5h89zM405 750l105 -166h-62l-82 120l-128 -120h-62l169 166h60z" />
    <glyph glyph-name="edieresis" unicode="&#xeb;" horiz-adv-x="540" 
d="M261 42q45 0 85 10.5t75 33.5l-5 -59q-35 -20 -78.5 -29.5t-89.5 -9.5q-60 0 -104 19.5t-71 55t-35 85.5t4 112q12 64 41 114.5t70 85t91.5 52.5t106.5 18q43 0 78 -10.5t59 -29t35 -45t5 -58.5q-6 -31 -26.5 -59t-58.5 -49t-96.5 -33t-139.5 -12h-105q-11 -91 28 -141.5
t131 -50.5zM201 287q68 0 116 7.5t79 20.5t47 31t21 40q4 21 -4.5 37.5t-25.5 28.5t-42 18t-55 6q-36 0 -71 -12t-65 -35.5t-53 -59t-36 -82.5h89zM474 722q20 0 26.5 -12t1.5 -41q-6 -29 -17.5 -41t-31.5 -12t-26.5 12t-0.5 41q5 29 16.5 41t31.5 12zM272 722
q20 0 26.5 -12t1.5 -41q-6 -29 -17.5 -41t-31.5 -12t-26.5 12t-0.5 41q5 29 16.5 41t31.5 12z" />
    <glyph glyph-name="igrave" unicode="&#xec;" horiz-adv-x="230" 
d="M95 0h-60l100 518h60zM218 588h-56l-107 154l1 8h73z" />
    <glyph glyph-name="iacute" unicode="&#xed;" horiz-adv-x="230" 
d="M95 0h-60l100 518h60zM278 750h73l-1 -8l-167 -154h-56z" />
    <glyph glyph-name="icircumflex" unicode="&#xee;" horiz-adv-x="230" 
d="M95 0h-60l100 518h60zM240 750l105 -166h-62l-82 120l-128 -120h-62l169 166h60z" />
    <glyph glyph-name="idieresis" unicode="&#xef;" horiz-adv-x="230" 
d="M95 0h-60l100 518h60zM306 722q20 0 26.5 -12t1.5 -41q-6 -29 -17.5 -41t-31.5 -12t-26.5 12t-0.5 41q5 29 16.5 41t31.5 12zM104 722q20 0 26.5 -12t1.5 -41q-6 -29 -17.5 -41t-31.5 -12t-26.5 12t-0.5 41q5 29 16.5 41t31.5 12z" />
    <glyph glyph-name="eth" unicode="&#xf0;" horiz-adv-x="543" 
d="M473 609q38 -51 48.5 -121t-8.5 -164q-15 -77 -41.5 -139.5t-64.5 -106t-88 -67t-111 -23.5q-48 0 -85 17t-59.5 49.5t-29.5 80t5 108.5t36.5 108t60 79.5t80.5 49.5t96 17q45 0 86.5 -19t63.5 -52q0 57 -14.5 96t-42.5 68l-226 -65l-6 43l193 55q-27 17 -59 29t-67 23
l15 55q60 -14 106 -35t80 -51l128 37l6 -43zM302 444q-75 0 -128 -50.5t-72 -150.5q-18 -91 11.5 -146.5t104.5 -55.5q80 0 142.5 68t91.5 216q1 6 2.5 15.5t2.5 15.5q-26 43 -66.5 65.5t-88.5 22.5z" />
    <glyph glyph-name="ntilde" unicode="&#xf1;" horiz-adv-x="572" 
d="M326 476q-45 0 -88.5 -18t-76.5 -49l-79 -409h-60l100 518h60l-10 -50q35 28 81 45t92 17q100 0 145 -59t23 -171l-58 -300h-60l57 298q35 178 -126 178zM534 733q-7 -38 -18.5 -64.5t-26 -42.5t-32 -23t-36.5 -7q-26 0 -42 13.5t-28 29.5t-22.5 29.5t-23.5 13.5
q-15 0 -31.5 -17.5t-26.5 -66.5h-55q15 76 46 106.5t69 30.5q25 0 41.5 -13.5t28.5 -29.5t22 -29.5t24 -13.5q15 0 31 17.5t25 66.5h55z" />
    <glyph glyph-name="ograve" unicode="&#xf2;" horiz-adv-x="576" 
d="M42 259q11 59 38.5 108.5t67.5 85.5t89 56.5t104 20.5t96 -20.5t66.5 -56.5t33.5 -85.5t-3 -108.5q-12 -59 -39.5 -108.5t-67 -85.5t-88.5 -56.5t-104 -20.5t-96 20.5t-66.5 56.5t-34 85.5t3.5 108.5zM104 259q-10 -50 -4 -90t25 -68t50 -43.5t71 -15.5t76.5 15.5
t66.5 43.5t51.5 68t31.5 90q10 49 4 89.5t-25 68.5t-50 43.5t-71 15.5t-76.5 -15.5t-66.5 -43.5t-51.5 -68.5t-31.5 -89.5zM417 588h-56l-107 154l1 8h73z" />
    <glyph glyph-name="oacute" unicode="&#xf3;" horiz-adv-x="576" 
d="M42 259q11 59 38.5 108.5t67.5 85.5t89 56.5t104 20.5t96 -20.5t66.5 -56.5t33.5 -85.5t-3 -108.5q-12 -59 -39.5 -108.5t-67 -85.5t-88.5 -56.5t-104 -20.5t-96 20.5t-66.5 56.5t-34 85.5t3.5 108.5zM104 259q-10 -50 -4 -90t25 -68t50 -43.5t71 -15.5t76.5 15.5
t66.5 43.5t51.5 68t31.5 90q10 49 4 89.5t-25 68.5t-50 43.5t-71 15.5t-76.5 -15.5t-66.5 -43.5t-51.5 -68.5t-31.5 -89.5zM436 750h73l-1 -8l-167 -154h-56z" />
    <glyph glyph-name="ocircumflex" unicode="&#xf4;" horiz-adv-x="576" 
d="M42 259q11 59 38.5 108.5t67.5 85.5t89 56.5t104 20.5t96 -20.5t66.5 -56.5t33.5 -85.5t-3 -108.5q-12 -59 -39.5 -108.5t-67 -85.5t-88.5 -56.5t-104 -20.5t-96 20.5t-66.5 56.5t-34 85.5t3.5 108.5zM104 259q-10 -50 -4 -90t25 -68t50 -43.5t71 -15.5t76.5 15.5
t66.5 43.5t51.5 68t31.5 90q10 49 4 89.5t-25 68.5t-50 43.5t-71 15.5t-76.5 -15.5t-66.5 -43.5t-51.5 -68.5t-31.5 -89.5zM412 750l105 -166h-62l-82 120l-128 -120h-62l169 166h60z" />
    <glyph glyph-name="otilde" unicode="&#xf5;" horiz-adv-x="576" 
d="M42 259q11 59 38.5 108.5t67.5 85.5t89 56.5t104 20.5t96 -20.5t66.5 -56.5t33.5 -85.5t-3 -108.5q-12 -59 -39.5 -108.5t-67 -85.5t-88.5 -56.5t-104 -20.5t-96 20.5t-66.5 56.5t-34 85.5t3.5 108.5zM104 259q-10 -50 -4 -90t25 -68t50 -43.5t71 -15.5t76.5 15.5
t66.5 43.5t51.5 68t31.5 90q10 49 4 89.5t-25 68.5t-50 43.5t-71 15.5t-76.5 -15.5t-66.5 -43.5t-51.5 -68.5t-31.5 -89.5zM537 733q-7 -38 -18.5 -64.5t-26 -42.5t-32 -23t-36.5 -7q-26 0 -42 13.5t-28 29.5t-22.5 29.5t-23.5 13.5q-15 0 -31.5 -17.5t-26.5 -66.5h-55
q15 76 46 106.5t69 30.5q25 0 41.5 -13.5t28.5 -29.5t22 -29.5t24 -13.5q15 0 31 17.5t25 66.5h55z" />
    <glyph glyph-name="odieresis" unicode="&#xf6;" horiz-adv-x="576" 
d="M42 259q11 59 38.5 108.5t67.5 85.5t89 56.5t104 20.5t96 -20.5t66.5 -56.5t33.5 -85.5t-3 -108.5q-12 -59 -39.5 -108.5t-67 -85.5t-88.5 -56.5t-104 -20.5t-96 20.5t-66.5 56.5t-34 85.5t3.5 108.5zM104 259q-10 -50 -4 -90t25 -68t50 -43.5t71 -15.5t76.5 15.5
t66.5 43.5t51.5 68t31.5 90q10 49 4 89.5t-25 68.5t-50 43.5t-71 15.5t-76.5 -15.5t-66.5 -43.5t-51.5 -68.5t-31.5 -89.5zM478 722q20 0 26.5 -12t1.5 -41q-6 -29 -17.5 -41t-31.5 -12t-26.5 12t-0.5 41q5 29 16.5 41t31.5 12zM276 722q20 0 26.5 -12t1.5 -41
q-6 -29 -17.5 -41t-31.5 -12t-26.5 12t-0.5 41q5 29 16.5 41t31.5 12z" />
    <glyph glyph-name="divide" unicode="&#xf7;" horiz-adv-x="612" 
d="M565 360v-56h-488v56h488zM364 533q0 -31 -10.5 -43.5t-32.5 -12.5t-32.5 12.5t-10.5 43.5t10.5 43.5t32.5 12.5t32.5 -12.5t10.5 -43.5zM364 131q0 -31 -10.5 -43.5t-32.5 -12.5t-32.5 12.5t-10.5 43.5t10.5 43.5t32.5 12.5t32.5 -12.5t10.5 -43.5z" />
    <glyph glyph-name="oslash" unicode="&#xf8;" horiz-adv-x="576" 
d="M42 259q11 59 38.5 108.5t67.5 85.5t89 56.5t104 20.5q31 0 57.5 -7t47.5 -19l97 124h61l-119 -154q35 -36 49 -91t0 -124q-12 -59 -39.5 -108.5t-67 -85.5t-88.5 -56.5t-104 -20.5q-61 0 -106 25l-95 -123h-61l118 152q-36 36 -49.5 92t0.5 125zM104 259
q-11 -53 -3.5 -94.5t29.5 -70.5l279 362q-32 20 -79 20q-40 0 -76.5 -15.5t-66.5 -43.5t-51.5 -68.5t-31.5 -89.5zM472 259q10 53 2.5 94t-28.5 70l-279 -361q32 -20 79 -20q40 0 76.5 15.5t66.5 43.5t51.5 68t31.5 90z" />
    <glyph glyph-name="ugrave" unicode="&#xf9;" horiz-adv-x="572" 
d="M246 42q45 0 88.5 18t76.5 49l79 409h60l-100 -518h-60l9 50q-35 -28 -80.5 -45t-91.5 -17q-100 0 -145 59t-23 171l58 300h60l-58 -298q-17 -89 15 -133.5t112 -44.5zM390 588h-56l-107 154l1 8h73z" />
    <glyph glyph-name="uacute" unicode="&#xfa;" horiz-adv-x="572" 
d="M246 42q45 0 88.5 18t76.5 49l79 409h60l-100 -518h-60l9 50q-35 -28 -80.5 -45t-91.5 -17q-100 0 -145 59t-23 171l58 300h60l-58 -298q-17 -89 15 -133.5t112 -44.5zM455 750h73l-1 -8l-167 -154h-56z" />
    <glyph glyph-name="ucircumflex" unicode="&#xfb;" horiz-adv-x="572" 
d="M246 42q45 0 88.5 18t76.5 49l79 409h60l-100 -518h-60l9 50q-35 -28 -80.5 -45t-91.5 -17q-100 0 -145 59t-23 171l58 300h60l-58 -298q-17 -89 15 -133.5t112 -44.5zM407 750l105 -166h-62l-82 120l-128 -120h-62l169 166h60z" />
    <glyph glyph-name="udieresis" unicode="&#xfc;" horiz-adv-x="572" 
d="M246 42q45 0 88.5 18t76.5 49l79 409h60l-100 -518h-60l9 50q-35 -28 -80.5 -45t-91.5 -17q-100 0 -145 59t-23 171l58 300h60l-58 -298q-17 -89 15 -133.5t112 -44.5zM473 722q20 0 26.5 -12t1.5 -41q-6 -29 -17.5 -41t-31.5 -12t-26.5 12t-0.5 41q5 29 16.5 41t31.5 12
zM271 722q20 0 26.5 -12t1.5 -41q-6 -29 -17.5 -41t-31.5 -12t-26.5 12t-0.5 41q5 29 16.5 41t31.5 12z" />
    <glyph glyph-name="yacute" unicode="&#xfd;" horiz-adv-x="526" 
d="M491 518h68l-423 -711h-66l115 193l-118 518h68l96 -443zM429 750h73l-1 -8l-167 -154h-56z" />
    <glyph glyph-name="thorn" unicode="&#xfe;" horiz-adv-x="570" 
d="M339 530q51 0 91.5 -18.5t66 -54t34.5 -85.5t-3 -113t-41 -113t-68.5 -85.5t-87 -54t-98.5 -18.5q-45 0 -82 16t-60 44l-47 -241h-60l179 923h60l-50 -259q33 27 77 43t89 16zM320 476q-42 0 -84 -16t-74 -47l-60 -308q20 -31 56 -47t78 -16q39 0 76 14.5t68 42t53.5 68
t32.5 92.5t3.5 92.5t-27 68t-52 42t-70.5 14.5z" />
    <glyph glyph-name="ydieresis" unicode="&#xff;" horiz-adv-x="526" 
d="M491 518h68l-423 -711h-66l115 193l-118 518h68l96 -443zM454 722q20 0 26.5 -12t1.5 -41q-6 -29 -17.5 -41t-31.5 -12t-26.5 12t-0.5 41q5 29 16.5 41t31.5 12zM252 722q20 0 26.5 -12t1.5 -41q-6 -29 -17.5 -41t-31.5 -12t-26.5 12t-0.5 41q5 29 16.5 41t31.5 12z" />
    <glyph glyph-name="Amacron" unicode="&#x100;" horiz-adv-x="640" 
d="M476 191h-338l-111 -191h-70l413 700h72l141 -700h-70zM171 247h294l-73 382zM295 866h284l-10 -52h-284z" />
    <glyph glyph-name="amacron" unicode="&#x101;" horiz-adv-x="570" 
d="M231 -12q-51 0 -91.5 18.5t-66 54t-34.5 85.5t3 113t41 113t68.5 85.5t87 54t98.5 18.5q45 0 82 -16t60 -44l9 48h60l-100 -518h-60l9 47q-33 -27 -77 -43t-89 -16zM250 42q42 0 84 16t74 47l60 308q-20 31 -56 47t-78 16q-39 0 -76.5 -14.5t-68 -42t-53 -68t-32.5 -92.5
t-3.5 -92.5t27 -68t52 -42t70.5 -14.5zM243 692h284l-10 -52h-284z" />
    <glyph glyph-name="Abreve" unicode="&#x102;" horiz-adv-x="640" 
d="M476 191h-338l-111 -191h-70l413 700h72l141 -700h-70zM171 247h294l-73 382zM417 762q-32 0 -58.5 9.5t-44 29t-24.5 49t-1 69.5h56q-8 -54 14.5 -81t66.5 -27t78 27t45 81h56q-9 -40 -27.5 -69.5t-43.5 -49t-55 -29t-62 -9.5z" />
    <glyph glyph-name="abreve" unicode="&#x103;" horiz-adv-x="570" 
d="M231 -12q-51 0 -91.5 18.5t-66 54t-34.5 85.5t3 113t41 113t68.5 85.5t87 54t98.5 18.5q45 0 82 -16t60 -44l9 48h60l-100 -518h-60l9 47q-33 -27 -77 -43t-89 -16zM250 42q42 0 84 16t74 47l60 308q-20 31 -56 47t-78 16q-39 0 -76.5 -14.5t-68 -42t-53 -68t-32.5 -92.5
t-3.5 -92.5t27 -68t52 -42t70.5 -14.5zM362 588q-32 0 -58.5 9.5t-44 29t-24.5 49t-1 69.5h56q-8 -54 14.5 -81t66.5 -27t78 27t45 81h56q-9 -40 -27.5 -69.5t-43.5 -49t-55 -29t-62 -9.5z" />
    <glyph glyph-name="Aogonek" unicode="&#x104;" horiz-adv-x="640" 
d="M583 0q-48 -35 -72 -65.5t-30 -59.5q-7 -43 48 -43q11 0 22 1t22 6l-10 -52q-11 -3 -26 -4.5t-29 -1.5q-53 0 -74.5 23.5t-14.5 61.5q8 37 36.5 71.5t66.5 62.5h-9l-37 191h-338l-111 -191h-70l413 700h72zM171 247h294l-73 382z" />
    <glyph glyph-name="aogonek" unicode="&#x105;" horiz-adv-x="570" 
d="M388 0l9 47q-33 -27 -77 -43t-89 -16q-51 0 -91.5 18.5t-66 54t-34.5 85.5t3 113t41 113t68.5 85.5t87 54t98.5 18.5q45 0 82 -16t60 -44l9 48h60l-100 -518q-48 -35 -72 -65.5t-30 -59.5q-7 -43 48 -43q11 0 22 1t22 6l-10 -52q-11 -3 -26 -4.5t-29 -1.5
q-53 0 -74.5 23.5t-14.5 61.5q8 37 37 71.5t67 62.5zM250 42q42 0 84 16t74 47l60 308q-20 31 -56 47t-78 16q-39 0 -76.5 -14.5t-68 -42t-53 -68t-32.5 -92.5t-3.5 -92.5t27 -68t52 -42t70.5 -14.5z" />
    <glyph glyph-name="Cacute" unicode="&#x106;" horiz-adv-x="603" 
d="M65 350q15 80 53.5 146.5t94.5 114.5t127.5 74.5t154.5 26.5q39 0 77.5 -7t67.5 -22l-18 -62q-28 17 -62.5 25t-72.5 8q-70 0 -129.5 -22t-105.5 -62t-77 -96t-44 -124q-14 -69 -4.5 -125.5t40.5 -96t82 -61t121 -21.5q37 0 76.5 8.5t74.5 26.5l-7 -63
q-38 -17 -79.5 -23.5t-78.5 -6.5q-83 0 -145 26t-100 73.5t-50 114.5t4 148zM569 924h73l-1 -8l-167 -154h-56z" />
    <glyph glyph-name="cacute" unicode="&#x107;" horiz-adv-x="499" 
d="M42 259q12 62 42 112t73.5 85.5t97 54.5t112.5 19q39 0 74.5 -7t62.5 -21l-18 -60q-25 18 -58.5 26t-70.5 8q-45 0 -86.5 -14.5t-75 -42.5t-57.5 -68.5t-34 -91.5t-2 -91.5t31 -68t59.5 -42.5t83.5 -15q38 0 76 9t69 29l-6 -60q-32 -16 -70.5 -24t-79.5 -8q-61 0 -108 19
t-76.5 54.5t-40 85.5t1.5 112zM439 750h73l-1 -8l-167 -154h-56z" />
    <glyph glyph-name="Ccircumflex" unicode="&#x108;" horiz-adv-x="603" 
d="M65 350q15 80 53.5 146.5t94.5 114.5t127.5 74.5t154.5 26.5q39 0 77.5 -7t67.5 -22l-18 -62q-28 17 -62.5 25t-72.5 8q-70 0 -129.5 -22t-105.5 -62t-77 -96t-44 -124q-14 -69 -4.5 -125.5t40.5 -96t82 -61t121 -21.5q37 0 76.5 8.5t74.5 26.5l-7 -63
q-38 -17 -79.5 -23.5t-78.5 -6.5q-83 0 -145 26t-100 73.5t-50 114.5t4 148zM535 924l105 -166h-62l-82 120l-128 -120h-62l169 166h60z" />
    <glyph glyph-name="ccircumflex" unicode="&#x109;" horiz-adv-x="499" 
d="M42 259q12 62 42 112t73.5 85.5t97 54.5t112.5 19q39 0 74.5 -7t62.5 -21l-18 -60q-25 18 -58.5 26t-70.5 8q-45 0 -86.5 -14.5t-75 -42.5t-57.5 -68.5t-34 -91.5t-2 -91.5t31 -68t59.5 -42.5t83.5 -15q38 0 76 9t69 29l-6 -60q-32 -16 -70.5 -24t-79.5 -8q-61 0 -108 19
t-76.5 54.5t-40 85.5t1.5 112zM417 750l105 -166h-62l-82 120l-128 -120h-62l169 166h60z" />
    <glyph glyph-name="Cdotaccent" unicode="&#x10a;" horiz-adv-x="603" 
d="M65 350q15 80 53.5 146.5t94.5 114.5t127.5 74.5t154.5 26.5q39 0 77.5 -7t67.5 -22l-18 -62q-28 17 -62.5 25t-72.5 8q-70 0 -129.5 -22t-105.5 -62t-77 -96t-44 -124q-14 -69 -4.5 -125.5t40.5 -96t82 -61t121 -21.5q37 0 76.5 8.5t74.5 26.5l-7 -63
q-38 -17 -79.5 -23.5t-78.5 -6.5q-83 0 -145 26t-100 73.5t-50 114.5t4 148zM494 896q20 0 26.5 -12t1.5 -41q-6 -29 -17.5 -41t-31.5 -12t-26.5 12t-0.5 41q5 29 16.5 41t31.5 12z" />
    <glyph glyph-name="cdotaccent" unicode="&#x10b;" horiz-adv-x="499" 
d="M42 259q12 62 42 112t73.5 85.5t97 54.5t112.5 19q39 0 74.5 -7t62.5 -21l-18 -60q-25 18 -58.5 26t-70.5 8q-45 0 -86.5 -14.5t-75 -42.5t-57.5 -68.5t-34 -91.5t-2 -91.5t31 -68t59.5 -42.5t83.5 -15q38 0 76 9t69 29l-6 -60q-32 -16 -70.5 -24t-79.5 -8q-61 0 -108 19
t-76.5 54.5t-40 85.5t1.5 112zM387 722q20 0 26.5 -12t1.5 -41q-6 -29 -17.5 -41t-31.5 -12t-26.5 12t-0.5 41q5 29 16.5 41t31.5 12z" />
    <glyph glyph-name="Ccaron" unicode="&#x10c;" horiz-adv-x="603" 
d="M65 350q15 80 53.5 146.5t94.5 114.5t127.5 74.5t154.5 26.5q39 0 77.5 -7t67.5 -22l-18 -62q-28 17 -62.5 25t-72.5 8q-70 0 -129.5 -22t-105.5 -62t-77 -96t-44 -124q-14 -69 -4.5 -125.5t40.5 -96t82 -61t121 -21.5q37 0 76.5 8.5t74.5 26.5l-7 -63
q-38 -17 -79.5 -23.5t-78.5 -6.5q-83 0 -145 26t-100 73.5t-50 114.5t4 148zM441 758l-105 166h62l82 -120l128 120h62l-169 -166h-60z" />
    <glyph glyph-name="ccaron" unicode="&#x10d;" horiz-adv-x="499" 
d="M42 259q12 62 42 112t73.5 85.5t97 54.5t112.5 19q39 0 74.5 -7t62.5 -21l-18 -60q-25 18 -58.5 26t-70.5 8q-45 0 -86.5 -14.5t-75 -42.5t-57.5 -68.5t-34 -91.5t-2 -91.5t31 -68t59.5 -42.5t83.5 -15q38 0 76 9t69 29l-6 -60q-32 -16 -70.5 -24t-79.5 -8q-61 0 -108 19
t-76.5 54.5t-40 85.5t1.5 112zM325 584l-105 166h62l82 -120l128 120h62l-169 -166h-60z" />
    <glyph glyph-name="Dcaron" unicode="&#x10e;" horiz-adv-x="672" 
d="M577 350q15 76 2.5 131.5t-47.5 91.5t-92 53.5t-132 17.5h-87l-115 -588h87q75 0 138.5 17.5t113 53.5t83.5 91.5t49 131.5zM643 350q-17 -87 -58 -152.5t-100 -109.5t-134 -66t-160 -22h-159l136 700h159q85 0 151.5 -22t108.5 -66t57 -109.5t-1 -152.5zM331 758
l-105 166h62l82 -120l128 120h62l-169 -166h-60z" />
    <glyph glyph-name="dcaron" unicode="&#x10f;" horiz-adv-x="655" 
d="M231 -12q-51 0 -91.5 18.5t-66 54t-34.5 85.5t3 113t41 113t68.5 85.5t87 54t98.5 18.5q45 0 82 -16t60 -44l50 260h60l-141 -730h-60l9 47q-33 -27 -77 -43t-89 -16zM250 42q42 0 84 16t74 47l60 308q-20 31 -56 47t-78 16q-39 0 -76.5 -14.5t-68 -42t-53 -68
t-32.5 -92.5t-3.5 -92.5t27 -68t52 -42t70.5 -14.5zM716 686q-11 -56 -31.5 -94.5t-65.5 -73.5l-13 23q41 41 53 89q-20 1 -27.5 13.5t-1.5 42.5q6 31 19 43.5t35 12.5t30 -12.5t2 -43.5z" />
    <glyph glyph-name="Dcroat" unicode="&#x110;" horiz-adv-x="677" 
d="M648 350q-17 -87 -58 -152.5t-100 -109.5t-134 -66t-160 -22h-159l63 325h-70l10 52h70l63 323h159q85 0 151.5 -22t108.5 -66t57 -109.5t-1 -152.5zM582 350q15 76 2.5 131.5t-47.5 91.5t-92 53.5t-132 17.5h-87l-52 -267h175l-10 -52h-175l-53 -269h87q75 0 138.5 17.5
t113 53.5t83.5 91.5t49 131.5z" />
    <glyph glyph-name="dcroat" unicode="&#x111;" horiz-adv-x="575" 
d="M634 601h-70l-116 -601h-60l9 47q-33 -27 -77 -43t-89 -16q-51 0 -91.5 18.5t-66 54t-34.5 85.5t3 113t41 113t68.5 85.5t87 54t98.5 18.5q45 0 82 -16t60 -44l25 131h-206l10 52h206l15 77h60l-15 -77h70zM250 42q42 0 84 16t74 47l60 308q-20 31 -56 47t-78 16
q-39 0 -76.5 -14.5t-68 -42t-53 -68t-32.5 -92.5t-3.5 -92.5t27 -68t52 -42t70.5 -14.5z" />
    <glyph glyph-name="Emacron" unicode="&#x112;" horiz-adv-x="557" 
d="M168 700h424l-11 -56h-360l-50 -254h335l-11 -56h-335l-54 -278h369l-10 -56h-433zM268 866h284l-10 -52h-284z" />
    <glyph glyph-name="emacron" unicode="&#x113;" horiz-adv-x="540" 
d="M261 42q45 0 85 10.5t75 33.5l-5 -59q-35 -20 -78.5 -29.5t-89.5 -9.5q-60 0 -104 19.5t-71 55t-35 85.5t4 112q12 64 41 114.5t70 85t91.5 52.5t106.5 18q43 0 78 -10.5t59 -29t35 -45t5 -58.5q-6 -31 -26.5 -59t-58.5 -49t-96.5 -33t-139.5 -12h-105q-11 -91 28 -141.5
t131 -50.5zM201 287q68 0 116 7.5t79 20.5t47 31t21 40q4 21 -4.5 37.5t-25.5 28.5t-42 18t-55 6q-36 0 -71 -12t-65 -35.5t-53 -59t-36 -82.5h89zM223 692h284l-10 -52h-284z" />
    <glyph glyph-name="Ebreve" unicode="&#x114;" horiz-adv-x="557" 
d="M168 700h424l-11 -56h-360l-50 -254h335l-11 -56h-335l-54 -278h369l-10 -56h-433zM394 762q-32 0 -58.5 9.5t-44 29t-24.5 49t-1 69.5h56q-8 -54 14.5 -81t66.5 -27t78 27t45 81h56q-9 -40 -27.5 -69.5t-43.5 -49t-55 -29t-62 -9.5z" />
    <glyph glyph-name="ebreve" unicode="&#x115;" horiz-adv-x="540" 
d="M261 42q45 0 85 10.5t75 33.5l-5 -59q-35 -20 -78.5 -29.5t-89.5 -9.5q-60 0 -104 19.5t-71 55t-35 85.5t4 112q12 64 41 114.5t70 85t91.5 52.5t106.5 18q43 0 78 -10.5t59 -29t35 -45t5 -58.5q-6 -31 -26.5 -59t-58.5 -49t-96.5 -33t-139.5 -12h-105q-11 -91 28 -141.5
t131 -50.5zM201 287q68 0 116 7.5t79 20.5t47 31t21 40q4 21 -4.5 37.5t-25.5 28.5t-42 18t-55 6q-36 0 -71 -12t-65 -35.5t-53 -59t-36 -82.5h89zM344 588q-32 0 -58.5 9.5t-44 29t-24.5 49t-1 69.5h56q-8 -54 14.5 -81t66.5 -27t78 27t45 81h56q-9 -40 -27.5 -69.5
t-43.5 -49t-55 -29t-62 -9.5z" />
    <glyph glyph-name="Edotaccent" unicode="&#x116;" horiz-adv-x="557" 
d="M168 700h424l-11 -56h-360l-50 -254h335l-11 -56h-335l-54 -278h369l-10 -56h-433zM416 896q20 0 26.5 -12t1.5 -41q-6 -29 -17.5 -41t-31.5 -12t-26.5 12t-0.5 41q5 29 16.5 41t31.5 12z" />
    <glyph glyph-name="edotaccent" unicode="&#x117;" horiz-adv-x="540" 
d="M261 42q45 0 85 10.5t75 33.5l-5 -59q-35 -20 -78.5 -29.5t-89.5 -9.5q-60 0 -104 19.5t-71 55t-35 85.5t4 112q12 64 41 114.5t70 85t91.5 52.5t106.5 18q43 0 78 -10.5t59 -29t35 -45t5 -58.5q-6 -31 -26.5 -59t-58.5 -49t-96.5 -33t-139.5 -12h-105q-11 -91 28 -141.5
t131 -50.5zM201 287q68 0 116 7.5t79 20.5t47 31t21 40q4 21 -4.5 37.5t-25.5 28.5t-42 18t-55 6q-36 0 -71 -12t-65 -35.5t-53 -59t-36 -82.5h89zM366 722q20 0 26.5 -12t1.5 -41q-6 -29 -17.5 -41t-31.5 -12t-26.5 12t-0.5 41q5 29 16.5 41t31.5 12z" />
    <glyph glyph-name="Eogonek" unicode="&#x118;" horiz-adv-x="557" 
d="M424 0q-48 -35 -72 -65.5t-30 -59.5q-7 -43 48 -43q11 0 22 1t22 6l-10 -52q-11 -3 -26 -4.5t-29 -1.5q-53 0 -74.5 23.5t-14.5 61.5q8 37 36.5 71.5t66.5 62.5h-331l136 700h424l-11 -56h-360l-50 -254h335l-11 -56h-335l-54 -278h369l-10 -56h-41z" />
    <glyph glyph-name="eogonek" unicode="&#x119;" horiz-adv-x="540" 
d="M261 42q45 0 85 10.5t75 33.5l-5 -59q-20 -11 -41.5 -18.5t-44.5 -12.5q-45 -34 -68 -63.5t-29 -57.5q-7 -43 48 -43q11 0 22 1t22 6l-10 -52q-11 -3 -26 -4.5t-29 -1.5q-53 0 -74.5 23.5t-14.5 61.5q7 33 30.5 64.5t56.5 57.5h-10q-60 0 -104 19.5t-71 55t-35 85.5
t4 112q12 64 41 114.5t70 85t91.5 52.5t106.5 18q43 0 78 -10.5t59 -29t35 -45t5 -58.5q-6 -31 -26.5 -59t-58.5 -49t-96.5 -33t-139.5 -12h-105q-11 -91 28 -141.5t131 -50.5zM201 287q68 0 116 7.5t79 20.5t47 31t21 40q4 21 -4.5 37.5t-25.5 28.5t-42 18t-55 6
q-36 0 -71 -12t-65 -35.5t-53 -59t-36 -82.5h89z" />
    <glyph glyph-name="Ecaron" unicode="&#x11a;" horiz-adv-x="557" 
d="M168 700h424l-11 -56h-360l-50 -254h335l-11 -56h-335l-54 -278h369l-10 -56h-433zM362 758l-105 166h62l82 -120l128 120h62l-169 -166h-60z" />
    <glyph glyph-name="ecaron" unicode="&#x11b;" horiz-adv-x="540" 
d="M261 42q45 0 85 10.5t75 33.5l-5 -59q-35 -20 -78.5 -29.5t-89.5 -9.5q-60 0 -104 19.5t-71 55t-35 85.5t4 112q12 64 41 114.5t70 85t91.5 52.5t106.5 18q43 0 78 -10.5t59 -29t35 -45t5 -58.5q-6 -31 -26.5 -59t-58.5 -49t-96.5 -33t-139.5 -12h-105q-11 -91 28 -141.5
t131 -50.5zM201 287q68 0 116 7.5t79 20.5t47 31t21 40q4 21 -4.5 37.5t-25.5 28.5t-42 18t-55 6q-36 0 -71 -12t-65 -35.5t-53 -59t-36 -82.5h89zM303 584l-105 166h62l82 -120l128 120h62l-169 -166h-60z" />
    <glyph glyph-name="Gcircumflex" unicode="&#x11c;" horiz-adv-x="698" 
d="M385 46q39 0 72 4t67 14l50 255h-208l10 56h272l-68 -351q-48 -19 -98.5 -27.5t-109.5 -8.5q-86 0 -150.5 27t-104.5 75.5t-53.5 115t1.5 144.5t54 144t96.5 114.5t130 76t155.5 27.5q56 0 104.5 -9.5t86.5 -27.5l-18 -65q-37 23 -84 33.5t-98 10.5q-68 0 -128 -23
t-107.5 -63.5t-80 -96t-45.5 -121.5q-13 -67 -2 -122.5t44 -96t86.5 -63t125.5 -22.5zM541 924l105 -166h-62l-82 120l-128 -120h-62l169 166h60z" />
    <glyph glyph-name="gcircumflex" unicode="&#x11d;" horiz-adv-x="570" 
d="M337 530q45 0 82 -16t60 -43l9 47h60l-94 -484q-12 -62 -34 -106.5t-56 -73t-80 -41.5t-106 -13q-46 0 -90 10t-76 28l16 64q31 -24 73.5 -36t87.5 -12q86 0 135.5 38t67.5 130l6 31q-33 -28 -77 -44t-89 -16q-51 0 -91.5 18t-66.5 52.5t-35 84.5t3 113t41 113t68.5 84.5
t87 53t98.5 18.5zM334 476q-39 0 -76.5 -14t-68 -41.5t-53 -67.5t-32.5 -92t-3 -92t27 -67t52 -41t71 -14q42 0 84 16t74 47l59 303q-20 31 -56 47t-78 16zM418 750l105 -166h-62l-82 120l-128 -120h-62l169 166h60z" />
    <glyph glyph-name="Gbreve" unicode="&#x11e;" horiz-adv-x="698" 
d="M385 46q39 0 72 4t67 14l50 255h-208l10 56h272l-68 -351q-48 -19 -98.5 -27.5t-109.5 -8.5q-86 0 -150.5 27t-104.5 75.5t-53.5 115t1.5 144.5t54 144t96.5 114.5t130 76t155.5 27.5q56 0 104.5 -9.5t86.5 -27.5l-18 -65q-37 23 -84 33.5t-98 10.5q-68 0 -128 -23
t-107.5 -63.5t-80 -96t-45.5 -121.5q-13 -67 -2 -122.5t44 -96t86.5 -63t125.5 -22.5zM482 762q-32 0 -58.5 9.5t-44 29t-24.5 49t-1 69.5h56q-8 -54 14.5 -81t66.5 -27t78 27t45 81h56q-9 -40 -27.5 -69.5t-43.5 -49t-55 -29t-62 -9.5z" />
    <glyph glyph-name="gbreve" unicode="&#x11f;" horiz-adv-x="570" 
d="M337 530q45 0 82 -16t60 -43l9 47h60l-94 -484q-12 -62 -34 -106.5t-56 -73t-80 -41.5t-106 -13q-46 0 -90 10t-76 28l16 64q31 -24 73.5 -36t87.5 -12q86 0 135.5 38t67.5 130l6 31q-33 -28 -77 -44t-89 -16q-51 0 -91.5 18t-66.5 52.5t-35 84.5t3 113t41 113t68.5 84.5
t87 53t98.5 18.5zM334 476q-39 0 -76.5 -14t-68 -41.5t-53 -67.5t-32.5 -92t-3 -92t27 -67t52 -41t71 -14q42 0 84 16t74 47l59 303q-20 31 -56 47t-78 16zM355 588q-32 0 -58.5 9.5t-44 29t-24.5 49t-1 69.5h56q-8 -54 14.5 -81t66.5 -27t78 27t45 81h56
q-9 -40 -27.5 -69.5t-43.5 -49t-55 -29t-62 -9.5z" />
    <glyph glyph-name="Gdotaccent" unicode="&#x120;" horiz-adv-x="698" 
d="M385 46q39 0 72 4t67 14l50 255h-208l10 56h272l-68 -351q-48 -19 -98.5 -27.5t-109.5 -8.5q-86 0 -150.5 27t-104.5 75.5t-53.5 115t1.5 144.5t54 144t96.5 114.5t130 76t155.5 27.5q56 0 104.5 -9.5t86.5 -27.5l-18 -65q-37 23 -84 33.5t-98 10.5q-68 0 -128 -23
t-107.5 -63.5t-80 -96t-45.5 -121.5q-13 -67 -2 -122.5t44 -96t86.5 -63t125.5 -22.5zM511 896q20 0 26.5 -12t1.5 -41q-6 -29 -17.5 -41t-31.5 -12t-26.5 12t-0.5 41q5 29 16.5 41t31.5 12z" />
    <glyph glyph-name="gdotaccent" unicode="&#x121;" horiz-adv-x="570" 
d="M337 530q45 0 82 -16t60 -43l9 47h60l-94 -484q-12 -62 -34 -106.5t-56 -73t-80 -41.5t-106 -13q-46 0 -90 10t-76 28l16 64q31 -24 73.5 -36t87.5 -12q86 0 135.5 38t67.5 130l6 31q-33 -28 -77 -44t-89 -16q-51 0 -91.5 18t-66.5 52.5t-35 84.5t3 113t41 113t68.5 84.5
t87 53t98.5 18.5zM334 476q-39 0 -76.5 -14t-68 -41.5t-53 -67.5t-32.5 -92t-3 -92t27 -67t52 -41t71 -14q42 0 84 16t74 47l59 303q-20 31 -56 47t-78 16zM380 722q20 0 26.5 -12t1.5 -41q-6 -29 -17.5 -41t-31.5 -12t-26.5 12t-0.5 41q5 29 16.5 41t31.5 12z" />
    <glyph glyph-name="Gcommaaccent" unicode="&#x122;" horiz-adv-x="698" 
d="M385 46q39 0 72 4t67 14l50 255h-208l10 56h272l-68 -351q-48 -19 -98.5 -27.5t-109.5 -8.5q-86 0 -150.5 27t-104.5 75.5t-53.5 115t1.5 144.5t54 144t96.5 114.5t130 76t155.5 27.5q56 0 104.5 -9.5t86.5 -27.5l-18 -65q-37 23 -84 33.5t-98 10.5q-68 0 -128 -23
t-107.5 -63.5t-80 -96t-45.5 -121.5q-13 -67 -2 -122.5t44 -96t86.5 -63t125.5 -22.5zM307 -100q5 26 20 38.5t32 12.5t27 -12.5t5 -38.5q-9 -48 -31.5 -84t-63.5 -65l-12 15q20 19 33 39t21 44q-19 1 -27.5 14.5t-3.5 36.5z" />
    <glyph glyph-name="gcommaaccent" unicode="&#x123;" horiz-adv-x="570" 
d="M337 530q45 0 82 -16t60 -43l9 47h60l-94 -484q-12 -62 -34 -106.5t-56 -73t-80 -41.5t-106 -13q-46 0 -90 10t-76 28l16 64q31 -24 73.5 -36t87.5 -12q86 0 135.5 38t67.5 130l6 31q-33 -28 -77 -44t-89 -16q-51 0 -91.5 18t-66.5 52.5t-35 84.5t3 113t41 113t68.5 84.5
t87 53t98.5 18.5zM334 476q-39 0 -76.5 -14t-68 -41.5t-53 -67.5t-32.5 -92t-3 -92t27 -67t52 -41t71 -14q42 0 84 16t74 47l59 303q-20 31 -56 47t-78 16zM402 635q-5 -26 -20 -38.5t-32 -12.5t-27 12.5t-5 38.5q9 48 31.5 84t63.5 65l12 -15q-20 -19 -33 -39t-21 -44
q19 -1 27.5 -14.5t3.5 -36.5z" />
    <glyph glyph-name="Hcircumflex" unicode="&#x124;" horiz-adv-x="693" 
d="M168 700h64l-59 -299h401l59 299h64l-136 -700h-64l67 345h-401l-67 -345h-64zM504 924l105 -166h-62l-82 120l-128 -120h-62l169 166h60z" />
    <glyph glyph-name="hcircumflex" unicode="&#x125;" horiz-adv-x="572" 
d="M326 476q-45 0 -88.5 -18t-76.5 -49l-79 -409h-60l141 730h60l-51 -262q35 28 81 45t92 17q100 0 145 -59t23 -171l-58 -300h-60l57 298q35 178 -126 178zM356 924l105 -166h-62l-82 120l-128 -120h-62l169 166h60z" />
    <glyph glyph-name="Hbar" unicode="&#x126;" horiz-adv-x="703" 
d="M173 700h64l-21 -105h401l21 105h64l-21 -105h63l-10 -52h-63l-105 -543h-64l67 345h-401l-67 -345h-64l105 543h-63l10 52h63zM579 401l28 142h-401l-28 -142h401z" />
    <glyph glyph-name="hbar" unicode="&#x127;" horiz-adv-x="577" 
d="M331 476q-45 0 -88.5 -18t-76.5 -49l-79 -409h-60l116 601h-70l10 52h70l15 77h60l-15 -77h206l-10 -52h-206l-26 -133q35 28 81 45t92 17q100 0 145 -59t23 -171l-58 -300h-60l57 298q35 178 -126 178z" />
    <glyph glyph-name="Itilde" unicode="&#x128;" horiz-adv-x="238" 
d="M237 700l-136 -700h-64l136 700h64zM403 907q-7 -38 -18.5 -64.5t-26 -42.5t-32 -23t-36.5 -7q-26 0 -42 13.5t-28 29.5t-22.5 29.5t-23.5 13.5q-15 0 -31.5 -17.5t-26.5 -66.5h-55q15 76 46 106.5t69 30.5q25 0 41.5 -13.5t28.5 -29.5t22 -29.5t24 -13.5q15 0 31 17.5
t25 66.5h55z" />
    <glyph glyph-name="itilde" unicode="&#x129;" horiz-adv-x="230" 
d="M95 0h-60l100 518h60zM365 733q-7 -38 -18.5 -64.5t-26 -42.5t-32 -23t-36.5 -7q-26 0 -42 13.5t-28 29.5t-22.5 29.5t-23.5 13.5q-15 0 -31.5 -17.5t-26.5 -66.5h-55q15 76 46 106.5t69 30.5q25 0 41.5 -13.5t28.5 -29.5t22 -29.5t24 -13.5q15 0 31 17.5t25 66.5h55z
" />
    <glyph glyph-name="Imacron" unicode="&#x12a;" horiz-adv-x="238" 
d="M237 700l-136 -700h-64l136 700h64zM95 866h284l-10 -52h-284z" />
    <glyph glyph-name="imacron" unicode="&#x12b;" horiz-adv-x="230" 
d="M95 0h-60l100 518h60zM58 692h284l-10 -52h-284z" />
    <glyph glyph-name="Ibreve" unicode="&#x12c;" horiz-adv-x="238" 
d="M237 700l-136 -700h-64l136 700h64zM217 762q-32 0 -58.5 9.5t-44 29t-24.5 49t-1 69.5h56q-8 -54 14.5 -81t66.5 -27t78 27t45 81h56q-9 -40 -27.5 -69.5t-43.5 -49t-55 -29t-62 -9.5z" />
    <glyph glyph-name="ibreve" unicode="&#x12d;" horiz-adv-x="230" 
d="M95 0h-60l100 518h60zM179 588q-32 0 -58.5 9.5t-44 29t-24.5 49t-1 69.5h56q-8 -54 14.5 -81t66.5 -27t78 27t45 81h56q-9 -40 -27.5 -69.5t-43.5 -49t-55 -29t-62 -9.5z" />
    <glyph glyph-name="Iogonek" unicode="&#x12e;" horiz-adv-x="238" 
d="M101 0q-48 -35 -72 -65.5t-30 -59.5q-7 -43 48 -43q11 0 22 1t22 6l-10 -52q-11 -3 -26 -4.5t-29 -1.5q-53 0 -74.5 23.5t-14.5 61.5q8 37 36.5 71.5t66.5 62.5h-3l136 700h64z" />
    <glyph glyph-name="iogonek" unicode="&#x12f;" horiz-adv-x="230" 
d="M35 0l100 518h60l-100 -518q-48 -35 -72 -65.5t-30 -59.5q-7 -43 48 -43q11 0 22 1t22 6l-10 -52q-11 -3 -26 -4.5t-29 -1.5q-53 0 -74.5 23.5t-14.5 61.5q8 37 37 71.5t67 62.5zM206 730q20 0 26.5 -12t1.5 -41t-16.5 -41t-31.5 -12t-26.5 12t-1.5 41t16.5 41t31.5 12z
" />
    <glyph glyph-name="Idotaccent" unicode="&#x130;" horiz-adv-x="238" 
d="M237 700l-136 -700h-64l136 700h64zM243 896q20 0 26.5 -12t1.5 -41q-6 -29 -17.5 -41t-31.5 -12t-26.5 12t-0.5 41q5 29 16.5 41t31.5 12z" />
    <glyph glyph-name="dotlessi" unicode="&#x131;" horiz-adv-x="230" 
d="M95 0h-60l100 518h60z" />
    <glyph glyph-name="IJ" unicode="&#x132;" horiz-adv-x="622" 
d="M232 700l-136 -700h-64l136 700h64zM562 700h64l-93 -475q-13 -66 -36.5 -111t-55.5 -73t-71.5 -40.5t-84.5 -12.5q-36 0 -71 8t-61 25l18 64q26 -20 58.5 -29.5t65.5 -9.5q66 0 110.5 41t63.5 138z" />
    <glyph glyph-name="ij" unicode="&#x133;" horiz-adv-x="471" 
d="M90 0h-60l100 518h60zM201 730q20 0 26.5 -12t1.5 -41t-16.5 -41t-31.5 -12t-26.5 12t-1.5 41t16.5 41t31.5 12zM441 518l-107 -549q-17 -90 -61 -129.5t-116 -39.5q-31 0 -56 9l17 54q18 -10 46 -10q45 0 72 27t38 87l107 551h60zM452 730q20 0 26.5 -12t1.5 -41
t-16.5 -41t-31.5 -12t-26.5 12t-1.5 41t16.5 41t31.5 12z" />
    <glyph glyph-name="Jcircumflex" unicode="&#x134;" horiz-adv-x="435" 
d="M375 700h64l-93 -475q-13 -66 -36.5 -111t-55.5 -73t-71.5 -40.5t-84.5 -12.5q-36 0 -71 8t-61 25l18 64q26 -20 58.5 -29.5t65.5 -9.5q66 0 110.5 41t63.5 138zM478 924l105 -166h-62l-82 120l-128 -120h-62l169 166h60z" />
    <glyph glyph-name="jcircumflex" unicode="&#x135;" horiz-adv-x="225" 
d="M240 750l105 -166h-62l-82 120l-128 -120h-62l169 166h60zM195 518l-107 -549q-17 -90 -61 -129.5t-116 -39.5q-31 0 -56 9l17 54q18 -10 46 -10q45 0 72 27t38 87l107 551h60z" />
    <glyph glyph-name="Kcommaaccent" unicode="&#x136;" horiz-adv-x="581" 
d="M232 700l-62 -316l384 316h81l-392 -327l300 -373h-85l-293 360l-69 -360h-64l136 700h64zM193 -100q5 26 20 38.5t32 12.5t27 -12.5t5 -38.5q-9 -48 -31.5 -84t-63.5 -65l-12 15q20 19 33 39t21 44q-19 1 -27.5 14.5t-3.5 36.5z" />
    <glyph glyph-name="kcommaaccent" unicode="&#x137;" horiz-adv-x="497" 
d="M223 730l-83 -428l298 216h83l-310 -227l229 -291h-81l-223 278l-54 -278h-60l141 730h60zM152 -100q5 26 20 38.5t32 12.5t27 -12.5t5 -38.5q-9 -48 -31.5 -84t-63.5 -65l-12 15q20 19 33 39t21 44q-19 1 -27.5 14.5t-3.5 36.5z" />
    <glyph glyph-name="kgreenlandic" unicode="&#x138;" horiz-adv-x="497" 
d="M203 270l237 -270h-81l-227 259l-50 -259h-60l100 518h60l-46 -238l302 238h83z" />
    <glyph glyph-name="Lacute" unicode="&#x139;" horiz-adv-x="556" 
d="M168 700h64l-126 -644h388l-10 -56h-452zM315 924h73l-1 -8l-167 -154h-56z" />
    <glyph glyph-name="lacute" unicode="&#x13a;" horiz-adv-x="214" 
d="M168 730h60l-141 -730h-60zM318 924h73l-1 -8l-167 -154h-56z" />
    <glyph glyph-name="Lcommaaccent" unicode="&#x13b;" horiz-adv-x="556" 
d="M168 700h64l-126 -644h388l-10 -56h-452zM200 -100q5 26 20 38.5t32 12.5t27 -12.5t5 -38.5q-9 -48 -31.5 -84t-63.5 -65l-12 15q20 19 33 39t21 44q-19 1 -27.5 14.5t-3.5 36.5z" />
    <glyph glyph-name="lcommaaccent" unicode="&#x13c;" horiz-adv-x="214" 
d="M168 730h60l-141 -730h-60zM-6 -100q5 26 20 38.5t32 12.5t27 -12.5t5 -38.5q-9 -48 -31.5 -84t-63.5 -65l-12 15q20 19 33 39t21 44q-19 1 -27.5 14.5t-3.5 36.5z" />
    <glyph glyph-name="Lcaron" unicode="&#x13d;" horiz-adv-x="556" 
d="M168 700h64l-126 -644h388l-10 -56h-452zM527 686q-11 -56 -31.5 -94.5t-65.5 -73.5l-13 23q41 41 53 89q-20 1 -27.5 13.5t-1.5 42.5q6 31 19 43.5t35 12.5t30 -12.5t2 -43.5z" />
    <glyph glyph-name="lcaron" unicode="&#x13e;" horiz-adv-x="294" 
d="M168 730h60l-141 -730h-60zM355 686q-11 -56 -31.5 -94.5t-65.5 -73.5l-13 23q41 41 53 89q-20 1 -27.5 13.5t-1.5 42.5q6 31 19 43.5t35 12.5t30 -12.5t2 -43.5z" />
    <glyph glyph-name="Ldot" unicode="&#x13f;" horiz-adv-x="556" 
d="M168 700h64l-126 -644h388l-10 -56h-452zM420 432q20 0 26.5 -12t1.5 -41q-6 -29 -17.5 -41t-31.5 -12t-26.5 12t-0.5 41q5 29 16.5 41t31.5 12z" />
    <glyph glyph-name="ldot" unicode="&#x140;" horiz-adv-x="352" 
d="M168 730h60l-141 -730h-60zM334 432q20 0 26.5 -12t1.5 -41q-6 -29 -17.5 -41t-31.5 -12t-26.5 12t-0.5 41q5 29 16.5 41t31.5 12z" />
    <glyph glyph-name="Lslash" unicode="&#x141;" horiz-adv-x="571" 
d="M183 700h64l-63 -321l315 188l22 -43l-349 -208l-51 -260h388l-10 -56h-452l53 273l-84 -50l-19 45l115 68z" />
    <glyph glyph-name="lslash" unicode="&#x142;" horiz-adv-x="369" 
d="M231 730h60l-58 -300l162 101l23 -43l-198 -123l-70 -365h-60l62 322l-131 -81l-21 44l165 102z" />
    <glyph glyph-name="Nacute" unicode="&#x143;" horiz-adv-x="700" 
d="M168 700h79l273 -616l120 616h64l-136 -700h-78l-274 616l-119 -616h-65zM542 924h73l-1 -8l-167 -154h-56z" />
    <glyph glyph-name="nacute" unicode="&#x144;" horiz-adv-x="572" 
d="M326 476q-45 0 -88.5 -18t-76.5 -49l-79 -409h-60l100 518h60l-10 -50q35 28 81 45t92 17q100 0 145 -59t23 -171l-58 -300h-60l57 298q35 178 -126 178zM440 750h73l-1 -8l-167 -154h-56z" />
    <glyph glyph-name="Ncommaaccent" unicode="&#x145;" horiz-adv-x="700" 
d="M168 700h79l273 -616l120 616h64l-136 -700h-78l-274 616l-119 -616h-65zM243 -100q5 26 20 38.5t32 12.5t27 -12.5t5 -38.5q-9 -48 -31.5 -84t-63.5 -65l-12 15q20 19 33 39t21 44q-19 1 -27.5 14.5t-3.5 36.5z" />
    <glyph glyph-name="ncommaaccent" unicode="&#x146;" horiz-adv-x="572" 
d="M326 476q-45 0 -88.5 -18t-76.5 -49l-79 -409h-60l100 518h60l-10 -50q35 28 81 45t92 17q100 0 145 -59t23 -171l-58 -300h-60l57 298q35 178 -126 178zM180 -100q5 26 20 38.5t32 12.5t27 -12.5t5 -38.5q-9 -48 -31.5 -84t-63.5 -65l-12 15q20 19 33 39t21 44
q-19 1 -27.5 14.5t-3.5 36.5z" />
    <glyph glyph-name="Ncaron" unicode="&#x147;" horiz-adv-x="700" 
d="M168 700h79l273 -616l120 616h64l-136 -700h-78l-274 616l-119 -616h-65zM416 758l-105 166h62l82 -120l128 120h62l-169 -166h-60z" />
    <glyph glyph-name="ncaron" unicode="&#x148;" horiz-adv-x="572" 
d="M326 476q-45 0 -88.5 -18t-76.5 -49l-79 -409h-60l100 518h60l-10 -50q35 28 81 45t92 17q100 0 145 -59t23 -171l-58 -300h-60l57 298q35 178 -126 178zM319 584l-105 166h62l82 -120l128 120h62l-169 -166h-60z" />
    <glyph glyph-name="napostrophe" unicode="&#x149;" horiz-adv-x="619" 
d="M373 476q-45 0 -88.5 -18t-76.5 -49l-79 -409h-60l100 518h60l-10 -50q35 28 81 45t92 17q100 0 145 -59t23 -171l-58 -300h-60l57 298q35 178 -126 178zM191 686q-11 -56 -31.5 -94.5t-65.5 -73.5l-13 23q41 41 53 89q-20 1 -27.5 13.5t-1.5 42.5q6 31 19 43.5t35 12.5
t30 -12.5t2 -43.5z" />
    <glyph glyph-name="Eng" unicode="&#x14a;" horiz-adv-x="700" 
d="M168 700h79l273 -616l120 616h64l-139 -712q-10 -53 -26.5 -89t-39 -58t-52.5 -31.5t-67 -9.5q-16 0 -33 2.5t-28 7.5l18 58q14 -5 30 -7.5t30 -2.5q41 0 65.5 26.5t38.5 96.5l-11 19l-274 616l-119 -616h-65z" />
    <glyph glyph-name="eng" unicode="&#x14b;" horiz-adv-x="572" 
d="M326 476q-45 0 -88.5 -18t-76.5 -49l-79 -409h-60l100 518h60l-10 -50q35 28 81 45t92 17q100 0 145 -59t23 -171l-61 -313q-20 -102 -63 -144.5t-114 -42.5q-19 0 -36.5 2.5t-31.5 7.5l15 55q27 -11 62 -11q42 0 67.5 28.5t39.5 97.5l61 318q35 178 -126 178z" />
    <glyph glyph-name="Omacron" unicode="&#x14c;" horiz-adv-x="706" 
d="M677 350q-15 -77 -48.5 -143t-82.5 -115t-111.5 -76.5t-134.5 -27.5t-123.5 27.5t-81.5 76.5t-37.5 115t7.5 143t48 143t82 115t111.5 76.5t134.5 27.5t123.5 -27.5t81.5 -76.5t38 -115t-7 -143zM611 350q13 68 7.5 124t-29 96t-63.5 62t-96 22t-104.5 -22t-87.5 -62
t-66.5 -96t-40.5 -124q-14 -68 -8.5 -124t29 -96t63.5 -62t96 -22t104.5 22t87.5 62t66.5 96t41.5 124zM328 866h284l-10 -52h-284z" />
    <glyph glyph-name="omacron" unicode="&#x14d;" horiz-adv-x="576" 
d="M42 259q11 59 38.5 108.5t67.5 85.5t89 56.5t104 20.5t96 -20.5t66.5 -56.5t33.5 -85.5t-3 -108.5q-12 -59 -39.5 -108.5t-67 -85.5t-88.5 -56.5t-104 -20.5t-96 20.5t-66.5 56.5t-34 85.5t3.5 108.5zM104 259q-10 -50 -4 -90t25 -68t50 -43.5t71 -15.5t76.5 15.5
t66.5 43.5t51.5 68t31.5 90q10 49 4 89.5t-25 68.5t-50 43.5t-71 15.5t-76.5 -15.5t-66.5 -43.5t-51.5 -68.5t-31.5 -89.5zM230 692h284l-10 -52h-284z" />
    <glyph glyph-name="Obreve" unicode="&#x14e;" horiz-adv-x="706" 
d="M677 350q-15 -77 -48.5 -143t-82.5 -115t-111.5 -76.5t-134.5 -27.5t-123.5 27.5t-81.5 76.5t-37.5 115t7.5 143t48 143t82 115t111.5 76.5t134.5 27.5t123.5 -27.5t81.5 -76.5t38 -115t-7 -143zM611 350q13 68 7.5 124t-29 96t-63.5 62t-96 22t-104.5 -22t-87.5 -62
t-66.5 -96t-40.5 -124q-14 -68 -8.5 -124t29 -96t63.5 -62t96 -22t104.5 22t87.5 62t66.5 96t41.5 124zM450 762q-32 0 -58.5 9.5t-44 29t-24.5 49t-1 69.5h56q-8 -54 14.5 -81t66.5 -27t78 27t45 81h56q-9 -40 -27.5 -69.5t-43.5 -49t-55 -29t-62 -9.5z" />
    <glyph glyph-name="obreve" unicode="&#x14f;" horiz-adv-x="576" 
d="M42 259q11 59 38.5 108.5t67.5 85.5t89 56.5t104 20.5t96 -20.5t66.5 -56.5t33.5 -85.5t-3 -108.5q-12 -59 -39.5 -108.5t-67 -85.5t-88.5 -56.5t-104 -20.5t-96 20.5t-66.5 56.5t-34 85.5t3.5 108.5zM104 259q-10 -50 -4 -90t25 -68t50 -43.5t71 -15.5t76.5 15.5
t66.5 43.5t51.5 68t31.5 90q10 49 4 89.5t-25 68.5t-50 43.5t-71 15.5t-76.5 -15.5t-66.5 -43.5t-51.5 -68.5t-31.5 -89.5zM351 588q-32 0 -58.5 9.5t-44 29t-24.5 49t-1 69.5h56q-8 -54 14.5 -81t66.5 -27t78 27t45 81h56q-9 -40 -27.5 -69.5t-43.5 -49t-55 -29t-62 -9.5z
" />
    <glyph glyph-name="Ohungarumlaut" unicode="&#x150;" horiz-adv-x="706" 
d="M677 350q-15 -77 -48.5 -143t-82.5 -115t-111.5 -76.5t-134.5 -27.5t-123.5 27.5t-81.5 76.5t-37.5 115t7.5 143t48 143t82 115t111.5 76.5t134.5 27.5t123.5 -27.5t81.5 -76.5t38 -115t-7 -143zM611 350q13 68 7.5 124t-29 96t-63.5 62t-96 22t-104.5 -22t-87.5 -62
t-66.5 -96t-40.5 -124q-14 -68 -8.5 -124t29 -96t63.5 -62t96 -22t104.5 22t87.5 62t66.5 96t41.5 124zM479 924h73l-1 -8l-167 -154h-56zM621 924h73l-1 -8l-167 -154h-56z" />
    <glyph glyph-name="ohungarumlaut" unicode="&#x151;" horiz-adv-x="576" 
d="M42 259q11 59 38.5 108.5t67.5 85.5t89 56.5t104 20.5t96 -20.5t66.5 -56.5t33.5 -85.5t-3 -108.5q-12 -59 -39.5 -108.5t-67 -85.5t-88.5 -56.5t-104 -20.5t-96 20.5t-66.5 56.5t-34 85.5t3.5 108.5zM104 259q-10 -50 -4 -90t25 -68t50 -43.5t71 -15.5t76.5 15.5
t66.5 43.5t51.5 68t31.5 90q10 49 4 89.5t-25 68.5t-50 43.5t-71 15.5t-76.5 -15.5t-66.5 -43.5t-51.5 -68.5t-31.5 -89.5zM393 750h73l-1 -8l-167 -154h-56zM535 750h73l-1 -8l-167 -154h-56z" />
    <glyph glyph-name="OE" unicode="&#x152;" horiz-adv-x="831" 
d="M65 352q16 80 53 145.5t92.5 111.5t127 71t156.5 25h374l-11 -56h-310l-51 -259h285l-11 -56h-285l-54 -278h318l-10 -56h-381q-85 0 -147 25t-100 70.5t-50 110.5t4 146zM131 352q-14 -70 -3.5 -123.5t41.5 -90.5t81.5 -57.5t116.5 -24.5l115 592q-68 -3 -126.5 -23
t-104 -57.5t-76.5 -91.5t-44 -124z" />
    <glyph glyph-name="oe" unicode="&#x153;" horiz-adv-x="905" 
d="M641 42q35 0 71.5 9t68.5 31l-4 -57q-32 -19 -70.5 -28t-80.5 -9q-80 0 -127 38t-60 107q-17 -33 -41.5 -60t-53.5 -46t-62 -29t-67 -10q-53 0 -90.5 20t-60 55.5t-28.5 85.5t6 110t37 110t61.5 85.5t82 55.5t98.5 20q68 0 112.5 -38.5t55.5 -104.5q50 73 116 108t132 35
q82 0 125.5 -38.5t30.5 -104.5q-6 -31 -24 -58.5t-52.5 -48.5t-89 -33t-132.5 -12h-104q-12 -88 25 -140.5t125 -52.5zM106 259q-20 -101 11.5 -159.5t107.5 -58.5q77 0 131 58.5t74 159.5t-11.5 159.5t-108.5 58.5q-38 0 -71 -15t-59 -43.5t-45 -69t-29 -90.5zM589 288
q64 0 108 7t72 20t42 31t19 40q8 44 -20.5 67t-88.5 23q-36 0 -70 -12.5t-63 -36.5t-51.5 -59t-35.5 -80h88z" />
    <glyph glyph-name="Racute" unicode="&#x154;" horiz-adv-x="600" 
d="M595 500q-15 -75 -67 -121t-130 -65l140 -314h-72l-133 303q-13 -1 -25.5 -1.5t-25.5 -0.5h-128l-58 -301h-64l136 700h211q57 0 101 -13.5t72.5 -39t40 -63t2.5 -84.5zM529 500q13 69 -29.5 106.5t-136.5 37.5h-142l-56 -287h142q94 0 151 37.5t71 105.5zM471 924h73
l-1 -8l-167 -154h-56z" />
    <glyph glyph-name="racute" unicode="&#x155;" horiz-adv-x="360" 
d="M328 476q-51 0 -94.5 -27t-80.5 -79l-71 -370h-60l100 518h60l-14 -75q31 38 77.5 62.5t98.5 24.5q37 0 60 -9l-18 -57q-23 12 -58 12zM333 750h73l-1 -8l-167 -154h-56z" />
    <glyph glyph-name="Rcommaaccent" unicode="&#x156;" horiz-adv-x="600" 
d="M595 500q-15 -75 -67 -121t-130 -65l140 -314h-72l-133 303q-13 -1 -25.5 -1.5t-25.5 -0.5h-128l-58 -301h-64l136 700h211q57 0 101 -13.5t72.5 -39t40 -63t2.5 -84.5zM529 500q13 69 -29.5 106.5t-136.5 37.5h-142l-56 -287h142q94 0 151 37.5t71 105.5zM200 -100
q5 26 20 38.5t32 12.5t27 -12.5t5 -38.5q-9 -48 -31.5 -84t-63.5 -65l-12 15q20 19 33 39t21 44q-19 1 -27.5 14.5t-3.5 36.5z" />
    <glyph glyph-name="rcommaaccent" unicode="&#x157;" horiz-adv-x="360" 
d="M328 476q-51 0 -94.5 -27t-80.5 -79l-71 -370h-60l100 518h60l-14 -75q31 38 77.5 62.5t98.5 24.5q37 0 60 -9l-18 -57q-23 12 -58 12zM-9 -100q5 26 20 38.5t32 12.5t27 -12.5t5 -38.5q-9 -48 -31.5 -84t-63.5 -65l-12 15q20 19 33 39t21 44q-19 1 -27.5 14.5t-3.5 36.5
z" />
    <glyph glyph-name="Rcaron" unicode="&#x158;" horiz-adv-x="600" 
d="M595 500q-15 -75 -67 -121t-130 -65l140 -314h-72l-133 303q-13 -1 -25.5 -1.5t-25.5 -0.5h-128l-58 -301h-64l136 700h211q57 0 101 -13.5t72.5 -39t40 -63t2.5 -84.5zM529 500q13 69 -29.5 106.5t-136.5 37.5h-142l-56 -287h142q94 0 151 37.5t71 105.5zM335 758
l-105 166h62l82 -120l128 120h62l-169 -166h-60z" />
    <glyph glyph-name="rcaron" unicode="&#x159;" horiz-adv-x="373" 
d="M331 476q-51 0 -94.5 -27t-80.5 -79l-71 -370h-60l100 518h60l-14 -75q31 38 77.5 62.5t98.5 24.5q37 0 60 -9l-18 -57q-23 12 -58 12zM241 584l-105 166h62l82 -120l128 120h62l-169 -166h-60z" />
    <glyph glyph-name="Sacute" unicode="&#x15a;" horiz-adv-x="536" 
d="M512 621q-33 18 -69 25.5t-79 7.5q-82 0 -131.5 -31t-59.5 -82q-10 -49 18.5 -84t106.5 -63q53 -19 90 -40t58.5 -46.5t28 -57.5t-1.5 -72q-17 -88 -91 -139t-190 -51q-50 0 -97 12t-80 34l18 67q36 -27 80.5 -41t92.5 -14q88 0 138.5 35t62.5 95q5 28 0.5 50.5t-21.5 42
t-46.5 36t-74.5 31.5q-97 33 -135 80t-24 124q8 39 31 71t58 54.5t81 34.5t100 12q48 0 85 -6.5t69 -20.5zM468 924h73l-1 -8l-167 -154h-56z" />
    <glyph glyph-name="sacute" unicode="&#x15b;" horiz-adv-x="457" 
d="M159 -12q-43 0 -85 11t-71 33l17 64q30 -27 70 -40.5t79 -13.5q66 0 106 24.5t49 67.5q7 37 -19 62.5t-96 45.5q-79 21 -111.5 59t-21.5 94q6 32 25 57t46.5 42.5t63 26.5t76.5 9q39 0 74.5 -8t65.5 -22l-18 -61q-28 20 -62 28.5t-72 8.5q-58 0 -93.5 -21.5t-42.5 -57.5
q-7 -35 17 -60.5t90 -44.5q45 -13 74.5 -29.5t45.5 -36t20.5 -42t-0.5 -48.5q-14 -72 -74.5 -110t-152.5 -38zM389 750h73l-1 -8l-167 -154h-56z" />
    <glyph glyph-name="Scircumflex" unicode="&#x15c;" horiz-adv-x="536" 
d="M512 621q-33 18 -69 25.5t-79 7.5q-82 0 -131.5 -31t-59.5 -82q-10 -49 18.5 -84t106.5 -63q53 -19 90 -40t58.5 -46.5t28 -57.5t-1.5 -72q-17 -88 -91 -139t-190 -51q-50 0 -97 12t-80 34l18 67q36 -27 80.5 -41t92.5 -14q88 0 138.5 35t62.5 95q5 28 0.5 50.5t-21.5 42
t-46.5 36t-74.5 31.5q-97 33 -135 80t-24 124q8 39 31 71t58 54.5t81 34.5t100 12q48 0 85 -6.5t69 -20.5zM427 924l105 -166h-62l-82 120l-128 -120h-62l169 166h60z" />
    <glyph glyph-name="scircumflex" unicode="&#x15d;" horiz-adv-x="457" 
d="M159 -12q-43 0 -85 11t-71 33l17 64q30 -27 70 -40.5t79 -13.5q66 0 106 24.5t49 67.5q7 37 -19 62.5t-96 45.5q-79 21 -111.5 59t-21.5 94q6 32 25 57t46.5 42.5t63 26.5t76.5 9q39 0 74.5 -8t65.5 -22l-18 -61q-28 20 -62 28.5t-72 8.5q-58 0 -93.5 -21.5t-42.5 -57.5
q-7 -35 17 -60.5t90 -44.5q45 -13 74.5 -29.5t45.5 -36t20.5 -42t-0.5 -48.5q-14 -72 -74.5 -110t-152.5 -38zM345 750l105 -166h-62l-82 120l-128 -120h-62l169 166h60z" />
    <glyph glyph-name="Scedilla" unicode="&#x15e;" horiz-adv-x="536" 
d="M103 -186q11 -5 24 -7t27 -2q34 0 54 13t25 36q5 24 -17 41t-73 19l55 74h-6q-50 0 -97 12t-80 34l18 67q36 -27 80.5 -41t92.5 -14q88 0 138.5 35t62.5 95q5 28 0.5 50.5t-21.5 42t-46.5 36t-74.5 31.5q-97 33 -135 80t-24 124q8 39 31 71t58 54.5t81 34.5t100 12
q48 0 85 -6.5t69 -20.5l-18 -64q-33 18 -69 25.5t-79 7.5q-82 0 -131.5 -31t-59.5 -82q-10 -49 18.5 -84t106.5 -63q53 -19 90 -40t58.5 -46.5t28 -57.5t-1.5 -72q-14 -75 -69.5 -123t-144.5 -62l-42 -56q39 -8 58 -31t13 -53q-8 -42 -42.5 -66.5t-98.5 -24.5q-14 0 -27 1.5
t-25 5.5z" />
    <glyph glyph-name="scedilla" unicode="&#x15f;" horiz-adv-x="457" 
d="M159 -12q-43 0 -85 11t-71 33l17 64q30 -27 70 -40.5t79 -13.5q66 0 106 24.5t49 67.5q7 37 -19 62.5t-96 45.5q-79 21 -111.5 59t-21.5 94q6 32 25 57t46.5 42.5t63 26.5t76.5 9q39 0 74.5 -8t65.5 -22l-18 -61q-28 20 -62 28.5t-72 8.5q-58 0 -93.5 -21.5t-42.5 -57.5
q-7 -35 17 -60.5t90 -44.5q45 -13 74.5 -29.5t45.5 -36t20.5 -42t-0.5 -48.5q-11 -59 -53.5 -95t-108.5 -47l-42 -57q39 -8 58 -31t13 -53q-8 -42 -42.5 -66.5t-98.5 -24.5q-14 0 -27 1.5t-25 5.5l8 45q11 -5 24 -7t27 -2q34 0 54 13t25 36q5 24 -17 41t-73 19l55 74h-4z
" />
    <glyph glyph-name="Scaron" unicode="&#x160;" horiz-adv-x="536" 
d="M512 621q-33 18 -69 25.5t-79 7.5q-82 0 -131.5 -31t-59.5 -82q-10 -49 18.5 -84t106.5 -63q53 -19 90 -40t58.5 -46.5t28 -57.5t-1.5 -72q-17 -88 -91 -139t-190 -51q-50 0 -97 12t-80 34l18 67q36 -27 80.5 -41t92.5 -14q88 0 138.5 35t62.5 95q5 28 0.5 50.5t-21.5 42
t-46.5 36t-74.5 31.5q-97 33 -135 80t-24 124q8 39 31 71t58 54.5t81 34.5t100 12q48 0 85 -6.5t69 -20.5zM335 758l-105 166h62l82 -120l128 120h62l-169 -166h-60z" />
    <glyph glyph-name="scaron" unicode="&#x161;" horiz-adv-x="457" 
d="M159 -12q-43 0 -85 11t-71 33l17 64q30 -27 70 -40.5t79 -13.5q66 0 106 24.5t49 67.5q7 37 -19 62.5t-96 45.5q-79 21 -111.5 59t-21.5 94q6 32 25 57t46.5 42.5t63 26.5t76.5 9q39 0 74.5 -8t65.5 -22l-18 -61q-28 20 -62 28.5t-72 8.5q-58 0 -93.5 -21.5t-42.5 -57.5
q-7 -35 17 -60.5t90 -44.5q45 -13 74.5 -29.5t45.5 -36t20.5 -42t-0.5 -48.5q-14 -72 -74.5 -110t-152.5 -38zM253 584l-105 166h62l82 -120l128 120h62l-169 -166h-60z" />
    <glyph glyph-name="Tcommaaccent" unicode="&#x162;" horiz-adv-x="534" 
d="M87 -186q11 -5 24 -7t27 -2q34 0 54 13t25 36q5 24 -17 41t-73 19l65 86h-7l125 644h-223l11 56h510l-11 -56h-223l-125 -644l-48 -63q39 -8 58 -31t13 -53q-8 -42 -42.5 -66.5t-98.5 -24.5q-14 0 -27 1.5t-25 5.5z" />
    <glyph glyph-name="tcommaaccent" unicode="&#x163;" horiz-adv-x="367" 
d="M59 -186q11 -5 24 -7t27 -2q34 0 54 13t25 36q5 24 -17 41t-73 19l61 81q-48 13 -63.5 53.5t-1.5 112.5l59 305h-97l10 52h97l30 155h60l-30 -155h166l-10 -52h-166l-56 -288q-14 -75 2.5 -105.5t69.5 -30.5q15 0 29 2t29 6l-2 -55q-34 -7 -71 -7h-3l-39 -51
q39 -8 58 -31t13 -53q-8 -42 -42.5 -66.5t-98.5 -24.5q-14 0 -27 1.5t-25 5.5z" />
    <glyph glyph-name="Tcaron" unicode="&#x164;" horiz-adv-x="534" 
d="M310 644h-223l11 56h510l-11 -56h-223l-125 -644h-64zM333 758l-105 166h62l82 -120l128 120h62l-169 -166h-60z" />
    <glyph glyph-name="tcaron" unicode="&#x165;" horiz-adv-x="447" 
d="M67 518h97l30 155h60l-30 -155h166l-10 -52h-166l-56 -288q-14 -75 2.5 -105.5t69.5 -30.5q15 0 29 2t29 6l-2 -55q-34 -7 -71 -7q-78 0 -108 41t-12 132l59 305h-97zM508 686q-11 -56 -31.5 -94.5t-65.5 -73.5l-13 23q41 41 53 89q-20 1 -27.5 13.5t-1.5 42.5
q6 31 19 43.5t35 12.5t30 -12.5t2 -43.5z" />
    <glyph glyph-name="Tbar" unicode="&#x166;" horiz-adv-x="534" 
d="M247 323h-163l10 52h163l53 269h-223l11 56h510l-11 -56h-223l-53 -269h164l-10 -52h-164l-62 -323h-64z" />
    <glyph glyph-name="tbar" unicode="&#x167;" horiz-adv-x="367" 
d="M323 273h-146l-19 -95q-14 -75 2.5 -105.5t69.5 -30.5q15 0 29 2t29 6l-2 -55q-34 -7 -71 -7q-78 0 -108 41t-12 132l22 112h-79l10 52h79l27 141h-97l10 52h97l30 155h60l-30 -155h166l-10 -52h-166l-27 -141h146z" />
    <glyph glyph-name="Utilde" unicode="&#x168;" horiz-adv-x="708" 
d="M301 -12q-60 0 -106 18.5t-75.5 54t-39.5 88t4 121.5l84 430h64l-83 -424q-23 -116 21 -173t142 -57q99 0 164.5 56.5t88.5 173.5l83 424h64l-84 -430q-14 -69 -44 -121.5t-73 -88t-96.5 -54t-113.5 -18.5zM636 907q-7 -38 -18.5 -64.5t-26 -42.5t-32 -23t-36.5 -7
q-26 0 -42 13.5t-28 29.5t-22.5 29.5t-23.5 13.5q-15 0 -31.5 -17.5t-26.5 -66.5h-55q15 76 46 106.5t69 30.5q25 0 41.5 -13.5t28.5 -29.5t22 -29.5t24 -13.5q15 0 31 17.5t25 66.5h55z" />
    <glyph glyph-name="utilde" unicode="&#x169;" horiz-adv-x="572" 
d="M246 42q45 0 88.5 18t76.5 49l79 409h60l-100 -518h-60l9 50q-35 -28 -80.5 -45t-91.5 -17q-100 0 -145 59t-23 171l58 300h60l-58 -298q-17 -89 15 -133.5t112 -44.5zM538 733q-7 -38 -18.5 -64.5t-26 -42.5t-32 -23t-36.5 -7q-26 0 -42 13.5t-28 29.5t-22.5 29.5
t-23.5 13.5q-15 0 -31.5 -17.5t-26.5 -66.5h-55q15 76 46 106.5t69 30.5q25 0 41.5 -13.5t28.5 -29.5t22 -29.5t24 -13.5q15 0 31 17.5t25 66.5h55z" />
    <glyph glyph-name="Umacron" unicode="&#x16a;" horiz-adv-x="708" 
d="M301 -12q-60 0 -106 18.5t-75.5 54t-39.5 88t4 121.5l84 430h64l-83 -424q-23 -116 21 -173t142 -57q99 0 164.5 56.5t88.5 173.5l83 424h64l-84 -430q-14 -69 -44 -121.5t-73 -88t-96.5 -54t-113.5 -18.5zM329 866h284l-10 -52h-284z" />
    <glyph glyph-name="umacron" unicode="&#x16b;" horiz-adv-x="572" 
d="M246 42q45 0 88.5 18t76.5 49l79 409h60l-100 -518h-60l9 50q-35 -28 -80.5 -45t-91.5 -17q-100 0 -145 59t-23 171l58 300h60l-58 -298q-17 -89 15 -133.5t112 -44.5zM227 692h284l-10 -52h-284z" />
    <glyph glyph-name="Ubreve" unicode="&#x16c;" horiz-adv-x="708" 
d="M301 -12q-60 0 -106 18.5t-75.5 54t-39.5 88t4 121.5l84 430h64l-83 -424q-23 -116 21 -173t142 -57q99 0 164.5 56.5t88.5 173.5l83 424h64l-84 -430q-14 -69 -44 -121.5t-73 -88t-96.5 -54t-113.5 -18.5zM451 762q-32 0 -58.5 9.5t-44 29t-24.5 49t-1 69.5h56
q-8 -54 14.5 -81t66.5 -27t78 27t45 81h56q-9 -40 -27.5 -69.5t-43.5 -49t-55 -29t-62 -9.5z" />
    <glyph glyph-name="ubreve" unicode="&#x16d;" horiz-adv-x="572" 
d="M246 42q45 0 88.5 18t76.5 49l79 409h60l-100 -518h-60l9 50q-35 -28 -80.5 -45t-91.5 -17q-100 0 -145 59t-23 171l58 300h60l-58 -298q-17 -89 15 -133.5t112 -44.5zM346 588q-32 0 -58.5 9.5t-44 29t-24.5 49t-1 69.5h56q-8 -54 14.5 -81t66.5 -27t78 27t45 81h56
q-9 -40 -27.5 -69.5t-43.5 -49t-55 -29t-62 -9.5z" />
    <glyph glyph-name="Uring" unicode="&#x16e;" horiz-adv-x="708" 
d="M301 -12q-60 0 -106 18.5t-75.5 54t-39.5 88t4 121.5l84 430h64l-83 -424q-23 -116 21 -173t142 -57q99 0 164.5 56.5t88.5 173.5l83 424h64l-84 -430q-14 -69 -44 -121.5t-73 -88t-96.5 -54t-113.5 -18.5zM487 947q45 0 69 -29.5t15 -73.5q-4 -22 -15.5 -40.5
t-28.5 -32.5t-37.5 -22t-42.5 -8q-45 0 -68.5 29.5t-15.5 73.5q4 22 16 40.5t28.5 32.5t37 22t42.5 8zM456 786q26 0 44.5 17.5t23.5 40.5t-7 40.5t-38 17.5t-45 -17.5t-24 -40.5t7.5 -40.5t38.5 -17.5z" />
    <glyph glyph-name="uring" unicode="&#x16f;" horiz-adv-x="572" 
d="M246 42q45 0 88.5 18t76.5 49l79 409h60l-100 -518h-60l9 50q-35 -28 -80.5 -45t-91.5 -17q-100 0 -145 59t-23 171l58 300h60l-58 -298q-17 -89 15 -133.5t112 -44.5zM386 772q45 0 69 -29.5t15 -73.5q-4 -22 -15.5 -40.5t-28.5 -32.5t-37.5 -22t-42.5 -8
q-45 0 -68.5 29.5t-15.5 73.5q4 22 16 40.5t28.5 32.5t37 22t42.5 8zM355 611q26 0 44.5 17.5t23.5 40.5t-7 40.5t-38 17.5t-45 -17.5t-24 -40.5t7.5 -40.5t38.5 -17.5z" />
    <glyph glyph-name="Uhungarumlaut" unicode="&#x170;" horiz-adv-x="708" 
d="M301 -12q-60 0 -106 18.5t-75.5 54t-39.5 88t4 121.5l84 430h64l-83 -424q-23 -116 21 -173t142 -57q99 0 164.5 56.5t88.5 173.5l83 424h64l-84 -430q-14 -69 -44 -121.5t-73 -88t-96.5 -54t-113.5 -18.5zM478 924h73l-1 -8l-167 -154h-56zM620 924h73l-1 -8l-167 -154
h-56z" />
    <glyph glyph-name="uhungarumlaut" unicode="&#x171;" horiz-adv-x="572" 
d="M246 42q45 0 88.5 18t76.5 49l79 409h60l-100 -518h-60l9 50q-35 -28 -80.5 -45t-91.5 -17q-100 0 -145 59t-23 171l58 300h60l-58 -298q-17 -89 15 -133.5t112 -44.5zM379 750h73l-1 -8l-167 -154h-56zM521 750h73l-1 -8l-167 -154h-56z" />
    <glyph glyph-name="Uogonek" unicode="&#x172;" horiz-adv-x="708" 
d="M84 270l84 430h64l-83 -424q-23 -116 21 -173t142 -57q99 0 164.5 56.5t88.5 173.5l83 424h64l-84 -430q-12 -61 -37.5 -109t-61 -83t-79.5 -57t-94 -29q-42 -32 -64.5 -61t-27.5 -56q-7 -43 48 -43q11 0 22 1t22 6l-10 -52q-11 -3 -26 -4.5t-29 -1.5q-53 0 -74.5 23.5
t-14.5 61.5q7 33 30.5 64.5t56.5 57.5q-57 2 -101 21t-71.5 54.5t-36.5 87.5t4 119z" />
    <glyph glyph-name="uogonek" unicode="&#x173;" horiz-adv-x="572" 
d="M390 0l9 50q-35 -28 -80.5 -45t-91.5 -17q-100 0 -145 59t-23 171l58 300h60l-58 -298q-17 -89 15 -133.5t112 -44.5q45 0 88.5 18t76.5 49l79 409h60l-100 -518q-48 -35 -72 -65.5t-30 -59.5q-7 -43 48 -43q11 0 22 1t22 6l-10 -52q-11 -3 -26 -4.5t-29 -1.5
q-53 0 -74.5 23.5t-14.5 61.5q8 37 37 71.5t67 62.5z" />
    <glyph glyph-name="Wcircumflex" unicode="&#x174;" horiz-adv-x="986" 
d="M616 700l47 -613l319 613h68l-366 -700h-74l-50 607l-284 -607h-74l-94 700h68l79 -613l287 613h74zM651 924l105 -166h-62l-82 120l-128 -120h-62l169 166h60z" />
    <glyph glyph-name="wcircumflex" unicode="&#x175;" horiz-adv-x="780" 
d="M470 518l50 -432l225 432h68l-278 -518h-61l-52 422l-216 -422h-61l-78 518h68l57 -432l218 432h60zM514 750l105 -166h-62l-82 120l-128 -120h-62l169 166h60z" />
    <glyph glyph-name="Ycircumflex" unicode="&#x176;" horiz-adv-x="654" 
d="M342 339l304 361h72l-355 -422l-54 -278h-64l54 278l-191 422h72zM485 924l105 -166h-62l-82 120l-128 -120h-62l169 166h60z" />
    <glyph glyph-name="ycircumflex" unicode="&#x177;" horiz-adv-x="526" 
d="M491 518h68l-423 -711h-66l115 193l-118 518h68l96 -443zM388 750l105 -166h-62l-82 120l-128 -120h-62l169 166h60z" />
    <glyph glyph-name="Ydieresis" unicode="&#x178;" horiz-adv-x="654" 
d="M342 339l304 361h72l-355 -422l-54 -278h-64l54 278l-191 422h72zM551 896q20 0 26.5 -12t1.5 -41q-6 -29 -17.5 -41t-31.5 -12t-26.5 12t-0.5 41q5 29 16.5 41t31.5 12zM349 896q20 0 26.5 -12t1.5 -41q-6 -29 -17.5 -41t-31.5 -12t-26.5 12t-0.5 41q5 29 16.5 41
t31.5 12z" />
    <glyph glyph-name="Zacute" unicode="&#x179;" horiz-adv-x="557" 
d="M516 644h-394l11 56h468l-12 -62l-524 -582h420l-10 -56h-493l12 62zM469 924h73l-1 -8l-167 -154h-56z" />
    <glyph glyph-name="zacute" unicode="&#x17a;" horiz-adv-x="463" 
d="M-12 58l406 408h-313l10 52h385l-11 -57l-406 -409h337l-10 -52h-409zM388 750h73l-1 -8l-167 -154h-56z" />
    <glyph glyph-name="Zdotaccent" unicode="&#x17b;" horiz-adv-x="557" 
d="M516 644h-394l11 56h468l-12 -62l-524 -582h420l-10 -56h-493l12 62zM398 896q20 0 26.5 -12t1.5 -41q-6 -29 -17.5 -41t-31.5 -12t-26.5 12t-0.5 41q5 29 16.5 41t31.5 12z" />
    <glyph glyph-name="zdotaccent" unicode="&#x17c;" horiz-adv-x="463" 
d="M-12 58l406 408h-313l10 52h385l-11 -57l-406 -409h337l-10 -52h-409zM316 722q20 0 26.5 -12t1.5 -41q-6 -29 -17.5 -41t-31.5 -12t-26.5 12t-0.5 41q5 29 16.5 41t31.5 12z" />
    <glyph glyph-name="Zcaron" unicode="&#x17d;" horiz-adv-x="557" 
d="M516 644h-394l11 56h468l-12 -62l-524 -582h420l-10 -56h-493l12 62zM344 758l-105 166h62l82 -120l128 120h62l-169 -166h-60z" />
    <glyph glyph-name="zcaron" unicode="&#x17e;" horiz-adv-x="463" 
d="M-12 58l406 408h-313l10 52h385l-11 -57l-406 -409h337l-10 -52h-409zM263 584l-105 166h62l82 -120l128 120h62l-169 -166h-60z" />
    <glyph glyph-name="longs" unicode="&#x17f;" horiz-adv-x="340" 
d="M179 551q17 90 65.5 134.5t121.5 44.5q42 0 71 -9l-18 -55q-12 5 -27.5 7.5t-31.5 2.5q-51 0 -80 -30.5t-43 -103.5l-143 -735h-60l128 659h-110l10 52h110z" />
    <glyph glyph-name="uni0191" unicode="&#x191;" horiz-adv-x="530" 
d="M168 700h424l-11 -56h-360l-49 -252h335l-11 -56h-335l-70 -357q-17 -91 -67 -135t-120 -44q-42 0 -70 9l19 59q11 -5 25.5 -7.5t31.5 -2.5q46 0 75.5 29t43.5 101z" />
    <glyph glyph-name="florin" unicode="&#x192;" horiz-adv-x="340" 
d="M127 -21q-17 -87 -65 -133t-122 -46q-42 0 -70 9l18 55q12 -5 27.5 -7.5t31.5 -2.5q51 0 79.5 30.5t42.5 103.5l93 478h-110l10 52h110l7 33q17 87 65 133t123 46q41 0 70 -9l-18 -55q-12 5 -27.5 7.5t-31.5 2.5q-51 0 -80 -30.5t-43 -103.5l-5 -24h151l-10 -52h-151z
" />
    <glyph glyph-name="Aringacute" unicode="&#x1fa;" horiz-adv-x="640" 
d="M433 843q45 0 69 -29.5t15 -73.5q-5 -29 -22.5 -51.5t-43.5 -36.5l132 -652h-70l-37 191h-338l-111 -191h-70l384 652q-20 14 -28.5 36.5t-3.5 51.5q4 22 16 40.5t28.5 32.5t37 22t42.5 8zM171 247h294l-73 382zM402 682q26 0 44.5 17.5t23.5 40.5t-7 40.5t-38 17.5
t-45 -17.5t-24 -40.5t7.5 -40.5t38.5 -17.5zM499 980h73l-2 -8l-109 -102h-56z" />
    <glyph glyph-name="aringacute" unicode="&#x1fb;" horiz-adv-x="570" 
d="M455 908h73l-2 -8l-109 -102h-56zM231 -12q-51 0 -91.5 18.5t-66 54t-34.5 85.5t3 113t41 113t68.5 85.5t87 54t98.5 18.5q45 0 82 -16t60 -44l9 48h60l-100 -518h-60l9 47q-33 -27 -77 -43t-89 -16zM250 42q42 0 84 16t74 47l60 308q-20 31 -56 47t-78 16
q-39 0 -76.5 -14.5t-68 -42t-53 -68t-32.5 -92.5t-3.5 -92.5t27 -68t52 -42t70.5 -14.5zM390 772q45 0 68.5 -29.5t15.5 -73.5q-5 -22 -16.5 -40.5t-28 -32.5t-37 -22t-42.5 -8q-45 0 -69 29.5t-15 73.5q4 22 15.5 40.5t28.5 32.5t37.5 22t42.5 8zM358 611q26 0 45 17.5
t24 40.5t-7.5 40.5t-38.5 17.5t-44.5 -17.5t-23.5 -40.5t7 -40.5t38 -17.5z" />
    <glyph glyph-name="AEacute" unicode="&#x1fc;" horiz-adv-x="842" 
d="M170 193l-138 -193h-75l506 700h414l-11 -56h-309l-50 -254h284l-11 -56h-284l-54 -278h318l-10 -56h-382l37 193h-235zM210 249h206l76 394zM755 924h73l-1 -8l-167 -154h-56z" />
    <glyph glyph-name="aeacute" unicode="&#x1fd;" horiz-adv-x="850" 
d="M386 127q-38 -64 -93 -99.5t-130 -35.5q-37 0 -67.5 10t-51 30t-29 50t-0.5 70q16 81 78 124t170 43h129l4 24q14 69 -16 103t-99 34q-38 0 -78.5 -9t-78.5 -27l4 54q38 17 81.5 26.5t85.5 9.5q76 0 116.5 -33t33.5 -96q44 63 106 96t131 33q82 0 125.5 -38.5
t30.5 -104.5q-6 -31 -24 -58.5t-52.5 -48.5t-89 -33t-132.5 -12h-104q-12 -88 25 -140.5t125 -52.5q35 0 71.5 9t68.5 31l-4 -57q-32 -19 -70.5 -28t-80.5 -9q-77 0 -124 35.5t-61 99.5zM173 46q28 0 57 8t55 26t47.5 48t35.5 74l13 65h-125q-82 0 -124.5 -29t-53.5 -84
q-6 -28 -0.5 -48t19 -33.5t33.5 -20t43 -6.5zM534 292q64 0 108 7t72 20t42 31t19 40q8 44 -20.5 67t-88.5 23q-36 0 -70.5 -11.5t-63.5 -34.5t-51 -58.5t-35 -83.5h88zM578 750h73l-1 -8l-167 -154h-56z" />
    <glyph glyph-name="Oslashacute" unicode="&#x1fe;" horiz-adv-x="706" 
d="M677 350q-15 -77 -48.5 -143t-82.5 -115t-111.5 -76.5t-134.5 -27.5q-83 0 -140 37l-95 -125h-62l119 156q-46 49 -60.5 125t3.5 169q15 77 48 143t82 115t111.5 76.5t134.5 27.5q45 0 82 -11.5t66 -32.5l101 132h62l-126 -165q42 -49 55 -122.5t-4 -162.5zM131 350
q-15 -77 -6 -137.5t39 -101.5l385 505q-46 38 -119 38q-56 0 -104.5 -22t-87.5 -62t-66.5 -96t-40.5 -124zM611 350q27 146 -28 229l-383 -502q46 -31 111 -31q56 0 104.5 22t87.5 62t66.5 96t41.5 124zM540 924h73l-1 -8l-167 -154h-56z" />
    <glyph glyph-name="oslashacute" unicode="&#x1ff;" horiz-adv-x="576" 
d="M42 259q11 59 38.5 108.5t67.5 85.5t89 56.5t104 20.5q31 0 57.5 -7t47.5 -19l97 124h61l-119 -154q35 -36 49 -91t0 -124q-12 -59 -39.5 -108.5t-67 -85.5t-88.5 -56.5t-104 -20.5q-61 0 -106 25l-95 -123h-61l118 152q-36 36 -49.5 92t0.5 125zM104 259
q-11 -53 -3.5 -94.5t29.5 -70.5l279 362q-32 20 -79 20q-40 0 -76.5 -15.5t-66.5 -43.5t-51.5 -68.5t-31.5 -89.5zM472 259q10 53 2.5 94t-28.5 70l-279 -361q32 -20 79 -20q40 0 76.5 15.5t66.5 43.5t51.5 68t31.5 90zM441 750h73l-1 -8l-167 -154h-56z" />
    <glyph glyph-name="Scommaaccent" unicode="&#x218;" horiz-adv-x="536" 
d="M512 621q-33 18 -69 25.5t-79 7.5q-82 0 -131.5 -31t-59.5 -82q-10 -49 18.5 -84t106.5 -63q53 -19 90 -40t58.5 -46.5t28 -57.5t-1.5 -72q-17 -88 -91 -139t-190 -51q-50 0 -97 12t-80 34l18 67q36 -27 80.5 -41t92.5 -14q88 0 138.5 35t62.5 95q5 28 0.5 50.5t-21.5 42
t-46.5 36t-74.5 31.5q-97 33 -135 80t-24 124q8 39 31 71t58 54.5t81 34.5t100 12q48 0 85 -6.5t69 -20.5zM172 -100q5 26 20 38.5t32 12.5t27 -12.5t5 -38.5q-9 -48 -31.5 -84t-63.5 -65l-12 15q20 19 33 39t21 44q-19 1 -27.5 14.5t-3.5 36.5z" />
    <glyph glyph-name="scommaaccent" unicode="&#x219;" horiz-adv-x="457" 
d="M159 -12q-43 0 -85 11t-71 33l17 64q30 -27 70 -40.5t79 -13.5q66 0 106 24.5t49 67.5q7 37 -19 62.5t-96 45.5q-79 21 -111.5 59t-21.5 94q6 32 25 57t46.5 42.5t63 26.5t76.5 9q39 0 74.5 -8t65.5 -22l-18 -61q-28 20 -62 28.5t-72 8.5q-58 0 -93.5 -21.5t-42.5 -57.5
q-7 -35 17 -60.5t90 -44.5q45 -13 74.5 -29.5t45.5 -36t20.5 -42t-0.5 -48.5q-14 -72 -74.5 -110t-152.5 -38zM129 -100q5 26 20 38.5t32 12.5t27 -12.5t5 -38.5q-9 -48 -31.5 -84t-63.5 -65l-12 15q20 19 33 39t21 44q-19 1 -27.5 14.5t-3.5 36.5z" />
    <glyph glyph-name="uni021A" unicode="&#x21a;" horiz-adv-x="534" 
d="M310 644h-223l11 56h510l-11 -56h-223l-125 -644h-64zM156 -100q5 26 20 38.5t32 12.5t27 -12.5t5 -38.5q-9 -48 -31.5 -84t-63.5 -65l-12 15q20 19 33 39t21 44q-19 1 -27.5 14.5t-3.5 36.5z" />
    <glyph glyph-name="uni021B" unicode="&#x21b;" horiz-adv-x="367" 
d="M67 518h97l30 155h60l-30 -155h166l-10 -52h-166l-56 -288q-14 -75 2.5 -105.5t69.5 -30.5q15 0 29 2t29 6l-2 -55q-34 -7 -71 -7q-78 0 -108 41t-12 132l59 305h-97zM107 -100q5 26 20 38.5t32 12.5t27 -12.5t5 -38.5q-9 -48 -31.5 -84t-63.5 -65l-12 15q20 19 33 39
t21 44q-19 1 -27.5 14.5t-3.5 36.5z" />
    <glyph glyph-name="dotlessj" unicode="&#x237;" horiz-adv-x="225" 
d="M195 518l-107 -549q-17 -90 -61 -129.5t-116 -39.5q-31 0 -56 9l17 54q18 -10 46 -10q45 0 72 27t38 87l107 551h60z" />
    <glyph glyph-name="apostrophe" unicode="&#x2bc;" horiz-adv-x="404" 
d="M328 686q-11 -56 -31.5 -94.5t-65.5 -73.5l-13 23q41 41 53 89q-20 1 -27.5 13.5t-1.5 42.5q6 31 19 43.5t35 12.5t30 -12.5t2 -43.5z" />
    <glyph glyph-name="circumflex" unicode="&#x2c6;" horiz-adv-x="404" 
d="M323 730l105 -166h-62l-82 120l-128 -120h-62l169 166h60z" />
    <glyph glyph-name="caron" unicode="&#x2c7;" horiz-adv-x="404" 
d="M231 564l-105 166h62l82 -120l128 120h62l-169 -166h-60z" />
    <glyph glyph-name="uni02C9" unicode="&#x2c9;" horiz-adv-x="404" 
d="M140 671h284l-10 -52h-284z" />
    <glyph glyph-name="breve" unicode="&#x2d8;" horiz-adv-x="404" 
d="M262 568q-32 0 -58.5 9.5t-44 29t-24.5 49t-1 69.5h56q-8 -54 14.5 -81t66.5 -27t78 27t45 81h56q-9 -40 -27.5 -69.5t-43.5 -49t-55 -29t-62 -9.5z" />
    <glyph glyph-name="dotaccent" unicode="&#x2d9;" horiz-adv-x="404" 
d="M288 702q20 0 26.5 -12t1.5 -41q-6 -29 -17.5 -41t-31.5 -12t-26.5 12t-0.5 41q5 29 16.5 41t31.5 12z" />
    <glyph glyph-name="ring" unicode="&#x2da;" horiz-adv-x="404" 
d="M297 751q45 0 69 -29.5t15 -73.5q-4 -22 -15.5 -40.5t-28.5 -32.5t-37.5 -22t-42.5 -8q-45 0 -68.5 29.5t-15.5 73.5q4 22 16 40.5t28.5 32.5t37 22t42.5 8zM266 590q26 0 44.5 17.5t23.5 40.5t-7 40.5t-38 17.5t-45 -17.5t-24 -40.5t7.5 -40.5t38.5 -17.5z" />
    <glyph glyph-name="ogonek" unicode="&#x2db;" horiz-adv-x="404" 
d="M209 0q-48 -35 -72 -65.5t-30 -59.5q-7 -43 48 -43q11 0 22 1t22 6l-10 -52q-11 -3 -26 -4.5t-29 -1.5q-53 0 -74.5 23.5t-14.5 61.5q8 37 36.5 71.5t66.5 62.5h61z" />
    <glyph glyph-name="tilde" unicode="&#x2dc;" horiz-adv-x="404" 
d="M448 715q-7 -38 -18.5 -64.5t-26 -42.5t-32 -23t-36.5 -7q-26 0 -42 13.5t-28 29.5t-22.5 29.5t-23.5 13.5q-15 0 -31.5 -17.5t-26.5 -66.5h-55q15 76 46 106.5t69 30.5q25 0 41.5 -13.5t28.5 -29.5t22 -29.5t24 -13.5q15 0 31 17.5t25 66.5h55z" />
    <glyph glyph-name="hungarumlaut" unicode="&#x2dd;" horiz-adv-x="404" 
d="M245 730h73l-1 -8l-167 -154h-56zM387 730h73l-1 -8l-167 -154h-56z" />
    <glyph glyph-name="gravecomb" unicode="&#x300;" horiz-adv-x="0" 
d="M-150 568h-56l-107 154l1 8h73z" />
    <glyph glyph-name="acutecomb" unicode="&#x301;" horiz-adv-x="0" 
d="M-112 730h73l-1 -8l-167 -154h-56z" />
    <glyph glyph-name="uni0302" unicode="&#x302;" horiz-adv-x="0" 
d="M-134 730l105 -166h-62l-82 120l-128 -120h-62l169 166h60z" />
    <glyph glyph-name="tildecomb" unicode="&#x303;" horiz-adv-x="0" 
d="M-13 715q-7 -38 -18.5 -64.5t-26 -42.5t-32 -23t-36.5 -7q-26 0 -42 13.5t-28 29.5t-22.5 29.5t-23.5 13.5q-15 0 -31.5 -17.5t-26.5 -66.5h-55q15 76 46 106.5t69 30.5q25 0 41.5 -13.5t28.5 -29.5t22 -29.5t24 -13.5q15 0 31 17.5t25 66.5h55z" />
    <glyph glyph-name="uni0304" unicode="&#x304;" horiz-adv-x="0" 
d="M-310 671h284l-10 -52h-284z" />
    <glyph glyph-name="uni0306" unicode="&#x306;" horiz-adv-x="0" 
d="M-195 568q-32 0 -58.5 9.5t-44 29t-24.5 49t-1 69.5h56q-8 -54 14.5 -81t66.5 -27t78 27t45 81h56q-9 -40 -27.5 -69.5t-43.5 -49t-55 -29t-62 -9.5z" />
    <glyph glyph-name="uni0307" unicode="&#x307;" horiz-adv-x="0" 
d="M-168 702q20 0 26.5 -12t1.5 -41q-6 -29 -17.5 -41t-31.5 -12t-26.5 12t-0.5 41q5 29 16.5 41t31.5 12z" />
    <glyph glyph-name="uni0308" unicode="&#x308;" horiz-adv-x="0" 
d="M-66 702q20 0 26.5 -12t1.5 -41q-6 -29 -17.5 -41t-31.5 -12t-26.5 12t-0.5 41q5 29 16.5 41t31.5 12zM-268 702q20 0 26.5 -12t1.5 -41q-6 -29 -17.5 -41t-31.5 -12t-26.5 12t-0.5 41q5 29 16.5 41t31.5 12z" />
    <glyph glyph-name="uni030A" unicode="&#x30a;" horiz-adv-x="0" 
d="M-159 752q45 0 69 -29.5t15 -73.5q-4 -22 -15.5 -40.5t-28.5 -32.5t-37.5 -22t-42.5 -8q-45 0 -68.5 29.5t-15.5 73.5q4 22 16 40.5t28.5 32.5t37 22t42.5 8zM-190 591q26 0 44.5 17.5t23.5 40.5t-7 40.5t-38 17.5t-45 -17.5t-24 -40.5t7.5 -40.5t38.5 -17.5z" />
    <glyph glyph-name="uni030C" unicode="&#x30c;" horiz-adv-x="0" 
d="M-226 564l-105 166h62l82 -120l128 120h62l-169 -166h-60z" />
    <glyph glyph-name="uni0327" unicode="&#x327;" horiz-adv-x="0" 
d="M-425 -186q11 -5 24 -7t27 -2q34 0 54 13t25 36q5 24 -17 41t-73 19l65 86h57l-48 -63q39 -8 58 -31t13 -53q-8 -42 -42.5 -66.5t-98.5 -24.5q-14 0 -27 1.5t-25 5.5z" />
    <glyph glyph-name="tonos" unicode="&#x384;" horiz-adv-x="404" 
d="M291 730h73l-1 -8l-126 -170h-56z" />
    <glyph glyph-name="dieresistonos" unicode="&#x385;" horiz-adv-x="404" 
d="M364 762h73l-2 -8l-153 -133h-56zM368 601q20 0 26.5 -12t1.5 -41t-16.5 -41t-31.5 -12t-26.5 12t-1.5 41t16.5 41t31.5 12zM166 601q20 0 26.5 -12t1.5 -41t-16.5 -41t-31.5 -12t-26.5 12t-1.5 41t16.5 41t31.5 12z" />
    <glyph glyph-name="Alphatonos" unicode="&#x386;" horiz-adv-x="640" 
d="M476 191h-338l-111 -191h-70l413 700h72l141 -700h-70zM171 247h294l-73 382zM200 700h73l-1 -8l-126 -170h-56z" />
    <glyph glyph-name="anoteleia" unicode="&#x387;" horiz-adv-x="292" 
d="M202 330q-6 -31 -19 -43.5t-35 -12.5t-30 12.5t-2 43.5t19 43.5t35 12.5t30 -12.5t2 -43.5z" />
    <glyph glyph-name="Epsilontonos" unicode="&#x388;" horiz-adv-x="633" 
d="M244 700h424l-11 -56h-360l-50 -254h335l-11 -56h-335l-54 -278h369l-10 -56h-433zM134 700h73l-1 -8l-126 -170h-56z" />
    <glyph glyph-name="Etatonos" unicode="&#x389;" horiz-adv-x="770" 
d="M245 700h64l-59 -299h401l59 299h64l-136 -700h-64l67 345h-401l-67 -345h-64zM134 700h73l-1 -8l-126 -170h-56z" />
    <glyph glyph-name="Iotatonos" unicode="&#x38a;" horiz-adv-x="305" 
d="M304 700l-136 -700h-64l136 700h64zM134 700h73l-1 -8l-126 -170h-56z" />
    <glyph glyph-name="Omicrontonos" unicode="&#x38c;" horiz-adv-x="731" 
d="M702 350q-15 -77 -48.5 -143t-82.5 -115t-111.5 -76.5t-134.5 -27.5t-123.5 27.5t-81.5 76.5t-37.5 115t7.5 143t48 143t82 115t111.5 76.5t134.5 27.5t123.5 -27.5t81.5 -76.5t38 -115t-7 -143zM636 350q13 68 7.5 124t-29 96t-63.5 62t-96 22t-104.5 -22t-87.5 -62
t-66.5 -96t-40.5 -124q-14 -68 -8.5 -124t29 -96t63.5 -62t96 -22t104.5 22t87.5 62t66.5 96t41.5 124zM134 700h73l-1 -8l-126 -170h-56z" />
    <glyph glyph-name="Upsilontonos" unicode="&#x38e;" horiz-adv-x="775" 
d="M463 339l304 361h72l-355 -422l-54 -278h-64l54 278l-191 422h72zM134 700h73l-1 -8l-126 -170h-56z" />
    <glyph glyph-name="Omegatonos" unicode="&#x38f;" horiz-adv-x="735" 
d="M469 712q73 0 125.5 -26.5t82.5 -72.5t38 -108.5t-6 -134.5q-10 -53 -31.5 -99.5t-51 -86t-65.5 -72t-76 -56.5h151l-10 -56h-240l10 53q99 55 163 132.5t84 184.5q12 63 6 115.5t-29.5 90t-64 58t-97.5 20.5t-105.5 -21t-87 -58.5t-65.5 -89.5t-39 -115
q-20 -107 14 -184.5t112 -132.5l-10 -53h-241l10 56h152q-30 24 -53.5 56.5t-38 72t-18 86t6.5 99.5q14 72 47 134.5t81 108.5t110.5 72.5t135.5 26.5zM134 700h73l-1 -8l-126 -170h-56z" />
    <glyph glyph-name="iotadieresistonos" unicode="&#x390;" horiz-adv-x="287" 
d="M182 518l-70 -363q-12 -60 4 -87t62 -27q28 0 50 10l-4 -54q-29 -9 -59 -9q-73 0 -101.5 39.5t-11.5 129.5l70 361h60zM279 835h73l-2 -8l-153 -133h-56zM283 674q20 0 26.5 -12t1.5 -41t-16.5 -41t-31.5 -12t-26.5 12t-1.5 41t16.5 41t31.5 12zM81 674q20 0 26.5 -12
t1.5 -41t-16.5 -41t-31.5 -12t-26.5 12t-1.5 41t16.5 41t31.5 12z" />
    <glyph glyph-name="Alpha" unicode="&#x391;" horiz-adv-x="640" 
d="M476 191h-338l-111 -191h-70l413 700h72l141 -700h-70zM171 247h294l-73 382z" />
    <glyph glyph-name="Beta" unicode="&#x392;" horiz-adv-x="618" 
d="M168 700h231q53 0 92.5 -13.5t64 -37.5t33.5 -57.5t1 -73.5q-11 -56 -42 -93.5t-81 -56.5q61 -20 85 -64.5t11 -108.5q-17 -92 -92.5 -143.5t-198.5 -51.5h-240zM496 195q15 76 -29.5 108t-146.5 32h-159l-55 -279h169q195 0 221 139zM524 517q11 60 -25.5 93.5
t-117.5 33.5h-160l-49 -253h153q90 0 137.5 28.5t61.5 97.5z" />
    <glyph glyph-name="Gamma" unicode="&#x393;" horiz-adv-x="520" 
d="M168 700h426l-11 -56h-362l-125 -644h-64z" />
    <glyph glyph-name="uni0394" unicode="&#x394;" horiz-adv-x="642" 
d="M-43 0l416 700h68l144 -700h-628zM502 56l-111 564l-331 -564h442z" />
    <glyph glyph-name="Epsilon" unicode="&#x395;" horiz-adv-x="557" 
d="M168 700h424l-11 -56h-360l-50 -254h335l-11 -56h-335l-54 -278h369l-10 -56h-433z" />
    <glyph glyph-name="Zeta" unicode="&#x396;" horiz-adv-x="557" 
d="M516 644h-394l11 56h468l-12 -62l-524 -582h420l-10 -56h-493l12 62z" />
    <glyph glyph-name="Eta" unicode="&#x397;" horiz-adv-x="693" 
d="M168 700h64l-59 -299h401l59 299h64l-136 -700h-64l67 345h-401l-67 -345h-64z" />
    <glyph glyph-name="Theta" unicode="&#x398;" horiz-adv-x="706" 
d="M240 324l11 52h251l-11 -52h-251zM677 350q-15 -77 -48.5 -143t-82.5 -115t-111.5 -76.5t-134.5 -27.5t-123.5 27.5t-81.5 76.5t-37.5 115t7.5 143t48 143t82 115t111.5 76.5t134.5 27.5t123.5 -27.5t81.5 -76.5t38 -115t-7 -143zM611 350q13 68 7.5 124t-29 96t-63.5 62
t-96 22t-104.5 -22t-87.5 -62t-66.5 -96t-40.5 -124q-14 -68 -8.5 -124t29 -96t63.5 -62t96 -22t104.5 22t87.5 62t66.5 96t41.5 124z" />
    <glyph glyph-name="Iota" unicode="&#x399;" horiz-adv-x="238" 
d="M237 700l-136 -700h-64l136 700h64z" />
    <glyph glyph-name="Kappa" unicode="&#x39a;" horiz-adv-x="581" 
d="M232 700l-62 -316l384 316h81l-392 -327l300 -373h-85l-293 360l-69 -360h-64l136 700h64z" />
    <glyph glyph-name="Lambda" unicode="&#x39b;" horiz-adv-x="640" 
d="M392 629l-365 -629h-70l413 700h72l141 -700h-70z" />
    <glyph glyph-name="Mu" unicode="&#x39c;" horiz-adv-x="836" 
d="M385 240l-172 367l-117 -607h-64l136 700h73l185 -398l341 398h73l-136 -700h-64l117 607l-314 -367h-58z" />
    <glyph glyph-name="Nu" unicode="&#x39d;" horiz-adv-x="700" 
d="M168 700h79l273 -616l120 616h64l-136 -700h-78l-274 616l-119 -616h-65z" />
    <glyph glyph-name="Xi" unicode="&#x39e;" horiz-adv-x="552" 
d="M589 644h-476l11 56h476zM479 325h-376l11 56h376zM464 0h-476l10 56h476z" />
    <glyph glyph-name="Omicron" unicode="&#x39f;" horiz-adv-x="706" 
d="M677 350q-15 -77 -48.5 -143t-82.5 -115t-111.5 -76.5t-134.5 -27.5t-123.5 27.5t-81.5 76.5t-37.5 115t7.5 143t48 143t82 115t111.5 76.5t134.5 27.5t123.5 -27.5t81.5 -76.5t38 -115t-7 -143zM611 350q13 68 7.5 124t-29 96t-63.5 62t-96 22t-104.5 -22t-87.5 -62
t-66.5 -96t-40.5 -124q-14 -68 -8.5 -124t29 -96t63.5 -62t96 -22t104.5 22t87.5 62t66.5 96t41.5 124z" />
    <glyph glyph-name="Pi" unicode="&#x3a0;" horiz-adv-x="693" 
d="M168 700h529l-136 -700h-64l125 644h-400l-125 -644h-65z" />
    <glyph glyph-name="Rho" unicode="&#x3a1;" horiz-adv-x="583" 
d="M590 487q-10 -52 -36.5 -92t-66 -67t-90.5 -41t-111 -14h-137l-53 -273h-64l136 700h201q60 0 106 -14t75 -41t39.5 -67t0.5 -91zM524 487q16 81 -28 119t-144 38h-131l-62 -315h131q100 0 159 38t75 120z" />
    <glyph glyph-name="Sigma" unicode="&#x3a3;" horiz-adv-x="528" 
d="M250 372l-144 269l12 59h474l-11 -56h-396l137 -259l-5 -28l-248 -301h397l-10 -56h-474l11 59z" />
    <glyph glyph-name="Tau" unicode="&#x3a4;" horiz-adv-x="534" 
d="M310 644h-223l11 56h510l-11 -56h-223l-125 -644h-64z" />
    <glyph glyph-name="Upsilon" unicode="&#x3a5;" horiz-adv-x="654" 
d="M342 339l304 361h72l-355 -422l-54 -278h-64l54 278l-191 422h72z" />
    <glyph glyph-name="Phi" unicode="&#x3a6;" horiz-adv-x="710" 
d="M293 104q-59 3 -106.5 21t-79 49t-44.5 75t-2 101t41 101t74 75t98.5 49t113.5 21l21 104h64l-21 -104q58 -3 106 -21t80 -49t45 -75t2 -101t-41.5 -101t-74.5 -75t-98.5 -49t-113.5 -21l-20 -104h-64zM619 350q9 45 -0.5 79t-33.5 58t-61 37t-83 15l-73 -378
q47 2 88.5 15t74.5 37t56 58t32 79zM127 350q-9 -45 0 -79t33 -58t61 -37t83 -15l73 378q-47 -2 -88.5 -15t-74.5 -37t-55.5 -58t-31.5 -79z" />
    <glyph glyph-name="Chi" unicode="&#x3a7;" horiz-adv-x="655" 
d="M384 355l204 -355h-75l-177 306l-294 -306h-75l342 355l-198 345h75l169 -296l286 296h75z" />
    <glyph glyph-name="Psi" unicode="&#x3a8;" horiz-adv-x="688" 
d="M262 0l29 153q-52 4 -92.5 23t-66 53.5t-34 85t5.5 118.5l52 267h64l-51 -262q-20 -103 13.5 -161t120.5 -66l95 489h64l-95 -489q90 8 146 66t76 161l51 262h64l-52 -267q-14 -68 -42 -118.5t-67 -85t-87 -53.5t-101 -23l-29 -153h-64z" />
    <glyph glyph-name="uni03A9" unicode="&#x3a9;" horiz-adv-x="708" 
d="M442 712q73 0 125.5 -26.5t82.5 -72.5t38 -108.5t-6 -134.5q-10 -53 -31.5 -99.5t-51 -86t-65.5 -72t-76 -56.5h151l-10 -56h-240l10 53q99 55 163 132.5t84 184.5q12 63 6 115.5t-29.5 90t-64 58t-97.5 20.5t-105.5 -21t-87 -58.5t-65.5 -89.5t-39 -115
q-20 -107 14 -184.5t112 -132.5l-10 -53h-241l10 56h152q-30 24 -53.5 56.5t-38 72t-18 86t6.5 99.5q14 72 47 134.5t81 108.5t110.5 72.5t135.5 26.5z" />
    <glyph glyph-name="Iotadieresis" unicode="&#x3aa;" horiz-adv-x="238" 
d="M237 700l-136 -700h-64l136 700h64zM344 896q20 0 26.5 -12t1.5 -41q-6 -29 -17.5 -41t-31.5 -12t-26.5 12t-0.5 41q5 29 16.5 41t31.5 12zM142 896q20 0 26.5 -12t1.5 -41q-6 -29 -17.5 -41t-31.5 -12t-26.5 12t-0.5 41q5 29 16.5 41t31.5 12z" />
    <glyph glyph-name="Upsilondieresis" unicode="&#x3ab;" horiz-adv-x="654" 
d="M342 339l304 361h72l-355 -422l-54 -278h-64l54 278l-191 422h72zM551 896q20 0 26.5 -12t1.5 -41q-6 -29 -17.5 -41t-31.5 -12t-26.5 12t-0.5 41q5 29 16.5 41t31.5 12zM349 896q20 0 26.5 -12t1.5 -41q-6 -29 -17.5 -41t-31.5 -12t-26.5 12t-0.5 41q5 29 16.5 41
t31.5 12z" />
    <glyph glyph-name="alphatonos" unicode="&#x3ac;" horiz-adv-x="600" 
d="M466 240q2 -70 6.5 -108t11.5 -56t16.5 -21t21.5 -3h20l-10 -52h-35q-17 0 -30.5 6t-23.5 23.5t-16 50.5t-9 87q-32 -56 -61.5 -91t-58 -54.5t-56.5 -26.5t-56 -7q-42 0 -75 17.5t-52.5 52t-24.5 85t8 116.5q12 60 37 110t59 85.5t75 55.5t85 20q71 0 111 -46t48 -146
l97 180h61zM197 42q26 0 49 8t47.5 31t53 64.5t66.5 107.5q0 62 -9.5 104.5t-26 69t-39.5 38t-51 11.5q-32 0 -61 -16.5t-53 -45.5t-42 -69t-27 -86q-20 -104 7 -160.5t86 -56.5zM468 750h73l-1 -8l-167 -154h-56z" />
    <glyph glyph-name="epsilontonos" unicode="&#x3ad;" horiz-adv-x="466" 
d="M353 247q-117 0 -185 -31t-78 -82q-9 -44 29 -68t124 -24q40 0 81 7t79 21l-5 -57q-39 -13 -82.5 -19t-85.5 -6q-51 0 -92 8.5t-68 26t-38.5 44.5t-4.5 64q11 55 60 91t117 49q-65 8 -98 39.5t-23 84.5q13 65 73.5 100t169.5 35q42 0 82 -5t73 -16l-16 -58q-33 13 -71 19
t-78 6q-80 0 -121.5 -20t-49.5 -61q-9 -49 48.5 -72t169.5 -23zM407 750h73l-1 -8l-167 -154h-56z" />
    <glyph glyph-name="etatonos" unicode="&#x3ae;" horiz-adv-x="572" 
d="M326 476q-45 0 -88.5 -18t-76.5 -49l-79 -409h-60l100 518h60l-10 -50q35 28 81 45t92 17q100 0 145 -59t23 -171l-96 -493h-60l95 491q35 178 -126 178zM440 750h73l-1 -8l-167 -154h-56z" />
    <glyph glyph-name="iotatonos" unicode="&#x3af;" horiz-adv-x="287" 
d="M182 518l-70 -363q-12 -60 4 -87t62 -27q28 0 50 10l-4 -54q-29 -9 -59 -9q-73 0 -101.5 39.5t-11.5 129.5l70 361h60zM273 750h73l-1 -8l-167 -154h-56z" />
    <glyph glyph-name="upsilondieresistonos" unicode="&#x3b0;" horiz-adv-x="545" 
d="M112 391q9 49 2.5 64.5t-26.5 15.5q-13 0 -30 -5l4 53q11 3 21.5 4.5t24.5 1.5q47 0 64.5 -28t4.5 -98l-35 -180q-18 -93 9.5 -135t99.5 -42q146 0 182 186q14 72 12 146.5t-24 143.5h68q19 -64 20.5 -139t-12.5 -151q-23 -115 -86 -177.5t-171 -62.5q-105 0 -144.5 58
t-18.5 167zM423 835h73l-2 -8l-153 -133h-56zM427 674q20 0 26.5 -12t1.5 -41t-16.5 -41t-31.5 -12t-26.5 12t-1.5 41t16.5 41t31.5 12zM225 674q20 0 26.5 -12t1.5 -41t-16.5 -41t-31.5 -12t-26.5 12t-1.5 41t16.5 41t31.5 12z" />
    <glyph glyph-name="alpha" unicode="&#x3b1;" horiz-adv-x="600" 
d="M466 240q2 -70 6.5 -108t11.5 -56t16.5 -21t21.5 -3h20l-10 -52h-35q-17 0 -30.5 6t-23.5 23.5t-16 50.5t-9 87q-32 -56 -61.5 -91t-58 -54.5t-56.5 -26.5t-56 -7q-42 0 -75 17.5t-52.5 52t-24.5 85t8 116.5q12 60 37 110t59 85.5t75 55.5t85 20q71 0 111 -46t48 -146
l97 180h61zM197 42q26 0 49 8t47.5 31t53 64.5t66.5 107.5q0 62 -9.5 104.5t-26 69t-39.5 38t-51 11.5q-32 0 -61 -16.5t-53 -45.5t-42 -69t-27 -86q-20 -104 7 -160.5t86 -56.5z" />
    <glyph glyph-name="beta" unicode="&#x3b2;" horiz-adv-x="536" 
d="M247 406q51 0 89.5 12t64.5 32.5t41.5 48t21.5 58.5q11 60 -18 95.5t-94 35.5q-60 0 -105 -41t-62 -131l-138 -709h-63l136 702q23 118 88 175.5t157 57.5q45 0 78.5 -13.5t54.5 -38t28.5 -58.5t-0.5 -74q-14 -70 -59 -114t-111 -63q73 -24 104.5 -78t16.5 -129
q-8 -40 -27.5 -74t-49.5 -59t-70.5 -39t-88.5 -14q-33 0 -64 7.5t-54 22.5l17 61q22 -18 50.5 -27.5t59.5 -9.5q69 0 111.5 36t53.5 96q8 40 -2 73.5t-34 57t-60.5 36.5t-81.5 13z" />
    <glyph glyph-name="gamma" unicode="&#x3b3;" horiz-adv-x="549" 
d="M186 -200q-27 0 -48 8t-35 23t-19 36t0 47q2 13 9.5 30t22.5 41t39 57t60 78l-148 398h67l125 -340l256 340h67l-302 -398q17 -47 28 -79.5t17 -56t7.5 -39.5t-1.5 -31q-11 -52 -51.5 -83t-93.5 -31zM237 63q-24 -31 -41 -53.5t-27.5 -40t-16.5 -30t-8 -23.5
q-5 -28 8 -45t44 -17q30 0 50 17t25 45q4 20 1 38.5t-9 36.5t-13.5 36t-12.5 36z" />
    <glyph glyph-name="delta" unicode="&#x3b4;" horiz-adv-x="575" 
d="M42 259q11 59 38.5 107.5t66.5 83t87 53.5t100 19h10l-176 153l10 55h381l-10 -52h-291l214 -189q46 -42 60.5 -100t0.5 -130q-12 -59 -39.5 -108.5t-67 -85.5t-88.5 -56.5t-103 -20.5q-55 0 -96 20.5t-66.5 56.5t-34 85.5t3.5 108.5zM104 259q-10 -50 -4 -90t25 -68.5
t49.5 -43.5t71.5 -15q40 0 76.5 15t66.5 43.5t51 68.5t31 90q10 49 4 89.5t-24.5 68.5t-49.5 43.5t-71 15.5q-41 0 -77.5 -15.5t-66.5 -43.5t-51 -68.5t-31 -89.5z" />
    <glyph glyph-name="epsilon" unicode="&#x3b5;" horiz-adv-x="466" 
d="M353 247q-117 0 -185 -31t-78 -82q-9 -44 29 -68t124 -24q40 0 81 7t79 21l-5 -57q-39 -13 -82.5 -19t-85.5 -6q-51 0 -92 8.5t-68 26t-38.5 44.5t-4.5 64q11 55 60 91t117 49q-65 8 -98 39.5t-23 84.5q13 65 73.5 100t169.5 35q42 0 82 -5t73 -16l-16 -58q-33 13 -71 19
t-78 6q-80 0 -121.5 -20t-49.5 -61q-9 -49 48.5 -72t169.5 -23z" />
    <glyph glyph-name="zeta" unicode="&#x3b6;" horiz-adv-x="420" 
d="M490 671q-82 -47 -149.5 -100t-117.5 -110t-82 -116.5t-44 -119.5q-9 -45 6 -77.5t45.5 -54.5t73.5 -35.5t91 -20.5q26 -4 36 -15t6 -31q-2 -11 -9.5 -26t-21.5 -32l-95 -126h-67l119 158q3 4 4 7t3 8q0 3 -3.5 4.5t-9.5 2.5t-12.5 2t-11.5 2q-53 11 -97 28.5t-74 45
t-43 66t-2 92.5q12 63 44 123.5t81 118t112.5 111t140.5 102.5h-238l10 52h316z" />
    <glyph glyph-name="eta" unicode="&#x3b7;" horiz-adv-x="572" 
d="M326 476q-45 0 -88.5 -18t-76.5 -49l-79 -409h-60l100 518h60l-10 -50q35 28 81 45t92 17q100 0 145 -59t23 -171l-96 -493h-60l95 491q35 178 -126 178z" />
    <glyph glyph-name="theta" unicode="&#x3b8;" horiz-adv-x="582" 
d="M238 -12q-60 0 -101 26.5t-63.5 75t-25.5 118.5t14 157t47.5 157t71.5 118.5t92.5 75t111.5 26.5t101 -26.5t63.5 -75t25 -118.5t-14.5 -157t-47 -157t-71.5 -118.5t-92.5 -75t-111 -26.5zM249 42q86 0 148.5 76.5t93.5 220.5h-370q-25 -144 8.5 -220.5t119.5 -76.5z
M374 688q-86 0 -149 -77t-93 -220h370q24 143 -9 220t-119 77z" />
    <glyph glyph-name="iota" unicode="&#x3b9;" horiz-adv-x="287" 
d="M182 518l-70 -363q-12 -60 4 -87t62 -27q28 0 50 10l-4 -54q-29 -9 -59 -9q-73 0 -101.5 39.5t-11.5 129.5l70 361h60z" />
    <glyph glyph-name="kappa" unicode="&#x3ba;" horiz-adv-x="502" 
d="M440 0h-81l-227 259l-50 -259h-60l100 518h60l-45 -235l218 180q37 27 66 43t61 16q25 0 42 -7l-18 -55q-7 5 -16 6.5t-19 1.5q-17 0 -30 -7.5t-30 -21.5l-208 -168z" />
    <glyph glyph-name="lambda" unicode="&#x3bb;" horiz-adv-x="506" 
d="M285 408l-262 -408h-66l311 484l-59 246h66l174 -730h-66z" />
    <glyph glyph-name="uni03BC" unicode="&#x3bc;" horiz-adv-x="602" 
d="M512 42q8 0 16 1.5t14 5.5l-3 -53q-11 -4 -25 -6t-28 -2q-35 0 -55 17t-18 51q-73 -68 -173 -68q-51 0 -86.5 16.5t-58.5 46.5l-47 -244h-64l138 711h64l-79 -408q22 -33 59.5 -50.5t84.5 -17.5t90.5 17.5t78.5 50.5l79 408h64l-80 -413q-8 -37 0.5 -50t28.5 -13z" />
    <glyph glyph-name="nu" unicode="&#x3bd;" horiz-adv-x="527" 
d="M67 518h67l90 -450q94 89 161 204t98 246h62q-36 -148 -114 -280t-195 -238h-61z" />
    <glyph glyph-name="xi" unicode="&#x3be;" horiz-adv-x="428" 
d="M145 26q-59 30 -87 75.5t-14 116.5q13 66 65 117.5t128 74.5q-57 14 -84.5 55t-16.5 100q15 75 77 120t175 45h57l-10 -52h-59q-84 0 -125.5 -31t-52.5 -82q-5 -24 1.5 -46t24 -39t46 -27t67.5 -10h47l-10 -52q-50 0 -95 -11.5t-81 -33t-60 -54t-32 -74.5
q-11 -60 15.5 -96.5t75.5 -53.5q27 -9 58 -16.5t56 -17.5t40 -24t11 -36q-4 -25 -23 -50l-92 -117h-71l99 126q9 11 12.5 18t5.5 14q2 10 -15 18t-41.5 14.5t-50.5 13.5t-41 15z" />
    <glyph glyph-name="omicron" unicode="&#x3bf;" horiz-adv-x="576" 
d="M42 259q11 59 38.5 108.5t67.5 85.5t89 56.5t104 20.5t96 -20.5t66.5 -56.5t33.5 -85.5t-3 -108.5q-12 -59 -39.5 -108.5t-67 -85.5t-88.5 -56.5t-104 -20.5t-96 20.5t-66.5 56.5t-34 85.5t3.5 108.5zM104 259q-10 -50 -4 -90t25 -68t50 -43.5t71 -15.5t76.5 15.5
t66.5 43.5t51.5 68t31.5 90q10 49 4 89.5t-25 68.5t-50 43.5t-71 15.5t-76.5 -15.5t-66.5 -43.5t-51.5 -68.5t-31.5 -89.5z" />
    <glyph glyph-name="pi" unicode="&#x3c0;" horiz-adv-x="611" 
d="M67 518h563l-10 -52h-151l-56 -288q-14 -75 2.5 -105.5t63.5 -30.5q27 0 56 8l-3 -56q-17 -3 -35 -4.5t-33 -1.5q-70 0 -101 41t-13 131l59 306h-149q-27 -136 -70.5 -254.5t-121.5 -223.5l-55 24q39 52 68 105.5t51 110t37.5 116t28.5 122.5h-141z" />
    <glyph glyph-name="rho" unicode="&#x3c1;" horiz-adv-x="565" 
d="M97 106q21 -30 57.5 -47t78.5 -17q40 0 77 14.5t67 42t52 68t32 92.5q20 105 -18.5 161t-120.5 56q-70 0 -119.5 -42.5t-65.5 -124.5zM39 -193h-60l96 495q11 57 35.5 99.5t58.5 71t77 43t91 14.5q51 0 91 -18.5t65.5 -53t33.5 -85t-4 -114.5q-12 -63 -40 -113.5
t-67 -85.5t-86.5 -53.5t-98.5 -18.5q-45 0 -83.5 16.5t-61.5 42.5z" />
    <glyph glyph-name="sigma1" unicode="&#x3c2;" horiz-adv-x="478" 
d="M265 -12q-60 3 -107 22.5t-77 54t-40.5 83.5t1.5 111t42 112t73.5 85.5t97 54.5t112.5 19q39 0 74.5 -7t62.5 -21l-17 -59q-26 18 -59.5 25.5t-70.5 7.5q-45 0 -86.5 -14.5t-75 -42.5t-57.5 -68.5t-34 -91.5t-2 -90t31.5 -66.5t60 -42.5t82.5 -18q72 -5 104.5 -30.5
t21.5 -79.5t-60 -82.5t-132 -28.5l10 54q57 0 86 14t34 43q5 26 -12.5 40t-62.5 16z" />
    <glyph glyph-name="sigma" unicode="&#x3c3;" horiz-adv-x="576" 
d="M41 253q11 57 38 105.5t66.5 84t88.5 55.5t104 20h271l-10 -52h-137q48 -32 66.5 -88t4.5 -125q-11 -57 -38.5 -105.5t-67 -84t-88.5 -55.5t-104 -20t-96.5 20t-67 55.5t-33.5 84t3 105.5zM103 253q-9 -48 -3 -86.5t25 -66.5t50 -43t71 -15t76.5 15t66.5 43t51.5 66.5
t30.5 86.5t3 86.5t-25 66.5t-50 43t-71 15t-77 -15t-67 -43t-51 -66.5t-30 -86.5z" />
    <glyph glyph-name="tau" unicode="&#x3c4;" horiz-adv-x="445" 
d="M67 518h401l-10 -52h-177l-56 -289q-15 -75 1 -105t64 -30q30 0 59 8l-3 -56q-35 -6 -70 -6q-70 0 -101 41t-13 131l59 306h-164z" />
    <glyph glyph-name="upsilon" unicode="&#x3c5;" horiz-adv-x="545" 
d="M112 391q9 49 2.5 64.5t-26.5 15.5q-13 0 -30 -5l4 53q11 3 21.5 4.5t24.5 1.5q47 0 64.5 -28t4.5 -98l-35 -180q-18 -93 9.5 -135t99.5 -42q146 0 182 186q14 72 12 146.5t-24 143.5h68q19 -64 20.5 -139t-12.5 -151q-23 -115 -86 -177.5t-171 -62.5q-105 0 -144.5 58
t-18.5 167z" />
    <glyph glyph-name="phi" unicode="&#x3c6;" horiz-adv-x="649" 
d="M203 -193l35 179q-53 4 -95 24t-68.5 54.5t-36 82.5t2.5 109q14 73 55 144t101 131l44 -33q-51 -52 -87 -115t-49 -129q-10 -50 -3.5 -88.5t26 -65.5t50.5 -42.5t70 -18.5l61 314q17 88 61 132.5t112 44.5q78 0 114.5 -66.5t10.5 -201.5q-12 -63 -40 -112.5t-68 -84.5
t-90 -55t-107 -24l-35 -179h-64zM543 261q21 107 -0.5 161t-71.5 54q-42 0 -64 -32.5t-36 -102.5l-59 -302q41 2 78.5 18t68 44t52.5 68.5t32 91.5z" />
    <glyph glyph-name="chi" unicode="&#x3c7;" horiz-adv-x="514" 
d="M205 171l-131 347h68l109 -284l221 284h68l-265 -347l139 -364h-71l-117 301l-231 -301h-70z" />
    <glyph glyph-name="psi" unicode="&#x3c8;" horiz-adv-x="661" 
d="M246 -12q-52 4 -91 22t-63 51t-31.5 80t4.5 110l52 267h63l-51 -265q-20 -102 13.5 -153.5t113.5 -58.5l93 477h64l-93 -477q80 8 135 60t75 152l51 265h63l-52 -267q-12 -63 -37.5 -110t-62.5 -80t-83 -51t-99 -22l-35 -181h-64z" />
    <glyph glyph-name="omega" unicode="&#x3c9;" horiz-adv-x="770" 
d="M369 175q-35 -97 -83.5 -142.5t-111.5 -45.5q-39 0 -67 20t-44 58.5t-17.5 95.5t12.5 131q12 60 30 117t45 116l62 -5q-26 -54 -44.5 -111.5t-29.5 -114.5q-26 -130 -5.5 -191.5t70.5 -61.5q27 0 54 18.5t52.5 63.5t49.5 119.5t46 187.5h60q-22 -113 -27 -187.5t3 -119.5
t27.5 -63.5t46.5 -18.5q50 0 94.5 61.5t70.5 191.5q11 57 15 114.5t-1 111.5l64 5q3 -59 -1 -116t-16 -117q-29 -149 -92.5 -227t-141.5 -78q-63 0 -93.5 45.5t-27.5 142.5z" />
    <glyph glyph-name="iotadieresis" unicode="&#x3ca;" horiz-adv-x="287" 
d="M182 518l-70 -363q-12 -60 4 -87t62 -27q28 0 50 10l-4 -54q-29 -9 -59 -9q-73 0 -101.5 39.5t-11.5 129.5l70 361h60zM293 722q20 0 26.5 -12t1.5 -41q-6 -29 -17.5 -41t-31.5 -12t-26.5 12t-0.5 41q5 29 16.5 41t31.5 12zM91 722q20 0 26.5 -12t1.5 -41
q-6 -29 -17.5 -41t-31.5 -12t-26.5 12t-0.5 41q5 29 16.5 41t31.5 12z" />
    <glyph glyph-name="upsilondieresis" unicode="&#x3cb;" horiz-adv-x="545" 
d="M112 391q9 49 2.5 64.5t-26.5 15.5q-13 0 -30 -5l4 53q11 3 21.5 4.5t24.5 1.5q47 0 64.5 -28t4.5 -98l-35 -180q-18 -93 9.5 -135t99.5 -42q146 0 182 186q14 72 12 146.5t-24 143.5h68q19 -64 20.5 -139t-12.5 -151q-23 -115 -86 -177.5t-171 -62.5q-105 0 -144.5 58
t-18.5 167zM438 722q20 0 26.5 -12t1.5 -41q-6 -29 -17.5 -41t-31.5 -12t-26.5 12t-0.5 41q5 29 16.5 41t31.5 12zM236 722q20 0 26.5 -12t1.5 -41q-6 -29 -17.5 -41t-31.5 -12t-26.5 12t-0.5 41q5 29 16.5 41t31.5 12z" />
    <glyph glyph-name="omicrontonos" unicode="&#x3cc;" horiz-adv-x="576" 
d="M42 259q11 59 38.5 108.5t67.5 85.5t89 56.5t104 20.5t96 -20.5t66.5 -56.5t33.5 -85.5t-3 -108.5q-12 -59 -39.5 -108.5t-67 -85.5t-88.5 -56.5t-104 -20.5t-96 20.5t-66.5 56.5t-34 85.5t3.5 108.5zM104 259q-10 -50 -4 -90t25 -68t50 -43.5t71 -15.5t76.5 15.5
t66.5 43.5t51.5 68t31.5 90q10 49 4 89.5t-25 68.5t-50 43.5t-71 15.5t-76.5 -15.5t-66.5 -43.5t-51.5 -68.5t-31.5 -89.5zM436 750h73l-1 -8l-167 -154h-56z" />
    <glyph glyph-name="upsilontonos" unicode="&#x3cd;" horiz-adv-x="545" 
d="M112 391q9 49 2.5 64.5t-26.5 15.5q-13 0 -30 -5l4 53q11 3 21.5 4.5t24.5 1.5q47 0 64.5 -28t4.5 -98l-35 -180q-18 -93 9.5 -135t99.5 -42q146 0 182 186q14 72 12 146.5t-24 143.5h68q19 -64 20.5 -139t-12.5 -151q-23 -115 -86 -177.5t-171 -62.5q-105 0 -144.5 58
t-18.5 167zM416 750h73l-1 -8l-167 -154h-56z" />
    <glyph glyph-name="omegatonos" unicode="&#x3ce;" horiz-adv-x="770" 
d="M369 175q-35 -97 -83.5 -142.5t-111.5 -45.5q-39 0 -67 20t-44 58.5t-17.5 95.5t12.5 131q12 60 30 117t45 116l62 -5q-26 -54 -44.5 -111.5t-29.5 -114.5q-26 -130 -5.5 -191.5t70.5 -61.5q27 0 54 18.5t52.5 63.5t49.5 119.5t46 187.5h60q-22 -113 -27 -187.5t3 -119.5
t27.5 -63.5t46.5 -18.5q50 0 94.5 61.5t70.5 191.5q11 57 15 114.5t-1 111.5l64 5q3 -59 -1 -116t-16 -117q-29 -149 -92.5 -227t-141.5 -78q-63 0 -93.5 45.5t-27.5 142.5zM544 750h73l-1 -8l-167 -154h-56z" />
    <glyph glyph-name="uni0400" unicode="&#x400;" horiz-adv-x="557" 
d="M168 700h424l-11 -56h-360l-50 -254h335l-11 -56h-335l-54 -278h369l-10 -56h-433zM478 762h-56l-107 154l1 8h73z" />
    <glyph glyph-name="afii10023" unicode="&#x401;" horiz-adv-x="557" 
d="M168 700h424l-11 -56h-360l-50 -254h335l-11 -56h-335l-54 -278h369l-10 -56h-433zM517 896q20 0 26.5 -12t1.5 -41q-6 -29 -17.5 -41t-31.5 -12t-26.5 12t-0.5 41q5 29 16.5 41t31.5 12zM315 896q20 0 26.5 -12t1.5 -41q-6 -29 -17.5 -41t-31.5 -12t-26.5 12t-0.5 41
q5 29 16.5 41t31.5 12z" />
    <glyph glyph-name="afii10051" unicode="&#x402;" horiz-adv-x="702" 
d="M310 644h-223l11 56h510l-11 -56h-223l-46 -236h123q113 0 165 -53t31 -160q-19 -99 -83 -153t-159 -54q-47 0 -84 15l12 63q18 -11 38.5 -15.5t43.5 -4.5q67 0 109.5 39.5t56.5 108.5q16 81 -18 119.5t-119 38.5h-127l-68 -352h-64z" />
    <glyph glyph-name="afii10052" unicode="&#x403;" horiz-adv-x="520" 
d="M168 700h426l-11 -56h-362l-125 -644h-64zM482 924h73l-1 -8l-167 -154h-56z" />
    <glyph glyph-name="afii10053" unicode="&#x404;" horiz-adv-x="603" 
d="M65 350q15 80 53.5 146.5t94.5 114.5t127.5 74.5t154.5 26.5q39 0 77.5 -7t67.5 -22l-18 -62q-28 17 -62.5 25t-72.5 8q-66 0 -123 -20t-102 -56t-77 -87t-48 -113h411l-11 -56h-411q-8 -63 4 -114t43.5 -87t81 -55.5t115.5 -19.5q37 0 76.5 8.5t74.5 26.5l-7 -63
q-38 -17 -79.5 -23.5t-78.5 -6.5q-83 0 -145 26t-100 73.5t-50 114.5t4 148z" />
    <glyph glyph-name="afii10054" unicode="&#x405;" horiz-adv-x="536" 
d="M512 621q-33 18 -69 25.5t-79 7.5q-82 0 -131.5 -31t-59.5 -82q-10 -49 18.5 -84t106.5 -63q53 -19 90 -40t58.5 -46.5t28 -57.5t-1.5 -72q-17 -88 -91 -139t-190 -51q-50 0 -97 12t-80 34l18 67q36 -27 80.5 -41t92.5 -14q88 0 138.5 35t62.5 95q5 28 0.5 50.5t-21.5 42
t-46.5 36t-74.5 31.5q-97 33 -135 80t-24 124q8 39 31 71t58 54.5t81 34.5t100 12q48 0 85 -6.5t69 -20.5z" />
    <glyph glyph-name="afii10055" unicode="&#x406;" horiz-adv-x="238" 
d="M237 700l-136 -700h-64l136 700h64z" />
    <glyph glyph-name="afii10056" unicode="&#x407;" horiz-adv-x="238" 
d="M237 700l-136 -700h-64l136 700h64zM344 896q20 0 26.5 -12t1.5 -41q-6 -29 -17.5 -41t-31.5 -12t-26.5 12t-0.5 41q5 29 16.5 41t31.5 12zM142 896q20 0 26.5 -12t1.5 -41q-6 -29 -17.5 -41t-31.5 -12t-26.5 12t-0.5 41q5 29 16.5 41t31.5 12z" />
    <glyph glyph-name="afii10057" unicode="&#x408;" horiz-adv-x="435" 
d="M375 700h64l-93 -475q-13 -66 -36.5 -111t-55.5 -73t-71.5 -40.5t-84.5 -12.5q-36 0 -71 8t-61 25l18 64q26 -20 58.5 -29.5t65.5 -9.5q66 0 110.5 41t63.5 138z" />
    <glyph glyph-name="afii10058" unicode="&#x409;" horiz-adv-x="941" 
d="M888 202q-9 -46 -32.5 -83.5t-58.5 -63.5t-81.5 -40.5t-100.5 -14.5h-191l125 644h-238l-96 -492q-17 -87 -65.5 -125.5t-125.5 -38.5q-14 0 -30 1.5t-33 5.5l17 59q17 -5 30.5 -6.5t25.5 -1.5q51 0 79 27.5t41 95.5l104 531h366l-58 -297h127q109 0 160.5 -54.5
t34.5 -146.5zM822 202q13 69 -24 107t-122 38h-121l-57 -291h121q85 0 137 38.5t66 107.5z" />
    <glyph glyph-name="afii10059" unicode="&#x40a;" horiz-adv-x="977" 
d="M729 404q54 0 94.5 -14.5t66 -41t34.5 -63.5t0 -83t-32.5 -83.5t-58.5 -63.5t-81.5 -40.5t-100.5 -14.5h-191l67 348h-363l-67 -348h-65l136 700h65l-58 -296h363l58 296h64l-58 -296h127zM655 56q85 0 137 38.5t66 107.5q13 69 -24 107.5t-122 38.5h-121l-57 -292h121z
" />
    <glyph glyph-name="afii10060" unicode="&#x40b;" horiz-adv-x="773" 
d="M310 644h-223l11 56h510l-11 -56h-223l-45 -229q41 23 89.5 35.5t96.5 12.5q108 0 158 -57t27 -175l-44 -231h-60l44 229q18 92 -18 135t-121 43q-48 0 -95 -13t-89 -42l-68 -352h-64z" />
    <glyph glyph-name="afii10061" unicode="&#x40c;" horiz-adv-x="581" 
d="M232 700l-62 -316l384 316h81l-392 -327l300 -373h-85l-293 360l-69 -360h-64l136 700h64zM482 924h73l-1 -8l-167 -154h-56z" />
    <glyph glyph-name="uni040D" unicode="&#x40d;" horiz-adv-x="700" 
d="M568 0h-62l119 616l-516 -616h-77l136 700h63l-120 -616l517 616h76zM486 762h-56l-107 154l1 8h73z" />
    <glyph glyph-name="afii10062" unicode="&#x40e;" horiz-adv-x="579" 
d="M580 700h68l-470 -700h-68l149 223l-156 477h69l132 -407zM386 762q-32 0 -58.5 9.5t-44 29t-24.5 49t-1 69.5h56q-8 -54 14.5 -81t66.5 -27t78 27t45 81h56q-9 -40 -27.5 -69.5t-43.5 -49t-55 -29t-62 -9.5z" />
    <glyph glyph-name="afii10145" unicode="&#x40f;" horiz-adv-x="692" 
d="M506 56l126 644h64l-136 -700h-232l-32 -164h-64l32 164h-232l136 700h64l-126 -644h400z" />
    <glyph glyph-name="afii10017" unicode="&#x410;" horiz-adv-x="640" 
d="M476 191h-338l-111 -191h-70l413 700h72l141 -700h-70zM171 247h294l-73 382z" />
    <glyph glyph-name="afii10018" unicode="&#x411;" horiz-adv-x="569" 
d="M562 700l-11 -56h-330l-40 -206h142q55 0 95 -15.5t65 -44t33 -69t-2 -90.5t-34.5 -90.5t-60.5 -69t-82 -44t-99 -15.5h-206l136 700h394zM448 219q15 75 -19.5 119t-121.5 44h-137l-64 -326h137q87 0 139 44t66 119z" />
    <glyph glyph-name="afii10019" unicode="&#x412;" horiz-adv-x="618" 
d="M168 700h231q53 0 92.5 -13.5t64 -37.5t33.5 -57.5t1 -73.5q-11 -56 -42 -93.5t-81 -56.5q61 -20 85 -64.5t11 -108.5q-17 -92 -92.5 -143.5t-198.5 -51.5h-240zM496 195q15 76 -29.5 108t-146.5 32h-159l-55 -279h169q195 0 221 139zM524 517q11 60 -25.5 93.5
t-117.5 33.5h-160l-49 -253h153q90 0 137.5 28.5t61.5 97.5z" />
    <glyph glyph-name="afii10020" unicode="&#x413;" horiz-adv-x="520" 
d="M168 700h426l-11 -56h-362l-125 -644h-64z" />
    <glyph glyph-name="afii10021" unicode="&#x414;" horiz-adv-x="613" 
d="M521 -100h-63l20 100h-452l-20 -100h-64l30 156h51q113 144 184.5 308t106.5 336h287l-126 -644h76zM411 56l115 588h-159q-35 -146 -100.5 -295t-168.5 -293h313z" />
    <glyph glyph-name="afii10022" unicode="&#x415;" horiz-adv-x="557" 
d="M168 700h424l-11 -56h-360l-50 -254h335l-11 -56h-335l-54 -278h369l-10 -56h-433z" />
    <glyph glyph-name="afii10024" unicode="&#x416;" horiz-adv-x="794" 
d="M515 700l-61 -313l303 313h81l-322 -327l230 -373h-85l-213 357l-69 -357h-64l69 357l-351 -357h-85l374 373l-194 327h81l181 -313l61 313h64z" />
    <glyph glyph-name="afii10025" unicode="&#x417;" horiz-adv-x="532" 
d="M165 395q58 1 110 10.5t91.5 28t65.5 46t33 63.5q10 49 -28 80t-131 31q-43 0 -89.5 -9.5t-89.5 -28.5l5 63q40 15 90.5 24t98.5 9q56 0 98.5 -12t70 -33.5t38.5 -51.5t4 -67q-8 -38 -29 -68t-52 -52.5t-69 -37.5t-78 -23q43 -9 77.5 -25t56.5 -39.5t30.5 -54.5t0.5 -71
q-8 -43 -34 -78t-66 -59.5t-91 -38t-110 -13.5q-46 0 -92.5 7t-85.5 23l17 62q38 -18 82 -26t88 -8q46 0 85 9.5t68.5 27t48 42t24.5 54.5q15 77 -50.5 115.5t-198.5 42.5z" />
    <glyph glyph-name="afii10026" unicode="&#x418;" horiz-adv-x="700" 
d="M568 0h-62l119 616l-516 -616h-77l136 700h63l-120 -616l517 616h76z" />
    <glyph glyph-name="afii10027" unicode="&#x419;" horiz-adv-x="700" 
d="M568 0h-62l119 616l-516 -616h-77l136 700h63l-120 -616l517 616h76zM447 762q-32 0 -58.5 9.5t-44 29t-24.5 49t-1 69.5h56q-8 -54 14.5 -81t66.5 -27t78 27t45 81h56q-9 -40 -27.5 -69.5t-43.5 -49t-55 -29t-62 -9.5z" />
    <glyph glyph-name="afii10028" unicode="&#x41a;" horiz-adv-x="581" 
d="M232 700l-62 -316l384 316h81l-392 -327l300 -373h-85l-293 360l-69 -360h-64l136 700h64z" />
    <glyph glyph-name="afii10029" unicode="&#x41b;" horiz-adv-x="687" 
d="M216 154q-17 -88 -65 -127t-126 -39q-32 0 -64 8l17 58q14 -4 27.5 -6t29.5 -2q50 0 78.5 28t42.5 97l103 529h432l-136 -700h-64l125 644h-304z" />
    <glyph glyph-name="afii10030" unicode="&#x41c;" horiz-adv-x="836" 
d="M385 240l-172 367l-117 -607h-64l136 700h73l185 -398l341 398h73l-136 -700h-64l117 607l-314 -367h-58z" />
    <glyph glyph-name="afii10031" unicode="&#x41d;" horiz-adv-x="693" 
d="M168 700h64l-59 -299h401l59 299h64l-136 -700h-64l67 345h-401l-67 -345h-64z" />
    <glyph glyph-name="afii10032" unicode="&#x41e;" horiz-adv-x="706" 
d="M677 350q-15 -77 -48.5 -143t-82.5 -115t-111.5 -76.5t-134.5 -27.5t-123.5 27.5t-81.5 76.5t-37.5 115t7.5 143t48 143t82 115t111.5 76.5t134.5 27.5t123.5 -27.5t81.5 -76.5t38 -115t-7 -143zM611 350q13 68 7.5 124t-29 96t-63.5 62t-96 22t-104.5 -22t-87.5 -62
t-66.5 -96t-40.5 -124q-14 -68 -8.5 -124t29 -96t63.5 -62t96 -22t104.5 22t87.5 62t66.5 96t41.5 124z" />
    <glyph glyph-name="afii10033" unicode="&#x41f;" horiz-adv-x="693" 
d="M168 700h529l-136 -700h-64l125 644h-400l-125 -644h-65z" />
    <glyph glyph-name="afii10034" unicode="&#x420;" horiz-adv-x="583" 
d="M590 487q-10 -52 -36.5 -92t-66 -67t-90.5 -41t-111 -14h-137l-53 -273h-64l136 700h201q60 0 106 -14t75 -41t39.5 -67t0.5 -91zM524 487q16 81 -28 119t-144 38h-131l-62 -315h131q100 0 159 38t75 120z" />
    <glyph glyph-name="afii10035" unicode="&#x421;" horiz-adv-x="603" 
d="M65 350q15 80 53.5 146.5t94.5 114.5t127.5 74.5t154.5 26.5q39 0 77.5 -7t67.5 -22l-18 -62q-28 17 -62.5 25t-72.5 8q-70 0 -129.5 -22t-105.5 -62t-77 -96t-44 -124q-14 -69 -4.5 -125.5t40.5 -96t82 -61t121 -21.5q37 0 76.5 8.5t74.5 26.5l-7 -63
q-38 -17 -79.5 -23.5t-78.5 -6.5q-83 0 -145 26t-100 73.5t-50 114.5t4 148z" />
    <glyph glyph-name="afii10036" unicode="&#x422;" horiz-adv-x="534" 
d="M310 644h-223l11 56h510l-11 -56h-223l-125 -644h-64z" />
    <glyph glyph-name="afii10037" unicode="&#x423;" horiz-adv-x="579" 
d="M580 700h68l-470 -700h-68l149 223l-156 477h69l132 -407z" />
    <glyph glyph-name="afii10038" unicode="&#x424;" horiz-adv-x="710" 
d="M292 104q-59 3 -106.5 21t-79 49t-44.5 75t-2 101t41 101t74 75t98.5 49t113.5 21l21 104h64l-21 -104q58 -3 106 -21t80 -49t45 -75t2 -101t-41.5 -101t-74.5 -75t-98.5 -49t-113.5 -21l-20 -104h-64zM618 350q9 45 -0.5 79t-33.5 58t-61 37t-83 15l-73 -378
q47 2 88.5 15t74.5 37t56 58t32 79zM126 350q-9 -45 0 -79t33 -58t61 -37t83 -15l73 378q-47 -2 -88.5 -15t-74.5 -37t-55.5 -58t-31.5 -79z" />
    <glyph glyph-name="afii10039" unicode="&#x425;" horiz-adv-x="655" 
d="M384 355l204 -355h-75l-177 306l-294 -306h-75l342 355l-198 345h75l169 -296l286 296h75z" />
    <glyph glyph-name="afii10040" unicode="&#x426;" horiz-adv-x="698" 
d="M506 56l126 644h64l-125 -643h66l-33 -169h-64l22 112h-530l136 700h64l-126 -644h400z" />
    <glyph glyph-name="afii10041" unicode="&#x427;" horiz-adv-x="641" 
d="M295 251q58 0 111.5 16.5t98.5 45.5l76 387h64l-136 -700h-64l49 253q-47 -26 -100 -41t-113 -15q-106 0 -154 62t-26 177l52 264h60l-52 -264q-17 -89 17 -137t117 -48z" />
    <glyph glyph-name="afii10042" unicode="&#x428;" horiz-adv-x="822" 
d="M339 56l126 644h64l-126 -644h233l126 644h64l-136 -700h-658l136 700h64l-126 -644h233z" />
    <glyph glyph-name="afii10043" unicode="&#x429;" horiz-adv-x="828" 
d="M339 56l126 644h64l-126 -644h233l126 644h64l-126 -644h66l-32 -168h-64l22 112h-660l136 700h64l-126 -644h233z" />
    <glyph glyph-name="afii10044" unicode="&#x42a;" horiz-adv-x="657" 
d="M321 700l-51 -261h146q54 0 94.5 -15.5t65 -44.5t33 -69.5t-1.5 -90.5t-34 -90.5t-59.5 -69t-82 -44t-100.5 -15.5h-210l125 644h-159l11 56h223zM541 219q15 75 -20 119.5t-122 44.5h-140l-64 -327h140q87 0 139.5 44t66.5 119z" />
    <glyph glyph-name="afii10045" unicode="&#x42b;" horiz-adv-x="755" 
d="M233 700l-51 -261h146q54 0 94.5 -15.5t65 -44.5t33 -69.5t-1.5 -90.5t-34 -90.5t-59.5 -69t-82 -44t-100.5 -15.5h-211l136 700h65zM453 219q15 75 -20 119.5t-122 44.5h-140l-64 -327h140q87 0 139.5 44t66.5 119zM759 700l-136 -700h-64l136 700h64z" />
    <glyph glyph-name="afii10046" unicode="&#x42c;" horiz-adv-x="569" 
d="M233 700l-51 -261h146q54 0 94.5 -15.5t65 -44.5t33 -69.5t-1.5 -90.5t-34 -90.5t-59.5 -69t-82 -44t-100.5 -15.5h-211l136 700h65zM453 219q15 75 -20 119.5t-122 44.5h-140l-64 -327h140q87 0 139.5 44t66.5 119z" />
    <glyph glyph-name="afii10047" unicode="&#x42d;" horiz-adv-x="603" 
d="M574 350q-16 -81 -54.5 -148t-95 -114.5t-128.5 -73.5t-155 -26q-37 0 -75.5 6.5t-70.5 23.5l17 63q29 -18 64.5 -26.5t72.5 -8.5q66 0 123.5 19.5t102.5 55.5t77 87t49 114h-411l11 56h411q8 62 -4 113t-43 87t-80 56t-115 20q-38 0 -76.5 -8t-72.5 -25l6 62
q35 15 76.5 22t80.5 7q82 0 143.5 -26.5t99 -74.5t50 -114.5t-2.5 -146.5z" />
    <glyph glyph-name="afii10048" unicode="&#x42e;" horiz-adv-x="826" 
d="M232 700l-63 -322h118q17 73 47.5 134.5t71.5 106t92.5 69t111.5 24.5q62 0 105 -27t66 -75t27 -114.5t-11 -145.5t-45 -145.5t-72 -114.5t-95.5 -75t-115.5 -27q-60 0 -101.5 24.5t-65.5 68.5t-30.5 105.5t4.5 135.5h-118l-62 -322h-64l136 700h64zM348 350
q-14 -70 -12.5 -126t18 -95.5t48 -61t78.5 -21.5q46 0 86 21.5t72 61t55.5 95.5t37.5 126q13 70 11.5 126t-18 95.5t-48 61t-77.5 21.5q-47 0 -87 -21.5t-72 -61t-55.5 -95.5t-36.5 -126z" />
    <glyph glyph-name="afii10049" unicode="&#x42f;" horiz-adv-x="600" 
d="M99 500q9 47 34.5 84.5t64.5 63t88.5 39t106.5 13.5h211l-136 -700h-64l58 301h-128q-14 0 -26.5 0.5t-24.5 1.5l-249 -303h-72l261 314q-72 19 -105.5 65t-18.5 121zM165 500q-14 -68 29 -105.5t137 -37.5h142l56 287h-142q-94 0 -151.5 -37.5t-70.5 -106.5z" />
    <glyph glyph-name="afii10065" unicode="&#x430;" horiz-adv-x="570" 
d="M231 -12q-51 0 -91.5 18.5t-66 54t-34.5 85.5t3 113t41 113t68.5 85.5t87 54t98.5 18.5q45 0 82 -16t60 -44l9 48h60l-100 -518h-60l9 47q-33 -27 -77 -43t-89 -16zM250 42q42 0 84 16t74 47l60 308q-20 31 -56 47t-78 16q-39 0 -76.5 -14.5t-68 -42t-53 -68t-32.5 -92.5
t-3.5 -92.5t27 -68t52 -42t70.5 -14.5z" />
    <glyph glyph-name="afii10066" unicode="&#x431;" horiz-adv-x="545" 
d="M324 496q103 0 151 -66t25 -188q-12 -61 -37.5 -108t-61 -79.5t-79 -49.5t-91.5 -17q-61 0 -102 23.5t-62.5 67t-24.5 105.5t12 139q19 97 57.5 168.5t101.5 121t152.5 78t210.5 39.5l-5 -55q-90 -7 -161 -25t-123.5 -48.5t-87.5 -75t-55 -103.5q34 34 84 53.5t96 19.5z
M310 443q-47 0 -97 -23t-90 -65l-7 -31q-15 -75 -13.5 -128.5t18 -87.5t47 -50t74.5 -16q37 0 69 14.5t57 40.5t42.5 63t26.5 82q19 100 -15 150.5t-112 50.5z" />
    <glyph glyph-name="afii10067" unicode="&#x432;" horiz-adv-x="512" 
d="M22 0l100 518h161q103 0 150 -34t34 -99q-8 -42 -38 -70.5t-76 -41.5q52 -12 78.5 -45t16.5 -83q-14 -71 -79.5 -108t-180.5 -37h-166zM405 381q8 42 -24.5 63.5t-113.5 21.5h-95l-33 -171h101q78 0 117.5 24t47.5 62zM386 146q9 45 -26 71t-127 26h-104l-37 -191h99
q177 0 195 94z" />
    <glyph glyph-name="afii10068" unicode="&#x433;" horiz-adv-x="432" 
d="M172 466l-90 -466h-60l100 518h348l-10 -52h-288z" />
    <glyph glyph-name="afii10069" unicode="&#x434;" horiz-adv-x="553" 
d="M461 -100h-60l20 100h-398l-20 -100h-61l30 152h49q81 103 140 219.5t90 246.5h254l-90 -466h76zM355 52l80 414h-139q-29 -109 -82 -213.5t-125 -200.5h266z" />
    <glyph glyph-name="afii10070" unicode="&#x435;" horiz-adv-x="540" 
d="M261 42q45 0 85 10.5t75 33.5l-5 -59q-35 -20 -78.5 -29.5t-89.5 -9.5q-60 0 -104 19.5t-71 55t-35 85.5t4 112q12 64 41 114.5t70 85t91.5 52.5t106.5 18q43 0 78 -10.5t59 -29t35 -45t5 -58.5q-6 -31 -26.5 -59t-58.5 -49t-96.5 -33t-139.5 -12h-105q-11 -91 28 -141.5
t131 -50.5zM201 287q68 0 116 7.5t79 20.5t47 31t21 40q4 21 -4.5 37.5t-25.5 28.5t-42 18t-55 6q-36 0 -71 -12t-65 -35.5t-53 -59t-36 -82.5h89z" />
    <glyph glyph-name="afii10072" unicode="&#x436;" horiz-adv-x="698" 
d="M252 270l-176 248h83l164 -236l46 236h60l-46 -236l256 236h83l-272 -248l191 -270h-81l-182 257l-49 -257h-60l49 257l-280 -257h-81z" />
    <glyph glyph-name="afii10073" unicode="&#x437;" horiz-adv-x="472" 
d="M135 300q112 0 178 23t75 72q8 41 -25 61.5t-113 20.5q-39 0 -79.5 -6t-78.5 -19l5 57q38 11 80.5 16t85.5 5q109 0 155 -35t33 -100q-10 -53 -55 -83t-114 -41q63 -16 98 -50.5t25 -89.5q-7 -37 -29 -64t-56 -44.5t-78.5 -26t-95.5 -8.5q-42 0 -82.5 6t-74.5 19l17 56
q32 -14 70.5 -21t77.5 -7q86 0 133 24.5t56 68.5q10 51 -45 82t-173 31z" />
    <glyph glyph-name="afii10074" unicode="&#x438;" horiz-adv-x="594" 
d="M410 0l83 429l-404 -429h-67l100 518h63l-83 -430l404 430h66l-100 -518h-62z" />
    <glyph glyph-name="afii10075" unicode="&#x439;" horiz-adv-x="594" 
d="M410 0l83 429l-404 -429h-67l100 518h63l-83 -430l404 430h66l-100 -518h-62zM360 588q-32 0 -58.5 9.5t-44 29t-24.5 49t-1 69.5h56q-8 -54 14.5 -81t66.5 -27t78 27t45 81h56q-9 -40 -27.5 -69.5t-43.5 -49t-55 -29t-62 -9.5z" />
    <glyph glyph-name="afii10076" unicode="&#x43a;" horiz-adv-x="497" 
d="M203 270l237 -270h-81l-227 259l-50 -259h-60l100 518h60l-46 -238l302 238h83z" />
    <glyph glyph-name="afii10077" unicode="&#x43b;" horiz-adv-x="580" 
d="M218 193q-11 -55 -26.5 -94t-38 -63.5t-54.5 -36t-75 -11.5q-16 0 -32.5 1.5t-30.5 5.5l16 55q26 -8 56 -8q28 0 47.5 7.5t34 23t23.5 40t16 57.5l67 348h337l-100 -518h-60l90 466h-217z" />
    <glyph glyph-name="afii10078" unicode="&#x43c;" horiz-adv-x="687" 
d="M307 172l-143 251l-82 -423h-60l100 518h60l157 -283l267 283h59l-100 -518h-60l82 423l-241 -251h-39z" />
    <glyph glyph-name="afii10079" unicode="&#x43d;" horiz-adv-x="576" 
d="M453 308l41 210h60l-100 -518h-60l49 256h-312l-49 -256h-60l100 518h60l-41 -210h312z" />
    <glyph glyph-name="afii10080" unicode="&#x43e;" horiz-adv-x="576" 
d="M42 259q11 59 38.5 108.5t67.5 85.5t89 56.5t104 20.5t96 -20.5t66.5 -56.5t33.5 -85.5t-3 -108.5q-12 -59 -39.5 -108.5t-67 -85.5t-88.5 -56.5t-104 -20.5t-96 20.5t-66.5 56.5t-34 85.5t3.5 108.5zM104 259q-10 -50 -4 -90t25 -68t50 -43.5t71 -15.5t76.5 15.5
t66.5 43.5t51.5 68t31.5 90q10 49 4 89.5t-25 68.5t-50 43.5t-71 15.5t-76.5 -15.5t-66.5 -43.5t-51.5 -68.5t-31.5 -89.5z" />
    <glyph glyph-name="afii10081" unicode="&#x43f;" horiz-adv-x="559" 
d="M172 466l-90 -466h-60l100 518h415l-100 -518h-60l90 466h-295z" />
    <glyph glyph-name="afii10082" unicode="&#x440;" horiz-adv-x="570" 
d="M339 530q51 0 91.5 -18.5t66 -54t34.5 -85.5t-3 -113t-41 -113t-68.5 -85.5t-87 -54t-98.5 -18.5q-45 0 -82 16t-60 44l-47 -241h-60l138 711h60l-9 -47q33 27 77 43t89 16zM320 476q-42 0 -84 -16t-74 -47l-60 -308q20 -31 56 -47t78 -16q39 0 76 14.5t68 42t53.5 68
t32.5 92.5t3.5 92.5t-27 68t-52 42t-70.5 14.5z" />
    <glyph glyph-name="afii10083" unicode="&#x441;" horiz-adv-x="499" 
d="M42 259q12 62 42 112t73.5 85.5t97 54.5t112.5 19q39 0 74.5 -7t62.5 -21l-18 -60q-25 18 -58.5 26t-70.5 8q-45 0 -86.5 -14.5t-75 -42.5t-57.5 -68.5t-34 -91.5t-2 -91.5t31 -68t59.5 -42.5t83.5 -15q38 0 76 9t69 29l-6 -60q-32 -16 -70.5 -24t-79.5 -8q-61 0 -108 19
t-76.5 54.5t-40 85.5t1.5 112z" />
    <glyph glyph-name="afii10084" unicode="&#x442;" horiz-adv-x="473" 
d="M246 466h-194l10 52h449l-10 -52h-195l-90 -466h-60z" />
    <glyph glyph-name="afii10085" unicode="&#x443;" horiz-adv-x="526" 
d="M491 518h68l-423 -711h-66l115 193l-118 518h68l96 -443z" />
    <glyph glyph-name="afii10086" unicode="&#x444;" horiz-adv-x="892" 
d="M388 -193h-60l47 242q-31 -27 -73 -44t-87 -17q-48 0 -85.5 18.5t-61 53.5t-31 85.5t4.5 113.5t39.5 113t65 85.5t82 54t92.5 18.5q45 0 80 -17.5t55 -44.5l51 262h60l-51 -262q31 27 73.5 44.5t87.5 17.5q47 0 84.5 -18.5t61.5 -54t31.5 -85.5t-4.5 -113t-39.5 -113.5
t-65 -85.5t-82.5 -53.5t-92 -18.5q-45 0 -80.5 17t-55.5 44zM445 410q-18 31 -51.5 48.5t-75.5 17.5q-36 0 -70 -14.5t-62.5 -42.5t-50 -68t-31.5 -92t-4.5 -92.5t23.5 -68t46.5 -42t64.5 -14.5q42 0 82 17t70 48zM446 107q18 -31 52 -48t76 -17q36 0 70 14.5t62.5 42t50 68
t31.5 92.5t4.5 92t-23.5 68t-46.5 42.5t-64.5 14.5q-42 0 -82.5 -17.5t-70.5 -48.5z" />
    <glyph glyph-name="afii10087" unicode="&#x445;" horiz-adv-x="503" 
d="M243 220l-209 -220h-72l254 267l-142 251h72l116 -204l195 204h72l-241 -251l153 -267h-72z" />
    <glyph glyph-name="afii10088" unicode="&#x446;" horiz-adv-x="572" 
d="M387 52l90 466h60l-90 -466h63l-31 -156h-60l21 104h-418l100 518h60l-90 -466h295z" />
    <glyph glyph-name="afii10089" unicode="&#x447;" horiz-adv-x="533" 
d="M252 228q41 0 80 12.5t73 38.5l46 239h60l-100 -518h-60l42 219q-33 -20 -74.5 -32.5t-83.5 -12.5q-45 0 -78 15t-53 43t-26 67.5t4 88.5l25 130h60l-25 -130q-15 -75 13 -117.5t97 -42.5z" />
    <glyph glyph-name="afii10090" unicode="&#x448;" horiz-adv-x="688" 
d="M516 52l90 466h60l-100 -518h-544l100 518h60l-90 -466h182l90 466h60l-90 -466h182z" />
    <glyph glyph-name="afii10091" unicode="&#x449;" horiz-adv-x="700" 
d="M516 52l90 466h60l-90 -466h62l-31 -156h-60l21 104h-546l100 518h60l-90 -466h182l90 466h60l-90 -466h182z" />
    <glyph glyph-name="afii10092" unicode="&#x44a;" horiz-adv-x="610" 
d="M560 168q-33 -168 -288 -168h-168l90 466h-146l10 52h206l-35 -181h108q256 0 223 -169zM498 168q11 58 -27.5 87.5t-142.5 29.5h-109l-45 -233h109q104 0 154 29.5t61 86.5z" />
    <glyph glyph-name="afii10093" unicode="&#x44b;" horiz-adv-x="708" 
d="M626 518h60l-100 -518h-60zM182 518l-35 -181h108q256 0 223 -169q-33 -168 -288 -168h-168l100 518h60zM416 168q11 58 -27.5 87.5t-142.5 29.5h-109l-45 -233h109q104 0 154 29.5t61 86.5z" />
    <glyph glyph-name="afii10094" unicode="&#x44c;" horiz-adv-x="528" 
d="M182 518l-35 -181h108q256 0 223 -169q-33 -168 -288 -168h-168l100 518h60zM416 168q11 58 -27.5 87.5t-142.5 29.5h-109l-45 -233h109q104 0 154 29.5t61 86.5z" />
    <glyph glyph-name="afii10095" unicode="&#x44d;" horiz-adv-x="499" 
d="M457 259q-12 -62 -42 -112t-73.5 -85.5t-98 -54.5t-115.5 -19q-41 0 -76.5 8t-61.5 24l18 60q23 -20 58 -29t73 -9q44 0 83.5 13t72 37.5t57 60t37.5 80.5h-313l10 52h313q4 45 -6.5 80.5t-34 60t-57 37.5t-75.5 13q-37 0 -74 -8t-69 -26l6 60q33 14 71.5 21t77.5 7
q59 0 105 -19t75.5 -54.5t40 -85.5t-1.5 -112z" />
    <glyph glyph-name="afii10096" unicode="&#x44e;" horiz-adv-x="695" 
d="M122 518h60l-45 -233h77q14 54 40 99t61 77t78 50t90 18q50 0 87 -20t59.5 -55.5t29 -85t-5.5 -109.5t-37.5 -109.5t-61.5 -85.5t-81 -55.5t-95 -19.5q-48 0 -84 17.5t-58.5 49.5t-31 77t-0.5 100h-77l-45 -233h-60zM271 259q-10 -50 -6 -90t19.5 -68.5t41.5 -44
t62 -15.5t68.5 15.5t59 44t46 68.5t29.5 90q10 49 6 89.5t-19.5 69t-42 44t-62.5 15.5t-68 -15.5t-58.5 -44t-46 -69t-29.5 -89.5z" />
    <glyph glyph-name="afii10097" unicode="&#x44f;" horiz-adv-x="529" 
d="M270 209q-15 0 -28 1t-26 3l-180 -213h-74l191 224q-48 17 -67.5 52.5t-9.5 86.5q14 72 74 113.5t154 41.5h203l-100 -518h-60l40 209h-117zM397 261l40 205h-140q-75 0 -112.5 -29t-46.5 -74t17.5 -73.5t101.5 -28.5h140z" />
    <glyph glyph-name="uni0450" unicode="&#x450;" horiz-adv-x="540" 
d="M261 42q45 0 85 10.5t75 33.5l-5 -59q-35 -20 -78.5 -29.5t-89.5 -9.5q-60 0 -104 19.5t-71 55t-35 85.5t4 112q12 64 41 114.5t70 85t91.5 52.5t106.5 18q43 0 78 -10.5t59 -29t35 -45t5 -58.5q-6 -31 -26.5 -59t-58.5 -49t-96.5 -33t-139.5 -12h-105q-11 -91 28 -141.5
t131 -50.5zM201 287q68 0 116 7.5t79 20.5t47 31t21 40q4 21 -4.5 37.5t-25.5 28.5t-42 18t-55 6q-36 0 -71 -12t-65 -35.5t-53 -59t-36 -82.5h89zM406 588h-56l-107 154l1 8h73z" />
    <glyph glyph-name="afii10071" unicode="&#x451;" horiz-adv-x="540" 
d="M261 42q45 0 85 10.5t75 33.5l-5 -59q-35 -20 -78.5 -29.5t-89.5 -9.5q-60 0 -104 19.5t-71 55t-35 85.5t4 112q12 64 41 114.5t70 85t91.5 52.5t106.5 18q43 0 78 -10.5t59 -29t35 -45t5 -58.5q-6 -31 -26.5 -59t-58.5 -49t-96.5 -33t-139.5 -12h-105q-11 -91 28 -141.5
t131 -50.5zM201 287q68 0 116 7.5t79 20.5t47 31t21 40q4 21 -4.5 37.5t-25.5 28.5t-42 18t-55 6q-36 0 -71 -12t-65 -35.5t-53 -59t-36 -82.5h89zM469 722q20 0 26.5 -12t1.5 -41q-6 -29 -17.5 -41t-31.5 -12t-26.5 12t-0.5 41q5 29 16.5 41t31.5 12zM267 722
q20 0 26.5 -12t1.5 -41q-6 -29 -17.5 -41t-31.5 -12t-26.5 12t-0.5 41q5 29 16.5 41t31.5 12z" />
    <glyph glyph-name="afii10099" unicode="&#x452;" horiz-adv-x="577" 
d="M331 476q-45 0 -88.5 -18t-76.5 -49l-79 -409h-60l116 601h-70l10 52h70l15 77h60l-15 -77h206l-10 -52h-206l-26 -133q35 28 81 45t92 17q100 0 145 -59t23 -171l-61 -313q-20 -102 -63 -144.5t-114 -42.5q-19 0 -36.5 2.5t-31.5 7.5l15 55q27 -11 62 -11
q42 0 67.5 28.5t39.5 97.5l61 318q35 178 -126 178z" />
    <glyph glyph-name="afii10100" unicode="&#x453;" horiz-adv-x="432" 
d="M172 466l-90 -466h-60l100 518h348l-10 -52h-288zM388 750h73l-1 -8l-167 -154h-56z" />
    <glyph glyph-name="afii10101" unicode="&#x454;" horiz-adv-x="498" 
d="M102 232q-10 -91 38 -141t135 -50q38 0 76 9t70 28q-2 -14 -3.5 -29t-3.5 -29q-32 -16 -70.5 -24t-78.5 -8q-61 0 -108 19t-76.5 54t-40 85.5t1.5 112.5t42 112t73.5 85.5t97 54.5t112.5 19q38 0 74 -7t62 -22q-4 -14 -8 -29t-8 -29q-26 18 -60 25.5t-71 7.5
q-42 0 -80.5 -13t-70.5 -37.5t-56 -60t-37 -80.5h311l-10 -53h-311z" />
    <glyph glyph-name="afii10102" unicode="&#x455;" horiz-adv-x="457" 
d="M159 -12q-43 0 -85 11t-71 33l17 64q30 -27 70 -40.5t79 -13.5q66 0 106 24.5t49 67.5q7 37 -19 62.5t-96 45.5q-79 21 -111.5 59t-21.5 94q6 32 25 57t46.5 42.5t63 26.5t76.5 9q39 0 74.5 -8t65.5 -22l-18 -61q-28 20 -62 28.5t-72 8.5q-58 0 -93.5 -21.5t-42.5 -57.5
q-7 -35 17 -60.5t90 -44.5q45 -13 74.5 -29.5t45.5 -36t20.5 -42t-0.5 -48.5q-14 -72 -74.5 -110t-152.5 -38z" />
    <glyph glyph-name="afii10103" unicode="&#x456;" horiz-adv-x="230" 
d="M95 0h-60l100 518h60zM206 730q20 0 26.5 -12t1.5 -41t-16.5 -41t-31.5 -12t-26.5 12t-1.5 41t16.5 41t31.5 12z" />
    <glyph glyph-name="afii10104" unicode="&#x457;" horiz-adv-x="230" 
d="M95 0h-60l100 518h60zM306 722q20 0 26.5 -12t1.5 -41q-6 -29 -17.5 -41t-31.5 -12t-26.5 12t-0.5 41q5 29 16.5 41t31.5 12zM104 722q20 0 26.5 -12t1.5 -41q-6 -29 -17.5 -41t-31.5 -12t-26.5 12t-0.5 41q5 29 16.5 41t31.5 12z" />
    <glyph glyph-name="afii10105" unicode="&#x458;" horiz-adv-x="225" 
d="M195 518l-107 -549q-17 -90 -61 -129.5t-116 -39.5q-31 0 -56 9l17 54q18 -10 46 -10q45 0 72 27t38 87l107 551h60zM206 730q20 0 26.5 -12t1.5 -41t-16.5 -41t-31.5 -12t-26.5 12t-1.5 41t16.5 41t31.5 12z" />
    <glyph glyph-name="afii10106" unicode="&#x459;" horiz-adv-x="802" 
d="M214 193q-11 -55 -26.5 -94t-38 -63.5t-54.5 -36t-75 -11.5q-16 0 -32.5 1.5t-30.5 5.5l16 55q26 -8 56 -8q28 0 47.5 7.5t34 23t23.5 40t16 57.5l67 348h301l-38 -195h53q126 0 180 -39t38 -123q-17 -83 -85.5 -122t-194.5 -39h-113l90 466h-181zM429 52h55
q99 0 146.5 27t58.5 82q11 56 -27 83t-136 27h-55z" />
    <glyph glyph-name="afii10107" unicode="&#x45a;" horiz-adv-x="786" 
d="M502 518l-38 -195h52q126 0 180.5 -39t38.5 -123q-17 -83 -86 -122t-195 -39h-115l51 264h-255l-51 -264h-62l100 518h62l-39 -202h255l39 202h63zM412 52h55q99 0 146.5 27t58.5 82q10 55 -27.5 82t-135.5 27h-55z" />
    <glyph glyph-name="afii10108" unicode="&#x45b;" horiz-adv-x="577" 
d="M331 476q-45 0 -88.5 -18t-76.5 -49l-79 -409h-60l116 601h-70l10 52h70l15 77h60l-15 -77h206l-10 -52h-206l-26 -133q35 28 81 45t92 17q100 0 145 -59t23 -171l-58 -300h-60l57 298q35 178 -126 178z" />
    <glyph glyph-name="afii10109" unicode="&#x45c;" horiz-adv-x="497" 
d="M203 270l237 -270h-81l-227 259l-50 -259h-60l100 518h60l-46 -238l302 238h83zM415 750h73l-1 -8l-167 -154h-56z" />
    <glyph glyph-name="uni045D" unicode="&#x45d;" horiz-adv-x="594" 
d="M410 0l83 429l-404 -429h-67l100 518h63l-83 -430l404 430h66l-100 -518h-62zM413 588h-56l-107 154l1 8h73z" />
    <glyph glyph-name="afii10110" unicode="&#x45e;" horiz-adv-x="526" 
d="M491 518h68l-423 -711h-66l115 193l-118 518h68l96 -443zM321 588q-32 0 -58.5 9.5t-44 29t-24.5 49t-1 69.5h56q-8 -54 14.5 -81t66.5 -27t78 27t45 81h56q-9 -40 -27.5 -69.5t-43.5 -49t-55 -29t-62 -9.5z" />
    <glyph glyph-name="afii10193" unicode="&#x45f;" horiz-adv-x="559" 
d="M387 52l90 466h60l-100 -518h-177l-21 -104h-61l21 104h-177l100 518h60l-90 -466h295z" />
    <glyph glyph-name="afii10050" unicode="&#x490;" horiz-adv-x="520" 
d="M168 700h362l23 123h64l-34 -179h-362l-125 -644h-64z" />
    <glyph glyph-name="afii10098" unicode="&#x491;" horiz-adv-x="430" 
d="M172 466l-90 -466h-60l100 518h286l26 132h60l-36 -184h-286z" />
    <glyph glyph-name="Wgrave" unicode="&#x1e80;" horiz-adv-x="986" 
d="M616 700l47 -613l319 613h68l-366 -700h-74l-50 607l-284 -607h-74l-94 700h68l79 -613l287 613h74zM624 762h-56l-107 154l1 8h73z" />
    <glyph glyph-name="wgrave" unicode="&#x1e81;" horiz-adv-x="780" 
d="M470 518l50 -432l225 432h68l-278 -518h-61l-52 422l-216 -422h-61l-78 518h68l57 -432l218 432h60zM487 588h-56l-107 154l1 8h73z" />
    <glyph glyph-name="Wacute" unicode="&#x1e82;" horiz-adv-x="986" 
d="M616 700l47 -613l319 613h68l-366 -700h-74l-50 607l-284 -607h-74l-94 700h68l79 -613l287 613h74zM703 924h73l-1 -8l-167 -154h-56z" />
    <glyph glyph-name="wacute" unicode="&#x1e83;" horiz-adv-x="780" 
d="M470 518l50 -432l225 432h68l-278 -518h-61l-52 422l-216 -422h-61l-78 518h68l57 -432l218 432h60zM571 750h73l-1 -8l-167 -154h-56z" />
    <glyph glyph-name="Wdieresis" unicode="&#x1e84;" horiz-adv-x="986" 
d="M616 700l47 -613l319 613h68l-366 -700h-74l-50 607l-284 -607h-74l-94 700h68l79 -613l287 613h74zM717 896q20 0 26.5 -12t1.5 -41q-6 -29 -17.5 -41t-31.5 -12t-26.5 12t-0.5 41q5 29 16.5 41t31.5 12zM515 896q20 0 26.5 -12t1.5 -41q-6 -29 -17.5 -41t-31.5 -12
t-26.5 12t-0.5 41q5 29 16.5 41t31.5 12z" />
    <glyph glyph-name="wdieresis" unicode="&#x1e85;" horiz-adv-x="780" 
d="M470 518l50 -432l225 432h68l-278 -518h-61l-52 422l-216 -422h-61l-78 518h68l57 -432l218 432h60zM580 722q20 0 26.5 -12t1.5 -41q-6 -29 -17.5 -41t-31.5 -12t-26.5 12t-0.5 41q5 29 16.5 41t31.5 12zM378 722q20 0 26.5 -12t1.5 -41q-6 -29 -17.5 -41t-31.5 -12
t-26.5 12t-0.5 41q5 29 16.5 41t31.5 12z" />
    <glyph glyph-name="Ygrave" unicode="&#x1ef2;" horiz-adv-x="654" 
d="M342 339l304 361h72l-355 -422l-54 -278h-64l54 278l-191 422h72zM481 762h-56l-107 154l1 8h73z" />
    <glyph glyph-name="ygrave" unicode="&#x1ef3;" horiz-adv-x="526" 
d="M491 518h68l-423 -711h-66l115 193l-118 518h68l96 -443zM373 588h-56l-107 154l1 8h73z" />
    <glyph glyph-name="uni2010" unicode="&#x2010;" horiz-adv-x="399" 
d="M71 304l10 56h275l-10 -56h-275z" />
    <glyph glyph-name="figuredash" unicode="&#x2012;" horiz-adv-x="584" 
d="M49 304l10 56h504l-10 -56h-504z" />
    <glyph glyph-name="endash" unicode="&#x2013;" horiz-adv-x="500" 
d="M9 304l10 56h500l-10 -56h-500z" />
    <glyph glyph-name="emdash" unicode="&#x2014;" 
d="M9 304l10 56h1000l-10 -56h-1000z" />
    <glyph glyph-name="afii00208" unicode="&#x2015;" 
d="M109 304l10 56h800l-10 -56h-800z" />
    <glyph glyph-name="uni2016" unicode="&#x2016;" horiz-adv-x="408" 
d="M197 749h55l-171 -879h-55zM346 749h55l-171 -879h-55z" />
    <glyph glyph-name="underscoredbl" unicode="&#x2017;" horiz-adv-x="604" 
d="M-26 -144h500l-9 -46h-500zM-6 -40h500l-9 -46h-500z" />
    <glyph glyph-name="quoteleft" unicode="&#x2018;" horiz-adv-x="292" 
d="M169 599q6 28 13 51t18 43.5t27 38t39 35.5l13 -23q-41 -41 -53 -89q20 -1 27.5 -13.5t1.5 -42.5q-6 -31 -19 -43.5t-35 -12.5t-30 12.5t-2 43.5z" />
    <glyph glyph-name="quoteright" unicode="&#x2019;" horiz-adv-x="292" 
d="M276 711q-6 -28 -13 -51t-18 -43.5t-27 -38t-39 -35.5l-13 23q41 41 53 89q-20 1 -27.5 13.5t-1.5 42.5q6 31 19 43.5t35 12.5t30 -12.5t2 -43.5z" />
    <glyph glyph-name="quotesinglbase" unicode="&#x201a;" horiz-adv-x="292" 
d="M147 44q-6 -28 -13 -51t-18 -43.5t-27 -38t-39 -35.5l-13 23q41 41 53 89q-20 1 -27.5 13.5t-1.5 42.5q6 31 19 43.5t35 12.5t30 -12.5t2 -43.5z" />
    <glyph glyph-name="quotereversed" unicode="&#x201b;" horiz-adv-x="240" 
d="M165 711q6 31 19 43.5t35 12.5t30 -12.5t2 -43.5q-6 -30 -18.5 -42.5t-32.5 -13.5q-3 -24 1 -46t18 -43l-23 -23q-32 35 -37 73.5t6 94.5z" />
    <glyph glyph-name="quotedblleft" unicode="&#x201c;" horiz-adv-x="426" 
d="M169 599q6 28 13 51t18 43.5t27 38t39 35.5l13 -23q-41 -41 -53 -89q20 -1 27.5 -13.5t1.5 -42.5q-6 -31 -19 -43.5t-35 -12.5t-30 12.5t-2 43.5zM303 599q6 28 13 51t18 43.5t27 38t39 35.5l13 -23q-41 -41 -53 -89q20 -1 27.5 -13.5t1.5 -42.5q-6 -31 -19 -43.5
t-35 -12.5t-30 12.5t-2 43.5z" />
    <glyph glyph-name="quotedblright" unicode="&#x201d;" horiz-adv-x="426" 
d="M276 711q-6 -28 -13 -51t-18 -43.5t-27 -38t-39 -35.5l-13 23q41 41 53 89q-20 1 -27.5 13.5t-1.5 42.5q6 31 19 43.5t35 12.5t30 -12.5t2 -43.5zM410 711q-6 -28 -13 -51t-18 -43.5t-27 -38t-39 -35.5l-13 23q41 41 53 89q-20 1 -27.5 13.5t-1.5 42.5q6 31 19 43.5
t35 12.5t30 -12.5t2 -43.5z" />
    <glyph glyph-name="quotedblbase" unicode="&#x201e;" horiz-adv-x="426" 
d="M147 44q-6 -28 -13 -51t-18 -43.5t-27 -38t-39 -35.5l-13 23q41 41 53 89q-20 1 -27.5 13.5t-1.5 42.5q6 31 19 43.5t35 12.5t30 -12.5t2 -43.5zM281 44q-6 -28 -13 -51t-18 -43.5t-27 -38t-39 -35.5l-13 23q41 41 53 89q-20 1 -27.5 13.5t-1.5 42.5q6 31 19 43.5
t35 12.5t30 -12.5t2 -43.5z" />
    <glyph glyph-name="uni201F" unicode="&#x201f;" horiz-adv-x="374" 
d="M165 711q6 31 19 43.5t35 12.5t30 -12.5t2 -43.5q-6 -30 -18.5 -42.5t-32.5 -13.5q-3 -24 1 -46t18 -43l-23 -23q-32 35 -37 73.5t6 94.5zM299 711q6 31 19 43.5t35 12.5t30 -12.5t2 -43.5q-6 -30 -18.5 -42.5t-32.5 -13.5q-3 -24 1 -46t18 -43l-23 -23q-32 35 -37 73.5
t6 94.5z" />
    <glyph glyph-name="dagger" unicode="&#x2020;" horiz-adv-x="584" 
d="M551 513h-179l-125 -644h-62l125 644h-179l11 53h179l35 182h62l-35 -182h179z" />
    <glyph glyph-name="daggerdbl" unicode="&#x2021;" horiz-adv-x="584" 
d="M461 51h-179l-35 -182h-62l35 182h-179l11 53h179l79 409h-179l11 53h179l35 182h62l-35 -182h179l-11 -53h-179l-79 -409h179z" />
    <glyph glyph-name="bullet" unicode="&#x2022;" horiz-adv-x="392" 
d="M117 332q0 45 24.5 70t69.5 25t69.5 -25t24.5 -70t-24.5 -70t-69.5 -25t-69.5 25t-24.5 70z" />
    <glyph glyph-name="onedotenleader" unicode="&#x2024;" horiz-adv-x="292" 
d="M147 44q-6 -31 -19 -43.5t-35 -12.5t-30 12.5t-2 43.5t19 43.5t35 12.5t30 -12.5t2 -43.5z" />
    <glyph glyph-name="twodotenleader" unicode="&#x2025;" horiz-adv-x="525" 
d="M147 44q-6 -31 -19 -43.5t-35 -12.5t-30 12.5t-2 43.5t19 43.5t35 12.5t30 -12.5t2 -43.5zM380 44q-6 -31 -19 -43.5t-35 -12.5t-30 12.5t-2 43.5t19 43.5t35 12.5t30 -12.5t2 -43.5z" />
    <glyph glyph-name="ellipsis" unicode="&#x2026;" horiz-adv-x="758" 
d="M147 44q-6 -31 -19 -43.5t-35 -12.5t-30 12.5t-2 43.5t19 43.5t35 12.5t30 -12.5t2 -43.5zM380 44q-6 -31 -19 -43.5t-35 -12.5t-30 12.5t-2 43.5t19 43.5t35 12.5t30 -12.5t2 -43.5zM613 44q-6 -31 -19 -43.5t-35 -12.5t-30 12.5t-2 43.5t19 43.5t35 12.5t30 -12.5
t2 -43.5z" />
    <glyph glyph-name="perthousand" unicode="&#x2030;" 
d="M615 700h58l-577 -700h-58zM377 528q-8 -40 -24 -73t-39.5 -57t-53.5 -37t-65 -13t-60 13t-39 37t-17.5 57t4.5 73q8 39 24 72t39.5 57t53.5 37t65 13t60 -13t39 -37t17.5 -57t-4.5 -72zM144 528q-11 -60 4 -93t58 -33t71 33t39 93q11 59 -5.5 92t-56.5 33t-69.5 -33
t-40.5 -92zM626 172q-8 -40 -24.5 -73t-39.5 -57t-53 -37t-65 -13t-60 13t-39 37t-17.5 57t4.5 73q7 39 23.5 72t40 57t53.5 37t65 13t60 -13t39 -37t17 -57t-4 -72zM393 172q-11 -60 3.5 -93t57.5 -33t71.5 33t39.5 93q11 59 -5.5 92t-56.5 33t-69.5 -33t-40.5 -92z
M952 172q-8 -40 -24.5 -73t-39.5 -57t-53 -37t-65 -13t-60 13t-39 37t-17.5 57t4.5 73q7 39 23.5 72t40 57t53.5 37t65 13t60 -13t39 -37t17 -57t-4 -72zM719 172q-11 -60 3.5 -93t57.5 -33t71.5 33t39.5 93q11 59 -5.5 92t-56.5 33t-69.5 -33t-40.5 -92z" />
    <glyph glyph-name="minute" unicode="&#x2032;" horiz-adv-x="297" 
d="M233 700h73l-4 -17l-144 -256h-48z" />
    <glyph glyph-name="second" unicode="&#x2033;" horiz-adv-x="449" 
d="M238 700h73l-4 -17l-144 -256h-48zM380 700h73l-4 -17l-144 -256h-48z" />
    <glyph glyph-name="guilsinglleft" unicode="&#x2039;" horiz-adv-x="346" 
d="M85 326l250 196l-12 -62l-191 -148l133 -149l-12 -62l-174 196z" />
    <glyph glyph-name="guilsinglright" unicode="&#x203a;" horiz-adv-x="346" 
d="M281 297l-250 -196l12 62l191 149l-133 148l12 62l174 -196z" />
    <glyph glyph-name="exclamdbl" unicode="&#x203c;" horiz-adv-x="428" 
d="M141 482l43 218h67l-43 -218l-75 -313h-39zM131 44q-6 -31 -19 -43.5t-35 -12.5t-30 12.5t-2 43.5t19 43.5t35 12.5t30 -12.5t2 -43.5zM309 482l43 218h67l-43 -218l-75 -313h-39zM299 44q-6 -31 -19 -43.5t-35 -12.5t-30 12.5t-2 43.5t19 43.5t35 12.5t30 -12.5t2 -43.5
z" />
    <glyph glyph-name="uni203E" unicode="&#x203e;" horiz-adv-x="404" 
d="M140 671h284l-10 -52h-284z" />
    <glyph glyph-name="fraction" unicode="&#x2044;" horiz-adv-x="433" 
d="M-5 -15h-55l533 730h56z" />
    <glyph glyph-name="zero.sups" unicode="&#x2070;" horiz-adv-x="398" 
d="M286 708q41 0 68.5 -17.5t42.5 -49t17.5 -75.5t-7.5 -97q-11 -53 -30 -97t-46.5 -75.5t-62 -49t-75.5 -17.5t-68.5 17.5t-42.5 49t-17.5 75.5t8.5 97q10 53 29.5 97t46.5 75.5t61.5 49t75.5 17.5zM203 279q54 0 92.5 51t55.5 139t-1.5 139t-72.5 51t-92.5 -51t-55.5 -139
t1.5 -139t72.5 -51z" />
    <glyph glyph-name="uni2071" unicode="&#x2071;" horiz-adv-x="398" 
d="M231 563h56l-63 -326h-56zM246 656q5 29 14 39t26 10t21 -10t-1 -39t-14 -39t-26 -10t-21 10t1 39z" />
    <glyph glyph-name="four.sups" unicode="&#x2074;" horiz-adv-x="398" 
d="M46 339l9 46l288 315h55l-61 -313h54l-10 -48h-54l-19 -102h-56l19 102h-225zM116 387h165l44 229z" />
    <glyph glyph-name="five.sups" unicode="&#x2075;" horiz-adv-x="398" 
d="M161 700h254l-10 -49h-200l-26 -132q14 5 29.5 7.5t29.5 2.5q34 0 61.5 -9.5t45 -28.5t24.5 -46.5t0 -63.5t-25.5 -64.5t-45.5 -48t-61 -29.5t-73 -10q-29 0 -55.5 5t-50.5 17l16 55q20 -14 45.5 -20.5t51.5 -6.5q56 0 93.5 27t47.5 76q18 97 -98 97q-25 0 -51.5 -5.5
t-49.5 -16.5z" />
    <glyph glyph-name="six.sups" unicode="&#x2076;" horiz-adv-x="398" 
d="M205 228q-75 0 -110 54.5t-14 164.5q14 71 38 121t55.5 81t69.5 45t81 14q26 0 50.5 -5t41.5 -15l-16 -54q-35 24 -87 24q-61 0 -104 -43t-63 -128q23 23 56.5 36.5t66.5 13.5q69 0 101.5 -42.5t18.5 -113.5q-7 -35 -24 -63t-42 -48t-55.5 -31t-63.5 -11zM332 380
q10 48 -10 77.5t-70 29.5q-66 0 -116 -56q-15 -80 8 -116.5t71 -36.5q45 0 77 30t40 72z" />
    <glyph glyph-name="seven.sups" unicode="&#x2077;" horiz-adv-x="398" 
d="M167 237h-63l255 415h-226l10 48h288l-9 -46z" />
    <glyph glyph-name="eight.sups" unicode="&#x2078;" horiz-adv-x="398" 
d="M177 591q-5 -29 12.5 -49.5t61.5 -39.5q46 17 69 40t28 49q6 28 -13.5 47.5t-58.5 19.5q-42 0 -68 -20.5t-31 -46.5zM322 355q6 31 -13.5 53t-80.5 49q-52 -24 -78 -45t-33 -56q-8 -36 18 -57t70 -21q45 0 77.5 21t39.5 56zM195 228q-70 0 -108.5 34.5t-26.5 94.5
q8 42 41 74.5t82 50.5q-76 38 -62 108q11 54 57 86t108 32q31 0 55.5 -8.5t40.5 -24t22 -37.5t1 -48q-14 -71 -107 -109q51 -23 69 -54.5t10 -66.5q-11 -61 -61 -96.5t-121 -35.5z" />
    <glyph glyph-name="nine.sups" unicode="&#x2079;" horiz-adv-x="398" 
d="M278 708q75 0 110 -54.5t14 -164.5q-14 -71 -38 -121t-55.5 -81t-69.5 -45t-81 -14q-26 0 -50.5 5t-41.5 15l16 54q34 -24 87 -24q61 0 104 43t63 128q-23 -23 -56.5 -36.5t-66.5 -13.5q-69 0 -101.5 42.5t-18.5 113.5q7 34 24 62.5t42 48.5t55.5 31t63.5 11zM151 556
q-10 -48 10 -77.5t70 -29.5q32 0 62 14.5t54 41.5q15 80 -8 116.5t-71 36.5q-23 0 -42.5 -8t-35 -22t-25.5 -32.5t-14 -39.5z" />
    <glyph glyph-name="uni207A" unicode="&#x207a;" horiz-adv-x="398" 
d="M186 447h-138v48h138v136h56v-136h138v-48h-138v-136h-56v136z" />
    <glyph glyph-name="uni207B" unicode="&#x207b;" horiz-adv-x="398" 
d="M48 447v48h332v-48h-332z" />
    <glyph glyph-name="uni207C" unicode="&#x207c;" horiz-adv-x="398" 
d="M48 512v48h332v-48h-332zM48 380v48h332v-48h-332z" />
    <glyph glyph-name="uni207D" unicode="&#x207d;" horiz-adv-x="398" 
d="M179 469q15 80 57.5 153.5t102.5 136.5h50q-60 -65 -101.5 -139t-55.5 -151q-16 -79 -3.5 -153t47.5 -139h-50q-36 63 -49.5 137t2.5 155z" />
    <glyph glyph-name="uni207E" unicode="&#x207e;" horiz-adv-x="398" 
d="M301 469q-16 -81 -58.5 -155t-102.5 -137h-50q60 65 101 139t57 153q14 77 2 151t-47 139h50q36 -63 49.5 -136.5t-1.5 -153.5z" />
    <glyph glyph-name="uni207F" unicode="&#x207f;" horiz-adv-x="398" 
d="M253 530q-29 0 -56 -12t-47 -33l-48 -248h-56l65 335h56l-7 -35q20 18 49 30.5t61 12.5q63 0 93.5 -39.5t15.5 -114.5l-36 -189h-55l33 172q13 65 -5.5 93t-62.5 28z" />
    <glyph glyph-name="zero.sinf" unicode="&#x2080;" horiz-adv-x="398" 
d="M217 345q41 0 68.5 -17.5t42.5 -49t17.5 -75.5t-7.5 -97q-11 -53 -30 -97t-46.5 -75.5t-62 -49t-75.5 -17.5t-68.5 17.5t-42.5 49t-17.5 75.5t8.5 97q10 53 29.5 97t46.5 75.5t61.5 49t75.5 17.5zM134 -84q54 0 92.5 51t55.5 139t-1.5 139t-72.5 51t-92.5 -51t-55.5 -139
t1.5 -139t72.5 -51z" />
    <glyph glyph-name="one.sinf" unicode="&#x2081;" horiz-adv-x="398" 
d="M89 204l-20 44l139 90h48l-91 -465h-56l77 394z" />
    <glyph glyph-name="two.sinf" unicode="&#x2082;" horiz-adv-x="398" 
d="M-22 -127l9 46q51 35 102.5 79t97.5 89q38 37 57.5 68.5t24.5 57.5q8 42 -13 62.5t-65 20.5q-29 0 -60 -8.5t-60 -24.5l7 54q26 13 59 20.5t65 7.5q71 0 104 -34t20 -98q-6 -35 -28 -70t-70 -84q-42 -41 -84.5 -76.5t-77.5 -61.5h207l-10 -48h-285z" />
    <glyph glyph-name="three.sinf" unicode="&#x2083;" horiz-adv-x="398" 
d="M80 140q43 0 75.5 7t54 19t34 27t15.5 31q7 35 -16 53t-68 18q-26 0 -55.5 -6t-58.5 -20l5 51q26 11 58.5 18t63.5 7q69 0 104 -30.5t24 -87.5q-8 -39 -38.5 -68.5t-82.5 -41.5q51 -14 71 -45.5t11 -76.5q-11 -60 -62 -95t-127 -35q-29 0 -59 5.5t-55 16.5l16 55
q24 -15 51.5 -21t55.5 -6q56 0 86.5 23.5t36.5 56.5q4 20 -1.5 37.5t-22.5 30t-48 20t-77 7.5z" />
    <glyph glyph-name="four.sinf" unicode="&#x2084;" horiz-adv-x="398" 
d="M-24 -24l9 46l288 315h55l-61 -313h54l-10 -48h-54l-19 -102h-56l19 102h-225zM46 24h165l44 229z" />
    <glyph glyph-name="five.sinf" unicode="&#x2085;" horiz-adv-x="398" 
d="M91 337h254l-10 -49h-200l-26 -132q14 5 29.5 7.5t29.5 2.5q34 0 61.5 -9.5t45 -28.5t24.5 -46.5t0 -63.5t-25.5 -64.5t-45.5 -48t-61 -29.5t-73 -10q-29 0 -55.5 5t-50.5 17l16 55q20 -14 45.5 -20.5t51.5 -6.5q56 0 93.5 27t47.5 76q18 97 -98 97q-25 0 -51.5 -5.5
t-49.5 -16.5z" />
    <glyph glyph-name="six.sinf" unicode="&#x2086;" horiz-adv-x="398" 
d="M135 -135q-75 0 -110 54.5t-14 164.5q14 71 38 121t55.5 81t69.5 45t81 14q26 0 50.5 -5t41.5 -15l-16 -54q-35 24 -87 24q-61 0 -104 -43t-63 -128q23 23 56.5 36.5t66.5 13.5q69 0 101.5 -42.5t18.5 -113.5q-7 -35 -24 -63t-42 -48t-55.5 -31t-63.5 -11zM262 17
q10 48 -10 77.5t-70 29.5q-66 0 -116 -56q-15 -80 8 -116.5t71 -36.5q45 0 77 30t40 72z" />
    <glyph glyph-name="seven.sinf" unicode="&#x2087;" horiz-adv-x="398" 
d="M97 -126h-63l255 415h-226l10 48h288l-9 -46z" />
    <glyph glyph-name="eight.sinf" unicode="&#x2088;" horiz-adv-x="398" 
d="M107 228q-5 -29 12.5 -49.5t61.5 -39.5q46 17 69 40t28 49q6 28 -13.5 47.5t-58.5 19.5q-42 0 -68 -20.5t-31 -46.5zM252 -8q6 31 -13.5 53t-80.5 49q-52 -24 -78 -45t-33 -56q-8 -36 18 -57t70 -21q45 0 77.5 21t39.5 56zM125 -135q-70 0 -108.5 34.5t-26.5 94.5
q8 42 41 74.5t82 50.5q-76 38 -62 108q11 54 57 86t108 32q31 0 55.5 -8.5t40.5 -24t22 -37.5t1 -48q-14 -71 -107 -109q51 -23 69 -54.5t10 -66.5q-11 -61 -61 -96.5t-121 -35.5z" />
    <glyph glyph-name="nine.sinf" unicode="&#x2089;" horiz-adv-x="398" 
d="M208 345q75 0 110 -54.5t14 -164.5q-14 -71 -38 -121t-55.5 -81t-69.5 -45t-81 -14q-26 0 -50.5 5t-41.5 15l16 54q35 -24 87 -24q61 0 104 43t63 128q-23 -23 -56.5 -36.5t-66.5 -13.5q-69 0 -101.5 42.5t-18.5 113.5q7 34 24 62.5t42 48.5t55.5 31t63.5 11zM81 193
q-10 -48 10 -77.5t70 -29.5q32 0 62 14.5t54 41.5q15 80 -8 116.5t-71 36.5q-23 0 -42.5 -8t-35 -22t-25.5 -32.5t-14 -39.5z" />
    <glyph glyph-name="uni208A" unicode="&#x208a;" horiz-adv-x="398" 
d="M251 84h-138v48h138v136h56v-136h138v-48h-138v-136h-56v136z" />
    <glyph glyph-name="uni208B" unicode="&#x208b;" horiz-adv-x="398" 
d="M113 84v48h332v-48h-332z" />
    <glyph glyph-name="uni208C" unicode="&#x208c;" horiz-adv-x="398" 
d="M113 149v48h332v-48h-332zM113 17v48h332v-48h-332z" />
    <glyph glyph-name="uni208D" unicode="&#x208d;" horiz-adv-x="398" 
d="M109 106q15 80 57.5 153.5t102.5 136.5h50q-60 -65 -101.5 -139t-55.5 -151q-16 -79 -3.5 -153t47.5 -139h-50q-36 63 -49.5 137t2.5 155z" />
    <glyph glyph-name="uni208E" unicode="&#x208e;" horiz-adv-x="398" 
d="M231 106q-16 -81 -58.5 -155t-102.5 -137h-50q60 65 101 139t57 153q14 77 2 151t-47 139h50q36 -63 49.5 -136.5t-1.5 -153.5z" />
    <glyph glyph-name="uni2090" unicode="&#x2090;" horiz-adv-x="398" 
d="M195 227q27 0 51 -8t39 -23l4 24h53l-67 -345h-53l5 24q-20 -15 -47.5 -23t-54.5 -8q-34 0 -61.5 12.5t-45.5 35.5t-24.5 56.5t1.5 75.5t27.5 75t46.5 56t59.5 35.5t66.5 12.5zM48 48q-7 -34 -2.5 -58.5t17 -41t32.5 -24.5t45 -8q29 0 54.5 9.5t43.5 30.5l36 183
q-11 21 -32.5 30.5t-50.5 9.5q-50 0 -90 -32t-53 -99z" />
    <glyph glyph-name="uni2091" unicode="&#x2091;" horiz-adv-x="398" 
d="M53 23q-6 -54 23 -81t80 -27q57 0 106 31l-5 -50q-28 -16 -57 -22.5t-60 -6.5q-41 0 -71 13t-47.5 37t-22.5 57t3 73q17 86 69.5 133t121.5 47q71 0 104 -49t17 -130q-2 -5 -3 -11.5t-3 -13.5h-255zM182 179q-43 0 -75 -29t-46 -79h199q7 48 -15 78t-63 30z" />
    <glyph glyph-name="uni2092" unicode="&#x2092;" horiz-adv-x="398" 
d="M-12 46q7 38 25.5 71t45 57.5t60.5 38.5t74 14t68.5 -14t45.5 -38.5t21.5 -57.5t-2.5 -71t-25 -71t-44.5 -57t-60.5 -38t-74 -14t-68.5 14t-45.5 38t-22 57t2 71zM45 46q-11 -59 13.5 -95.5t73.5 -36.5q24 0 46.5 9.5t40.5 27t31 42t19 53.5q12 60 -12.5 96.5t-73.5 36.5
t-87.5 -36.5t-50.5 -96.5z" />
    <glyph glyph-name="uni2093" unicode="&#x2093;" horiz-adv-x="398" 
d="M124 51l-99 168h65l77 -124l125 124h64l-165 -168l108 -177h-69l-80 132l-133 -132h-67z" />
    <glyph glyph-name="uni2094" unicode="&#x2094;" horiz-adv-x="398" 
d="M165 179q-29 0 -57 -7t-55 -25l5 51q28 16 57.5 22.5t60.5 6.5q41 0 70.5 -13t47 -37t22.5 -57.5t-3 -73.5q-17 -86 -69.5 -133t-121.5 -47q-71 0 -104 49t-17 130q1 3 2.5 11t3.5 13h255q7 53 -20 81.5t-77 28.5zM133 -86q43 0 75 29t46 79h-199q-8 -48 14.5 -78
t63.5 -30z" />
    <glyph glyph-name="uni20A0" unicode="&#x20a0;" horiz-adv-x="765" 
d="M81 459q11 58 39 104.5t67.5 79.5t88.5 51t103 18q32 0 63.5 -5t56.5 -16l-16 -61q-26 13 -55.5 19t-58.5 6q-42 0 -79.5 -13.5t-66.5 -39t-49 -61.5t-29 -82q-18 -92 22.5 -144t125.5 -52q24 0 51 4t53 13l41 210h324l-11 -56h-261l-30 -155h244l-11 -56h-244l-33 -167
h267l-10 -56h-330l42 220q-51 -14 -104 -14q-54 0 -96 18t-69 51t-36.5 79.5t1.5 104.5z" />
    <glyph glyph-name="colonmonetary" unicode="&#x20a1;" horiz-adv-x="603" 
d="M150 49q-60 48 -82.5 124.5t-2.5 176.5q14 75 48 137.5t84.5 110t114.5 76.5t139 36l35 78h40l-35 -76h4q36 0 69 -6l37 82h40l-41 -90q11 -2 21.5 -6t18.5 -9l-18 -62q-10 6 -22.5 11t-25.5 9l-269 -590q16 -2 32 -3.5t33 -1.5q37 0 76.5 8.5t74.5 26.5l-7 -63
q-38 -17 -79.5 -23.5t-78.5 -6.5q-40 0 -77 6l-28 -63h-40l32 72q-31 9 -63 26l-44 -98h-40zM131 350q-15 -76 -2 -136t51 -100l243 535q-58 -9 -106.5 -34.5t-86 -64.5t-63 -89.5t-36.5 -110.5zM208 90q12 -10 28 -17.5t33 -12.5l269 589q-34 7 -74 4z" />
    <glyph glyph-name="uni20A2" unicode="&#x20a2;" horiz-adv-x="615" 
d="M535 435q-51 0 -94.5 -27t-80.5 -79l-54 -278q15 -2 31 -3.5t33 -1.5q37 0 76.5 8.5t74.5 26.5l-7 -63q-38 -17 -79.5 -23.5t-78.5 -6.5q-83 0 -145 26t-100 73.5t-50 114.5t4 148q15 80 53.5 146.5t94.5 114.5t127.5 74.5t154.5 26.5q39 0 77.5 -7t67.5 -22l-18 -62
q-28 17 -62.5 25t-72.5 8q-70 0 -129.5 -22t-105.5 -62t-77 -96t-44 -124q-20 -105 10.5 -178t108.5 -105l79 410h60l-14 -75q31 38 77.5 62.5t98.5 24.5q37 0 60 -9l-18 -57q-23 12 -58 12z" />
    <glyph glyph-name="franc" unicode="&#x20a3;" horiz-adv-x="528" 
d="M479 407h-306l-18 -91h306l-9 -44h-306l-52 -272h-64l52 272h-58l9 44h58l18 91h-58l8 44h58l49 249h424l-11 -56h-360l-38 -193h306z" />
    <glyph glyph-name="lira" unicode="&#x20a4;" horiz-adv-x="537" 
d="M82 419h87l8 43q26 132 90 191t178 59q82 0 137 -35l-17 -61q-26 18 -57 28t-71 10q-42 0 -74 -9t-55.5 -31t-39.5 -59.5t-27 -93.5l-8 -42h222l-9 -44h-222l-17 -91h222l-9 -44h-222l-36 -184h303l-10 -56h-473l10 56h106l36 184h-87l9 44h87l17 91h-87z" />
    <glyph glyph-name="uni20A6" unicode="&#x20a6;" horiz-adv-x="700" 
d="M57 438h60l51 262h79l116 -262h226l51 262h64l-51 -262h60l-9 -44h-60l-17 -90h60l-9 -44h-60l-50 -260h-78l-116 260h-227l-50 -260h-65l50 260h-60l9 44h60l17 90h-60zM156 304h199l-41 90h-141zM422 304h141l17 90h-198zM182 438h113l-79 178zM520 84l34 176h-113z
" />
    <glyph glyph-name="peseta" unicode="&#x20a7;" horiz-adv-x="998" 
d="M116 258l-50 -258h-64l136 700h111q53 0 95.5 -11.5t72 -34.5t44.5 -57t13 -79h68l30 155h63l-30 -155h195q36 12 80 12q34 0 65 -7.5t52 -22.5l-16 -57q-42 31 -107 31q-49 0 -80.5 -18t-38.5 -53q-3 -16 0.5 -29t14 -25.5t29 -25.5t45.5 -29q30 -18 52 -34t36 -34
t19 -40t-1 -50q-14 -69 -64.5 -102.5t-127.5 -33.5h-179q-68 0 -94.5 42.5t-8.5 135.5l56 287h-66q-12 -51 -39.5 -89.5t-67 -64.5t-89.5 -39.5t-107 -13.5h-47zM538 172q-13 -65 0.5 -92.5t51.5 -27.5h178q54 0 81.5 19.5t35.5 58.5q4 22 1 37.5t-12.5 27.5t-25 23
t-36.5 23q-36 21 -61 39.5t-39.5 36.5t-19 38t0.5 45q8 38 37 65h-135zM172 314q201 0 234 165q31 165 -170 165h-45l-64 -330h45z" />
    <glyph glyph-name="uni20A8" unicode="&#x20a8;" horiz-adv-x="976" 
d="M581 500q-14 -72 -66.5 -120.5t-131.5 -66.5l131 -313h-72l-125 303q-12 -1 -25 -1.5t-27 -0.5h-111l-58 -301h-64l136 700h197q57 0 101 -13.5t72.5 -39t40 -63t2.5 -84.5zM516 500q13 69 -29.5 106.5t-136.5 37.5h-129l-56 -287h129q94 0 151 37.5t71 105.5zM683 -12
q-43 0 -85 11t-71 33l17 64q30 -27 70 -40.5t79 -13.5q66 0 106 24.5t49 67.5q7 37 -19 62.5t-96 45.5q-79 21 -111.5 59t-21.5 94q6 32 25 57t46.5 42.5t63 26.5t76.5 9q39 0 74.5 -8t65.5 -22l-18 -61q-28 20 -62 28.5t-72 8.5q-58 0 -93.5 -21.5t-42.5 -57.5
q-7 -35 17 -60.5t90 -44.5q45 -13 74.5 -29.5t45.5 -36t20.5 -42t-0.5 -48.5q-14 -72 -74.5 -110t-152.5 -38z" />
    <glyph glyph-name="uni20A9" unicode="&#x20a9;" horiz-adv-x="986" 
d="M28 291h134l-12 88h-105l9 44h91l-37 277h68l35 -277h201l130 277h74l21 -277h201l144 277h68l-145 -277h91l-9 -44h-106l-46 -88h135l-8 -44h-149l-129 -247h-74l-20 247h-198l-116 -247h-74l-33 247h-149zM412 291h174l-8 88h-125zM228 291h122l41 88h-174zM647 291
h122l46 88h-175zM474 423h101l-15 184zM255 87l75 160h-95zM663 87l84 160h-96z" />
    <glyph glyph-name="afii57636" unicode="&#x20aa;" horiz-adv-x="856" 
d="M168 700h233q57 0 100.5 -18t69.5 -53.5t34 -89t-6 -124.5l-31 -158h-64l30 153q12 63 7.5 107.5t-23.5 72.5t-51 41t-75 13h-171l-125 -644h-64zM724 0h-233q-57 0 -100.5 18t-69.5 53.5t-34 89t6 124.5l30 157h64l-29 -152q-12 -63 -7.5 -107.5t23.5 -72.5t51 -41
t75 -13h170l126 644h64z" />
    <glyph glyph-name="dong" unicode="&#x20ab;" horiz-adv-x="588" 
d="M305 636h210l13 64h64l-13 -64h70l-10 -52h-70l-113 -584h-64l9 47q-34 -28 -77.5 -43.5t-88.5 -15.5q-52 0 -93.5 17.5t-68 51.5t-36 83t2.5 111t40.5 111t68 82.5t88 51.5t100.5 18q45 0 82.5 -15.5t60.5 -44.5l25 130h-210zM254 46q42 0 84.5 16t74.5 47l55 284
q-20 31 -56 47t-78 16q-39 0 -76 -14t-68 -40.5t-53 -64.5t-31 -86t-2 -86t27 -64.5t52 -40.5t71 -14zM415 -147h-355l11 58h355z" />
    <glyph glyph-name="Euro" unicode="&#x20ac;" horiz-adv-x="600" 
d="M31 308h53q2 18 6.5 40t11.5 43h-54l8 44h59q23 63 60.5 114t87 87t110 56t129.5 20q79 0 135 -29l-18 -62q-27 17 -57 25t-68 8q-115 0 -193.5 -59.5t-118.5 -159.5h347l-20 -44h-341q-7 -20 -11.5 -43t-6.5 -40h317l-21 -44h-297q0 -103 56.5 -160.5t171.5 -57.5
q71 0 141 35l-7 -63q-38 -17 -74.5 -23.5t-73.5 -6.5q-70 0 -123 19.5t-88.5 55.5t-53.5 87t-16 114h-59z" />
    <glyph glyph-name="afii61248" unicode="&#x2105;" horiz-adv-x="982" 
d="M45 487q0 51 16.5 93t45.5 71t68.5 45t85.5 16q31 0 62.5 -6.5t55.5 -18.5l-6 -56q-47 30 -111 30q-33 0 -61.5 -12t-50 -34.5t-33.5 -54.5t-12 -73t12 -73.5t33.5 -55t50.5 -34.5t62 -12q65 0 113 30l5 -56q-24 -11 -55.5 -18t-63.5 -7q-46 0 -85.5 16t-69 45.5t-46 71
t-16.5 93.5zM320 -15h-56l393 730h56zM765 -9q-47 0 -84 17t-63.5 47.5t-40.5 71.5t-14 89t14 89t40.5 71.5t63.5 47.5t84 17q46 0 83.5 -17t64 -47.5t40.5 -71.5t14 -89t-14 -89t-40.5 -71.5t-64 -47.5t-83.5 -17zM765 390q-32 0 -58 -12.5t-44.5 -35t-29 -54.5t-10.5 -72
t10.5 -72t29 -54.5t44.5 -35t58 -12.5q31 0 57.5 12.5t45 35t29 54.5t10.5 72t-10.5 72t-29 54.5t-45 35t-57.5 12.5z" />
    <glyph glyph-name="uni2109" unicode="&#x2109;" horiz-adv-x="781" 
d="M348 700h424v-56h-360v-252h335v-56h-335v-336h-64v700zM291 583q0 -28 -10 -51.5t-28 -41t-42.5 -27t-52.5 -9.5t-52.5 9.5t-42.5 27t-28 41t-10 51.5t10 51.5t28 40.5t42.5 27t52.5 10t52.5 -10t42.5 -27t28 -40.5t10 -51.5zM239 583q0 35 -23.5 58t-57.5 23t-57.5 -23
t-23.5 -58t23.5 -58t57.5 -23t57.5 23t23.5 58z" />
    <glyph glyph-name="afii61289" unicode="&#x2113;" horiz-adv-x="471" 
d="M57 87q42 7 84 26q-15 33 -25.5 69.5t-17 73t-9 72t-2.5 65.5q0 76 15 135.5t41 100.5t62 62t77 21q70 0 106.5 -61t36.5 -166q0 -62 -10 -113t-28 -93t-43.5 -76.5t-56.5 -63.5q-14 -14 -29.5 -26t-32.5 -23q17 -21 37.5 -33t47.5 -12q29 0 51.5 19t35.5 63l47 -39
q-18 -51 -51.5 -75.5t-81.5 -24.5q-46 0 -80 20t-59 53q-47 -20 -93 -29zM360 484q0 93 -22.5 131.5t-59.5 38.5q-24 0 -46.5 -16.5t-40.5 -48.5t-28.5 -80.5t-10.5 -112.5q0 -27 2 -59.5t7 -66t13.5 -67t20.5 -61.5q31 20 55 44t43 52.5t33 64.5t22.5 80.5t11.5 100.5z" />
    <glyph glyph-name="afii61352" unicode="&#x2116;" horiz-adv-x="932" 
d="M97 700h79l242 -587v587h64v-700h-80l-241 587v-587h-64v700zM905 0h-376v50h376v-50zM539 322q0 45 12 83t35.5 65t56.5 42t75 15t74.5 -15t55.5 -42t35 -65t12 -83t-12 -83t-35 -65.5t-55.5 -42.5t-74.5 -15t-75 15t-56.5 42.5t-35.5 65.5t-12 83zM601 322
q0 -75 32 -113.5t84 -38.5t84 38.5t32 113.5q0 74 -32 112.5t-84 38.5t-84 -38.5t-32 -112.5z" />
    <glyph glyph-name="uni2117" unicode="&#x2117;" horiz-adv-x="834" 
d="M557 414q0 44 -27 71t-83 27h-92v-196h92q56 0 83 27t27 71zM610 414q0 -67 -43 -105.5t-116 -38.5h-96v-140h-53v427h149q73 0 116 -38.5t43 -104.5zM70 350q0 75 28.5 141t77.5 115t115 77.5t141 28.5t141 -28.5t115 -77.5t77.5 -115t28.5 -141t-28.5 -141t-77.5 -115
t-115 -77.5t-141 -28.5t-141 28.5t-115 77.5t-77.5 115t-28.5 141zM106 350q0 -68 25 -127.5t69 -104t103.5 -70.5t128.5 -26t128.5 26t103.5 70.5t69 104t25 127.5q0 67 -25 127t-69 104.5t-103.5 70.5t-128.5 26t-128.5 -26t-103.5 -70.5t-69 -104.5t-25 -127z" />
    <glyph glyph-name="uni2120" unicode="&#x2120;" horiz-adv-x="664" 
d="M147 523q-50 17 -70 40.5t-20 57.5q0 38 28.5 60.5t83.5 22.5q20 0 42 -4.5t40 -12.5l-3 -46q-17 11 -36 15.5t-39 4.5q-65 0 -65 -38q0 -17 14.5 -31.5t52.5 -28.5q52 -20 72.5 -43.5t20.5 -59.5q0 -43 -30 -67t-87 -24q-51 0 -91 20l5 49q17 -12 38 -19t41 -7
q38 0 55.5 13t17.5 34q0 20 -15 35t-55 29zM448 483l-94 140v-250h-50v327h53l108 -164l109 164h53v-327h-50v250l-94 -140h-35z" />
    <glyph glyph-name="uni2121" unicode="&#x2121;" horiz-adv-x="901" 
d="M557 41q35 0 64 11t54 35l7 -61q-25 -19 -58 -28.5t-71 -9.5q-54 0 -95 21t-68.5 57.5t-41.5 86.5t-14 108q0 61 14 111t39 85t60.5 54t77.5 19q44 0 79.5 -19.5t61 -54.5t39 -84t13.5 -108v-13.5t-1 -15.5h-321q1 -42 12.5 -77.5t31.5 -61.5t49.5 -40.5t67.5 -14.5z
M656 287q-1 43 -11 78t-27 60t-41 38.5t-52 13.5q-56 0 -91.5 -51.5t-37.5 -138.5h260zM197 644h-170v56h402v-56h-168v-644h-64v644zM784 730h60v-730h-60v730z" />
    <glyph glyph-name="trademark" unicode="&#x2122;" horiz-adv-x="668" 
d="M127 657h-100v43h250v-43h-100v-283h-50v283zM453 483l-94 140v-250h-50v327h53l108 -164l109 164h52v-327h-49v250l-94 -140h-35z" />
    <glyph glyph-name="Omega" unicode="&#x2126;" horiz-adv-x="708" 
d="M369 712q73 0 130.5 -26.5t96.5 -72.5t59.5 -108.5t20.5 -134.5q0 -53 -12.5 -99.5t-34 -86t-51.5 -72t-65 -56.5h151v-56h-240v53q88 55 137 132.5t49 184.5q0 63 -16.5 115.5t-47 90t-75.5 58t-102 20.5t-101.5 -21t-75.5 -58.5t-47.5 -89.5t-16.5 -115
q0 -107 49.5 -184.5t137.5 -132.5v-53h-241v56h152q-35 24 -65 56.5t-52 72t-34.5 86t-12.5 99.5q0 72 20.5 134.5t60 108.5t96.5 72.5t130 26.5z" />
    <glyph glyph-name="estimated" unicode="&#x212e;" horiz-adv-x="746" 
d="M422 28q65 0 124.5 16t110.5 48l10 -45q-54 -29 -117 -44t-130 -15q-96 0 -164 28t-111 76.5t-63 114.5t-20 143q0 74 22 139.5t64 115t104 78.5t142 29q76 0 136 -29t100.5 -78.5t62 -117t21.5 -143.5v-17h-492v-240q68 -59 200 -59zM559 614q-32 27 -75 42t-93 15
t-93.5 -15t-75.5 -42v-247h337v247z" />
    <glyph glyph-name="onethird" unicode="&#x2153;" horiz-adv-x="950" 
d="M159 567l-20 44l139 90h48l-91 -465h-56l77 394zM195 -15h-55l533 730h56zM653 267q43 0 75.5 7t54 19t34 27t15.5 31q7 35 -16 53t-68 18q-26 0 -55.5 -6t-58.5 -20l5 51q26 11 58.5 18t63.5 7q69 0 104 -30.5t24 -87.5q-8 -39 -38.5 -68.5t-82.5 -41.5q51 -14 71 -45.5
t11 -76.5q-11 -60 -62 -95t-127 -35q-29 0 -59 5.5t-55 16.5l16 55q24 -15 51.5 -21t55.5 -6q56 0 86.5 23.5t36.5 56.5q4 20 -1.5 37.5t-22.5 30t-48 20t-77 7.5z" />
    <glyph glyph-name="twothirds" unicode="&#x2154;" horiz-adv-x="950" 
d="M653 267q43 0 75.5 7t54 19t34 27t15.5 31q7 35 -16 53t-68 18q-26 0 -55.5 -6t-58.5 -20l5 51q26 11 58.5 18t63.5 7q69 0 104 -30.5t24 -87.5q-8 -39 -38.5 -68.5t-82.5 -41.5q51 -14 71 -45.5t11 -76.5q-11 -60 -62 -95t-127 -35q-29 0 -59 5.5t-55 16.5l16 55
q24 -15 51.5 -21t55.5 -6q56 0 86.5 23.5t36.5 56.5q4 20 -1.5 37.5t-22.5 30t-48 20t-77 7.5zM242 -15h-55l533 730h56zM48 236l9 46q51 35 102.5 79t97.5 89q38 37 57.5 68.5t24.5 57.5q8 42 -13 62.5t-65 20.5q-29 0 -60 -8.5t-60 -24.5l7 54q26 13 59 20.5t65 7.5
q71 0 104 -34t20 -98q-6 -35 -28 -70t-70 -84q-42 -41 -84.5 -76.5t-77.5 -61.5h207l-10 -48h-285z" />
    <glyph glyph-name="onefifth" unicode="&#x2155;" horiz-adv-x="950" 
d="M202 -15h-55l533 730h56zM658 463h254l-10 -49h-200l-26 -132q14 5 29.5 7.5t29.5 2.5q34 0 61.5 -9.5t45 -28.5t24.5 -46.5t0 -63.5t-25.5 -64.5t-45.5 -48t-61 -29.5t-73 -10q-29 0 -55.5 5t-50.5 17l16 55q20 -14 45.5 -20.5t51.5 -6.5q56 0 93.5 27t47.5 76
q18 97 -98 97q-25 0 -51.5 -5.5t-49.5 -16.5zM159 567l-20 44l139 90h48l-91 -465h-56l77 394z" />
    <glyph glyph-name="twofifths" unicode="&#x2156;" horiz-adv-x="950" 
d="M237 -15h-55l533 730h56zM658 463h254l-10 -49h-200l-26 -132q14 5 29.5 7.5t29.5 2.5q34 0 61.5 -9.5t45 -28.5t24.5 -46.5t0 -63.5t-25.5 -64.5t-45.5 -48t-61 -29.5t-73 -10q-29 0 -55.5 5t-50.5 17l16 55q20 -14 45.5 -20.5t51.5 -6.5q56 0 93.5 27t47.5 76
q18 97 -98 97q-25 0 -51.5 -5.5t-49.5 -16.5zM48 236l9 46q51 35 102.5 79t97.5 89q38 37 57.5 68.5t24.5 57.5q8 42 -13 62.5t-65 20.5q-29 0 -60 -8.5t-60 -24.5l7 54q26 13 59 20.5t65 7.5q71 0 104 -34t20 -98q-6 -35 -28 -70t-70 -84q-42 -41 -84.5 -76.5t-77.5 -61.5
h207l-10 -48h-285z" />
    <glyph glyph-name="threefifths" unicode="&#x2157;" horiz-adv-x="950" 
d="M233 -15h-55l533 730h56zM658 463h254l-10 -49h-200l-26 -132q14 5 29.5 7.5t29.5 2.5q34 0 61.5 -9.5t45 -28.5t24.5 -46.5t0 -63.5t-25.5 -64.5t-45.5 -48t-61 -29.5t-73 -10q-29 0 -55.5 5t-50.5 17l16 55q20 -14 45.5 -20.5t51.5 -6.5q56 0 93.5 27t47.5 76
q18 97 -98 97q-25 0 -51.5 -5.5t-49.5 -16.5zM150 503q43 0 75.5 7t54 19t34 27t15.5 31q7 35 -16 53t-68 18q-26 0 -55.5 -6t-58.5 -20l5 51q26 11 58.5 18t63.5 7q69 0 104 -30.5t24 -87.5q-8 -39 -38.5 -68.5t-82.5 -41.5q51 -14 71 -45.5t11 -76.5q-11 -60 -62 -95
t-127 -35q-29 0 -59 5.5t-55 16.5l16 55q24 -15 51.5 -21t55.5 -6q56 0 86.5 23.5t36.5 56.5q4 20 -1.5 37.5t-22.5 30t-48 20t-77 7.5z" />
    <glyph glyph-name="fourfifths" unicode="&#x2158;" horiz-adv-x="950" 
d="M237 -15h-55l533 730h56zM658 463h254l-10 -49h-200l-26 -132q14 5 29.5 7.5t29.5 2.5q34 0 61.5 -9.5t45 -28.5t24.5 -46.5t0 -63.5t-25.5 -64.5t-45.5 -48t-61 -29.5t-73 -10q-29 0 -55.5 5t-50.5 17l16 55q20 -14 45.5 -20.5t51.5 -6.5q56 0 93.5 27t47.5 76
q18 97 -98 97q-25 0 -51.5 -5.5t-49.5 -16.5zM46 339l9 46l288 315h55l-61 -313h54l-10 -48h-54l-19 -102h-56l19 102h-225zM116 387h165l44 229z" />
    <glyph glyph-name="onesixth" unicode="&#x2159;" horiz-adv-x="950" 
d="M198 -15h-55l533 730h56zM689 -8q-75 0 -110 54.5t-14 164.5q14 71 38 121t55.5 81t69.5 45t81 14q26 0 50.5 -5t41.5 -15l-16 -54q-35 24 -87 24q-61 0 -104 -43t-63 -128q23 23 56.5 36.5t66.5 13.5q69 0 101.5 -42.5t18.5 -113.5q-7 -35 -24 -63t-42 -48t-55.5 -31
t-63.5 -11zM816 144q10 48 -10 77.5t-70 29.5q-66 0 -116 -56q-15 -80 8 -116.5t71 -36.5q45 0 77 30t40 72zM159 567l-20 44l139 90h48l-91 -465h-56l77 394z" />
    <glyph glyph-name="fivesixths" unicode="&#x215a;" horiz-adv-x="950" 
d="M237 -15h-55l533 730h56zM161 700h254l-10 -49h-200l-26 -132q14 5 29.5 7.5t29.5 2.5q34 0 61.5 -9.5t45 -28.5t24.5 -46.5t0 -63.5t-25.5 -64.5t-45.5 -48t-61 -29.5t-73 -10q-29 0 -55.5 5t-50.5 17l16 55q20 -14 45.5 -20.5t51.5 -6.5q56 0 93.5 27t47.5 76
q18 97 -98 97q-25 0 -51.5 -5.5t-49.5 -16.5zM689 -8q-75 0 -110 54.5t-14 164.5q14 71 38 121t55.5 81t69.5 45t81 14q26 0 50.5 -5t41.5 -15l-16 -54q-35 24 -87 24q-61 0 -104 -43t-63 -128q23 23 56.5 36.5t66.5 13.5q69 0 101.5 -42.5t18.5 -113.5q-7 -35 -24 -63
t-42 -48t-55.5 -31t-63.5 -11zM816 144q10 48 -10 77.5t-70 29.5q-66 0 -116 -56q-15 -80 8 -116.5t71 -36.5q45 0 77 30t40 72z" />
    <glyph glyph-name="oneeighth" unicode="&#x215b;" horiz-adv-x="950" 
d="M210 -15h-55l533 730h56zM668 355q-5 -29 12.5 -49.5t61.5 -39.5q46 17 69 40t28 49q6 28 -13.5 47.5t-58.5 19.5q-42 0 -68 -20.5t-31 -46.5zM813 119q6 31 -13.5 53t-80.5 49q-52 -24 -78 -45t-33 -56q-8 -36 18 -57t70 -21q45 0 77.5 21t39.5 56zM686 -8
q-70 0 -108.5 34.5t-26.5 94.5q8 42 41 74.5t82 50.5q-76 38 -62 108q11 54 57 86t108 32q31 0 55.5 -8.5t40.5 -24t22 -37.5t1 -48q-14 -71 -107 -109q51 -23 69 -54.5t10 -66.5q-11 -61 -61 -96.5t-121 -35.5zM159 567l-20 44l139 90h48l-91 -465h-56l77 394z" />
    <glyph glyph-name="threeeighths" unicode="&#x215c;" horiz-adv-x="950" 
d="M232 -15h-55l533 730h56zM668 355q-5 -29 12.5 -49.5t61.5 -39.5q46 17 69 40t28 49q6 28 -13.5 47.5t-58.5 19.5q-42 0 -68 -20.5t-31 -46.5zM813 119q6 31 -13.5 53t-80.5 49q-52 -24 -78 -45t-33 -56q-8 -36 18 -57t70 -21q45 0 77.5 21t39.5 56zM686 -8
q-70 0 -108.5 34.5t-26.5 94.5q8 42 41 74.5t82 50.5q-76 38 -62 108q11 54 57 86t108 32q31 0 55.5 -8.5t40.5 -24t22 -37.5t1 -48q-14 -71 -107 -109q51 -23 69 -54.5t10 -66.5q-11 -61 -61 -96.5t-121 -35.5zM150 503q43 0 75.5 7t54 19t34 27t15.5 31q7 35 -16 53
t-68 18q-26 0 -55.5 -6t-58.5 -20l5 51q26 11 58.5 18t63.5 7q69 0 104 -30.5t24 -87.5q-8 -39 -38.5 -68.5t-82.5 -41.5q51 -14 71 -45.5t11 -76.5q-11 -60 -62 -95t-127 -35q-29 0 -59 5.5t-55 16.5l16 55q24 -15 51.5 -21t55.5 -6q56 0 86.5 23.5t36.5 56.5
q4 20 -1.5 37.5t-22.5 30t-48 20t-77 7.5z" />
    <glyph glyph-name="fiveeighths" unicode="&#x215d;" horiz-adv-x="950" 
d="M233 -15h-55l533 730h56zM668 355q-5 -29 12.5 -49.5t61.5 -39.5q46 17 69 40t28 49q6 28 -13.5 47.5t-58.5 19.5q-42 0 -68 -20.5t-31 -46.5zM813 119q6 31 -13.5 53t-80.5 49q-52 -24 -78 -45t-33 -56q-8 -36 18 -57t70 -21q45 0 77.5 21t39.5 56zM686 -8
q-70 0 -108.5 34.5t-26.5 94.5q8 42 41 74.5t82 50.5q-76 38 -62 108q11 54 57 86t108 32q31 0 55.5 -8.5t40.5 -24t22 -37.5t1 -48q-14 -71 -107 -109q51 -23 69 -54.5t10 -66.5q-11 -61 -61 -96.5t-121 -35.5zM161 700h254l-10 -49h-200l-26 -132q14 5 29.5 7.5t29.5 2.5
q34 0 61.5 -9.5t45 -28.5t24.5 -46.5t0 -63.5t-25.5 -64.5t-45.5 -48t-61 -29.5t-73 -10q-29 0 -55.5 5t-50.5 17l16 55q20 -14 45.5 -20.5t51.5 -6.5q56 0 93.5 27t47.5 76q18 97 -98 97q-25 0 -51.5 -5.5t-49.5 -16.5z" />
    <glyph glyph-name="seveneighths" unicode="&#x215e;" horiz-adv-x="950" 
d="M184 -15h-55l533 730h56zM668 355q-5 -29 12.5 -49.5t61.5 -39.5q46 17 69 40t28 49q6 28 -13.5 47.5t-58.5 19.5q-42 0 -68 -20.5t-31 -46.5zM813 119q6 31 -13.5 53t-80.5 49q-52 -24 -78 -45t-33 -56q-8 -36 18 -57t70 -21q45 0 77.5 21t39.5 56zM686 -8
q-70 0 -108.5 34.5t-26.5 94.5q8 42 41 74.5t82 50.5q-76 38 -62 108q11 54 57 86t108 32q31 0 55.5 -8.5t40.5 -24t22 -37.5t1 -48q-14 -71 -107 -109q51 -23 69 -54.5t10 -66.5q-11 -61 -61 -96.5t-121 -35.5zM167 237h-63l255 415h-226l10 48h288l-9 -46z" />
    <glyph glyph-name="uni215F" unicode="&#x215f;" horiz-adv-x="950" 
d="M191 -15h-55l533 730h56zM159 567l-20 44l139 90h48l-91 -465h-56l77 394z" />
    <glyph glyph-name="arrowleft" unicode="&#x2190;" horiz-adv-x="864" 
d="M841 307h-605l51 -169l-234 194l234 190l-51 -165h605v-50z" />
    <glyph glyph-name="arrowup" unicode="&#x2191;" horiz-adv-x="864" 
d="M420 -38v605l-165 -51l190 234l194 -234l-169 51v-605h-50z" />
    <glyph glyph-name="arrowright" unicode="&#x2192;" horiz-adv-x="864" 
d="M53 357h605l-51 165l234 -190l-234 -194l51 169h-605v50z" />
    <glyph glyph-name="arrowdown" unicode="&#x2193;" horiz-adv-x="864" 
d="M470 750v-605l169 51l-194 -234l-190 234l165 -51v605h50z" />
    <glyph glyph-name="arrowboth" unicode="&#x2194;" horiz-adv-x="864" 
d="M287 137l-234 195l234 190l-51 -166h422l-51 166l234 -190l-234 -195l51 170h-422z" />
    <glyph glyph-name="arrowupdn" unicode="&#x2195;" horiz-adv-x="864" 
d="M639 196l-194 -234l-190 234l165 -51v422l-165 -51l190 234l194 -234l-169 51v-422z" />
    <glyph glyph-name="arrowupdnbse" unicode="&#x21a8;" horiz-adv-x="864" 
d="M639 196l-188 -227h182v-57h-376v57h182l-184 227l165 -51v422l-165 -51l190 234l194 -234l-169 51v-422z" />
    <glyph glyph-name="partialdiff" unicode="&#x2202;" horiz-adv-x="575" 
d="M484 443q0 109 -43.5 159t-119.5 50q-35 0 -66.5 -8t-57.5 -22l-6 59q26 14 61.5 21t73.5 7q107 0 164.5 -70.5t57.5 -201.5q0 -100 -23 -182.5t-64 -142t-99 -92t-127 -32.5q-83 0 -130.5 47.5t-47.5 145.5q0 61 22 115.5t60 95.5t88 65.5t107 24.5q48 0 86 -17.5
t64 -40.5v19zM333 424q-42 0 -80 -19t-67 -52t-46.5 -77t-17.5 -95q0 -70 27.5 -103t86.5 -33q49 0 92 25t75.5 68.5t52.5 103t23 128.5q-26 24 -62 39t-84 15z" />
    <glyph glyph-name="Delta" unicode="&#x2206;" horiz-adv-x="642" 
d="M22 0l280 700h68l280 -700h-628zM557 56l-221 564l-221 -564h442z" />
    <glyph glyph-name="product" unicode="&#x220f;" horiz-adv-x="688" 
d="M97 740h524v-851h-64v795h-396v-795h-64v851z" />
    <glyph glyph-name="summation" unicode="&#x2211;" horiz-adv-x="614" 
d="M273 331l-216 368v59h540v-56h-470l211 -356v-30l-212 -371h471v-56h-540v60z" />
    <glyph glyph-name="minus" unicode="&#x2212;" horiz-adv-x="612" 
d="M77 304v56h488v-56h-488z" />
    <glyph glyph-name="uni2215" unicode="&#x2215;" horiz-adv-x="461" 
d="M97 -15h-66l363 730h66z" />
    <glyph glyph-name="uni2219" unicode="&#x2219;" horiz-adv-x="292" 
d="M204 331q0 -31 -10.5 -43.5t-32.5 -12.5t-32.5 12.5t-10.5 43.5t10.5 43.5t32.5 12.5t32.5 -12.5t10.5 -43.5z" />
    <glyph glyph-name="radical" unicode="&#x221a;" horiz-adv-x="708" 
d="M231 377l124 -319l171 712h55l-182 -770h-77l-129 329h-76v48h114z" />
    <glyph glyph-name="infinity" unicode="&#x221e;" horiz-adv-x="765" 
d="M577 473q30 0 56 -10t44.5 -28.5t29.5 -45t11 -58.5q0 -33 -11 -59t-29.5 -45t-44.5 -29t-56 -10q-23 0 -44.5 5t-43 17t-44.5 32.5t-48 50.5q-25 -30 -47.5 -50.5t-44 -32.5t-42.5 -17t-44 -5q-30 0 -56 10t-45 29t-30 45t-11 59q0 32 11 58.5t30 45t45 28.5t56 10
q23 0 44 -5t42.5 -17.5t44 -32.5t47.5 -50q25 30 48 50t44.5 32.5t43 17.5t44.5 5zM573 238q38 0 62.5 25.5t24.5 67.5t-24.5 67.5t-62.5 25.5q-18 0 -34 -4.5t-33 -15t-36 -28.5t-41 -46q22 -28 40.5 -45.5t36 -28t33.5 -14.5t34 -4zM222 424q-38 0 -62.5 -25.5
t-24.5 -67.5t24.5 -67.5t62.5 -25.5q18 0 34 4t33 14.5t35.5 28.5t40.5 46q-22 28 -40.5 46t-35.5 28.5t-33 14.5t-34 4z" />
    <glyph glyph-name="orthogonal" unicode="&#x221f;" horiz-adv-x="633" 
d="M626 0h-509v575h64v-523h445v-52z" />
    <glyph glyph-name="intersection" unicode="&#x2229;" horiz-adv-x="764" 
d="M397 564q-50 0 -89.5 -17t-68 -53t-43.5 -92.5t-15 -135.5v-266h-64v268q0 76 16 140t49.5 110.5t86.5 72.5t128 26t128 -26t86.5 -72.5t49.5 -110.5t16 -140v-268h-64v266q0 79 -15 135.5t-43.5 92.5t-68.5 53t-89 17z" />
    </font>
</defs>
</svg>
