<?xml version="1.0" standalone="no"?>
<!DOCTYPE svg PUBLIC "-//W3C//DTD SVG 1.1//EN" "http://www.w3.org/Graphics/SVG/1.1/DTD/svg11.dtd" >
<svg xmlns="http://www.w3.org/2000/svg" xmlns:xlink="http://www.w3.org/1999/xlink" version="1.1">
<metadata>
Created by FontForge 20170731 at Tue Oct 22 18:08:34 2013
 By Aleksey,,,
Copyright (c) 2012 S-Core. All rights reserved.
</metadata>
<defs>
<font id="CoreSansN-15Thin" horiz-adv-x="1000" >
  <font-face 
    font-family="Core Sans N"
    font-weight="100"
    font-stretch="normal"
    units-per-em="1000"
    panose-1="2 11 4 3 3 3 2 2 2 4"
    ascent="800"
    descent="-200"
    x-height="518"
    cap-height="700"
    bbox="-405 -310 1000 999"
    underline-thickness="24"
    underline-position="-231"
    unicode-range="U+000D-FB04"
  />
<missing-glyph horiz-adv-x="300" 
 />
    <glyph glyph-name="f_f" unicode="ff" horiz-adv-x="601" 
d="M145 518h263v29q0 51 9 86t26.5 56.5t42.5 31t58 9.5q30 0 59 -8l-3 -18q-13 5 -28 6.5t-31 1.5q-27 0 -48 -8t-35.5 -27.5t-22 -51t-7.5 -78.5v-29h163v-18h-163v-500h-20v500h-263v-500h-20v500h-120v18h120v29q0 51 10 86t29.5 56.5t49 31t67.5 9.5q20 0 41 -2.5
t38 -7.5l-3 -18q-17 5 -38 7.5t-41 2.5q-33 0 -57.5 -8t-41.5 -27.5t-25.5 -51t-8.5 -78.5v-29z" />
    <glyph glyph-name="f_f_i" unicode="ffi" horiz-adv-x="791" 
d="M145 518h263v29q0 51 9 86t26.5 56.5t42.5 31t58 9.5q30 0 59 -8l-3 -18q-13 5 -28 6.5t-31 1.5q-27 0 -48 -8t-35.5 -27.5t-22 -51t-7.5 -78.5v-29h163v-18h-163v-500h-20v500h-263v-500h-20v500h-120v18h120v29q0 51 10 86t29.5 56.5t49 31t67.5 9.5q20 0 41 -2.5
t38 -7.5l-3 -18q-17 5 -38 7.5t-41 2.5q-33 0 -57.5 -8t-41.5 -27.5t-25.5 -51t-8.5 -78.5v-29zM686 518h20v-518h-20v518zM681 688q0 27 3 34.5t12 7.5t12 -7.5t3 -34.5t-3 -34.5t-12 -7.5t-12 7.5t-3 34.5z" />
    <glyph glyph-name="f_f_l" unicode="ffl" horiz-adv-x="791" 
d="M145 518h263v29q0 51 9 86t26.5 56.5t42.5 31t58 9.5q30 0 59 -8l-3 -18q-13 5 -28 6.5t-31 1.5q-27 0 -48 -8t-35.5 -27.5t-22 -51t-7.5 -78.5v-29h163v-18h-163v-500h-20v500h-263v-500h-20v500h-120v18h120v29q0 51 10 86t29.5 56.5t49 31t67.5 9.5q20 0 41 -2.5
t38 -7.5l-3 -18q-17 5 -38 7.5t-41 2.5q-33 0 -57.5 -8t-41.5 -27.5t-25.5 -51t-8.5 -78.5v-29zM686 730h20v-730h-20v730z" />
    <glyph glyph-name="f_i" unicode="fi" horiz-adv-x="508" 
d="M145 518h163v-18h-163v-500h-20v500h-120v18h120v29q0 51 9 86t26.5 56.5t42.5 31t58 9.5q30 0 59 -8l-3 -18q-13 5 -28 6.5t-31 1.5q-27 0 -48 -8t-35.5 -27.5t-22 -51t-7.5 -78.5v-29zM403 518h20v-518h-20v518zM398 688q0 27 3 34.5t12 7.5t12 -7.5t3 -34.5t-3 -34.5
t-12 -7.5t-12 7.5t-3 34.5z" />
    <glyph glyph-name="f_l" unicode="fl" horiz-adv-x="508" 
d="M145 518h163v-18h-163v-500h-20v500h-120v18h120v29q0 51 9 86t26.5 56.5t42.5 31t58 9.5q30 0 59 -8l-3 -18q-13 5 -28 6.5t-31 1.5q-27 0 -48 -8t-35.5 -27.5t-22 -51t-7.5 -78.5v-29zM403 730h20v-730h-20v730z" />
    <glyph glyph-name=".notdef" horiz-adv-x="300" 
 />
    <glyph glyph-name=".null" horiz-adv-x="0" 
 />
    <glyph glyph-name="nonmarkingreturn" unicode="&#xd;" horiz-adv-x="237" 
 />
    <glyph glyph-name="NULL" horiz-adv-x="0" 
 />
    <glyph glyph-name="NULL" horiz-adv-x="0" 
 />
    <glyph glyph-name="space" unicode=" " horiz-adv-x="300" 
 />
    <glyph glyph-name="exclam" unicode="!" horiz-adv-x="220" 
d="M100 700h20v-531h-20v531zM95 30q0 27 3 34.5t12 7.5t12 -7.5t3 -34.5t-3 -34.5t-12 -7.5t-12 7.5t-3 34.5z" />
    <glyph glyph-name="quotedbl" unicode="&#x22;" horiz-adv-x="390" 
d="M110 700h20v-272h-20v272zM260 700h20v-272h-20v272z" />
    <glyph glyph-name="numbersign" unicode="#" horiz-adv-x="679" 
d="M519 700h22l-37 -210h130v-18h-133l-43 -248h131v-18h-134l-36 -206h-22l36 206h-245l-36 -206h-22l36 206h-121v18h124l43 248h-123v18h126l37 210h22l-37 -210h245zM191 224h245l43 248h-245z" />
    <glyph glyph-name="dollar" unicode="$" horiz-adv-x="524" 
d="M254 800h20v-88h9q40 0 76 -5.5t66 -16.5l-2 -20q-31 13 -65.5 18.5t-74.5 5.5h-9v-323q52 -18 89 -38.5t60.5 -44.5t34.5 -53.5t11 -66.5q0 -75 -50.5 -123t-144.5 -56v-87h-20v86h-13q-45 0 -92 11.5t-83 31.5l2 20q38 -22 83 -33.5t90 -11.5h13v351q-101 32 -147.5 77
t-46.5 116q0 34 14 62t39.5 49t61 34t79.5 16v89zM449 169q0 61 -40.5 103.5t-134.5 77.5v-343q86 8 130.5 52t44.5 110zM80 550q0 -58 39.5 -99.5t134.5 -72.5v315q-81 -7 -127.5 -46t-46.5 -97z" />
    <glyph glyph-name="percent" unicode="%" horiz-adv-x="862" 
d="M90 528q0 39 10 72t28.5 56.5t45 37t59.5 13.5t59.5 -13.5t45 -37t28.5 -56.5t10 -72t-10 -72t-28.5 -56.5t-45 -37t-59.5 -13.5t-59.5 13.5t-45 37t-28.5 56.5t-10 72zM110 528q0 -35 8.5 -64.5t24.5 -51t38.5 -33.5t51.5 -12q28 0 51 12t39 33.5t24.5 51t8.5 64.5
q0 72 -32.5 116.5t-90.5 44.5q-29 0 -51.5 -12t-38.5 -33.5t-24.5 -51t-8.5 -64.5zM666 700h25l-499 -700h-25zM486 171q0 39 10 72t28.5 56.5t45 37t59.5 13.5t59.5 -13.5t45 -37t28.5 -56.5t10 -72t-10 -72t-28.5 -56.5t-45 -37t-59.5 -13.5t-59.5 13.5t-45 37t-28.5 56.5
t-10 72zM506 171q0 -35 8.5 -64.5t24.5 -51t38.5 -33.5t51.5 -12q28 0 51 12t39 33.5t24.5 51t8.5 64.5q0 72 -32.5 116.5t-90.5 44.5q-29 0 -51.5 -12t-38.5 -33.5t-24.5 -51t-8.5 -64.5z" />
    <glyph glyph-name="ampersand" unicode="&#x26;" horiz-adv-x="611" 
d="M631 0h-25l-117 115q-39 -64 -99.5 -96.5t-136.5 -32.5q-41 0 -77.5 11t-64.5 32.5t-44.5 54t-16.5 76.5q0 37 9.5 68t30 57.5t53 49.5t78.5 43q-33 31 -55 57.5t-35 49.5t-18.5 44t-5.5 41q0 33 12 59.5t33 44.5t49.5 28t61.5 10t62 -10.5t50.5 -30t34 -47.5t12.5 -62
q0 -58 -39 -103.5t-129 -85.5l231 -229q22 42 34 95t14 119h19q-2 -69 -15.5 -125.5t-38.5 -101.5zM70 160q0 -38 15 -67.5t40.5 -49t58.5 -29.5t69 -10q73 0 129.5 31.5t93.5 92.5l-241 237q-93 -41 -129 -90.5t-36 -114.5zM402 562q0 58 -38 95t-102 37q-60 0 -97.5 -33.5
t-37.5 -90.5q0 -18 4.5 -36t17 -39t34.5 -47.5t57 -61.5q47 21 78.5 41.5t50 42t26 44.5t7.5 48z" />
    <glyph glyph-name="quotesingle" unicode="'" horiz-adv-x="230" 
d="M105 700h20v-272h-20v272z" />
    <glyph glyph-name="parenleft" unicode="(" horiz-adv-x="319" 
d="M259 -130q-67 97 -108 208.5t-41 231.5t41 231.5t108 208.5h20q-67 -97 -108 -208.5t-41 -231.5t41 -231.5t108 -208.5h-20z" />
    <glyph glyph-name="parenright" unicode=")" horiz-adv-x="319" 
d="M40 -130q67 97 108 208.5t41 231.5t-41 231.5t-108 208.5h20q67 -97 108 -208.5t41 -231.5t-41 -231.5t-108 -208.5h-20z" />
    <glyph glyph-name="asterisk" unicode="*" horiz-adv-x="508" 
d="M438 237l-10 -17l-164 94v-189h-20v189l-164 -94l-10 17l164 95l-164 95l10 17l164 -95v190h20v-190l164 95l10 -17l-165 -95z" />
    <glyph glyph-name="plus" unicode="+" horiz-adv-x="618" 
d="M299 323h-229v18h229v228h20v-228h229v-18h-229v-228h-20v228z" />
    <glyph glyph-name="comma" unicode="," horiz-adv-x="280" 
d="M155 13q0 -34 -12.5 -63t-32.5 -52l-14 19q29 41 29 92v21q0 27 3 34.5t12 7.5t12 -7.5t3 -34.5v-17z" />
    <glyph glyph-name="hyphen" unicode="-" horiz-adv-x="406" 
d="M70 323v18h266v-18h-266z" />
    <glyph glyph-name="period" unicode="." horiz-adv-x="280" 
d="M125 30q0 27 3 34.5t12 7.5t12 -7.5t3 -34.5t-3 -34.5t-12 -7.5t-12 7.5t-3 34.5z" />
    <glyph glyph-name="slash" unicode="/" horiz-adv-x="453" 
d="M22 -110h-22l431 858h22z" />
    <glyph glyph-name="zero" unicode="0" horiz-adv-x="560" 
d="M47 350q0 81 15.5 148t45 114.5t73 73.5t99.5 26t99.5 -26t73 -73.5t45 -114.5t15.5 -148t-15.5 -148t-45 -114.5t-73 -73.5t-99.5 -26t-99.5 26t-73 73.5t-45 114.5t-15.5 148zM67 350q0 -78 13.5 -141.5t40.5 -108.5t66.5 -69.5t92.5 -24.5q52 0 92 24.5t67 69.5
t40.5 108.5t13.5 141.5t-13.5 141.5t-40.5 108.5t-67 69.5t-92 24.5q-53 0 -92.5 -24.5t-66.5 -69.5t-40.5 -108.5t-13.5 -141.5z" />
    <glyph glyph-name="one" unicode="1" horiz-adv-x="560" 
d="M138 555l-11 16l194 129h20v-700h-20v677z" />
    <glyph glyph-name="two" unicode="2" horiz-adv-x="560" 
d="M70 0v18q64 57 132 127t126 140q61 73 85.5 131.5t24.5 113.5q0 42 -14 72.5t-39 51t-60 30.5t-78 10q-36 0 -74 -8t-69 -23l-3 19q32 15 72 22.5t75 7.5q46 0 85 -11.5t66.5 -34t43 -56.5t15.5 -80q0 -63 -27.5 -124t-87.5 -133t-122.5 -137.5t-122.5 -117.5h366v-18
h-394z" />
    <glyph glyph-name="three" unicode="3" horiz-adv-x="560" 
d="M176 377q57 2 105 13.5t83.5 34t55 55.5t19.5 78q0 27 -10.5 51.5t-33 43.5t-58.5 30t-88 11q-39 0 -79.5 -8t-75.5 -25l-3 19q34 15 75 23.5t83 8.5q106 0 158 -42.5t52 -111.5q0 -86 -58.5 -131.5t-155.5 -58.5q115 -16 170 -63t55 -135q0 -39 -14.5 -72.5t-44.5 -57.5
t-74.5 -38t-104.5 -14q-38 0 -79.5 6.5t-76.5 19.5l2 19q35 -14 76.5 -20.5t77.5 -6.5q56 0 97 13t68 35.5t40 52t13 62.5q0 86 -63.5 134t-210.5 56v18z" />
    <glyph glyph-name="four" unicode="4" horiz-adv-x="560" 
d="M40 175v18l363 507h20v-507h96v-18h-96v-175h-20v175h-363zM63 193h340v475z" />
    <glyph glyph-name="five" unicode="5" horiz-adv-x="560" 
d="M115 700h346v-18h-326v-297q29 11 65 17t65 6q100 0 160 -51t60 -154q0 -48 -16 -87.5t-47 -68t-76.5 -44t-104.5 -15.5q-38 0 -77.5 7t-74.5 22l3 21q35 -17 72.5 -24.5t75.5 -7.5q54 0 96 14.5t70.5 40.5t43.5 62t15 80q0 91 -51.5 139t-148.5 48q-38 0 -77 -7.5
t-73 -20.5v338z" />
    <glyph glyph-name="six" unicode="6" horiz-adv-x="560" 
d="M288 435q51 0 92.5 -16t70.5 -45.5t44.5 -71t15.5 -92.5q0 -50 -17.5 -91t-47 -70t-68.5 -45t-81 -16q-48 0 -90.5 20t-75 61t-51 104.5t-18.5 150.5q0 102 20 175.5t56.5 121t87 69.5t111.5 22q29 0 62 -6t59 -17l-2 -19q-29 13 -60 18.5t-63 5.5q-54 0 -100 -21
t-79.5 -66t-52.5 -115t-19 -168v-9q17 25 39.5 47t49.5 38.5t56.5 25.5t60.5 9zM296 6q40 0 76 16t62 43.5t41.5 64.5t15.5 80q0 45 -13.5 83t-39.5 65.5t-63.5 43t-86.5 15.5q-62 0 -116 -36t-89 -94q4 -75 23.5 -128t48.5 -87t65.5 -50t75.5 -16z" />
    <glyph glyph-name="seven" unicode="7" horiz-adv-x="560" 
d="M195 0h-24l275 682h-373v18h397v-18z" />
    <glyph glyph-name="eight" unicode="8" horiz-adv-x="560" 
d="M280 -12q-47 0 -88.5 12t-72 35t-48 57t-17.5 79q0 73 51.5 122.5t136.5 78.5q-157 55 -157 181q0 33 15.5 61.5t41.5 50.5t61.5 34.5t76.5 12.5q46 0 82.5 -12.5t61.5 -34t38 -50.5t13 -62q0 -67 -42.5 -113t-119.5 -73q60 -23 97.5 -45.5t58.5 -46.5t29 -51t8 -57
q0 -42 -17.5 -75t-48 -56t-72 -35.5t-88.5 -12.5zM74 172q0 -38 15.5 -69t43 -52.5t65 -33t82.5 -11.5t82.5 12t65 33.5t43 51.5t15.5 65q0 27 -8 52.5t-32 49.5t-67 47.5t-112 45.5q-95 -32 -144 -80t-49 -111zM455 553q0 29 -11 54.5t-33 45t-55 30.5t-76 11
q-38 0 -70 -11.5t-55 -30.5t-36.5 -45t-13.5 -54q0 -61 42 -103.5t140 -73.5q86 29 127 73t41 104z" />
    <glyph glyph-name="nine" unicode="9" horiz-adv-x="560" 
d="M272 265q-51 0 -92.5 16t-70.5 45.5t-44.5 71t-15.5 92.5q0 50 17.5 91t47 70t68.5 45t81 16q48 0 90.5 -20t75 -61t51 -104.5t18.5 -150.5q0 -102 -20 -175.5t-56.5 -121t-87 -69.5t-111.5 -22q-29 0 -62 6t-59 17l2 19q29 -13 60 -18.5t63 -5.5q54 0 100 21t79.5 66
t52.5 115t19 168v8q-17 -25 -40 -47t-49.5 -38t-56 -25t-60.5 -9zM264 694q-41 0 -76.5 -16t-61.5 -43.5t-41.5 -64.5t-15.5 -80q0 -45 13.5 -83t39.5 -65.5t63.5 -43t86.5 -15.5q62 0 116 36t89 93q-4 75 -23.5 128t-48.5 87.5t-65.5 50.5t-75.5 16z" />
    <glyph glyph-name="colon" unicode=":" horiz-adv-x="280" 
d="M125 30q0 27 3 34.5t12 7.5t12 -7.5t3 -34.5t-3 -34.5t-12 -7.5t-12 7.5t-3 34.5zM125 488q0 27 3 34.5t12 7.5t12 -7.5t3 -34.5t-3 -34.5t-12 -7.5t-12 7.5t-3 34.5z" />
    <glyph glyph-name="semicolon" unicode=";" horiz-adv-x="280" 
d="M125 488q0 27 3 34.5t12 7.5t12 -7.5t3 -34.5t-3 -34.5t-12 -7.5t-12 7.5t-3 34.5zM155 13q0 -34 -12.5 -63t-32.5 -52l-14 19q29 41 29 92v21q0 27 3 34.5t12 7.5t12 -7.5t3 -34.5v-17z" />
    <glyph glyph-name="less" unicode="&#x3c;" horiz-adv-x="618" 
d="M70 344l478 235v-21l-459 -226l459 -226v-21l-478 235v24z" />
    <glyph glyph-name="equal" unicode="=" horiz-adv-x="618" 
d="M70 433v18h478v-18h-478zM70 213v18h478v-18h-478z" />
    <glyph glyph-name="greater" unicode="&#x3e;" horiz-adv-x="618" 
d="M548 320l-478 -235v21l459 226l-459 226v21l478 -235v-24z" />
    <glyph glyph-name="question" unicode="?" horiz-adv-x="510" 
d="M197 30q0 27 3.5 34.5t11.5 7.5t11.5 -7.5t3.5 -34.5t-3.5 -34.5t-11.5 -7.5t-11.5 7.5t-3.5 34.5zM202 194q0 36 4.5 63t15 48.5t27.5 40t43 36.5q64 45 90.5 86t26.5 89q0 66 -49 101.5t-146 35.5q-38 0 -77.5 -9.5t-74.5 -26.5l-2 21q32 15 74 24t80 9q99 0 157.5 -40
t58.5 -117q0 -51 -29.5 -96t-95.5 -93q-27 -19 -43 -37.5t-25 -39.5t-12 -45t-3 -54v-21h-20v25z" />
    <glyph glyph-name="at" unicode="@" horiz-adv-x="958" 
d="M645 191q2 -66 23 -92.5t56 -26.5q36 0 65.5 17.5t50 48t32 71t11.5 87.5q0 85 -30 157.5t-84 126t-129 84t-165 30.5q-84 0 -157 -32t-127 -88t-85 -133t-31 -167t32 -167t87.5 -132.5t131 -87t162.5 -31.5q66 0 128 16t116 51l8 -16q-54 -35 -118.5 -52t-133.5 -17
q-93 0 -172.5 33t-137 91.5t-90.5 138.5t-33 173q0 94 32.5 174.5t89 139t133 91.5t165.5 33q93 0 171.5 -31.5t135.5 -87t89 -131.5t32 -166q0 -52 -13 -96.5t-36.5 -77.5t-56 -51.5t-71.5 -18.5q-45 0 -69.5 32t-28.5 87q-40 -55 -95 -84t-122 -29q-34 0 -64.5 12
t-53.5 34t-36.5 52t-13.5 66q0 61 22.5 111.5t59 86t82.5 55t93 19.5q60 0 107 -24t76 -69zM411 76q63 0 116 28t98 91l36 205q-26 36 -66.5 56t-94.5 20q-45 0 -88 -19t-76 -52t-53 -78.5t-20 -98.5q0 -33 11 -61t30.5 -48.5t46.5 -31.5t60 -11z" />
    <glyph glyph-name="A" unicode="A" horiz-adv-x="618" 
d="M320 700l283 -700h-22l-85 211h-374l-85 -211h-22l283 700h22zM129 229h360l-180 449z" />
    <glyph glyph-name="B" unicode="B" horiz-adv-x="606" 
d="M90 700h211q49 0 89.5 -12.5t69 -35.5t44 -55.5t15.5 -71.5q0 -64 -29 -103.5t-78 -56.5q144 -39 144 -178q0 -88 -63 -137.5t-187 -49.5h-216v700zM351 373q37 0 65 12t46.5 33t27.5 48.5t9 58.5q0 72 -52 114.5t-146 42.5h-191v-309h241zM536 187q0 37 -12 68t-35.5 53
t-58 34.5t-79.5 12.5h-241v-337h196q112 0 171 44t59 125z" />
    <glyph glyph-name="C" unicode="C" horiz-adv-x="591" 
d="M55 350q0 82 24.5 148.5t69.5 114t109 73.5t144 26q36 0 71.5 -5t64.5 -17l-2 -19q-31 13 -66 18t-67 5q-76 0 -136.5 -24.5t-102.5 -69.5t-64.5 -108.5t-22.5 -141.5t22.5 -141.5t64.5 -108.5t102.5 -69.5t136.5 -24.5q35 0 69.5 5t66.5 19l2 -19q-30 -12 -67 -17.5
t-72 -5.5q-80 0 -144.5 26t-109.5 73.5t-69 114t-24 148.5z" />
    <glyph glyph-name="D" unicode="D" horiz-adv-x="660" 
d="M216 18q82 0 149.5 20t116.5 61t76 103.5t27 147.5t-27 147.5t-76 103.5t-116.5 61t-149.5 20h-106v-664h106zM90 700h126q89 0 161 -22.5t122.5 -66.5t78 -109.5t27.5 -151.5t-27.5 -151.5t-78 -109.5t-122.5 -66.5t-161 -22.5h-126v700z" />
    <glyph glyph-name="E" unicode="E" horiz-adv-x="549" 
d="M90 700h405v-18h-385v-311h360v-18h-360v-335h394v-18h-414v700z" />
    <glyph glyph-name="F" unicode="F" horiz-adv-x="525" 
d="M90 700h405v-18h-385v-308h358v-18h-358v-356h-20v700z" />
    <glyph glyph-name="G" unicode="G" horiz-adv-x="686" 
d="M424 6q99 0 162 28v302h-228v18h248v-333q-42 -17 -85 -25t-97 -8q-83 0 -151 27.5t-116.5 76t-75 114.5t-26.5 144t26 144t73 114.5t112.5 76t144.5 27.5q54 0 98.5 -8.5t79.5 -23.5l-2 -19q-37 17 -81 25t-95 8q-73 0 -134.5 -26t-106.5 -72t-70 -109t-25 -137
t25.5 -136.5t71.5 -109t110 -72.5t142 -26z" />
    <glyph glyph-name="H" unicode="H" horiz-adv-x="677" 
d="M90 700h20v-317h457v317h20v-700h-20v365h-457v-365h-20v700z" />
    <glyph glyph-name="I" unicode="I" horiz-adv-x="210" 
d="M115 700v-700h-20v700h20z" />
    <glyph glyph-name="J" unicode="J" horiz-adv-x="421" 
d="M311 700h20v-482q0 -66 -14.5 -110.5t-40 -71t-59.5 -37.5t-73 -11q-30 0 -64 8t-60 23l2 20q28 -17 61 -25t60 -8q39 0 70 11.5t53 37t33.5 65.5t11.5 96v484z" />
    <glyph glyph-name="K" unicode="K" horiz-adv-x="560" 
d="M517 700l-380 -326l423 -374h-30l-420 370v-370h-20v700h20v-323l377 323h30z" />
    <glyph glyph-name="L" unicode="L" horiz-adv-x="542" 
d="M90 700h20v-682h412v-18h-432v700z" />
    <glyph glyph-name="M" unicode="M" horiz-adv-x="824" 
d="M734 0h-20v669l-293 -425h-18l-293 425v-669h-20v700h22l300 -435l300 435h22v-700z" />
    <glyph glyph-name="N" unicode="N" horiz-adv-x="688" 
d="M90 700h24l464 -671v671h20v-700h-24l-464 670v-670h-20v700z" />
    <glyph glyph-name="O" unicode="O" horiz-adv-x="696" 
d="M641 350q0 -77 -20 -143.5t-58 -115t-92.5 -76t-122.5 -27.5t-122.5 27.5t-92.5 76t-58 115t-20 143.5t20 143.5t58 115t92.5 76t122.5 27.5t122.5 -27.5t92.5 -76t58 -115t20 -143.5zM75 350q0 -74 18.5 -136.5t54 -109t86 -72.5t114.5 -26t115 26t86 72.5t53.5 109
t18.5 136.5q0 73 -18.5 136t-53.5 109.5t-86 72.5t-115 26t-114.5 -26t-86 -72.5t-54 -109.5t-18.5 -136z" />
    <glyph glyph-name="P" unicode="P" horiz-adv-x="564" 
d="M519 494q0 -100 -70 -153t-191 -53h-148v-288h-20v700h168q121 0 191 -53t70 -153zM499 494q0 94 -65 141t-176 47h-148v-376h148q111 0 176 47t65 141z" />
    <glyph glyph-name="Q" unicode="Q" horiz-adv-x="696" 
d="M641 350q0 -74 -18.5 -138.5t-54 -112.5t-86 -77t-113.5 -33q1 -28 12 -52t31 -39q19 -14 48 -21t59 -7q52 0 85 13l3 -19q-36 -12 -87 -12q-33 0 -64.5 6.5t-57.5 25.5q-23 17 -35.5 45t-13.5 59h-1q-68 0 -122.5 27.5t-92.5 76t-58 115t-20 143.5t20 143.5t58 115
t92.5 76t122.5 27.5t122.5 -27.5t92.5 -76t58 -115t20 -143.5zM75 350q0 -74 18.5 -136.5t54 -109t86 -72.5t114.5 -26t115 26t86 72.5t53.5 109t18.5 136.5q0 73 -18.5 136t-53.5 109.5t-86 72.5t-115 26t-114.5 -26t-86 -72.5t-54 -109.5t-18.5 -136z" />
    <glyph glyph-name="R" unicode="R" horiz-adv-x="582" 
d="M522 509q0 -71 -42.5 -118.5t-121.5 -64.5l204 -326h-23l-201 323q-16 -2 -32.5 -3.5t-34.5 -1.5h-161v-318h-20v700h181q120 0 185.5 -51.5t65.5 -139.5zM502 509q0 79 -59.5 126t-171.5 47h-161v-346h161q112 0 171.5 47t59.5 126z" />
    <glyph glyph-name="S" unicode="S" horiz-adv-x="524" 
d="M423 670q-31 13 -65.5 18.5t-74.5 5.5q-47 0 -84.5 -10.5t-63.5 -30t-40.5 -46t-14.5 -57.5q0 -58 40.5 -100t136.5 -73q57 -19 97 -39.5t65.5 -45.5t37.5 -55.5t12 -68.5q0 -81 -60 -130.5t-168 -49.5q-45 0 -92 11.5t-83 31.5l2 20q38 -22 83 -33.5t90 -11.5
q103 0 155.5 45.5t52.5 117.5q0 33 -11 60t-35 50t-62 42.5t-93 37.5q-99 32 -143.5 77t-44.5 114q0 37 16.5 67t45.5 51t70 32.5t91 11.5q40 0 76 -5.5t66 -16.5z" />
    <glyph glyph-name="T" unicode="T" horiz-adv-x="512" 
d="M246 682h-236v18h492v-18h-236v-682h-20v682z" />
    <glyph glyph-name="U" unicode="U" horiz-adv-x="696" 
d="M348 -12q-54 0 -101 16.5t-82 50.5t-55 86.5t-20 124.5v434h20v-431q0 -69 18.5 -118.5t50.5 -81.5t75.5 -47.5t93.5 -15.5t93.5 15.5t75.5 47.5t50.5 81.5t18.5 118.5v431h20v-434q0 -72 -20 -124.5t-55 -86.5t-82 -50.5t-101 -16.5z" />
    <glyph glyph-name="V" unicode="V" horiz-adv-x="648" 
d="M313 0l-283 700h22l272 -678l271 678h23l-283 -700h-22z" />
    <glyph glyph-name="W" unicode="W" horiz-adv-x="974" 
d="M500 700l194 -678l228 678h22l-238 -700h-25l-194 678l-194 -678h-25l-238 700h22l228 -678l194 678h26z" />
    <glyph glyph-name="X" unicode="X" horiz-adv-x="640" 
d="M52 0h-27l282 354l-275 346h26l262 -330l262 330h26l-275 -346l282 -354h-27l-268 337z" />
    <glyph glyph-name="Y" unicode="Y" horiz-adv-x="630" 
d="M325 279v-279h-20v279l-275 421h24l261 -401l261 401h24z" />
    <glyph glyph-name="Z" unicode="Z" horiz-adv-x="558" 
d="M484 682h-429v18h453v-18l-444 -664h454v-18h-478v18z" />
    <glyph glyph-name="bracketleft" unicode="[" horiz-adv-x="383" 
d="M130 750h223v-18h-203v-844h203v-18h-223v880z" />
    <glyph glyph-name="backslash" unicode="\" horiz-adv-x="453" 
d="M0 748h22l431 -858h-22z" />
    <glyph glyph-name="bracketright" unicode="]" horiz-adv-x="383" 
d="M253 -130h-223v18h203v844h-203v18h223v-880z" />
    <glyph glyph-name="asciicircum" unicode="^" horiz-adv-x="618" 
d="M309 687l-220 -318h-23l230 331h26l230 -331h-23z" />
    <glyph glyph-name="underscore" unicode="_" horiz-adv-x="480" 
d="M0 -128h480v-18h-480v18z" />
    <glyph glyph-name="grave" unicode="`" horiz-adv-x="386" 
d="M100 730h25l133 -162h-24z" />
    <glyph glyph-name="a" unicode="a" horiz-adv-x="525" 
d="M235 -12q-41 0 -75.5 9.5t-60 29t-40 47.5t-14.5 66q0 75 54.5 117.5t157.5 42.5h173v43q0 94 -46 131.5t-133 37.5q-86 0 -155 -34l-3 19q35 16 75 24.5t82 8.5q46 0 83.5 -9.5t63 -30.5t39.5 -56t14 -86v-348h-20v62q-33 -34 -81 -54t-114 -20zM430 282h-171
q-97 0 -145.5 -39.5t-48.5 -100.5q0 -33 12.5 -58.5t35 -43t53.5 -26t68 -8.5q60 0 108 19t88 61v196z" />
    <glyph glyph-name="b" unicode="b" horiz-adv-x="559" 
d="M489 259q0 61 -17 108t-47 79t-70 49t-85 17q-51 0 -96 -21.5t-74 -58.5v-346q29 -37 74 -58.5t96 -21.5q45 0 85 16.5t70 49t47 79.5t17 108zM509 259q0 -65 -19 -115.5t-51 -85t-76 -52.5t-93 -18q-57 0 -100 21.5t-70 50.5v-60h-20v730h20v-272q27 29 70 50.5
t100 21.5q49 0 93 -18t76 -52.5t51 -85t19 -115.5z" />
    <glyph glyph-name="c" unicode="c" horiz-adv-x="485" 
d="M50 259q0 62 19.5 112t53.5 85.5t79.5 54.5t97.5 19q40 0 74.5 -6.5t65.5 -20.5l-2 -19q-32 15 -66 21.5t-72 6.5q-48 0 -89.5 -17.5t-73 -50t-49.5 -79.5t-18 -106t18 -106t49.5 -79.5t74.5 -50t93 -17.5q38 0 72.5 7.5t65.5 25.5l2 -19q-30 -17 -65.5 -24.5t-74.5 -7.5
q-56 0 -102.5 19t-80.5 54t-53 85.5t-19 112.5z" />
    <glyph glyph-name="d" unicode="d" horiz-adv-x="559" 
d="M70 259q0 -61 17 -108t47 -79.5t70 -49t85 -16.5q51 0 96 21.5t74 58.5v346q-29 37 -74 58.5t-96 21.5q-45 0 -85 -17t-70 -49t-47 -79t-17 -108zM50 259q0 65 19 115.5t51 85t75.5 52.5t93.5 18q57 0 100 -21.5t70 -50.5v272h20v-730h-20v60q-27 -29 -70 -50.5
t-100 -21.5q-50 0 -93.5 18t-75.5 52.5t-51 85t-19 115.5z" />
    <glyph glyph-name="e" unicode="e" horiz-adv-x="530" 
d="M296 6q39 0 75.5 9.5t67.5 31.5l3 -20q-60 -39 -148 -39q-59 0 -104 21t-76.5 57.5t-47.5 86.5t-16 108q0 63 16 112.5t45 84.5t69 53.5t87 18.5t87 -19t69 -53.5t45.5 -82.5t16.5 -105v-18h-415q1 -53 16 -98t43 -78t70 -51.5t97 -18.5zM465 270q0 54 -15 98.5t-41 76.5
t-62.5 49.5t-79.5 17.5t-78.5 -16.5t-61.5 -48t-41 -76.5t-16 -101h395z" />
    <glyph glyph-name="f" unicode="f" horiz-adv-x="318" 
d="M145 518h163v-18h-163v-500h-20v500h-120v18h120v29q0 51 9 86t26.5 56.5t42.5 31t58 9.5q30 0 59 -8l-3 -18q-13 5 -28 6.5t-31 1.5q-27 0 -48 -8t-35.5 -27.5t-22 -51t-7.5 -78.5v-29z" />
    <glyph glyph-name="g" unicode="g" horiz-adv-x="559" 
d="M479 25q0 -120 -49.5 -172.5t-158.5 -52.5q-42 0 -87 10t-79 27l2 24q35 -21 79.5 -31t84.5 -10q100 0 144 47.5t44 157.5v35q-27 -29 -70 -50.5t-100 -21.5q-50 0 -93.5 18t-75.5 52.5t-51 85t-19 115.5t19 115.5t51 85t75.5 52.5t93.5 18q57 0 100 -21.5t70 -50.5v60
h20v-493zM70 259q0 -61 17 -108t47 -79.5t70 -49t85 -16.5q51 0 96 21.5t74 58.5v346q-29 37 -74 58.5t-96 21.5q-45 0 -85 -17t-70 -49t-47 -79t-17 -108z" />
    <glyph glyph-name="h" unicode="h" horiz-adv-x="559" 
d="M277 512q-51 0 -98 -22t-79 -61v-429h-20v730h20v-275q35 35 80 55t97 20q93 0 150 -57.5t57 -167.5v-305h-20v303q0 102 -50 155.5t-137 53.5z" />
    <glyph glyph-name="i" unicode="i" horiz-adv-x="190" 
d="M85 518h20v-518h-20v518zM80 688q0 27 3 34.5t12 7.5t12 -7.5t3 -34.5t-3 -34.5t-12 -7.5t-12 7.5t-3 34.5z" />
    <glyph glyph-name="j" unicode="j" horiz-adv-x="200" 
d="M100 518h20v-565q0 -45 -9.5 -74.5t-27 -47t-41 -24.5t-51.5 -7q-22 0 -41 6l2 19q14 -7 39 -7q54 0 81.5 30t27.5 103v567zM95 688q0 27 3 34.5t12 7.5t12 -7.5t3 -34.5t-3 -34.5t-12 -7.5t-12 7.5t-3 34.5z" />
    <glyph glyph-name="k" unicode="k" horiz-adv-x="489" 
d="M100 730v-433l316 221h32l-320 -225l341 -293h-30l-339 290v-290h-20v730h20z" />
    <glyph glyph-name="l" unicode="l" horiz-adv-x="190" 
d="M85 730h20v-730h-20v730z" />
    <glyph glyph-name="m" unicode="m" horiz-adv-x="855" 
d="M598 530q40 0 73.5 -13.5t57.5 -40.5t37.5 -68.5t13.5 -97.5v-310h-20v307q0 103 -42.5 154t-120.5 51q-51 0 -96.5 -26t-77.5 -68q17 -46 17 -108v-310h-20v307q0 103 -42.5 154t-117.5 51q-48 0 -90.5 -23.5t-69.5 -61.5v-427h-20v518h20v-65q26 32 68 54.5t93 22.5
t90.5 -23t62.5 -71q34 41 81 67.5t103 26.5z" />
    <glyph glyph-name="n" unicode="n" horiz-adv-x="559" 
d="M277 512q-51 0 -98 -22t-79 -61v-429h-20v518h20v-63q35 35 80 55t97 20q93 0 150 -57.5t57 -167.5v-305h-20v303q0 102 -50 155.5t-137 53.5z" />
    <glyph glyph-name="o" unicode="o" horiz-adv-x="566" 
d="M50 259q0 59 17.5 109t49 86t74 56t92.5 20t92.5 -20t74 -56t49 -86t17.5 -109t-17.5 -109t-49 -86t-74 -56t-92.5 -20t-92.5 20t-74 56t-49 86t-17.5 109zM70 259q0 -57 16 -103.5t44.5 -80t67.5 -51.5t85 -18t85 18t67.5 51.5t44.5 80t16 103.5t-16 103.5t-44.5 80
t-67.5 51.5t-85 18t-85 -18t-67.5 -51.5t-44.5 -80t-16 -103.5z" />
    <glyph glyph-name="p" unicode="p" horiz-adv-x="559" 
d="M489 259q0 61 -17 108t-47 79t-70 49t-85 17q-51 0 -96 -21.5t-74 -58.5v-346q29 -37 74 -58.5t96 -21.5q45 0 85 16.5t70 49t47 79.5t17 108zM509 259q0 -65 -19 -115.5t-51 -85t-76 -52.5t-93 -18q-57 0 -100 21.5t-70 50.5v-253h-20v711h20v-60q27 29 70 50.5
t100 21.5q49 0 93 -18t76 -52.5t51 -85t19 -115.5z" />
    <glyph glyph-name="q" unicode="q" horiz-adv-x="559" 
d="M70 259q0 -61 17 -108t47 -79.5t70 -49t85 -16.5q51 0 96 21.5t74 58.5v346q-29 37 -74 58.5t-96 21.5q-45 0 -85 -17t-70 -49t-47 -79t-17 -108zM50 259q0 65 19 115.5t51 85t75.5 52.5t93.5 18q57 0 100 -21.5t70 -50.5v60h20v-711h-20v253q-27 -29 -70 -50.5
t-100 -21.5q-50 0 -93.5 18t-75.5 52.5t-51 85t-19 115.5z" />
    <glyph glyph-name="r" unicode="r" horiz-adv-x="350" 
d="M286 512q-118 0 -186 -125v-387h-20v518h20v-102q27 49 75.5 81.5t108.5 32.5q30 0 56 -8l-4 -19q-21 9 -50 9z" />
    <glyph glyph-name="s" unicode="s" horiz-adv-x="437" 
d="M201 -12q-35 0 -76.5 9t-74.5 27l3 21q35 -20 74.5 -29.5t72.5 -9.5q81 0 124 32.5t43 86.5q0 46 -35 79.5t-121 55.5q-82 20 -120 55.5t-38 89.5q0 29 12.5 52t34.5 39.5t53 25t67 8.5q34 0 70 -7.5t65 -20.5l-3 -20q-31 16 -65.5 23t-66.5 7q-67 0 -107 -29t-40 -78
q0 -45 34 -76t115 -52q47 -12 78.5 -28t51 -35t27.5 -41.5t8 -47.5q0 -34 -14 -59.5t-39 -43t-59 -26t-74 -8.5z" />
    <glyph glyph-name="t" unicode="t" horiz-adv-x="344" 
d="M20 518h104v155h20v-155h175v-18h-175v-344q0 -76 25 -113t89 -37q26 0 52 6l4 -18q-27 -6 -56 -6q-70 0 -102 39t-32 127v346h-104v18z" />
    <glyph glyph-name="u" unicode="u" horiz-adv-x="559" 
d="M282 6q51 0 98 22t79 61v429h20v-518h-20v63q-35 -35 -80 -55t-97 -20q-93 0 -150 57.5t-57 167.5v305h20v-303q0 -102 50 -155.5t137 -53.5z" />
    <glyph glyph-name="v" unicode="v" horiz-adv-x="496" 
d="M471 518l-210 -518h-26l-210 518h22l201 -499l201 499h22z" />
    <glyph glyph-name="w" unicode="w" horiz-adv-x="760" 
d="M394 518l154 -499l164 499h23l-174 -518h-26l-155 499l-155 -499h-26l-174 518h23l164 -499l154 499h28z" />
    <glyph glyph-name="x" unicode="x" horiz-adv-x="488" 
d="M434 518h24l-202 -253l212 -265h-25l-199 250l-199 -250h-25l212 265l-202 253h24l190 -238z" />
    <glyph glyph-name="y" unicode="y" horiz-adv-x="505" 
d="M458 518h22l-288 -711h-22l78 194l-223 517h22l211 -492z" />
    <glyph glyph-name="z" unicode="z" horiz-adv-x="461" 
d="M35 18l356 482h-341v18h366v-18l-357 -482h367v-18h-391v18z" />
    <glyph glyph-name="braceleft" unicode="{" horiz-adv-x="355" 
d="M90 319q35 10 60.5 31.5t25.5 65.5v223q0 57 30.5 84t81.5 27h37v-18h-37q-48 0 -70 -25.5t-22 -65.5v-225q0 -42 -20 -67.5t-57 -38.5q37 -13 57 -38.5t20 -67.5v-225q0 -40 22 -65.5t70 -25.5h37v-18h-37q-51 0 -81.5 27t-30.5 84v223q0 44 -25.5 65.5t-60.5 31.5v18z
" />
    <glyph glyph-name="bar" unicode="|" horiz-adv-x="260" 
d="M120 769h20v-969h-20v969z" />
    <glyph glyph-name="braceright" unicode="}" horiz-adv-x="355" 
d="M265 301q-35 -10 -60.5 -31.5t-25.5 -65.5v-223q0 -57 -30.5 -84t-81.5 -27h-37v18h37q48 0 70 25.5t22 65.5v225q0 42 20 67.5t57 38.5q-37 13 -57 38.5t-20 67.5v225q0 40 -22 65.5t-70 25.5h-37v18h37q51 0 81.5 -27t30.5 -84v-223q0 -44 25.5 -65.5t60.5 -31.5v-18z
" />
    <glyph glyph-name="asciitilde" unicode="~" horiz-adv-x="618" 
d="M300 327q-31 32 -55.5 45t-55.5 13q-45 0 -72 -31.5t-27 -91.5h-20q0 72 35 106.5t86 34.5q35 0 64.5 -15.5t62.5 -50.5q31 -32 55.5 -45.5t55.5 -13.5q45 0 72 31.5t27 91.5h20q0 -72 -35 -106.5t-86 -34.5q-35 0 -64.5 16t-62.5 51z" />
    <glyph glyph-name="uni00A0" unicode="&#xa0;" horiz-adv-x="300" 
 />
    <glyph glyph-name="exclamdown" unicode="&#xa1;" horiz-adv-x="220" 
d="M100 349h20v-531h-20v531zM95 488q0 27 3 34.5t12 7.5t12 -7.5t3 -34.5t-3 -34.5t-12 -7.5t-12 7.5t-3 34.5z" />
    <glyph glyph-name="cent" unicode="&#xa2;" horiz-adv-x="485" 
d="M50 259q0 58 17.5 105.5t48 82.5t72 55.5t89.5 25.5v88h20v-86h6q37 0 73 -6.5t64 -20.5l-2 -19q-29 15 -64.5 21.5t-70.5 6.5h-6v-506h8q37 0 73 8t65 25l2 -19q-28 -17 -65 -24.5t-75 -7.5h-8v-86h-20v88q-49 4 -90.5 25t-72 56t-47.5 82.5t-17 105.5zM70 259
q0 -55 15.5 -99.5t43.5 -76.5t66 -51.5t82 -24.5v504q-44 -5 -81.5 -24t-65.5 -51.5t-44 -77t-16 -99.5z" />
    <glyph glyph-name="sterling" unicode="&#xa3;" horiz-adv-x="565" 
d="M50 356v18h80v138q0 103 50.5 151.5t147.5 48.5q45 0 82.5 -9t68.5 -24l-3 -19q-34 18 -70 26t-78 8q-86 0 -132 -42.5t-46 -140.5v-137h235v-18h-235v-109q0 -75 -16.5 -131t-58.5 -98h450v-18h-475v18q46 43 63 99.5t17 128.5v110h-80z" />
    <glyph glyph-name="currency" unicode="&#xa4;" horiz-adv-x="676" 
d="M104 84l-14 15l87 87q-26 29 -41 66.5t-15 79.5t14.5 79t40.5 66l-86 87l14 15l87 -87q29 26 66.5 41.5t80.5 15.5q42 0 80 -15.5t67 -41.5l87 87l14 -15l-87 -87q26 -29 41.5 -66t15.5 -79q0 -43 -15.5 -80.5t-41.5 -66.5l87 -86l-14 -15l-87 87q-29 -27 -67 -42
t-80 -15q-43 0 -80.5 15.5t-66.5 41.5zM141 332q0 -41 15.5 -77t42 -63t62.5 -42.5t77 -15.5t77 15.5t63 42.5t42.5 63t15.5 77t-15.5 77t-42.5 62.5t-63 42t-77 15.5t-77 -15.5t-62.5 -42t-42 -62.5t-15.5 -77z" />
    <glyph glyph-name="yen" unicode="&#xa5;" horiz-adv-x="560" 
d="M58 296v18h203l-231 386h22l228 -381l228 381h22l-231 -386h205v-18h-214v-91h214v-18h-214v-187h-20v187h-212v18h212v91h-212z" />
    <glyph glyph-name="brokenbar" unicode="&#xa6;" horiz-adv-x="260" 
d="M140 220v-320h-20v320h20zM140 688v-320h-20v320h20z" />
    <glyph glyph-name="section" unicode="&#xa7;" horiz-adv-x="495" 
d="M281 180q38 -12 64 -27.5t41.5 -34t22 -39t6.5 -42.5q0 -34 -13.5 -59.5t-38.5 -43t-59 -26t-74 -8.5q-35 0 -76 9t-74 26l3 21q36 -20 75 -29t71 -9q79 0 122.5 31t43.5 88q0 22 -7 41.5t-24 36t-44.5 30.5t-69.5 25q-37 10 -67.5 23t-52.5 31t-34.5 41t-12.5 52
q0 54 35.5 88t98.5 48q-134 42 -134 134q0 30 13 53.5t35.5 39t52.5 24t65 8.5q38 0 71.5 -7.5t62.5 -20.5l-3 -20q-31 16 -63.5 23t-68.5 7q-67 0 -106 -29.5t-39 -77.5q0 -42 34.5 -73t110.5 -51q75 -20 121 -54.5t46 -92.5q0 -54 -35.5 -88t-98.5 -48zM246 444
q-77 -14 -110 -48t-33 -79q0 -43 35.5 -75.5t113.5 -52.5q77 14 110 48t33 79q0 43 -35.5 75.5t-113.5 52.5z" />
    <glyph glyph-name="dieresis" unicode="&#xa8;" horiz-adv-x="386" 
d="M77 649q0 27 3 34.5t12 7.5t12 -7.5t3 -34.5t-3 -34.5t-12 -7.5t-12 7.5t-3 34.5zM279 649q0 27 3 34.5t12 7.5t12 -7.5t3 -34.5t-3 -34.5t-12 -7.5t-12 7.5t-3 34.5z" />
    <glyph glyph-name="copyright" unicode="&#xa9;" horiz-adv-x="834" 
d="M60 350q0 75 28.5 141t77 115t113.5 77.5t138 28.5t138 -28.5t113.5 -77.5t77 -115t28.5 -141t-28.5 -141t-77 -115t-113.5 -77.5t-138 -28.5t-138 28.5t-113.5 77.5t-77 115t-28.5 141zM80 350q0 -71 27 -133t73 -108.5t107 -73.5t130 -27t130 27t107 73.5t73 108.5
t27 133q0 70 -27 132.5t-73 109t-107 73.5t-130 27t-130.5 -27t-107 -73.5t-72.5 -109t-27 -132.5zM213 348q0 49 16.5 89t45.5 68.5t68 44t84 15.5q32 0 63.5 -5.5t57.5 -17.5l-2 -19q-27 13 -58 18.5t-61 5.5q-45 0 -80.5 -15t-61 -41.5t-39 -63t-13.5 -79.5t13.5 -79.5
t39 -63t61 -41.5t80.5 -15q32 0 62.5 5.5t56.5 18.5l2 -19q-26 -12 -57.5 -17.5t-63.5 -5.5q-45 0 -84 15.5t-68 44t-45.5 68.5t-16.5 89z" />
    <glyph glyph-name="ordfeminine" unicode="&#xaa;" horiz-adv-x="430" 
d="M189 325q-54 0 -91 28.5t-37 85.5q0 60 45.5 89.5t124.5 29.5h98v15q0 61 -25.5 89t-92.5 28q-29 0 -60.5 -6t-55.5 -17l-2 19q24 11 55 16.5t63 5.5q75 0 106.5 -31.5t31.5 -103.5v-240h-20v58q-23 -33 -60.5 -49.5t-79.5 -16.5zM188 343q42 0 80 17.5t61 57.5v122h-99
q-72 0 -110.5 -25t-38.5 -76q0 -48 29.5 -72t77.5 -24z" />
    <glyph glyph-name="guillemotleft" unicode="&#xab;" horiz-adv-x="542" 
d="M92 312l191 -176v-21l-203 189v16l203 189v-21zM281 312l191 -176v-21l-203 189v16l203 189v-21z" />
    <glyph glyph-name="logicalnot" unicode="&#xac;" horiz-adv-x="618" 
d="M65 434h478v-271h-20v253h-458v18z" />
    <glyph glyph-name="uni00AD" unicode="&#xad;" horiz-adv-x="406" 
d="M70 323v18h266v-18h-266z" />
    <glyph glyph-name="registered" unicode="&#xae;" horiz-adv-x="834" 
d="M60 350q0 75 28.5 141t77 115t113.5 77.5t138 28.5t138 -28.5t113.5 -77.5t77 -115t28.5 -141t-28.5 -141t-77 -115t-113.5 -77.5t-138 -28.5t-138 28.5t-113.5 77.5t-77 115t-28.5 141zM80 350q0 -71 27 -133t73 -108.5t107 -73.5t130 -27t130 27t107 73.5t73 108.5
t27 133q0 70 -27 132.5t-73 109t-107 73.5t-130 27t-130.5 -27t-107 -73.5t-72.5 -109t-27 -132.5zM574 437q0 -43 -23 -71.5t-65 -41.5l108 -183h-23l-104 178q-12 -2 -24.5 -3t-26.5 -1h-123v-174h-20v417h143q75 0 116.5 -31.5t41.5 -89.5zM554 437q0 103 -140 103h-121
v-207h121q140 0 140 104z" />
    <glyph glyph-name="macron" unicode="&#xaf;" horiz-adv-x="386" 
d="M57 657h272v-18h-272v18z" />
    <glyph glyph-name="degree" unicode="&#xb0;" horiz-adv-x="386" 
d="M72 591q0 25 9.5 47t26 38.5t38.5 26t47 9.5t47 -9.5t38.5 -26t26 -38.5t9.5 -47t-9.5 -47t-26 -38.5t-38.5 -26t-47 -9.5t-47 9.5t-38.5 26t-26 38.5t-9.5 47zM92 591q0 -22 8 -40.5t21.5 -32.5t32 -22t39.5 -8t39.5 8t32 22t21.5 32.5t8 40.5t-8 40.5t-21.5 32.5
t-32 22t-39.5 8t-39.5 -8t-32 -22t-21.5 -32.5t-8 -40.5z" />
    <glyph glyph-name="plusminus" unicode="&#xb1;" horiz-adv-x="618" 
d="M299 387h-229v18h229v218h20v-218h229v-18h-229v-218h-20v218zM70 66v18h478v-18h-478z" />
    <glyph glyph-name="twosuperior" unicode="&#xb2;" horiz-adv-x="360" 
d="M43 237v20q51 42 99 91.5t90 103.5q30 40 40.5 69.5t10.5 59.5q0 57 -32.5 83t-86.5 26q-61 0 -108 -25l-2 20q48 23 110 23q67 0 103 -33.5t36 -93.5q0 -30 -11 -63t-45 -78q-43 -57 -90 -104t-86 -79h236v-20h-264z" />
    <glyph glyph-name="threesuperior" unicode="&#xb3;" horiz-adv-x="360" 
d="M102 488q49 0 82.5 10t54.5 25.5t30 34.5t9 37q0 48 -34 71.5t-88 23.5q-27 0 -53.5 -5t-48.5 -16l-2 19q21 9 48.5 14.5t54.5 5.5q66 0 104.5 -28t38.5 -85q0 -45 -31 -75.5t-92 -39.5q70 -14 100 -46.5t30 -83.5q0 -54 -40.5 -87.5t-113.5 -33.5q-27 0 -54.5 4
t-52.5 14l2 19q26 -11 52.5 -15t52.5 -4q34 0 59.5 8.5t42 22.5t24.5 33t8 39q0 22 -8 44t-29 38.5t-56.5 27t-89.5 10.5v18z" />
    <glyph glyph-name="acute" unicode="&#xb4;" horiz-adv-x="386" 
d="M152 568h-24l133 162h25z" />
    <glyph glyph-name="mu" unicode="&#xb5;" horiz-adv-x="564" 
d="M282 -12q-57 0 -103 21t-79 56v-258h-20v711h20v-430q32 -38 80 -60t102 -22t102 22t80 60v430h20v-518h-20v65q-33 -35 -79 -56t-103 -21z" />
    <glyph glyph-name="paragraph" unicode="&#xb6;" horiz-adv-x="540" 
d="M50 524q0 48 19 81.5t51 54.5t74.5 30.5t89.5 9.5h156v-831h-20v813h-66v-813h-20v477h-50q-47 0 -89.5 10t-74.5 31t-51 55t-19 82z" />
    <glyph glyph-name="periodcentered" unicode="&#xb7;" horiz-adv-x="280" 
d="M125 332q0 27 3 34.5t12 7.5t12 -7.5t3 -34.5t-3 -34.5t-12 -7.5t-12 7.5t-3 34.5z" />
    <glyph glyph-name="cedilla" unicode="&#xb8;" horiz-adv-x="386" 
d="M111 -211q21 -9 46 -9q45 0 66.5 18t21.5 47q0 27 -25.5 48.5t-77.5 25.5l47 81h20l-40 -69q48 -9 72 -32t24 -54q0 -37 -26.5 -60t-80.5 -23q-27 0 -47 7v20z" />
    <glyph glyph-name="onesuperior" unicode="&#xb9;" horiz-adv-x="360" 
d="M86 603l-11 16l109 82h20v-464h-20v441z" />
    <glyph glyph-name="ordmasculine" unicode="&#xba;" horiz-adv-x="430" 
d="M48 517q0 41 12.5 76t34.5 60.5t52.5 40t67.5 14.5t67.5 -14.5t52.5 -40t34.5 -60.5t12.5 -76t-12.5 -76t-34.5 -60.5t-52.5 -40t-67.5 -14.5t-67.5 14.5t-52.5 40t-34.5 60.5t-12.5 76zM68 517q0 -41 11.5 -73t31.5 -54t47 -34t57 -12t57 12t47 34t31.5 54t11.5 73
q0 40 -11.5 72.5t-31.5 54.5t-47 34t-57 12t-57 -12t-47 -34t-31.5 -54.5t-11.5 -72.5z" />
    <glyph glyph-name="guillemotright" unicode="&#xbb;" horiz-adv-x="542" 
d="M259 488v21l203 -189v-16l-203 -189v21l191 176zM70 488v21l203 -189v-16l-203 -189v21l191 176z" />
    <glyph glyph-name="onequarter" unicode="&#xbc;" horiz-adv-x="900" 
d="M237 -15h-22l392 730h22zM86 603l-11 16l109 82h20v-464h-20v441zM535 110v18l239 336h21v-336h56v-18h-56v-109h-20v109h-240zM558 128h217v305z" />
    <glyph glyph-name="onehalf" unicode="&#xbd;" horiz-adv-x="900" 
d="M215 -15h-22l392 730h22zM86 603l-11 16l109 82h20v-464h-20v441zM576 1v20q51 42 99 91.5t90 103.5q30 40 40.5 69.5t10.5 59.5q0 57 -32.5 83t-86.5 26q-61 0 -108 -25l-2 20q48 23 110 23q67 0 103 -33.5t36 -93.5q0 -30 -11 -63t-45 -78q-43 -57 -90 -104t-86 -79
h236v-20h-264z" />
    <glyph glyph-name="threequarters" unicode="&#xbe;" horiz-adv-x="900" 
d="M280 -15h-22l392 730h22zM102 488q49 0 82.5 10t54.5 25.5t30 34.5t9 37q0 48 -34 71.5t-88 23.5q-27 0 -53.5 -5t-48.5 -16l-2 19q21 9 48.5 14.5t54.5 5.5q66 0 104.5 -28t38.5 -85q0 -45 -31 -75.5t-92 -39.5q70 -14 100 -46.5t30 -83.5q0 -54 -40.5 -87.5
t-113.5 -33.5q-27 0 -54.5 4t-52.5 14l2 19q26 -11 52.5 -15t52.5 -4q34 0 59.5 8.5t42 22.5t24.5 33t8 39q0 22 -8 44t-29 38.5t-56.5 27t-89.5 10.5v18zM535 110v18l239 336h21v-336h56v-18h-56v-109h-20v109h-240zM558 128h217v305z" />
    <glyph glyph-name="questiondown" unicode="&#xbf;" horiz-adv-x="510" 
d="M313 488q0 -27 -3.5 -34.5t-11.5 -7.5t-11.5 7.5t-3.5 34.5t3.5 34.5t11.5 7.5t11.5 -7.5t3.5 -34.5zM308 324q0 -36 -4.5 -63t-15 -48.5t-28 -40t-42.5 -36.5q-64 -45 -90.5 -86t-26.5 -89q0 -66 49 -101.5t146 -35.5q38 0 77.5 9.5t74.5 26.5l2 -21q-32 -15 -74 -24
t-80 -9q-99 0 -157.5 40t-58.5 117q0 51 29.5 96t95.5 93q27 19 43 37.5t25 39.5t12 45t3 54v21h20v-25z" />
    <glyph glyph-name="Agrave" unicode="&#xc0;" horiz-adv-x="618" 
d="M320 700l283 -700h-22l-85 211h-374l-85 -211h-22l283 700h22zM129 229h360l-180 449zM188 924h25l133 -162h-24z" />
    <glyph glyph-name="Aacute" unicode="&#xc1;" horiz-adv-x="618" 
d="M320 700l283 -700h-22l-85 211h-374l-85 -211h-22l283 700h22zM129 229h360l-180 449zM296 762h-24l133 162h25z" />
    <glyph glyph-name="Acircumflex" unicode="&#xc2;" horiz-adv-x="618" 
d="M320 700l283 -700h-22l-85 211h-374l-85 -211h-22l283 700h22zM129 229h360l-180 449zM180 762h-24l141 162h24l141 -162h-24l-129 149z" />
    <glyph glyph-name="Atilde" unicode="&#xc3;" horiz-adv-x="618" 
d="M320 700l283 -700h-22l-85 211h-374l-85 -211h-22l283 700h22zM129 229h360l-180 449zM383 775q-27 0 -45.5 18t-33.5 40t-31 40t-38 18q-23 0 -40.5 -25.5t-17.5 -88.5h-20q0 71 22.5 101.5t55.5 30.5q28 0 46 -18t33 -40t30.5 -40t38.5 -18t40.5 25.5t17.5 88.5h20
q0 -71 -22.5 -101.5t-55.5 -30.5z" />
    <glyph glyph-name="Adieresis" unicode="&#xc4;" horiz-adv-x="618" 
d="M320 700l283 -700h-22l-85 211h-374l-85 -211h-22l283 700h22zM129 229h360l-180 449zM193 843q0 27 3 34.5t12 7.5t12 -7.5t3 -34.5t-3 -34.5t-12 -7.5t-12 7.5t-3 34.5zM395 843q0 27 3 34.5t12 7.5t12 -7.5t3 -34.5t-3 -34.5t-12 -7.5t-12 7.5t-3 34.5z" />
    <glyph glyph-name="Aring" unicode="&#xc5;" horiz-adv-x="618" 
d="M320 700l283 -700h-22l-85 211h-374l-85 -211h-22l283 700h22zM129 229h360l-180 449zM210 843q0 42 28.5 70.5t70.5 28.5t70.5 -28.5t28.5 -70.5t-28.5 -70.5t-70.5 -28.5t-70.5 28.5t-28.5 70.5zM228 843q0 -34 23.5 -57.5t57.5 -23.5t57.5 23.5t23.5 57.5t-23.5 57.5
t-57.5 23.5t-57.5 -23.5t-23.5 -57.5z" />
    <glyph glyph-name="AE" unicode="&#xc6;" horiz-adv-x="834" 
d="M780 700v-18h-332v-311h307v-18h-307v-335h341v-18h-361v210h-268l-120 -210h-25l402 700h363zM428 679l-258 -451h258v451z" />
    <glyph glyph-name="Ccedilla" unicode="&#xc7;" horiz-adv-x="591" 
d="M300 -211q21 -9 46 -9q45 0 66.5 18t21.5 47q0 27 -25.5 48.5t-77.5 25.5l40 70q-74 5 -132.5 32.5t-99 74.5t-62.5 111.5t-22 142.5q0 82 24.5 148.5t69.5 114t109 73.5t144 26q36 0 71.5 -5t64.5 -17l-2 -19q-31 13 -66 18t-67 5q-76 0 -136.5 -24.5t-102.5 -69.5
t-64.5 -108.5t-22.5 -141.5t22.5 -141.5t64.5 -108.5t102.5 -69.5t136.5 -24.5q35 0 69.5 5t66.5 19l2 -19q-30 -12 -67 -17.5t-72 -5.5h-12l-32 -57q48 -9 72 -32t24 -54q0 -37 -26.5 -60t-80.5 -23q-27 0 -47 7v20z" />
    <glyph glyph-name="Egrave" unicode="&#xc8;" horiz-adv-x="549" 
d="M90 700h405v-18h-385v-311h360v-18h-360v-335h394v-18h-414v700zM177 924h25l133 -162h-24z" />
    <glyph glyph-name="Eacute" unicode="&#xc9;" horiz-adv-x="549" 
d="M90 700h405v-18h-385v-311h360v-18h-360v-335h394v-18h-414v700zM273 762h-24l133 162h25z" />
    <glyph glyph-name="Ecircumflex" unicode="&#xca;" horiz-adv-x="549" 
d="M90 700h405v-18h-385v-311h360v-18h-360v-335h394v-18h-414v700zM164 762h-24l141 162h24l141 -162h-24l-129 149z" />
    <glyph glyph-name="Edieresis" unicode="&#xcb;" horiz-adv-x="549" 
d="M90 700h405v-18h-385v-311h360v-18h-360v-335h394v-18h-414v700zM178 843q0 27 3 34.5t12 7.5t12 -7.5t3 -34.5t-3 -34.5t-12 -7.5t-12 7.5t-3 34.5zM380 843q0 27 3 34.5t12 7.5t12 -7.5t3 -34.5t-3 -34.5t-12 -7.5t-12 7.5t-3 34.5z" />
    <glyph glyph-name="Igrave" unicode="&#xcc;" horiz-adv-x="210" 
d="M115 700v-700h-20v700h20zM-32 924h25l133 -162h-24z" />
    <glyph glyph-name="Iacute" unicode="&#xcd;" horiz-adv-x="210" 
d="M115 700v-700h-20v700h20zM110 762h-24l133 162h25z" />
    <glyph glyph-name="Icircumflex" unicode="&#xce;" horiz-adv-x="210" 
d="M115 700v-700h-20v700h20zM-23 762h-24l141 162h24l141 -162h-24l-129 149z" />
    <glyph glyph-name="Idieresis" unicode="&#xcf;" horiz-adv-x="210" 
d="M115 700v-700h-20v700h20zM-10 843q0 27 3 34.5t12 7.5t12 -7.5t3 -34.5t-3 -34.5t-12 -7.5t-12 7.5t-3 34.5zM192 843q0 27 3 34.5t12 7.5t12 -7.5t3 -34.5t-3 -34.5t-12 -7.5t-12 7.5t-3 34.5z" />
    <glyph glyph-name="Eth" unicode="&#xd0;" horiz-adv-x="665" 
d="M95 341h-75v18h75v341h126q89 0 161 -22.5t122.5 -66.5t78 -109.5t27.5 -151.5t-27.5 -151.5t-78 -109.5t-122.5 -66.5t-161 -22.5h-126v341zM221 18q82 0 149.5 20t116.5 61t76 103.5t27 147.5t-27 147.5t-76 103.5t-116.5 61t-149.5 20h-106v-323h204v-18h-204v-323
h106z" />
    <glyph glyph-name="Ntilde" unicode="&#xd1;" horiz-adv-x="688" 
d="M90 700h24l464 -671v671h20v-700h-24l-464 670v-670h-20v700zM423 775q-27 0 -45.5 18t-33.5 40t-31 40t-38 18q-23 0 -40.5 -25.5t-17.5 -88.5h-20q0 71 22.5 101.5t55.5 30.5q28 0 46 -18t33 -40t30.5 -40t38.5 -18t40.5 25.5t17.5 88.5h20q0 -71 -22.5 -101.5
t-55.5 -30.5z" />
    <glyph glyph-name="Ograve" unicode="&#xd2;" horiz-adv-x="696" 
d="M641 350q0 -77 -20 -143.5t-58 -115t-92.5 -76t-122.5 -27.5t-122.5 27.5t-92.5 76t-58 115t-20 143.5t20 143.5t58 115t92.5 76t122.5 27.5t122.5 -27.5t92.5 -76t58 -115t20 -143.5zM75 350q0 -74 18.5 -136.5t54 -109t86 -72.5t114.5 -26t115 26t86 72.5t53.5 109
t18.5 136.5q0 73 -18.5 136t-53.5 109.5t-86 72.5t-115 26t-114.5 -26t-86 -72.5t-54 -109.5t-18.5 -136zM231 924h25l133 -162h-24z" />
    <glyph glyph-name="Oacute" unicode="&#xd3;" horiz-adv-x="696" 
d="M641 350q0 -77 -20 -143.5t-58 -115t-92.5 -76t-122.5 -27.5t-122.5 27.5t-92.5 76t-58 115t-20 143.5t20 143.5t58 115t92.5 76t122.5 27.5t122.5 -27.5t92.5 -76t58 -115t20 -143.5zM75 350q0 -74 18.5 -136.5t54 -109t86 -72.5t114.5 -26t115 26t86 72.5t53.5 109
t18.5 136.5q0 73 -18.5 136t-53.5 109.5t-86 72.5t-115 26t-114.5 -26t-86 -72.5t-54 -109.5t-18.5 -136zM334 762h-24l133 162h25z" />
    <glyph glyph-name="Ocircumflex" unicode="&#xd4;" horiz-adv-x="696" 
d="M641 350q0 -77 -20 -143.5t-58 -115t-92.5 -76t-122.5 -27.5t-122.5 27.5t-92.5 76t-58 115t-20 143.5t20 143.5t58 115t92.5 76t122.5 27.5t122.5 -27.5t92.5 -76t58 -115t20 -143.5zM75 350q0 -74 18.5 -136.5t54 -109t86 -72.5t114.5 -26t115 26t86 72.5t53.5 109
t18.5 136.5q0 73 -18.5 136t-53.5 109.5t-86 72.5t-115 26t-114.5 -26t-86 -72.5t-54 -109.5t-18.5 -136zM219 762h-24l141 162h24l141 -162h-24l-129 149z" />
    <glyph glyph-name="Otilde" unicode="&#xd5;" horiz-adv-x="696" 
d="M641 350q0 -77 -20 -143.5t-58 -115t-92.5 -76t-122.5 -27.5t-122.5 27.5t-92.5 76t-58 115t-20 143.5t20 143.5t58 115t92.5 76t122.5 27.5t122.5 -27.5t92.5 -76t58 -115t20 -143.5zM75 350q0 -74 18.5 -136.5t54 -109t86 -72.5t114.5 -26t115 26t86 72.5t53.5 109
t18.5 136.5q0 73 -18.5 136t-53.5 109.5t-86 72.5t-115 26t-114.5 -26t-86 -72.5t-54 -109.5t-18.5 -136zM422 775q-27 0 -45.5 18t-33.5 40t-31 40t-38 18q-23 0 -40.5 -25.5t-17.5 -88.5h-20q0 71 22.5 101.5t55.5 30.5q28 0 46 -18t33 -40t30.5 -40t38.5 -18t40.5 25.5
t17.5 88.5h20q0 -71 -22.5 -101.5t-55.5 -30.5z" />
    <glyph glyph-name="Odieresis" unicode="&#xd6;" horiz-adv-x="696" 
d="M641 350q0 -77 -20 -143.5t-58 -115t-92.5 -76t-122.5 -27.5t-122.5 27.5t-92.5 76t-58 115t-20 143.5t20 143.5t58 115t92.5 76t122.5 27.5t122.5 -27.5t92.5 -76t58 -115t20 -143.5zM75 350q0 -74 18.5 -136.5t54 -109t86 -72.5t114.5 -26t115 26t86 72.5t53.5 109
t18.5 136.5q0 73 -18.5 136t-53.5 109.5t-86 72.5t-115 26t-114.5 -26t-86 -72.5t-54 -109.5t-18.5 -136zM232 843q0 27 3 34.5t12 7.5t12 -7.5t3 -34.5t-3 -34.5t-12 -7.5t-12 7.5t-3 34.5zM434 843q0 27 3 34.5t12 7.5t12 -7.5t3 -34.5t-3 -34.5t-12 -7.5t-12 7.5t-3 34.5
z" />
    <glyph glyph-name="multiply" unicode="&#xd7;" horiz-adv-x="618" 
d="M498 161l-14 -14l-175 172l-175 -172l-14 14l175 172l-175 173l14 14l175 -173l175 173l14 -14l-175 -173z" />
    <glyph glyph-name="Oslash" unicode="&#xd8;" horiz-adv-x="696" 
d="M641 350q0 -77 -20 -143.5t-58 -115t-92.5 -76t-122.5 -27.5q-48 0 -89.5 13.5t-75.5 39.5l-80 -141h-22l87 154q-54 48 -83.5 125t-29.5 171q0 77 20 143.5t58 115t92.5 76t122.5 27.5q48 0 89 -14t75 -40l81 142h22l-88 -154q55 -48 84.5 -125t29.5 -171zM348 6
q64 0 115 26t86 72.5t53.5 109t18.5 136.5q0 89 -26.5 161t-76.5 119l-325 -572q32 -25 70.5 -38.5t84.5 -13.5zM75 350q0 -89 26 -161t77 -119l325 572q-32 25 -70.5 38.5t-84.5 13.5q-64 0 -114.5 -26t-86 -72.5t-54 -109.5t-18.5 -136z" />
    <glyph glyph-name="Ugrave" unicode="&#xd9;" horiz-adv-x="696" 
d="M348 -12q-54 0 -101 16.5t-82 50.5t-55 86.5t-20 124.5v434h20v-431q0 -69 18.5 -118.5t50.5 -81.5t75.5 -47.5t93.5 -15.5t93.5 15.5t75.5 47.5t50.5 81.5t18.5 118.5v431h20v-434q0 -72 -20 -124.5t-55 -86.5t-82 -50.5t-101 -16.5zM210 924h25l133 -162h-24z" />
    <glyph glyph-name="Uacute" unicode="&#xda;" horiz-adv-x="696" 
d="M348 -12q-54 0 -101 16.5t-82 50.5t-55 86.5t-20 124.5v434h20v-431q0 -69 18.5 -118.5t50.5 -81.5t75.5 -47.5t93.5 -15.5t93.5 15.5t75.5 47.5t50.5 81.5t18.5 118.5v431h20v-434q0 -72 -20 -124.5t-55 -86.5t-82 -50.5t-101 -16.5zM349 762h-24l133 162h25z" />
    <glyph glyph-name="Ucircumflex" unicode="&#xdb;" horiz-adv-x="696" 
d="M348 -12q-54 0 -101 16.5t-82 50.5t-55 86.5t-20 124.5v434h20v-431q0 -69 18.5 -118.5t50.5 -81.5t75.5 -47.5t93.5 -15.5t93.5 15.5t75.5 47.5t50.5 81.5t18.5 118.5v431h20v-434q0 -72 -20 -124.5t-55 -86.5t-82 -50.5t-101 -16.5zM219 762h-24l141 162h24l141 -162
h-24l-129 149z" />
    <glyph glyph-name="Udieresis" unicode="&#xdc;" horiz-adv-x="696" 
d="M348 -12q-54 0 -101 16.5t-82 50.5t-55 86.5t-20 124.5v434h20v-431q0 -69 18.5 -118.5t50.5 -81.5t75.5 -47.5t93.5 -15.5t93.5 15.5t75.5 47.5t50.5 81.5t18.5 118.5v431h20v-434q0 -72 -20 -124.5t-55 -86.5t-82 -50.5t-101 -16.5zM232 843q0 27 3 34.5t12 7.5
t12 -7.5t3 -34.5t-3 -34.5t-12 -7.5t-12 7.5t-3 34.5zM434 843q0 27 3 34.5t12 7.5t12 -7.5t3 -34.5t-3 -34.5t-12 -7.5t-12 7.5t-3 34.5z" />
    <glyph glyph-name="Yacute" unicode="&#xdd;" horiz-adv-x="630" 
d="M325 279v-279h-20v279l-275 421h24l261 -401l261 401h24zM308 762h-24l133 162h25z" />
    <glyph glyph-name="Thorn" unicode="&#xde;" horiz-adv-x="564" 
d="M90 0v700h20v-139h148q121 0 191 -53t70 -153t-70 -153t-191 -53h-148v-149h-20zM499 355q0 94 -65 141t-176 47h-148v-376h148q111 0 176 47t65 141z" />
    <glyph glyph-name="germandbls" unicode="&#xdf;" horiz-adv-x="530" 
d="M232 376q99 0 150.5 41.5t51.5 117.5q0 36 -12 65.5t-33.5 50.5t-51 32t-65.5 11q-81 0 -126.5 -52.5t-45.5 -167.5v-474h-20v473q0 118 48.5 178.5t145.5 60.5q38 0 71 -12.5t57 -35.5t38 -56t14 -73q0 -38 -12 -67t-32 -49.5t-47.5 -33t-58.5 -18.5q79 -15 127.5 -63.5
t48.5 -136.5q0 -38 -12.5 -71t-37.5 -57t-61.5 -37.5t-84.5 -13.5q-35 0 -69.5 8t-60.5 24l3 20q55 -34 126 -34q46 0 79 13t55 35t32.5 51.5t10.5 61.5q0 90 -58 140.5t-170 50.5v18z" />
    <glyph glyph-name="agrave" unicode="&#xe0;" horiz-adv-x="525" 
d="M235 -12q-41 0 -75.5 9.5t-60 29t-40 47.5t-14.5 66q0 75 54.5 117.5t157.5 42.5h173v43q0 94 -46 131.5t-133 37.5q-86 0 -155 -34l-3 19q35 16 75 24.5t82 8.5q46 0 83.5 -9.5t63 -30.5t39.5 -56t14 -86v-348h-20v62q-33 -34 -81 -54t-114 -20zM430 282h-171
q-97 0 -145.5 -39.5t-48.5 -100.5q0 -33 12.5 -58.5t35 -43t53.5 -26t68 -8.5q60 0 108 19t88 61v196zM145 750h25l133 -162h-24z" />
    <glyph glyph-name="aacute" unicode="&#xe1;" horiz-adv-x="525" 
d="M235 -12q-41 0 -75.5 9.5t-60 29t-40 47.5t-14.5 66q0 75 54.5 117.5t157.5 42.5h173v43q0 94 -46 131.5t-133 37.5q-86 0 -155 -34l-3 19q35 16 75 24.5t82 8.5q46 0 83.5 -9.5t63 -30.5t39.5 -56t14 -86v-348h-20v62q-33 -34 -81 -54t-114 -20zM430 282h-171
q-97 0 -145.5 -39.5t-48.5 -100.5q0 -33 12.5 -58.5t35 -43t53.5 -26t68 -8.5q60 0 108 19t88 61v196zM236 588h-24l133 162h25z" />
    <glyph glyph-name="acircumflex" unicode="&#xe2;" horiz-adv-x="525" 
d="M235 -12q-41 0 -75.5 9.5t-60 29t-40 47.5t-14.5 66q0 75 54.5 117.5t157.5 42.5h173v43q0 94 -46 131.5t-133 37.5q-86 0 -155 -34l-3 19q35 16 75 24.5t82 8.5q46 0 83.5 -9.5t63 -30.5t39.5 -56t14 -86v-348h-20v62q-33 -34 -81 -54t-114 -20zM430 282h-171
q-97 0 -145.5 -39.5t-48.5 -100.5q0 -33 12.5 -58.5t35 -43t53.5 -26t68 -8.5q60 0 108 19t88 61v196zM133 588h-24l141 162h24l141 -162h-24l-129 149z" />
    <glyph glyph-name="atilde" unicode="&#xe3;" horiz-adv-x="525" 
d="M235 -12q-41 0 -75.5 9.5t-60 29t-40 47.5t-14.5 66q0 75 54.5 117.5t157.5 42.5h173v43q0 94 -46 131.5t-133 37.5q-86 0 -155 -34l-3 19q35 16 75 24.5t82 8.5q46 0 83.5 -9.5t63 -30.5t39.5 -56t14 -86v-348h-20v62q-33 -34 -81 -54t-114 -20zM430 282h-171
q-97 0 -145.5 -39.5t-48.5 -100.5q0 -33 12.5 -58.5t35 -43t53.5 -26t68 -8.5q60 0 108 19t88 61v196zM329 601q-27 0 -45.5 18t-33.5 40t-31 40t-38 18q-23 0 -40.5 -25.5t-17.5 -88.5h-20q0 71 22.5 101.5t55.5 30.5q28 0 46 -18t33 -40t30.5 -40t38.5 -18t40.5 25.5
t17.5 88.5h20q0 -71 -22.5 -101.5t-55.5 -30.5z" />
    <glyph glyph-name="adieresis" unicode="&#xe4;" horiz-adv-x="525" 
d="M235 -12q-41 0 -75.5 9.5t-60 29t-40 47.5t-14.5 66q0 75 54.5 117.5t157.5 42.5h173v43q0 94 -46 131.5t-133 37.5q-86 0 -155 -34l-3 19q35 16 75 24.5t82 8.5q46 0 83.5 -9.5t63 -30.5t39.5 -56t14 -86v-348h-20v62q-33 -34 -81 -54t-114 -20zM430 282h-171
q-97 0 -145.5 -39.5t-48.5 -100.5q0 -33 12.5 -58.5t35 -43t53.5 -26t68 -8.5q60 0 108 19t88 61v196zM150 669q0 27 3 34.5t12 7.5t12 -7.5t3 -34.5t-3 -34.5t-12 -7.5t-12 7.5t-3 34.5zM352 669q0 27 3 34.5t12 7.5t12 -7.5t3 -34.5t-3 -34.5t-12 -7.5t-12 7.5t-3 34.5z
" />
    <glyph glyph-name="aring" unicode="&#xe5;" horiz-adv-x="525" 
d="M235 -12q-41 0 -75.5 9.5t-60 29t-40 47.5t-14.5 66q0 75 54.5 117.5t157.5 42.5h173v43q0 94 -46 131.5t-133 37.5q-86 0 -155 -34l-3 19q35 16 75 24.5t82 8.5q46 0 83.5 -9.5t63 -30.5t39.5 -56t14 -86v-348h-20v62q-33 -34 -81 -54t-114 -20zM430 282h-171
q-97 0 -145.5 -39.5t-48.5 -100.5q0 -33 12.5 -58.5t35 -43t53.5 -26t68 -8.5q60 0 108 19t88 61v196zM168 669q0 42 28.5 70.5t70.5 28.5t70.5 -28.5t28.5 -70.5t-28.5 -70.5t-70.5 -28.5t-70.5 28.5t-28.5 70.5zM186 669q0 -34 23.5 -57.5t57.5 -23.5t57.5 23.5t23.5 57.5
t-23.5 57.5t-57.5 23.5t-57.5 -23.5t-23.5 -57.5z" />
    <glyph glyph-name="ae" unicode="&#xe6;" horiz-adv-x="837" 
d="M205 -12q-30 0 -58.5 9.5t-51 28.5t-36.5 47.5t-14 66.5q0 75 51 117.5t154 42.5h146v43q0 46 -12 78.5t-33.5 52.5t-50.5 29t-63 9q-35 0 -72.5 -8t-68.5 -23l-3 19q30 14 68 22t75 8q78 0 124 -39t50 -117q20 73 67 114.5t116 41.5q46 0 83 -19t63 -53t39.5 -82
t13.5 -105v-19h-377q2 -65 18.5 -111.5t44 -76.5t64 -44t78.5 -14q32 0 66 10t60 31l3 -20q-26 -20 -59.5 -29.5t-69.5 -9.5q-43 0 -78.5 13t-62.5 36.5t-45 55.5t-27 70q-21 -81 -70 -128t-132 -47zM395 282h-143q-94 0 -139.5 -38.5t-45.5 -101.5q0 -34 12 -59.5
t31.5 -42.5t44 -25.5t49.5 -8.5q32 0 62 9.5t55 32t44 60.5t30 94v80zM771 270q0 53 -12 97.5t-35 76.5t-56 50t-75 18q-41 0 -73.5 -17.5t-56 -49t-36 -76t-12.5 -99.5h356z" />
    <glyph glyph-name="ccedilla" unicode="&#xe7;" horiz-adv-x="485" 
d="M229 -211q21 -9 46 -9q45 0 66.5 18t21.5 47q0 27 -25.5 48.5t-77.5 25.5l40 69q-55 1 -101 20.5t-79 54.5t-51.5 84.5t-18.5 111.5t19.5 112t53.5 85.5t79.5 54.5t97.5 19q40 0 74.5 -6.5t65.5 -20.5l-2 -19q-32 15 -66 21.5t-72 6.5q-48 0 -89.5 -17.5t-73 -50
t-49.5 -79.5t-18 -106t18 -106t49.5 -79.5t74.5 -50t93 -17.5q38 0 72.5 7.5t65.5 25.5l2 -19q-27 -16 -58.5 -23t-66.5 -9l-33 -57q48 -9 72 -32t24 -54q0 -37 -26.5 -60t-80.5 -23q-27 0 -47 7v20z" />
    <glyph glyph-name="egrave" unicode="&#xe8;" horiz-adv-x="530" 
d="M296 6q39 0 75.5 9.5t67.5 31.5l3 -20q-60 -39 -148 -39q-59 0 -104 21t-76.5 57.5t-47.5 86.5t-16 108q0 63 16 112.5t45 84.5t69 53.5t87 18.5t87 -19t69 -53.5t45.5 -82.5t16.5 -105v-18h-415q1 -53 16 -98t43 -78t70 -51.5t97 -18.5zM465 270q0 54 -15 98.5t-41 76.5
t-62.5 49.5t-79.5 17.5t-78.5 -16.5t-61.5 -48t-41 -76.5t-16 -101h395zM151 750h25l133 -162h-24z" />
    <glyph glyph-name="eacute" unicode="&#xe9;" horiz-adv-x="530" 
d="M296 6q39 0 75.5 9.5t67.5 31.5l3 -20q-60 -39 -148 -39q-59 0 -104 21t-76.5 57.5t-47.5 86.5t-16 108q0 63 16 112.5t45 84.5t69 53.5t87 18.5t87 -19t69 -53.5t45.5 -82.5t16.5 -105v-18h-415q1 -53 16 -98t43 -78t70 -51.5t97 -18.5zM465 270q0 54 -15 98.5t-41 76.5
t-62.5 49.5t-79.5 17.5t-78.5 -16.5t-61.5 -48t-41 -76.5t-16 -101h395zM243 588h-24l133 162h25z" />
    <glyph glyph-name="ecircumflex" unicode="&#xea;" horiz-adv-x="530" 
d="M296 6q39 0 75.5 9.5t67.5 31.5l3 -20q-60 -39 -148 -39q-59 0 -104 21t-76.5 57.5t-47.5 86.5t-16 108q0 63 16 112.5t45 84.5t69 53.5t87 18.5t87 -19t69 -53.5t45.5 -82.5t16.5 -105v-18h-415q1 -53 16 -98t43 -78t70 -51.5t97 -18.5zM465 270q0 54 -15 98.5t-41 76.5
t-62.5 49.5t-79.5 17.5t-78.5 -16.5t-61.5 -48t-41 -76.5t-16 -101h395zM138 588h-24l141 162h24l141 -162h-24l-129 149z" />
    <glyph glyph-name="edieresis" unicode="&#xeb;" horiz-adv-x="530" 
d="M296 6q39 0 75.5 9.5t67.5 31.5l3 -20q-60 -39 -148 -39q-59 0 -104 21t-76.5 57.5t-47.5 86.5t-16 108q0 63 16 112.5t45 84.5t69 53.5t87 18.5t87 -19t69 -53.5t45.5 -82.5t16.5 -105v-18h-415q1 -53 16 -98t43 -78t70 -51.5t97 -18.5zM465 270q0 54 -15 98.5t-41 76.5
t-62.5 49.5t-79.5 17.5t-78.5 -16.5t-61.5 -48t-41 -76.5t-16 -101h395zM147 669q0 27 3 34.5t12 7.5t12 -7.5t3 -34.5t-3 -34.5t-12 -7.5t-12 7.5t-3 34.5zM349 669q0 27 3 34.5t12 7.5t12 -7.5t3 -34.5t-3 -34.5t-12 -7.5t-12 7.5t-3 34.5z" />
    <glyph glyph-name="igrave" unicode="&#xec;" horiz-adv-x="190" 
d="M85 518h20v-518h-20v518zM-37 750h25l133 -162h-24z" />
    <glyph glyph-name="iacute" unicode="&#xed;" horiz-adv-x="190" 
d="M85 518h20v-518h-20v518zM95 588h-24l133 162h25z" />
    <glyph glyph-name="icircumflex" unicode="&#xee;" horiz-adv-x="190" 
d="M85 518h20v-518h-20v518zM-33 588h-24l141 162h24l141 -162h-24l-129 149z" />
    <glyph glyph-name="idieresis" unicode="&#xef;" horiz-adv-x="190" 
d="M85 518h20v-518h-20v518zM-20 669q0 27 3 34.5t12 7.5t12 -7.5t3 -34.5t-3 -34.5t-12 -7.5t-12 7.5t-3 34.5zM182 669q0 27 3 34.5t12 7.5t12 -7.5t3 -34.5t-3 -34.5t-12 -7.5t-12 7.5t-3 34.5z" />
    <glyph glyph-name="eth" unicode="&#xf0;" horiz-adv-x="524" 
d="M468 667l6 -18l-96 -29q45 -48 68.5 -119t23.5 -177q0 -77 -14 -139.5t-41.5 -106t-69 -67t-96.5 -23.5q-43 0 -79.5 17t-63 49.5t-41.5 79.5t-15 108q0 123 56 188.5t153 65.5q25 0 52 -7.5t51.5 -20t46.5 -30t37 -38.5q-8 74 -30.5 125.5t-57.5 87.5l-232 -70l-6 18
l222 67q-35 31 -79.5 50t-97.5 32l2 20q60 -15 109 -37.5t87 -57.5zM259 478q-84 0 -136.5 -58.5t-52.5 -177.5q0 -53 12.5 -96t35.5 -74.5t56 -48.5t75 -17q51 0 88.5 22.5t62.5 64t37.5 100.5t12.5 132q0 12 -0.5 23.5t-1.5 22.5q-38 51 -86.5 79t-102.5 28z" />
    <glyph glyph-name="ntilde" unicode="&#xf1;" horiz-adv-x="559" 
d="M277 512q-51 0 -98 -22t-79 -61v-429h-20v518h20v-63q35 35 80 55t97 20q93 0 150 -57.5t57 -167.5v-305h-20v303q0 102 -50 155.5t-137 53.5zM353 601q-27 0 -45.5 18t-33.5 40t-31 40t-38 18q-23 0 -40.5 -25.5t-17.5 -88.5h-20q0 71 22.5 101.5t55.5 30.5q28 0 46 -18
t33 -40t30.5 -40t38.5 -18t40.5 25.5t17.5 88.5h20q0 -71 -22.5 -101.5t-55.5 -30.5z" />
    <glyph glyph-name="ograve" unicode="&#xf2;" horiz-adv-x="566" 
d="M50 259q0 59 17.5 109t49 86t74 56t92.5 20t92.5 -20t74 -56t49 -86t17.5 -109t-17.5 -109t-49 -86t-74 -56t-92.5 -20t-92.5 20t-74 56t-49 86t-17.5 109zM70 259q0 -57 16 -103.5t44.5 -80t67.5 -51.5t85 -18t85 18t67.5 51.5t44.5 80t16 103.5t-16 103.5t-44.5 80
t-67.5 51.5t-85 18t-85 -18t-67.5 -51.5t-44.5 -80t-16 -103.5zM169 750h25l133 -162h-24z" />
    <glyph glyph-name="oacute" unicode="&#xf3;" horiz-adv-x="566" 
d="M50 259q0 59 17.5 109t49 86t74 56t92.5 20t92.5 -20t74 -56t49 -86t17.5 -109t-17.5 -109t-49 -86t-74 -56t-92.5 -20t-92.5 20t-74 56t-49 86t-17.5 109zM70 259q0 -57 16 -103.5t44.5 -80t67.5 -51.5t85 -18t85 18t67.5 51.5t44.5 80t16 103.5t-16 103.5t-44.5 80
t-67.5 51.5t-85 18t-85 -18t-67.5 -51.5t-44.5 -80t-16 -103.5zM263 588h-24l133 162h25z" />
    <glyph glyph-name="ocircumflex" unicode="&#xf4;" horiz-adv-x="566" 
d="M50 259q0 59 17.5 109t49 86t74 56t92.5 20t92.5 -20t74 -56t49 -86t17.5 -109t-17.5 -109t-49 -86t-74 -56t-92.5 -20t-92.5 20t-74 56t-49 86t-17.5 109zM70 259q0 -57 16 -103.5t44.5 -80t67.5 -51.5t85 -18t85 18t67.5 51.5t44.5 80t16 103.5t-16 103.5t-44.5 80
t-67.5 51.5t-85 18t-85 -18t-67.5 -51.5t-44.5 -80t-16 -103.5zM154 588h-24l141 162h24l141 -162h-24l-129 149z" />
    <glyph glyph-name="otilde" unicode="&#xf5;" horiz-adv-x="566" 
d="M50 259q0 59 17.5 109t49 86t74 56t92.5 20t92.5 -20t74 -56t49 -86t17.5 -109t-17.5 -109t-49 -86t-74 -56t-92.5 -20t-92.5 20t-74 56t-49 86t-17.5 109zM70 259q0 -57 16 -103.5t44.5 -80t67.5 -51.5t85 -18t85 18t67.5 51.5t44.5 80t16 103.5t-16 103.5t-44.5 80
t-67.5 51.5t-85 18t-85 -18t-67.5 -51.5t-44.5 -80t-16 -103.5zM357 601q-27 0 -45.5 18t-33.5 40t-31 40t-38 18q-23 0 -40.5 -25.5t-17.5 -88.5h-20q0 71 22.5 101.5t55.5 30.5q28 0 46 -18t33 -40t30.5 -40t38.5 -18t40.5 25.5t17.5 88.5h20q0 -71 -22.5 -101.5
t-55.5 -30.5z" />
    <glyph glyph-name="odieresis" unicode="&#xf6;" horiz-adv-x="566" 
d="M50 259q0 59 17.5 109t49 86t74 56t92.5 20t92.5 -20t74 -56t49 -86t17.5 -109t-17.5 -109t-49 -86t-74 -56t-92.5 -20t-92.5 20t-74 56t-49 86t-17.5 109zM70 259q0 -57 16 -103.5t44.5 -80t67.5 -51.5t85 -18t85 18t67.5 51.5t44.5 80t16 103.5t-16 103.5t-44.5 80
t-67.5 51.5t-85 18t-85 -18t-67.5 -51.5t-44.5 -80t-16 -103.5zM167 669q0 27 3 34.5t12 7.5t12 -7.5t3 -34.5t-3 -34.5t-12 -7.5t-12 7.5t-3 34.5zM369 669q0 27 3 34.5t12 7.5t12 -7.5t3 -34.5t-3 -34.5t-12 -7.5t-12 7.5t-3 34.5z" />
    <glyph glyph-name="divide" unicode="&#xf7;" horiz-adv-x="618" 
d="M70 323v18h478v-18h-478zM294 534q0 27 3 34.5t12 7.5t12 -7.5t3 -34.5t-3 -34.5t-12 -7.5t-12 7.5t-3 34.5zM294 130q0 27 3 34.5t12 7.5t12 -7.5t3 -34.5t-3 -34.5t-12 -7.5t-12 7.5t-3 34.5z" />
    <glyph glyph-name="oslash" unicode="&#xf8;" horiz-adv-x="566" 
d="M50 259q0 59 17.5 109t49 86t74 56t92.5 20q70 0 123 -38l79 136h22l-85 -148q44 -35 69 -92t25 -129q0 -59 -17.5 -109t-49 -86t-74 -56t-92.5 -20q-69 0 -124 38l-78 -136h-22l85 147q-44 36 -69 93t-25 129zM283 6q46 0 85 18t67.5 51.5t44.5 80t16 103.5
q0 68 -22.5 120.5t-60.5 85.5l-245 -424q50 -35 115 -35zM70 259q0 -68 22 -120.5t61 -85.5l244 424q-24 17 -53 26t-61 9q-46 0 -85 -18t-67.5 -51.5t-44.5 -80t-16 -103.5z" />
    <glyph glyph-name="ugrave" unicode="&#xf9;" horiz-adv-x="559" 
d="M282 6q51 0 98 22t79 61v429h20v-518h-20v63q-35 -35 -80 -55t-97 -20q-93 0 -150 57.5t-57 167.5v305h20v-303q0 -102 50 -155.5t137 -53.5zM151 750h25l133 -162h-24z" />
    <glyph glyph-name="uacute" unicode="&#xfa;" horiz-adv-x="559" 
d="M282 6q51 0 98 22t79 61v429h20v-518h-20v63q-35 -35 -80 -55t-97 -20q-93 0 -150 57.5t-57 167.5v305h20v-303q0 -102 50 -155.5t137 -53.5zM269 588h-24l133 162h25z" />
    <glyph glyph-name="ucircumflex" unicode="&#xfb;" horiz-adv-x="559" 
d="M282 6q51 0 98 22t79 61v429h20v-518h-20v63q-35 -35 -80 -55t-97 -20q-93 0 -150 57.5t-57 167.5v305h20v-303q0 -102 50 -155.5t137 -53.5zM148 588h-24l141 162h24l141 -162h-24l-129 149z" />
    <glyph glyph-name="udieresis" unicode="&#xfc;" horiz-adv-x="559" 
d="M282 6q51 0 98 22t79 61v429h20v-518h-20v63q-35 -35 -80 -55t-97 -20q-93 0 -150 57.5t-57 167.5v305h20v-303q0 -102 50 -155.5t137 -53.5zM161 669q0 27 3 34.5t12 7.5t12 -7.5t3 -34.5t-3 -34.5t-12 -7.5t-12 7.5t-3 34.5zM363 669q0 27 3 34.5t12 7.5t12 -7.5
t3 -34.5t-3 -34.5t-12 -7.5t-12 7.5t-3 34.5z" />
    <glyph glyph-name="yacute" unicode="&#xfd;" horiz-adv-x="505" 
d="M458 518h22l-288 -711h-22l78 194l-223 517h22l211 -492zM251 588h-24l133 162h25z" />
    <glyph glyph-name="thorn" unicode="&#xfe;" horiz-adv-x="559" 
d="M489 259q0 61 -17 108t-47 79t-70 49t-85 17q-51 0 -96 -21.5t-74 -58.5v-346q29 -37 74 -58.5t96 -21.5q45 0 85 16.5t70 49t47 79.5t17 108zM509 259q0 -65 -19 -115.5t-51 -85t-76 -52.5t-93 -18q-57 0 -100 21.5t-70 50.5v-253h-20v923h20v-272q27 29 70 50.5
t100 21.5q49 0 93 -18t76 -52.5t51 -85t19 -115.5z" />
    <glyph glyph-name="ydieresis" unicode="&#xff;" horiz-adv-x="505" 
d="M458 518h22l-288 -711h-22l78 194l-223 517h22l211 -492zM137 669q0 27 3 34.5t12 7.5t12 -7.5t3 -34.5t-3 -34.5t-12 -7.5t-12 7.5t-3 34.5zM339 669q0 27 3 34.5t12 7.5t12 -7.5t3 -34.5t-3 -34.5t-12 -7.5t-12 7.5t-3 34.5z" />
    <glyph glyph-name="Amacron" unicode="&#x100;" horiz-adv-x="618" 
d="M320 700l283 -700h-22l-85 211h-374l-85 -211h-22l283 700h22zM129 229h360l-180 449zM173 852h272v-18h-272v18z" />
    <glyph glyph-name="amacron" unicode="&#x101;" horiz-adv-x="525" 
d="M235 -12q-41 0 -75.5 9.5t-60 29t-40 47.5t-14.5 66q0 75 54.5 117.5t157.5 42.5h173v43q0 94 -46 131.5t-133 37.5q-86 0 -155 -34l-3 19q35 16 75 24.5t82 8.5q46 0 83.5 -9.5t63 -30.5t39.5 -56t14 -86v-348h-20v62q-33 -34 -81 -54t-114 -20zM430 282h-171
q-97 0 -145.5 -39.5t-48.5 -100.5q0 -33 12.5 -58.5t35 -43t53.5 -26t68 -8.5q60 0 108 19t88 61v196zM126 678h272v-18h-272v18z" />
    <glyph glyph-name="Abreve" unicode="&#x102;" horiz-adv-x="618" 
d="M320 700l283 -700h-22l-85 211h-374l-85 -211h-22l283 700h22zM129 229h360l-180 449zM309 765q-31 0 -58 9.5t-47.5 28.5t-33 47.5t-13.5 66.5h20q2 -66 38.5 -100t93.5 -34t93.5 34t38.5 100h20q-1 -38 -13.5 -66.5t-33 -47.5t-47.5 -28.5t-58 -9.5z" />
    <glyph glyph-name="abreve" unicode="&#x103;" horiz-adv-x="525" 
d="M235 -12q-41 0 -75.5 9.5t-60 29t-40 47.5t-14.5 66q0 75 54.5 117.5t157.5 42.5h173v43q0 94 -46 131.5t-133 37.5q-86 0 -155 -34l-3 19q35 16 75 24.5t82 8.5q46 0 83.5 -9.5t63 -30.5t39.5 -56t14 -86v-348h-20v62q-33 -34 -81 -54t-114 -20zM430 282h-171
q-97 0 -145.5 -39.5t-48.5 -100.5q0 -33 12.5 -58.5t35 -43t53.5 -26t68 -8.5q60 0 108 19t88 61v196zM263 593q-31 0 -58 9.5t-47.5 28.5t-33 47.5t-13.5 66.5h20q2 -66 38.5 -100t93.5 -34t93.5 34t38.5 100h20q-1 -38 -13.5 -66.5t-33 -47.5t-47.5 -28.5t-58 -9.5z" />
    <glyph glyph-name="Aogonek" unicode="&#x104;" horiz-adv-x="618" 
d="M581 0l-85 211h-374l-85 -211h-22l283 700h22l283 -700q-86 -77 -86 -144q0 -57 73 -57q12 0 22.5 1t20.5 5v-18q-8 -3 -20 -4.5t-23 -1.5q-48 0 -70.5 20.5t-22.5 53.5q0 38 24 75t62 70h-2zM129 229h360l-180 449z" />
    <glyph glyph-name="aogonek" unicode="&#x105;" horiz-adv-x="555" 
d="M430 62q-33 -34 -81 -54t-114 -20q-41 0 -75.5 9.5t-60 29t-40 47.5t-14.5 66q0 75 54.5 117.5t157.5 42.5h173v43q0 94 -46 131.5t-133 37.5q-86 0 -155 -34l-3 19q35 16 75 24.5t82 8.5q46 0 83.5 -9.5t63 -30.5t39.5 -56t14 -86v-348q-86 -77 -86 -144q0 -57 73 -57
q12 0 22.5 1t20.5 5v-18q-8 -3 -20 -4.5t-23 -1.5q-48 0 -70.5 20.5t-22.5 53.5q0 38 24 75t62 70v62zM430 282h-171q-97 0 -145.5 -39.5t-48.5 -100.5q0 -33 12.5 -58.5t35 -43t53.5 -26t68 -8.5q60 0 108 19t88 61v196z" />
    <glyph glyph-name="Cacute" unicode="&#x106;" horiz-adv-x="591" 
d="M55 350q0 82 24.5 148.5t69.5 114t109 73.5t144 26q36 0 71.5 -5t64.5 -17l-2 -19q-31 13 -66 18t-67 5q-76 0 -136.5 -24.5t-102.5 -69.5t-64.5 -108.5t-22.5 -141.5t22.5 -141.5t64.5 -108.5t102.5 -69.5t136.5 -24.5q35 0 69.5 5t66.5 19l2 -19q-30 -12 -67 -17.5
t-72 -5.5q-80 0 -144.5 26t-109.5 73.5t-69 114t-24 148.5zM354 762h-24l133 162h25z" />
    <glyph glyph-name="cacute" unicode="&#x107;" horiz-adv-x="485" 
d="M50 259q0 62 19.5 112t53.5 85.5t79.5 54.5t97.5 19q40 0 74.5 -6.5t65.5 -20.5l-2 -19q-32 15 -66 21.5t-72 6.5q-48 0 -89.5 -17.5t-73 -50t-49.5 -79.5t-18 -106t18 -106t49.5 -79.5t74.5 -50t93 -17.5q38 0 72.5 7.5t65.5 25.5l2 -19q-30 -17 -65.5 -24.5t-74.5 -7.5
q-56 0 -102.5 19t-80.5 54t-53 85.5t-19 112.5zM261 588h-24l133 162h25z" />
    <glyph glyph-name="Ccircumflex" unicode="&#x108;" horiz-adv-x="591" 
d="M55 350q0 82 24.5 148.5t69.5 114t109 73.5t144 26q36 0 71.5 -5t64.5 -17l-2 -19q-31 13 -66 18t-67 5q-76 0 -136.5 -24.5t-102.5 -69.5t-64.5 -108.5t-22.5 -141.5t22.5 -141.5t64.5 -108.5t102.5 -69.5t136.5 -24.5q35 0 69.5 5t66.5 19l2 -19q-30 -12 -67 -17.5
t-72 -5.5q-80 0 -144.5 26t-109.5 73.5t-69 114t-24 148.5zM238 762h-24l141 162h24l141 -162h-24l-129 149z" />
    <glyph glyph-name="ccircumflex" unicode="&#x109;" horiz-adv-x="485" 
d="M50 259q0 62 19.5 112t53.5 85.5t79.5 54.5t97.5 19q40 0 74.5 -6.5t65.5 -20.5l-2 -19q-32 15 -66 21.5t-72 6.5q-48 0 -89.5 -17.5t-73 -50t-49.5 -79.5t-18 -106t18 -106t49.5 -79.5t74.5 -50t93 -17.5q38 0 72.5 7.5t65.5 25.5l2 -19q-30 -17 -65.5 -24.5t-74.5 -7.5
q-56 0 -102.5 19t-80.5 54t-53 85.5t-19 112.5zM155 588h-24l141 162h24l141 -162h-24l-129 149z" />
    <glyph glyph-name="Cdotaccent" unicode="&#x10a;" horiz-adv-x="591" 
d="M55 350q0 82 24.5 148.5t69.5 114t109 73.5t144 26q36 0 71.5 -5t64.5 -17l-2 -19q-31 13 -66 18t-67 5q-76 0 -136.5 -24.5t-102.5 -69.5t-64.5 -108.5t-22.5 -141.5t22.5 -141.5t64.5 -108.5t102.5 -69.5t136.5 -24.5q35 0 69.5 5t66.5 19l2 -19q-30 -12 -67 -17.5
t-72 -5.5q-80 0 -144.5 26t-109.5 73.5t-69 114t-24 148.5zM347 843q0 27 3 34.5t12 7.5t12 -7.5t3 -34.5t-3 -34.5t-12 -7.5t-12 7.5t-3 34.5z" />
    <glyph glyph-name="cdotaccent" unicode="&#x10b;" horiz-adv-x="485" 
d="M50 259q0 62 19.5 112t53.5 85.5t79.5 54.5t97.5 19q40 0 74.5 -6.5t65.5 -20.5l-2 -19q-32 15 -66 21.5t-72 6.5q-48 0 -89.5 -17.5t-73 -50t-49.5 -79.5t-18 -106t18 -106t49.5 -79.5t74.5 -50t93 -17.5q38 0 72.5 7.5t65.5 25.5l2 -19q-30 -17 -65.5 -24.5t-74.5 -7.5
q-56 0 -102.5 19t-80.5 54t-53 85.5t-19 112.5zM274 669q0 27 3 34.5t12 7.5t12 -7.5t3 -34.5t-3 -34.5t-12 -7.5t-12 7.5t-3 34.5z" />
    <glyph glyph-name="Ccaron" unicode="&#x10c;" horiz-adv-x="591" 
d="M55 350q0 82 24.5 148.5t69.5 114t109 73.5t144 26q36 0 71.5 -5t64.5 -17l-2 -19q-31 13 -66 18t-67 5q-76 0 -136.5 -24.5t-102.5 -69.5t-64.5 -108.5t-22.5 -141.5t22.5 -141.5t64.5 -108.5t102.5 -69.5t136.5 -24.5q35 0 69.5 5t66.5 19l2 -19q-30 -12 -67 -17.5
t-72 -5.5q-80 0 -144.5 26t-109.5 73.5t-69 114t-24 148.5zM367 775l129 149h24l-141 -162h-24l-141 162h24z" />
    <glyph glyph-name="ccaron" unicode="&#x10d;" horiz-adv-x="485" 
d="M50 259q0 62 19.5 112t53.5 85.5t79.5 54.5t97.5 19q40 0 74.5 -6.5t65.5 -20.5l-2 -19q-32 15 -66 21.5t-72 6.5q-48 0 -89.5 -17.5t-73 -50t-49.5 -79.5t-18 -106t18 -106t49.5 -79.5t74.5 -50t93 -17.5q38 0 72.5 7.5t65.5 25.5l2 -19q-30 -17 -65.5 -24.5t-74.5 -7.5
q-56 0 -102.5 19t-80.5 54t-53 85.5t-19 112.5zM283 601l129 149h24l-141 -162h-24l-141 162h24z" />
    <glyph glyph-name="Dcaron" unicode="&#x10e;" horiz-adv-x="660" 
d="M216 18q82 0 149.5 20t116.5 61t76 103.5t27 147.5t-27 147.5t-76 103.5t-116.5 61t-149.5 20h-106v-664h106zM90 700h126q89 0 161 -22.5t122.5 -66.5t78 -109.5t27.5 -151.5t-27.5 -151.5t-78 -109.5t-122.5 -66.5t-161 -22.5h-126v700zM260 775l129 149h24l-141 -162
h-24l-141 162h24z" />
    <glyph glyph-name="dcaron" unicode="&#x10f;" horiz-adv-x="612" 
d="M70 259q0 -61 17 -108t47 -79.5t70 -49t85 -16.5q51 0 96 21.5t74 58.5v346q-29 37 -74 58.5t-96 21.5q-45 0 -85 -17t-70 -49t-47 -79t-17 -108zM50 259q0 65 19 115.5t51 85t75.5 52.5t93.5 18q57 0 100 -21.5t70 -50.5v272h20v-730h-20v60q-27 -29 -70 -50.5
t-100 -21.5q-50 0 -93.5 18t-75.5 52.5t-51 85t-19 115.5zM582 683q0 -34 -12.5 -63t-32.5 -52l-14 19q29 41 29 92v21q0 27 3 34.5t12 7.5t12 -7.5t3 -34.5v-17z" />
    <glyph glyph-name="Dcroat" unicode="&#x110;" horiz-adv-x="665" 
d="M95 341h-75v18h75v341h126q89 0 161 -22.5t122.5 -66.5t78 -109.5t27.5 -151.5t-27.5 -151.5t-78 -109.5t-122.5 -66.5t-161 -22.5h-126v341zM221 18q82 0 149.5 20t116.5 61t76 103.5t27 147.5t-27 147.5t-76 103.5t-116.5 61t-149.5 20h-106v-323h204v-18h-204v-323
h106z" />
    <glyph glyph-name="dcroat" unicode="&#x111;" horiz-adv-x="564" 
d="M50 259q0 65 19 115.5t51 85t75.5 52.5t93.5 18q57 0 100 -21.5t70 -50.5v160h-205v18h205v94h20v-94h68v-18h-68v-618h-20v60q-27 -29 -70 -50.5t-100 -21.5q-50 0 -93.5 18t-75.5 52.5t-51 85t-19 115.5zM70 259q0 -61 17 -108t47 -79.5t70 -49t85 -16.5q51 0 96 21.5
t74 58.5v346q-29 37 -74 58.5t-96 21.5q-45 0 -85 -17t-70 -49t-47 -79t-17 -108z" />
    <glyph glyph-name="Emacron" unicode="&#x112;" horiz-adv-x="549" 
d="M90 700h405v-18h-385v-311h360v-18h-360v-335h394v-18h-414v700zM151 852h272v-18h-272v18z" />
    <glyph glyph-name="emacron" unicode="&#x113;" horiz-adv-x="530" 
d="M296 6q39 0 75.5 9.5t67.5 31.5l3 -20q-60 -39 -148 -39q-59 0 -104 21t-76.5 57.5t-47.5 86.5t-16 108q0 63 16 112.5t45 84.5t69 53.5t87 18.5t87 -19t69 -53.5t45.5 -82.5t16.5 -105v-18h-415q1 -53 16 -98t43 -78t70 -51.5t97 -18.5zM465 270q0 54 -15 98.5t-41 76.5
t-62.5 49.5t-79.5 17.5t-78.5 -16.5t-61.5 -48t-41 -76.5t-16 -101h395zM127 678h272v-18h-272v18z" />
    <glyph glyph-name="Ebreve" unicode="&#x114;" horiz-adv-x="549" 
d="M90 700h405v-18h-385v-311h360v-18h-360v-335h394v-18h-414v700zM289 765q-31 0 -58 9.5t-47.5 28.5t-33 47.5t-13.5 66.5h20q2 -66 38.5 -100t93.5 -34t93.5 34t38.5 100h20q-1 -38 -13.5 -66.5t-33 -47.5t-47.5 -28.5t-58 -9.5z" />
    <glyph glyph-name="ebreve" unicode="&#x115;" horiz-adv-x="530" 
d="M296 6q39 0 75.5 9.5t67.5 31.5l3 -20q-60 -39 -148 -39q-59 0 -104 21t-76.5 57.5t-47.5 86.5t-16 108q0 63 16 112.5t45 84.5t69 53.5t87 18.5t87 -19t69 -53.5t45.5 -82.5t16.5 -105v-18h-415q1 -53 16 -98t43 -78t70 -51.5t97 -18.5zM465 270q0 54 -15 98.5t-41 76.5
t-62.5 49.5t-79.5 17.5t-78.5 -16.5t-61.5 -48t-41 -76.5t-16 -101h395zM265 593q-31 0 -58 9.5t-47.5 28.5t-33 47.5t-13.5 66.5h20q2 -66 38.5 -100t93.5 -34t93.5 34t38.5 100h20q-1 -38 -13.5 -66.5t-33 -47.5t-47.5 -28.5t-58 -9.5z" />
    <glyph glyph-name="Edotaccent" unicode="&#x116;" horiz-adv-x="549" 
d="M90 700h405v-18h-385v-311h360v-18h-360v-335h394v-18h-414v700zM273 843q0 27 3 34.5t12 7.5t12 -7.5t3 -34.5t-3 -34.5t-12 -7.5t-12 7.5t-3 34.5z" />
    <glyph glyph-name="edotaccent" unicode="&#x117;" horiz-adv-x="530" 
d="M296 6q39 0 75.5 9.5t67.5 31.5l3 -20q-60 -39 -148 -39q-59 0 -104 21t-76.5 57.5t-47.5 86.5t-16 108q0 63 16 112.5t45 84.5t69 53.5t87 18.5t87 -19t69 -53.5t45.5 -82.5t16.5 -105v-18h-415q1 -53 16 -98t43 -78t70 -51.5t97 -18.5zM465 270q0 54 -15 98.5t-41 76.5
t-62.5 49.5t-79.5 17.5t-78.5 -16.5t-61.5 -48t-41 -76.5t-16 -101h395zM245 669q0 27 3 34.5t12 7.5t12 -7.5t3 -34.5t-3 -34.5t-12 -7.5t-12 7.5t-3 34.5z" />
    <glyph glyph-name="Eogonek" unicode="&#x118;" horiz-adv-x="549" 
d="M90 700h405v-18h-385v-311h360v-18h-360v-335h394v-18h-51q-86 -77 -86 -144q0 -57 73 -57q12 0 22.5 1t20.5 5v-18q-8 -3 -20 -4.5t-23 -1.5q-48 0 -70.5 20.5t-22.5 53.5q0 38 24 75t62 70h-343v700z" />
    <glyph glyph-name="eogonek" unicode="&#x119;" horiz-adv-x="530" 
d="M296 6q39 0 75.5 9.5t67.5 31.5l3 -20q-38 -25 -88 -34q-78 -72 -78 -137q0 -57 73 -57q12 0 22.5 1t20.5 5v-18q-8 -3 -20 -4.5t-23 -1.5q-48 0 -70.5 20.5t-22.5 53.5q0 35 20 69.5t54 65.5q-8 -1 -17.5 -1.5t-18.5 -0.5q-59 0 -104 21t-76.5 57.5t-47.5 86.5t-16 108
q0 63 16 112.5t45 84.5t69 53.5t87 18.5t87 -19t69 -53.5t45.5 -82.5t16.5 -105v-18h-415q1 -53 16 -98t43 -78t70 -51.5t97 -18.5zM465 270q0 54 -15 98.5t-41 76.5t-62.5 49.5t-79.5 17.5t-78.5 -16.5t-61.5 -48t-41 -76.5t-16 -101h395z" />
    <glyph glyph-name="Ecaron" unicode="&#x11a;" horiz-adv-x="549" 
d="M90 700h405v-18h-385v-311h360v-18h-360v-335h394v-18h-414v700zM288 775l129 149h24l-141 -162h-24l-141 162h24z" />
    <glyph glyph-name="ecaron" unicode="&#x11b;" horiz-adv-x="530" 
d="M296 6q39 0 75.5 9.5t67.5 31.5l3 -20q-60 -39 -148 -39q-59 0 -104 21t-76.5 57.5t-47.5 86.5t-16 108q0 63 16 112.5t45 84.5t69 53.5t87 18.5t87 -19t69 -53.5t45.5 -82.5t16.5 -105v-18h-415q1 -53 16 -98t43 -78t70 -51.5t97 -18.5zM465 270q0 54 -15 98.5t-41 76.5
t-62.5 49.5t-79.5 17.5t-78.5 -16.5t-61.5 -48t-41 -76.5t-16 -101h395zM263 601l129 149h24l-141 -162h-24l-141 162h24z" />
    <glyph glyph-name="Gcircumflex" unicode="&#x11c;" horiz-adv-x="686" 
d="M424 6q99 0 162 28v302h-228v18h248v-333q-42 -17 -85 -25t-97 -8q-83 0 -151 27.5t-116.5 76t-75 114.5t-26.5 144t26 144t73 114.5t112.5 76t144.5 27.5q54 0 98.5 -8.5t79.5 -23.5l-2 -19q-37 17 -81 25t-95 8q-73 0 -134.5 -26t-106.5 -72t-70 -109t-25 -137
t25.5 -136.5t71.5 -109t110 -72.5t142 -26zM246 762h-24l141 162h24l141 -162h-24l-129 149z" />
    <glyph glyph-name="gcircumflex" unicode="&#x11d;" horiz-adv-x="559" 
d="M479 25q0 -120 -49.5 -172.5t-158.5 -52.5q-42 0 -87 10t-79 27l2 24q35 -21 79.5 -31t84.5 -10q100 0 144 47.5t44 157.5v35q-27 -29 -70 -50.5t-100 -21.5q-50 0 -93.5 18t-75.5 52.5t-51 85t-19 115.5t19 115.5t51 85t75.5 52.5t93.5 18q57 0 100 -21.5t70 -50.5v60
h20v-493zM70 259q0 -61 17 -108t47 -79.5t70 -49t85 -16.5q51 0 96 21.5t74 58.5v346q-29 37 -74 58.5t-96 21.5q-45 0 -85 -17t-70 -49t-47 -79t-17 -108zM158 588h-24l141 162h24l141 -162h-24l-129 149z" />
    <glyph glyph-name="Gbreve" unicode="&#x11e;" horiz-adv-x="686" 
d="M424 6q99 0 162 28v302h-228v18h248v-333q-42 -17 -85 -25t-97 -8q-83 0 -151 27.5t-116.5 76t-75 114.5t-26.5 144t26 144t73 114.5t112.5 76t144.5 27.5q54 0 98.5 -8.5t79.5 -23.5l-2 -19q-37 17 -81 25t-95 8q-73 0 -134.5 -26t-106.5 -72t-70 -109t-25 -137
t25.5 -136.5t71.5 -109t110 -72.5t142 -26zM376 765q-31 0 -58 9.5t-47.5 28.5t-33 47.5t-13.5 66.5h20q2 -66 38.5 -100t93.5 -34t93.5 34t38.5 100h20q-1 -38 -13.5 -66.5t-33 -47.5t-47.5 -28.5t-58 -9.5z" />
    <glyph glyph-name="gbreve" unicode="&#x11f;" horiz-adv-x="559" 
d="M479 25q0 -120 -49.5 -172.5t-158.5 -52.5q-42 0 -87 10t-79 27l2 24q35 -21 79.5 -31t84.5 -10q100 0 144 47.5t44 157.5v35q-27 -29 -70 -50.5t-100 -21.5q-50 0 -93.5 18t-75.5 52.5t-51 85t-19 115.5t19 115.5t51 85t75.5 52.5t93.5 18q57 0 100 -21.5t70 -50.5v60
h20v-493zM70 259q0 -61 17 -108t47 -79.5t70 -49t85 -16.5q51 0 96 21.5t74 58.5v346q-29 37 -74 58.5t-96 21.5q-45 0 -85 -17t-70 -49t-47 -79t-17 -108zM288 593q-31 0 -58 9.5t-47.5 28.5t-33 47.5t-13.5 66.5h20q2 -66 38.5 -100t93.5 -34t93.5 34t38.5 100h20
q-1 -38 -13.5 -66.5t-33 -47.5t-47.5 -28.5t-58 -9.5z" />
    <glyph glyph-name="Gdotaccent" unicode="&#x120;" horiz-adv-x="686" 
d="M424 6q99 0 162 28v302h-228v18h248v-333q-42 -17 -85 -25t-97 -8q-83 0 -151 27.5t-116.5 76t-75 114.5t-26.5 144t26 144t73 114.5t112.5 76t144.5 27.5q54 0 98.5 -8.5t79.5 -23.5l-2 -19q-37 17 -81 25t-95 8q-73 0 -134.5 -26t-106.5 -72t-70 -109t-25 -137
t25.5 -136.5t71.5 -109t110 -72.5t142 -26zM362 843q0 27 3 34.5t12 7.5t12 -7.5t3 -34.5t-3 -34.5t-12 -7.5t-12 7.5t-3 34.5z" />
    <glyph glyph-name="gdotaccent" unicode="&#x121;" horiz-adv-x="559" 
d="M479 25q0 -120 -49.5 -172.5t-158.5 -52.5q-42 0 -87 10t-79 27l2 24q35 -21 79.5 -31t84.5 -10q100 0 144 47.5t44 157.5v35q-27 -29 -70 -50.5t-100 -21.5q-50 0 -93.5 18t-75.5 52.5t-51 85t-19 115.5t19 115.5t51 85t75.5 52.5t93.5 18q57 0 100 -21.5t70 -50.5v60
h20v-493zM70 259q0 -61 17 -108t47 -79.5t70 -49t85 -16.5q51 0 96 21.5t74 58.5v346q-29 37 -74 58.5t-96 21.5q-45 0 -85 -17t-70 -49t-47 -79t-17 -108zM261 669q0 27 3 34.5t12 7.5t12 -7.5t3 -34.5t-3 -34.5t-12 -7.5t-12 7.5t-3 34.5z" />
    <glyph glyph-name="Gcommaaccent" unicode="&#x122;" horiz-adv-x="686" 
d="M424 6q99 0 162 28v302h-228v18h248v-333q-42 -17 -85 -25t-97 -8q-83 0 -151 27.5t-116.5 76t-75 114.5t-26.5 144t26 144t73 114.5t112.5 76t144.5 27.5q54 0 98.5 -8.5t79.5 -23.5l-2 -19q-37 17 -81 25t-95 8q-73 0 -134.5 -26t-106.5 -72t-70 -109t-25 -137
t25.5 -136.5t71.5 -109t110 -72.5t142 -26zM436 -120q0 -34 -12.5 -63t-32.5 -52l-14 19q29 41 29 92v21q0 27 3 34.5t12 7.5t12 -7.5t3 -34.5v-17z" />
    <glyph glyph-name="gcommaaccent" unicode="&#x123;" horiz-adv-x="559" 
d="M479 25q0 -120 -49.5 -172.5t-158.5 -52.5q-42 0 -87 10t-79 27l2 24q35 -21 79.5 -31t84.5 -10q100 0 144 47.5t44 157.5v35q-27 -29 -70 -50.5t-100 -21.5q-50 0 -93.5 18t-75.5 52.5t-51 85t-19 115.5t19 115.5t51 85t75.5 52.5t93.5 18q57 0 100 -21.5t70 -50.5v60
h20v-493zM70 259q0 -61 17 -108t47 -79.5t70 -49t85 -16.5q51 0 96 21.5t74 58.5v346q-29 37 -74 58.5t-96 21.5q-45 0 -85 -17t-70 -49t-47 -79t-17 -108zM261.025 653.985q0 33.9961 12.498 62.9922q12.499 28.9971 32.4961 51.9941l13.999 -18.998
q-28.9971 -40.9951 -28.9971 -91.9893v-20.9971q0 -26.9971 -2.99902 -34.4961q-3 -7.49902 -11.999 -7.49902t-11.998 7.49902q-3 7.49902 -3 34.4961v16.998z" />
    <glyph glyph-name="Hcircumflex" unicode="&#x124;" horiz-adv-x="677" 
d="M90 700h20v-317h457v317h20v-700h-20v365h-457v-365h-20v700zM209 762h-24l141 162h24l141 -162h-24l-129 149z" />
    <glyph glyph-name="hcircumflex" unicode="&#x125;" horiz-adv-x="559" 
d="M277 512q-51 0 -98 -22t-79 -61v-429h-20v730h20v-275q35 35 80 55t97 20q93 0 150 -57.5t57 -167.5v-305h-20v303q0 102 -50 155.5t-137 53.5zM58 762h-24l141 162h24l141 -162h-24l-129 149z" />
    <glyph glyph-name="Hbar" unicode="&#x126;" horiz-adv-x="687" 
d="M45 577h50v123h20v-123h457v123h20v-123h50v-18h-50v-559h-20v365h-457v-365h-20v559h-50v18zM572 383v176h-457v-176h457z" />
    <glyph glyph-name="hbar" unicode="&#x127;" horiz-adv-x="564" 
d="M282 512q-51 0 -98 -22t-79 -61v-429h-20v618h-68v18h68v94h20v-94h205v-18h-205v-163q35 35 80 55t97 20q93 0 150 -57.5t57 -167.5v-305h-20v303q0 102 -50 155.5t-137 53.5z" />
    <glyph glyph-name="Itilde" unicode="&#x128;" horiz-adv-x="210" 
d="M115 700v-700h-20v700h20zM180 775q-27 0 -45.5 18t-33.5 40t-31 40t-38 18q-23 0 -40.5 -25.5t-17.5 -88.5h-20q0 71 22.5 101.5t55.5 30.5q28 0 46 -18t33 -40t30.5 -40t38.5 -18t40.5 25.5t17.5 88.5h20q0 -71 -22.5 -101.5t-55.5 -30.5z" />
    <glyph glyph-name="itilde" unicode="&#x129;" horiz-adv-x="190" 
d="M85 518h20v-518h-20v518zM170 601q-27 0 -45.5 18t-33.5 40t-31 40t-38 18q-23 0 -40.5 -25.5t-17.5 -88.5h-20q0 71 22.5 101.5t55.5 30.5q28 0 46 -18t33 -40t30.5 -40t38.5 -18t40.5 25.5t17.5 88.5h20q0 -71 -22.5 -101.5t-55.5 -30.5z" />
    <glyph glyph-name="Imacron" unicode="&#x12a;" horiz-adv-x="210" 
d="M115 700v-700h-20v700h20zM-30 852h272v-18h-272v18z" />
    <glyph glyph-name="imacron" unicode="&#x12b;" horiz-adv-x="190" 
d="M85 518h20v-518h-20v518zM-40 678h272v-18h-272v18z" />
    <glyph glyph-name="Ibreve" unicode="&#x12c;" horiz-adv-x="210" 
d="M115 700v-700h-20v700h20zM106 765q-31 0 -58 9.5t-47.5 28.5t-33 47.5t-13.5 66.5h20q2 -66 38.5 -100t93.5 -34t93.5 34t38.5 100h20q-1 -38 -13.5 -66.5t-33 -47.5t-47.5 -28.5t-58 -9.5z" />
    <glyph glyph-name="ibreve" unicode="&#x12d;" horiz-adv-x="190" 
d="M85 518h20v-518h-20v518zM96 593q-31 0 -58 9.5t-47.5 28.5t-33 47.5t-13.5 66.5h20q2 -66 38.5 -100t93.5 -34t93.5 34t38.5 100h20q-1 -38 -13.5 -66.5t-33 -47.5t-47.5 -28.5t-58 -9.5z" />
    <glyph glyph-name="Iogonek" unicode="&#x12e;" horiz-adv-x="210" 
d="M95 700h20v-700q-86 -77 -86 -144q0 -57 73 -57q12 0 22.5 1t20.5 5v-18q-8 -3 -20 -4.5t-23 -1.5q-48 0 -70.5 20.5t-22.5 53.5q0 38 24 75t62 70v700z" />
    <glyph glyph-name="iogonek" unicode="&#x12f;" horiz-adv-x="190" 
d="M85 518h20v-518q-86 -77 -86 -144q0 -57 73 -57q12 0 22.5 1t20.5 5v-18q-8 -3 -20 -4.5t-23 -1.5q-48 0 -70.5 20.5t-22.5 53.5q0 38 24 75t62 70v518zM80 688q0 27 3 34.5t12 7.5t12 -7.5t3 -34.5t-3 -34.5t-12 -7.5t-12 7.5t-3 34.5z" />
    <glyph glyph-name="Idotaccent" unicode="&#x130;" horiz-adv-x="210" 
d="M115 700v-700h-20v700h20zM91 843q0 27 3 34.5t12 7.5t12 -7.5t3 -34.5t-3 -34.5t-12 -7.5t-12 7.5t-3 34.5z" />
    <glyph glyph-name="dotlessi" unicode="&#x131;" horiz-adv-x="190" 
d="M85 518h20v-518h-20v518z" />
    <glyph glyph-name="IJ" unicode="&#x132;" horiz-adv-x="575" 
d="M111 700v-700h-20v700h20zM465 700h20v-482q0 -66 -14.5 -110.5t-40 -71t-59.5 -37.5t-73 -11q-30 0 -64 8t-60 23l2 20q28 -17 61 -25t60 -8q39 0 70 11.5t53 37t33.5 65.5t11.5 96v484z" />
    <glyph glyph-name="ij" unicode="&#x133;" horiz-adv-x="402" 
d="M81 518h20v-518h-20v518zM76 688q0 27 3 34.5t12 7.5t12 -7.5t3 -34.5t-3 -34.5t-12 -7.5t-12 7.5t-3 34.5zM302 518h20v-565q0 -45 -9.5 -74.5t-27 -47t-41 -24.5t-51.5 -7q-22 0 -41 6l2 19q14 -7 39 -7q54 0 81.5 30t27.5 103v567zM297 688q0 27 3 34.5t12 7.5
t12 -7.5t3 -34.5t-3 -34.5t-12 -7.5t-12 7.5t-3 34.5z" />
    <glyph glyph-name="Jcircumflex" unicode="&#x134;" horiz-adv-x="421" 
d="M311 700h20v-482q0 -66 -14.5 -110.5t-40 -71t-59.5 -37.5t-73 -11q-30 0 -64 8t-60 23l2 20q28 -17 61 -25t60 -8q39 0 70 11.5t53 37t33.5 65.5t11.5 96v484zM192 762h-24l141 162h24l141 -162h-24l-129 149z" />
    <glyph glyph-name="jcircumflex" unicode="&#x135;" horiz-adv-x="200" 
d="M100 518h20v-565q0 -45 -9.5 -74.5t-27 -47t-41 -24.5t-51.5 -7q-22 0 -41 6l2 19q14 -7 39 -7q54 0 81.5 30t27.5 103v567zM-18 588h-24l141 162h24l141 -162h-24l-129 149z" />
    <glyph glyph-name="Kcommaaccent" unicode="&#x136;" horiz-adv-x="560" 
d="M517 700l-380 -326l423 -374h-30l-420 370v-370h-20v700h20v-323l377 323h30zM309 -120q0 -34 -12.5 -63t-32.5 -52l-14 19q29 41 29 92v21q0 27 3 34.5t12 7.5t12 -7.5t3 -34.5v-17z" />
    <glyph glyph-name="kcommaaccent" unicode="&#x137;" horiz-adv-x="489" 
d="M100 730v-433l316 221h32l-320 -225l341 -293h-30l-339 290v-290h-20v730h20zM258 -120q0 -34 -12.5 -63t-32.5 -52l-14 19q29 41 29 92v21q0 27 3 34.5t12 7.5t12 -7.5t3 -34.5v-17z" />
    <glyph glyph-name="kgreenlandic" unicode="&#x138;" horiz-adv-x="489" 
d="M100 518v-244l318 244h30l-321 -247l342 -271h-31l-338 268v-268h-20v518h20z" />
    <glyph glyph-name="Lacute" unicode="&#x139;" horiz-adv-x="542" 
d="M90 700h20v-682h412v-18h-432v700zM105 762h-24l133 162h25z" />
    <glyph glyph-name="lacute" unicode="&#x13a;" horiz-adv-x="190" 
d="M85 730h20v-730h-20v730zM95 762h-24l133 162h25z" />
    <glyph glyph-name="Lcommaaccent" unicode="&#x13b;" horiz-adv-x="542" 
d="M90 700h20v-682h412v-18h-432v700zM338 -120q0 -34 -12.5 -63t-32.5 -52l-14 19q29 41 29 92v21q0 27 3 34.5t12 7.5t12 -7.5t3 -34.5v-17z" />
    <glyph glyph-name="lcommaaccent" unicode="&#x13c;" horiz-adv-x="190" 
d="M85 730h20v-730h-20v730zM110 -120q0 -34 -12.5 -63t-32.5 -52l-14 19q29 41 29 92v21q0 27 3 34.5t12 7.5t12 -7.5t3 -34.5v-17z" />
    <glyph glyph-name="Lcaron" unicode="&#x13d;" horiz-adv-x="542" 
d="M90 700h20v-682h412v-18h-432v700zM395 683q0 -34 -12.5 -63t-32.5 -52l-14 19q29 41 29 92v21q0 27 3 34.5t12 7.5t12 -7.5t3 -34.5v-17z" />
    <glyph glyph-name="lcaron" unicode="&#x13e;" horiz-adv-x="238" 
d="M85 730h20v-730h-20v730zM208 683q0 -34 -12.5 -63t-32.5 -52l-14 19q29 41 29 92v21q0 27 3 34.5t12 7.5t12 -7.5t3 -34.5v-17z" />
    <glyph glyph-name="Ldot" unicode="&#x13f;" horiz-adv-x="542" 
d="M90 700h20v-682h412v-18h-432v700zM355 380q0 27 3 34.5t12 7.5t12 -7.5t3 -34.5t-3 -34.5t-12 -7.5t-12 7.5t-3 34.5z" />
    <glyph glyph-name="ldot" unicode="&#x140;" horiz-adv-x="301" 
d="M85 730h20v-730h-20v730zM251 380q0 27 3 34.5t12 7.5t12 -7.5t3 -34.5t-3 -34.5t-12 -7.5t-12 7.5t-3 34.5z" />
    <glyph glyph-name="Lslash" unicode="&#x141;" horiz-adv-x="518" 
d="M96 700h20v-354l302 203l11 -16l-313 -211v-304h412v-18h-432v308l-96 -64l-10 17l106 71v368z" />
    <glyph glyph-name="lslash" unicode="&#x142;" horiz-adv-x="325" 
d="M140 730h20v-332l162 120l13 -16l-175 -130v-372h-20v357l-137 -101l-13 16l150 111v347z" />
    <glyph glyph-name="Nacute" unicode="&#x143;" horiz-adv-x="688" 
d="M90 700h24l464 -671v671h20v-700h-24l-464 670v-670h-20v700zM354 762h-24l133 162h25z" />
    <glyph glyph-name="nacute" unicode="&#x144;" horiz-adv-x="559" 
d="M277 512q-51 0 -98 -22t-79 -61v-429h-20v518h20v-63q35 35 80 55t97 20q93 0 150 -57.5t57 -167.5v-305h-20v303q0 102 -50 155.5t-137 53.5zM257 588h-24l133 162h25z" />
    <glyph glyph-name="Ncommaaccent" unicode="&#x145;" horiz-adv-x="688" 
d="M90 700h24l464 -671v671h20v-700h-24l-464 670v-670h-20v700zM364 -120q0 -34 -12.5 -63t-32.5 -52l-14 19q29 41 29 92v21q0 27 3 34.5t12 7.5t12 -7.5t3 -34.5v-17z" />
    <glyph glyph-name="ncommaaccent" unicode="&#x146;" horiz-adv-x="559" 
d="M277 512q-51 0 -98 -22t-79 -61v-429h-20v518h20v-63q35 35 80 55t97 20q93 0 150 -57.5t57 -167.5v-305h-20v303q0 102 -50 155.5t-137 53.5zM295 -120q0 -34 -12.5 -63t-32.5 -52l-14 19q29 41 29 92v21q0 27 3 34.5t12 7.5t12 -7.5t3 -34.5v-17z" />
    <glyph glyph-name="Ncaron" unicode="&#x147;" horiz-adv-x="688" 
d="M90 700h24l464 -671v671h20v-700h-24l-464 670v-670h-20v700zM339 775l129 149h24l-141 -162h-24l-141 162h24z" />
    <glyph glyph-name="ncaron" unicode="&#x148;" horiz-adv-x="559" 
d="M277 512q-51 0 -98 -22t-79 -61v-429h-20v518h20v-63q35 35 80 55t97 20q93 0 150 -57.5t57 -167.5v-305h-20v303q0 102 -50 155.5t-137 53.5zM276 601l129 149h24l-141 -162h-24l-141 162h24z" />
    <glyph glyph-name="napostrophe" unicode="&#x149;" horiz-adv-x="580" 
d="M298 512q-51 0 -98 -22t-79 -61v-429h-20v518h20v-63q35 35 80 55t97 20q93 0 150 -57.5t57 -167.5v-305h-20v303q0 102 -50 155.5t-137 53.5zM90 683q0 -34 -12.5 -63t-32.5 -52l-14 19q29 41 29 92v21q0 27 3 34.5t12 7.5t12 -7.5t3 -34.5v-17z" />
    <glyph glyph-name="Eng" unicode="&#x14a;" horiz-adv-x="688" 
d="M110 670v-670h-20v700h24l464 -671v671h20v-715q0 -101 -31.5 -143t-89.5 -42q-35 0 -63 9l3 19q29 -10 60 -10q49 0 75 39t26 138z" />
    <glyph glyph-name="eng" unicode="&#x14b;" horiz-adv-x="559" 
d="M464 303q0 102 -50 155.5t-137 53.5q-51 0 -98 -22t-79 -61v-429h-20v518h20v-63q35 35 80 55t97 20q93 0 150 -57.5t57 -167.5v-320q0 -101 -30 -143t-91 -42q-34 0 -63 8l3 19q13 -5 28.5 -7t31.5 -2q56 0 78.5 38.5t22.5 123.5v323z" />
    <glyph glyph-name="Omacron" unicode="&#x14c;" horiz-adv-x="696" 
d="M641 350q0 -77 -20 -143.5t-58 -115t-92.5 -76t-122.5 -27.5t-122.5 27.5t-92.5 76t-58 115t-20 143.5t20 143.5t58 115t92.5 76t122.5 27.5t122.5 -27.5t92.5 -76t58 -115t20 -143.5zM75 350q0 -74 18.5 -136.5t54 -109t86 -72.5t114.5 -26t115 26t86 72.5t53.5 109
t18.5 136.5q0 73 -18.5 136t-53.5 109.5t-86 72.5t-115 26t-114.5 -26t-86 -72.5t-54 -109.5t-18.5 -136zM212 852h272v-18h-272v18z" />
    <glyph glyph-name="omacron" unicode="&#x14d;" horiz-adv-x="566" 
d="M50 259q0 59 17.5 109t49 86t74 56t92.5 20t92.5 -20t74 -56t49 -86t17.5 -109t-17.5 -109t-49 -86t-74 -56t-92.5 -20t-92.5 20t-74 56t-49 86t-17.5 109zM70 259q0 -57 16 -103.5t44.5 -80t67.5 -51.5t85 -18t85 18t67.5 51.5t44.5 80t16 103.5t-16 103.5t-44.5 80
t-67.5 51.5t-85 18t-85 -18t-67.5 -51.5t-44.5 -80t-16 -103.5zM147 678h272v-18h-272v18z" />
    <glyph glyph-name="Obreve" unicode="&#x14e;" horiz-adv-x="696" 
d="M641 350q0 -77 -20 -143.5t-58 -115t-92.5 -76t-122.5 -27.5t-122.5 27.5t-92.5 76t-58 115t-20 143.5t20 143.5t58 115t92.5 76t122.5 27.5t122.5 -27.5t92.5 -76t58 -115t20 -143.5zM75 350q0 -74 18.5 -136.5t54 -109t86 -72.5t114.5 -26t115 26t86 72.5t53.5 109
t18.5 136.5q0 73 -18.5 136t-53.5 109.5t-86 72.5t-115 26t-114.5 -26t-86 -72.5t-54 -109.5t-18.5 -136zM348 765q-31 0 -58 9.5t-47.5 28.5t-33 47.5t-13.5 66.5h20q2 -66 38.5 -100t93.5 -34t93.5 34t38.5 100h20q-1 -38 -13.5 -66.5t-33 -47.5t-47.5 -28.5t-58 -9.5z
" />
    <glyph glyph-name="obreve" unicode="&#x14f;" horiz-adv-x="566" 
d="M50 259q0 59 17.5 109t49 86t74 56t92.5 20t92.5 -20t74 -56t49 -86t17.5 -109t-17.5 -109t-49 -86t-74 -56t-92.5 -20t-92.5 20t-74 56t-49 86t-17.5 109zM70 259q0 -57 16 -103.5t44.5 -80t67.5 -51.5t85 -18t85 18t67.5 51.5t44.5 80t16 103.5t-16 103.5t-44.5 80
t-67.5 51.5t-85 18t-85 -18t-67.5 -51.5t-44.5 -80t-16 -103.5zM283 593q-31 0 -58 9.5t-47.5 28.5t-33 47.5t-13.5 66.5h20q2 -66 38.5 -100t93.5 -34t93.5 34t38.5 100h20q-1 -38 -13.5 -66.5t-33 -47.5t-47.5 -28.5t-58 -9.5z" />
    <glyph glyph-name="Ohungarumlaut" unicode="&#x150;" horiz-adv-x="696" 
d="M641 350q0 -77 -20 -143.5t-58 -115t-92.5 -76t-122.5 -27.5t-122.5 27.5t-92.5 76t-58 115t-20 143.5t20 143.5t58 115t92.5 76t122.5 27.5t122.5 -27.5t92.5 -76t58 -115t20 -143.5zM75 350q0 -74 18.5 -136.5t54 -109t86 -72.5t114.5 -26t115 26t86 72.5t53.5 109
t18.5 136.5q0 73 -18.5 136t-53.5 109.5t-86 72.5t-115 26t-114.5 -26t-86 -72.5t-54 -109.5t-18.5 -136zM259 762h-24l133 162h25zM402 762h-24l133 162h25z" />
    <glyph glyph-name="ohungarumlaut" unicode="&#x151;" horiz-adv-x="566" 
d="M50 259q0 59 17.5 109t49 86t74 56t92.5 20t92.5 -20t74 -56t49 -86t17.5 -109t-17.5 -109t-49 -86t-74 -56t-92.5 -20t-92.5 20t-74 56t-49 86t-17.5 109zM70 259q0 -57 16 -103.5t44.5 -80t67.5 -51.5t85 -18t85 18t67.5 51.5t44.5 80t16 103.5t-16 103.5t-44.5 80
t-67.5 51.5t-85 18t-85 -18t-67.5 -51.5t-44.5 -80t-16 -103.5zM206 588h-24l133 162h25zM349 588h-24l133 162h25z" />
    <glyph glyph-name="OE" unicode="&#x152;" horiz-adv-x="809" 
d="M55 350q0 82 24.5 147t69.5 110t107.5 69t138.5 24h360v-18h-332v-311h307v-18h-307v-335h341v-18h-369q-76 0 -138.5 24t-107.5 69t-69.5 110t-24.5 147zM403 682h-7q-72 0 -131 -22.5t-100.5 -65.5t-64.5 -104.5t-23 -139.5t23 -139.5t64.5 -104.5t100.5 -65.5
t131 -22.5h7v664z" />
    <glyph glyph-name="oe" unicode="&#x153;" horiz-adv-x="888" 
d="M50 259q0 61 15 111t42.5 85.5t65.5 55t85 19.5q36 0 68 -13t57.5 -37t44 -57.5t27.5 -74.5q16 85 65 133.5t124 48.5q46 0 83 -19t63 -53t39.5 -82t13.5 -105v-19h-377q2 -65 18.5 -111.5t44 -76.5t64 -44t78.5 -14q32 0 66 10t60 31l3 -20q-26 -20 -59.5 -29.5
t-69.5 -9.5q-45 0 -81.5 14.5t-63.5 39.5t-45 59.5t-25 74.5q-8 -42 -26 -77t-43.5 -59.5t-58.5 -38t-70 -13.5q-47 0 -85 19.5t-65.5 55t-42.5 85.5t-15 111zM822 270q0 53 -12 97.5t-35 76.5t-56 50t-75 18q-41 0 -73.5 -17.5t-56 -49t-36 -76t-12.5 -99.5h356zM70 259
q0 -59 14 -106t38.5 -79.5t59 -50t76.5 -17.5t76.5 17.5t59 50t38.5 79.5t14 106t-14 106t-38.5 79.5t-59 50t-76.5 17.5t-76.5 -17.5t-59 -50t-38.5 -79.5t-14 -106z" />
    <glyph glyph-name="Racute" unicode="&#x154;" horiz-adv-x="582" 
d="M522 509q0 -71 -42.5 -118.5t-121.5 -64.5l204 -326h-23l-201 323q-16 -2 -32.5 -3.5t-34.5 -1.5h-161v-318h-20v700h181q120 0 185.5 -51.5t65.5 -139.5zM502 509q0 79 -59.5 126t-171.5 47h-161v-346h161q112 0 171.5 47t59.5 126zM253 762h-24l133 162h25z" />
    <glyph glyph-name="racute" unicode="&#x155;" horiz-adv-x="350" 
d="M286 512q-118 0 -186 -125v-387h-20v518h20v-102q27 49 75.5 81.5t108.5 32.5q30 0 56 -8l-4 -19q-21 9 -50 9zM154 588h-24l133 162h25z" />
    <glyph glyph-name="Rcommaaccent" unicode="&#x156;" horiz-adv-x="582" 
d="M522 509q0 -71 -42.5 -118.5t-121.5 -64.5l204 -326h-23l-201 323q-16 -2 -32.5 -3.5t-34.5 -1.5h-161v-318h-20v700h181q120 0 185.5 -51.5t65.5 -139.5zM502 509q0 79 -59.5 126t-171.5 47h-161v-346h161q112 0 171.5 47t59.5 126zM317 -120q0 -34 -12.5 -63t-32.5 -52
l-14 19q29 41 29 92v21q0 27 3 34.5t12 7.5t12 -7.5t3 -34.5v-17z" />
    <glyph glyph-name="rcommaaccent" unicode="&#x157;" horiz-adv-x="350" 
d="M286 512q-118 0 -186 -125v-387h-20v518h20v-102q27 49 75.5 81.5t108.5 32.5q30 0 56 -8l-4 -19q-21 9 -50 9zM107 -120q0 -34 -12.5 -63t-32.5 -52l-14 19q29 41 29 92v21q0 27 3 34.5t12 7.5t12 -7.5t3 -34.5v-17z" />
    <glyph glyph-name="Rcaron" unicode="&#x158;" horiz-adv-x="582" 
d="M522 509q0 -71 -42.5 -118.5t-121.5 -64.5l204 -326h-23l-201 323q-16 -2 -32.5 -3.5t-34.5 -1.5h-161v-318h-20v700h181q120 0 185.5 -51.5t65.5 -139.5zM502 509q0 79 -59.5 126t-171.5 47h-161v-346h161q112 0 171.5 47t59.5 126zM265 775l129 149h24l-141 -162h-24
l-141 162h24z" />
    <glyph glyph-name="rcaron" unicode="&#x159;" horiz-adv-x="359" 
d="M286 512q-118 0 -186 -125v-387h-20v518h20v-102q27 49 75.5 81.5t108.5 32.5q30 0 56 -8l-4 -19q-21 9 -50 9zM201 601l129 149h24l-141 -162h-24l-141 162h24z" />
    <glyph glyph-name="Sacute" unicode="&#x15a;" horiz-adv-x="524" 
d="M423 670q-31 13 -65.5 18.5t-74.5 5.5q-47 0 -84.5 -10.5t-63.5 -30t-40.5 -46t-14.5 -57.5q0 -58 40.5 -100t136.5 -73q57 -19 97 -39.5t65.5 -45.5t37.5 -55.5t12 -68.5q0 -81 -60 -130.5t-168 -49.5q-45 0 -92 11.5t-83 31.5l2 20q38 -22 83 -33.5t90 -11.5
q103 0 155.5 45.5t52.5 117.5q0 33 -11 60t-35 50t-62 42.5t-93 37.5q-99 32 -143.5 77t-44.5 114q0 37 16.5 67t45.5 51t70 32.5t91 11.5q40 0 76 -5.5t66 -16.5zM253 762h-24l133 162h25z" />
    <glyph glyph-name="sacute" unicode="&#x15b;" horiz-adv-x="437" 
d="M201 -12q-35 0 -76.5 9t-74.5 27l3 21q35 -20 74.5 -29.5t72.5 -9.5q81 0 124 32.5t43 86.5q0 46 -35 79.5t-121 55.5q-82 20 -120 55.5t-38 89.5q0 29 12.5 52t34.5 39.5t53 25t67 8.5q34 0 70 -7.5t65 -20.5l-3 -20q-31 16 -65.5 23t-66.5 7q-67 0 -107 -29t-40 -78
q0 -45 34 -76t115 -52q47 -12 78.5 -28t51 -35t27.5 -41.5t8 -47.5q0 -34 -14 -59.5t-39 -43t-59 -26t-74 -8.5zM207 588h-24l133 162h25z" />
    <glyph glyph-name="Scircumflex" unicode="&#x15c;" horiz-adv-x="524" 
d="M423 670q-31 13 -65.5 18.5t-74.5 5.5q-47 0 -84.5 -10.5t-63.5 -30t-40.5 -46t-14.5 -57.5q0 -58 40.5 -100t136.5 -73q57 -19 97 -39.5t65.5 -45.5t37.5 -55.5t12 -68.5q0 -81 -60 -130.5t-168 -49.5q-45 0 -92 11.5t-83 31.5l2 20q38 -22 83 -33.5t90 -11.5
q103 0 155.5 45.5t52.5 117.5q0 33 -11 60t-35 50t-62 42.5t-93 37.5q-99 32 -143.5 77t-44.5 114q0 37 16.5 67t45.5 51t70 32.5t91 11.5q40 0 76 -5.5t66 -16.5zM133 762h-24l141 162h24l141 -162h-24l-129 149z" />
    <glyph glyph-name="scircumflex" unicode="&#x15d;" horiz-adv-x="437" 
d="M201 -12q-35 0 -76.5 9t-74.5 27l3 21q35 -20 74.5 -29.5t72.5 -9.5q81 0 124 32.5t43 86.5q0 46 -35 79.5t-121 55.5q-82 20 -120 55.5t-38 89.5q0 29 12.5 52t34.5 39.5t53 25t67 8.5q34 0 70 -7.5t65 -20.5l-3 -20q-31 16 -65.5 23t-66.5 7q-67 0 -107 -29t-40 -78
q0 -45 34 -76t115 -52q47 -12 78.5 -28t51 -35t27.5 -41.5t8 -47.5q0 -34 -14 -59.5t-39 -43t-59 -26t-74 -8.5zM77 588h-24l141 162h24l141 -162h-24l-129 149z" />
    <glyph glyph-name="Scedilla" unicode="&#x15e;" horiz-adv-x="524" 
d="M193 -211q21 -9 46 -9q45 0 66.5 18t21.5 47q0 27 -25.5 48.5t-77.5 25.5l40 70q-9 -1 -14.5 -1h-8.5q-45 0 -92 11.5t-83 31.5l2 20q38 -22 83 -33.5t90 -11.5q103 0 155.5 45.5t52.5 117.5q0 33 -11 60t-35 50t-62 42.5t-93 37.5q-99 32 -143.5 77t-44.5 114
q0 37 16.5 67t45.5 51t70 32.5t91 11.5q40 0 76 -5.5t66 -16.5l-2 -20q-31 13 -65.5 18.5t-74.5 5.5q-47 0 -84.5 -10.5t-63.5 -30t-40.5 -46t-14.5 -57.5q0 -58 40.5 -100t136.5 -73q57 -19 97 -39.5t65.5 -45.5t37.5 -55.5t12 -68.5q0 -73 -48 -120t-136 -57l-34 -60
q48 -9 72 -32t24 -54q0 -37 -26.5 -60t-80.5 -23q-27 0 -47 7v20z" />
    <glyph glyph-name="scedilla" unicode="&#x15f;" horiz-adv-x="437" 
d="M161 -211q21 -9 46 -9q45 0 66.5 18t21.5 47q0 27 -25.5 48.5t-77.5 25.5l41 71q-6 -1 -15 -1.5t-17 -0.5q-35 0 -76.5 9t-74.5 27l3 21q35 -20 74.5 -29.5t72.5 -9.5q81 0 124 32.5t43 86.5q0 46 -35 79.5t-121 55.5q-82 20 -120 55.5t-38 89.5q0 29 12.5 52t34.5 39.5
t53 25t67 8.5q34 0 70 -7.5t65 -20.5l-3 -20q-31 16 -65.5 23t-66.5 7q-67 0 -107 -29t-40 -78q0 -45 34 -76t115 -52q47 -12 78.5 -28t51 -35t27.5 -41.5t8 -47.5q0 -57 -36.5 -90t-96.5 -43l-35 -61q48 -9 72 -32t24 -54q0 -37 -26.5 -60t-80.5 -23q-27 0 -47 7v20z" />
    <glyph glyph-name="Scaron" unicode="&#x160;" horiz-adv-x="524" 
d="M423 670q-31 13 -65.5 18.5t-74.5 5.5q-47 0 -84.5 -10.5t-63.5 -30t-40.5 -46t-14.5 -57.5q0 -58 40.5 -100t136.5 -73q57 -19 97 -39.5t65.5 -45.5t37.5 -55.5t12 -68.5q0 -81 -60 -130.5t-168 -49.5q-45 0 -92 11.5t-83 31.5l2 20q38 -22 83 -33.5t90 -11.5
q103 0 155.5 45.5t52.5 117.5q0 33 -11 60t-35 50t-62 42.5t-93 37.5q-99 32 -143.5 77t-44.5 114q0 37 16.5 67t45.5 51t70 32.5t91 11.5q40 0 76 -5.5t66 -16.5zM262 775l129 149h24l-141 -162h-24l-141 162h24z" />
    <glyph glyph-name="scaron" unicode="&#x161;" horiz-adv-x="437" 
d="M201 -12q-35 0 -76.5 9t-74.5 27l3 21q35 -20 74.5 -29.5t72.5 -9.5q81 0 124 32.5t43 86.5q0 46 -35 79.5t-121 55.5q-82 20 -120 55.5t-38 89.5q0 29 12.5 52t34.5 39.5t53 25t67 8.5q34 0 70 -7.5t65 -20.5l-3 -20q-31 16 -65.5 23t-66.5 7q-67 0 -107 -29t-40 -78
q0 -45 34 -76t115 -52q47 -12 78.5 -28t51 -35t27.5 -41.5t8 -47.5q0 -34 -14 -59.5t-39 -43t-59 -26t-74 -8.5zM206 601l129 149h24l-141 -162h-24l-141 162h24z" />
    <glyph glyph-name="Tcommaaccent" unicode="&#x162;" horiz-adv-x="512" 
d="M168 -211q21 -9 46 -9q45 0 66.5 18t21.5 47q0 27 -25.5 48.5t-77.5 25.5l47 81v682h-236v18h492v-18h-236v-682l-40 -69q48 -9 72 -32t24 -54q0 -37 -26.5 -60t-80.5 -23q-27 0 -47 7v20z" />
    <glyph glyph-name="tcommaaccent" unicode="&#x163;" horiz-adv-x="344" 
d="M213 -69q48 -9 72 -32t24 -54q0 -37 -26.5 -60t-80.5 -23q-27 0 -47 7v20q21 -9 46 -9q45 0 66.5 18t21.5 47q0 27 -25.5 48.5t-77.5 25.5l41 71q-54 8 -78.5 47t-24.5 117v346h-104v18h104v155h20v-155h175v-18h-175v-344q0 -76 25 -113t89 -37q26 0 52 6l4 -18
q-15 -4 -34.5 -5.5t-33.5 -0.5z" />
    <glyph glyph-name="Tcaron" unicode="&#x164;" horiz-adv-x="512" 
d="M246 682h-236v18h492v-18h-236v-682h-20v682zM256 775l129 149h24l-141 -162h-24l-141 162h24z" />
    <glyph glyph-name="tcaron" unicode="&#x165;" horiz-adv-x="411" 
d="M20 518h104v155h20v-155h175v-18h-175v-344q0 -76 25 -113t89 -37q26 0 52 6l4 -18q-27 -6 -56 -6q-70 0 -102 39t-32 127v346h-104v18zM381 683q0 -34 -12.5 -63t-32.5 -52l-14 19q29 41 29 92v21q0 27 3 34.5t12 7.5t12 -7.5t3 -34.5v-17z" />
    <glyph glyph-name="Tbar" unicode="&#x166;" horiz-adv-x="512" 
d="M246 682h-236v18h492v-18h-236v-319h166v-18h-166v-345h-20v345h-166v18h166v319z" />
    <glyph glyph-name="tbar" unicode="&#x167;" horiz-adv-x="344" 
d="M20 518h104v155h20v-155h175v-18h-175v-193h155v-18h-155v-133q0 -76 25 -113t89 -37q26 0 52 6l4 -18q-27 -6 -56 -6q-70 0 -102 39t-32 127v135h-82v18h82v193h-104v18z" />
    <glyph glyph-name="Utilde" unicode="&#x168;" horiz-adv-x="706" 
d="M353 -12q-54 0 -101 16.5t-82 50.5t-55 86.5t-20 124.5v434h20v-431q0 -69 18.5 -118.5t50.5 -81.5t75.5 -47.5t93.5 -15.5t93.5 15.5t75.5 47.5t50.5 81.5t18.5 118.5v431h20v-434q0 -72 -20 -124.5t-55 -86.5t-82 -50.5t-101 -16.5zM427 775q-27 0 -45.5 18t-33.5 40
t-31 40t-38 18q-23 0 -40.5 -25.5t-17.5 -88.5h-20q0 71 22.5 101.5t55.5 30.5q28 0 46 -18t33 -40t30.5 -40t38.5 -18t40.5 25.5t17.5 88.5h20q0 -71 -22.5 -101.5t-55.5 -30.5z" />
    <glyph glyph-name="utilde" unicode="&#x169;" horiz-adv-x="559" 
d="M282 6q51 0 98 22t79 61v429h20v-518h-20v63q-35 -35 -80 -55t-97 -20q-93 0 -150 57.5t-57 167.5v305h20v-303q0 -102 50 -155.5t137 -53.5zM351 601q-27 0 -45.5 18t-33.5 40t-31 40t-38 18q-23 0 -40.5 -25.5t-17.5 -88.5h-20q0 71 22.5 101.5t55.5 30.5q28 0 46 -18
t33 -40t30.5 -40t38.5 -18t40.5 25.5t17.5 88.5h20q0 -71 -22.5 -101.5t-55.5 -30.5z" />
    <glyph glyph-name="Umacron" unicode="&#x16a;" horiz-adv-x="706" 
d="M353 -12q-54 0 -101 16.5t-82 50.5t-55 86.5t-20 124.5v434h20v-431q0 -69 18.5 -118.5t50.5 -81.5t75.5 -47.5t93.5 -15.5t93.5 15.5t75.5 47.5t50.5 81.5t18.5 118.5v431h20v-434q0 -72 -20 -124.5t-55 -86.5t-82 -50.5t-101 -16.5zM217 852h272v-18h-272v18z" />
    <glyph glyph-name="umacron" unicode="&#x16b;" horiz-adv-x="559" 
d="M282 6q51 0 98 22t79 61v429h20v-518h-20v63q-35 -35 -80 -55t-97 -20q-93 0 -150 57.5t-57 167.5v305h20v-303q0 -102 50 -155.5t137 -53.5zM141 678h272v-18h-272v18z" />
    <glyph glyph-name="Ubreve" unicode="&#x16c;" horiz-adv-x="706" 
d="M353 -12q-54 0 -101 16.5t-82 50.5t-55 86.5t-20 124.5v434h20v-431q0 -69 18.5 -118.5t50.5 -81.5t75.5 -47.5t93.5 -15.5t93.5 15.5t75.5 47.5t50.5 81.5t18.5 118.5v431h20v-434q0 -72 -20 -124.5t-55 -86.5t-82 -50.5t-101 -16.5zM353 765q-31 0 -58 9.5t-47.5 28.5
t-33 47.5t-13.5 66.5h20q2 -66 38.5 -100t93.5 -34t93.5 34t38.5 100h20q-1 -38 -13.5 -66.5t-33 -47.5t-47.5 -28.5t-58 -9.5z" />
    <glyph glyph-name="ubreve" unicode="&#x16d;" horiz-adv-x="559" 
d="M282 6q51 0 98 22t79 61v429h20v-518h-20v63q-35 -35 -80 -55t-97 -20q-93 0 -150 57.5t-57 167.5v305h20v-303q0 -102 50 -155.5t137 -53.5zM277 593q-31 0 -58 9.5t-47.5 28.5t-33 47.5t-13.5 66.5h20q2 -66 38.5 -100t93.5 -34t93.5 34t38.5 100h20
q-1 -38 -13.5 -66.5t-33 -47.5t-47.5 -28.5t-58 -9.5z" />
    <glyph glyph-name="Uring" unicode="&#x16e;" horiz-adv-x="706" 
d="M353 -12q-54 0 -101 16.5t-82 50.5t-55 86.5t-20 124.5v434h20v-431q0 -69 18.5 -118.5t50.5 -81.5t75.5 -47.5t93.5 -15.5t93.5 15.5t75.5 47.5t50.5 81.5t18.5 118.5v431h20v-434q0 -72 -20 -124.5t-55 -86.5t-82 -50.5t-101 -16.5zM254 843q0 42 28.5 70.5t70.5 28.5
t70.5 -28.5t28.5 -70.5t-28.5 -70.5t-70.5 -28.5t-70.5 28.5t-28.5 70.5zM272 843q0 -34 23.5 -57.5t57.5 -23.5t57.5 23.5t23.5 57.5t-23.5 57.5t-57.5 23.5t-57.5 -23.5t-23.5 -57.5z" />
    <glyph glyph-name="uring" unicode="&#x16f;" horiz-adv-x="559" 
d="M282 6q51 0 98 22t79 61v429h20v-518h-20v63q-35 -35 -80 -55t-97 -20q-93 0 -150 57.5t-57 167.5v305h20v-303q0 -102 50 -155.5t137 -53.5zM178 669q0 42 28.5 70.5t70.5 28.5t70.5 -28.5t28.5 -70.5t-28.5 -70.5t-70.5 -28.5t-70.5 28.5t-28.5 70.5zM196 669
q0 -34 23.5 -57.5t57.5 -23.5t57.5 23.5t23.5 57.5t-23.5 57.5t-57.5 23.5t-57.5 -23.5t-23.5 -57.5z" />
    <glyph glyph-name="Uhungarumlaut" unicode="&#x170;" horiz-adv-x="706" 
d="M353 -12q-54 0 -101 16.5t-82 50.5t-55 86.5t-20 124.5v434h20v-431q0 -69 18.5 -118.5t50.5 -81.5t75.5 -47.5t93.5 -15.5t93.5 15.5t75.5 47.5t50.5 81.5t18.5 118.5v431h20v-434q0 -72 -20 -124.5t-55 -86.5t-82 -50.5t-101 -16.5zM264 762h-24l133 162h25zM407 762
h-24l133 162h25z" />
    <glyph glyph-name="uhungarumlaut" unicode="&#x171;" horiz-adv-x="559" 
d="M282 6q51 0 98 22t79 61v429h20v-518h-20v63q-35 -35 -80 -55t-97 -20q-93 0 -150 57.5t-57 167.5v305h20v-303q0 -102 50 -155.5t137 -53.5zM201 588h-24l133 162h25zM344 588h-24l133 162h25z" />
    <glyph glyph-name="Uogonek" unicode="&#x172;" horiz-adv-x="706" 
d="M353 -12q-54 0 -101 16.5t-82 50.5t-55 86.5t-20 124.5v434h20v-431q0 -69 18.5 -118.5t50.5 -81.5t75.5 -47.5t93.5 -15.5t93.5 15.5t75.5 47.5t50.5 81.5t18.5 118.5v431h20v-434q0 -66 -17 -116t-47 -83.5t-71 -52.5t-89 -24q-74 -71 -74 -134q0 -57 73 -57
q12 0 22.5 1t20.5 5v-18q-8 -3 -20 -4.5t-23 -1.5q-48 0 -70.5 20.5t-22.5 53.5q0 35 20 68.5t52 64.5h-12z" />
    <glyph glyph-name="uogonek" unicode="&#x173;" horiz-adv-x="559" 
d="M459 63q-35 -35 -80 -55t-97 -20q-93 0 -150 57.5t-57 167.5v305h20v-303q0 -102 50 -155.5t137 -53.5q51 0 98 22t79 61v429h20v-518q-86 -77 -86 -144q0 -57 73 -57q12 0 22.5 1t20.5 5v-18q-8 -3 -20 -4.5t-23 -1.5q-48 0 -70.5 20.5t-22.5 53.5q0 38 24 75t62 70v63z
" />
    <glyph glyph-name="Wcircumflex" unicode="&#x174;" horiz-adv-x="974" 
d="M500 700l194 -678l228 678h22l-238 -700h-25l-194 678l-194 -678h-25l-238 700h22l228 -678l194 678h26zM358 762h-24l141 162h24l141 -162h-24l-129 149z" />
    <glyph glyph-name="wcircumflex" unicode="&#x175;" horiz-adv-x="760" 
d="M394 518l154 -499l164 499h23l-174 -518h-26l-155 499l-155 -499h-26l-174 518h23l164 -499l154 499h28zM251 588h-24l141 162h24l141 -162h-24l-129 149z" />
    <glyph glyph-name="Ycircumflex" unicode="&#x176;" horiz-adv-x="630" 
d="M325 279v-279h-20v279l-275 421h24l261 -401l261 401h24zM186 762h-24l141 162h24l141 -162h-24l-129 149z" />
    <glyph glyph-name="ycircumflex" unicode="&#x177;" horiz-adv-x="505" 
d="M458 518h22l-288 -711h-22l78 194l-223 517h22l211 -492zM130 588h-24l141 162h24l141 -162h-24l-129 149z" />
    <glyph glyph-name="Ydieresis" unicode="&#x178;" horiz-adv-x="630" 
d="M325 279v-279h-20v279l-275 421h24l261 -401l261 401h24zM199 843q0 27 3 34.5t12 7.5t12 -7.5t3 -34.5t-3 -34.5t-12 -7.5t-12 7.5t-3 34.5zM401 843q0 27 3 34.5t12 7.5t12 -7.5t3 -34.5t-3 -34.5t-12 -7.5t-12 7.5t-3 34.5z" />
    <glyph glyph-name="Zacute" unicode="&#x179;" horiz-adv-x="558" 
d="M484 682h-429v18h453v-18l-444 -664h454v-18h-478v18zM256 762h-24l133 162h25z" />
    <glyph glyph-name="zacute" unicode="&#x17a;" horiz-adv-x="461" 
d="M35 18l356 482h-341v18h366v-18l-357 -482h367v-18h-391v18zM214 588h-24l133 162h25z" />
    <glyph glyph-name="Zdotaccent" unicode="&#x17b;" horiz-adv-x="558" 
d="M484 682h-429v18h453v-18l-444 -664h454v-18h-478v18zM254 843q0 27 3 34.5t12 7.5t12 -7.5t3 -34.5t-3 -34.5t-12 -7.5t-12 7.5t-3 34.5z" />
    <glyph glyph-name="zdotaccent" unicode="&#x17c;" horiz-adv-x="461" 
d="M35 18l356 482h-341v18h366v-18l-357 -482h367v-18h-391v18zM212 669q0 27 3 34.5t12 7.5t12 -7.5t3 -34.5t-3 -34.5t-12 -7.5t-12 7.5t-3 34.5z" />
    <glyph glyph-name="Zcaron" unicode="&#x17d;" horiz-adv-x="558" 
d="M484 682h-429v18h453v-18l-444 -664h454v-18h-478v18zM279 775l129 149h24l-141 -162h-24l-141 162h24z" />
    <glyph glyph-name="zcaron" unicode="&#x17e;" horiz-adv-x="461" 
d="M35 18l356 482h-341v18h366v-18l-357 -482h367v-18h-391v18zM231 601l129 149h24l-141 -162h-24l-141 162h24z" />
    <glyph glyph-name="longs" unicode="&#x17f;" horiz-adv-x="318" 
d="M145 0h-20v500h-120v18h120v29q0 51 9 86t26.5 56.5t42.5 31t58 9.5q30 0 59 -8l-3 -18q-13 5 -28 6.5t-31 1.5q-27 0 -48 -8t-35.5 -27.5t-22 -51t-7.5 -78.5v-547z" />
    <glyph glyph-name="uni0191" unicode="&#x191;" horiz-adv-x="525" 
d="M90 700h405v-18h-385v-307h358v-18h-358v-374q0 -52 -9 -87t-26.5 -56.5t-42.5 -30.5t-58 -9q-30 0 -59 8l3 19q12 -5 27.5 -7t31.5 -2q27 0 48 8t35.5 27t22 51t7.5 79v717z" />
    <glyph glyph-name="florin" unicode="&#x192;" horiz-adv-x="318" 
d="M125 500h-120v18h120v29q0 51 9 86t26.5 56.5t42.5 31t58 9.5q30 0 59 -8l-3 -18q-13 5 -28 6.5t-31 1.5q-27 0 -48 -8t-35.5 -27.5t-22 -51t-7.5 -78.5v-29h163v-18h-163v-517q0 -52 -9 -87t-26.5 -56.5t-42.5 -30.5t-58 -9q-30 0 -59 8l3 19q12 -5 27.5 -7t31.5 -2
q27 0 48 8t35.5 27t22 51t7.5 79v517z" />
    <glyph glyph-name="Aringacute" unicode="&#x1fa;" horiz-adv-x="618" 
d="M210 756q0 42 28.5 70.5t70.5 28.5t70.5 -28.5t28.5 -70.5q0 -37 -22 -63.5t-57 -33.5l274 -659h-22l-87 211h-370l-87 -211h-22l274 659q-35 7 -57 33.5t-22 63.5zM308 657l-176 -428h354l-176 428h-2zM312 873h-24l74 107h25zM228 756q0 -34 23.5 -57.5t57.5 -23.5
t57.5 23.5t23.5 57.5t-23.5 57.5t-57.5 23.5t-57.5 -23.5t-23.5 -57.5z" />
    <glyph glyph-name="aringacute" unicode="&#x1fb;" horiz-adv-x="525" 
d="M270 786h-24l74 107h25zM168 669q0 42 28.5 70.5t70.5 28.5t70.5 -28.5t28.5 -70.5t-28.5 -70.5t-70.5 -28.5t-70.5 28.5t-28.5 70.5zM186 669q0 -34 23.5 -57.5t57.5 -23.5t57.5 23.5t23.5 57.5t-23.5 57.5t-57.5 23.5t-57.5 -23.5t-23.5 -57.5zM235 -12
q-41 0 -75.5 9.5t-60 29t-40 47.5t-14.5 66q0 75 54.5 117.5t157.5 42.5h173v43q0 94 -46 131.5t-133 37.5q-86 0 -155 -34l-3 19q35 16 75 24.5t82 8.5q46 0 83.5 -9.5t63 -30.5t39.5 -56t14 -86v-348h-20v62q-33 -34 -81 -54t-114 -20zM430 282h-171q-97 0 -145.5 -39.5
t-48.5 -100.5q0 -33 12.5 -58.5t35 -43t53.5 -26t68 -8.5q60 0 108 19t88 61v196z" />
    <glyph glyph-name="AEacute" unicode="&#x1fc;" horiz-adv-x="834" 
d="M780 700v-18h-332v-311h307v-18h-307v-335h341v-18h-361v210h-268l-120 -210h-25l402 700h363zM428 679l-258 -451h258v451zM549 762h-24l133 162h25z" />
    <glyph glyph-name="aeacute" unicode="&#x1fd;" horiz-adv-x="837" 
d="M205 -12q-30 0 -58.5 9.5t-51 28.5t-36.5 47.5t-14 66.5q0 75 51 117.5t154 42.5h146v43q0 46 -12 78.5t-33.5 52.5t-50.5 29t-63 9q-35 0 -72.5 -8t-68.5 -23l-3 19q30 14 68 22t75 8q78 0 124 -39t50 -117q20 73 67 114.5t116 41.5q46 0 83 -19t63 -53t39.5 -82
t13.5 -105v-19h-377q2 -65 18.5 -111.5t44 -76.5t64 -44t78.5 -14q32 0 66 10t60 31l3 -20q-26 -20 -59.5 -29.5t-69.5 -9.5q-43 0 -78.5 13t-62.5 36.5t-45 55.5t-27 70q-21 -81 -70 -128t-132 -47zM395 282h-143q-94 0 -139.5 -38.5t-45.5 -101.5q0 -34 12 -59.5
t31.5 -42.5t44 -25.5t49.5 -8.5q32 0 62 9.5t55 32t44 60.5t30 94v80zM771 270q0 53 -12 97.5t-35 76.5t-56 50t-75 18q-41 0 -73.5 -17.5t-56 -49t-36 -76t-12.5 -99.5h356zM407 588h-24l133 162h25z" />
    <glyph glyph-name="Oslashacute" unicode="&#x1fe;" horiz-adv-x="696" 
d="M641 350q0 -77 -20 -143.5t-58 -115t-92.5 -76t-122.5 -27.5q-48 0 -89.5 13.5t-75.5 39.5l-80 -141h-22l87 154q-54 48 -83.5 125t-29.5 171q0 77 20 143.5t58 115t92.5 76t122.5 27.5q48 0 89 -14t75 -40l81 142h22l-88 -154q55 -48 84.5 -125t29.5 -171zM348 6
q64 0 115 26t86 72.5t53.5 109t18.5 136.5q0 89 -26.5 161t-76.5 119l-325 -572q32 -25 70.5 -38.5t84.5 -13.5zM75 350q0 -89 26 -161t77 -119l325 572q-32 25 -70.5 38.5t-84.5 13.5q-64 0 -114.5 -26t-86 -72.5t-54 -109.5t-18.5 -136zM334 762h-24l133 162h25z" />
    <glyph glyph-name="oslashacute" unicode="&#x1ff;" horiz-adv-x="566" 
d="M50 259q0 59 17.5 109t49 86t74 56t92.5 20q70 0 123 -38l79 136h22l-85 -148q44 -35 69 -92t25 -129q0 -59 -17.5 -109t-49 -86t-74 -56t-92.5 -20q-69 0 -124 38l-78 -136h-22l85 147q-44 36 -69 93t-25 129zM283 6q46 0 85 18t67.5 51.5t44.5 80t16 103.5
q0 68 -22.5 120.5t-60.5 85.5l-245 -424q50 -35 115 -35zM70 259q0 -68 22 -120.5t61 -85.5l244 424q-24 17 -53 26t-61 9q-46 0 -85 -18t-67.5 -51.5t-44.5 -80t-16 -103.5zM263 588h-24l133 162h25z" />
    <glyph glyph-name="Scommaaccent" unicode="&#x218;" horiz-adv-x="524" 
d="M423 670q-31 13 -65.5 18.5t-74.5 5.5q-47 0 -84.5 -10.5t-63.5 -30t-40.5 -46t-14.5 -57.5q0 -58 40.5 -100t136.5 -73q57 -19 97 -39.5t65.5 -45.5t37.5 -55.5t12 -68.5q0 -81 -60 -130.5t-168 -49.5q-45 0 -92 11.5t-83 31.5l2 20q38 -22 83 -33.5t90 -11.5
q103 0 155.5 45.5t52.5 117.5q0 33 -11 60t-35 50t-62 42.5t-93 37.5q-99 32 -143.5 77t-44.5 114q0 37 16.5 67t45.5 51t70 32.5t91 11.5q40 0 76 -5.5t66 -16.5zM297 -120q0 -34 -12.5 -63t-32.5 -52l-14 19q29 41 29 92v21q0 27 3 34.5t12 7.5t12 -7.5t3 -34.5v-17z" />
    <glyph glyph-name="scommaaccent" unicode="&#x219;" horiz-adv-x="437" 
d="M201 -12q-35 0 -76.5 9t-74.5 27l3 21q35 -20 74.5 -29.5t72.5 -9.5q81 0 124 32.5t43 86.5q0 46 -35 79.5t-121 55.5q-82 20 -120 55.5t-38 89.5q0 29 12.5 52t34.5 39.5t53 25t67 8.5q34 0 70 -7.5t65 -20.5l-3 -20q-31 16 -65.5 23t-66.5 7q-67 0 -107 -29t-40 -78
q0 -45 34 -76t115 -52q47 -12 78.5 -28t51 -35t27.5 -41.5t8 -47.5q0 -34 -14 -59.5t-39 -43t-59 -26t-74 -8.5zM250 -120q0 -34 -12.5 -63t-32.5 -52l-14 19q29 41 29 92v21q0 27 3 34.5t12 7.5t12 -7.5t3 -34.5v-17z" />
    <glyph glyph-name="uni021A" unicode="&#x21a;" horiz-adv-x="512" 
d="M246 682h-236v18h492v-18h-236v-682h-20v682zM271 -120q0 -34 -12.5 -63t-32.5 -52l-14 19q29 41 29 92v21q0 27 3 34.5t12 7.5t12 -7.5t3 -34.5v-17z" />
    <glyph glyph-name="uni021B" unicode="&#x21b;" horiz-adv-x="344" 
d="M20 518h104v155h20v-155h175v-18h-175v-344q0 -76 25 -113t89 -37q26 0 52 6l4 -18q-27 -6 -56 -6q-70 0 -102 39t-32 127v346h-104v18zM221 -120q0 -34 -12.5 -63t-32.5 -52l-14 19q29 41 29 92v21q0 27 3 34.5t12 7.5t12 -7.5t3 -34.5v-17z" />
    <glyph glyph-name="dotlessj" unicode="&#x237;" horiz-adv-x="200" 
d="M100 518h20v-565q0 -45 -9.5 -74.5t-27 -47t-41 -24.5t-51.5 -7q-22 0 -41 6l2 19q14 -7 39 -7q54 0 81.5 30t27.5 103v567z" />
    <glyph glyph-name="apostrophe" unicode="&#x2bc;" horiz-adv-x="386" 
d="M208 676q0 -34 -12.5 -63t-32.5 -52l-14 19q29 41 29 92v21q0 27 3 34.5t12 7.5t12 -7.5t3 -34.5v-17z" />
    <glyph glyph-name="circumflex" unicode="&#x2c6;" horiz-adv-x="386" 
d="M64 568h-24l141 162h24l141 -162h-24l-129 149z" />
    <glyph glyph-name="caron" unicode="&#x2c7;" horiz-adv-x="386" 
d="M193 581l129 149h24l-141 -162h-24l-141 162h24z" />
    <glyph glyph-name="uni02C9" unicode="&#x2c9;" horiz-adv-x="386" 
d="M57 658h272v-18h-272v18z" />
    <glyph glyph-name="breve" unicode="&#x2d8;" horiz-adv-x="386" 
d="M193 573q-31 0 -58 9.5t-47.5 28.5t-33 47.5t-13.5 66.5h20q2 -66 38.5 -100t93.5 -34t93.5 34t38.5 100h20q-1 -38 -13.5 -66.5t-33 -47.5t-47.5 -28.5t-58 -9.5z" />
    <glyph glyph-name="dotaccent" unicode="&#x2d9;" horiz-adv-x="386" 
d="M178 649q0 27 3 34.5t12 7.5t12 -7.5t3 -34.5t-3 -34.5t-12 -7.5t-12 7.5t-3 34.5z" />
    <glyph glyph-name="ring" unicode="&#x2da;" horiz-adv-x="386" 
d="M94 649q0 42 28.5 70.5t70.5 28.5t70.5 -28.5t28.5 -70.5t-28.5 -70.5t-70.5 -28.5t-70.5 28.5t-28.5 70.5zM112 649q0 -34 23.5 -57.5t57.5 -23.5t57.5 23.5t23.5 57.5t-23.5 57.5t-57.5 23.5t-57.5 -23.5t-23.5 -57.5z" />
    <glyph glyph-name="ogonek" unicode="&#x2db;" horiz-adv-x="386" 
d="M236 0q-86 -77 -86 -144q0 -57 73 -57q12 0 22.5 1t20.5 5v-18q-8 -3 -20 -4.5t-23 -1.5q-48 0 -70.5 20.5t-22.5 53.5q0 38 24 75t62 70h20z" />
    <glyph glyph-name="tilde" unicode="&#x2dc;" horiz-adv-x="386" 
d="M267 583q-27 0 -45.5 18t-33.5 40t-31 40t-38 18q-23 0 -40.5 -25.5t-17.5 -88.5h-20q0 71 22.5 101.5t55.5 30.5q28 0 46 -18t33 -40t30.5 -40t38.5 -18t40.5 25.5t17.5 88.5h20q0 -71 -22.5 -101.5t-55.5 -30.5z" />
    <glyph glyph-name="hungarumlaut" unicode="&#x2dd;" horiz-adv-x="386" 
d="M72 568h-24l133 162h25zM215 568h-24l133 162h25z" />
    <glyph glyph-name="gravecomb" unicode="&#x300;" horiz-adv-x="0" 
d="M-366 730h25l133 -162h-24z" />
    <glyph glyph-name="acutecomb" unicode="&#x301;" horiz-adv-x="0" 
d="M-272 568h-24l133 162h25z" />
    <glyph glyph-name="uni0302" unicode="&#x302;" horiz-adv-x="0" 
d="M-381 568h-24l141 162h24l141 -162h-24l-129 149z" />
    <glyph glyph-name="tildecomb" unicode="&#x303;" horiz-adv-x="0" 
d="M-178 583q-27 0 -45.5 18t-33.5 40t-31 40t-38 18q-23 0 -40.5 -25.5t-17.5 -88.5h-20q0 71 22.5 101.5t55.5 30.5q28 0 46 -18t33 -40t30.5 -40t38.5 -18t40.5 25.5t17.5 88.5h20q0 -71 -22.5 -101.5t-55.5 -30.5z" />
    <glyph glyph-name="uni0304" unicode="&#x304;" horiz-adv-x="0" 
d="M-390 658h272v-18h-272v18z" />
    <glyph glyph-name="uni0306" unicode="&#x306;" horiz-adv-x="0" 
d="M-252 573q-31 0 -58 9.5t-47.5 28.5t-33 47.5t-13.5 66.5h20q2 -66 38.5 -100t93.5 -34t93.5 34t38.5 100h20q-1 -38 -13.5 -66.5t-33 -47.5t-47.5 -28.5t-58 -9.5z" />
    <glyph glyph-name="uni0307" unicode="&#x307;" horiz-adv-x="0" 
d="M-267 649q0 27 3 34.5t12 7.5t12 -7.5t3 -34.5t-3 -34.5t-12 -7.5t-12 7.5t-3 34.5z" />
    <glyph glyph-name="uni0308" unicode="&#x308;" horiz-adv-x="0" 
d="M-368 649q0 27 3 34.5t12 7.5t12 -7.5t3 -34.5t-3 -34.5t-12 -7.5t-12 7.5t-3 34.5zM-166 649q0 27 3 34.5t12 7.5t12 -7.5t3 -34.5t-3 -34.5t-12 -7.5t-12 7.5t-3 34.5z" />
    <glyph glyph-name="uni030A" unicode="&#x30a;" horiz-adv-x="0" 
d="M-351 649q0 42 28.5 70.5t70.5 28.5t70.5 -28.5t28.5 -70.5t-28.5 -70.5t-70.5 -28.5t-70.5 28.5t-28.5 70.5zM-333 649q0 -34 23.5 -57.5t57.5 -23.5t57.5 23.5t23.5 57.5t-23.5 57.5t-57.5 23.5t-57.5 -23.5t-23.5 -57.5z" />
    <glyph glyph-name="uni030C" unicode="&#x30c;" horiz-adv-x="0" 
d="M-252 581l129 149h24l-141 -162h-24l-141 162h24z" />
    <glyph glyph-name="uni0327" unicode="&#x327;" horiz-adv-x="0" 
d="M-329 -211q21 -9 46 -9q45 0 66.5 18t21.5 47q0 27 -25.5 48.5t-77.5 25.5l47 81h20l-40 -69q48 -9 72 -32t24 -54q0 -37 -26.5 -60t-80.5 -23q-27 0 -47 7v20z" />
    <glyph glyph-name="tonos" unicode="&#x384;" horiz-adv-x="386" 
d="M179 552h-23l86 178h24z" />
    <glyph glyph-name="dieresistonos" unicode="&#x385;" horiz-adv-x="386" 
d="M76 549q0 27 3 34.5t12 7.5t12 -7.5t3 -34.5t-3 -34.5t-12 -7.5t-12 7.5t-3 34.5zM278 549q0 27 3 34.5t12 7.5t12 -7.5t3 -34.5t-3 -34.5t-12 -7.5t-12 7.5t-3 34.5zM189 620h-24l123 142h25z" />
    <glyph glyph-name="Alphatonos" unicode="&#x386;" horiz-adv-x="618" 
d="M320 700l283 -700h-22l-85 211h-374l-85 -211h-22l283 700h22zM129 229h360l-180 449zM124 523h-23l86 178h24z" />
    <glyph glyph-name="anoteleia" unicode="&#x387;" horiz-adv-x="280" 
d="M125 332q0 27 3 34.5t12 7.5t12 -7.5t3 -34.5t-3 -34.5t-12 -7.5t-12 7.5t-3 34.5z" />
    <glyph glyph-name="Epsilontonos" unicode="&#x388;" horiz-adv-x="596" 
d="M137 700h405v-18h-385v-311h360v-18h-360v-335h394v-18h-414v700zM1 523h-23l86 178h24z" />
    <glyph glyph-name="Etatonos" unicode="&#x389;" horiz-adv-x="724" 
d="M137 700h20v-317h457v317h20v-700h-20v365h-457v-365h-20v700zM1 523h-23l86 178h24z" />
    <glyph glyph-name="Iotatonos" unicode="&#x38a;" horiz-adv-x="252" 
d="M157 700v-700h-20v700h20zM1 523h-23l86 178h24z" />
    <glyph glyph-name="Omicrontonos" unicode="&#x38c;" horiz-adv-x="693" 
d="M639 350q0 -77 -20 -143.5t-58 -115t-92.5 -76t-122.5 -27.5t-122.5 27.5t-92.5 76t-58 115t-20 143.5t20 143.5t58 115t92.5 76t122.5 27.5t122.5 -27.5t92.5 -76t58 -115t20 -143.5zM73 350q0 -74 18.5 -136.5t54 -109t86 -72.5t114.5 -26t115 26t86 72.5t53.5 109
t18.5 136.5q0 73 -18.5 136t-53.5 109.5t-86 72.5t-115 26t-114.5 -26t-86 -72.5t-54 -109.5t-18.5 -136zM1 523h-23l86 178h24z" />
    <glyph glyph-name="Upsilontonos" unicode="&#x38e;" horiz-adv-x="723" 
d="M418 279v-279h-20v279l-275 421h24l261 -401l261 401h24zM1 523h-23l86 178h24z" />
    <glyph glyph-name="Omegatonos" unicode="&#x38f;" horiz-adv-x="697" 
d="M349 712q70 0 125 -26.5t92 -73t56.5 -108.5t19.5 -134q0 -60 -16 -113t-43.5 -97t-63.5 -80t-76 -62h185v-18h-217v18q46 28 84.5 64t66.5 80t44 96t16 112q0 69 -18 128t-52.5 102.5t-85.5 68.5t-117 25t-117 -25t-85.5 -68.5t-52.5 -102.5t-18 -128q0 -60 16 -112
t44 -96t66.5 -80t84.5 -64v-18h-217v18h185q-41 26 -77 61.5t-63 80t-43 97.5t-16 113q0 72 19.5 134t56.5 108.5t91.5 73t125.5 26.5zM1 523h-23l86 178h24z" />
    <glyph glyph-name="iotadieresistonos" unicode="&#x390;" horiz-adv-x="290" 
d="M80 518h20v-362q0 -76 25 -113t89 -37q26 0 52 6l4 -18q-27 -6 -56 -6q-70 0 -102 39t-32 127v364zM-25 621q0 27 3 34.5t12 7.5t12 -7.5t3 -34.5t-3 -34.5t-12 -7.5t-12 7.5t-3 34.5zM177 621q0 27 3 34.5t12 7.5t12 -7.5t3 -34.5t-3 -34.5t-12 -7.5t-12 7.5t-3 34.5z
M88 692h-24l123 142h25z" />
    <glyph glyph-name="Alpha" unicode="&#x391;" horiz-adv-x="618" 
d="M320 700l283 -700h-22l-85 211h-374l-85 -211h-22l283 700h22zM129 229h360l-180 449z" />
    <glyph glyph-name="Beta" unicode="&#x392;" horiz-adv-x="606" 
d="M90 700h211q49 0 89.5 -12.5t69 -35.5t44 -55.5t15.5 -71.5q0 -64 -29 -103.5t-78 -56.5q144 -39 144 -178q0 -88 -63 -137.5t-187 -49.5h-216v700zM351 373q37 0 65 12t46.5 33t27.5 48.5t9 58.5q0 72 -52 114.5t-146 42.5h-191v-309h241zM536 187q0 37 -12 68t-35.5 53
t-58 34.5t-79.5 12.5h-241v-337h196q112 0 171 44t59 125z" />
    <glyph glyph-name="Gamma" unicode="&#x393;" horiz-adv-x="498" 
d="M90 700h398v-18h-378v-682h-20v700z" />
    <glyph glyph-name="uni0394" unicode="&#x394;" horiz-adv-x="618" 
d="M15 0l283 700h22l283 -700h-588zM573 18l-264 660l-265 -660h529z" />
    <glyph glyph-name="Epsilon" unicode="&#x395;" horiz-adv-x="549" 
d="M90 700h405v-18h-385v-311h360v-18h-360v-335h394v-18h-414v700z" />
    <glyph glyph-name="Zeta" unicode="&#x396;" horiz-adv-x="558" 
d="M484 682h-429v18h453v-18l-444 -664h454v-18h-478v18z" />
    <glyph glyph-name="Eta" unicode="&#x397;" horiz-adv-x="677" 
d="M90 700h20v-317h457v317h20v-700h-20v365h-457v-365h-20v700z" />
    <glyph glyph-name="Theta" unicode="&#x398;" horiz-adv-x="696" 
d="M224 341v18h248v-18h-248zM641 350q0 -77 -20 -143.5t-58 -115t-92.5 -76t-122.5 -27.5t-122.5 27.5t-92.5 76t-58 115t-20 143.5t20 143.5t58 115t92.5 76t122.5 27.5t122.5 -27.5t92.5 -76t58 -115t20 -143.5zM75 350q0 -74 18.5 -136.5t54 -109t86 -72.5t114.5 -26
t115 26t86 72.5t53.5 109t18.5 136.5q0 73 -18.5 136t-53.5 109.5t-86 72.5t-115 26t-114.5 -26t-86 -72.5t-54 -109.5t-18.5 -136z" />
    <glyph glyph-name="Iota" unicode="&#x399;" horiz-adv-x="210" 
d="M115 700v-700h-20v700h20z" />
    <glyph glyph-name="Kappa" unicode="&#x39a;" horiz-adv-x="560" 
d="M517 700l-380 -326l423 -374h-30l-420 370v-370h-20v700h20v-323l377 323h30z" />
    <glyph glyph-name="Lambda" unicode="&#x39b;" horiz-adv-x="618" 
d="M309 678l-272 -678h-22l283 700h22l283 -700h-22z" />
    <glyph glyph-name="Mu" unicode="&#x39c;" horiz-adv-x="824" 
d="M734 0h-20v669l-293 -425h-18l-293 425v-669h-20v700h22l300 -435l300 435h22v-700z" />
    <glyph glyph-name="Nu" unicode="&#x39d;" horiz-adv-x="688" 
d="M90 700h24l464 -671v671h20v-700h-24l-464 670v-670h-20v700z" />
    <glyph glyph-name="Xi" unicode="&#x39e;" horiz-adv-x="538" 
d="M498 682h-458v18h458v-18zM448 344h-358v18h358v-18zM498 0h-458v18h458v-18z" />
    <glyph glyph-name="Omicron" unicode="&#x39f;" horiz-adv-x="696" 
d="M641 350q0 -77 -20 -143.5t-58 -115t-92.5 -76t-122.5 -27.5t-122.5 27.5t-92.5 76t-58 115t-20 143.5t20 143.5t58 115t92.5 76t122.5 27.5t122.5 -27.5t92.5 -76t58 -115t20 -143.5zM75 350q0 -74 18.5 -136.5t54 -109t86 -72.5t114.5 -26t115 26t86 72.5t53.5 109
t18.5 136.5q0 73 -18.5 136t-53.5 109.5t-86 72.5t-115 26t-114.5 -26t-86 -72.5t-54 -109.5t-18.5 -136z" />
    <glyph glyph-name="Pi" unicode="&#x3a0;" horiz-adv-x="677" 
d="M90 700h497v-700h-20v682h-457v-682h-20v700z" />
    <glyph glyph-name="Rho" unicode="&#x3a1;" horiz-adv-x="564" 
d="M519 494q0 -100 -70 -153t-191 -53h-148v-288h-20v700h168q121 0 191 -53t70 -153zM499 494q0 94 -65 141t-176 47h-148v-376h148q111 0 176 47t65 141z" />
    <glyph glyph-name="Sigma" unicode="&#x3a3;" horiz-adv-x="516" 
d="M232 372l-192 310v18h446v-18h-424l191 -305v-12l-190 -347h423v-18h-446v18z" />
    <glyph glyph-name="Tau" unicode="&#x3a4;" horiz-adv-x="512" 
d="M246 682h-236v18h492v-18h-236v-682h-20v682z" />
    <glyph glyph-name="Upsilon" unicode="&#x3a5;" horiz-adv-x="630" 
d="M325 279v-279h-20v279l-275 421h24l261 -401l261 401h24z" />
    <glyph glyph-name="Phi" unicode="&#x3a6;" horiz-adv-x="694" 
d="M639 350q0 -56 -21 -101t-58.5 -76.5t-90 -49t-114.5 -18.5v-105h-20v105q-62 1 -113.5 19t-88.5 49.5t-57.5 76t-20.5 100.5q0 55 20.5 100t57.5 76.5t88.5 49t113.5 19.5v105h20v-105q62 -1 114.5 -18.5t90 -49t58.5 -76.5t21 -101zM619 350q0 52 -19 93.5t-53.5 70.5
t-83.5 45.5t-108 17.5v-454q59 1 108 17t83.5 45.5t53.5 71t19 93.5zM75 350q0 -52 18.5 -93.5t52.5 -70.5t82 -45.5t107 -17.5v454q-59 -2 -107 -18t-82 -45.5t-52.5 -71t-18.5 -92.5z" />
    <glyph glyph-name="Chi" unicode="&#x3a7;" horiz-adv-x="640" 
d="M52 0h-27l282 354l-275 346h26l262 -330l262 330h26l-275 -346l282 -354h-27l-268 337z" />
    <glyph glyph-name="Psi" unicode="&#x3a8;" horiz-adv-x="676" 
d="M328 0v153q-52 1 -97.5 18.5t-79 51.5t-52.5 85.5t-19 122.5v269h20v-266q0 -67 17.5 -116t48 -81t72.5 -48.5t90 -17.5v529h20v-529q48 1 89.5 17.5t72.5 48.5t48.5 81t17.5 116v266h20v-269q0 -71 -19 -122.5t-52.5 -85.5t-79 -51.5t-97.5 -18.5v-153h-20z" />
    <glyph glyph-name="uni03A9" unicode="&#x3a9;" horiz-adv-x="696" 
d="M348 712q70 0 125 -26.5t92 -73t56.5 -108.5t19.5 -134q0 -60 -16 -113t-43.5 -97t-63.5 -80t-76 -62h185v-18h-217v18q46 28 84.5 64t66.5 80t44 96t16 112q0 69 -18 128t-52.5 102.5t-85.5 68.5t-117 25t-117 -25t-85.5 -68.5t-52.5 -102.5t-18 -128q0 -60 16 -112
t44 -96t66.5 -80t84.5 -64v-18h-217v18h185q-41 26 -77 61.5t-63 80t-43 97.5t-16 113q0 72 19.5 134t56.5 108.5t91.5 73t125.5 26.5z" />
    <glyph glyph-name="Iotadieresis" unicode="&#x3aa;" horiz-adv-x="210" 
d="M115 700v-700h-20v700h20zM-10 843q0 27 3 34.5t12 7.5t12 -7.5t3 -34.5t-3 -34.5t-12 -7.5t-12 7.5t-3 34.5zM192 843q0 27 3 34.5t12 7.5t12 -7.5t3 -34.5t-3 -34.5t-12 -7.5t-12 7.5t-3 34.5z" />
    <glyph glyph-name="Upsilondieresis" unicode="&#x3ab;" horiz-adv-x="630" 
d="M325 279v-279h-20v279l-275 421h24l261 -401l261 401h24zM199 843q0 27 3 34.5t12 7.5t12 -7.5t3 -34.5t-3 -34.5t-12 -7.5t-12 7.5t-3 34.5zM401 843q0 27 3 34.5t12 7.5t12 -7.5t3 -34.5t-3 -34.5t-12 -7.5t-12 7.5t-3 34.5z" />
    <glyph glyph-name="alphatonos" unicode="&#x3ac;" horiz-adv-x="580" 
d="M445 252q18 -81 31 -128t23.5 -70.5t21 -29.5t22.5 -6h22v-18h-24q-15 0 -28 6t-25.5 28.5t-25.5 65.5t-29 117q-27 -76 -52.5 -121t-50.5 -69t-51.5 -31.5t-54.5 -7.5q-35 0 -66.5 16.5t-55.5 50t-38 84.5t-14 120q0 64 14.5 114t39 85t57 53.5t69.5 18.5
q76 0 128.5 -58t79.5 -182l81 228h21zM224 6q28 0 52.5 8.5t47.5 33.5t46 69.5t48 116.5l7 20q-15 71 -34.5 120.5t-43.5 80t-53 44t-64 13.5t-64 -18t-50.5 -51t-33.5 -80t-12 -104q0 -61 12 -108t32.5 -79.5t48.5 -49t61 -16.5zM291 588h-24l133 162h25z" />
    <glyph glyph-name="epsilontonos" unicode="&#x3ad;" horiz-adv-x="454" 
d="M332 265q-57 0 -103.5 -10.5t-79.5 -29t-51 -44t-18 -55.5q0 -60 51 -90t142 -30q74 0 148 23l3 -19q-33 -11 -72 -16.5t-79 -5.5q-44 0 -82.5 7.5t-67.5 24t-46 42t-17 62.5q0 31 13.5 55.5t37 43t55.5 31t68 19.5q-76 9 -122.5 40t-46.5 88q0 63 53 96t144 33
q83 0 149 -18l-3 -19q-35 11 -71 15t-75 4q-79 0 -128 -28t-49 -82q0 -60 64.5 -89.5t182.5 -29.5v-18zM221 588h-24l133 162h25z" />
    <glyph glyph-name="etatonos" unicode="&#x3ae;" horiz-adv-x="559" 
d="M277 512q-51 0 -98 -22t-79 -61v-429h-20v518h20v-63q35 35 80 55t97 20q93 0 150 -57.5t57 -167.5v-498h-20v496q0 102 -50 155.5t-137 53.5zM257 588h-24l133 162h25z" />
    <glyph glyph-name="iotatonos" unicode="&#x3af;" horiz-adv-x="290" 
d="M80 518h20v-362q0 -76 25 -113t89 -37q26 0 52 6l4 -18q-27 -6 -56 -6q-70 0 -102 39t-32 127v364zM90 588h-24l133 162h25z" />
    <glyph glyph-name="upsilondieresistonos" unicode="&#x3b0;" horiz-adv-x="519" 
d="M85 419q0 28 -2.5 45t-7 27t-11 13.5t-15.5 3.5q-6 0 -13 -1t-13 -3l-3 17q12 4 28 4q27 0 42 -19.5t15 -79.5v-216q0 -108 45.5 -156t126.5 -48q172 0 172 221q0 73 -16.5 149t-48.5 142h21q30 -63 47 -138.5t17 -151.5q0 -115 -46.5 -177.5t-145.5 -62.5
q-96 0 -144 57.5t-48 166.5v207zM120 621q0 27 3 34.5t12 7.5t12 -7.5t3 -34.5t-3 -34.5t-12 -7.5t-12 7.5t-3 34.5zM322 621q0 27 3 34.5t12 7.5t12 -7.5t3 -34.5t-3 -34.5t-12 -7.5t-12 7.5t-3 34.5zM233 692h-24l123 142h25z" />
    <glyph glyph-name="alpha" unicode="&#x3b1;" horiz-adv-x="580" 
d="M445 252q18 -81 31 -128t23.5 -70.5t21 -29.5t22.5 -6h22v-18h-24q-15 0 -28 6t-25.5 28.5t-25.5 65.5t-29 117q-27 -76 -52.5 -121t-50.5 -69t-51.5 -31.5t-54.5 -7.5q-35 0 -66.5 16.5t-55.5 50t-38 84.5t-14 120q0 64 14.5 114t39 85t57 53.5t69.5 18.5
q76 0 128.5 -58t79.5 -182l81 228h21zM224 6q28 0 52.5 8.5t47.5 33.5t46 69.5t48 116.5l7 20q-15 71 -34.5 120.5t-43.5 80t-53 44t-64 13.5t-64 -18t-50.5 -51t-33.5 -80t-12 -104q0 -61 12 -108t32.5 -79.5t48.5 -49t61 -16.5z" />
    <glyph glyph-name="beta" unicode="&#x3b2;" horiz-adv-x="509" 
d="M189 389q63 0 106 15t69.5 39.5t37.5 55t11 62.5q0 75 -41.5 119t-113.5 44q-32 0 -60.5 -11t-50.5 -35.5t-34.5 -64t-12.5 -95.5v-711h-20v711q0 58 13.5 100t37.5 69.5t57 41t72 13.5q37 0 68.5 -13t55 -37t36.5 -57.5t13 -73.5q0 -39 -13 -70.5t-37 -54.5t-56.5 -37.5
t-71.5 -18.5q42 -7 79.5 -23.5t65 -43.5t43.5 -63.5t16 -84.5q0 -36 -13.5 -68.5t-39 -56.5t-61.5 -38t-82 -14q-35 0 -69 7t-61 22l2 20q30 -17 61.5 -24t66.5 -7q40 0 73 12t55.5 34t35 51.5t12.5 64.5q0 47 -20 85t-54.5 64.5t-79.5 41t-96 14.5v16z" />
    <glyph glyph-name="gamma" unicode="&#x3b3;" horiz-adv-x="522" 
d="M261 -200q-45 0 -74.5 27.5t-29.5 75.5q0 15 3.5 31t13.5 40t28.5 58.5t47.5 86.5l-225 397h22l214 -378l214 378h22l-225 -397q29 -52 47.5 -86.5t28.5 -58.5t13.5 -40t3.5 -31q0 -48 -29.5 -75.5t-74.5 -27.5zM261 101q-27 -46 -43.5 -77.5t-25.5 -54t-12 -38.5t-3 -29
q0 -42 24 -62t60 -20t60 20t24 62q0 13 -3 29t-12 38.5t-25.5 54t-43.5 77.5z" />
    <glyph glyph-name="delta" unicode="&#x3b4;" horiz-adv-x="566" 
d="M50 259q0 59 17.5 109t49 86t74 56t92.5 20q27 0 53 -8l-243 190v18h354v-18h-321l286 -222q48 -37 76 -95t28 -136q0 -59 -17.5 -109t-49 -86t-74 -56t-92.5 -20t-92.5 20t-74 56t-49 86t-17.5 109zM70 259q0 -57 16 -103.5t44.5 -80t67.5 -51.5t85 -18t85 18t67.5 51.5
t44.5 80t16 103.5t-16 103.5t-44.5 80t-67.5 51.5t-85 18t-85 -18t-67.5 -51.5t-44.5 -80t-16 -103.5z" />
    <glyph glyph-name="epsilon" unicode="&#x3b5;" horiz-adv-x="454" 
d="M332 265q-57 0 -103.5 -10.5t-79.5 -29t-51 -44t-18 -55.5q0 -60 51 -90t142 -30q74 0 148 23l3 -19q-33 -11 -72 -16.5t-79 -5.5q-44 0 -82.5 7.5t-67.5 24t-46 42t-17 62.5q0 31 13.5 55.5t37 43t55.5 31t68 19.5q-76 9 -122.5 40t-46.5 88q0 63 53 96t144 33
q83 0 149 -18l-3 -19q-35 11 -71 15t-75 4q-79 0 -128 -28t-49 -82q0 -60 64.5 -89.5t182.5 -29.5v-18z" />
    <glyph glyph-name="zeta" unicode="&#x3b6;" horiz-adv-x="392" 
d="M382 712q-77 -51 -135.5 -110t-97.5 -122t-59 -127.5t-20 -126.5q0 -66 24 -104t61 -60q45 -26 91.5 -40t88.5 -20q18 -2 25 -7.5t7 -16.5q0 -8 -2.5 -14t-7.5 -17l-75 -140h-22l81 151q6 10 6 17t-13 8q-42 6 -92.5 20t-96.5 41q-48 28 -71.5 70.5t-23.5 112.5
q0 64 20.5 130t59 129t94.5 120.5t127 105.5h-249v18h280v-18z" />
    <glyph glyph-name="eta" unicode="&#x3b7;" horiz-adv-x="559" 
d="M277 512q-51 0 -98 -22t-79 -61v-429h-20v518h20v-63q35 35 80 55t97 20q93 0 150 -57.5t57 -167.5v-498h-20v496q0 102 -50 155.5t-137 53.5z" />
    <glyph glyph-name="theta" unicode="&#x3b8;" horiz-adv-x="566" 
d="M50 365q0 89 16.5 159t47 118.5t73.5 74t96 25.5t96 -25.5t73.5 -74t47 -118.5t16.5 -159t-16.5 -159t-47 -118.5t-73.5 -74t-96 -25.5t-96 25.5t-73.5 74t-47 118.5t-16.5 159zM283 724q-49 0 -88 -23.5t-66.5 -68.5t-42.5 -110t-16 -148h426q-1 83 -16 148t-43 110
t-67 68.5t-87 23.5zM283 6q97 0 154 91.5t59 258.5h-426q2 -168 58.5 -259t154.5 -91z" />
    <glyph glyph-name="iota" unicode="&#x3b9;" horiz-adv-x="290" 
d="M80 518h20v-362q0 -76 25 -113t89 -37q26 0 52 6l4 -18q-27 -6 -56 -6q-70 0 -102 39t-32 127v364z" />
    <glyph glyph-name="kappa" unicode="&#x3ba;" horiz-adv-x="494" 
d="M100 518v-244l258 224q28 25 55 25q20 0 34 -6l-2 -19q-13 7 -32 7q-10 0 -18.5 -4.5t-21.5 -15.5l-247 -213l343 -272h-31l-338 268v-268h-20v518h20z" />
    <glyph glyph-name="lambda" unicode="&#x3bb;" horiz-adv-x="463" 
d="M37 0h-22l207 456l-121 274h22l325 -730h-22l-193 432z" />
    <glyph glyph-name="uni03BC" unicode="&#x3bc;" horiz-adv-x="551" 
d="M484 72q0 -38 9.5 -52t25.5 -14q12 0 19 4l3 -18q-9 -4 -22 -4q-28 0 -41.5 17.5t-13.5 59.5q-33 -35 -79 -56t-103 -21t-103 21t-79 56v-258h-20v711h20v-430q32 -38 80 -60t102 -22t102 22t80 60v430h20v-446z" />
    <glyph glyph-name="nu" unicode="&#x3bd;" horiz-adv-x="502" 
d="M467 518q-5 -150 -56.5 -279.5t-154.5 -238.5h-21l-210 518h22l201 -499q94 102 145 228.5t54 270.5h20z" />
    <glyph glyph-name="xi" unicode="&#x3be;" horiz-adv-x="400" 
d="M174 42q-60 29 -87 73t-27 101q0 75 43 125t115 71q-66 16 -99.5 56.5t-33.5 103.5q0 72 50 115t149 43h40v-18h-50q-84 0 -126.5 -38.5t-42.5 -101.5q0 -30 10 -57t32 -48t55.5 -33t81.5 -12h34v-18h-34q-50 0 -88 -16.5t-64 -43.5t-39 -60.5t-13 -67.5q0 -106 105 -158
q38 -19 81 -34t88 -25q19 -4 27.5 -9t8.5 -16t-9 -26l-80 -141h-22l86 153q4 7 4 11q0 3 -3.5 5t-14.5 4q-46 11 -90.5 26t-86.5 36z" />
    <glyph glyph-name="omicron" unicode="&#x3bf;" horiz-adv-x="566" 
d="M50 259q0 59 17.5 109t49 86t74 56t92.5 20t92.5 -20t74 -56t49 -86t17.5 -109t-17.5 -109t-49 -86t-74 -56t-92.5 -20t-92.5 20t-74 56t-49 86t-17.5 109zM70 259q0 -57 16 -103.5t44.5 -80t67.5 -51.5t85 -18t85 18t67.5 51.5t44.5 80t16 103.5t-16 103.5t-44.5 80
t-67.5 51.5t-85 18t-85 -18t-67.5 -51.5t-44.5 -80t-16 -103.5z" />
    <glyph glyph-name="pi" unicode="&#x3c0;" horiz-adv-x="575" 
d="M20 518h525v-18h-155v-344q0 -76 25 -113t79 -37q26 0 52 6l4 -18q-27 -6 -56 -6q-63 0 -93.5 39t-30.5 127v346h-181q0 -143 -21 -271.5t-83 -238.5l-19 9q32 58 52 117.5t31.5 121.5t15.5 127t4 135h-149v18z" />
    <glyph glyph-name="rho" unicode="&#x3c1;" horiz-adv-x="554" 
d="M95 -193h-20v502q0 57 16.5 98.5t44.5 68.5t64.5 40.5t76.5 13.5q49 0 90.5 -17.5t72 -52t47.5 -85t17 -116.5q0 -65 -19 -115.5t-51 -85t-76 -52.5t-93 -18q-57 0 -100 21.5t-70 50.5v-253zM95 86q29 -37 74 -58.5t96 -21.5q45 0 85 16.5t70 49t47 79.5t17 108
q0 120 -55.5 186.5t-151.5 66.5q-38 0 -71.5 -12.5t-58 -37.5t-38.5 -63.5t-14 -89.5v-223z" />
    <glyph glyph-name="sigma1" unicode="&#x3c2;" horiz-adv-x="473" 
d="M313 7q69 -4 99.5 -27.5t30.5 -61.5q0 -48 -39 -72.5t-105 -24.5v18q57 0 90.5 21t33.5 58q0 29 -26 48t-86 22q-55 3 -102.5 22.5t-83 54t-55.5 83.5t-20 111t19.5 112t53.5 85.5t79.5 54.5t97.5 19q40 0 74.5 -6.5t65.5 -20.5l-2 -19q-32 15 -66 21.5t-72 6.5
q-48 0 -89.5 -17.5t-73 -50t-49.5 -79.5t-18 -106t19 -105t52 -77.5t77.5 -49t94.5 -20.5z" />
    <glyph glyph-name="sigma" unicode="&#x3c3;" horiz-adv-x="566" 
d="M50 253q0 57 18 105.5t49.5 84t75 55.5t94.5 20h247v-18h-161q72 -28 111.5 -94.5t39.5 -152.5q0 -57 -18 -105.5t-49.5 -84t-75 -55.5t-94.5 -20t-94.5 20t-75 55.5t-49.5 84t-18 105.5zM70 253q0 -55 16.5 -100.5t45.5 -78t68.5 -50.5t86.5 -18q46 0 86 18t69 50.5
t45.5 78t16.5 100.5t-16.5 100.5t-45.5 78t-69 50.5t-86 18q-47 0 -86.5 -18t-68.5 -50.5t-45.5 -78t-16.5 -100.5z" />
    <glyph glyph-name="tau" unicode="&#x3c4;" horiz-adv-x="417" 
d="M20 518h372v-18h-181v-344q0 -76 25 -113t85 -37q26 0 52 6l4 -18q-27 -6 -56 -6q-66 0 -98 39t-32 127v346h-171v18z" />
    <glyph glyph-name="upsilon" unicode="&#x3c5;" horiz-adv-x="519" 
d="M85 419q0 28 -2.5 45t-7 27t-11 13.5t-15.5 3.5q-6 0 -13 -1t-13 -3l-3 17q12 4 28 4q27 0 42 -19.5t15 -79.5v-216q0 -108 45.5 -156t126.5 -48q172 0 172 221q0 73 -16.5 149t-48.5 142h21q30 -63 47 -138.5t17 -151.5q0 -115 -46.5 -177.5t-145.5 -62.5
q-96 0 -144 57.5t-48 166.5v207z" />
    <glyph glyph-name="phi" unicode="&#x3c6;" horiz-adv-x="630" 
d="M305 -193v177q-56 2 -102.5 21.5t-80.5 54.5t-53 84.5t-19 112.5q0 78 28.5 148.5t72.5 125.5l17 -11q-44 -54 -71 -122.5t-27 -140.5q0 -61 18.5 -108t50.5 -79t75 -49.5t91 -18.5v357q0 81 27.5 126t85.5 45q31 0 60.5 -16t52 -49t36 -83.5t13.5 -120.5
q0 -63 -18 -113.5t-51 -86t-80 -55.5t-106 -22v-177h-20zM560 261q0 61 -11 107.5t-30 78.5t-45 48.5t-56 16.5q-52 0 -72.5 -41t-20.5 -128v-341q52 1 95 19t74 51t48.5 80.5t17.5 108.5z" />
    <glyph glyph-name="chi" unicode="&#x3c7;" horiz-adv-x="503" 
d="M444 518h24l-205 -348l215 -363h-25l-202 343l-201 -343h-25l214 363l-204 348h24l192 -327z" />
    <glyph glyph-name="psi" unicode="&#x3c8;" horiz-adv-x="666" 
d="M323 -193v181q-52 1 -97.5 18.5t-79 51.5t-52.5 85.5t-19 122.5v252h20v-249q0 -67 17.5 -116t48 -81t72.5 -48.5t90 -17.5v512h20v-512q48 1 89.5 17.5t72.5 48.5t48.5 81t17.5 116v249h20v-252q0 -71 -19 -122.5t-52.5 -85.5t-79 -51.5t-97.5 -18.5v-181h-20z" />
    <glyph glyph-name="omega" unicode="&#x3c9;" horiz-adv-x="742" 
d="M371 238q-24 -251 -161 -251q-72 0 -116 76t-44 230q0 120 28 232l21 -2q-15 -55 -22 -113.5t-7 -116.5q0 -144 38.5 -216t101.5 -72q30 0 57.5 16t48 59t33 118t12.5 194v36h20v-36q0 -119 12.5 -194.5t33 -118.5t48 -58.5t57.5 -15.5q63 0 101.5 72t38.5 216
q0 58 -7 116.5t-22 113.5l21 2q28 -112 28 -232q0 -154 -44 -230t-116 -76q-137 0 -161 251z" />
    <glyph glyph-name="iotadieresis" unicode="&#x3ca;" horiz-adv-x="290" 
d="M80 518h20v-362q0 -76 25 -113t89 -37q26 0 52 6l4 -18q-27 -6 -56 -6q-70 0 -102 39t-32 127v364zM-25 669q0 27 3 34.5t12 7.5t12 -7.5t3 -34.5t-3 -34.5t-12 -7.5t-12 7.5t-3 34.5zM177 669q0 27 3 34.5t12 7.5t12 -7.5t3 -34.5t-3 -34.5t-12 -7.5t-12 7.5t-3 34.5z
" />
    <glyph glyph-name="upsilondieresis" unicode="&#x3cb;" horiz-adv-x="519" 
d="M85 419q0 28 -2.5 45t-7 27t-11 13.5t-15.5 3.5q-6 0 -13 -1t-13 -3l-3 17q12 4 28 4q27 0 42 -19.5t15 -79.5v-216q0 -108 45.5 -156t126.5 -48q172 0 172 221q0 73 -16.5 149t-48.5 142h21q30 -63 47 -138.5t17 -151.5q0 -115 -46.5 -177.5t-145.5 -62.5
q-96 0 -144 57.5t-48 166.5v207zM120 669q0 27 3 34.5t12 7.5t12 -7.5t3 -34.5t-3 -34.5t-12 -7.5t-12 7.5t-3 34.5zM322 669q0 27 3 34.5t12 7.5t12 -7.5t3 -34.5t-3 -34.5t-12 -7.5t-12 7.5t-3 34.5z" />
    <glyph glyph-name="omicrontonos" unicode="&#x3cc;" horiz-adv-x="566" 
d="M50 259q0 59 17.5 109t49 86t74 56t92.5 20t92.5 -20t74 -56t49 -86t17.5 -109t-17.5 -109t-49 -86t-74 -56t-92.5 -20t-92.5 20t-74 56t-49 86t-17.5 109zM70 259q0 -57 16 -103.5t44.5 -80t67.5 -51.5t85 -18t85 18t67.5 51.5t44.5 80t16 103.5t-16 103.5t-44.5 80
t-67.5 51.5t-85 18t-85 -18t-67.5 -51.5t-44.5 -80t-16 -103.5zM263 588h-24l133 162h25z" />
    <glyph glyph-name="upsilontonos" unicode="&#x3cd;" horiz-adv-x="519" 
d="M85 419q0 28 -2.5 45t-7 27t-11 13.5t-15.5 3.5q-6 0 -13 -1t-13 -3l-3 17q12 4 28 4q27 0 42 -19.5t15 -79.5v-216q0 -108 45.5 -156t126.5 -48q172 0 172 221q0 73 -16.5 149t-48.5 142h21q30 -63 47 -138.5t17 -151.5q0 -115 -46.5 -177.5t-145.5 -62.5
q-96 0 -144 57.5t-48 166.5v207zM228 588h-24l133 162h25z" />
    <glyph glyph-name="omegatonos" unicode="&#x3ce;" horiz-adv-x="742" 
d="M371 238q-24 -251 -161 -251q-72 0 -116 76t-44 230q0 120 28 232l21 -2q-15 -55 -22 -113.5t-7 -116.5q0 -144 38.5 -216t101.5 -72q30 0 57.5 16t48 59t33 118t12.5 194v36h20v-36q0 -119 12.5 -194.5t33 -118.5t48 -58.5t57.5 -15.5q63 0 101.5 72t38.5 216
q0 58 -7 116.5t-22 113.5l21 2q28 -112 28 -232q0 -154 -44 -230t-116 -76q-137 0 -161 251zM350 588h-24l133 162h25z" />
    <glyph glyph-name="uni0400" unicode="&#x400;" horiz-adv-x="549" 
d="M90 700h405v-18h-385v-311h360v-18h-360v-335h394v-18h-414v700zM177 924h25l133 -162h-24z" />
    <glyph glyph-name="afii10023" unicode="&#x401;" horiz-adv-x="549" 
d="M90 700h405v-18h-385v-311h360v-18h-360v-335h394v-18h-414v700zM178 843q0 27 3 34.5t12 7.5t12 -7.5t3 -34.5t-3 -34.5t-12 -7.5t-12 7.5t-3 34.5zM380 843q0 27 3 34.5t12 7.5t12 -7.5t3 -34.5t-3 -34.5t-12 -7.5t-12 7.5t-3 34.5z" />
    <glyph glyph-name="afii10051" unicode="&#x402;" horiz-adv-x="676" 
d="M246 682h-236v18h492v-18h-236v-283h126q112 0 173 -50t61 -156q0 -99 -51.5 -152t-147.5 -53q-47 0 -83 15v21q20 -10 41 -14t41 -4q90 0 135 50.5t45 135.5q0 97 -53 143t-153 46h-134v-381h-20v682z" />
    <glyph glyph-name="afii10052" unicode="&#x403;" horiz-adv-x="498" 
d="M90 700h398v-18h-378v-682h-20v700zM268 762h-24l133 162h25z" />
    <glyph glyph-name="afii10053" unicode="&#x404;" horiz-adv-x="591" 
d="M55 350q0 82 24.5 148.5t69.5 114t109 73.5t144 26q36 0 71.5 -5t64.5 -17l-2 -19q-31 13 -66 18t-67 5q-75 0 -135 -24t-102 -67.5t-65 -105.5t-24 -138h411v-18h-411q1 -76 24 -138t65 -105.5t102 -67.5t135 -24q35 0 69.5 5t66.5 19l2 -19q-30 -12 -67 -17.5t-72 -5.5
q-80 0 -144.5 26t-109.5 73.5t-69 114t-24 148.5z" />
    <glyph glyph-name="afii10054" unicode="&#x405;" horiz-adv-x="524" 
d="M423 670q-31 13 -65.5 18.5t-74.5 5.5q-47 0 -84.5 -10.5t-63.5 -30t-40.5 -46t-14.5 -57.5q0 -58 40.5 -100t136.5 -73q57 -19 97 -39.5t65.5 -45.5t37.5 -55.5t12 -68.5q0 -81 -60 -130.5t-168 -49.5q-45 0 -92 11.5t-83 31.5l2 20q38 -22 83 -33.5t90 -11.5
q103 0 155.5 45.5t52.5 117.5q0 33 -11 60t-35 50t-62 42.5t-93 37.5q-99 32 -143.5 77t-44.5 114q0 37 16.5 67t45.5 51t70 32.5t91 11.5q40 0 76 -5.5t66 -16.5z" />
    <glyph glyph-name="afii10055" unicode="&#x406;" horiz-adv-x="210" 
d="M115 700v-700h-20v700h20z" />
    <glyph glyph-name="afii10056" unicode="&#x407;" horiz-adv-x="210" 
d="M115 700v-700h-20v700h20zM-10 843q0 27 3 34.5t12 7.5t12 -7.5t3 -34.5t-3 -34.5t-12 -7.5t-12 7.5t-3 34.5zM192 843q0 27 3 34.5t12 7.5t12 -7.5t3 -34.5t-3 -34.5t-12 -7.5t-12 7.5t-3 34.5z" />
    <glyph glyph-name="afii10057" unicode="&#x408;" horiz-adv-x="435" 
d="M325 700h20v-482q0 -66 -14.5 -110.5t-40 -71t-59.5 -37.5t-73 -11q-30 0 -64 8t-60 23l2 20q28 -17 61 -25t60 -8q39 0 70 11.5t53 37t33.5 65.5t11.5 96v484z" />
    <glyph glyph-name="afii10058" unicode="&#x409;" horiz-adv-x="918" 
d="M868 195q0 -42 -14.5 -78t-43 -62t-71 -40.5t-97.5 -14.5h-167v682h-273v-541q0 -79 -30.5 -116t-99.5 -37q-30 0 -52 7l3 18q24 -7 55 -7q51 0 77.5 32.5t26.5 107.5v554h313v-310h147q55 0 97.5 -14.5t71 -40.5t43 -62t14.5 -78zM848 195q0 78 -52 127.5t-154 49.5
h-147v-354h147q102 0 154 49.5t52 127.5z" />
    <glyph glyph-name="afii10059" unicode="&#x40a;" horiz-adv-x="952" 
d="M902 195q0 -42 -14.5 -78t-43 -62t-71 -40.5t-97.5 -14.5h-167v372h-399v-372h-20v700h20v-310h399v310h20v-310h147q55 0 97.5 -14.5t71 -40.5t43 -62t14.5 -78zM882 195q0 78 -52 127.5t-154 49.5h-147v-354h147q102 0 154 49.5t52 127.5z" />
    <glyph glyph-name="afii10060" unicode="&#x40b;" horiz-adv-x="739" 
d="M462 441q-51 0 -101 -16t-95 -50v-375h-20v682h-236v18h492v-18h-236v-286q42 29 93.5 46t102.5 17q103 0 157.5 -57.5t54.5 -166.5v-235h-20v233q0 102 -49 155t-143 53z" />
    <glyph glyph-name="afii10061" unicode="&#x40c;" horiz-adv-x="560" 
d="M517 700l-380 -326l423 -374h-30l-420 370v-370h-20v700h20v-323l377 323h30zM259 762h-24l133 162h25z" />
    <glyph glyph-name="uni040D" unicode="&#x40d;" horiz-adv-x="698" 
d="M603 0h-20v670l-464 -670h-24v700h20v-671l464 671h24v-700zM212 924h25l133 -162h-24z" />
    <glyph glyph-name="afii10062" unicode="&#x40e;" horiz-adv-x="553" 
d="M506 700h22l-338 -700h-22l110 228l-253 472h22l242 -450zM277 765q-31 0 -58 9.5t-47.5 28.5t-33 47.5t-13.5 66.5h20q2 -66 38.5 -100t93.5 -34t93.5 34t38.5 100h20q-1 -38 -13.5 -66.5t-33 -47.5t-47.5 -28.5t-58 -9.5z" />
    <glyph glyph-name="afii10145" unicode="&#x40f;" horiz-adv-x="676" 
d="M90 700h20v-682h456v682h20v-700h-238v-164h-20v164h-238v700z" />
    <glyph glyph-name="afii10017" unicode="&#x410;" horiz-adv-x="618" 
d="M320 700l283 -700h-22l-85 211h-374l-85 -211h-22l283 700h22zM129 229h360l-180 449z" />
    <glyph glyph-name="afii10018" unicode="&#x411;" horiz-adv-x="557" 
d="M90 700h366v-18h-346v-252h166q108 0 167 -57.5t59 -157.5t-59 -157.5t-167 -57.5h-186v700zM482 215q0 91 -52 144t-154 53h-166v-394h166q102 0 154 53t52 144z" />
    <glyph glyph-name="afii10019" unicode="&#x412;" horiz-adv-x="606" 
d="M90 700h211q49 0 89.5 -12.5t69 -35.5t44 -55.5t15.5 -71.5q0 -64 -29 -103.5t-78 -56.5q144 -39 144 -178q0 -88 -63 -137.5t-187 -49.5h-216v700zM351 373q37 0 65 12t46.5 33t27.5 48.5t9 58.5q0 72 -52 114.5t-146 42.5h-191v-309h241zM536 187q0 37 -12 68t-35.5 53
t-58 34.5t-79.5 12.5h-241v-337h196q112 0 171 44t59 125z" />
    <glyph glyph-name="afii10020" unicode="&#x413;" horiz-adv-x="498" 
d="M90 700h398v-18h-378v-682h-20v700z" />
    <glyph glyph-name="afii10021" unicode="&#x414;" horiz-adv-x="591" 
d="M561 -100h-20v100h-501v-100h-20v118h49q47 81 80 170.5t53.5 178.5t30 174.5t9.5 158.5h240v-682h79v-118zM462 18v664h-201q-2 -77 -11.5 -159t-29 -166.5t-51 -170t-76.5 -168.5h369z" />
    <glyph glyph-name="afii10022" unicode="&#x415;" horiz-adv-x="549" 
d="M90 700h405v-18h-385v-311h360v-18h-360v-335h394v-18h-414v700z" />
    <glyph glyph-name="afii10024" unicode="&#x416;" horiz-adv-x="780" 
d="M380 700h20v-322l301 322h26l-303 -326l346 -374h-26l-344 369v-369h-20v369l-344 -369h-26l346 374l-303 326h26l301 -322v322z" />
    <glyph glyph-name="afii10025" unicode="&#x417;" horiz-adv-x="510" 
d="M140 377q55 2 106.5 13.5t91 34t63 55.5t23.5 78q0 28 -10.5 52.5t-34 43t-60.5 29.5t-91 11q-43 0 -87.5 -7t-82.5 -23l-3 18q37 14 81 22t92 8q55 0 95.5 -11.5t67.5 -32t40 -48.5t13 -62q0 -44 -20 -76.5t-53 -56t-76.5 -37.5t-89.5 -20q115 -14 182.5 -62.5
t67.5 -135.5q0 -39 -16 -72.5t-48 -57.5t-79 -38t-109 -14q-45 0 -85.5 6t-77.5 20l2 19q35 -14 77 -20.5t84 -6.5q58 0 101.5 13t72.5 35t43.5 51.5t14.5 63.5q0 88 -74.5 135t-220.5 55v18z" />
    <glyph glyph-name="afii10026" unicode="&#x418;" horiz-adv-x="688" 
d="M598 0h-20v670l-464 -670h-24v700h20v-671l464 671h24v-700z" />
    <glyph glyph-name="afii10027" unicode="&#x419;" horiz-adv-x="688" 
d="M598 0h-20v670l-464 -670h-24v700h20v-671l464 671h24v-700zM344 765q-31 0 -58 9.5t-47.5 28.5t-33 47.5t-13.5 66.5h20q2 -66 38.5 -100t93.5 -34t93.5 34t38.5 100h20q-1 -38 -13.5 -66.5t-33 -47.5t-47.5 -28.5t-58 -9.5z" />
    <glyph glyph-name="afii10028" unicode="&#x41a;" horiz-adv-x="560" 
d="M517 700l-380 -326l423 -374h-30l-420 370v-370h-20v700h20v-323l377 323h30z" />
    <glyph glyph-name="afii10029" unicode="&#x41b;" horiz-adv-x="670" 
d="M560 0v682h-358v-541q0 -79 -30.5 -116t-99.5 -37q-30 0 -52 7l3 18q24 -7 55 -7q51 0 77.5 32.5t26.5 107.5v554h398v-700h-20z" />
    <glyph glyph-name="afii10030" unicode="&#x41c;" horiz-adv-x="824" 
d="M734 0h-20v669l-293 -425h-18l-293 425v-669h-20v700h22l300 -435l300 435h22v-700z" />
    <glyph glyph-name="afii10031" unicode="&#x41d;" horiz-adv-x="677" 
d="M90 700h20v-317h457v317h20v-700h-20v365h-457v-365h-20v700z" />
    <glyph glyph-name="afii10032" unicode="&#x41e;" horiz-adv-x="696" 
d="M641 350q0 -77 -20 -143.5t-58 -115t-92.5 -76t-122.5 -27.5t-122.5 27.5t-92.5 76t-58 115t-20 143.5t20 143.5t58 115t92.5 76t122.5 27.5t122.5 -27.5t92.5 -76t58 -115t20 -143.5zM75 350q0 -74 18.5 -136.5t54 -109t86 -72.5t114.5 -26t115 26t86 72.5t53.5 109
t18.5 136.5q0 73 -18.5 136t-53.5 109.5t-86 72.5t-115 26t-114.5 -26t-86 -72.5t-54 -109.5t-18.5 -136z" />
    <glyph glyph-name="afii10033" unicode="&#x41f;" horiz-adv-x="677" 
d="M90 700h497v-700h-20v682h-457v-682h-20v700z" />
    <glyph glyph-name="afii10034" unicode="&#x420;" horiz-adv-x="564" 
d="M519 494q0 -100 -70 -153t-191 -53h-148v-288h-20v700h168q121 0 191 -53t70 -153zM499 494q0 94 -65 141t-176 47h-148v-376h148q111 0 176 47t65 141z" />
    <glyph glyph-name="afii10035" unicode="&#x421;" horiz-adv-x="591" 
d="M55 350q0 82 24.5 148.5t69.5 114t109 73.5t144 26q36 0 71.5 -5t64.5 -17l-2 -19q-31 13 -66 18t-67 5q-76 0 -136.5 -24.5t-102.5 -69.5t-64.5 -108.5t-22.5 -141.5t22.5 -141.5t64.5 -108.5t102.5 -69.5t136.5 -24.5q35 0 69.5 5t66.5 19l2 -19q-30 -12 -67 -17.5
t-72 -5.5q-80 0 -144.5 26t-109.5 73.5t-69 114t-24 148.5z" />
    <glyph glyph-name="afii10036" unicode="&#x422;" horiz-adv-x="512" 
d="M246 682h-236v18h492v-18h-236v-682h-20v682z" />
    <glyph glyph-name="afii10037" unicode="&#x423;" horiz-adv-x="553" 
d="M506 700h22l-338 -700h-22l110 228l-253 472h22l242 -450z" />
    <glyph glyph-name="afii10038" unicode="&#x424;" horiz-adv-x="694" 
d="M639 350q0 -56 -21 -101t-58.5 -76.5t-90 -49t-114.5 -18.5v-105h-20v105q-62 1 -113.5 19t-88.5 49.5t-57.5 76t-20.5 100.5q0 55 20.5 100t57.5 76.5t88.5 49t113.5 19.5v105h20v-105q62 -1 114.5 -18.5t90 -49t58.5 -76.5t21 -101zM619 350q0 52 -19 93.5t-53.5 70.5
t-83.5 45.5t-108 17.5v-454q59 1 108 17t83.5 45.5t53.5 71t19 93.5zM75 350q0 -52 18.5 -93.5t52.5 -70.5t82 -45.5t107 -17.5v454q-59 -2 -107 -18t-82 -45.5t-52.5 -71t-18.5 -92.5z" />
    <glyph glyph-name="afii10039" unicode="&#x425;" horiz-adv-x="640" 
d="M52 0h-27l282 354l-275 346h26l262 -330l262 330h26l-275 -346l282 -354h-27l-268 337z" />
    <glyph glyph-name="afii10040" unicode="&#x426;" horiz-adv-x="686" 
d="M636 18v-132h-20v114h-526v700h20v-682h456v682h20v-682h50z" />
    <glyph glyph-name="afii10041" unicode="&#x427;" horiz-adv-x="622" 
d="M288 218q137 0 224 66v416h20v-700h-20v264q-38 -29 -96 -46.5t-128 -17.5q-103 0 -155.5 64t-52.5 173v263h20v-263q0 -99 46 -159t142 -60z" />
    <glyph glyph-name="afii10042" unicode="&#x428;" horiz-adv-x="802" 
d="M90 700h20v-682h281v682h20v-682h281v682h20v-700h-622v700z" />
    <glyph glyph-name="afii10043" unicode="&#x429;" horiz-adv-x="812" 
d="M90 700h20v-682h281v682h20v-682h281v682h20v-682h50v-132h-20v114h-652v700z" />
    <glyph glyph-name="afii10044" unicode="&#x42a;" horiz-adv-x="642" 
d="M20 682v18h180v-270h166q108 0 167 -57.5t59 -157.5t-59 -157.5t-167 -57.5h-186v682h-160zM572 215q0 91 -52 144t-154 53h-166v-394h166q102 0 154 53t52 144z" />
    <glyph glyph-name="afii10045" unicode="&#x42b;" horiz-adv-x="718" 
d="M110 700v-270h166q108 0 167 -57.5t59 -157.5t-59 -157.5t-167 -57.5h-186v700h20zM482 215q0 91 -52 144t-154 53h-166v-394h166q102 0 154 53t52 144zM628 700v-700h-20v700h20z" />
    <glyph glyph-name="afii10046" unicode="&#x42c;" horiz-adv-x="552" 
d="M110 700v-270h166q108 0 167 -57.5t59 -157.5t-59 -157.5t-167 -57.5h-186v700h20zM482 215q0 91 -52 144t-154 53h-166v-394h166q102 0 154 53t52 144z" />
    <glyph glyph-name="afii10047" unicode="&#x42d;" horiz-adv-x="591" 
d="M536 350q0 -82 -24 -148.5t-69 -114t-109.5 -73.5t-144.5 -26q-35 0 -72 5.5t-67 17.5l2 19q32 -14 66.5 -19t69.5 -5q75 0 134.5 24t101.5 67.5t65 105.5t25 138h-411v18h411q-2 76 -25 138t-65 105.5t-101.5 67.5t-134.5 24q-32 0 -67 -5t-66 -18l-2 19q29 12 64.5 17
t71.5 5q79 0 143.5 -26t109.5 -73.5t69.5 -114t24.5 -148.5z" />
    <glyph glyph-name="afii10048" unicode="&#x42e;" horiz-adv-x="785" 
d="M110 700v-341h124q1 79 18.5 144.5t50 111.5t78 71.5t101.5 25.5q57 0 103 -26t78 -73.5t49.5 -114.5t17.5 -148t-17.5 -148t-49.5 -114.5t-78 -73.5t-103 -26q-56 0 -101.5 25.5t-78 71.5t-50 111t-18.5 145h-124v-341h-20v700h20zM254 350q0 -78 15.5 -141.5t45 -108.5
t72 -69.5t95.5 -24.5t95.5 24.5t72 69.5t45 108.5t15.5 141.5t-15.5 141.5t-45 108.5t-72 69.5t-95.5 24.5t-95.5 -24.5t-72 -69.5t-45 -108.5t-15.5 -141.5z" />
    <glyph glyph-name="afii10049" unicode="&#x42f;" horiz-adv-x="582" 
d="M60 509q0 88 65.5 139.5t185.5 51.5h181v-700h-20v318h-161q-18 0 -34.5 1.5t-32.5 3.5l-201 -323h-23l203 326q-78 17 -120.5 64.5t-42.5 118.5zM80 509q0 -79 59.5 -126t171.5 -47h161v346h-161q-112 0 -171.5 -47t-59.5 -126z" />
    <glyph glyph-name="afii10065" unicode="&#x430;" horiz-adv-x="525" 
d="M235 -12q-41 0 -75.5 9.5t-60 29t-40 47.5t-14.5 66q0 75 54.5 117.5t157.5 42.5h173v43q0 94 -46 131.5t-133 37.5q-86 0 -155 -34l-3 19q35 16 75 24.5t82 8.5q46 0 83.5 -9.5t63 -30.5t39.5 -56t14 -86v-348h-20v62q-33 -34 -81 -54t-114 -20zM430 282h-171
q-97 0 -145.5 -39.5t-48.5 -100.5q0 -33 12.5 -58.5t35 -43t53.5 -26t68 -8.5q60 0 108 19t88 61v196z" />
    <glyph glyph-name="afii10066" unicode="&#x431;" horiz-adv-x="530" 
d="M266 496q100 0 157 -65.5t57 -188.5q0 -61 -15.5 -108t-43 -79.5t-65 -49.5t-80.5 -17q-57 0 -99 23.5t-70.5 67t-42.5 106t-14 139.5q0 99 23.5 170.5t74 120t128.5 76.5t187 39l2 -20q-91 -7 -160.5 -28t-118 -58.5t-76.5 -93t-36 -132.5q16 21 38 39t47.5 31t53 20.5
t53.5 7.5zM70 325q0 -84 15.5 -144t43 -99t65 -57.5t82.5 -18.5q42 0 76 17t58 48.5t37 74.5t13 96q0 119 -53 177.5t-141 58.5q-52 0 -104 -27t-91 -79q-1 -11 -1 -23v-24z" />
    <glyph glyph-name="afii10067" unicode="&#x432;" horiz-adv-x="497" 
d="M80 0v518h146q94 0 144 -34.5t50 -94.5q0 -48 -31.5 -78t-83.5 -41q66 -9 104 -42.5t38 -88.5q0 -69 -56.5 -104t-164.5 -35h-146zM400 389q0 51 -40.5 81t-133.5 30h-126v-222h137q44 0 75 9t50.5 24.5t28.5 35.5t9 42zM427 137q0 27 -10.5 49.5t-33.5 39t-59 25.5
t-88 9h-136v-242h126q100 0 150.5 31t50.5 88z" />
    <glyph glyph-name="afii10068" unicode="&#x433;" horiz-adv-x="418" 
d="M100 500v-500h-20v518h328v-18h-308z" />
    <glyph glyph-name="afii10069" unicode="&#x434;" horiz-adv-x="536" 
d="M506 -100h-20v100h-446v-100h-20v118h48q66 112 103.5 237t41.5 263h214v-500h79v-118zM407 18v482h-174q-12 -258 -142 -482h316z" />
    <glyph glyph-name="afii10070" unicode="&#x435;" horiz-adv-x="530" 
d="M296 6q39 0 75.5 9.5t67.5 31.5l3 -20q-60 -39 -148 -39q-59 0 -104 21t-76.5 57.5t-47.5 86.5t-16 108q0 63 16 112.5t45 84.5t69 53.5t87 18.5t87 -19t69 -53.5t45.5 -82.5t16.5 -105v-18h-415q1 -53 16 -98t43 -78t70 -51.5t97 -18.5zM465 270q0 54 -15 98.5t-41 76.5
t-62.5 49.5t-79.5 17.5t-78.5 -16.5t-61.5 -48t-41 -76.5t-16 -101h395z" />
    <glyph glyph-name="afii10072" unicode="&#x436;" horiz-adv-x="678" 
d="M48 0h-28l284 271l-263 247h27l261 -244v244h20v-244l261 244h27l-263 -247l284 -271h-28l-281 267v-267h-20v267z" />
    <glyph glyph-name="afii10073" unicode="&#x437;" horiz-adv-x="454" 
d="M122 283q118 0 182.5 29.5t64.5 89.5q0 54 -49 82t-128 28q-39 0 -75 -4t-71 -15l-3 19q66 18 149 18q91 0 144 -33t53 -96q0 -57 -46.5 -88t-122.5 -40q36 -7 68 -19.5t55.5 -31t37 -43t13.5 -55.5q0 -37 -17 -62.5t-46 -42t-68 -24t-82 -7.5q-40 0 -79 5.5t-72 16.5
l3 19q74 -23 148 -23q91 0 142 30t51 90q0 30 -18 55.5t-51 44t-79.5 29t-103.5 10.5v18z" />
    <glyph glyph-name="afii10074" unicode="&#x438;" horiz-adv-x="572" 
d="M472 0v486l-372 -486h-20v518h20v-486l372 486h20v-518h-20z" />
    <glyph glyph-name="afii10075" unicode="&#x439;" horiz-adv-x="572" 
d="M472 0v486l-372 -486h-20v518h20v-486l372 486h20v-518h-20zM287 593q-31 0 -58 9.5t-47.5 28.5t-33 47.5t-13.5 66.5h20q2 -66 38.5 -100t93.5 -34t93.5 34t38.5 100h20q-1 -38 -13.5 -66.5t-33 -47.5t-47.5 -28.5t-58 -9.5z" />
    <glyph glyph-name="afii10076" unicode="&#x43a;" horiz-adv-x="489" 
d="M100 518v-244l318 244h30l-321 -247l342 -271h-31l-338 268v-268h-20v518h20z" />
    <glyph glyph-name="afii10077" unicode="&#x43b;" horiz-adv-x="555" 
d="M455 0v500h-263v-359q0 -79 -30.5 -116t-99.5 -37q-30 0 -52 7l3 18q24 -7 55 -7q51 0 77.5 32.5t26.5 107.5v372h303v-518h-20z" />
    <glyph glyph-name="afii10078" unicode="&#x43c;" horiz-adv-x="668" 
d="M80 0v518h20l234 -320l234 320h20v-518h-20v486l-225 -308h-18l-225 309v-487h-20z" />
    <glyph glyph-name="afii10079" unicode="&#x43d;" horiz-adv-x="554" 
d="M454 291v227h20v-518h-20v273h-354v-273h-20v518h20v-227h354z" />
    <glyph glyph-name="afii10080" unicode="&#x43e;" horiz-adv-x="566" 
d="M50 259q0 59 17.5 109t49 86t74 56t92.5 20t92.5 -20t74 -56t49 -86t17.5 -109t-17.5 -109t-49 -86t-74 -56t-92.5 -20t-92.5 20t-74 56t-49 86t-17.5 109zM70 259q0 -57 16 -103.5t44.5 -80t67.5 -51.5t85 -18t85 18t67.5 51.5t44.5 80t16 103.5t-16 103.5t-44.5 80
t-67.5 51.5t-85 18t-85 -18t-67.5 -51.5t-44.5 -80t-16 -103.5z" />
    <glyph glyph-name="afii10081" unicode="&#x43f;" horiz-adv-x="539" 
d="M80 518h379v-518h-20v500h-339v-500h-20v518z" />
    <glyph glyph-name="afii10082" unicode="&#x440;" horiz-adv-x="559" 
d="M489 259q0 61 -17 108t-47 79t-70 49t-85 17q-51 0 -96 -21.5t-74 -58.5v-346q29 -37 74 -58.5t96 -21.5q45 0 85 16.5t70 49t47 79.5t17 108zM509 259q0 -65 -19 -115.5t-51 -85t-76 -52.5t-93 -18q-57 0 -100 21.5t-70 50.5v-253h-20v711h20v-60q27 29 70 50.5
t100 21.5q49 0 93 -18t76 -52.5t51 -85t19 -115.5z" />
    <glyph glyph-name="afii10083" unicode="&#x441;" horiz-adv-x="485" 
d="M50 259q0 62 19.5 112t53.5 85.5t79.5 54.5t97.5 19q40 0 74.5 -6.5t65.5 -20.5l-2 -19q-32 15 -66 21.5t-72 6.5q-48 0 -89.5 -17.5t-73 -50t-49.5 -79.5t-18 -106t18 -106t49.5 -79.5t74.5 -50t93 -17.5q38 0 72.5 7.5t65.5 25.5l2 -19q-30 -17 -65.5 -24.5t-74.5 -7.5
q-56 0 -102.5 19t-80.5 54t-53 85.5t-19 112.5z" />
    <glyph glyph-name="afii10084" unicode="&#x442;" horiz-adv-x="454" 
d="M217 500h-207v18h434v-18h-207v-500h-20v500z" />
    <glyph glyph-name="afii10085" unicode="&#x443;" horiz-adv-x="505" 
d="M458 518h22l-288 -711h-22l78 194l-223 517h22l211 -492z" />
    <glyph glyph-name="afii10086" unicode="&#x444;" horiz-adv-x="858" 
d="M439 453q26 34 69 55.5t89 21.5q43 0 81.5 -18.5t67 -53t45.5 -85t17 -114.5t-17 -114.5t-45.5 -85t-67 -53t-81.5 -18.5q-46 0 -89 21.5t-69 55.5v-258h-20v258q-26 -34 -69 -55.5t-89 -21.5q-43 0 -81.5 18.5t-67 53t-45.5 85t-17 114.5t17 114.5t45.5 85t67 53
t81.5 18.5q46 0 89 -21.5t69 -55.5v277h20v-277zM439 90q29 -38 70.5 -61t87.5 -23q40 0 74.5 17.5t60.5 50t41 79.5t15 106t-15 106t-41 79.5t-60.5 50t-74.5 17.5q-46 0 -87.5 -23t-70.5 -61v-338zM419 428q-29 38 -70.5 61t-87.5 23q-40 0 -74.5 -17.5t-60.5 -50
t-41 -79.5t-15 -106t15 -106t41 -79.5t60.5 -50t74.5 -17.5q46 0 87.5 23t70.5 61v338z" />
    <glyph glyph-name="afii10087" unicode="&#x445;" horiz-adv-x="488" 
d="M434 518h24l-202 -253l212 -265h-25l-199 250l-199 -250h-25l212 265l-202 253h24l190 -238z" />
    <glyph glyph-name="afii10088" unicode="&#x446;" horiz-adv-x="559" 
d="M509 18v-122h-20v104h-409v518h20v-500h339v500h20v-500h50z" />
    <glyph glyph-name="afii10089" unicode="&#x447;" horiz-adv-x="513" 
d="M247 196q46 0 89 15t77 48v259h20v-518h-20v238q-32 -28 -75 -44t-91 -16q-41 0 -74.5 14t-57.5 39.5t-37 61t-13 79.5v146h20v-146q0 -81 43.5 -128.5t118.5 -47.5z" />
    <glyph glyph-name="afii10090" unicode="&#x448;" horiz-adv-x="676" 
d="M576 18v500h20v-518h-516v518h20v-500h228v500h20v-500h228z" />
    <glyph glyph-name="afii10091" unicode="&#x449;" horiz-adv-x="696" 
d="M646 18v-122h-20v104h-546v518h20v-500h228v500h20v-500h228v500h20v-500h50z" />
    <glyph glyph-name="afii10092" unicode="&#x44a;" horiz-adv-x="598" 
d="M160 0v500h-150v18h170v-184h125q129 0 191 -43t62 -124t-62 -124t-191 -43h-145zM307 18q120 0 175.5 38.5t55.5 110.5t-55.5 110.5t-175.5 38.5h-127v-298h127z" />
    <glyph glyph-name="afii10093" unicode="&#x44b;" horiz-adv-x="665" 
d="M80 0v518h20v-184h125q129 0 191 -43t62 -124t-62 -124t-191 -43h-145zM227 18q120 0 175.5 38.5t55.5 110.5t-55.5 110.5t-175.5 38.5h-127v-298h127zM566 0v518h19v-518h-19z" />
    <glyph glyph-name="afii10094" unicode="&#x44c;" horiz-adv-x="518" 
d="M80 0v518h20v-184h125q129 0 191 -43t62 -124t-62 -124t-191 -43h-145zM227 18q120 0 175.5 38.5t55.5 110.5t-55.5 110.5t-175.5 38.5h-127v-298h127z" />
    <glyph glyph-name="afii10095" unicode="&#x44d;" horiz-adv-x="485" 
d="M86 268h329q-2 57 -20.5 102t-49.5 76.5t-72.5 48.5t-87.5 17q-38 0 -72 -6.5t-66 -21.5l-2 19q31 14 65.5 20.5t74.5 6.5q52 0 97.5 -19t79.5 -54.5t53.5 -85.5t19.5 -112t-19 -112.5t-53 -85.5t-81 -54t-102 -19q-39 0 -74.5 7.5t-65.5 24.5l2 19q31 -18 65.5 -25.5
t72.5 -7.5q49 0 91 16.5t73.5 48t50 77t20.5 102.5h-329v18z" />
    <glyph glyph-name="afii10096" unicode="&#x44e;" horiz-adv-x="668" 
d="M80 0v518h19v-250h95q1 59 17.5 107.5t45 83t66.5 53t83 18.5t84 -19.5t67.5 -55t44.5 -85.5t16 -111t-16 -111t-44.5 -85.5t-67.5 -55t-84 -19.5t-83 18.5t-66.5 53t-45 83t-17.5 107.5h-95v-250h-19zM214 259q0 -57 14.5 -104t40.5 -80t61 -51t76 -18t76 18t61 51
t40.5 80t14.5 104t-14.5 104t-40.5 80t-61 51t-76 18t-76 -18t-61 -51t-40.5 -80t-14.5 -104z" />
    <glyph glyph-name="afii10097" unicode="&#x44f;" horiz-adv-x="511" 
d="M60 376q0 63 49 102.5t143 39.5h179v-518h-20v234h-159q-37 0 -62 5l-145 -239h-25l149 244q-54 15 -81.5 49.5t-27.5 82.5zM80 376q0 -25 9.5 -47.5t30.5 -39.5t53.5 -27t78.5 -10h159v248h-159q-46 0 -78.5 -10t-53.5 -27t-30.5 -39.5t-9.5 -47.5z" />
    <glyph glyph-name="uni0450" unicode="&#x450;" horiz-adv-x="530" 
d="M296 6q39 0 75.5 9.5t67.5 31.5l3 -20q-60 -39 -148 -39q-59 0 -104 21t-76.5 57.5t-47.5 86.5t-16 108q0 63 16 112.5t45 84.5t69 53.5t87 18.5t87 -19t69 -53.5t45.5 -82.5t16.5 -105v-18h-415q1 -53 16 -98t43 -78t70 -51.5t97 -18.5zM465 270q0 54 -15 98.5t-41 76.5
t-62.5 49.5t-79.5 17.5t-78.5 -16.5t-61.5 -48t-41 -76.5t-16 -101h395zM151 750h25l133 -162h-24z" />
    <glyph glyph-name="afii10071" unicode="&#x451;" horiz-adv-x="530" 
d="M296 6q39 0 75.5 9.5t67.5 31.5l3 -20q-60 -39 -148 -39q-59 0 -104 21t-76.5 57.5t-47.5 86.5t-16 108q0 63 16 112.5t45 84.5t69 53.5t87 18.5t87 -19t69 -53.5t45.5 -82.5t16.5 -105v-18h-415q1 -53 16 -98t43 -78t70 -51.5t97 -18.5zM465 270q0 54 -15 98.5t-41 76.5
t-62.5 49.5t-79.5 17.5t-78.5 -16.5t-61.5 -48t-41 -76.5t-16 -101h395zM147 669q0 27 3 34.5t12 7.5t12 -7.5t3 -34.5t-3 -34.5t-12 -7.5t-12 7.5t-3 34.5zM349 669q0 27 3 34.5t12 7.5t12 -7.5t3 -34.5t-3 -34.5t-12 -7.5t-12 7.5t-3 34.5z" />
    <glyph glyph-name="afii10099" unicode="&#x452;" horiz-adv-x="564" 
d="M105 455q35 35 80 55t97 20q93 0 150 -57.5t57 -167.5v-320q0 -101 -31 -143t-89 -42q-18 0 -33.5 3t-30.5 8l3 19q28 -12 61 -12q52 0 76 38.5t24 123.5v323q0 102 -50 155.5t-137 53.5q-51 0 -98 -22t-79 -61v-429h-20v618h-68v18h68v94h20v-94h205v-18h-205v-163z" />
    <glyph glyph-name="afii10100" unicode="&#x453;" horiz-adv-x="418" 
d="M100 500v-500h-20v518h328v-18h-308zM213 588h-24l133 162h25z" />
    <glyph glyph-name="afii10101" unicode="&#x454;" horiz-adv-x="485" 
d="M50 259q0 62 19.5 112t53.5 85.5t79.5 54.5t97.5 19q40 0 74.5 -6.5t65.5 -20.5l-2 -19q-32 15 -66 21.5t-72 6.5q-47 0 -88 -17t-72 -48.5t-50 -76.5t-20 -102h329v-18h-329q1 -57 19.5 -102.5t50 -77t74 -48t91.5 -16.5q38 0 72.5 7.5t65.5 25.5l2 -19
q-30 -17 -65.5 -24.5t-74.5 -7.5q-56 0 -102.5 19t-80.5 54t-53 85.5t-19 112.5z" />
    <glyph glyph-name="afii10102" unicode="&#x455;" horiz-adv-x="437" 
d="M201 -12q-35 0 -76.5 9t-74.5 27l3 21q35 -20 74.5 -29.5t72.5 -9.5q81 0 124 32.5t43 86.5q0 46 -35 79.5t-121 55.5q-82 20 -120 55.5t-38 89.5q0 29 12.5 52t34.5 39.5t53 25t67 8.5q34 0 70 -7.5t65 -20.5l-3 -20q-31 16 -65.5 23t-66.5 7q-67 0 -107 -29t-40 -78
q0 -45 34 -76t115 -52q47 -12 78.5 -28t51 -35t27.5 -41.5t8 -47.5q0 -34 -14 -59.5t-39 -43t-59 -26t-74 -8.5z" />
    <glyph glyph-name="afii10103" unicode="&#x456;" horiz-adv-x="190" 
d="M85 518h20v-518h-20v518zM80 688q0 27 3 34.5t12 7.5t12 -7.5t3 -34.5t-3 -34.5t-12 -7.5t-12 7.5t-3 34.5z" />
    <glyph glyph-name="afii10104" unicode="&#x457;" horiz-adv-x="190" 
d="M85 518h20v-518h-20v518zM-20 669q0 27 3 34.5t12 7.5t12 -7.5t3 -34.5t-3 -34.5t-12 -7.5t-12 7.5t-3 34.5zM182 669q0 27 3 34.5t12 7.5t12 -7.5t3 -34.5t-3 -34.5t-12 -7.5t-12 7.5t-3 34.5z" />
    <glyph glyph-name="afii10105" unicode="&#x458;" horiz-adv-x="200" 
d="M100 518h20v-565q0 -45 -9.5 -74.5t-27 -47t-41 -24.5t-51.5 -7q-22 0 -41 6l2 19q14 -7 39 -7q54 0 81.5 30t27.5 103v567zM95 688q0 27 3 34.5t12 7.5t12 -7.5t3 -34.5t-3 -34.5t-12 -7.5t-12 7.5t-3 34.5z" />
    <glyph glyph-name="afii10106" unicode="&#x459;" horiz-adv-x="773" 
d="M415 0v500h-223v-359q0 -79 -30.5 -116t-99.5 -37q-30 0 -52 7l3 18q24 -7 55 -7q51 0 77.5 32.5t26.5 107.5v372h263v-210h55q127 0 185 -38.5t58 -115.5t-58 -115.5t-185 -38.5h-75zM492 18q119 0 170 33.5t51 102.5t-51 102.5t-170 33.5h-57v-272h57z" />
    <glyph glyph-name="afii10107" unicode="&#x45a;" horiz-adv-x="757" 
d="M399 0v290h-299v-290h-20v518h20v-210h299v210h20v-210h55q127 0 185 -38.5t58 -115.5t-58 -115.5t-185 -38.5h-75zM476 18q119 0 170 33.5t51 102.5t-51 102.5t-170 33.5h-57v-272h57z" />
    <glyph glyph-name="afii10108" unicode="&#x45b;" horiz-adv-x="564" 
d="M282 512q-51 0 -98 -22t-79 -61v-429h-20v618h-68v18h68v94h20v-94h205v-18h-205v-163q35 35 80 55t97 20q93 0 150 -57.5t57 -167.5v-305h-20v303q0 102 -50 155.5t-137 53.5z" />
    <glyph glyph-name="afii10109" unicode="&#x45c;" horiz-adv-x="489" 
d="M100 518v-244l318 244h30l-321 -247l342 -271h-31l-338 268v-268h-20v518h20zM237 588h-24l133 162h25z" />
    <glyph glyph-name="uni045D" unicode="&#x45d;" horiz-adv-x="572" 
d="M472 0v486l-372 -486h-20v518h20v-486l372 486h20v-518h-20zM164 750h25l133 -162h-24z" />
    <glyph glyph-name="afii10110" unicode="&#x45e;" horiz-adv-x="505" 
d="M458 518h22l-288 -711h-22l78 194l-223 517h22l211 -492zM253 593q-31 0 -58 9.5t-47.5 28.5t-33 47.5t-13.5 66.5h20q2 -66 38.5 -100t93.5 -34t93.5 34t38.5 100h20q-1 -38 -13.5 -66.5t-33 -47.5t-47.5 -28.5t-58 -9.5z" />
    <glyph glyph-name="afii10193" unicode="&#x45f;" horiz-adv-x="539" 
d="M80 518h20v-500h339v500h20v-518h-180v-104h-20v104h-179v518z" />
    <glyph glyph-name="afii10050" unicode="&#x490;" horiz-adv-x="498" 
d="M90 700h378v123h20v-141h-378v-682h-20v700z" />
    <glyph glyph-name="afii10098" unicode="&#x491;" horiz-adv-x="418" 
d="M408 650v-150h-308v-500h-20v518h308v132h20z" />
    <glyph glyph-name="Wgrave" unicode="&#x1e80;" horiz-adv-x="974" 
d="M500 700l194 -678l228 678h22l-238 -700h-25l-194 678l-194 -678h-25l-238 700h22l228 -678l194 678h26zM345 924h25l133 -162h-24z" />
    <glyph glyph-name="wgrave" unicode="&#x1e81;" horiz-adv-x="760" 
d="M394 518l154 -499l164 499h23l-174 -518h-26l-155 499l-155 -499h-26l-174 518h23l164 -499l154 499h28zM237 750h25l133 -162h-24z" />
    <glyph glyph-name="Wacute" unicode="&#x1e82;" horiz-adv-x="974" 
d="M500 700l194 -678l228 678h22l-238 -700h-25l-194 678l-194 -678h-25l-238 700h22l228 -678l194 678h26zM496 762h-24l133 162h25z" />
    <glyph glyph-name="wacute" unicode="&#x1e83;" horiz-adv-x="760" 
d="M394 518l154 -499l164 499h23l-174 -518h-26l-155 499l-155 -499h-26l-174 518h23l164 -499l154 499h28zM389 588h-24l133 162h25z" />
    <glyph glyph-name="Wdieresis" unicode="&#x1e84;" horiz-adv-x="974" 
d="M500 700l194 -678l228 678h22l-238 -700h-25l-194 678l-194 -678h-25l-238 700h22l228 -678l194 678h26zM371 843q0 27 3 34.5t12 7.5t12 -7.5t3 -34.5t-3 -34.5t-12 -7.5t-12 7.5t-3 34.5zM573 843q0 27 3 34.5t12 7.5t12 -7.5t3 -34.5t-3 -34.5t-12 -7.5t-12 7.5
t-3 34.5z" />
    <glyph glyph-name="wdieresis" unicode="&#x1e85;" horiz-adv-x="760" 
d="M394 518l154 -499l164 499h23l-174 -518h-26l-155 499l-155 -499h-26l-174 518h23l164 -499l154 499h28zM264 669q0 27 3 34.5t12 7.5t12 -7.5t3 -34.5t-3 -34.5t-12 -7.5t-12 7.5t-3 34.5zM466 669q0 27 3 34.5t12 7.5t12 -7.5t3 -34.5t-3 -34.5t-12 -7.5t-12 7.5
t-3 34.5z" />
    <glyph glyph-name="Ygrave" unicode="&#x1ef2;" horiz-adv-x="630" 
d="M325 279v-279h-20v279l-275 421h24l261 -401l261 401h24zM188 924h25l133 -162h-24z" />
    <glyph glyph-name="ygrave" unicode="&#x1ef3;" horiz-adv-x="505" 
d="M458 518h22l-288 -711h-22l78 194l-223 517h22l211 -492zM128 750h25l133 -162h-24z" />
    <glyph glyph-name="uni2010" unicode="&#x2010;" horiz-adv-x="406" 
d="M70 323v18h266v-18h-266z" />
    <glyph glyph-name="figuredash" unicode="&#x2012;" horiz-adv-x="560" 
d="M40 323v18h480v-18h-480z" />
    <glyph glyph-name="endash" unicode="&#x2013;" horiz-adv-x="500" 
d="M0 323v18h500v-18h-500z" />
    <glyph glyph-name="emdash" unicode="&#x2014;" 
d="M0 323v18h1000v-18h-1000z" />
    <glyph glyph-name="afii00208" unicode="&#x2015;" 
d="M100 323v18h800v-18h-800z" />
    <glyph glyph-name="uni2016" unicode="&#x2016;" horiz-adv-x="376" 
d="M110 749h20v-879h-20v879zM246 749h20v-879h-20v879z" />
    <glyph glyph-name="underscoredbl" unicode="&#x2017;" horiz-adv-x="620" 
d="M560 -56v-18h-500v18h500zM560 -157v-18h-500v18h500z" />
    <glyph glyph-name="quoteleft" unicode="&#x2018;" horiz-adv-x="280" 
d="M125.019 637.002q0 33.9951 12.499 62.9922q12.498 28.9961 32.4961 51.9932l13.998 -18.9971q-28.9961 -40.9951 -28.9961 -91.9893v-20.9971q0 -26.9971 -3 -34.4961t-11.998 -7.49902q-8.99902 0 -11.999 7.49902t-3 34.4961v16.998z" />
    <glyph glyph-name="quoteright" unicode="&#x2019;" horiz-adv-x="280" 
d="M155 693q0 -34 -12.5 -63t-32.5 -52l-14 19q29 41 29 92v21q0 27 3 34.5t12 7.5t12 -7.5t3 -34.5v-17z" />
    <glyph glyph-name="quotesinglbase" unicode="&#x201a;" horiz-adv-x="280" 
d="M155 13q0 -34 -12.5 -63t-32.5 -52l-14 19q29 41 29 92v21q0 27 3 34.5t12 7.5t12 -7.5t3 -34.5v-17z" />
    <glyph glyph-name="quotereversed" unicode="&#x201b;" horiz-adv-x="280" 
d="M125 710q0 27 3 34.5t12 7.5t12 -7.5t3 -34.5v-21q0 -51 29 -92l-14 -19q-20 23 -32.5 52t-12.5 63v17z" />
    <glyph glyph-name="quotedblleft" unicode="&#x201c;" horiz-adv-x="378" 
d="M125.019 637.002q0 33.9951 12.499 62.9922q12.498 28.9961 32.4961 51.9932l13.998 -18.9971q-28.9961 -40.9951 -28.9961 -91.9893v-20.9971q0 -26.9971 -3 -34.4961t-11.998 -7.49902q-8.99902 0 -11.999 7.49902t-3 34.4961v16.998zM223.019 637.002
q0 33.9951 12.499 62.9922q12.498 28.9961 32.4961 51.9932l13.998 -18.9971q-28.9961 -40.9951 -28.9961 -91.9893v-20.9971q0 -26.9971 -3 -34.4961t-11.998 -7.49902q-8.99902 0 -11.999 7.49902t-3 34.4961v16.998z" />
    <glyph glyph-name="quotedblright" unicode="&#x201d;" horiz-adv-x="378" 
d="M155 693q0 -34 -12.5 -63t-32.5 -52l-14 19q29 41 29 92v21q0 27 3 34.5t12 7.5t12 -7.5t3 -34.5v-17zM253 693q0 -34 -12.5 -63t-32.5 -52l-14 19q29 41 29 92v21q0 27 3 34.5t12 7.5t12 -7.5t3 -34.5v-17z" />
    <glyph glyph-name="quotedblbase" unicode="&#x201e;" horiz-adv-x="378" 
d="M155 13q0 -34 -12.5 -63t-32.5 -52l-14 19q29 41 29 92v21q0 27 3 34.5t12 7.5t12 -7.5t3 -34.5v-17zM253 13q0 -34 -12.5 -63t-32.5 -52l-14 19q29 41 29 92v21q0 27 3 34.5t12 7.5t12 -7.5t3 -34.5v-17z" />
    <glyph glyph-name="uni201F" unicode="&#x201f;" horiz-adv-x="378" 
d="M125 710q0 27 3 34.5t12 7.5t12 -7.5t3 -34.5v-21q0 -51 29 -92l-14 -19q-20 23 -32.5 52t-12.5 63v17zM223 710q0 27 3 34.5t12 7.5t12 -7.5t3 -34.5v-21q0 -51 29 -92l-14 -19q-20 23 -32.5 52t-12.5 63v17z" />
    <glyph glyph-name="dagger" unicode="&#x2020;" horiz-adv-x="596" 
d="M506 535h-198v-666h-20v666h-198v18h198v195h20v-195h198v-18z" />
    <glyph glyph-name="daggerdbl" unicode="&#x2021;" horiz-adv-x="596" 
d="M506 64h-198v-195h-20v195h-198v18h198v453h-198v18h198v195h20v-195h198v-18h-198v-453h198v-18z" />
    <glyph glyph-name="bullet" unicode="&#x2022;" horiz-adv-x="348" 
d="M110 332q0 64 64 64t64 -64t-64 -64t-64 64z" />
    <glyph glyph-name="onedotenleader" unicode="&#x2024;" horiz-adv-x="280" 
d="M125 30q0 27 3 34.5t12 7.5t12 -7.5t3 -34.5t-3 -34.5t-12 -7.5t-12 7.5t-3 34.5z" />
    <glyph glyph-name="twodotenleader" unicode="&#x2025;" horiz-adv-x="560" 
d="M125 30q0 27 3 34.5t12 7.5t12 -7.5t3 -34.5t-3 -34.5t-12 -7.5t-12 7.5t-3 34.5zM405 30q0 27 3 34.5t12 7.5t12 -7.5t3 -34.5t-3 -34.5t-12 -7.5t-12 7.5t-3 34.5z" />
    <glyph glyph-name="ellipsis" unicode="&#x2026;" horiz-adv-x="840" 
d="M125 30q0 27 3 34.5t12 7.5t12 -7.5t3 -34.5t-3 -34.5t-12 -7.5t-12 7.5t-3 34.5zM685 30q0 27 3 34.5t12 7.5t12 -7.5t3 -34.5t-3 -34.5t-12 -7.5t-12 7.5t-3 34.5zM405 30q0 27 3 34.5t12 7.5t12 -7.5t3 -34.5t-3 -34.5t-12 -7.5t-12 7.5t-3 34.5z" />
    <glyph glyph-name="perthousand" unicode="&#x2030;" horiz-adv-x="888" 
d="M512 700h23l-442 -700h-23zM306 528q0 -39 -9.5 -72t-26.5 -56.5t-41.5 -37t-55.5 -13.5t-55.5 13.5t-42 37t-26.5 56.5t-9 72t9 72t26.5 56.5t42 37t55.5 13.5t55.5 -13.5t41.5 -37t26.5 -56.5t9.5 -72zM60 528q0 -72 29.5 -116.5t83.5 -44.5t83.5 44.5t29.5 116.5
t-29.5 116.5t-83.5 44.5t-83.5 -44.5t-29.5 -116.5zM564 171q0 -39 -9.5 -72t-26.5 -56.5t-41.5 -37t-55.5 -13.5t-55.5 13.5t-42 37t-26.5 56.5t-9 72t9 72t26.5 56.5t42 37t55.5 13.5t55.5 -13.5t41.5 -37t26.5 -56.5t9.5 -72zM318 171q0 -72 29.5 -116.5t83.5 -44.5
t83.5 44.5t29.5 116.5t-29.5 116.5t-83.5 44.5t-83.5 -44.5t-29.5 -116.5zM848 171q0 -39 -9.5 -72t-26.5 -56.5t-41.5 -37t-55.5 -13.5t-55.5 13.5t-42 37t-26.5 56.5t-9 72t9 72t26.5 56.5t42 37t55.5 13.5t55.5 -13.5t41.5 -37t26.5 -56.5t9.5 -72zM602 171
q0 -72 29.5 -116.5t83.5 -44.5t83.5 44.5t29.5 116.5t-29.5 116.5t-83.5 44.5t-83.5 -44.5t-29.5 -116.5z" />
    <glyph glyph-name="minute" unicode="&#x2032;" horiz-adv-x="275" 
d="M169 700h21l-85 -272h-20z" />
    <glyph glyph-name="second" unicode="&#x2033;" horiz-adv-x="417" 
d="M174 700h21l-85 -272h-20zM306 700h21l-85 -272h-20z" />
    <glyph glyph-name="guilsinglleft" unicode="&#x2039;" horiz-adv-x="353" 
d="M92 312l191 -176v-21l-203 189v16l203 189v-21z" />
    <glyph glyph-name="guilsinglright" unicode="&#x203a;" horiz-adv-x="353" 
d="M70 488v21l203 -189v-16l-203 -189v21l191 176z" />
    <glyph glyph-name="exclamdbl" unicode="&#x203c;" horiz-adv-x="362" 
d="M100 700h20v-531h-20v531zM95 30q0 27 3 34.5t12 7.5t12 -7.5t3 -34.5t-3 -34.5t-12 -7.5t-12 7.5t-3 34.5zM242 700h20v-531h-20v531zM237 30q0 27 3 34.5t12 7.5t12 -7.5t3 -34.5t-3 -34.5t-12 -7.5t-12 7.5t-3 34.5z" />
    <glyph glyph-name="uni203E" unicode="&#x203e;" horiz-adv-x="386" 
d="M57 657h272v-18h-272v18z" />
    <glyph glyph-name="fraction" unicode="&#x2044;" horiz-adv-x="414" 
d="M22 -15h-22l392 730h22z" />
    <glyph glyph-name="zero.sups" unicode="&#x2070;" horiz-adv-x="360" 
d="M22 469q0 112 41.5 175.5t116.5 63.5t116.5 -63.5t41.5 -175.5t-41.5 -175.5t-116.5 -63.5t-116.5 63.5t-41.5 175.5zM42 469q0 -103 35.5 -162t102.5 -59t102.5 59t35.5 162t-35.5 162t-102.5 59t-102.5 -59t-35.5 -162z" />
    <glyph glyph-name="uni2071" unicode="&#x2071;" horiz-adv-x="360" 
d="M170 569h20v-332h-20v332zM169 661q0 29 2 36.5t9 7.5t9 -7.5t2 -36.5t-2 -36.5t-9 -7.5t-9 7.5t-2 36.5z" />
    <glyph glyph-name="four.sups" unicode="&#x2074;" horiz-adv-x="360" 
d="M17 346v18l239 336h21v-336h56v-18h-56v-109h-20v109h-240zM40 364h217v305z" />
    <glyph glyph-name="five.sups" unicode="&#x2075;" horiz-adv-x="360" 
d="M66 700h233v-18h-213v-176q15 8 33.5 11.5t37.5 3.5q69 0 113.5 -38.5t44.5 -108.5q0 -36 -13 -63t-35.5 -45t-53.5 -27.5t-68 -9.5q-51 0 -93 19l3 20q42 -21 90 -21q69 0 109.5 32t40.5 95q0 61 -37 95t-103 34q-52 0 -89 -21v218z" />
    <glyph glyph-name="six.sups" unicode="&#x2076;" horiz-adv-x="360" 
d="M187 525q70 0 110.5 -40t40.5 -109q0 -33 -11.5 -60.5t-31.5 -46.5t-46.5 -29.5t-55.5 -10.5q-33 0 -62 13t-50.5 40.5t-34 69.5t-12.5 99q0 68 14 116.5t38.5 80t58.5 46t74 14.5q21 0 43.5 -3.5t40.5 -11.5l-2 -19q-35 16 -84 16q-72 0 -116.5 -56t-46.5 -177
q22 29 58.5 48.5t74.5 19.5zM192 247q29 0 52.5 10.5t40 28t25 41t8.5 49.5q0 57 -32 94t-99 37q-38 0 -73.5 -19t-59.5 -56q2 -50 13.5 -85t30.5 -57t43 -32.5t51 -10.5z" />
    <glyph glyph-name="seven.sups" unicode="&#x2077;" horiz-adv-x="360" 
d="M139 237h-22l181 445h-248v18h269v-18z" />
    <glyph glyph-name="eight.sups" unicode="&#x2078;" horiz-adv-x="360" 
d="M181 229q-33 0 -61 8t-48.5 23.5t-32.5 38t-12 51.5q0 48 33.5 81t87.5 51q-52 21 -76.5 49t-24.5 68q0 51 38 80t96 29q60 0 95.5 -30.5t35.5 -78.5q0 -80 -104 -119q37 -15 61 -30t38 -31.5t19.5 -34t5.5 -37.5q0 -27 -11.5 -49t-32 -37.5t-48 -23.5t-59.5 -8zM47 350
q0 -26 10.5 -45t28.5 -32t42.5 -19.5t52.5 -6.5q27 0 51 7t42 20t28 31.5t10 42.5q0 17 -6 33.5t-21.5 32.5t-42.5 30.5t-69 28.5q-66 -20 -96 -50.5t-30 -72.5zM292 599q0 39 -30 65t-81 26q-57 0 -85.5 -27t-28.5 -64q0 -36 28 -63t89 -47q56 18 82 46.5t26 63.5z" />
    <glyph glyph-name="nine.sups" unicode="&#x2079;" horiz-adv-x="360" 
d="M173 412q-70 0 -110.5 40t-40.5 109q0 33 11.5 60.5t31.5 46.5t46.5 29.5t55.5 10.5q33 0 62 -13t50.5 -40.5t34 -69.5t12.5 -99q0 -68 -14 -116.5t-38.5 -80t-58.5 -46t-74 -14.5q-21 0 -43.5 3.5t-40.5 11.5l2 19q35 -16 84 -16q72 0 116.5 55.5t46.5 176.5
q-23 -29 -59 -48t-74 -19zM168 690q-29 0 -52.5 -10.5t-40 -28t-25 -41t-8.5 -49.5q0 -57 32 -94t99 -37q38 0 73 19t59 55q-2 50 -13.5 85t-30 57.5t-42.5 33t-51 10.5z" />
    <glyph glyph-name="uni207A" unicode="&#x207a;" horiz-adv-x="360" 
d="M170 462h-154v18h154v150h20v-150h154v-18h-154v-150h-20v150z" />
    <glyph glyph-name="uni207B" unicode="&#x207b;" horiz-adv-x="360" 
d="M16 462v18h328v-18h-328z" />
    <glyph glyph-name="uni207C" unicode="&#x207c;" horiz-adv-x="360" 
d="M16 399v18h328v-18h-328zM16 525v18h328v-18h-328z" />
    <glyph glyph-name="uni207D" unicode="&#x207d;" horiz-adv-x="360" 
d="M251 759q-48 -63 -75 -137.5t-27 -152.5q0 -79 27 -153.5t75 -137.5h-20q-48 63 -75 137.5t-27 153.5q0 78 27 152.5t75 137.5h20z" />
    <glyph glyph-name="uni207E" unicode="&#x207e;" horiz-adv-x="360" 
d="M129 759q48 -63 75 -137.5t27 -152.5q0 -79 -27 -153.5t-75 -137.5h-20q48 63 75 137.5t27 153.5q0 78 -27 152.5t-75 137.5h20z" />
    <glyph glyph-name="uni207F" unicode="&#x207f;" horiz-adv-x="360" 
d="M179 559q-37 0 -67 -15.5t-51 -42.5v-264h-20v332h20v-45q20 22 52 37.5t67 15.5q66 0 102 -39.5t36 -112.5v-188h-20v173q0 81 -31 115t-88 34z" />
    <glyph glyph-name="zero.sinf" unicode="&#x2080;" horiz-adv-x="360" 
d="M22 107q0 112 41.5 175.5t116.5 63.5t116.5 -63.5t41.5 -175.5t-41.5 -175.5t-116.5 -63.5t-116.5 63.5t-41.5 175.5zM42 107q0 -103 35.5 -162t102.5 -59t102.5 59t35.5 162t-35.5 162t-102.5 59t-102.5 -59t-35.5 -162z" />
    <glyph glyph-name="one.sinf" unicode="&#x2081;" horiz-adv-x="360" 
d="M86 241l-11 16l109 82h20v-464h-20v441z" />
    <glyph glyph-name="two.sinf" unicode="&#x2082;" horiz-adv-x="360" 
d="M43 -125v20q51 42 99 91.5t90 103.5q30 40 40.5 69.5t10.5 59.5q0 57 -32.5 83t-86.5 26q-61 0 -108 -25l-2 20q48 23 110 23q67 0 103 -33.5t36 -93.5q0 -30 -11 -63t-45 -78q-43 -57 -90 -104t-86 -79h236v-20h-264z" />
    <glyph glyph-name="three.sinf" unicode="&#x2083;" horiz-adv-x="360" 
d="M102 126q49 0 82.5 10t54.5 25.5t30 34.5t9 37q0 48 -34 71.5t-88 23.5q-27 0 -53.5 -5t-48.5 -16l-2 19q21 9 48.5 14.5t54.5 5.5q66 0 104.5 -28t38.5 -85q0 -45 -31 -75.5t-92 -39.5q70 -14 100 -46.5t30 -83.5q0 -54 -40.5 -87.5t-113.5 -33.5q-27 0 -54.5 4
t-52.5 14l2 19q26 -11 52.5 -15t52.5 -4q34 0 59.5 8.5t42 22.5t24.5 33t8 39q0 22 -8 44t-29 38.5t-56.5 27t-89.5 10.5v18z" />
    <glyph glyph-name="four.sinf" unicode="&#x2084;" horiz-adv-x="360" 
d="M17 -16v18l239 336h21v-336h56v-18h-56v-109h-20v109h-240zM40 2h217v305z" />
    <glyph glyph-name="five.sinf" unicode="&#x2085;" horiz-adv-x="360" 
d="M66 338h233v-18h-213v-176q15 8 33.5 11.5t37.5 3.5q69 0 113.5 -38.5t44.5 -108.5q0 -36 -13 -63t-35.5 -45t-53.5 -27.5t-68 -9.5q-51 0 -93 19l3 20q42 -21 90 -21q69 0 109.5 32t40.5 95q0 61 -37 95t-103 34q-52 0 -89 -21v218z" />
    <glyph glyph-name="six.sinf" unicode="&#x2086;" horiz-adv-x="360" 
d="M187 163q70 0 110.5 -40t40.5 -109q0 -33 -11.5 -60.5t-31.5 -46.5t-46.5 -29.5t-55.5 -10.5q-33 0 -62 13t-50.5 40.5t-34 69.5t-12.5 99q0 68 14 116.5t38.5 80t58.5 46t74 14.5q21 0 43.5 -3.5t40.5 -11.5l-2 -19q-35 16 -84 16q-72 0 -116.5 -56t-46.5 -177
q22 29 58.5 48.5t74.5 19.5zM192 -115q29 0 52.5 10.5t40 28t25 41t8.5 49.5q0 57 -32 94t-99 37q-38 0 -73.5 -19t-59.5 -56q2 -50 13.5 -85t30.5 -57t43 -32.5t51 -10.5z" />
    <glyph glyph-name="seven.sinf" unicode="&#x2087;" horiz-adv-x="360" 
d="M139 -125h-22l181 445h-248v18h269v-18z" />
    <glyph glyph-name="eight.sinf" unicode="&#x2088;" horiz-adv-x="360" 
d="M181 -133q-33 0 -61 8t-48.5 23.5t-32.5 38t-12 51.5q0 48 33.5 81t87.5 51q-52 21 -76.5 49t-24.5 68q0 51 38 80t96 29q60 0 95.5 -30.5t35.5 -78.5q0 -80 -104 -119q37 -15 61 -30t38 -31.5t19.5 -34t5.5 -37.5q0 -27 -11.5 -49t-32 -37.5t-48 -23.5t-59.5 -8zM47 -12
q0 -26 10.5 -45t28.5 -32t42.5 -19.5t52.5 -6.5q27 0 51 7t42 20t28 31.5t10 42.5q0 17 -6 33.5t-21.5 32.5t-42.5 30.5t-69 28.5q-66 -20 -96 -50.5t-30 -72.5zM292 237q0 39 -30 65t-81 26q-57 0 -85.5 -27t-28.5 -64q0 -36 28 -63t89 -47q56 18 82 46.5t26 63.5z" />
    <glyph glyph-name="nine.sinf" unicode="&#x2089;" horiz-adv-x="360" 
d="M173 50q-70 0 -110.5 40t-40.5 109q0 33 11.5 60.5t31.5 46.5t46.5 29.5t55.5 10.5q33 0 62 -13t50.5 -40.5t34 -69.5t12.5 -99q0 -68 -14 -116.5t-38.5 -80t-58.5 -46t-74 -14.5q-21 0 -43.5 3.5t-40.5 11.5l2 19q35 -16 84 -16q72 0 116.5 55.5t46.5 176.5
q-23 -29 -59 -48t-74 -19zM168 328q-29 0 -52.5 -10.5t-40 -28t-25 -41t-8.5 -49.5q0 -57 32 -94t99 -37q38 0 73 19t59 55q-2 50 -13.5 85t-30 57.5t-42.5 33t-51 10.5z" />
    <glyph glyph-name="uni208A" unicode="&#x208a;" horiz-adv-x="360" 
d="M170 100h-154v18h154v150h20v-150h154v-18h-154v-150h-20v150z" />
    <glyph glyph-name="uni208B" unicode="&#x208b;" horiz-adv-x="360" 
d="M16 100v18h328v-18h-328z" />
    <glyph glyph-name="uni208C" unicode="&#x208c;" horiz-adv-x="360" 
d="M16 37v18h328v-18h-328zM16 163v18h328v-18h-328z" />
    <glyph glyph-name="uni208D" unicode="&#x208d;" horiz-adv-x="360" 
d="M251 397q-48 -63 -75 -137.5t-27 -152.5q0 -79 27 -153.5t75 -137.5h-20q-48 63 -75 137.5t-27 153.5q0 78 27 152.5t75 137.5h20z" />
    <glyph glyph-name="uni208E" unicode="&#x208e;" horiz-adv-x="360" 
d="M129 397q48 -63 75 -137.5t27 -152.5q0 -79 -27 -153.5t-75 -137.5h-20q48 63 75 137.5t27 153.5q0 78 -27 152.5t-75 137.5h20z" />
    <glyph glyph-name="uni2090" unicode="&#x2090;" horiz-adv-x="360" 
d="M156 -133q-52 0 -87 27.5t-35 78.5q0 106 163 106h98v20q0 57 -29.5 82.5t-83.5 25.5q-29 0 -59 -5t-57 -16l-2 18q26 11 57.5 16t60.5 5q64 0 98.5 -31.5t34.5 -94.5v-224h-20v54q-22 -29 -57.5 -45.5t-81.5 -16.5zM156 -115q46 0 82 18t57 54v104h-98q-72 0 -107.5 -21
t-35.5 -67q0 -38 28.5 -63t73.5 -25z" />
    <glyph glyph-name="uni2091" unicode="&#x2091;" horiz-adv-x="360" 
d="M199 -115q28 0 52.5 6t45.5 21l2 -19q-43 -26 -101 -26q-39 0 -69.5 13.5t-52 37.5t-32.5 57t-11 72q0 85 41.5 131.5t105.5 46.5q32 0 59 -13t46.5 -36.5t30.5 -55.5t11 -70v-12h-274q2 -71 40.5 -112t105.5 -41zM306 56q0 32 -9.5 59.5t-26.5 48t-40 32t-50 11.5
q-57 0 -91 -41t-36 -110h253z" />
    <glyph glyph-name="uni2092" unicode="&#x2092;" horiz-adv-x="360" 
d="M20 46q0 37 10.5 69.5t31 57t50.5 38.5t68 14t68 -14t50.5 -38.5t31 -57t10.5 -69.5t-10.5 -69.5t-31 -57t-50.5 -38.5t-68 -14t-68 14t-50.5 38.5t-31 57t-10.5 69.5zM40 46q0 -36 10.5 -65.5t29.5 -51t44.5 -33t55.5 -11.5t55.5 11.5t44.5 33t29.5 51t10.5 65.5
t-10.5 65.5t-29.5 51t-44.5 33t-55.5 11.5t-55.5 -11.5t-44.5 -33t-29.5 -51t-10.5 -65.5z" />
    <glyph glyph-name="uni2093" unicode="&#x2093;" horiz-adv-x="360" 
d="M310 217h25l-142 -167l152 -175h-29l-136 159l-136 -159h-29l151 175l-141 167h25l130 -151z" />
    <glyph glyph-name="uni2094" unicode="&#x2094;" horiz-adv-x="360" 
d="M161 207q-28 0 -52.5 -6t-45.5 -21l-2 19q43 26 101 26q39 0 69.5 -13.5t52 -37.5t32.5 -57t11 -72q0 -85 -41.5 -131.5t-105.5 -46.5q-32 0 -59 13t-46.5 36.5t-30.5 55.5t-11 70v12h274q-2 71 -40.5 112t-105.5 41zM180 -115q56 0 90.5 41t36.5 110h-253
q0 -32 9.5 -59.5t26.5 -48t40 -32t50 -11.5z" />
    <glyph glyph-name="uni20A0" unicode="&#x20a0;" horiz-adv-x="743" 
d="M55 459q0 57 17.5 103.5t48.5 80t74.5 51.5t94.5 18q61 0 115 -20l-2 -20q-27 11 -57 16.5t-56 5.5q-48 0 -87.5 -17t-68 -47.5t-44 -74t-15.5 -96.5t15.5 -96.5t44 -74.5t68 -47.5t87.5 -16.5q26 0 51.5 3.5t49.5 13.5v249h300v-18h-280v-212h263v-18h-263v-224h287v-18
h-307v221q-24 -8 -49.5 -11.5t-51.5 -3.5q-51 0 -94.5 18t-74.5 51.5t-48.5 80t-17.5 103.5z" />
    <glyph glyph-name="colonmonetary" unicode="&#x20a1;" horiz-adv-x="591" 
d="M409 788l-20 -77q22 1 43 0t44 -5l21 82h22l-23 -85q11 -2 21.5 -5.5t20.5 -7.5l-2 -19q-11 5 -22 8l-22 6l-175 -670q40 -9 86 -9q35 0 69.5 5t66.5 19l2 -19q-30 -12 -67 -17.5t-72 -5.5q-47 0 -89 9l-17 -66h-22l18 71q-43 12 -79 33l-27 -104h-22l30 116
q-67 47 -103 124t-36 179q0 77 21.5 140.5t62 110.5t98.5 75t130 34l20 78h22zM77 350q0 -94 31.5 -165.5t90.5 -116.5l163 624q-67 -6 -120 -33.5t-89.5 -71.5t-56 -104.5t-19.5 -132.5zM218 55q35 -23 79 -35l174 669q-17 3 -40 4.5t-47 -0.5z" />
    <glyph glyph-name="uni20A2" unicode="&#x20a2;" horiz-adv-x="601" 
d="M492 468q-106 0 -176 -126v-327q40 -9 87 -9q35 0 69.5 5t66.5 19l2 -19q-30 -12 -67 -17.5t-72 -5.5q-80 0 -144.5 26t-109.5 73.5t-69 114t-24 148.5t24.5 148.5t69.5 114t109 73.5t144 26q36 0 71.5 -5t64.5 -17l-2 -19q-31 13 -66 18t-67 5q-76 0 -136.5 -24.5
t-102.5 -69.5t-64.5 -108.5t-22.5 -141.5q0 -128 57 -214t162 -116v454h20v-102q27 49 73.5 81.5t100.5 32.5q15 0 30 -1.5t26 -5.5l-4 -18q-18 7 -50 7z" />
    <glyph glyph-name="franc" unicode="&#x20a3;" horiz-adv-x="526" 
d="M30 305h60v118h-60v18h60v259h406v-18h-386v-241h333v-18h-333v-118h332v-18h-332v-287h-20v287h-60v18z" />
    <glyph glyph-name="lira" unicode="&#x20a4;" horiz-adv-x="525" 
d="M59 408h91v53q0 134 47.5 192.5t145.5 58.5q68 0 122 -24l-4 -19q-26 14 -55 19.5t-63 5.5q-44 0 -76 -12t-54 -40t-32.5 -72.5t-10.5 -110.5v-51h234v-18h-234v-118h234v-18h-234v-236h315v-18h-445v18h110v236h-91v18h91v118h-91v18z" />
    <glyph glyph-name="uni20A6" unicode="&#x20a6;" horiz-adv-x="688" 
d="M598 409v-118h60v-18h-60v-273h-24l-189 273h-275v-273h-20v273h-60v18h60v118h-60v18h60v273h24l188 -273h276v273h20v-273h60v-18h-60zM396 291h182v118h-263zM110 291h262l-81 118h-181v-118zM578 29v244h-169zM110 427h168l-168 243v-243z" />
    <glyph glyph-name="peseta" unicode="&#x20a7;" horiz-adv-x="918" 
d="M571 0q-60 0 -85.5 42t-25.5 135v323h-78q1 -8 1 -12v-6q0 -54 -18 -95t-51 -68t-79 -41t-103 -14h-52v-264h-20v700h72q52 0 95 -11.5t75 -34.5t52 -57t26 -79h80v155h20v-155h181q33 12 71 12q67 0 114 -25l-2 -20q-24 14 -52.5 20.5t-59.5 6.5q-54 0 -90 -25t-36 -70
q0 -18 5.5 -35t20.5 -34t42 -34.5t71 -38.5q69 -32 98.5 -67.5t29.5 -80.5q0 -66 -38 -96.5t-116 -30.5h-148zM480 173q0 -85 21.5 -120t64.5 -35h153q74 0 104 28t30 81q0 41 -28 72t-88 60q-48 22 -77.5 42t-46 38.5t-22 37.5t-5.5 39q0 28 11 49t31 35h-148v-327z
M363 482q0 94 -58 147t-175 53h-50v-400h50q108 0 170.5 53t62.5 147z" />
    <glyph glyph-name="uni20A8" unicode="&#x20a8;" horiz-adv-x="964" 
d="M522 509q0 -71 -42.5 -118.5t-121.5 -64.5l204 -326h-23l-201 323q-16 -2 -32.5 -3.5t-34.5 -1.5h-161v-318h-20v700h181q120 0 185.5 -51.5t65.5 -139.5zM502 509q0 79 -59.5 126t-171.5 47h-161v-346h161q112 0 171.5 47t59.5 126zM733 -12q-35 0 -76.5 9t-74.5 27
l3 21q35 -20 74.5 -29.5t72.5 -9.5q81 0 124 32.5t43 86.5q0 46 -35 79.5t-121 55.5q-82 20 -120 55.5t-38 89.5q0 29 12.5 52t34.5 39.5t53 25t67 8.5q34 0 70 -7.5t65 -20.5l-3 -20q-31 16 -65.5 23t-66.5 7q-67 0 -107 -29t-40 -78q0 -45 34 -76t115 -52q47 -12 78.5 -28
t51 -35t27.5 -41.5t8 -47.5q0 -34 -14 -59.5t-39 -43t-59 -26t-74 -8.5z" />
    <glyph glyph-name="uni20A9" unicode="&#x20a9;" horiz-adv-x="974" 
d="M20 395v18h107l-97 287h22l96 -287h244l82 287h26l82 -287h243l97 287h22l-98 -287h108v-18h-114l-40 -118h154v-18h-160l-88 -259h-25l-74 259h-240l-74 -259h-25l-89 259h-159v18h153l-40 118h-113zM372 277h230l-34 118h-162zM194 277h159l34 118h-233zM621 277h158
l40 118h-232zM411 413h152l-76 265zM280 22l68 237h-148zM694 22l79 237h-147z" />
    <glyph glyph-name="afii57636" unicode="&#x20aa;" horiz-adv-x="818" 
d="M90 700h194q111 0 176.5 -71.5t65.5 -212.5v-154h-20v153q0 134 -58 200.5t-161 66.5h-177v-682h-20v700zM728 0h-184q-56 0 -102 18t-79.5 53.5t-52 88.5t-18.5 124v154h20v-153q0 -66 16.5 -116t47 -83.5t72.5 -50.5t93 -17h167v682h20v-700z" />
    <glyph glyph-name="dong" unicode="&#x20ab;" horiz-adv-x="567" 
d="M50 254q0 63 19 112.5t51 83.5t75.5 52t93.5 18q57 0 100 -21.5t70 -50.5v153h-205v18h205v81h20v-81h68v-18h-68v-601h-20v60q-27 -29 -70 -50.5t-100 -21.5q-50 0 -93.5 18t-75.5 52t-51 83.5t-19 112.5zM70 254q0 -59 17 -105.5t47 -78t70 -48t85 -16.5q51 0 96 21.5
t74 58.5v336q-29 37 -74 58.5t-96 21.5q-45 0 -85 -16.5t-70 -48.5t-47 -78t-17 -105zM468 -127h-324v18h324v-18z" />
    <glyph glyph-name="Euro" unicode="&#x20ac;" horiz-adv-x="591" 
d="M85 350q0 14 0.5 26.5t1.5 25.5h-57v18h60q9 67 35.5 121t67 92t94.5 58.5t118 20.5q32 0 68 -6t65 -19l-2 -20q-29 14 -63.5 20.5t-66.5 6.5q-59 0 -109 -19t-88 -55t-63 -86.5t-34 -113.5h359l-6 -18h-356q-1 -13 -1.5 -25.5t-0.5 -26.5q0 -29 3 -54h324l-6 -18h-316
q9 -63 34 -113t63 -85.5t88 -54.5t109 -19q32 0 68 7t65 21l2 -20q-29 -14 -66.5 -20t-69.5 -6q-64 0 -117.5 20.5t-94 58t-67 91.5t-36.5 120h-60v18h58q-3 25 -3 54z" />
    <glyph glyph-name="afii61248" unicode="&#x2105;" horiz-adv-x="968" 
d="M40 487q0 51 16 93t43.5 71t65 45t81.5 16q28 0 56.5 -6.5t49.5 -17.5l-2 -19q-46 25 -104 25q-39 0 -73 -14t-59 -40.5t-39.5 -65t-14.5 -87.5t14.5 -87.5t40 -65t59.5 -40.5t74 -14q63 0 106 25l2 -19q-21 -11 -50 -17.5t-58 -6.5q-44 0 -81.5 16t-66 45t-44.5 71
t-16 93zM540 215q0 48 13.5 89t38.5 71.5t61 47.5t81 17t81 -17t61 -47.5t38.5 -71.5t13.5 -89t-13.5 -89t-38.5 -71.5t-61 -47.5t-81 -17t-81 17t-61 47.5t-38.5 71.5t-13.5 89zM560 215q0 -47 12.5 -85t35.5 -65t55 -42t71 -15t71 15t55 42t35.5 65t12.5 85
q0 46 -12.5 84.5t-35.5 65.5t-55 42t-71 15t-71 -15t-55 -42t-35.5 -65.5t-12.5 -84.5zM276 -15h-22l392 730h22z" />
    <glyph glyph-name="uni2109" unicode="&#x2109;" horiz-adv-x="748" 
d="M313 700h405v-18h-385v-308h358v-18h-358v-356h-20v700zM11 591q0 25 9.5 47t26 38.5t38.5 26t47 9.5t47 -9.5t38.5 -26t26 -38.5t9.5 -47t-9.5 -47t-26 -38.5t-38.5 -26t-47 -9.5t-47 9.5t-38.5 26t-26 38.5t-9.5 47zM31 591q0 -22 8 -40.5t21.5 -32.5t32 -22t39.5 -8
t39.5 8t32 22t21.5 32.5t8 40.5t-8 40.5t-21.5 32.5t-32 22t-39.5 8t-39.5 -8t-32 -22t-21.5 -32.5t-8 -40.5z" />
    <glyph glyph-name="afii61289" unicode="&#x2113;" horiz-adv-x="433" 
d="M69 393q0 76 14.5 135t38.5 100t56 62.5t68 21.5q64 0 90.5 -57.5t26.5 -157.5q0 -59 -11.5 -119t-37 -115.5t-66 -103.5t-97.5 -83q20 -33 46 -51.5t60 -18.5q38 0 67 22.5t44 67.5l15 -13q-17 -48 -49 -71.5t-77 -23.5q-41 0 -71 21t-53 57q-37 -19 -75 -32l-8 20
q20 6 38 14t35 17q-29 58 -41.5 138.5t-12.5 169.5zM343 497q0 197 -97 197q-28 0 -56 -18.5t-50.5 -56t-36.5 -94t-14 -132.5q0 -90 12.5 -167t39.5 -131q57 34 95.5 80.5t62 100t34 110.5t10.5 111z" />
    <glyph glyph-name="afii61352" unicode="&#x2116;" horiz-adv-x="897" 
d="M90 700h28l305 -672v672h20v-700h-28l-305 672v-672h-20v700zM847 0h-350v18h350v-18zM505 323q0 45 11 82.5t32.5 64.5t52.5 42t71 15t71 -15t52.5 -42t32.5 -64.5t11 -82.5t-11 -82.5t-32.5 -64.5t-52.5 -42t-71 -15t-71 15t-52.5 42t-32.5 64.5t-11 82.5zM525 323
q0 -90 39 -138t108 -48t108 48t39 138t-39 138t-108 48t-108 -48t-39 -138z" />
    <glyph glyph-name="uni2117" unicode="&#x2117;" horiz-adv-x="834" 
d="M60 350q0 75 28.5 141t77 115t113.5 77.5t138 28.5t138 -28.5t113.5 -77.5t77 -115t28.5 -141t-28.5 -141t-77 -115t-113.5 -77.5t-138 -28.5t-138 28.5t-113.5 77.5t-77 115t-28.5 141zM80 350q0 -71 27 -133t73 -108.5t107 -73.5t130 -27t130 27t107 73.5t73 108.5
t27 133q0 70 -27 132.5t-73 109t-107 73.5t-130 27t-130.5 -27t-107 -73.5t-72.5 -109t-27 -132.5zM572 417q0 55 -35.5 89t-104.5 34h-121v-246h121q69 0 104.5 34t35.5 89zM311 276v-145h-20v427h145q72 0 114 -37.5t42 -103.5t-42 -103.5t-114 -37.5h-125z" />
    <glyph glyph-name="uni2120" unicode="&#x2120;" horiz-adv-x="654" 
d="M219 673q-14 7 -31.5 10t-34.5 3q-42 0 -62.5 -15.5t-20.5 -40.5q0 -23 16 -40t55 -33q54 -22 76 -44t22 -57q0 -38 -27.5 -60t-78.5 -22q-45 0 -80 16l3 19q34 -19 77 -19q48 0 67 20t19 46t-19.5 45t-62.5 36q-48 18 -67.5 39.5t-19.5 53.5q0 34 27.5 54t75.5 20
q17 0 35 -3t32 -9zM594 378h-20v302l-129 -182h-13l-129 182v-302h-20v322h30l125 -177l126 177h30v-322z" />
    <glyph glyph-name="uni2121" unicode="&#x2121;" horiz-adv-x="856" 
d="M521 6q29 0 57 9t54 29l2 -20q-47 -36 -115 -36q-48 0 -84.5 21t-61.5 57.5t-38 86.5t-13 108q0 63 13 112.5t36 84.5t55 53.5t70 18.5t70 -19t55.5 -53t36.5 -82t13 -105v-19h-329q1 -50 12.5 -94.5t33.5 -78t55.5 -53.5t77.5 -20zM651 270q0 52 -11.5 96.5t-31.5 77
t-49 50.5t-63 18t-62 -17.5t-48.5 -49.5t-31.5 -76.5t-12 -98.5h309zM207 682h-187v18h392v-18h-185v-682h-20v682zM756 730h20v-730h-20v730z" />
    <glyph glyph-name="trademark" unicode="&#x2122;" horiz-adv-x="664" 
d="M129 682h-109v18h237v-18h-108v-303h-20v303zM604 378h-20v302l-129 -182h-13l-129 182v-302h-20v322h30l125 -177l126 177h30v-322z" />
    <glyph glyph-name="Omega" unicode="&#x2126;" horiz-adv-x="696" 
d="M348 712q70 0 125 -26.5t92 -73t56.5 -108.5t19.5 -134q0 -60 -16 -113t-43.5 -97t-63.5 -80t-76 -62h185v-18h-217v18q46 28 84.5 64t66.5 80t44 96t16 112q0 69 -18 128t-52.5 102.5t-85.5 68.5t-117 25t-117 -25t-85.5 -68.5t-52.5 -102.5t-18 -128q0 -60 16 -112
t44 -96t66.5 -80t84.5 -64v-18h-217v18h185q-41 26 -77 61.5t-63 80t-43 97.5t-16 113q0 72 19.5 134t56.5 108.5t91.5 73t125.5 26.5z" />
    <glyph glyph-name="estimated" unicode="&#x212e;" horiz-adv-x="758" 
d="M414 6q64 0 124.5 15t111.5 46l5 -20q-104 -59 -243 -59q-99 0 -167 28.5t-110.5 78t-61 115.5t-18.5 140q0 73 22 139t64 115.5t103.5 78.5t140.5 29q76 0 135.5 -29t100 -79t61.5 -117t21 -143v-6h-499v-275q38 -28 89 -42.5t121 -14.5zM382 694q-51 0 -97 -14.5
t-81 -43.5v-278h355v278q-35 29 -80.5 43.5t-96.5 14.5z" />
    <glyph glyph-name="onethird" unicode="&#x2153;" horiz-adv-x="900" 
d="M213 -15h-22l392 730h22zM86 603l-11 16l109 82h20v-464h-20v441zM637 252q49 0 82.5 10t54.5 25.5t30 34.5t9 37q0 48 -34 71.5t-88 23.5q-27 0 -53.5 -5t-48.5 -16l-2 19q21 9 48.5 14.5t54.5 5.5q66 0 104.5 -28t38.5 -85q0 -45 -31 -75.5t-92 -39.5q70 -14 100 -46.5
t30 -83.5q0 -54 -40.5 -87.5t-113.5 -33.5q-27 0 -54.5 4t-52.5 14l2 19q26 -11 52.5 -15t52.5 -4q34 0 59.5 8.5t42 22.5t24.5 33t8 39q0 22 -8 44t-29 38.5t-56.5 27t-89.5 10.5v18z" />
    <glyph glyph-name="twothirds" unicode="&#x2154;" horiz-adv-x="900" 
d="M262 -15h-22l392 730h22zM43 237v20q51 42 99 91.5t90 103.5q30 40 40.5 69.5t10.5 59.5q0 57 -32.5 83t-86.5 26q-61 0 -108 -25l-2 20q48 23 110 23q67 0 103 -33.5t36 -93.5q0 -30 -11 -63t-45 -78q-43 -57 -90 -104t-86 -79h236v-20h-264zM637 252q49 0 82.5 10
t54.5 25.5t30 34.5t9 37q0 48 -34 71.5t-88 23.5q-27 0 -53.5 -5t-48.5 -16l-2 19q21 9 48.5 14.5t54.5 5.5q66 0 104.5 -28t38.5 -85q0 -45 -31 -75.5t-92 -39.5q70 -14 100 -46.5t30 -83.5q0 -54 -40.5 -87.5t-113.5 -33.5q-27 0 -54.5 4t-52.5 14l2 19q26 -11 52.5 -15
t52.5 -4q34 0 59.5 8.5t42 22.5t24.5 33t8 39q0 22 -8 44t-29 38.5t-56.5 27t-89.5 10.5v18z" />
    <glyph glyph-name="onefifth" unicode="&#x2155;" horiz-adv-x="900" 
d="M216 -15h-22l392 730h22zM86 603l-11 16l109 82h20v-464h-20v441zM596 464h233v-18h-213v-176q15 8 33.5 11.5t37.5 3.5q69 0 113.5 -38.5t44.5 -108.5q0 -36 -13 -63t-35.5 -45t-53.5 -27.5t-68 -9.5q-51 0 -93 19l3 20q42 -21 90 -21q69 0 109.5 32t40.5 95
q0 61 -37 95t-103 34q-52 0 -89 -21v218z" />
    <glyph glyph-name="twofifths" unicode="&#x2156;" horiz-adv-x="900" 
d="M257 -15h-22l392 730h22zM43 237v20q51 42 99 91.5t90 103.5q30 40 40.5 69.5t10.5 59.5q0 57 -32.5 83t-86.5 26q-61 0 -108 -25l-2 20q48 23 110 23q67 0 103 -33.5t36 -93.5q0 -30 -11 -63t-45 -78q-43 -57 -90 -104t-86 -79h236v-20h-264zM596 464h233v-18h-213v-176
q15 8 33.5 11.5t37.5 3.5q69 0 113.5 -38.5t44.5 -108.5q0 -36 -13 -63t-35.5 -45t-53.5 -27.5t-68 -9.5q-51 0 -93 19l3 20q42 -21 90 -21q69 0 109.5 32t40.5 95q0 61 -37 95t-103 34q-52 0 -89 -21v218z" />
    <glyph glyph-name="threefifths" unicode="&#x2157;" horiz-adv-x="900" 
d="M248 -15h-22l392 730h22zM102 488q49 0 82.5 10t54.5 25.5t30 34.5t9 37q0 48 -34 71.5t-88 23.5q-27 0 -53.5 -5t-48.5 -16l-2 19q21 9 48.5 14.5t54.5 5.5q66 0 104.5 -28t38.5 -85q0 -45 -31 -75.5t-92 -39.5q70 -14 100 -46.5t30 -83.5q0 -54 -40.5 -87.5
t-113.5 -33.5q-27 0 -54.5 4t-52.5 14l2 19q26 -11 52.5 -15t52.5 -4q34 0 59.5 8.5t42 22.5t24.5 33t8 39q0 22 -8 44t-29 38.5t-56.5 27t-89.5 10.5v18zM596 464h233v-18h-213v-176q15 8 33.5 11.5t37.5 3.5q69 0 113.5 -38.5t44.5 -108.5q0 -36 -13 -63t-35.5 -45
t-53.5 -27.5t-68 -9.5q-51 0 -93 19l3 20q42 -21 90 -21q69 0 109.5 32t40.5 95q0 61 -37 95t-103 34q-52 0 -89 -21v218z" />
    <glyph glyph-name="fourfifths" unicode="&#x2158;" horiz-adv-x="900" 
d="M257 -15h-22l392 730h22zM17 346v18l239 336h21v-336h56v-18h-56v-109h-20v109h-240zM40 364h217v305zM596 464h233v-18h-213v-176q15 8 33.5 11.5t37.5 3.5q69 0 113.5 -38.5t44.5 -108.5q0 -36 -13 -63t-35.5 -45t-53.5 -27.5t-68 -9.5q-51 0 -93 19l3 20
q42 -21 90 -21q69 0 109.5 32t40.5 95q0 61 -37 95t-103 34q-52 0 -89 -21v218z" />
    <glyph glyph-name="onesixth" unicode="&#x2159;" horiz-adv-x="900" 
d="M218 -15h-22l392 730h22zM86 603l-11 16l109 82h20v-464h-20v441zM704 289q70 0 110.5 -40t40.5 -109q0 -33 -11.5 -60.5t-31.5 -46.5t-46.5 -29.5t-55.5 -10.5q-33 0 -62 13t-50.5 40.5t-34 69.5t-12.5 99q0 68 14 116.5t38.5 80t58.5 46t74 14.5q21 0 43.5 -3.5
t40.5 -11.5l-2 -19q-35 16 -84 16q-72 0 -116.5 -56t-46.5 -177q22 29 58.5 48.5t74.5 19.5zM709 11q29 0 52.5 10.5t40 28t25 41t8.5 49.5q0 57 -32 94t-99 37q-38 0 -73.5 -19t-59.5 -56q2 -50 13.5 -85t30.5 -57t43 -32.5t51 -10.5z" />
    <glyph glyph-name="fivesixths" unicode="&#x215a;" horiz-adv-x="900" 
d="M256 -15h-22l392 730h22zM66 700h233v-18h-213v-176q15 8 33.5 11.5t37.5 3.5q69 0 113.5 -38.5t44.5 -108.5q0 -36 -13 -63t-35.5 -45t-53.5 -27.5t-68 -9.5q-51 0 -93 19l3 20q42 -21 90 -21q69 0 109.5 32t40.5 95q0 61 -37 95t-103 34q-52 0 -89 -21v218zM704 289
q70 0 110.5 -40t40.5 -109q0 -33 -11.5 -60.5t-31.5 -46.5t-46.5 -29.5t-55.5 -10.5q-33 0 -62 13t-50.5 40.5t-34 69.5t-12.5 99q0 68 14 116.5t38.5 80t58.5 46t74 14.5q21 0 43.5 -3.5t40.5 -11.5l-2 -19q-35 16 -84 16q-72 0 -116.5 -56t-46.5 -177q22 29 58.5 48.5
t74.5 19.5zM709 11q29 0 52.5 10.5t40 28t25 41t8.5 49.5q0 57 -32 94t-99 37q-38 0 -73.5 -19t-59.5 -56q2 -50 13.5 -85t30.5 -57t43 -32.5t51 -10.5z" />
    <glyph glyph-name="oneeighth" unicode="&#x215b;" horiz-adv-x="900" 
d="M233 -15h-22l392 730h22zM86 603l-11 16l109 82h20v-464h-20v441zM706 -7q-33 0 -61 8t-48.5 23.5t-32.5 38t-12 51.5q0 48 33.5 81t87.5 51q-52 21 -76.5 49t-24.5 68q0 51 38 80t96 29q60 0 95.5 -30.5t35.5 -78.5q0 -80 -104 -119q37 -15 61 -30t38 -31.5t19.5 -34
t5.5 -37.5q0 -27 -11.5 -49t-32 -37.5t-48 -23.5t-59.5 -8zM572 114q0 -26 10.5 -45t28.5 -32t42.5 -19.5t52.5 -6.5q27 0 51 7t42 20t28 31.5t10 42.5q0 17 -6 33.5t-21.5 32.5t-42.5 30.5t-69 28.5q-66 -20 -96 -50.5t-30 -72.5zM817 363q0 39 -30 65t-81 26
q-57 0 -85.5 -27t-28.5 -64q0 -36 28 -63t89 -47q56 18 82 46.5t26 63.5z" />
    <glyph glyph-name="threeeighths" unicode="&#x215c;" horiz-adv-x="900" 
d="M251 -15h-22l392 730h22zM102 488q49 0 82.5 10t54.5 25.5t30 34.5t9 37q0 48 -34 71.5t-88 23.5q-27 0 -53.5 -5t-48.5 -16l-2 19q21 9 48.5 14.5t54.5 5.5q66 0 104.5 -28t38.5 -85q0 -45 -31 -75.5t-92 -39.5q70 -14 100 -46.5t30 -83.5q0 -54 -40.5 -87.5
t-113.5 -33.5q-27 0 -54.5 4t-52.5 14l2 19q26 -11 52.5 -15t52.5 -4q34 0 59.5 8.5t42 22.5t24.5 33t8 39q0 22 -8 44t-29 38.5t-56.5 27t-89.5 10.5v18zM706 -7q-33 0 -61 8t-48.5 23.5t-32.5 38t-12 51.5q0 48 33.5 81t87.5 51q-52 21 -76.5 49t-24.5 68q0 51 38 80
t96 29q60 0 95.5 -30.5t35.5 -78.5q0 -80 -104 -119q37 -15 61 -30t38 -31.5t19.5 -34t5.5 -37.5q0 -27 -11.5 -49t-32 -37.5t-48 -23.5t-59.5 -8zM572 114q0 -26 10.5 -45t28.5 -32t42.5 -19.5t52.5 -6.5q27 0 51 7t42 20t28 31.5t10 42.5q0 17 -6 33.5t-21.5 32.5
t-42.5 30.5t-69 28.5q-66 -20 -96 -50.5t-30 -72.5zM817 363q0 39 -30 65t-81 26q-57 0 -85.5 -27t-28.5 -64q0 -36 28 -63t89 -47q56 18 82 46.5t26 63.5z" />
    <glyph glyph-name="fiveeighths" unicode="&#x215d;" horiz-adv-x="900" 
d="M251 -15h-22l392 730h22zM66 700h233v-18h-213v-176q15 8 33.5 11.5t37.5 3.5q69 0 113.5 -38.5t44.5 -108.5q0 -36 -13 -63t-35.5 -45t-53.5 -27.5t-68 -9.5q-51 0 -93 19l3 20q42 -21 90 -21q69 0 109.5 32t40.5 95q0 61 -37 95t-103 34q-52 0 -89 -21v218zM706 -7
q-33 0 -61 8t-48.5 23.5t-32.5 38t-12 51.5q0 48 33.5 81t87.5 51q-52 21 -76.5 49t-24.5 68q0 51 38 80t96 29q60 0 95.5 -30.5t35.5 -78.5q0 -80 -104 -119q37 -15 61 -30t38 -31.5t19.5 -34t5.5 -37.5q0 -27 -11.5 -49t-32 -37.5t-48 -23.5t-59.5 -8zM572 114
q0 -26 10.5 -45t28.5 -32t42.5 -19.5t52.5 -6.5q27 0 51 7t42 20t28 31.5t10 42.5q0 17 -6 33.5t-21.5 32.5t-42.5 30.5t-69 28.5q-66 -20 -96 -50.5t-30 -72.5zM817 363q0 39 -30 65t-81 26q-57 0 -85.5 -27t-28.5 -64q0 -36 28 -63t89 -47q56 18 82 46.5t26 63.5z" />
    <glyph glyph-name="seveneighths" unicode="&#x215e;" horiz-adv-x="900" 
d="M213 -15h-22l392 730h22zM139 237h-22l181 445h-248v18h269v-18zM706 -7q-33 0 -61 8t-48.5 23.5t-32.5 38t-12 51.5q0 48 33.5 81t87.5 51q-52 21 -76.5 49t-24.5 68q0 51 38 80t96 29q60 0 95.5 -30.5t35.5 -78.5q0 -80 -104 -119q37 -15 61 -30t38 -31.5t19.5 -34
t5.5 -37.5q0 -27 -11.5 -49t-32 -37.5t-48 -23.5t-59.5 -8zM572 114q0 -26 10.5 -45t28.5 -32t42.5 -19.5t52.5 -6.5q27 0 51 7t42 20t28 31.5t10 42.5q0 17 -6 33.5t-21.5 32.5t-42.5 30.5t-69 28.5q-66 -20 -96 -50.5t-30 -72.5zM817 363q0 39 -30 65t-81 26
q-57 0 -85.5 -27t-28.5 -64q0 -36 28 -63t89 -47q56 18 82 46.5t26 63.5z" />
    <glyph glyph-name="uni215F" unicode="&#x215f;" horiz-adv-x="900" 
d="M206 -15h-22l392 730h22zM86 603l-11 16l109 82h20v-464h-20v441z" />
    <glyph glyph-name="arrowleft" unicode="&#x2190;" horiz-adv-x="860" 
d="M824 322h-621l46 -160l-213 170l213 163l-46 -153h621v-20z" />
    <glyph glyph-name="arrowup" unicode="&#x2191;" horiz-adv-x="860" 
d="M420 -38v621l-153 -46l163 213l170 -213l-160 46v-621h-20z" />
    <glyph glyph-name="arrowright" unicode="&#x2192;" horiz-adv-x="860" 
d="M36 342h621l-46 153l213 -163l-213 -170l46 160h-621v20z" />
    <glyph glyph-name="arrowdown" unicode="&#x2193;" horiz-adv-x="860" 
d="M440 750v-621l160 46l-170 -213l-163 213l153 -46v621h20z" />
    <glyph glyph-name="arrowboth" unicode="&#x2194;" horiz-adv-x="860" 
d="M657 342l-46 153l213 -163l-213 -170l46 160h-453l46 -160l-213 170l213 163l-46 -153h453z" />
    <glyph glyph-name="arrowupdn" unicode="&#x2195;" horiz-adv-x="860" 
d="M420 129v453l-153 -46l163 213l170 -213l-160 46v-453l160 46l-170 -213l-163 213z" />
    <glyph glyph-name="arrowupdnbse" unicode="&#x21a8;" horiz-adv-x="860" 
d="M623 -68v-20h-386v20h386zM420 129v453l-153 -46l163 213l170 -213l-160 46v-453l160 46l-170 -213l-163 213z" />
    <glyph glyph-name="partialdiff" unicode="&#x2202;" horiz-adv-x="549" 
d="M479 441q0 249 -182 249q-35 0 -61.5 -5t-49.5 -16l-2 19q20 9 48 14.5t65 5.5q106 0 154 -69t48 -201q0 -95 -21.5 -177t-60.5 -143t-92.5 -95.5t-117.5 -34.5q-75 0 -116 47t-41 144q0 63 21.5 117.5t57.5 95t84 63.5t102 23q51 0 91.5 -16t72.5 -42v21zM315 460
q-49 0 -93.5 -21.5t-78 -59t-53.5 -88.5t-20 -110q0 -88 35.5 -131.5t101.5 -43.5q53 0 100.5 30t84 82.5t60 124t27.5 155.5q-70 62 -164 62z" />
    <glyph glyph-name="Delta" unicode="&#x2206;" horiz-adv-x="618" 
d="M15 0l283 700h22l283 -700h-588zM573 18l-264 660l-265 -660h529z" />
    <glyph glyph-name="product" unicode="&#x220f;" horiz-adv-x="667" 
d="M90 740h487v-851h-20v833h-447v-833h-20v851z" />
    <glyph glyph-name="summation" unicode="&#x2211;" horiz-adv-x="616" 
d="M272 331l-222 391v18h526v-18h-505l221 -386v-12l-220 -417h504v-18h-526v18z" />
    <glyph glyph-name="minus" unicode="&#x2212;" horiz-adv-x="618" 
d="M70 323v18h478v-18h-478z" />
    <glyph glyph-name="uni2215" unicode="&#x2215;" horiz-adv-x="443" 
d="M51 -15h-21l362 730h21z" />
    <glyph glyph-name="uni2219" unicode="&#x2219;" horiz-adv-x="280" 
d="M125 332q0 27 3 34.5t12 7.5t12 -7.5t3 -34.5t-3 -34.5t-12 -7.5t-12 7.5t-3 34.5z" />
    <glyph glyph-name="radical" unicode="&#x221a;" horiz-adv-x="713" 
d="M210 374l134 -353l197 749h22l-202 -770h-32l-135 356h-84v18h100z" />
    <glyph glyph-name="infinity" unicode="&#x221e;" horiz-adv-x="768" 
d="M570 192q-25 0 -47.5 6t-44.5 20.5t-45 38t-49 59.5q-27 -36 -50 -59.5t-45 -38t-44 -20.5t-47 -6q-26 0 -49.5 10t-41 28t-27.5 44t-10 58t10 58t27.5 44t41 28t49.5 10q25 0 47 -6t44 -20.5t45 -38t50 -59.5q26 36 49 59.5t45 38t44.5 20.5t47.5 6q26 0 49.5 -10
t41 -28t27.5 -44t10 -58t-10 -58t-27.5 -44t-41 -28t-49.5 -10zM569 454q-20 0 -39.5 -5.5t-40.5 -19t-44 -37t-50 -60.5q27 -37 50 -61t44 -37.5t40.5 -18.5t39.5 -5q45 0 77 32.5t32 89.5t-32 89.5t-77 32.5zM199 210q21 0 40 5t39.5 18.5t43 37.5t50.5 61
q-28 37 -50.5 61t-43 37.5t-39.5 18.5t-40 5q-45 0 -77 -32.5t-32 -89.5t32 -89.5t77 -32.5z" />
    <glyph glyph-name="orthogonal" unicode="&#x221f;" horiz-adv-x="630" 
d="M600 0h-490v575h19v-557h471v-18z" />
    <glyph glyph-name="intersection" unicode="&#x2229;" horiz-adv-x="744" 
d="M372 617q129 0 195.5 -90t66.5 -261v-266h-20v268q0 163 -62.5 247t-179.5 84t-179.5 -84t-62.5 -247v-268h-20v266q0 171 66.5 261t195.5 90z" />
    <glyph glyph-name="integral" unicode="&#x222b;" horiz-adv-x="550" 
d="M285 -37q0 -52 -9 -87t-26.5 -56.5t-42.5 -30.5t-58 -9q-30 0 -59 8l3 17q14 -5 28.5 -6.5t30.5 -1.5q27 0 48 8t35.5 27.5t22 51.5t7.5 79v604q0 52 9 87t26.5 56.5t42.5 30.5t58 9q30 0 59 -8l-3 -17q-14 5 -28.5 6.5t-30.5 1.5q-27 0 -48 -8t-35.5 -27.5t-22 -51.5
t-7.5 -79v-604z" />
    <glyph glyph-name="approxequal" unicode="&#x2248;" horiz-adv-x="618" 
d="M300 423q-31 32 -55.5 45t-55.5 13q-45 0 -72 -31.5t-27 -91.5h-20q0 72 35 106.5t86 34.5q35 0 64.5 -15.5t62.5 -50.5q31 -32 55.5 -45.5t55.5 -13.5q45 0 72 31.5t27 91.5h20q0 -72 -35 -106.5t-86 -34.5q-35 0 -64.5 16t-62.5 51zM300 232q-31 32 -55.5 45t-55.5 13
q-45 0 -72 -31.5t-27 -91.5h-20q0 72 35 106.5t86 34.5q35 0 64.5 -15.5t62.5 -50.5q31 -32 55.5 -45.5t55.5 -13.5q45 0 72 31.5t27 91.5h20q0 -72 -35 -106.5t-86 -34.5q-35 0 -64.5 16t-62.5 51z" />
    <glyph glyph-name="notequal" unicode="&#x2260;" horiz-adv-x="618" 
d="M70 213v18h158l139 202h-297v18h310l135 196h22l-135 -196h146v-18h-159l-139 -202h298v-18h-310l-135 -196h-22l135 196h-146z" />
    <glyph glyph-name="equivalence" unicode="&#x2261;" horiz-adv-x="618" 
d="M70 493v18h478v-18h-478zM70 153v18h478v-18h-478zM70 323v18h478v-18h-478z" />
    <glyph glyph-name="lessequal" unicode="&#x2264;" horiz-adv-x="618" 
d="M70 408l478 225v-22l-458 -215l458 -215v-22l-478 225v24zM70 66v18h478v-18h-478z" />
    <glyph glyph-name="greaterequal" unicode="&#x2265;" horiz-adv-x="618" 
d="M548 384l-478 -225v22l458 215l-458 215v22l478 -225v-24zM70 66v18h478v-18h-478z" />
    <glyph glyph-name="house" unicode="&#x2302;" horiz-adv-x="702" 
d="M592 0h-482v328l241 288l241 -288v-328zM572 18v304l-221 265l-221 -265v-304h442z" />
    <glyph glyph-name="revlogicalnot" unicode="&#x2310;" horiz-adv-x="618" 
d="M553 416h-458v-253h-20v271h478v-18z" />
    <glyph glyph-name="uni2318" unicode="&#x2318;" horiz-adv-x="881" 
d="M515 397h-149v-148h149v148zM515 501q0 67 32 109t95 42q60 0 94.5 -35.5t34.5 -93.5q0 -31 -11.5 -54.5t-32 -39.5t-48 -24t-59.5 -8h-85v-148h85q32 0 59.5 -8t48 -24t32 -39.5t11.5 -54.5q0 -58 -34.5 -93.5t-94.5 -35.5q-63 0 -95 42t-32 109v86h-149v-86
q0 -67 -32 -109t-95 -42q-60 0 -94.5 35.5t-34.5 93.5q0 31 11.5 54.5t31.5 39.5t48 24t60 8h85v148h-85q-32 0 -60 8t-48 24t-31.5 39.5t-11.5 54.5q0 58 34.5 93.5t94.5 35.5q63 0 95 -42t32 -109v-86h149v86zM346 501q0 63 -27.5 98t-79.5 35t-80.5 -31.5t-28.5 -79.5
q0 -52 35.5 -80t95.5 -28h85v86zM346 231h-85q-60 0 -95.5 -28t-35.5 -80q0 -48 28.5 -79.5t80.5 -31.5t79.5 35t27.5 98v86zM535 415h85q60 0 95.5 28t35.5 80q0 48 -28.5 79.5t-80.5 31.5t-79.5 -35t-27.5 -98v-86zM535 145q0 -63 27.5 -98t79.5 -35t80.5 31.5t28.5 79.5
q0 52 -35.5 80t-95.5 28h-85v-86z" />
    <glyph glyph-name="integraltp" unicode="&#x2320;" horiz-adv-x="685" 
d="M330 0v164q0 22 1 60t4 84.5t8 97.5t13 99q7 45 19 82.5t30 65.5t43 43.5t60 15.5q39 0 63 -20t24 -52q0 -26 -15 -41t-42 -15q-20 0 -34 9.5t-19 24.5q-4 11 -4 29q0 15 -12 15q-15 0 -25.5 -24t-17.5 -62.5t-11.5 -87.5t-7 -99t-3 -97t-0.5 -81v-211h-74z" />
    <glyph glyph-name="integralbt" unicode="&#x2321;" horiz-adv-x="685" 
d="M404 999v-164q0 -22 -1 -60t-4 -84.5t-8 -97.5t-13 -99q-8 -45 -19.5 -82.5t-29.5 -65.5t-43 -43.5t-60 -15.5q-39 0 -63 20t-24 52q0 26 15 41t42 15q20 0 34 -9.5t19 -24.5q4 -11 4 -29q0 -15 12 -15q15 0 25.5 24t17.5 62.5t11.5 87.5t7 99t3 97t0.5 81v211h74z" />
    <glyph glyph-name="SF100000" unicode="&#x2500;" 
d="M1000 290h-1000v20h1000v-20z" />
    <glyph glyph-name="SF110000" unicode="&#x2502;" 
d="M490 910h20v-1220h-20v1220z" />
    <glyph glyph-name="SF010000" unicode="&#x250c;" 
d="M490 310h510v-20h-490v-600h-20v620z" />
    <glyph glyph-name="SF030000" unicode="&#x2510;" 
d="M510 -310h-20v600h-490v20h510v-620z" />
    <glyph glyph-name="SF020000" unicode="&#x2514;" 
d="M490 910h20v-600h490v-20h-510v620z" />
    <glyph glyph-name="SF040000" unicode="&#x2518;" 
d="M510 290h-510v20h490v600h20v-620z" />
    <glyph glyph-name="SF080000" unicode="&#x251c;" 
d="M510 910v-600h490v-20h-490v-600h-20v1220h20z" />
    <glyph glyph-name="SF090000" unicode="&#x2524;" 
d="M510 -310h-20v600h-490v20h490v600h20v-1220z" />
    <glyph glyph-name="SF060000" unicode="&#x252c;" 
d="M1000 290h-490v-600h-20v600h-490v20h1000v-20z" />
    <glyph glyph-name="SF070000" unicode="&#x2534;" 
d="M0 290v20h490v600h20v-600h490v-20h-1000z" />
    <glyph glyph-name="SF050000" unicode="&#x253c;" 
d="M510 910v-600h490v-20h-490v-600h-20v600h-490v20h490v600h20z" />
    <glyph glyph-name="SF430000" unicode="&#x2550;" 
d="M1000 364h-1000v20h1000v-20zM1000 216h-1000v20h1000v-20z" />
    <glyph glyph-name="SF240000" unicode="&#x2551;" 
d="M436 910v-1220h-20v1220h20zM584 910v-1220h-20v1220h20z" />
    <glyph glyph-name="SF510000" unicode="&#x2552;" 
d="M1000 216h-490v-526h-20v694h510v-20h-490v-128h490v-20z" />
    <glyph glyph-name="SF520000" unicode="&#x2553;" 
d="M1000 290h-416v-600h-20v600h-128v-600h-20v620h584v-20z" />
    <glyph glyph-name="SF390000" unicode="&#x2554;" 
d="M1000 364h-564v-674h-20v694h584v-20zM1000 216h-416v-526h-20v546h436v-20z" />
    <glyph glyph-name="SF220000" unicode="&#x2555;" 
d="M0 236h490v128h-490v20h510v-694h-20v526h-490v20z" />
    <glyph glyph-name="SF210000" unicode="&#x2556;" 
d="M0 310h584v-620h-20v600h-128v-600h-20v600h-416v20z" />
    <glyph glyph-name="SF250000" unicode="&#x2557;" 
d="M0 384h584v-694h-20v674h-564v20zM0 236h436v-546h-20v526h-416v20z" />
    <glyph glyph-name="SF500000" unicode="&#x2558;" 
d="M1000 364h-490v-128h490v-20h-510v694h20v-526h490v-20z" />
    <glyph glyph-name="SF490000" unicode="&#x2559;" 
d="M1000 290h-584v620h20v-600h128v600h20v-600h416v-20z" />
    <glyph glyph-name="SF380000" unicode="&#x255a;" 
d="M1000 216h-584v694h20v-674h564v-20zM1000 364h-436v546h20v-526h416v-20z" />
    <glyph glyph-name="SF280000" unicode="&#x255b;" 
d="M0 384h490v526h20v-694h-510v20h490v128h-490v20z" />
    <glyph glyph-name="SF270000" unicode="&#x255c;" 
d="M0 310h416v600h20v-600h128v600h20v-620h-584v20z" />
    <glyph glyph-name="SF260000" unicode="&#x255d;" 
d="M0 236h564v674h20v-694h-584v20zM0 384h416v526h20v-546h-436v20z" />
    <glyph glyph-name="SF360000" unicode="&#x255e;" 
d="M1000 364h-490v-128h490v-20h-490v-526h-20v1220h20v-526h490v-20z" />
    <glyph glyph-name="SF370000" unicode="&#x255f;" 
d="M1000 290h-416v-600h-20v1220h20v-600h416v-20zM436 910v-1220h-20v1220h20z" />
    <glyph glyph-name="SF420000" unicode="&#x2560;" 
d="M436 910v-1220h-20v1220h20zM1000 216h-416v-526h-20v546h436v-20zM584 910v-526h416v-20h-436v546h20z" />
    <glyph glyph-name="SF190000" unicode="&#x2561;" 
d="M0 384h490v526h20v-1220h-20v526h-490v20h490v128h-490v20z" />
    <glyph glyph-name="SF200000" unicode="&#x2562;" 
d="M0 310h416v600h20v-1220h-20v600h-416v20zM584 910v-1220h-20v1220h20z" />
    <glyph glyph-name="SF230000" unicode="&#x2563;" 
d="M584 910v-1220h-20v1220h20zM0 236h436v-546h-20v526h-416v20zM436 910v-546h-436v20h416v526h20z" />
    </font>
</defs>
</svg>
