<svg
   xmlns:dc="http://purl.org/dc/elements/1.1/"
   xmlns:cc="http://creativecommons.org/ns#"
   xmlns:rdf="http://www.w3.org/1999/02/22-rdf-syntax-ns#"
   xmlns:svg="http://www.w3.org/2000/svg"
   xmlns="http://www.w3.org/2000/svg"
   xmlns:sodipodi="http://sodipodi.sourceforge.net/DTD/sodipodi-0.dtd"
   xmlns:inkscape="http://www.inkscape.org/namespaces/inkscape"
   version="1.1"
   id="Layer_1"
   x="0px"
   y="0px"
   viewBox="0 0 567.29996 407.69999"
   xml:space="preserve"
   inkscape:version="0.91 r13725"
   sodipodi:docname="arsenal_house_logo.svg"
   width="100%"
   height="100%"><style
     type="text/css"
     id="style3">
	.st0{fill:#b79d7c;}
</style><g
     id="g5"
     transform="translate(0,-79.6)"><g
       id="g7"><g
         id="g9"><path
           class="st0"
           d="m 83.2,378.4 c -2.4,0 -3.9,-0.2 -4.6,-0.4 -0.7,-0.2 -1.3,-0.6 -1.7,-1 -0.5,-0.4 -1.3,-1.9 -2.5,-4.4 -1.2,-2.5 -2.3,-4.8 -3.2,-6.9 l -3.2,-7.4 -23.7,-55.6 -3.6,0 c -2.8,6.7 -5.6,13.4 -8.5,20.1 l -15.1,34.1 -5.8,12.6 c -1.9,4 -3.1,6.3 -3.7,7.1 -0.6,0.7 -1.3,1.2 -2.1,1.4 -0.8,0.2 -2.5,0.4 -5.2,0.4 l -0.3,0.5 0,2.9 0.5,0.4 c 4.1,-0.3 8.2,-0.4 12.3,-0.4 3.6,0 7.8,0.1 12.5,0.4 l 0.4,-0.4 0,-2.9 -0.5,-0.4 c -4,0 -6.5,-0.3 -7.5,-0.7 -1,-0.4 -1.5,-1.1 -1.5,-2 0,-1.2 0.5,-3 1.6,-5.6 l 6,-14.2 32.2,0 6.8,16.9 c 0.5,1.3 0.8,2.4 0.8,3.2 0,1 -0.5,1.6 -1.5,1.9 -1,0.3 -3.6,0.5 -7.8,0.5 l -0.4,0.4 0,2.9 0.4,0.4 c 6.1,-0.1 12.3,-0.3 18.4,-0.5 3.1,0 6.7,0.2 10.6,0.5 l 0.4,-0.4 0,-2.9 -0.5,-0.5 z m -57.4,-27.3 14.1,-33.4 13.9,33.4 -28,0 z"
           id="path11"
           inkscape:connector-curvature="0"
            /><path
           class="st0"
           d="m 148.8,310.9 c -2.2,-2.8 -5,-4.8 -8.4,-5.9 -3.4,-1.1 -7.7,-1.6 -12.8,-1.6 -1.1,0 -3.9,0.1 -8.5,0.2 -4.3,0.2 -8.2,0.3 -11.7,0.3 -2.6,0 -8.5,-0.1 -17.8,-0.4 l -0.4,0.4 0,2.8 0.4,0.4 c 3.9,0.1 6.4,0.4 7.4,0.6 1,0.3 1.7,0.6 2,1 0.4,0.4 0.6,1.2 0.8,2.4 0.2,1.2 0.3,3.9 0.3,8.1 l 0.1,10.8 0,25.7 -0.1,11.7 c 0,4 -0.2,6.5 -0.4,7.6 -0.2,1.1 -0.6,1.9 -0.9,2.2 -0.4,0.4 -1.2,0.6 -2.3,0.9 -1.1,0.2 -3.4,0.4 -6.9,0.6 l -0.4,0.3 0,2.8 0.4,0.4 c 9.3,-0.3 14.6,-0.4 15.8,-0.4 1.2,0 6.5,0.1 15.9,0.4 l 0.4,-0.4 0,-2.8 -0.4,-0.3 c -3.9,-0.1 -6.4,-0.4 -7.4,-0.6 -1,-0.3 -1.7,-0.6 -2,-1 -0.4,-0.4 -0.6,-1.2 -0.8,-2.4 -0.2,-1.2 -0.3,-3.9 -0.3,-8.1 l -0.1,-10.8 0,-25.8 c 0,-10.9 0.2,-17.8 0.5,-20.6 4,-1.3 7.7,-1.9 11.1,-1.9 6.2,0 10.8,1.5 13.8,4.5 3,3 4.6,7 4.6,12 0,5 -1.5,9.1 -4.4,12.3 -2.9,3.2 -6.8,4.8 -11.7,4.8 -1.7,0 -4,-0.3 -6.8,-0.9 l -0.5,0.6 0.9,3.4 c 2.8,0.5 5.4,0.8 7.6,0.8 3.1,0 6,-0.5 8.9,-1.4 2.8,-0.9 5.7,-2.5 8.4,-4.7 2.8,-2.2 4.9,-4.8 6.5,-7.9 1.6,-3.1 2.3,-6.3 2.3,-9.6 0.2,-4.3 -0.9,-7.7 -3.1,-10.5 z"
           id="path13"
           inkscape:connector-curvature="0"
            /><path
           class="st0"
           d="m 231.2,371.2 c -1.8,1.3 -3.8,2.5 -5.8,3.4 -2,0.9 -4.5,1.7 -7.6,2.3 -3,0.6 -6.2,0.9 -9.5,0.9 -7.4,0 -13.9,-1.5 -19.5,-4.5 -5.6,-3 -9.9,-7.3 -13.2,-12.9 -3.2,-5.6 -4.8,-12.1 -4.8,-19.4 0,-7.3 1.4,-13.6 4.1,-18.6 2.7,-5.1 6.6,-9 11.5,-11.6 4.9,-2.7 10.5,-4 16.8,-4 4.1,0 8.1,0.6 11.9,1.8 3.8,1.2 7.1,2.9 9.8,5 l 0.6,9.4 0.4,0.4 2.6,0 0.4,-0.4 c 0.7,-8.2 1.5,-13.3 2.4,-15.3 l -0.4,-0.6 c -3.2,-1.4 -7.2,-2.7 -12,-3.7 -4.8,-1 -9.7,-1.5 -14.6,-1.5 -8.5,0 -16.2,1.6 -23,4.7 -6.8,3.1 -12.3,7.8 -16.5,14.1 -4.2,6.3 -6.2,13.7 -6.2,22.1 0,12.2 4.2,22.1 12.5,29.7 8.3,7.6 19.2,11.4 32.5,11.4 9.3,0 18.1,-2.1 26.3,-6.3 l 2.1,-5.2 -0.8,-1.2 z"
           id="path15"
           inkscape:connector-curvature="0"
            /><path
           class="st0"
           d="m 299.4,362.9 -2.7,0 -0.6,0.4 c -0.1,0.8 -0.5,2.7 -1.3,5.8 -0.8,3.1 -1.3,5.1 -1.6,5.9 -2,0.8 -4.2,1.4 -6.4,1.6 -2.3,0.2 -7.9,0.3 -16.8,0.3 l -10.2,0 c -0.2,-3.7 -0.3,-9.4 -0.3,-17.1 0,-7.2 0.1,-12.4 0.3,-15.5 4.4,-0.2 7.7,-0.3 9.8,-0.3 3.9,0 6.9,0.1 9.1,0.3 2.2,0.2 3.6,0.5 4.1,0.9 0.5,0.4 0.9,0.8 1,1.3 0.1,0.5 0.4,2 0.7,4.6 l 0.4,3.3 0.4,0.4 2.5,0 0.4,-0.4 -0.3,-12.5 c 0.1,-4.1 0.2,-8.1 0.3,-12.1 l -0.4,-0.4 -2.5,0 -0.4,0.4 -0.2,3.4 c -0.1,1.7 -0.3,2.9 -0.5,3.6 -0.2,0.7 -0.5,1.1 -0.9,1.4 -0.4,0.2 -1.7,0.5 -4,0.7 -2.3,0.2 -5.1,0.3 -8.5,0.3 -3.4,0 -7,-0.1 -11,-0.3 l 0.2,-11.2 0.2,-10.1 0.2,-8.9 c 4.5,-0.4 8.3,-0.6 11.2,-0.6 2.1,0 5.2,0.2 9.3,0.5 4.1,0.3 7.3,1 9.7,2 0.5,2.8 0.7,5.8 0.7,9 0,0.3 0,0.6 -0.1,0.9 l 0.5,0.4 2.7,0 0.3,-0.4 c 0.4,-7.6 1.1,-13.1 2,-16.7 l -0.3,-0.4 c -9.5,0.2 -20.2,0.3 -32.4,0.3 -3.5,0 -11.7,-0.1 -24.3,-0.3 l -0.4,0.4 0,2.8 0.4,0.4 4.2,0.3 c 1.3,0.1 2.2,0.3 2.7,0.5 0.5,0.2 0.9,0.5 1.2,0.7 0.2,0.3 0.5,0.8 0.6,1.6 0.2,0.7 0.3,2 0.4,3.7 0.1,1.7 0.1,3.9 0.1,6.7 l 0.1,12.6 0,20.3 c 0,3.3 -0.1,8 -0.3,14.2 -0.2,6.2 -0.5,9.4 -0.8,9.7 -0.3,0.3 -1.6,1 -3.7,2.1 l -0.4,0.6 0,1.8 0.4,0.4 c 3.8,-0.3 7.5,-0.4 11,-0.4 l 15.1,0.1 c 11.4,0 20.6,0.1 27.7,0.3 l 0.4,-0.4 c 0,-2.8 0.2,-6.2 0.5,-10.1 0.3,-4 0.6,-6.7 1,-8.3 l -0.5,-0.5 z"
           id="path17"
           inkscape:connector-curvature="0"
            /><path
           class="st0"
           d="m 385.3,317.2 c 0,-2.7 0.1,-4.7 0.3,-6.2 0.2,-1.5 0.6,-2.4 1.2,-2.9 0.6,-0.4 1.6,-0.7 3,-0.8 1.4,-0.1 3.4,-0.3 6,-0.3 l 0.4,-0.4 0,-2.8 -0.4,-0.4 c -9.3,0.3 -14.6,0.4 -15.9,0.4 -1.1,0 -6.4,-0.1 -15.9,-0.4 l -0.4,0.4 0,2.8 0.4,0.4 c 4,0.1 6.4,0.4 7.4,0.6 1,0.3 1.7,0.6 2,1 0.3,0.4 0.6,1.2 0.8,2.4 0.2,1.2 0.3,3.9 0.3,8.1 l 0.1,10.8 0,7.8 c -5.2,0.2 -12.7,0.3 -22.6,0.3 -7.2,0 -14.9,-0.1 -23,-0.3 l 0,-7.7 0.1,-12.7 c 0,-2.7 0.1,-4.7 0.3,-6.2 0.2,-1.5 0.6,-2.4 1.2,-2.9 0.6,-0.4 1.6,-0.7 3,-0.8 1.4,-0.1 3.4,-0.3 5.9,-0.3 l 0.4,-0.4 0,-2.8 -0.4,-0.4 c -9.4,0.3 -14.7,0.4 -15.9,0.4 -1.1,0 -6.4,-0.1 -15.8,-0.4 l -0.4,0.4 0,2.8 0.4,0.4 c 3.9,0.1 6.4,0.4 7.4,0.6 1,0.3 1.7,0.6 2,1 0.4,0.4 0.6,1.2 0.8,2.4 0.2,1.2 0.3,3.9 0.3,8.1 l 0.1,10.8 0,25.7 -0.1,11.7 c 0,4 -0.2,6.5 -0.4,7.6 -0.2,1.1 -0.6,1.9 -0.9,2.2 -0.4,0.4 -1.2,0.6 -2.3,0.9 -1.1,0.2 -3.4,0.4 -6.9,0.6 l -0.4,0.3 0,2.8 0.4,0.4 c 9.4,-0.3 14.7,-0.4 15.8,-0.4 1.2,0 6.5,0.1 15.9,0.4 l 0.4,-0.4 0,-2.8 -0.4,-0.3 c -3.9,-0.1 -6.4,-0.4 -7.4,-0.6 -1,-0.3 -1.7,-0.6 -2,-1 -0.4,-0.4 -0.6,-1.2 -0.8,-2.4 -0.2,-1.2 -0.3,-3.9 -0.3,-8.1 l -0.1,-10.8 0,-12.8 c 10.6,-0.2 18.1,-0.3 22.6,-0.3 4.4,0 12.1,0.1 23,0.3 l 0,12.6 -0.1,11.7 c 0,4 -0.1,6.5 -0.4,7.6 -0.3,1.1 -0.6,1.9 -0.9,2.2 -0.4,0.4 -1.1,0.6 -2.3,0.9 -1.1,0.2 -3.5,0.4 -6.9,0.6 l -0.4,0.3 0,2.8 0.4,0.4 c 9.4,-0.3 14.7,-0.4 15.9,-0.4 1.1,0 6.4,0.1 15.9,0.4 l 0.4,-0.4 0,-2.7 -0.4,-0.3 c -4,-0.1 -6.4,-0.4 -7.4,-0.6 -1,-0.3 -1.6,-0.6 -2,-1 -0.4,-0.4 -0.6,-1.2 -0.8,-2.4 -0.2,-1.2 -0.3,-3.9 -0.3,-8.1 l -0.1,-10.8 0,-25.8 0.2,-12.8 z"
           id="path19"
           inkscape:connector-curvature="0"
            /><path
           class="st0"
           d="m 484.2,378.4 c -2.4,0 -3.9,-0.2 -4.6,-0.4 -0.7,-0.2 -1.3,-0.6 -1.7,-1 -0.5,-0.4 -1.3,-1.9 -2.5,-4.4 -1.2,-2.5 -2.3,-4.8 -3.2,-6.9 l -3.2,-7.4 -23.7,-55.6 -3.6,0 c -2.8,6.7 -5.6,13.4 -8.5,20.1 l -15.1,34.1 -5.8,12.6 c -1.9,4 -3.1,6.3 -3.7,7.1 -0.6,0.7 -1.3,1.2 -2.1,1.4 -0.8,0.2 -2.5,0.4 -5.2,0.4 l -0.5,0.4 0,2.9 0.5,0.4 c 4.1,-0.3 8.2,-0.4 12.3,-0.4 3.6,0 7.8,0.1 12.5,0.4 l 0.4,-0.4 0,-2.9 -0.5,-0.4 c -4,0 -6.5,-0.3 -7.5,-0.7 -1,-0.4 -1.5,-1.1 -1.5,-2 0,-1.2 0.5,-3 1.6,-5.6 l 6,-14.2 32.4,0 6.8,16.9 c 0.5,1.3 0.8,2.4 0.8,3.2 0,1 -0.5,1.6 -1.5,1.9 -1,0.3 -3.6,0.5 -7.8,0.5 l -0.4,0.4 0,2.9 0.4,0.4 c 6.1,-0.1 12.3,-0.3 18.4,-0.5 3.1,0 6.7,0.2 10.6,0.5 l 0.4,-0.4 0,-2.9 -0.5,-0.4 z m -57.4,-27.3 14.1,-33.4 13.9,33.4 -28,0 z"
           id="path21"
           inkscape:connector-curvature="0"
            /><path
           class="st0"
           d="m 566.8,378.6 c -3.1,-0.1 -5.3,-0.3 -6.6,-0.5 -1.3,-0.2 -2.2,-0.6 -2.6,-1 -0.4,-0.5 -0.7,-1.3 -0.9,-2.4 -0.1,-1.1 -0.3,-3.8 -0.3,-8.1 0,-4.3 -0.1,-7.9 -0.1,-11 l 0,-36.6 0.2,-9.2 c 0,-2.4 0.1,-4.5 0.2,-6 l -0.4,-0.4 -6.3,0.2 c -3.4,0.1 -6.6,0.2 -9.5,0.2 -2.9,0 -6.1,-0.1 -9.7,-0.2 -3.6,-0.1 -5.7,-0.2 -6.4,-0.2 l -0.4,0.4 0,2.8 0.4,0.4 c 6.9,0.3 11,0.8 12.5,1.3 1.5,0.5 2.2,1.4 2.2,2.6 0,0.6 -0.2,1.3 -0.7,2.2 -0.7,1.2 -3.4,5.1 -7.9,11.5 l -15,21.4 c -9.4,13.6 -15.6,22.5 -18.5,26.6 -2,2.8 -3.5,4.5 -4.6,5 -1.1,0.6 -3.1,0.9 -6.1,1.1 l -0.4,0.3 0,2.8 0.4,0.4 c 4.6,-0.3 9,-0.4 13.2,-0.4 3.5,0 7.2,0.1 10.9,0.4 l 0.4,-0.4 0,-2.8 -0.4,-0.3 -4.1,-0.2 c -2.3,0 -3.4,-0.8 -3.4,-2.2 0,-0.3 0.1,-0.8 0.3,-1.4 0.2,-0.6 2.2,-3.9 6.1,-9.9 l 15.2,-23.7 19.7,-30.6 1.5,0 0,45 c 0,2.6 0,6.1 -0.1,10.6 -0.1,4.4 -0.2,7.2 -0.3,8.4 -0.1,1.2 -0.4,2 -0.8,2.5 -0.4,0.5 -1.3,0.9 -2.6,1.1 -1.3,0.2 -3.6,0.4 -6.8,0.5 l -0.4,0.3 0,2.8 0.4,0.4 c 9.7,-0.3 15,-0.4 15.7,-0.4 1.4,0 4.4,0.1 8.8,0.2 4.6,0.1 7,0.2 7.3,0.2 l 0.4,-0.4 0,-2.9 -0.5,-0.4 z"
           id="path23"
           inkscape:connector-curvature="0"
            /></g><g
         id="g25"><path
           class="st0"
           d="m 164.3,420.8 c 0,-2.7 0.1,-4.7 0.3,-6.2 0.2,-1.5 0.6,-2.4 1.2,-2.9 0.6,-0.4 1.6,-0.7 3,-0.8 1.4,-0.1 3.4,-0.3 6,-0.3 l 0.4,-0.4 0,-2.8 -0.4,-0.4 c -9.3,0.3 -14.6,0.4 -15.9,0.4 -1.1,0 -6.4,-0.1 -15.9,-0.4 l -0.4,0.4 0,2.8 0.4,0.4 c 4,0.1 6.4,0.4 7.4,0.6 1,0.3 1.7,0.6 2,1 0.3,0.4 0.6,1.2 0.8,2.4 0.2,1.2 0.3,3.9 0.3,8.1 l 0.1,10.8 0,7.8 c -5.2,0.2 -12.7,0.3 -22.6,0.3 -7.2,0 -14.9,-0.1 -23,-0.3 l 0,-7.8 0.1,-12.7 c 0,-2.7 0.1,-4.7 0.3,-6.2 0.2,-1.5 0.6,-2.4 1.2,-2.9 0.6,-0.4 1.6,-0.7 3,-0.8 1.4,-0.1 3.4,-0.3 5.9,-0.3 l 0.4,-0.4 0,-2.8 -0.4,-0.4 c -9.4,0.3 -14.7,0.4 -15.9,0.4 -1.1,0 -6.4,-0.1 -15.8,-0.4 l -0.4,0.4 0,2.8 0.4,0.4 c 3.9,0.1 6.4,0.4 7.4,0.6 1,0.2 1.7,0.6 2,1 0.4,0.4 0.6,1.2 0.8,2.4 0.2,1.2 0.3,3.9 0.3,8.1 l 0.1,10.8 0,25.7 -0.1,11.7 c 0,4 -0.2,6.5 -0.4,7.6 -0.2,1.1 -0.6,1.9 -0.9,2.2 -0.4,0.4 -1.2,0.6 -2.3,0.9 -1.1,0.2 -3.4,0.4 -6.9,0.6 l -0.4,0.3 0,2.8 0.4,0.4 c 9.4,-0.3 14.7,-0.4 15.8,-0.4 1.2,0 6.5,0.1 15.9,0.4 l 0.4,-0.4 0,-2.8 -0.4,-0.3 c -3.9,-0.1 -6.4,-0.4 -7.4,-0.6 -1,-0.3 -1.7,-0.6 -2,-1 -0.4,-0.4 -0.6,-1.2 -0.8,-2.4 -0.2,-1.2 -0.3,-3.9 -0.3,-8.1 l -0.1,-10.8 0,-12.6 c 10.6,-0.2 18.1,-0.3 22.6,-0.3 4.4,0 12.1,0.1 23,0.3 l 0,12.6 -0.1,11.7 c 0,4 -0.1,6.5 -0.4,7.6 -0.3,1.1 -0.6,1.9 -0.9,2.2 -0.4,0.4 -1.1,0.6 -2.3,0.9 -1.1,0.2 -3.5,0.4 -6.9,0.6 l -0.4,0.3 0,2.8 0.4,0.4 c 9.4,-0.3 14.7,-0.4 15.9,-0.4 1.1,0 6.4,0.1 15.9,0.4 l 0.4,-0.4 0,-2.8 -0.4,-0.3 c -4,-0.1 -6.4,-0.4 -7.4,-0.6 -1,-0.3 -1.6,-0.6 -2,-1 -0.4,-0.4 -0.6,-1.2 -0.8,-2.4 -0.2,-1.2 -0.3,-3.9 -0.3,-8.1 l -0.1,-10.8 0,-25.7 0.2,-12.9 z"
           id="path27"
           inkscape:connector-curvature="0"
            /><path
           class="st0"
           d="m 253.4,415.7 c -7.5,-6.9 -17.5,-10.3 -30.1,-10.3 -6.8,0 -12.9,1.1 -18.3,3.4 -5.4,2.2 -10,5.4 -13.8,9.5 -3.8,4.1 -6.5,8.5 -8.1,13.3 -1.6,4.8 -2.4,10 -2.4,15.5 0,4.3 0.8,9.1 2.4,14.3 1.6,5.2 4.2,9.9 7.8,13.9 3.6,4 7.9,7 12.9,9 5.1,2 10.6,3 16.6,3 8.5,0 16.2,-1.8 23,-5.5 6.8,-3.7 12,-8.9 15.7,-15.5 3.7,-6.6 5.5,-14.1 5.5,-22.5 0,-11.9 -3.7,-21.2 -11.2,-28.1 z m -4,50.5 c -2.3,5.5 -5.7,9.6 -10.2,12.2 -4.5,2.6 -9.6,3.9 -15.3,3.9 -4.8,0 -9.2,-0.9 -12.9,-2.7 -3.8,-1.8 -7.1,-4.6 -10,-8.3 -2.9,-3.7 -5.1,-8.2 -6.5,-13.4 -1.5,-5.2 -2.2,-10 -2.2,-14.5 0,-11 2.6,-19.3 7.8,-24.9 5.2,-5.6 12.2,-8.4 21.2,-8.4 6,0 11.4,1.4 16.3,4.1 4.9,2.7 8.7,7.1 11.4,13.1 2.7,6 4,12.8 4,20.2 -0.1,7 -1.2,13.2 -3.6,18.7 z"
           id="path29"
           inkscape:connector-curvature="0"
            /><path
           class="st0"
           d="m 353,407 c -5.9,0.3 -10.3,0.4 -13.1,0.4 -3.3,0 -7.7,-0.1 -13.1,-0.4 l -0.4,0.5 0,2.6 0.4,0.4 c 4.3,0.1 6.9,0.3 7.8,0.7 0.9,0.4 1.6,1 1.9,1.7 0.4,0.8 0.6,3.7 0.7,8.7 0.1,5 0.1,9 0.1,11.9 l 0,17.1 c 0,6.2 -0.3,11.1 -0.9,14.5 -0.6,3.5 -1.8,6.3 -3.6,8.4 -1.8,2.1 -4.5,3.8 -8.1,4.9 -3.5,1.1 -7.3,1.7 -11.4,1.7 -3.8,0 -7.3,-0.4 -10.3,-1.3 -3,-0.8 -5.4,-1.9 -7,-3.3 -1.6,-1.3 -2.8,-3 -3.6,-4.8 -0.8,-1.9 -1.3,-4.2 -1.6,-6.9 -0.2,-2.7 -0.4,-7 -0.4,-12.8 l 0,-17.6 0.1,-12.7 c 0,-2.7 0.1,-4.7 0.3,-6.2 0.2,-1.5 0.6,-2.4 1.2,-2.9 0.6,-0.4 1.6,-0.7 3,-0.8 1.4,-0.1 3.4,-0.3 5.9,-0.3 l 0.4,-0.4 0,-2.8 -0.4,-0.4 c -9.3,0.3 -14.6,0.4 -15.9,0.4 -1.4,0 -6.7,-0.1 -15.8,-0.4 l -0.4,0.4 0,2.8 0.4,0.4 c 3.9,0.1 6.4,0.4 7.4,0.6 1,0.3 1.7,0.6 2,1 0.4,0.4 0.6,1.2 0.8,2.4 0.2,1.2 0.3,3.9 0.3,8.1 l 0.1,10.8 0,21.3 c 0,5.8 0.1,10.1 0.4,12.9 0.3,2.8 0.9,5.3 1.9,7.4 1,2.1 2.6,4.1 4.9,6 2.3,1.9 5.4,3.4 9.4,4.5 4,1.1 8.5,1.7 13.7,1.7 4.1,0 8.1,-0.4 12,-1.4 3.8,-0.9 7,-2.2 9.4,-3.9 2.5,-1.7 4.6,-3.8 6.4,-6.3 1.8,-2.5 2.9,-5.7 3.5,-9.6 0.5,-3.9 0.8,-9.2 0.8,-15.9 l 0,-16.8 0.2,-12.5 c 0.1,-4 0.2,-6.5 0.4,-7.3 0.2,-0.8 0.5,-1.5 0.9,-1.9 0.4,-0.4 1.2,-0.7 2.2,-0.9 1.1,-0.2 3.3,-0.3 6.8,-0.4 l 0.5,-0.4 0,-2.7 -0.2,-0.2 z"
           id="path31"
           inkscape:connector-curvature="0"
            /><path
           class="st0"
           d="m 409.8,449.5 c -1.8,-2.8 -4.2,-4.9 -7.2,-6.2 -3,-1.3 -7.7,-2.4 -14.3,-3.4 -4.8,-0.7 -8,-1.3 -9.8,-1.8 -1.8,-0.5 -3.4,-1.2 -4.7,-2.2 -1.3,-1 -2.4,-2.3 -3.3,-4 -0.8,-1.7 -1.3,-3.6 -1.3,-5.8 0,-2.8 0.7,-5.6 2.1,-8.3 1.4,-2.7 3.5,-4.7 6.2,-5.9 2.7,-1.3 5.7,-1.9 8.8,-1.9 3.8,0 7.3,0.8 10.5,2.5 3.2,1.7 4.9,3.1 5,4.3 0.1,1.1 0.3,3.9 0.3,8.4 l 0.4,0.4 2.9,0 0.5,-0.4 c 0.2,-6.3 0.7,-11.1 1.5,-14.5 L 407,410 c -3.1,-1.6 -6.5,-2.7 -10.3,-3.5 -3.8,-0.8 -7.3,-1.2 -10.5,-1.2 -8.1,0 -14.5,2.2 -19.3,6.6 -4.8,4.4 -7.2,10.1 -7.2,17 0,2.6 0.4,4.9 1.2,7.2 0.8,2.2 1.9,4.1 3.3,5.7 1.4,1.5 3.1,2.8 5.2,3.8 2.1,1 4.1,1.7 6.2,2.2 2.1,0.5 5,1 8.7,1.6 3.8,0.6 6.7,1.2 8.6,1.7 1.9,0.5 3.6,1.3 5.1,2.4 1.5,1.1 2.7,2.5 3.5,4.3 0.8,1.8 1.2,3.9 1.2,6.4 0,3.5 -0.9,6.6 -2.6,9.4 -1.7,2.8 -4.2,4.9 -7.3,6.3 -3.1,1.4 -6.6,2.2 -10.6,2.2 -2.8,0 -5.7,-0.4 -8.4,-1.1 -2.8,-0.7 -5,-1.7 -6.7,-2.9 -1.7,-1.2 -2.7,-2.3 -3,-3.3 -0.3,-1.1 -0.6,-3.9 -0.7,-8.7 l -0.4,-0.4 -2.7,0 -0.4,0.4 c -0.2,8.5 -0.5,14 -0.8,16.3 l 0.3,0.7 c 5.8,2.7 12.5,4.1 20.1,4.1 9.1,0 16.9,-2.6 23.3,-7.9 6.4,-5.2 9.6,-11.8 9.6,-19.7 0.1,-3.8 -0.8,-7.3 -2.6,-10.1 z"
           id="path33"
           inkscape:connector-curvature="0"
            /><path
           class="st0"
           d="m 479.2,466.5 -2.7,0 -0.6,0.4 c -0.1,0.8 -0.5,2.7 -1.3,5.8 -0.8,3.1 -1.3,5 -1.6,5.9 -2,0.8 -4.2,1.4 -6.4,1.6 -2.3,0.2 -7.9,0.3 -16.8,0.3 l -10.2,0 c -0.2,-3.7 -0.3,-9.4 -0.3,-17.1 0,-7.2 0.1,-12.4 0.3,-15.5 4.4,-0.2 7.7,-0.3 9.8,-0.3 3.9,0 6.9,0.1 9.1,0.3 2.2,0.2 3.6,0.5 4.1,0.9 0.5,0.4 0.9,0.8 1,1.3 0.1,0.5 0.4,2 0.7,4.6 l 0.4,3.3 0.4,0.4 2.5,0 0.4,-0.4 -0.3,-12.5 c 0.1,-4.1 0.2,-8.1 0.3,-12.1 l -0.4,-0.4 -2.5,0 -0.4,0.4 -0.2,3.4 c -0.1,1.7 -0.3,2.9 -0.5,3.6 -0.2,0.7 -0.5,1.1 -0.9,1.4 -0.4,0.2 -1.7,0.5 -4,0.7 -2.3,0.2 -5.1,0.3 -8.5,0.3 -3.4,0 -7,-0.1 -11,-0.3 l 0.2,-11.2 0.2,-10.1 0.2,-8.9 c 4.5,-0.4 8.3,-0.6 11.2,-0.6 2.1,0 5.2,0.2 9.3,0.5 4.1,0.3 7.3,1 9.7,2 0.5,2.8 0.7,5.8 0.7,9 0,0.3 0,0.6 -0.1,0.9 l 0.5,0.4 2.7,0 0.3,-0.4 c 0.4,-7.6 1.1,-13.1 2,-16.7 l -0.3,-0.4 c -9.5,0.2 -20.2,0.3 -32.4,0.3 -3.5,0 -11.7,-0.1 -24.3,-0.3 l -0.4,0.4 0,2.8 0.4,0.4 4.2,0.3 c 1.3,0.1 2.2,0.3 2.7,0.5 0.5,0.2 0.9,0.4 1.2,0.7 0.2,0.3 0.5,0.8 0.6,1.6 0.2,0.7 0.3,2 0.4,3.7 0.1,1.7 0.1,3.9 0.1,6.7 l 0.1,12.6 0,20.3 c 0,3.3 -0.1,8 -0.3,14.2 -0.2,6.2 -0.5,9.4 -0.8,9.7 -0.3,0.3 -1.6,1 -3.7,2.1 l -0.4,0.6 0,1.8 0.4,0.4 c 3.8,-0.3 7.5,-0.4 11,-0.4 l 15.1,0.1 c 11.4,0 20.6,0.1 27.7,0.3 l 0.4,-0.4 c 0,-2.8 0.2,-6.2 0.5,-10.1 0.3,-4 0.6,-6.7 1,-8.3 l -0.5,-0.5 z"
           id="path35"
           inkscape:connector-curvature="0"
            /></g></g><g
       id="g37"><path
         class="st0"
         d="m 432.3,229.5 -7.6,0 c -7.1,0 -11.8,-1.5 -14.3,-4.5 -2.4,-2.8 -7.7,-15.5 -16.3,-38.6 L 372,126.5 c -6.3,-17.1 -9.8,-27 -10.7,-30.2 -1,-3.6 -0.8,-6.1 0.6,-7.7 1.3,-1.5 4.6,-2.2 10.5,-2.2 l 6,0 -1.5,-3.9 c -10.4,0.5 -20.7,0.7 -30.6,0.7 -8.9,0 -18.4,-0.2 -28.4,-0.6 l 1.4,3.9 6.5,0 c 5.2,0 8.8,0.7 11.1,2.1 2.2,1.4 4.1,3.6 5.5,6.7 3.8,8.1 7.9,18.3 12.3,30.3 l 10.9,29.9 -63.8,0 -10.9,-31.8 c -5.9,-17.1 -9.1,-27 -9.9,-30.3 -0.9,-3.6 -0.6,-6.1 0.8,-7.7 1.4,-1.5 4.6,-2.2 10.5,-2.2 l 6.1,0 -1.4,-3.9 c -10.4,0.5 -20.7,0.7 -30.6,0.7 l -42.3,0 c -8.9,0 -18.4,-0.2 -28.4,-0.6 l 1.2,3.9 6.5,0 c 2.8,0 5.2,0.2 7.1,0.6 L 159,207.6 c -2.4,5.7 -6.5,10.5 -11.9,13.3 -0.4,0.2 -0.8,0.4 -1.3,0.6 -0.2,0.1 -0.3,0.1 -0.4,0.2 -1.1,0.7 -3.5,1.7 -11.9,2.2 l 0,7.3 c 5.8,-0.4 13.3,-0.7 22.6,-0.7 9.8,0 18.3,0.2 25.1,0.7 l 0,-7.3 c -10.9,-0.9 -13.5,-1.6 -14.4,-2.1 -1.9,-0.9 -2.8,-2.5 -2.8,-4.6 0,-1.3 0.2,-2.8 0.7,-4.4 0.1,-0.3 0.2,-0.5 0.2,-0.8 l 20.4,-49.2 58.4,0 6.2,19.2 c 4.7,14.6 8,25.9 9.7,33.6 0.9,4.1 0.6,6.9 -0.8,8.5 -1.4,1.7 -4.9,2.4 -10.9,2.4 l -5.7,0 1.4,4.6 c 10,-0.5 21,-0.7 32.8,-0.7 l 44.4,0 c 10,0 19.8,0.2 29.3,0.7 l -1.6,-4.5 -7.5,0 c -7.1,0 -11.8,-1.5 -14.2,-4.5 -2.3,-2.8 -7.3,-15.5 -15.3,-38.7 l -7.1,-20.6 63.9,0 8,22 c 5.3,14.6 9,25.9 11,33.6 1.1,4.1 0.9,6.9 -0.5,8.5 -1.4,1.7 -4.8,2.4 -10.9,2.4 l -5.7,0 1.6,4.6 c 10,-0.5 21,-0.7 32.8,-0.7 10,0 19.8,0.2 29.3,0.7 l -1.6,-4.4 z M 239.3,85.7 c 1.2,-1.3 3.8,-1.9 8.3,-2.1 4.3,0.2 7.2,0.8 9.1,2 2.2,1.4 4,3.6 5.4,6.7 3.6,8.1 7.4,18.3 11.5,30.3 l 11.1,32.8 -26.1,0 -10.5,-31.8 c -5.7,-17.1 -8.8,-27 -9.5,-30.3 -1,-3.6 -0.7,-6.1 0.7,-7.6 z m -51,69.7 26.2,-63.1 c 0.9,-2.2 4.1,-2.2 5,0 l 0,0.1 c 3.4,8.1 7.2,18.3 11.1,30.3 l 10.6,32.7 -52.9,0 z m 105.2,26.7 c 4.9,14.6 8.3,25.9 10.2,33.6 1,4.1 0.7,6.9 -0.7,8.5 -1.2,1.4 -3.7,2.1 -8,2.3 -6.3,-0.2 -10.4,-1.7 -12.5,-4.4 -2.3,-2.8 -7.1,-15.5 -14.7,-38.7 l -6.8,-20.6 26.2,0 6.3,19.3 z"
         id="path39"
         inkscape:connector-curvature="0"
          /></g></g></svg>