<?xml version="1.0" encoding="utf-8"?>
<!-- Generator: Adobe Illustrator 19.2.1, SVG Export Plug-In . SVG Version: 6.00 Build 0)  -->
<svg version="1.1" id="Layer_1" xmlns="http://www.w3.org/2000/svg" xmlns:xlink="http://www.w3.org/1999/xlink" x="0px" y="0px"
	 viewBox="0 0 152.3 42.2" style="enable-background:new 0 0 152.3 42.2;" xml:space="preserve">
<style type="text/css">
	.st0{fill:#fb182e;}
	.st1{fill:#919090;}
</style>
<path class="st0" d="M4,31.8V18.1H0V8.5h4V0h11.8v8.5h7.9v9.5h-7.9v11.4c0,2.4,1.1,3.4,3.2,3.4c1.6,0,3.1-0.4,4.5-1.1V41
	c-2.1,1.2-4.9,1.9-8.2,1.9C8.2,42.9,4,39.8,4,31.8z"/>
<path class="st1" d="M34.9,7.7h12.3v11.8H34.9V7.7z M35.2,24.5H47v17.7H35.2V24.5z"/>
<path class="st0" d="M58.2,8.5H70v4.6c2.2-2.8,5.3-5.4,10-5.4c4.5,0,7.9,2,9.7,5.5c2.9-3.4,6.4-5.5,11.3-5.5
	c7.2,0,11.5,4.5,11.5,12.3v22.1h-11.8V23.9c0-3.7-1.8-5.6-4.6-5.6c-2.8,0-4.9,1.9-4.9,5.6v18.3H79.4V23.9c0-3.7-1.8-5.6-4.6-5.6
	c-2.8,0-4.8,1.9-4.8,5.6v18.3H58.2V8.5z"/>
<path class="st0" d="M141.9,32.8c-1.5,0.9-3.1,1.4-4.9,1.4c-3.7,0-6.4-1.9-7.3-5.5h4.6h18c0.1-0.8,0.1-1.7,0.1-2.4
	c0-9.9-5.4-18.4-17-18.4c-10,0-17,7.8-17,17.6v0.1c0,10.5,7.5,17.5,18.1,17.5c6.7,0,14-4.4,15.7-10.2H141.9z M135.4,16.5
	c3.2,0,5.4,2.4,5.9,6.1h-11.7C130.1,18.9,132.3,16.5,135.4,16.5z"/>
</svg>
